<?xml version="1.0" encoding="UTF-8" standalone="no"?>
<!DOCTYPE svg PUBLIC "-//W3C//DTD SVG 1.1//EN"
 "http://www.w3.org/Graphics/SVG/1.1/DTD/svg11.dtd">
<!-- Generated by graphviz version 2.43.0 (0)
 -->
<!-- Title: cAbstractLineFigure Pages: 1 -->
<svg width="276pt" height="196pt"
 viewBox="0.00 0.00 275.50 196.00" xmlns="http://www.w3.org/2000/svg" xmlns:xlink="http://www.w3.org/1999/xlink">
<g id="graph0" class="graph" transform="scale(1 1) rotate(0) translate(4 192)">
<title>cAbstractLineFigure</title>
<polygon fill="white" stroke="transparent" points="-4,4 -4,-192 271.5,-192 271.5,4 -4,4"/>
<!-- Node1 -->
<g id="node1" class="node">
<title>Node1</title>
<g id="a_node1"><a xlink:title="Common base class for line figures.">
<polygon fill="#bfbfbf" stroke="black" points="65.5,-56.5 65.5,-75.5 178.5,-75.5 178.5,-56.5 65.5,-56.5"/>
<text text-anchor="middle" x="122" y="-63.5" font-family="Helvetica,sans-Serif" font-size="10.00">cAbstractLineFigure</text>
</a>
</g>
</g>
<!-- Node6 -->
<g id="node4" class="node">
<title>Node6</title>
<g id="a_node4"><a xlink:href="classomnetpp_1_1cArcFigure.html" target="_top" xlink:title="A figure that displays an arc.">
<polygon fill="white" stroke="black" points="0,-0.5 0,-19.5 68,-19.5 68,-0.5 0,-0.5"/>
<text text-anchor="middle" x="34" y="-7.5" font-family="Helvetica,sans-Serif" font-size="10.00">cArcFigure</text>
</a>
</g>
</g>
<!-- Node1&#45;&gt;Node6 -->
<g id="edge3" class="edge">
<title>Node1&#45;&gt;Node6</title>
<path fill="none" stroke="midnightblue" d="M99.02,-50.9C82.89,-41 61.82,-28.07 48.1,-19.65"/>
<polygon fill="midnightblue" stroke="midnightblue" points="97.51,-54.08 107.86,-56.32 101.17,-48.11 97.51,-54.08"/>
</g>
<!-- Node7 -->
<g id="node5" class="node">
<title>Node7</title>
<g id="a_node5"><a xlink:href="classomnetpp_1_1cLineFigure.html" target="_top" xlink:title="A figure that displays a straight line segment.">
<polygon fill="white" stroke="black" points="86,-0.5 86,-19.5 158,-19.5 158,-0.5 86,-0.5"/>
<text text-anchor="middle" x="122" y="-7.5" font-family="Helvetica,sans-Serif" font-size="10.00">cLineFigure</text>
</a>
</g>
</g>
<!-- Node1&#45;&gt;Node7 -->
<g id="edge4" class="edge">
<title>Node1&#45;&gt;Node7</title>
<path fill="none" stroke="midnightblue" d="M122,-45.8C122,-36.91 122,-26.78 122,-19.75"/>
<polygon fill="midnightblue" stroke="midnightblue" points="118.5,-46.08 122,-56.08 125.5,-46.08 118.5,-46.08"/>
</g>
<!-- Node8 -->
<g id="node6" class="node">
<title>Node8</title>
<g id="a_node6"><a xlink:href="classomnetpp_1_1cPolylineFigure.html" target="_top" xlink:title="A figure that displays a line that consists of multiple connecting straight line segments or of a sin...">
<polygon fill="white" stroke="black" points="176.5,-0.5 176.5,-19.5 267.5,-19.5 267.5,-0.5 176.5,-0.5"/>
<text text-anchor="middle" x="222" y="-7.5" font-family="Helvetica,sans-Serif" font-size="10.00">cPolylineFigure</text>
</a>
</g>
</g>
<!-- Node1&#45;&gt;Node8 -->
<g id="edge5" class="edge">
<title>Node1&#45;&gt;Node8</title>
<path fill="none" stroke="midnightblue" d="M147.09,-51.45C165.55,-41.48 190.1,-28.23 205.97,-19.65"/>
<polygon fill="midnightblue" stroke="midnightblue" points="145.2,-48.49 138.07,-56.32 148.53,-54.65 145.2,-48.49"/>
</g>
<!-- Node2 -->
<g id="node2" class="node">
<title>Node2</title>
<g id="a_node2"><a xlink:href="classomnetpp_1_1cFigure.html" target="_top" xlink:title="A lightweight graphical object for cCanvas.">
<polygon fill="white" stroke="black" points="96,-112.5 96,-131.5 148,-131.5 148,-112.5 96,-112.5"/>
<text text-anchor="middle" x="122" y="-119.5" font-family="Helvetica,sans-Serif" font-size="10.00">cFigure</text>
</a>
</g>
</g>
<!-- Node2&#45;&gt;Node1 -->
<g id="edge1" class="edge">
<title>Node2&#45;&gt;Node1</title>
<path fill="none" stroke="midnightblue" d="M122,-101.8C122,-92.91 122,-82.78 122,-75.75"/>
<polygon fill="midnightblue" stroke="midnightblue" points="118.5,-102.08 122,-112.08 125.5,-102.08 118.5,-102.08"/>
</g>
<!-- Node3 -->
<g id="node3" class="node">
<title>Node3</title>
<g id="a_node3"><a xlink:href="classomnetpp_1_1cOwnedObject.html" target="_top" xlink:title="A cObject that keeps track of its owner. It serves as base class for many classes in the OMNeT++ libr...">
<polygon fill="white" stroke="red" points="78.5,-168.5 78.5,-187.5 165.5,-187.5 165.5,-168.5 78.5,-168.5"/>
<text text-anchor="middle" x="122" y="-175.5" font-family="Helvetica,sans-Serif" font-size="10.00">cOwnedObject</text>
</a>
</g>
</g>
<!-- Node3&#45;&gt;Node2 -->
<g id="edge2" class="edge">
<title>Node3&#45;&gt;Node2</title>
<path fill="none" stroke="midnightblue" d="M122,-157.8C122,-148.91 122,-138.78 122,-131.75"/>
<polygon fill="midnightblue" stroke="midnightblue" points="118.5,-158.08 122,-168.08 125.5,-158.08 118.5,-158.08"/>
</g>
</g>
</svg>
