<?xml version="1.0" encoding="UTF-8" standalone="no"?>
<!DOCTYPE svg PUBLIC "-//W3C//DTD SVG 1.1//EN"
 "http://www.w3.org/Graphics/SVG/1.1/DTD/svg11.dtd">
<!-- Generated by graphviz version 2.43.0 (0)
 -->
<!-- Title: cITimestampedValue Pages: 1 -->
<svg width="282pt" height="84pt"
 viewBox="0.00 0.00 281.50 84.00" xmlns="http://www.w3.org/2000/svg" xmlns:xlink="http://www.w3.org/1999/xlink">
<g id="graph0" class="graph" transform="scale(1 1) rotate(0) translate(4 80)">
<title>cITimestampedValue</title>
<polygon fill="white" stroke="transparent" points="-4,4 -4,-80 277.5,-80 277.5,4 -4,4"/>
<!-- Node1 -->
<g id="node1" class="node">
<title>Node1</title>
<g id="a_node1"><a xlink:title="Interface for emitting timestamped values as signals, primarily for result recording.">
<polygon fill="#bfbfbf" stroke="black" points="83,-56.5 83,-75.5 202,-75.5 202,-56.5 83,-56.5"/>
<text text-anchor="middle" x="142.5" y="-63.5" font-family="Helvetica,sans-Serif" font-size="10.00">cITimestampedValue</text>
</a>
</g>
</g>
<!-- Node2 -->
<g id="node2" class="node">
<title>Node2</title>
<g id="a_node2"><a xlink:href="classomnetpp_1_1cChannel_1_1MessageSentSignalValue.html" target="_top" xlink:title="Signal value that accompanies the &quot;messageSent&quot; signal.">
<polygon fill="white" stroke="black" points="0,-0.5 0,-19.5 139,-19.5 139,-0.5 0,-0.5"/>
<text text-anchor="middle" x="69.5" y="-7.5" font-family="Helvetica,sans-Serif" font-size="10.00">MessageSentSignalValue</text>
</a>
</g>
</g>
<!-- Node1&#45;&gt;Node2 -->
<g id="edge1" class="edge">
<title>Node1&#45;&gt;Node2</title>
<path fill="none" stroke="midnightblue" d="M122.36,-50.1C109.22,-40.38 92.52,-28.03 81.44,-19.83"/>
<polygon fill="midnightblue" stroke="midnightblue" points="120.65,-53.19 130.77,-56.32 124.81,-47.56 120.65,-53.19"/>
</g>
<!-- Node3 -->
<g id="node3" class="node">
<title>Node3</title>
<g id="a_node3"><a xlink:href="classomnetpp_1_1cTimestampedValue.html" target="_top" xlink:title="A straightforward implementation of cITimestampedValue.">
<polygon fill="white" stroke="black" points="157.5,-0.5 157.5,-19.5 273.5,-19.5 273.5,-0.5 157.5,-0.5"/>
<text text-anchor="middle" x="215.5" y="-7.5" font-family="Helvetica,sans-Serif" font-size="10.00">cTimestampedValue</text>
</a>
</g>
</g>
<!-- Node1&#45;&gt;Node3 -->
<g id="edge2" class="edge">
<title>Node1&#45;&gt;Node3</title>
<path fill="none" stroke="midnightblue" d="M162.64,-50.1C175.78,-40.38 192.48,-28.03 203.56,-19.83"/>
<polygon fill="midnightblue" stroke="midnightblue" points="160.19,-47.56 154.23,-56.32 164.35,-53.19 160.19,-47.56"/>
</g>
</g>
</svg>
