<?xml version="1.0" encoding="UTF-8" standalone="no"?>
<!DOCTYPE svg PUBLIC "-//W3C//DTD SVG 1.1//EN"
 "http://www.w3.org/Graphics/SVG/1.1/DTD/svg11.dtd">
<!-- Generated by graphviz version 2.43.0 (0)
 -->
<!-- Title: cSequentialScheduler Pages: 1 -->
<svg width="240pt" height="140pt"
 viewBox="0.00 0.00 239.50 140.00" xmlns="http://www.w3.org/2000/svg" xmlns:xlink="http://www.w3.org/1999/xlink">
<g id="graph0" class="graph" transform="scale(1 1) rotate(0) translate(4 136)">
<title>cSequentialScheduler</title>
<polygon fill="white" stroke="transparent" points="-4,4 -4,-136 235.5,-136 235.5,4 -4,4"/>
<!-- Node1 -->
<g id="node1" class="node">
<title>Node1</title>
<g id="a_node1"><a xlink:title="Event scheduler for sequential simulation.">
<polygon fill="#bfbfbf" stroke="black" points="27.5,-0.5 27.5,-19.5 149.5,-19.5 149.5,-0.5 27.5,-0.5"/>
<text text-anchor="middle" x="88.5" y="-7.5" font-family="Helvetica,sans-Serif" font-size="10.00">cSequentialScheduler</text>
</a>
</g>
</g>
<!-- Node2 -->
<g id="node2" class="node">
<title>Node2</title>
<g id="a_node2"><a xlink:href="classomnetpp_1_1cScheduler.html" target="_top" xlink:title="Abstract class to encapsulate event scheduling.">
<polygon fill="white" stroke="black" points="53.5,-56.5 53.5,-75.5 123.5,-75.5 123.5,-56.5 53.5,-56.5"/>
<text text-anchor="middle" x="88.5" y="-63.5" font-family="Helvetica,sans-Serif" font-size="10.00">cScheduler</text>
</a>
</g>
</g>
<!-- Node2&#45;&gt;Node1 -->
<g id="edge1" class="edge">
<title>Node2&#45;&gt;Node1</title>
<path fill="none" stroke="midnightblue" d="M88.5,-45.8C88.5,-36.91 88.5,-26.78 88.5,-19.75"/>
<polygon fill="midnightblue" stroke="midnightblue" points="85,-46.08 88.5,-56.08 92,-46.08 85,-46.08"/>
</g>
<!-- Node3 -->
<g id="node3" class="node">
<title>Node3</title>
<g id="a_node3"><a xlink:href="classomnetpp_1_1cObject.html" target="_top" xlink:title="cObject is a lightweight class which serves as the root of the OMNeT++ class hierarchy....">
<polygon fill="white" stroke="black" points="0,-112.5 0,-131.5 53,-131.5 53,-112.5 0,-112.5"/>
<text text-anchor="middle" x="26.5" y="-119.5" font-family="Helvetica,sans-Serif" font-size="10.00">cObject</text>
</a>
</g>
</g>
<!-- Node3&#45;&gt;Node2 -->
<g id="edge2" class="edge">
<title>Node3&#45;&gt;Node2</title>
<path fill="none" stroke="midnightblue" d="M44.25,-105.54C55.31,-95.91 69.13,-83.87 78.36,-75.83"/>
<polygon fill="midnightblue" stroke="midnightblue" points="41.7,-103.12 36.46,-112.32 46.3,-108.4 41.7,-103.12"/>
</g>
<!-- Node4 -->
<g id="node4" class="node">
<title>Node4</title>
<g id="a_node4"><a xlink:href="classomnetpp_1_1cISimulationLifecycleListener.html" target="_top" xlink:title="A callback interface for receiving notifications at various stages simulations, including setting up,...">
<polygon fill="white" stroke="black" points="71.5,-112.5 71.5,-131.5 231.5,-131.5 231.5,-112.5 71.5,-112.5"/>
<text text-anchor="middle" x="151.5" y="-119.5" font-family="Helvetica,sans-Serif" font-size="10.00">cISimulationLifecycleListener</text>
</a>
</g>
</g>
<!-- Node4&#45;&gt;Node2 -->
<g id="edge3" class="edge">
<title>Node4&#45;&gt;Node2</title>
<path fill="none" stroke="midnightblue" d="M133.46,-105.54C122.23,-95.91 108.18,-83.87 98.81,-75.83"/>
<polygon fill="midnightblue" stroke="midnightblue" points="131.51,-108.47 141.38,-112.32 136.06,-103.16 131.51,-108.47"/>
</g>
</g>
</svg>
