<?xml version="1.0" encoding="UTF-8" standalone="no"?>
<!DOCTYPE svg PUBLIC "-//W3C//DTD SVG 1.1//EN"
 "http://www.w3.org/Graphics/SVG/1.1/DTD/svg11.dtd">
<!-- Generated by graphviz version 2.43.0 (0)
 -->
<!-- Title: cFigure Pages: 1 -->
<svg width="604pt" height="484pt"
 viewBox="0.00 0.00 604.00 484.00" xmlns="http://www.w3.org/2000/svg" xmlns:xlink="http://www.w3.org/1999/xlink">
<g id="graph0" class="graph" transform="scale(1 1) rotate(0) translate(4 480)">
<title>cFigure</title>
<polygon fill="white" stroke="transparent" points="-4,4 -4,-480 600,-480 600,4 -4,4"/>
<!-- Node1 -->
<g id="node1" class="node">
<title>Node1</title>
<g id="a_node1"><a xlink:title="A lightweight graphical object for cCanvas.">
<polygon fill="#bfbfbf" stroke="black" points="248,-152.5 248,-171.5 300,-171.5 300,-152.5 248,-152.5"/>
<text text-anchor="middle" x="274" y="-159.5" font-family="Helvetica,sans-Serif" font-size="10.00">cFigure</text>
</a>
</g>
</g>
<!-- Node5 -->
<g id="node4" class="node">
<title>Node5</title>
<g id="a_node4"><a xlink:href="classomnetpp_1_1cAbstractImageFigure.html" target="_top" xlink:title="Abstract base class for figures that display an image.">
<polygon fill="white" stroke="black" points="336,-418.5 336,-437.5 459,-437.5 459,-418.5 336,-418.5"/>
<text text-anchor="middle" x="397.5" y="-425.5" font-family="Helvetica,sans-Serif" font-size="10.00">cAbstractImageFigure</text>
</a>
</g>
</g>
<!-- Node1&#45;&gt;Node5 -->
<g id="edge3" class="edge">
<title>Node1&#45;&gt;Node5</title>
<path fill="none" stroke="midnightblue" d="M278.83,-181.58C286.3,-217.1 304.87,-293.85 336,-352 350.01,-378.17 373.35,-404.28 386.57,-418.04"/>
<polygon fill="midnightblue" stroke="midnightblue" points="282.22,-180.67 276.79,-171.57 275.36,-182.07 282.22,-180.67"/>
</g>
<!-- Node9 -->
<g id="node7" class="node">
<title>Node9</title>
<g id="a_node7"><a xlink:href="classomnetpp_1_1cAbstractLineFigure.html" target="_top" xlink:title="Common base class for line figures.">
<polygon fill="white" stroke="black" points="341,-323.5 341,-342.5 454,-342.5 454,-323.5 341,-323.5"/>
<text text-anchor="middle" x="397.5" y="-330.5" font-family="Helvetica,sans-Serif" font-size="10.00">cAbstractLineFigure</text>
</a>
</g>
</g>
<!-- Node1&#45;&gt;Node9 -->
<g id="edge6" class="edge">
<title>Node1&#45;&gt;Node9</title>
<path fill="none" stroke="midnightblue" d="M287.98,-180.27C313.66,-216.41 370.16,-295.93 389.69,-323.42"/>
<polygon fill="midnightblue" stroke="midnightblue" points="290.53,-177.81 281.88,-171.68 284.82,-181.86 290.53,-177.81"/>
</g>
<!-- Node13 -->
<g id="node11" class="node">
<title>Node13</title>
<g id="a_node11"><a xlink:href="classomnetpp_1_1cAbstractShapeFigure.html" target="_top" xlink:title="Abstract base class for various shapes.">
<polygon fill="white" stroke="black" points="336.5,-171.5 336.5,-190.5 458.5,-190.5 458.5,-171.5 336.5,-171.5"/>
<text text-anchor="middle" x="397.5" y="-178.5" font-family="Helvetica,sans-Serif" font-size="10.00">cAbstractShapeFigure</text>
</a>
</g>
</g>
<!-- Node1&#45;&gt;Node13 -->
<g id="edge10" class="edge">
<title>Node1&#45;&gt;Node13</title>
<path fill="none" stroke="midnightblue" d="M310.11,-167.49C318.33,-168.78 327.31,-170.18 336.27,-171.58"/>
<polygon fill="midnightblue" stroke="midnightblue" points="310.6,-164.02 300.17,-165.94 309.51,-170.94 310.6,-164.02"/>
</g>
<!-- Node20 -->
<g id="node18" class="node">
<title>Node20</title>
<g id="a_node18"><a xlink:href="classomnetpp_1_1cAbstractTextFigure.html" target="_top" xlink:title="Abstract base class for figures that display text. Text may be multi&#45;line.">
<polygon fill="white" stroke="black" points="341,-133.5 341,-152.5 454,-152.5 454,-133.5 341,-133.5"/>
<text text-anchor="middle" x="397.5" y="-140.5" font-family="Helvetica,sans-Serif" font-size="10.00">cAbstractTextFigure</text>
</a>
</g>
</g>
<!-- Node1&#45;&gt;Node20 -->
<g id="edge17" class="edge">
<title>Node1&#45;&gt;Node20</title>
<path fill="none" stroke="midnightblue" d="M310.12,-156.51C319.72,-155.01 330.36,-153.34 340.8,-151.71"/>
<polygon fill="midnightblue" stroke="midnightblue" points="309.51,-153.06 300.17,-158.06 310.6,-159.98 309.51,-153.06"/>
</g>
<!-- Node23 -->
<g id="node21" class="node">
<title>Node23</title>
<g id="a_node21"><a xlink:href="classomnetpp_1_1cGroupFigure.html" target="_top" xlink:title="A figure with the sole purpose of grouping its children, and no visual representation.">
<polygon fill="white" stroke="black" points="357,-95.5 357,-114.5 438,-114.5 438,-95.5 357,-95.5"/>
<text text-anchor="middle" x="397.5" y="-102.5" font-family="Helvetica,sans-Serif" font-size="10.00">cGroupFigure</text>
</a>
</g>
</g>
<!-- Node1&#45;&gt;Node23 -->
<g id="edge20" class="edge">
<title>Node1&#45;&gt;Node23</title>
<path fill="none" stroke="midnightblue" d="M296.85,-146.5C308.16,-138.98 322.4,-130.25 336,-124 343.8,-120.41 352.47,-117.25 360.74,-114.58"/>
<polygon fill="midnightblue" stroke="midnightblue" points="294.78,-143.68 288.49,-152.2 298.72,-149.46 294.78,-143.68"/>
</g>
<!-- Node24 -->
<g id="node22" class="node">
<title>Node24</title>
<g id="a_node22"><a xlink:href="classomnetpp_1_1cPanelFigure.html" target="_top" xlink:title="Sets up an axis&#45;aligned, unscaled coordinate system for children, canceling the effect of any transfo...">
<polygon fill="white" stroke="black" points="358.5,-57.5 358.5,-76.5 436.5,-76.5 436.5,-57.5 358.5,-57.5"/>
<text text-anchor="middle" x="397.5" y="-64.5" font-family="Helvetica,sans-Serif" font-size="10.00">cPanelFigure</text>
</a>
</g>
</g>
<!-- Node1&#45;&gt;Node24 -->
<g id="edge21" class="edge">
<title>Node1&#45;&gt;Node24</title>
<path fill="none" stroke="midnightblue" d="M285.31,-143.67C295.91,-126.43 313.96,-101.06 336,-86 342.73,-81.4 350.62,-77.88 358.44,-75.19"/>
<polygon fill="midnightblue" stroke="midnightblue" points="282.29,-141.91 280.21,-152.3 288.31,-145.48 282.29,-141.91"/>
</g>
<!-- Node2 -->
<g id="node2" class="node">
<title>Node2</title>
<g id="a_node2"><a xlink:href="classomnetpp_1_1cOwnedObject.html" target="_top" xlink:title="A cObject that keeps track of its owner. It serves as base class for many classes in the OMNeT++ libr...">
<polygon fill="white" stroke="black" points="125,-152.5 125,-171.5 212,-171.5 212,-152.5 125,-152.5"/>
<text text-anchor="middle" x="168.5" y="-159.5" font-family="Helvetica,sans-Serif" font-size="10.00">cOwnedObject</text>
</a>
</g>
</g>
<!-- Node2&#45;&gt;Node1 -->
<g id="edge1" class="edge">
<title>Node2&#45;&gt;Node1</title>
<path fill="none" stroke="midnightblue" d="M222.25,-162C231.19,-162 240.09,-162 247.89,-162"/>
<polygon fill="midnightblue" stroke="midnightblue" points="222.19,-158.5 212.19,-162 222.19,-165.5 222.19,-158.5"/>
</g>
<!-- Node3 -->
<g id="node3" class="node">
<title>Node3</title>
<g id="a_node3"><a xlink:href="classomnetpp_1_1cNamedObject.html" target="_top" xlink:title="Extends cObject with a name string. Also includes a &quot;flags&quot; member, with bits open for use by subclas...">
<polygon fill="white" stroke="red" points="0,-152.5 0,-171.5 89,-171.5 89,-152.5 0,-152.5"/>
<text text-anchor="middle" x="44.5" y="-159.5" font-family="Helvetica,sans-Serif" font-size="10.00">cNamedObject</text>
</a>
</g>
</g>
<!-- Node3&#45;&gt;Node2 -->
<g id="edge2" class="edge">
<title>Node3&#45;&gt;Node2</title>
<path fill="none" stroke="midnightblue" d="M99.46,-162C107.99,-162 116.7,-162 124.92,-162"/>
<polygon fill="midnightblue" stroke="midnightblue" points="99.2,-158.5 89.2,-162 99.2,-165.5 99.2,-158.5"/>
</g>
<!-- Node6 -->
<g id="node5" class="node">
<title>Node6</title>
<g id="a_node5"><a xlink:href="classomnetpp_1_1cImageFigure.html" target="_top" xlink:title="A figure that displays an image, typically an icon or a background image, loaded from the OMNeT++ ima...">
<polygon fill="white" stroke="red" points="504,-456.5 504,-475.5 587,-475.5 587,-456.5 504,-456.5"/>
<text text-anchor="middle" x="545.5" y="-463.5" font-family="Helvetica,sans-Serif" font-size="10.00">cImageFigure</text>
</a>
</g>
</g>
<!-- Node5&#45;&gt;Node6 -->
<g id="edge4" class="edge">
<title>Node5&#45;&gt;Node6</title>
<path fill="none" stroke="midnightblue" d="M445.04,-440.11C465.37,-445.4 488.87,-451.52 507.92,-456.48"/>
<polygon fill="midnightblue" stroke="midnightblue" points="445.9,-436.72 435.34,-437.59 444.14,-443.5 445.9,-436.72"/>
</g>
<!-- Node8 -->
<g id="node6" class="node">
<title>Node8</title>
<g id="a_node6"><a xlink:href="classomnetpp_1_1cPixmapFigure.html" target="_top" xlink:title="A figure that displays an image that can be manipulated programmatically.">
<polygon fill="white" stroke="black" points="501,-418.5 501,-437.5 590,-437.5 590,-418.5 501,-418.5"/>
<text text-anchor="middle" x="545.5" y="-425.5" font-family="Helvetica,sans-Serif" font-size="10.00">cPixmapFigure</text>
</a>
</g>
</g>
<!-- Node5&#45;&gt;Node8 -->
<g id="edge5" class="edge">
<title>Node5&#45;&gt;Node8</title>
<path fill="none" stroke="midnightblue" d="M469.36,-428C480.06,-428 490.82,-428 500.73,-428"/>
<polygon fill="midnightblue" stroke="midnightblue" points="469.15,-424.5 459.15,-428 469.15,-431.5 469.15,-424.5"/>
</g>
<!-- Node10 -->
<g id="node8" class="node">
<title>Node10</title>
<g id="a_node8"><a xlink:href="classomnetpp_1_1cArcFigure.html" target="_top" xlink:title="A figure that displays an arc.">
<polygon fill="white" stroke="black" points="511.5,-380.5 511.5,-399.5 579.5,-399.5 579.5,-380.5 511.5,-380.5"/>
<text text-anchor="middle" x="545.5" y="-387.5" font-family="Helvetica,sans-Serif" font-size="10.00">cArcFigure</text>
</a>
</g>
</g>
<!-- Node9&#45;&gt;Node10 -->
<g id="edge7" class="edge">
<title>Node9&#45;&gt;Node10</title>
<path fill="none" stroke="midnightblue" d="M432.14,-346.33C450.67,-353.65 474.09,-362.87 495,-371 502.98,-374.1 511.69,-377.46 519.56,-380.47"/>
<polygon fill="midnightblue" stroke="midnightblue" points="433.26,-343.01 422.67,-342.58 430.68,-349.52 433.26,-343.01"/>
</g>
<!-- Node11 -->
<g id="node9" class="node">
<title>Node11</title>
<g id="a_node9"><a xlink:href="classomnetpp_1_1cLineFigure.html" target="_top" xlink:title="A figure that displays a straight line segment.">
<polygon fill="white" stroke="black" points="509.5,-342.5 509.5,-361.5 581.5,-361.5 581.5,-342.5 509.5,-342.5"/>
<text text-anchor="middle" x="545.5" y="-349.5" font-family="Helvetica,sans-Serif" font-size="10.00">cLineFigure</text>
</a>
</g>
</g>
<!-- Node9&#45;&gt;Node11 -->
<g id="edge8" class="edge">
<title>Node9&#45;&gt;Node11</title>
<path fill="none" stroke="midnightblue" d="M464.23,-341.55C479.76,-343.58 495.74,-345.65 509.31,-347.42"/>
<polygon fill="midnightblue" stroke="midnightblue" points="464.48,-338.06 454.11,-340.24 463.58,-345 464.48,-338.06"/>
</g>
<!-- Node12 -->
<g id="node10" class="node">
<title>Node12</title>
<g id="a_node10"><a xlink:href="classomnetpp_1_1cPolylineFigure.html" target="_top" xlink:title="A figure that displays a line that consists of multiple connecting straight line segments or of a sin...">
<polygon fill="white" stroke="black" points="500,-304.5 500,-323.5 591,-323.5 591,-304.5 500,-304.5"/>
<text text-anchor="middle" x="545.5" y="-311.5" font-family="Helvetica,sans-Serif" font-size="10.00">cPolylineFigure</text>
</a>
</g>
</g>
<!-- Node9&#45;&gt;Node12 -->
<g id="edge9" class="edge">
<title>Node9&#45;&gt;Node12</title>
<path fill="none" stroke="midnightblue" d="M464.18,-324.45C476.27,-322.88 488.63,-321.27 499.92,-319.8"/>
<polygon fill="midnightblue" stroke="midnightblue" points="463.58,-321 454.11,-325.76 464.48,-327.94 463.58,-321"/>
</g>
<!-- Node14 -->
<g id="node12" class="node">
<title>Node14</title>
<g id="a_node12"><a xlink:href="classomnetpp_1_1cOvalFigure.html" target="_top" xlink:title="A figure that draws a circle or ellipse.">
<polygon fill="white" stroke="black" points="508.5,-266.5 508.5,-285.5 582.5,-285.5 582.5,-266.5 508.5,-266.5"/>
<text text-anchor="middle" x="545.5" y="-273.5" font-family="Helvetica,sans-Serif" font-size="10.00">cOvalFigure</text>
</a>
</g>
</g>
<!-- Node13&#45;&gt;Node14 -->
<g id="edge11" class="edge">
<title>Node13&#45;&gt;Node14</title>
<path fill="none" stroke="midnightblue" d="M416.07,-197.53C434.57,-214.25 465.1,-240 495,-257 501.32,-260.59 508.46,-263.78 515.3,-266.46"/>
<polygon fill="midnightblue" stroke="midnightblue" points="418.2,-194.73 408.46,-190.54 413.46,-199.89 418.2,-194.73"/>
</g>
<!-- Node15 -->
<g id="node13" class="node">
<title>Node15</title>
<g id="a_node13"><a xlink:href="classomnetpp_1_1cPathFigure.html" target="_top" xlink:title="A figure that displays a &quot;path&quot;, a complex shape or line modeled after SVG paths.">
<polygon fill="white" stroke="black" points="509,-228.5 509,-247.5 582,-247.5 582,-228.5 509,-228.5"/>
<text text-anchor="middle" x="545.5" y="-235.5" font-family="Helvetica,sans-Serif" font-size="10.00">cPathFigure</text>
</a>
</g>
</g>
<!-- Node13&#45;&gt;Node15 -->
<g id="edge12" class="edge">
<title>Node13&#45;&gt;Node15</title>
<path fill="none" stroke="midnightblue" d="M432.14,-194.33C450.67,-201.65 474.09,-210.87 495,-219 502.98,-222.1 511.69,-225.46 519.56,-228.47"/>
<polygon fill="midnightblue" stroke="midnightblue" points="433.26,-191.01 422.67,-190.58 430.68,-197.52 433.26,-191.01"/>
</g>
<!-- Node16 -->
<g id="node14" class="node">
<title>Node16</title>
<g id="a_node14"><a xlink:href="classomnetpp_1_1cPieSliceFigure.html" target="_top" xlink:title="A figure that displays a pie slice, that is, a section of an axis&#45;aligned disc or filled ellipse.">
<polygon fill="white" stroke="black" points="500.5,-190.5 500.5,-209.5 590.5,-209.5 590.5,-190.5 500.5,-190.5"/>
<text text-anchor="middle" x="545.5" y="-197.5" font-family="Helvetica,sans-Serif" font-size="10.00">cPieSliceFigure</text>
</a>
</g>
</g>
<!-- Node13&#45;&gt;Node16 -->
<g id="edge13" class="edge">
<title>Node13&#45;&gt;Node16</title>
<path fill="none" stroke="midnightblue" d="M468.97,-190.17C479.71,-191.57 490.52,-192.97 500.47,-194.27"/>
<polygon fill="midnightblue" stroke="midnightblue" points="469.09,-186.66 458.73,-188.84 468.19,-193.6 469.09,-186.66"/>
</g>
<!-- Node17 -->
<g id="node15" class="node">
<title>Node17</title>
<g id="a_node15"><a xlink:href="classomnetpp_1_1cPolygonFigure.html" target="_top" xlink:title="A figure that displays a (closed) polygon, determined by a sequence of points.">
<polygon fill="white" stroke="black" points="500,-152.5 500,-171.5 591,-171.5 591,-152.5 500,-152.5"/>
<text text-anchor="middle" x="545.5" y="-159.5" font-family="Helvetica,sans-Serif" font-size="10.00">cPolygonFigure</text>
</a>
</g>
</g>
<!-- Node13&#45;&gt;Node17 -->
<g id="edge14" class="edge">
<title>Node13&#45;&gt;Node17</title>
<path fill="none" stroke="midnightblue" d="M468.74,-171.86C479.23,-170.49 489.8,-169.12 499.58,-167.85"/>
<polygon fill="midnightblue" stroke="midnightblue" points="468.19,-168.4 458.73,-173.16 469.09,-175.34 468.19,-168.4"/>
</g>
<!-- Node18 -->
<g id="node16" class="node">
<title>Node18</title>
<g id="a_node16"><a xlink:href="classomnetpp_1_1cRectangleFigure.html" target="_top" xlink:title="A figure that displays a rectangle, with optionally rounded corners.">
<polygon fill="white" stroke="black" points="495,-114.5 495,-133.5 596,-133.5 596,-114.5 495,-114.5"/>
<text text-anchor="middle" x="545.5" y="-121.5" font-family="Helvetica,sans-Serif" font-size="10.00">cRectangleFigure</text>
</a>
</g>
</g>
<!-- Node13&#45;&gt;Node18 -->
<g id="edge15" class="edge">
<title>Node13&#45;&gt;Node18</title>
<path fill="none" stroke="midnightblue" d="M442.7,-168.15C448.24,-166.23 453.79,-164.17 459,-162 475.7,-155.04 478.53,-150.48 495,-143 502.29,-139.69 510.35,-136.44 517.8,-133.58"/>
<polygon fill="midnightblue" stroke="midnightblue" points="441.2,-164.95 432.81,-171.41 443.4,-171.6 441.2,-164.95"/>
</g>
<!-- Node19 -->
<g id="node17" class="node">
<title>Node19</title>
<g id="a_node17"><a xlink:href="classomnetpp_1_1cRingFigure.html" target="_top" xlink:title="A figure that displays a ring, with explicitly controllable inner/outer radii.">
<polygon fill="white" stroke="black" points="508.5,-76.5 508.5,-95.5 582.5,-95.5 582.5,-76.5 508.5,-76.5"/>
<text text-anchor="middle" x="545.5" y="-83.5" font-family="Helvetica,sans-Serif" font-size="10.00">cRingFigure</text>
</a>
</g>
</g>
<!-- Node13&#45;&gt;Node19 -->
<g id="edge16" class="edge">
<title>Node13&#45;&gt;Node19</title>
<path fill="none" stroke="midnightblue" d="M451.15,-167.12C453.91,-165.59 456.55,-163.89 459,-162 482.75,-143.73 471.83,-124 495,-105 499.63,-101.21 505.09,-98.11 510.68,-95.61"/>
<polygon fill="midnightblue" stroke="midnightblue" points="449.53,-164.01 442.01,-171.47 452.54,-170.33 449.53,-164.01"/>
</g>
<!-- Node21 -->
<g id="node19" class="node">
<title>Node21</title>
<g id="a_node19"><a xlink:href="classomnetpp_1_1cLabelFigure.html" target="_top" xlink:title="A figure that displays text which is unaffected by zooming or transformations, except for its positio...">
<polygon fill="white" stroke="black" points="506.5,-38.5 506.5,-57.5 584.5,-57.5 584.5,-38.5 506.5,-38.5"/>
<text text-anchor="middle" x="545.5" y="-45.5" font-family="Helvetica,sans-Serif" font-size="10.00">cLabelFigure</text>
</a>
</g>
</g>
<!-- Node20&#45;&gt;Node21 -->
<g id="edge18" class="edge">
<title>Node20&#45;&gt;Node21</title>
<path fill="none" stroke="midnightblue" d="M451.15,-129.12C453.91,-127.59 456.55,-125.89 459,-124 482.75,-105.73 471.83,-86 495,-67 499.63,-63.21 505.09,-60.11 510.68,-57.61"/>
<polygon fill="midnightblue" stroke="midnightblue" points="449.53,-126.01 442.01,-133.47 452.54,-132.33 449.53,-126.01"/>
</g>
<!-- Node22 -->
<g id="node20" class="node">
<title>Node22</title>
<g id="a_node20"><a xlink:href="classomnetpp_1_1cTextFigure.html" target="_top" xlink:title="A figure that displays text which is affected by zooming and transformations.">
<polygon fill="white" stroke="black" points="509.5,-0.5 509.5,-19.5 581.5,-19.5 581.5,-0.5 509.5,-0.5"/>
<text text-anchor="middle" x="545.5" y="-7.5" font-family="Helvetica,sans-Serif" font-size="10.00">cTextFigure</text>
</a>
</g>
</g>
<!-- Node20&#45;&gt;Node22 -->
<g id="edge19" class="edge">
<title>Node20&#45;&gt;Node22</title>
<path fill="none" stroke="midnightblue" d="M453.67,-128.32C455.55,-127 457.34,-125.57 459,-124 491.84,-93.01 463.14,-61 495,-29 499.09,-24.89 504.17,-21.65 509.5,-19.11"/>
<polygon fill="midnightblue" stroke="midnightblue" points="451.82,-125.35 444.9,-133.38 455.31,-131.42 451.82,-125.35"/>
</g>
</g>
</svg>
