<?xml version="1.0" encoding="UTF-8" standalone="no"?>
<!DOCTYPE svg PUBLIC "-//W3C//DTD SVG 1.1//EN"
 "http://www.w3.org/Graphics/SVG/1.1/DTD/svg11.dtd">
<!-- Generated by graphviz version 2.43.0 (0)
 -->
<!-- Title: cIHistogramStrategy Pages: 1 -->
<svg width="442pt" height="207pt"
 viewBox="0.00 0.00 442.00 207.00" xmlns="http://www.w3.org/2000/svg" xmlns:xlink="http://www.w3.org/1999/xlink">
<g id="graph0" class="graph" transform="scale(1 1) rotate(0) translate(4 203)">
<title>cIHistogramStrategy</title>
<polygon fill="white" stroke="transparent" points="-4,4 -4,-203 438,-203 438,4 -4,4"/>
<!-- Node1 -->
<g id="node1" class="node">
<title>Node1</title>
<g id="a_node1"><a xlink:title="Interface for histogram strategy classes. Histogram strategies encapsulate the task of setting up and...">
<polygon fill="#bfbfbf" stroke="black" points="119.5,-123.5 119.5,-142.5 236.5,-142.5 236.5,-123.5 119.5,-123.5"/>
<text text-anchor="middle" x="178" y="-130.5" font-family="Helvetica,sans-Serif" font-size="10.00">cIHistogramStrategy</text>
</a>
</g>
</g>
<!-- Node3 -->
<g id="node3" class="node">
<title>Node3</title>
<g id="a_node3"><a xlink:href="classomnetpp_1_1cFixedRangeHistogramStrategy.html" target="_top" xlink:title="Histogram strategy that sets up uniform bins over a predetermined interval. The number of bins and th...">
<polygon fill="white" stroke="black" points="0,-62 0,-81 170,-81 170,-62 0,-62"/>
<text text-anchor="middle" x="85" y="-69" font-family="Helvetica,sans-Serif" font-size="10.00">cFixedRangeHistogramStrategy</text>
</a>
</g>
</g>
<!-- Node1&#45;&gt;Node3 -->
<g id="edge2" class="edge">
<title>Node1&#45;&gt;Node3</title>
<path fill="none" stroke="midnightblue" d="M156.01,-117.93C138.08,-106.46 113.34,-90.63 98.3,-81.01"/>
<polygon fill="midnightblue" stroke="midnightblue" points="154.37,-121.03 164.68,-123.48 158.14,-115.14 154.37,-121.03"/>
</g>
<!-- Node4 -->
<g id="node4" class="node">
<title>Node4</title>
<g id="a_node4"><a xlink:href="classomnetpp_1_1cPrecollectionBasedHistogramStrategy.html" target="_top" xlink:title="Base class for histogram strategies that employ a precollection phase in order to gather input for se...">
<polygon fill="white" stroke="black" points="188,-56.5 188,-86.5 354,-86.5 354,-56.5 188,-56.5"/>
<text text-anchor="start" x="196" y="-74.5" font-family="Helvetica,sans-Serif" font-size="10.00">cPrecollectionBasedHistogram</text>
<text text-anchor="middle" x="271" y="-63.5" font-family="Helvetica,sans-Serif" font-size="10.00">Strategy</text>
</a>
</g>
</g>
<!-- Node1&#45;&gt;Node4 -->
<g id="edge3" class="edge">
<title>Node1&#45;&gt;Node4</title>
<path fill="none" stroke="midnightblue" d="M199.87,-118.01C214.7,-108.52 234.24,-96.02 249.08,-86.52"/>
<polygon fill="midnightblue" stroke="midnightblue" points="197.86,-115.14 191.32,-123.48 201.63,-121.03 197.86,-115.14"/>
</g>
<!-- Node2 -->
<g id="node2" class="node">
<title>Node2</title>
<g id="a_node2"><a xlink:href="classomnetpp_1_1cObject.html" target="_top" xlink:title="cObject is a lightweight class which serves as the root of the OMNeT++ class hierarchy....">
<polygon fill="white" stroke="black" points="151.5,-179.5 151.5,-198.5 204.5,-198.5 204.5,-179.5 151.5,-179.5"/>
<text text-anchor="middle" x="178" y="-186.5" font-family="Helvetica,sans-Serif" font-size="10.00">cObject</text>
</a>
</g>
</g>
<!-- Node2&#45;&gt;Node1 -->
<g id="edge1" class="edge">
<title>Node2&#45;&gt;Node1</title>
<path fill="none" stroke="midnightblue" d="M178,-168.8C178,-159.91 178,-149.78 178,-142.75"/>
<polygon fill="midnightblue" stroke="midnightblue" points="174.5,-169.08 178,-179.08 181.5,-169.08 174.5,-169.08"/>
</g>
<!-- Node5 -->
<g id="node5" class="node">
<title>Node5</title>
<g id="a_node5"><a xlink:href="classomnetpp_1_1cAutoRangeHistogramStrategy.html" target="_top" xlink:title="A generic, very configurable histogram strategy that is meant to provide a good quality histogram for...">
<polygon fill="white" stroke="black" points="99.5,-0.5 99.5,-19.5 266.5,-19.5 266.5,-0.5 99.5,-0.5"/>
<text text-anchor="middle" x="183" y="-7.5" font-family="Helvetica,sans-Serif" font-size="10.00">cAutoRangeHistogramStrategy</text>
</a>
</g>
</g>
<!-- Node4&#45;&gt;Node5 -->
<g id="edge4" class="edge">
<title>Node4&#45;&gt;Node5</title>
<path fill="none" stroke="midnightblue" d="M241.83,-50.78C226.23,-40.23 207.82,-27.78 195.8,-19.66"/>
<polygon fill="midnightblue" stroke="midnightblue" points="239.9,-53.7 250.15,-56.4 243.82,-47.9 239.9,-53.7"/>
</g>
<!-- Node6 -->
<g id="node6" class="node">
<title>Node6</title>
<g id="a_node6"><a xlink:href="classomnetpp_1_1cDefaultHistogramStrategy.html" target="_top" xlink:title="A strategy class used by the default setup of cHistogram. It is meant to provide a good quality unifo...">
<polygon fill="white" stroke="black" points="284,-0.5 284,-19.5 434,-19.5 434,-0.5 284,-0.5"/>
<text text-anchor="middle" x="359" y="-7.5" font-family="Helvetica,sans-Serif" font-size="10.00">cDefaultHistogramStrategy</text>
</a>
</g>
</g>
<!-- Node4&#45;&gt;Node6 -->
<g id="edge5" class="edge">
<title>Node4&#45;&gt;Node6</title>
<path fill="none" stroke="midnightblue" d="M300.17,-50.78C315.77,-40.23 334.18,-27.78 346.2,-19.66"/>
<polygon fill="midnightblue" stroke="midnightblue" points="298.18,-47.9 291.85,-56.4 302.1,-53.7 298.18,-47.9"/>
</g>
</g>
</svg>
