<?xml version="1.0" encoding="UTF-8" standalone="no"?>
<!DOCTYPE svg PUBLIC "-//W3C//DTD SVG 1.1//EN"
 "http://www.w3.org/Graphics/SVG/1.1/DTD/svg11.dtd">
<!-- Generated by graphviz version 2.43.0 (0)
 -->
<!-- Title: cResultListener Pages: 1 -->
<svg width="505pt" height="370pt"
 viewBox="0.00 0.00 505.00 370.00" xmlns="http://www.w3.org/2000/svg" xmlns:xlink="http://www.w3.org/1999/xlink">
<g id="graph0" class="graph" transform="scale(1 1) rotate(0) translate(4 366)">
<title>cResultListener</title>
<polygon fill="white" stroke="transparent" points="-4,4 -4,-366 501,-366 501,4 -4,4"/>
<!-- Node1 -->
<g id="node1" class="node">
<title>Node1</title>
<g id="a_node1"><a xlink:title="Common abstract base class for result filters and result recorders.">
<polygon fill="#bfbfbf" stroke="black" points="100,-114.5 100,-133.5 192,-133.5 192,-114.5 100,-114.5"/>
<text text-anchor="middle" x="146" y="-121.5" font-family="Helvetica,sans-Serif" font-size="10.00">cResultListener</text>
</a>
</g>
</g>
<!-- Node4 -->
<g id="node4" class="node">
<title>Node4</title>
<g id="a_node4"><a xlink:href="classomnetpp_1_1cResultFilter.html" target="_top" xlink:title="Base class for result filters.">
<polygon fill="white" stroke="black" points="237.5,-190.5 237.5,-209.5 314.5,-209.5 314.5,-190.5 237.5,-190.5"/>
<text text-anchor="middle" x="276" y="-197.5" font-family="Helvetica,sans-Serif" font-size="10.00">cResultFilter</text>
</a>
</g>
</g>
<!-- Node1&#45;&gt;Node4 -->
<g id="edge3" class="edge">
<title>Node1&#45;&gt;Node4</title>
<path fill="none" stroke="midnightblue" d="M172.02,-138.86C197.75,-154.13 237.06,-177.47 258.92,-190.45"/>
<polygon fill="midnightblue" stroke="midnightblue" points="173.6,-135.72 163.21,-133.63 170.02,-141.74 173.6,-135.72"/>
</g>
<!-- Node30 -->
<g id="node13" class="node">
<title>Node30</title>
<g id="a_node13"><a xlink:href="classomnetpp_1_1cResultRecorder.html" target="_top" xlink:title="Abstract base class for result recorders.">
<polygon fill="white" stroke="black" points="228,-38.5 228,-57.5 324,-57.5 324,-38.5 228,-38.5"/>
<text text-anchor="middle" x="276" y="-45.5" font-family="Helvetica,sans-Serif" font-size="10.00">cResultRecorder</text>
</a>
</g>
</g>
<!-- Node1&#45;&gt;Node30 -->
<g id="edge12" class="edge">
<title>Node1&#45;&gt;Node30</title>
<path fill="none" stroke="midnightblue" d="M172.02,-109.14C197.75,-93.87 237.06,-70.53 258.92,-57.55"/>
<polygon fill="midnightblue" stroke="midnightblue" points="170.02,-106.26 163.21,-114.37 173.6,-112.28 170.02,-106.26"/>
</g>
<!-- Node2 -->
<g id="node2" class="node">
<title>Node2</title>
<g id="a_node2"><a xlink:href="classomnetpp_1_1cObject.html" target="_top" xlink:title="cObject is a lightweight class which serves as the root of the OMNeT++ class hierarchy....">
<polygon fill="white" stroke="black" points="5.5,-133.5 5.5,-152.5 58.5,-152.5 58.5,-133.5 5.5,-133.5"/>
<text text-anchor="middle" x="32" y="-140.5" font-family="Helvetica,sans-Serif" font-size="10.00">cObject</text>
</a>
</g>
</g>
<!-- Node2&#45;&gt;Node1 -->
<g id="edge1" class="edge">
<title>Node2&#45;&gt;Node1</title>
<path fill="none" stroke="midnightblue" d="M68.57,-136.97C78.44,-135.29 89.29,-133.45 99.64,-131.69"/>
<polygon fill="midnightblue" stroke="midnightblue" points="67.97,-133.52 58.7,-138.64 69.14,-140.42 67.97,-133.52"/>
</g>
<!-- Node3 -->
<g id="node3" class="node">
<title>Node3</title>
<g id="a_node3"><a xlink:href="classomnetpp_1_1cIListener.html" target="_top" xlink:title="Interface for listeners in a simulation model.">
<polygon fill="white" stroke="black" points="0,-95.5 0,-114.5 64,-114.5 64,-95.5 0,-95.5"/>
<text text-anchor="middle" x="32" y="-102.5" font-family="Helvetica,sans-Serif" font-size="10.00">cIListener</text>
</a>
</g>
</g>
<!-- Node3&#45;&gt;Node1 -->
<g id="edge2" class="edge">
<title>Node3&#45;&gt;Node1</title>
<path fill="none" stroke="midnightblue" d="M74.09,-111.97C82.43,-113.39 91.25,-114.88 99.74,-116.32"/>
<polygon fill="midnightblue" stroke="midnightblue" points="74.64,-108.51 64.2,-110.29 73.47,-115.42 74.64,-108.51"/>
</g>
<!-- Node5 -->
<g id="node5" class="node">
<title>Node5</title>
<g id="a_node5"><a xlink:href="classomnetpp_1_1cNumericResultFilter.html" target="_top" xlink:title="Base class for filters that expect to receive an numeric value.">
<polygon fill="white" stroke="red" points="369,-342.5 369,-361.5 488,-361.5 488,-342.5 369,-342.5"/>
<text text-anchor="middle" x="428.5" y="-349.5" font-family="Helvetica,sans-Serif" font-size="10.00">cNumericResultFilter</text>
</a>
</g>
</g>
<!-- Node4&#45;&gt;Node5 -->
<g id="edge4" class="edge">
<title>Node4&#45;&gt;Node5</title>
<path fill="none" stroke="midnightblue" d="M283.76,-219.19C294.98,-248.24 320.25,-303.18 360,-333 365.16,-336.87 371.08,-339.96 377.22,-342.41"/>
<polygon fill="midnightblue" stroke="midnightblue" points="287.01,-217.9 280.26,-209.75 280.45,-220.34 287.01,-217.9"/>
</g>
<!-- Node17 -->
<g id="node6" class="node">
<title>Node17</title>
<g id="a_node6"><a xlink:href="classomnetpp_1_1cObjectResultFilter.html" target="_top" xlink:title="Base class for filters that expect to receive an object.">
<polygon fill="white" stroke="red" points="374,-304.5 374,-323.5 483,-323.5 483,-304.5 374,-304.5"/>
<text text-anchor="middle" x="428.5" y="-311.5" font-family="Helvetica,sans-Serif" font-size="10.00">cObjectResultFilter</text>
</a>
</g>
</g>
<!-- Node4&#45;&gt;Node17 -->
<g id="edge5" class="edge">
<title>Node4&#45;&gt;Node17</title>
<path fill="none" stroke="midnightblue" d="M288.19,-218.28C302.29,-239.8 328.55,-275.13 360,-295 366.07,-298.84 372.93,-301.91 379.89,-304.38"/>
<polygon fill="midnightblue" stroke="midnightblue" points="291.06,-216.28 282.74,-209.73 285.16,-220.04 291.06,-216.28"/>
</g>
<!-- Node20 -->
<g id="node7" class="node">
<title>Node20</title>
<g id="a_node7"><a xlink:href="classomnetpp_1_1ConstantFilter.html" target="_top" xlink:title="Result filter that replaces every value with a constant. Signal values do not need to be numeric.">
<polygon fill="white" stroke="red" points="386,-266.5 386,-285.5 471,-285.5 471,-266.5 386,-266.5"/>
<text text-anchor="middle" x="428.5" y="-273.5" font-family="Helvetica,sans-Serif" font-size="10.00">ConstantFilter</text>
</a>
</g>
</g>
<!-- Node4&#45;&gt;Node20 -->
<g id="edge6" class="edge">
<title>Node4&#45;&gt;Node20</title>
<path fill="none" stroke="midnightblue" d="M296.46,-216.1C312.6,-228.77 336.63,-246.05 360,-257 368.05,-260.77 376.99,-263.93 385.67,-266.53"/>
<polygon fill="midnightblue" stroke="midnightblue" points="298.34,-213.13 288.35,-209.61 293.97,-218.59 298.34,-213.13"/>
</g>
<!-- Node23 -->
<g id="node8" class="node">
<title>Node23</title>
<g id="a_node8"><a xlink:href="classomnetpp_1_1DemuxFilter.html" target="_top" xlink:title="Result filter that demultiplexes its input to several outputs. The selector (a.ka....">
<polygon fill="white" stroke="black" points="390,-228.5 390,-247.5 467,-247.5 467,-228.5 390,-228.5"/>
<text text-anchor="middle" x="428.5" y="-235.5" font-family="Helvetica,sans-Serif" font-size="10.00">DemuxFilter</text>
</a>
</g>
</g>
<!-- Node4&#45;&gt;Node23 -->
<g id="edge7" class="edge">
<title>Node4&#45;&gt;Node23</title>
<path fill="none" stroke="midnightblue" d="M324.34,-211.95C345.47,-217.29 370.02,-223.49 389.87,-228.5"/>
<polygon fill="midnightblue" stroke="midnightblue" points="325.14,-208.55 314.59,-209.49 323.43,-215.33 325.14,-208.55"/>
</g>
<!-- Node24 -->
<g id="node9" class="node">
<title>Node24</title>
<g id="a_node9"><a xlink:href="classomnetpp_1_1IdentityFilter.html" target="_top" xlink:title="This class is a no&#45;op filter.">
<polygon fill="white" stroke="red" points="389,-190.5 389,-209.5 468,-209.5 468,-190.5 389,-190.5"/>
<text text-anchor="middle" x="428.5" y="-197.5" font-family="Helvetica,sans-Serif" font-size="10.00">IdentityFilter</text>
</a>
</g>
</g>
<!-- Node4&#45;&gt;Node24 -->
<g id="edge8" class="edge">
<title>Node4&#45;&gt;Node24</title>
<path fill="none" stroke="midnightblue" d="M324.75,-200C345.42,-200 369.29,-200 388.82,-200"/>
<polygon fill="midnightblue" stroke="midnightblue" points="324.59,-196.5 314.59,-200 324.59,-203.5 324.59,-196.5"/>
</g>
<!-- Node26 -->
<g id="node10" class="node">
<title>Node26</title>
<g id="a_node10"><a xlink:href="classomnetpp_1_1TimeFilter.html" target="_top" xlink:title="Result filter that yields the time of emitting the signal.">
<polygon fill="white" stroke="black" points="395.5,-152.5 395.5,-171.5 461.5,-171.5 461.5,-152.5 395.5,-152.5"/>
<text text-anchor="middle" x="428.5" y="-159.5" font-family="Helvetica,sans-Serif" font-size="10.00">TimeFilter</text>
</a>
</g>
</g>
<!-- Node4&#45;&gt;Node26 -->
<g id="edge9" class="edge">
<title>Node4&#45;&gt;Node26</title>
<path fill="none" stroke="midnightblue" d="M324.55,-187.99C347.68,-182.15 374.85,-175.29 395.48,-170.09"/>
<polygon fill="midnightblue" stroke="midnightblue" points="323.43,-184.67 314.59,-190.51 325.14,-191.45 323.43,-184.67"/>
</g>
<!-- Node27 -->
<g id="node11" class="node">
<title>Node27</title>
<g id="a_node11"><a xlink:href="classomnetpp_1_1TotalCountFilter.html" target="_top" xlink:title="Result filter for counting the input values, including NaN and nullptr values.">
<polygon fill="white" stroke="red" points="382,-114.5 382,-133.5 475,-133.5 475,-114.5 382,-114.5"/>
<text text-anchor="middle" x="428.5" y="-121.5" font-family="Helvetica,sans-Serif" font-size="10.00">TotalCountFilter</text>
</a>
</g>
</g>
<!-- Node4&#45;&gt;Node27 -->
<g id="edge10" class="edge">
<title>Node4&#45;&gt;Node27</title>
<path fill="none" stroke="midnightblue" d="M296.46,-183.9C312.6,-171.23 336.63,-153.95 360,-143 367.94,-139.28 376.75,-136.15 385.32,-133.57"/>
<polygon fill="midnightblue" stroke="midnightblue" points="293.97,-181.41 288.35,-190.39 298.34,-186.87 293.97,-181.41"/>
</g>
<!-- Node29 -->
<g id="node12" class="node">
<title>Node29</title>
<g id="a_node12"><a xlink:href="classomnetpp_1_1WarmupPeriodFilter.html" target="_top" xlink:title="Result filter that absorbs input values during the configured warm&#45;up period (see warmup&#45;period confi...">
<polygon fill="white" stroke="black" points="372,-76.5 372,-95.5 485,-95.5 485,-76.5 372,-76.5"/>
<text text-anchor="middle" x="428.5" y="-83.5" font-family="Helvetica,sans-Serif" font-size="10.00">WarmupPeriodFilter</text>
</a>
</g>
</g>
<!-- Node4&#45;&gt;Node29 -->
<g id="edge11" class="edge">
<title>Node4&#45;&gt;Node29</title>
<path fill="none" stroke="midnightblue" d="M288.19,-181.72C302.29,-160.2 328.55,-124.87 360,-105 366.07,-101.16 372.93,-98.09 379.89,-95.62"/>
<polygon fill="midnightblue" stroke="midnightblue" points="285.16,-179.96 282.74,-190.27 291.06,-183.72 285.16,-179.96"/>
</g>
<!-- Node31 -->
<g id="node14" class="node">
<title>Node31</title>
<g id="a_node14"><a xlink:href="classomnetpp_1_1cNumericResultRecorder.html" target="_top" xlink:title="Abstract base class for numeric result recorders.">
<polygon fill="white" stroke="red" points="360,-38.5 360,-57.5 497,-57.5 497,-38.5 360,-38.5"/>
<text text-anchor="middle" x="428.5" y="-45.5" font-family="Helvetica,sans-Serif" font-size="10.00">cNumericResultRecorder</text>
</a>
</g>
</g>
<!-- Node30&#45;&gt;Node31 -->
<g id="edge13" class="edge">
<title>Node30&#45;&gt;Node31</title>
<path fill="none" stroke="midnightblue" d="M334.22,-48C342.57,-48 351.25,-48 359.79,-48"/>
<polygon fill="midnightblue" stroke="midnightblue" points="334.21,-44.5 324.21,-48 334.21,-51.5 334.21,-44.5"/>
</g>
<!-- Node42 -->
<g id="node15" class="node">
<title>Node42</title>
<g id="a_node15"><a xlink:href="classomnetpp_1_1TotalCountRecorder.html" target="_top" xlink:title="Listener for recording the count of signal values, including NaN and nullptr.">
<polygon fill="white" stroke="red" points="372.5,-0.5 372.5,-19.5 484.5,-19.5 484.5,-0.5 372.5,-0.5"/>
<text text-anchor="middle" x="428.5" y="-7.5" font-family="Helvetica,sans-Serif" font-size="10.00">TotalCountRecorder</text>
</a>
</g>
</g>
<!-- Node30&#45;&gt;Node42 -->
<g id="edge14" class="edge">
<title>Node30&#45;&gt;Node42</title>
<path fill="none" stroke="midnightblue" d="M324.68,-35.96C345.71,-30.65 370.07,-24.5 389.8,-19.52"/>
<polygon fill="midnightblue" stroke="midnightblue" points="323.82,-32.57 314.98,-38.41 325.53,-39.36 323.82,-32.57"/>
</g>
</g>
</svg>
