<?xml version="1.0" encoding="UTF-8" standalone="no"?>
<!DOCTYPE svg PUBLIC "-//W3C//DTD SVG 1.1//EN"
 "http://www.w3.org/Graphics/SVG/1.1/DTD/svg11.dtd">
<!-- Generated by graphviz version 2.43.0 (0)
 -->
<!-- Title: cPostPathCreateNotification Pages: 1 -->
<svg width="160pt" height="140pt"
 viewBox="0.00 0.00 160.00 140.00" xmlns="http://www.w3.org/2000/svg" xmlns:xlink="http://www.w3.org/1999/xlink">
<g id="graph0" class="graph" transform="scale(1 1) rotate(0) translate(4 136)">
<title>cPostPathCreateNotification</title>
<polygon fill="white" stroke="transparent" points="-4,4 -4,-136 156,-136 156,4 -4,4"/>
<!-- Node1 -->
<g id="node1" class="node">
<title>Node1</title>
<g id="a_node1"><a xlink:title="Model change notification fired after a connection path has been created.">
<polygon fill="#bfbfbf" stroke="black" points="0,-0.5 0,-19.5 152,-19.5 152,-0.5 0,-0.5"/>
<text text-anchor="middle" x="76" y="-7.5" font-family="Helvetica,sans-Serif" font-size="10.00">cPostPathCreateNotification</text>
</a>
</g>
</g>
<!-- Node2 -->
<g id="node2" class="node">
<title>Node2</title>
<g id="a_node2"><a xlink:href="classomnetpp_1_1cPathChangeNotification.html" target="_top" xlink:title="Base class for path change notifications.">
<polygon fill="white" stroke="black" points="8,-56.5 8,-75.5 144,-75.5 144,-56.5 8,-56.5"/>
<text text-anchor="middle" x="76" y="-63.5" font-family="Helvetica,sans-Serif" font-size="10.00">cPathChangeNotification</text>
</a>
</g>
</g>
<!-- Node2&#45;&gt;Node1 -->
<g id="edge1" class="edge">
<title>Node2&#45;&gt;Node1</title>
<path fill="none" stroke="midnightblue" d="M76,-45.8C76,-36.91 76,-26.78 76,-19.75"/>
<polygon fill="midnightblue" stroke="midnightblue" points="72.5,-46.08 76,-56.08 79.5,-46.08 72.5,-46.08"/>
</g>
<!-- Node3 -->
<g id="node3" class="node">
<title>Node3</title>
<g id="a_node3"><a xlink:href="classomnetpp_1_1cModelChangeNotification.html" target="_top" xlink:title="Common base class for data objects that accompany PRE_MODEL_CHANGE and POST_MODEL_CHANGE signals.">
<polygon fill="white" stroke="red" points="3.5,-112.5 3.5,-131.5 148.5,-131.5 148.5,-112.5 3.5,-112.5"/>
<text text-anchor="middle" x="76" y="-119.5" font-family="Helvetica,sans-Serif" font-size="10.00">cModelChangeNotification</text>
</a>
</g>
</g>
<!-- Node3&#45;&gt;Node2 -->
<g id="edge2" class="edge">
<title>Node3&#45;&gt;Node2</title>
<path fill="none" stroke="midnightblue" d="M76,-101.8C76,-92.91 76,-82.78 76,-75.75"/>
<polygon fill="midnightblue" stroke="midnightblue" points="72.5,-102.08 76,-112.08 79.5,-102.08 72.5,-102.08"/>
</g>
</g>
</svg>
