<?xml version="1.0" encoding="UTF-8" standalone="no"?>
<!DOCTYPE svg PUBLIC "-//W3C//DTD SVG 1.1//EN"
 "http://www.w3.org/Graphics/SVG/1.1/DTD/svg11.dtd">
<!-- Generated by graphviz version 2.43.0 (0)
 -->
<!-- Title: cNumericResultFilter Pages: 1 -->
<svg width="526pt" height="408pt"
 viewBox="0.00 0.00 526.00 408.00" xmlns="http://www.w3.org/2000/svg" xmlns:xlink="http://www.w3.org/1999/xlink">
<g id="graph0" class="graph" transform="scale(1 1) rotate(0) translate(4 404)">
<title>cNumericResultFilter</title>
<polygon fill="white" stroke="transparent" points="-4,4 -4,-404 522,-404 522,4 -4,4"/>
<!-- Node1 -->
<g id="node1" class="node">
<title>Node1</title>
<g id="a_node1"><a xlink:title="Base class for filters that expect to receive an numeric value.">
<polygon fill="#bfbfbf" stroke="black" points="241,-190.5 241,-209.5 360,-209.5 360,-190.5 241,-190.5"/>
<text text-anchor="middle" x="300.5" y="-197.5" font-family="Helvetica,sans-Serif" font-size="10.00">cNumericResultFilter</text>
</a>
</g>
</g>
<!-- Node6 -->
<g id="node4" class="node">
<title>Node6</title>
<g id="a_node4"><a xlink:href="classomnetpp_1_1AverageFilter.html" target="_top" xlink:title="Result filter that computes the arithmetic mean of signal values. NaN values in the input are ignored...">
<polygon fill="white" stroke="black" points="416.5,-380.5 416.5,-399.5 497.5,-399.5 497.5,-380.5 416.5,-380.5"/>
<text text-anchor="middle" x="457" y="-387.5" font-family="Helvetica,sans-Serif" font-size="10.00">AverageFilter</text>
</a>
</g>
</g>
<!-- Node1&#45;&gt;Node6 -->
<g id="edge3" class="edge">
<title>Node1&#45;&gt;Node6</title>
<path fill="none" stroke="midnightblue" d="M306.95,-219.41C317.88,-254.79 345.82,-329.9 396,-371 401.92,-375.85 409.08,-379.46 416.38,-382.16"/>
<polygon fill="midnightblue" stroke="midnightblue" points="310.3,-218.38 304.1,-209.79 303.59,-220.37 310.3,-218.38"/>
</g>
<!-- Node7 -->
<g id="node5" class="node">
<title>Node7</title>
<g id="a_node5"><a xlink:href="classomnetpp_1_1CountNanFilter.html" target="_top" xlink:title="Filter that counts NaN values in the input.">
<polygon fill="white" stroke="black" points="412.5,-342.5 412.5,-361.5 501.5,-361.5 501.5,-342.5 412.5,-342.5"/>
<text text-anchor="middle" x="457" y="-349.5" font-family="Helvetica,sans-Serif" font-size="10.00">CountNanFilter</text>
</a>
</g>
</g>
<!-- Node1&#45;&gt;Node7 -->
<g id="edge4" class="edge">
<title>Node1&#45;&gt;Node7</title>
<path fill="none" stroke="midnightblue" d="M310.05,-219.03C323.96,-247.88 354.21,-302.54 396,-333 401.3,-336.86 407.41,-339.96 413.66,-342.43"/>
<polygon fill="midnightblue" stroke="midnightblue" points="313.07,-217.24 305.67,-209.66 306.73,-220.2 313.07,-217.24"/>
</g>
<!-- Node8 -->
<g id="node6" class="node">
<title>Node8</title>
<g id="a_node6"><a xlink:href="classomnetpp_1_1ErrorNanFilter.html" target="_top" xlink:title="Filter that raises a runtime error if it sees a NaN in the input.">
<polygon fill="white" stroke="black" points="415,-304.5 415,-323.5 499,-323.5 499,-304.5 415,-304.5"/>
<text text-anchor="middle" x="457" y="-311.5" font-family="Helvetica,sans-Serif" font-size="10.00">ErrorNanFilter</text>
</a>
</g>
</g>
<!-- Node1&#45;&gt;Node8 -->
<g id="edge5" class="edge">
<title>Node1&#45;&gt;Node8</title>
<path fill="none" stroke="midnightblue" d="M314.71,-217.76C331.41,-239.02 362.11,-274.34 396,-295 402.25,-298.81 409.34,-301.93 416.4,-304.45"/>
<polygon fill="midnightblue" stroke="midnightblue" points="317.31,-215.39 308.44,-209.59 311.75,-219.65 317.31,-215.39"/>
</g>
<!-- Node9 -->
<g id="node7" class="node">
<title>Node9</title>
<g id="a_node7"><a xlink:href="classomnetpp_1_1MaxFilter.html" target="_top" xlink:title="Result filter that computes the maximum of signal values. NaN values in the input are ignored.">
<polygon fill="white" stroke="black" points="426,-266.5 426,-285.5 488,-285.5 488,-266.5 426,-266.5"/>
<text text-anchor="middle" x="457" y="-273.5" font-family="Helvetica,sans-Serif" font-size="10.00">MaxFilter</text>
</a>
</g>
</g>
<!-- Node1&#45;&gt;Node9 -->
<g id="edge6" class="edge">
<title>Node1&#45;&gt;Node9</title>
<path fill="none" stroke="midnightblue" d="M323.39,-215.25C342.05,-227.73 369.9,-245.19 396,-257 405.46,-261.28 416.16,-265 425.88,-267.98"/>
<polygon fill="midnightblue" stroke="midnightblue" points="325.27,-212.29 315.03,-209.57 321.33,-218.08 325.27,-212.29"/>
</g>
<!-- Node10 -->
<g id="node8" class="node">
<title>Node10</title>
<g id="a_node8"><a xlink:href="classomnetpp_1_1MeanFilter.html" target="_top" xlink:title="Result filter that computes the (time&#45;weighted or unweighted) mean of signal values....">
<polygon fill="white" stroke="black" points="423,-228.5 423,-247.5 491,-247.5 491,-228.5 423,-228.5"/>
<text text-anchor="middle" x="457" y="-235.5" font-family="Helvetica,sans-Serif" font-size="10.00">MeanFilter</text>
</a>
</g>
</g>
<!-- Node1&#45;&gt;Node10 -->
<g id="edge7" class="edge">
<title>Node1&#45;&gt;Node10</title>
<path fill="none" stroke="midnightblue" d="M350.32,-212.01C373.93,-217.81 401.66,-224.63 422.78,-229.83"/>
<polygon fill="midnightblue" stroke="midnightblue" points="351.03,-208.58 340.49,-209.59 349.36,-215.38 351.03,-208.58"/>
</g>
<!-- Node11 -->
<g id="node9" class="node">
<title>Node11</title>
<g id="a_node9"><a xlink:href="classomnetpp_1_1MinFilter.html" target="_top" xlink:title="Result filter that computes the minimum of signal values. NaN values in the input are ignored.">
<polygon fill="white" stroke="black" points="427.5,-190.5 427.5,-209.5 486.5,-209.5 486.5,-190.5 427.5,-190.5"/>
<text text-anchor="middle" x="457" y="-197.5" font-family="Helvetica,sans-Serif" font-size="10.00">MinFilter</text>
</a>
</g>
</g>
<!-- Node1&#45;&gt;Node11 -->
<g id="edge8" class="edge">
<title>Node1&#45;&gt;Node11</title>
<path fill="none" stroke="midnightblue" d="M370.38,-200C390.34,-200 411.05,-200 427.11,-200"/>
<polygon fill="midnightblue" stroke="midnightblue" points="370.35,-196.5 360.35,-200 370.35,-203.5 370.35,-196.5"/>
</g>
<!-- Node12 -->
<g id="node10" class="node">
<title>Node12</title>
<g id="a_node10"><a xlink:href="classomnetpp_1_1RemoveRepeatsFilter.html" target="_top" xlink:title="Result filter that removes repeated values.">
<polygon fill="white" stroke="black" points="396,-152.5 396,-171.5 518,-171.5 518,-152.5 396,-152.5"/>
<text text-anchor="middle" x="457" y="-159.5" font-family="Helvetica,sans-Serif" font-size="10.00">RemoveRepeatsFilter</text>
</a>
</g>
</g>
<!-- Node1&#45;&gt;Node12 -->
<g id="edge9" class="edge">
<title>Node1&#45;&gt;Node12</title>
<path fill="none" stroke="midnightblue" d="M350.45,-187.96C372.04,-182.65 397.04,-176.5 417.29,-171.52"/>
<polygon fill="midnightblue" stroke="midnightblue" points="349.36,-184.62 340.49,-190.41 351.03,-191.42 349.36,-184.62"/>
</g>
<!-- Node13 -->
<g id="node11" class="node">
<title>Node13</title>
<g id="a_node11"><a xlink:href="classomnetpp_1_1SkipNanFilter.html" target="_top" xlink:title="Filter that removes (filters out) NaNs, and lets through all other values.">
<polygon fill="white" stroke="black" points="416,-114.5 416,-133.5 498,-133.5 498,-114.5 416,-114.5"/>
<text text-anchor="middle" x="457" y="-121.5" font-family="Helvetica,sans-Serif" font-size="10.00">SkipNanFilter</text>
</a>
</g>
</g>
<!-- Node1&#45;&gt;Node13 -->
<g id="edge10" class="edge">
<title>Node1&#45;&gt;Node13</title>
<path fill="none" stroke="midnightblue" d="M323.39,-184.75C342.05,-172.27 369.9,-154.81 396,-143 403.87,-139.44 412.59,-136.27 420.89,-133.59"/>
<polygon fill="midnightblue" stroke="midnightblue" points="321.33,-181.92 315.03,-190.43 325.27,-187.71 321.33,-181.92"/>
</g>
<!-- Node14 -->
<g id="node12" class="node">
<title>Node14</title>
<g id="a_node12"><a xlink:href="classomnetpp_1_1SumFilter.html" target="_top" xlink:title="Filter that outputs the sum of signal values. NaN values in the input are ignored.">
<polygon fill="white" stroke="black" points="425.5,-76.5 425.5,-95.5 488.5,-95.5 488.5,-76.5 425.5,-76.5"/>
<text text-anchor="middle" x="457" y="-83.5" font-family="Helvetica,sans-Serif" font-size="10.00">SumFilter</text>
</a>
</g>
</g>
<!-- Node1&#45;&gt;Node14 -->
<g id="edge11" class="edge">
<title>Node1&#45;&gt;Node14</title>
<path fill="none" stroke="midnightblue" d="M314.71,-182.24C331.41,-160.98 362.11,-125.66 396,-105 404.96,-99.54 415.63,-95.5 425.48,-92.59"/>
<polygon fill="midnightblue" stroke="midnightblue" points="311.75,-180.35 308.44,-190.41 317.31,-184.61 311.75,-180.35"/>
</g>
<!-- Node15 -->
<g id="node13" class="node">
<title>Node15</title>
<g id="a_node13"><a xlink:href="classomnetpp_1_1SumPerDurationFilter.html" target="_top" xlink:title="Filter that outputs the sum of signal values divided by the measurement interval (simtime minus warmu...">
<polygon fill="white" stroke="black" points="396.5,-38.5 396.5,-57.5 517.5,-57.5 517.5,-38.5 396.5,-38.5"/>
<text text-anchor="middle" x="457" y="-45.5" font-family="Helvetica,sans-Serif" font-size="10.00">SumPerDurationFilter</text>
</a>
</g>
</g>
<!-- Node1&#45;&gt;Node15 -->
<g id="edge12" class="edge">
<title>Node1&#45;&gt;Node15</title>
<path fill="none" stroke="midnightblue" d="M310.05,-180.97C323.96,-152.12 354.21,-97.46 396,-67 401.3,-63.14 407.41,-60.04 413.66,-57.57"/>
<polygon fill="midnightblue" stroke="midnightblue" points="306.73,-179.8 305.67,-190.34 313.07,-182.76 306.73,-179.8"/>
</g>
<!-- Node16 -->
<g id="node14" class="node">
<title>Node16</title>
<g id="a_node14"><a xlink:href="classomnetpp_1_1TimeAverageFilter.html" target="_top" xlink:title="Result filter that computes the time average of signal values. NaN values in the input denote interva...">
<polygon fill="white" stroke="black" points="404,-0.5 404,-19.5 510,-19.5 510,-0.5 404,-0.5"/>
<text text-anchor="middle" x="457" y="-7.5" font-family="Helvetica,sans-Serif" font-size="10.00">TimeAverageFilter</text>
</a>
</g>
</g>
<!-- Node1&#45;&gt;Node16 -->
<g id="edge13" class="edge">
<title>Node1&#45;&gt;Node16</title>
<path fill="none" stroke="midnightblue" d="M306.95,-180.59C317.88,-145.21 345.82,-70.1 396,-29 400.73,-25.12 406.27,-22.03 412.02,-19.57"/>
<polygon fill="midnightblue" stroke="midnightblue" points="303.59,-179.63 304.1,-190.21 310.3,-181.62 303.59,-179.63"/>
</g>
<!-- Node2 -->
<g id="node2" class="node">
<title>Node2</title>
<g id="a_node2"><a xlink:href="classomnetpp_1_1cResultFilter.html" target="_top" xlink:title="Base class for result filters.">
<polygon fill="white" stroke="black" points="128,-190.5 128,-209.5 205,-209.5 205,-190.5 128,-190.5"/>
<text text-anchor="middle" x="166.5" y="-197.5" font-family="Helvetica,sans-Serif" font-size="10.00">cResultFilter</text>
</a>
</g>
</g>
<!-- Node2&#45;&gt;Node1 -->
<g id="edge1" class="edge">
<title>Node2&#45;&gt;Node1</title>
<path fill="none" stroke="midnightblue" d="M215.54,-200C223.8,-200 232.48,-200 240.98,-200"/>
<polygon fill="midnightblue" stroke="midnightblue" points="215.33,-196.5 205.33,-200 215.33,-203.5 215.33,-196.5"/>
</g>
<!-- Node3 -->
<g id="node3" class="node">
<title>Node3</title>
<g id="a_node3"><a xlink:href="classomnetpp_1_1cResultListener.html" target="_top" xlink:title="Common abstract base class for result filters and result recorders.">
<polygon fill="white" stroke="red" points="0,-190.5 0,-209.5 92,-209.5 92,-190.5 0,-190.5"/>
<text text-anchor="middle" x="46" y="-197.5" font-family="Helvetica,sans-Serif" font-size="10.00">cResultListener</text>
</a>
</g>
</g>
<!-- Node3&#45;&gt;Node2 -->
<g id="edge2" class="edge">
<title>Node3&#45;&gt;Node2</title>
<path fill="none" stroke="midnightblue" d="M102.21,-200C110.88,-200 119.66,-200 127.82,-200"/>
<polygon fill="midnightblue" stroke="midnightblue" points="102.14,-196.5 92.14,-200 102.14,-203.5 102.14,-196.5"/>
</g>
</g>
</svg>
