<?xml version="1.0" encoding="UTF-8" standalone="no"?>
<!DOCTYPE svg PUBLIC "-//W3C//DTD SVG 1.1//EN"
 "http://www.w3.org/Graphics/SVG/1.1/DTD/svg11.dtd">
<!-- Generated by graphviz version 2.43.0 (0)
 -->
<!-- Title: ConstantFilter Pages: 1 -->
<svg width="208pt" height="196pt"
 viewBox="0.00 0.00 208.00 196.00" xmlns="http://www.w3.org/2000/svg" xmlns:xlink="http://www.w3.org/1999/xlink">
<g id="graph0" class="graph" transform="scale(1 1) rotate(0) translate(4 192)">
<title>ConstantFilter</title>
<polygon fill="white" stroke="transparent" points="-4,4 -4,-192 204,-192 204,4 -4,4"/>
<!-- Node1 -->
<g id="node1" class="node">
<title>Node1</title>
<g id="a_node1"><a xlink:title="Result filter that replaces every value with a constant. Signal values do not need to be numeric.">
<polygon fill="#bfbfbf" stroke="black" points="57,-56.5 57,-75.5 142,-75.5 142,-56.5 57,-56.5"/>
<text text-anchor="middle" x="99.5" y="-63.5" font-family="Helvetica,sans-Serif" font-size="10.00">ConstantFilter</text>
</a>
</g>
</g>
<!-- Node6 -->
<g id="node4" class="node">
<title>Node6</title>
<g id="a_node4"><a xlink:href="classomnetpp_1_1Constant0Filter.html" target="_top" xlink:title="Result filter that replaces every value with zero.">
<polygon fill="white" stroke="black" points="0,-0.5 0,-19.5 91,-19.5 91,-0.5 0,-0.5"/>
<text text-anchor="middle" x="45.5" y="-7.5" font-family="Helvetica,sans-Serif" font-size="10.00">Constant0Filter</text>
</a>
</g>
</g>
<!-- Node1&#45;&gt;Node6 -->
<g id="edge3" class="edge">
<title>Node1&#45;&gt;Node6</title>
<path fill="none" stroke="midnightblue" d="M83.5,-49C73.93,-39.43 62.14,-27.64 54.25,-19.75"/>
<polygon fill="midnightblue" stroke="midnightblue" points="81.04,-51.49 90.58,-56.08 85.99,-46.54 81.04,-51.49"/>
</g>
<!-- Node7 -->
<g id="node5" class="node">
<title>Node7</title>
<g id="a_node5"><a xlink:href="classomnetpp_1_1Constant1Filter.html" target="_top" xlink:title="Result filter that replaces every value with 1.0.">
<polygon fill="white" stroke="black" points="109,-0.5 109,-19.5 200,-19.5 200,-0.5 109,-0.5"/>
<text text-anchor="middle" x="154.5" y="-7.5" font-family="Helvetica,sans-Serif" font-size="10.00">Constant1Filter</text>
</a>
</g>
</g>
<!-- Node1&#45;&gt;Node7 -->
<g id="edge4" class="edge">
<title>Node1&#45;&gt;Node7</title>
<path fill="none" stroke="midnightblue" d="M115.79,-49C125.54,-39.43 137.55,-27.64 145.59,-19.75"/>
<polygon fill="midnightblue" stroke="midnightblue" points="113.27,-46.58 108.58,-56.08 118.17,-51.57 113.27,-46.58"/>
</g>
<!-- Node2 -->
<g id="node2" class="node">
<title>Node2</title>
<g id="a_node2"><a xlink:href="classomnetpp_1_1cResultFilter.html" target="_top" xlink:title="Base class for result filters.">
<polygon fill="white" stroke="black" points="61,-112.5 61,-131.5 138,-131.5 138,-112.5 61,-112.5"/>
<text text-anchor="middle" x="99.5" y="-119.5" font-family="Helvetica,sans-Serif" font-size="10.00">cResultFilter</text>
</a>
</g>
</g>
<!-- Node2&#45;&gt;Node1 -->
<g id="edge1" class="edge">
<title>Node2&#45;&gt;Node1</title>
<path fill="none" stroke="midnightblue" d="M99.5,-101.8C99.5,-92.91 99.5,-82.78 99.5,-75.75"/>
<polygon fill="midnightblue" stroke="midnightblue" points="96,-102.08 99.5,-112.08 103,-102.08 96,-102.08"/>
</g>
<!-- Node3 -->
<g id="node3" class="node">
<title>Node3</title>
<g id="a_node3"><a xlink:href="classomnetpp_1_1cResultListener.html" target="_top" xlink:title="Common abstract base class for result filters and result recorders.">
<polygon fill="white" stroke="red" points="53.5,-168.5 53.5,-187.5 145.5,-187.5 145.5,-168.5 53.5,-168.5"/>
<text text-anchor="middle" x="99.5" y="-175.5" font-family="Helvetica,sans-Serif" font-size="10.00">cResultListener</text>
</a>
</g>
</g>
<!-- Node3&#45;&gt;Node2 -->
<g id="edge2" class="edge">
<title>Node3&#45;&gt;Node2</title>
<path fill="none" stroke="midnightblue" d="M99.5,-157.8C99.5,-148.91 99.5,-138.78 99.5,-131.75"/>
<polygon fill="midnightblue" stroke="midnightblue" points="96,-158.08 99.5,-168.08 103,-158.08 96,-158.08"/>
</g>
</g>
</svg>
