<?xml version="1.0" encoding="UTF-8" standalone="no"?>
<!DOCTYPE svg PUBLIC "-//W3C//DTD SVG 1.1//EN"
 "http://www.w3.org/Graphics/SVG/1.1/DTD/svg11.dtd">
<!-- Generated by graphviz version 2.43.0 (0)
 -->
<!-- Title: cISimulationLifecycleListener Pages: 1 -->
<svg width="602pt" height="140pt"
 viewBox="0.00 0.00 601.50 140.00" xmlns="http://www.w3.org/2000/svg" xmlns:xlink="http://www.w3.org/1999/xlink">
<g id="graph0" class="graph" transform="scale(1 1) rotate(0) translate(4 136)">
<title>cISimulationLifecycleListener</title>
<polygon fill="white" stroke="transparent" points="-4,4 -4,-136 597.5,-136 597.5,4 -4,4"/>
<!-- Node1 -->
<g id="node1" class="node">
<title>Node1</title>
<g id="a_node1"><a xlink:title="A callback interface for receiving notifications at various stages simulations, including setting up,...">
<polygon fill="#bfbfbf" stroke="black" points="204.5,-112.5 204.5,-131.5 364.5,-131.5 364.5,-112.5 204.5,-112.5"/>
<text text-anchor="middle" x="284.5" y="-119.5" font-family="Helvetica,sans-Serif" font-size="10.00">cISimulationLifecycleListener</text>
</a>
</g>
</g>
<!-- Node2 -->
<g id="node2" class="node">
<title>Node2</title>
<g id="a_node2"><a xlink:href="classomnetpp_1_1cIOutputScalarManager.html" target="_top" xlink:title="Abstract base class for handling recording of output scalar data.">
<polygon fill="white" stroke="black" points="0,-56.5 0,-75.5 131,-75.5 131,-56.5 0,-56.5"/>
<text text-anchor="middle" x="65.5" y="-63.5" font-family="Helvetica,sans-Serif" font-size="10.00">cIOutputScalarManager</text>
</a>
</g>
</g>
<!-- Node1&#45;&gt;Node2 -->
<g id="edge1" class="edge">
<title>Node1&#45;&gt;Node2</title>
<path fill="none" stroke="midnightblue" d="M239.99,-110.02C198.62,-99.82 137.86,-84.84 100.04,-75.52"/>
<polygon fill="midnightblue" stroke="midnightblue" points="239.25,-113.45 249.8,-112.44 240.93,-106.65 239.25,-113.45"/>
</g>
<!-- Node3 -->
<g id="node3" class="node">
<title>Node3</title>
<g id="a_node3"><a xlink:href="classomnetpp_1_1cIOutputVectorManager.html" target="_top" xlink:title="Abstract base class for output vector managers for cEnvir.">
<polygon fill="white" stroke="black" points="149,-56.5 149,-75.5 280,-75.5 280,-56.5 149,-56.5"/>
<text text-anchor="middle" x="214.5" y="-63.5" font-family="Helvetica,sans-Serif" font-size="10.00">cIOutputVectorManager</text>
</a>
</g>
</g>
<!-- Node1&#45;&gt;Node3 -->
<g id="edge2" class="edge">
<title>Node1&#45;&gt;Node3</title>
<path fill="none" stroke="midnightblue" d="M265.19,-106.1C252.59,-96.38 236.57,-84.03 225.95,-75.83"/>
<polygon fill="midnightblue" stroke="midnightblue" points="263.2,-108.99 273.25,-112.32 267.47,-103.44 263.2,-108.99"/>
</g>
<!-- Node4 -->
<g id="node4" class="node">
<title>Node4</title>
<g id="a_node4"><a xlink:href="classomnetpp_1_1cISnapshotManager.html" target="_top" xlink:title="Abstract base class for snapshot managers.">
<polygon fill="white" stroke="black" points="298,-56.5 298,-75.5 411,-75.5 411,-56.5 298,-56.5"/>
<text text-anchor="middle" x="354.5" y="-63.5" font-family="Helvetica,sans-Serif" font-size="10.00">cISnapshotManager</text>
</a>
</g>
</g>
<!-- Node1&#45;&gt;Node4 -->
<g id="edge3" class="edge">
<title>Node1&#45;&gt;Node4</title>
<path fill="none" stroke="midnightblue" d="M303.81,-106.1C316.41,-96.38 332.43,-84.03 343.05,-75.83"/>
<polygon fill="midnightblue" stroke="midnightblue" points="301.53,-103.44 295.75,-112.32 305.8,-108.99 301.53,-103.44"/>
</g>
<!-- Node5 -->
<g id="node5" class="node">
<title>Node5</title>
<g id="a_node5"><a xlink:href="classomnetpp_1_1cScheduler.html" target="_top" xlink:title="Abstract class to encapsulate event scheduling.">
<polygon fill="white" stroke="black" points="429.5,-56.5 429.5,-75.5 499.5,-75.5 499.5,-56.5 429.5,-56.5"/>
<text text-anchor="middle" x="464.5" y="-63.5" font-family="Helvetica,sans-Serif" font-size="10.00">cScheduler</text>
</a>
</g>
</g>
<!-- Node1&#45;&gt;Node5 -->
<g id="edge4" class="edge">
<title>Node1&#45;&gt;Node5</title>
<path fill="none" stroke="midnightblue" d="M322.61,-109.57C356.56,-99.38 405.49,-84.7 436.11,-75.52"/>
<polygon fill="midnightblue" stroke="midnightblue" points="321.59,-106.22 313.02,-112.44 323.61,-112.92 321.59,-106.22"/>
</g>
<!-- Node6 -->
<g id="node6" class="node">
<title>Node6</title>
<g id="a_node6"><a xlink:href="classomnetpp_1_1cRealTimeScheduler.html" target="_top" xlink:title="Real&#45;time scheduler class.">
<polygon fill="white" stroke="black" points="337.5,-0.5 337.5,-19.5 453.5,-19.5 453.5,-0.5 337.5,-0.5"/>
<text text-anchor="middle" x="395.5" y="-7.5" font-family="Helvetica,sans-Serif" font-size="10.00">cRealTimeScheduler</text>
</a>
</g>
</g>
<!-- Node5&#45;&gt;Node6 -->
<g id="edge5" class="edge">
<title>Node5&#45;&gt;Node6</title>
<path fill="none" stroke="midnightblue" d="M445.46,-50.1C433.04,-40.38 417.26,-28.03 406.79,-19.83"/>
<polygon fill="midnightblue" stroke="midnightblue" points="443.38,-52.92 453.41,-56.32 447.7,-47.4 443.38,-52.92"/>
</g>
<!-- Node7 -->
<g id="node7" class="node">
<title>Node7</title>
<g id="a_node7"><a xlink:href="classomnetpp_1_1cSequentialScheduler.html" target="_top" xlink:title="Event scheduler for sequential simulation.">
<polygon fill="white" stroke="black" points="471.5,-0.5 471.5,-19.5 593.5,-19.5 593.5,-0.5 471.5,-0.5"/>
<text text-anchor="middle" x="532.5" y="-7.5" font-family="Helvetica,sans-Serif" font-size="10.00">cSequentialScheduler</text>
</a>
</g>
</g>
<!-- Node5&#45;&gt;Node7 -->
<g id="edge6" class="edge">
<title>Node5&#45;&gt;Node7</title>
<path fill="none" stroke="midnightblue" d="M483.26,-50.1C495.5,-40.38 511.06,-28.03 521.38,-19.83"/>
<polygon fill="midnightblue" stroke="midnightblue" points="481.08,-47.36 475.43,-56.32 485.43,-52.85 481.08,-47.36"/>
</g>
</g>
</svg>
