<?xml version="1.0" encoding="UTF-8" standalone="no"?>
<!DOCTYPE svg PUBLIC "-//W3C//DTD SVG 1.1//EN"
 "http://www.w3.org/Graphics/SVG/1.1/DTD/svg11.dtd">
<!-- Generated by graphviz version 2.43.0 (0)
 -->
<!-- Title: cAbstractTextFigure Pages: 1 -->
<svg width="176pt" height="196pt"
 viewBox="0.00 0.00 176.00 196.00" xmlns="http://www.w3.org/2000/svg" xmlns:xlink="http://www.w3.org/1999/xlink">
<g id="graph0" class="graph" transform="scale(1 1) rotate(0) translate(4 192)">
<title>cAbstractTextFigure</title>
<polygon fill="white" stroke="transparent" points="-4,4 -4,-192 172,-192 172,4 -4,4"/>
<!-- Node1 -->
<g id="node1" class="node">
<title>Node1</title>
<g id="a_node1"><a xlink:title="Abstract base class for figures that display text. Text may be multi&#45;line.">
<polygon fill="#bfbfbf" stroke="black" points="28.5,-56.5 28.5,-75.5 141.5,-75.5 141.5,-56.5 28.5,-56.5"/>
<text text-anchor="middle" x="85" y="-63.5" font-family="Helvetica,sans-Serif" font-size="10.00">cAbstractTextFigure</text>
</a>
</g>
</g>
<!-- Node6 -->
<g id="node4" class="node">
<title>Node6</title>
<g id="a_node4"><a xlink:href="classomnetpp_1_1cLabelFigure.html" target="_top" xlink:title="A figure that displays text which is unaffected by zooming or transformations, except for its positio...">
<polygon fill="white" stroke="black" points="0,-0.5 0,-19.5 78,-19.5 78,-0.5 0,-0.5"/>
<text text-anchor="middle" x="39" y="-7.5" font-family="Helvetica,sans-Serif" font-size="10.00">cLabelFigure</text>
</a>
</g>
</g>
<!-- Node1&#45;&gt;Node6 -->
<g id="edge3" class="edge">
<title>Node1&#45;&gt;Node6</title>
<path fill="none" stroke="midnightblue" d="M70.89,-48.43C62.82,-38.97 53.04,-27.48 46.45,-19.75"/>
<polygon fill="midnightblue" stroke="midnightblue" points="68.25,-50.74 77.4,-56.08 73.58,-46.2 68.25,-50.74"/>
</g>
<!-- Node7 -->
<g id="node5" class="node">
<title>Node7</title>
<g id="a_node5"><a xlink:href="classomnetpp_1_1cTextFigure.html" target="_top" xlink:title="A figure that displays text which is affected by zooming and transformations.">
<polygon fill="white" stroke="black" points="96,-0.5 96,-19.5 168,-19.5 168,-0.5 96,-0.5"/>
<text text-anchor="middle" x="132" y="-7.5" font-family="Helvetica,sans-Serif" font-size="10.00">cTextFigure</text>
</a>
</g>
</g>
<!-- Node1&#45;&gt;Node7 -->
<g id="edge4" class="edge">
<title>Node1&#45;&gt;Node7</title>
<path fill="none" stroke="midnightblue" d="M99.42,-48.43C107.66,-38.97 117.65,-27.48 124.38,-19.75"/>
<polygon fill="midnightblue" stroke="midnightblue" points="96.69,-46.24 92.76,-56.08 101.97,-50.84 96.69,-46.24"/>
</g>
<!-- Node2 -->
<g id="node2" class="node">
<title>Node2</title>
<g id="a_node2"><a xlink:href="classomnetpp_1_1cFigure.html" target="_top" xlink:title="A lightweight graphical object for cCanvas.">
<polygon fill="white" stroke="black" points="59,-112.5 59,-131.5 111,-131.5 111,-112.5 59,-112.5"/>
<text text-anchor="middle" x="85" y="-119.5" font-family="Helvetica,sans-Serif" font-size="10.00">cFigure</text>
</a>
</g>
</g>
<!-- Node2&#45;&gt;Node1 -->
<g id="edge1" class="edge">
<title>Node2&#45;&gt;Node1</title>
<path fill="none" stroke="midnightblue" d="M85,-101.8C85,-92.91 85,-82.78 85,-75.75"/>
<polygon fill="midnightblue" stroke="midnightblue" points="81.5,-102.08 85,-112.08 88.5,-102.08 81.5,-102.08"/>
</g>
<!-- Node3 -->
<g id="node3" class="node">
<title>Node3</title>
<g id="a_node3"><a xlink:href="classomnetpp_1_1cOwnedObject.html" target="_top" xlink:title="A cObject that keeps track of its owner. It serves as base class for many classes in the OMNeT++ libr...">
<polygon fill="white" stroke="red" points="41.5,-168.5 41.5,-187.5 128.5,-187.5 128.5,-168.5 41.5,-168.5"/>
<text text-anchor="middle" x="85" y="-175.5" font-family="Helvetica,sans-Serif" font-size="10.00">cOwnedObject</text>
</a>
</g>
</g>
<!-- Node3&#45;&gt;Node2 -->
<g id="edge2" class="edge">
<title>Node3&#45;&gt;Node2</title>
<path fill="none" stroke="midnightblue" d="M85,-157.8C85,-148.91 85,-138.78 85,-131.75"/>
<polygon fill="midnightblue" stroke="midnightblue" points="81.5,-158.08 85,-168.08 88.5,-158.08 81.5,-158.08"/>
</g>
</g>
</svg>
