<?xml version="1.0" encoding="UTF-8" standalone="no"?>
<!DOCTYPE svg PUBLIC "-//W3C//DTD SVG 1.1//EN"
 "http://www.w3.org/Graphics/SVG/1.1/DTD/svg11.dtd">
<!-- Generated by graphviz version 2.43.0 (0)
 -->
<!-- Title: cRandom Pages: 1 -->
<svg width="542pt" height="788pt"
 viewBox="0.00 0.00 542.00 788.00" xmlns="http://www.w3.org/2000/svg" xmlns:xlink="http://www.w3.org/1999/xlink">
<g id="graph0" class="graph" transform="scale(1 1) rotate(0) translate(4 784)">
<title>cRandom</title>
<polygon fill="white" stroke="transparent" points="-4,4 -4,-784 538,-784 538,4 -4,4"/>
<!-- Node1 -->
<g id="node1" class="node">
<title>Node1</title>
<g id="a_node1"><a xlink:title="Abstract interface for random variate generator classes.">
<polygon fill="#bfbfbf" stroke="black" points="248,-380.5 248,-399.5 310,-399.5 310,-380.5 248,-380.5"/>
<text text-anchor="middle" x="279" y="-387.5" font-family="Helvetica,sans-Serif" font-size="10.00">cRandom</text>
</a>
</g>
</g>
<!-- Node5 -->
<g id="node4" class="node">
<title>Node5</title>
<g id="a_node4"><a xlink:href="classomnetpp_1_1cBernoulli.html" target="_top" xlink:title="Generates random numbers that are the results of Bernoulli trials.">
<polygon fill="white" stroke="black" points="361,-760.5 361,-779.5 426,-779.5 426,-760.5 361,-760.5"/>
<text text-anchor="middle" x="393.5" y="-767.5" font-family="Helvetica,sans-Serif" font-size="10.00">cBernoulli</text>
</a>
</g>
</g>
<!-- Node1&#45;&gt;Node5 -->
<g id="edge3" class="edge">
<title>Node1&#45;&gt;Node5</title>
<path fill="none" stroke="midnightblue" d="M281.15,-409.77C285.46,-477.3 302.63,-697.58 346,-751 349.85,-755.74 355.07,-759.31 360.62,-761.99"/>
<polygon fill="midnightblue" stroke="midnightblue" points="284.64,-409.41 280.53,-399.65 277.65,-409.84 284.64,-409.41"/>
</g>
<!-- Node6 -->
<g id="node5" class="node">
<title>Node6</title>
<g id="a_node5"><a xlink:href="classomnetpp_1_1cBeta.html" target="_top" xlink:title="Generates random numbers from the beta distribution.">
<polygon fill="white" stroke="black" points="371.5,-722.5 371.5,-741.5 415.5,-741.5 415.5,-722.5 371.5,-722.5"/>
<text text-anchor="middle" x="393.5" y="-729.5" font-family="Helvetica,sans-Serif" font-size="10.00">cBeta</text>
</a>
</g>
</g>
<!-- Node1&#45;&gt;Node6 -->
<g id="edge4" class="edge">
<title>Node1&#45;&gt;Node6</title>
<path fill="none" stroke="midnightblue" d="M281.61,-409.69C287.11,-472.37 306.97,-665.92 346,-713 352.35,-720.65 362.26,-725.26 371.31,-728.01"/>
<polygon fill="midnightblue" stroke="midnightblue" points="285.09,-409.24 280.75,-399.57 278.11,-409.83 285.09,-409.24"/>
</g>
<!-- Node7 -->
<g id="node6" class="node">
<title>Node7</title>
<g id="a_node6"><a xlink:href="classomnetpp_1_1cBinomial.html" target="_top" xlink:title="Generates random numbers from the binomial distribution.">
<polygon fill="white" stroke="black" points="361,-684.5 361,-703.5 426,-703.5 426,-684.5 361,-684.5"/>
<text text-anchor="middle" x="393.5" y="-691.5" font-family="Helvetica,sans-Serif" font-size="10.00">cBinomial</text>
</a>
</g>
</g>
<!-- Node1&#45;&gt;Node7 -->
<g id="edge5" class="edge">
<title>Node1&#45;&gt;Node7</title>
<path fill="none" stroke="midnightblue" d="M282.19,-409.59C288.97,-467.14 311.28,-634.21 346,-675 349.96,-679.65 355.23,-683.18 360.8,-685.85"/>
<polygon fill="midnightblue" stroke="midnightblue" points="285.66,-409.15 281.04,-399.61 278.71,-409.95 285.66,-409.15"/>
</g>
<!-- Node8 -->
<g id="node7" class="node">
<title>Node8</title>
<g id="a_node7"><a xlink:href="classomnetpp_1_1cCauchy.html" target="_top" xlink:title="Generates random numbers from the Cauchy distribution.">
<polygon fill="white" stroke="black" points="364.5,-646.5 364.5,-665.5 422.5,-665.5 422.5,-646.5 364.5,-646.5"/>
<text text-anchor="middle" x="393.5" y="-653.5" font-family="Helvetica,sans-Serif" font-size="10.00">cCauchy</text>
</a>
</g>
</g>
<!-- Node1&#45;&gt;Node8 -->
<g id="edge6" class="edge">
<title>Node1&#45;&gt;Node8</title>
<path fill="none" stroke="midnightblue" d="M279.67,-410.05C279.98,-456 287.05,-570.05 346,-637 350.84,-642.5 357.51,-646.43 364.29,-649.24"/>
<polygon fill="midnightblue" stroke="midnightblue" points="283.17,-409.92 279.7,-399.91 276.17,-409.9 283.17,-409.92"/>
</g>
<!-- Node9 -->
<g id="node8" class="node">
<title>Node9</title>
<g id="a_node8"><a xlink:href="classomnetpp_1_1cChiSquare.html" target="_top" xlink:title="Generates random numbers from the chi&#45;square distribution.">
<polygon fill="white" stroke="black" points="358,-608.5 358,-627.5 429,-627.5 429,-608.5 358,-608.5"/>
<text text-anchor="middle" x="393.5" y="-615.5" font-family="Helvetica,sans-Serif" font-size="10.00">cChiSquare</text>
</a>
</g>
</g>
<!-- Node1&#45;&gt;Node9 -->
<g id="edge7" class="edge">
<title>Node1&#45;&gt;Node9</title>
<path fill="none" stroke="midnightblue" d="M280.85,-409.96C283.61,-450.68 295.44,-544.12 346,-599 349.55,-602.85 353.98,-605.94 358.7,-608.41"/>
<polygon fill="midnightblue" stroke="midnightblue" points="284.33,-409.52 280.27,-399.74 277.34,-409.92 284.33,-409.52"/>
</g>
<!-- Node10 -->
<g id="node9" class="node">
<title>Node10</title>
<g id="a_node9"><a xlink:href="classomnetpp_1_1cErlang.html" target="_top" xlink:title="Generates random numbers from the Erlang distribution.">
<polygon fill="white" stroke="black" points="367,-570.5 367,-589.5 420,-589.5 420,-570.5 367,-570.5"/>
<text text-anchor="middle" x="393.5" y="-577.5" font-family="Helvetica,sans-Serif" font-size="10.00">cErlang</text>
</a>
</g>
</g>
<!-- Node1&#45;&gt;Node10 -->
<g id="edge8" class="edge">
<title>Node1&#45;&gt;Node10</title>
<path fill="none" stroke="midnightblue" d="M282.49,-409.87C287.89,-444.88 303.76,-517.93 346,-561 351.62,-566.73 359.2,-570.79 366.62,-573.65"/>
<polygon fill="midnightblue" stroke="midnightblue" points="285.9,-408.96 281.04,-399.55 278.97,-409.94 285.9,-408.96"/>
</g>
<!-- Node11 -->
<g id="node10" class="node">
<title>Node11</title>
<g id="a_node10"><a xlink:href="classomnetpp_1_1cExponential.html" target="_top" xlink:title="Generates random numbers from the exponential distribution.">
<polygon fill="white" stroke="black" points="353.5,-532.5 353.5,-551.5 433.5,-551.5 433.5,-532.5 353.5,-532.5"/>
<text text-anchor="middle" x="393.5" y="-539.5" font-family="Helvetica,sans-Serif" font-size="10.00">cExponential</text>
</a>
</g>
</g>
<!-- Node1&#45;&gt;Node11 -->
<g id="edge9" class="edge">
<title>Node1&#45;&gt;Node11</title>
<path fill="none" stroke="midnightblue" d="M285,-409.81C293.18,-438.43 312,-491.39 346,-523 350.09,-526.8 355.04,-529.89 360.16,-532.38"/>
<polygon fill="midnightblue" stroke="midnightblue" points="288.28,-408.54 282.3,-399.8 281.53,-410.37 288.28,-408.54"/>
</g>
<!-- Node12 -->
<g id="node11" class="node">
<title>Node12</title>
<g id="a_node11"><a xlink:href="classomnetpp_1_1cGamma.html" target="_top" xlink:title="Generates random numbers from the gamma distribution.">
<polygon fill="white" stroke="black" points="363,-494.5 363,-513.5 424,-513.5 424,-494.5 363,-494.5"/>
<text text-anchor="middle" x="393.5" y="-501.5" font-family="Helvetica,sans-Serif" font-size="10.00">cGamma</text>
</a>
</g>
</g>
<!-- Node1&#45;&gt;Node12 -->
<g id="edge10" class="edge">
<title>Node1&#45;&gt;Node12</title>
<path fill="none" stroke="midnightblue" d="M288.95,-408.96C299.79,-430.1 319.88,-464.06 346,-485 350.9,-488.93 356.72,-492.15 362.56,-494.75"/>
<polygon fill="midnightblue" stroke="midnightblue" points="291.96,-407.14 284.39,-399.73 285.68,-410.25 291.96,-407.14"/>
</g>
<!-- Node13 -->
<g id="node12" class="node">
<title>Node13</title>
<g id="a_node12"><a xlink:href="classomnetpp_1_1cGeometric.html" target="_top" xlink:title="Generates random numbers from the geometric distribution.">
<polygon fill="white" stroke="black" points="357,-456.5 357,-475.5 430,-475.5 430,-456.5 357,-456.5"/>
<text text-anchor="middle" x="393.5" y="-463.5" font-family="Helvetica,sans-Serif" font-size="10.00">cGeometric</text>
</a>
</g>
</g>
<!-- Node1&#45;&gt;Node13 -->
<g id="edge11" class="edge">
<title>Node1&#45;&gt;Node13</title>
<path fill="none" stroke="midnightblue" d="M296.51,-406.97C309.18,-419.28 327.58,-435.7 346,-447 351.8,-450.56 358.38,-453.71 364.73,-456.37"/>
<polygon fill="midnightblue" stroke="midnightblue" points="298.62,-404.13 289.06,-399.56 293.68,-409.09 298.62,-404.13"/>
</g>
<!-- Node14 -->
<g id="node13" class="node">
<title>Node14</title>
<g id="a_node13"><a xlink:href="classomnetpp_1_1cIntUniform.html" target="_top" xlink:title="Generates random numbers from the discrete uniform distribution.">
<polygon fill="white" stroke="black" points="356.5,-418.5 356.5,-437.5 430.5,-437.5 430.5,-418.5 356.5,-418.5"/>
<text text-anchor="middle" x="393.5" y="-425.5" font-family="Helvetica,sans-Serif" font-size="10.00">cIntUniform</text>
</a>
</g>
</g>
<!-- Node1&#45;&gt;Node14 -->
<g id="edge12" class="edge">
<title>Node1&#45;&gt;Node14</title>
<path fill="none" stroke="midnightblue" d="M317.97,-402.83C333.07,-407.92 350.13,-413.69 364.12,-418.41"/>
<polygon fill="midnightblue" stroke="midnightblue" points="318.98,-399.47 308.39,-399.59 316.74,-406.11 318.98,-399.47"/>
</g>
<!-- Node15 -->
<g id="node14" class="node">
<title>Node15</title>
<g id="a_node14"><a xlink:href="classomnetpp_1_1cIntUniformExcl.html" target="_top" xlink:title="Generates random numbers from the discrete uniform distribution.">
<polygon fill="white" stroke="black" points="346,-380.5 346,-399.5 441,-399.5 441,-380.5 346,-380.5"/>
<text text-anchor="middle" x="393.5" y="-387.5" font-family="Helvetica,sans-Serif" font-size="10.00">cIntUniformExcl</text>
</a>
</g>
</g>
<!-- Node1&#45;&gt;Node15 -->
<g id="edge13" class="edge">
<title>Node1&#45;&gt;Node15</title>
<path fill="none" stroke="midnightblue" d="M320.27,-390C328.53,-390 337.28,-390 345.74,-390"/>
<polygon fill="midnightblue" stroke="midnightblue" points="320.15,-386.5 310.15,-390 320.15,-393.5 320.15,-386.5"/>
</g>
<!-- Node16 -->
<g id="node15" class="node">
<title>Node16</title>
<g id="a_node15"><a xlink:href="classomnetpp_1_1cNegBinomial.html" target="_top" xlink:title="Generates random numbers from the negative binomial distribution.">
<polygon fill="white" stroke="black" points="351,-342.5 351,-361.5 436,-361.5 436,-342.5 351,-342.5"/>
<text text-anchor="middle" x="393.5" y="-349.5" font-family="Helvetica,sans-Serif" font-size="10.00">cNegBinomial</text>
</a>
</g>
</g>
<!-- Node1&#45;&gt;Node16 -->
<g id="edge14" class="edge">
<title>Node1&#45;&gt;Node16</title>
<path fill="none" stroke="midnightblue" d="M317.97,-377.17C333.07,-372.08 350.13,-366.31 364.12,-361.59"/>
<polygon fill="midnightblue" stroke="midnightblue" points="316.74,-373.89 308.39,-380.41 318.98,-380.53 316.74,-373.89"/>
</g>
<!-- Node17 -->
<g id="node16" class="node">
<title>Node17</title>
<g id="a_node16"><a xlink:href="classomnetpp_1_1cNormal.html" target="_top" xlink:title="Generates random numbers from the normal distribution.">
<polygon fill="white" stroke="black" points="364.5,-304.5 364.5,-323.5 422.5,-323.5 422.5,-304.5 364.5,-304.5"/>
<text text-anchor="middle" x="393.5" y="-311.5" font-family="Helvetica,sans-Serif" font-size="10.00">cNormal</text>
</a>
</g>
</g>
<!-- Node1&#45;&gt;Node17 -->
<g id="edge15" class="edge">
<title>Node1&#45;&gt;Node17</title>
<path fill="none" stroke="midnightblue" d="M296.51,-373.03C309.18,-360.72 327.58,-344.3 346,-333 351.8,-329.44 358.38,-326.29 364.73,-323.63"/>
<polygon fill="midnightblue" stroke="midnightblue" points="293.68,-370.91 289.06,-380.44 298.62,-375.87 293.68,-370.91"/>
</g>
<!-- Node18 -->
<g id="node17" class="node">
<title>Node18</title>
<g id="a_node17"><a xlink:href="classomnetpp_1_1cParetoShifted.html" target="_top" xlink:title="Generates random numbers from the shifted Pareto distribution.">
<polygon fill="white" stroke="black" points="350.5,-266.5 350.5,-285.5 436.5,-285.5 436.5,-266.5 350.5,-266.5"/>
<text text-anchor="middle" x="393.5" y="-273.5" font-family="Helvetica,sans-Serif" font-size="10.00">cParetoShifted</text>
</a>
</g>
</g>
<!-- Node1&#45;&gt;Node18 -->
<g id="edge16" class="edge">
<title>Node1&#45;&gt;Node18</title>
<path fill="none" stroke="midnightblue" d="M288.95,-371.04C299.79,-349.9 319.88,-315.94 346,-295 350.63,-291.29 356.08,-288.21 361.59,-285.69"/>
<polygon fill="midnightblue" stroke="midnightblue" points="285.68,-369.75 284.39,-380.27 291.96,-372.86 285.68,-369.75"/>
</g>
<!-- Node19 -->
<g id="node18" class="node">
<title>Node19</title>
<g id="a_node18"><a xlink:href="classomnetpp_1_1cPoisson.html" target="_top" xlink:title="Generates random numbers from the Poisson distribution.">
<polygon fill="white" stroke="black" points="364,-228.5 364,-247.5 423,-247.5 423,-228.5 364,-228.5"/>
<text text-anchor="middle" x="393.5" y="-235.5" font-family="Helvetica,sans-Serif" font-size="10.00">cPoisson</text>
</a>
</g>
</g>
<!-- Node1&#45;&gt;Node19 -->
<g id="edge17" class="edge">
<title>Node1&#45;&gt;Node19</title>
<path fill="none" stroke="midnightblue" d="M285,-370.19C293.18,-341.57 312,-288.61 346,-257 350.98,-252.37 357.24,-248.79 363.55,-246.07"/>
<polygon fill="midnightblue" stroke="midnightblue" points="281.53,-369.63 282.3,-380.2 288.28,-371.46 281.53,-369.63"/>
</g>
<!-- Node20 -->
<g id="node19" class="node">
<title>Node20</title>
<g id="a_node19"><a xlink:href="classomnetpp_1_1cStatistic.html" target="_top" xlink:title="cStatistic is an abstract class for computing statistical properties of a random variable.">
<polygon fill="white" stroke="black" points="362.5,-190.5 362.5,-209.5 424.5,-209.5 424.5,-190.5 362.5,-190.5"/>
<text text-anchor="middle" x="393.5" y="-197.5" font-family="Helvetica,sans-Serif" font-size="10.00">cStatistic</text>
</a>
</g>
</g>
<!-- Node1&#45;&gt;Node20 -->
<g id="edge18" class="edge">
<title>Node1&#45;&gt;Node20</title>
<path fill="none" stroke="midnightblue" d="M282.49,-370.13C287.89,-335.12 303.76,-262.07 346,-219 350.52,-214.39 356.31,-210.86 362.26,-208.17"/>
<polygon fill="midnightblue" stroke="midnightblue" points="278.97,-370.06 281.04,-380.45 285.9,-371.04 278.97,-370.06"/>
</g>
<!-- Node27 -->
<g id="node21" class="node">
<title>Node27</title>
<g id="a_node21"><a xlink:href="classomnetpp_1_1cStudentT.html" target="_top" xlink:title="Generates random numbers from Student&#39;s T distribution.">
<polygon fill="white" stroke="black" points="361,-152.5 361,-171.5 426,-171.5 426,-152.5 361,-152.5"/>
<text text-anchor="middle" x="393.5" y="-159.5" font-family="Helvetica,sans-Serif" font-size="10.00">cStudentT</text>
</a>
</g>
</g>
<!-- Node1&#45;&gt;Node27 -->
<g id="edge20" class="edge">
<title>Node1&#45;&gt;Node27</title>
<path fill="none" stroke="midnightblue" d="M280.85,-370.04C283.61,-329.32 295.44,-235.88 346,-181 350.02,-176.64 355.18,-173.25 360.6,-170.63"/>
<polygon fill="midnightblue" stroke="midnightblue" points="277.34,-370.08 280.27,-380.26 284.33,-370.48 277.34,-370.08"/>
</g>
<!-- Node28 -->
<g id="node22" class="node">
<title>Node28</title>
<g id="a_node22"><a xlink:href="classomnetpp_1_1cTriang.html" target="_top" xlink:title="Generates random numbers from the triangular distribution.">
<polygon fill="white" stroke="black" points="368,-114.5 368,-133.5 419,-133.5 419,-114.5 368,-114.5"/>
<text text-anchor="middle" x="393.5" y="-121.5" font-family="Helvetica,sans-Serif" font-size="10.00">cTriang</text>
</a>
</g>
</g>
<!-- Node1&#45;&gt;Node28 -->
<g id="edge21" class="edge">
<title>Node1&#45;&gt;Node28</title>
<path fill="none" stroke="midnightblue" d="M279.67,-369.95C279.98,-324 287.05,-209.95 346,-143 351.65,-136.59 359.79,-132.3 367.68,-129.45"/>
<polygon fill="midnightblue" stroke="midnightblue" points="276.17,-370.1 279.7,-380.09 283.17,-370.08 276.17,-370.1"/>
</g>
<!-- Node29 -->
<g id="node23" class="node">
<title>Node29</title>
<g id="a_node23"><a xlink:href="classomnetpp_1_1cTruncNormal.html" target="_top" xlink:title="Generates random numbers from the truncated normal distribution.">
<polygon fill="white" stroke="black" points="352,-76.5 352,-95.5 435,-95.5 435,-76.5 352,-76.5"/>
<text text-anchor="middle" x="393.5" y="-83.5" font-family="Helvetica,sans-Serif" font-size="10.00">cTruncNormal</text>
</a>
</g>
</g>
<!-- Node1&#45;&gt;Node29 -->
<g id="edge22" class="edge">
<title>Node1&#45;&gt;Node29</title>
<path fill="none" stroke="midnightblue" d="M282.19,-370.41C288.97,-312.86 311.28,-145.79 346,-105 349.28,-101.15 353.46,-98.07 357.96,-95.6"/>
<polygon fill="midnightblue" stroke="midnightblue" points="278.71,-370.05 281.04,-380.39 285.66,-370.85 278.71,-370.05"/>
</g>
<!-- Node30 -->
<g id="node24" class="node">
<title>Node30</title>
<g id="a_node24"><a xlink:href="classomnetpp_1_1cUniform.html" target="_top" xlink:title="Generates random numbers from the uniform distribution.">
<polygon fill="white" stroke="black" points="362.5,-38.5 362.5,-57.5 424.5,-57.5 424.5,-38.5 362.5,-38.5"/>
<text text-anchor="middle" x="393.5" y="-45.5" font-family="Helvetica,sans-Serif" font-size="10.00">cUniform</text>
</a>
</g>
</g>
<!-- Node1&#45;&gt;Node30 -->
<g id="edge23" class="edge">
<title>Node1&#45;&gt;Node30</title>
<path fill="none" stroke="midnightblue" d="M281.61,-370.31C287.11,-307.63 306.97,-114.08 346,-67 350.23,-61.9 356.05,-58.15 362.14,-55.4"/>
<polygon fill="midnightblue" stroke="midnightblue" points="278.11,-370.17 280.75,-380.43 285.09,-370.76 278.11,-370.17"/>
</g>
<!-- Node31 -->
<g id="node25" class="node">
<title>Node31</title>
<g id="a_node25"><a xlink:href="classomnetpp_1_1cWeibull.html" target="_top" xlink:title="Generates random numbers from the Weibull distribution.">
<polygon fill="white" stroke="black" points="364.5,-0.5 364.5,-19.5 422.5,-19.5 422.5,-0.5 364.5,-0.5"/>
<text text-anchor="middle" x="393.5" y="-7.5" font-family="Helvetica,sans-Serif" font-size="10.00">cWeibull</text>
</a>
</g>
</g>
<!-- Node1&#45;&gt;Node31 -->
<g id="edge24" class="edge">
<title>Node1&#45;&gt;Node31</title>
<path fill="none" stroke="midnightblue" d="M281.15,-370.23C285.46,-302.7 302.63,-82.42 346,-29 350.73,-23.18 357.53,-19.12 364.47,-16.3"/>
<polygon fill="midnightblue" stroke="midnightblue" points="277.65,-370.16 280.53,-380.35 284.64,-370.59 277.65,-370.16"/>
</g>
<!-- Node2 -->
<g id="node2" class="node">
<title>Node2</title>
<g id="a_node2"><a xlink:href="classomnetpp_1_1cOwnedObject.html" target="_top" xlink:title="A cObject that keeps track of its owner. It serves as base class for many classes in the OMNeT++ libr...">
<polygon fill="white" stroke="black" points="125,-380.5 125,-399.5 212,-399.5 212,-380.5 125,-380.5"/>
<text text-anchor="middle" x="168.5" y="-387.5" font-family="Helvetica,sans-Serif" font-size="10.00">cOwnedObject</text>
</a>
</g>
</g>
<!-- Node2&#45;&gt;Node1 -->
<g id="edge1" class="edge">
<title>Node2&#45;&gt;Node1</title>
<path fill="none" stroke="midnightblue" d="M222.32,-390C231.12,-390 239.98,-390 247.95,-390"/>
<polygon fill="midnightblue" stroke="midnightblue" points="222.07,-386.5 212.07,-390 222.07,-393.5 222.07,-386.5"/>
</g>
<!-- Node3 -->
<g id="node3" class="node">
<title>Node3</title>
<g id="a_node3"><a xlink:href="classomnetpp_1_1cNamedObject.html" target="_top" xlink:title="Extends cObject with a name string. Also includes a &quot;flags&quot; member, with bits open for use by subclas...">
<polygon fill="white" stroke="red" points="0,-380.5 0,-399.5 89,-399.5 89,-380.5 0,-380.5"/>
<text text-anchor="middle" x="44.5" y="-387.5" font-family="Helvetica,sans-Serif" font-size="10.00">cNamedObject</text>
</a>
</g>
</g>
<!-- Node3&#45;&gt;Node2 -->
<g id="edge2" class="edge">
<title>Node3&#45;&gt;Node2</title>
<path fill="none" stroke="midnightblue" d="M99.46,-390C107.99,-390 116.7,-390 124.92,-390"/>
<polygon fill="midnightblue" stroke="midnightblue" points="99.2,-386.5 89.2,-390 99.2,-393.5 99.2,-386.5"/>
</g>
<!-- Node21 -->
<g id="node20" class="node">
<title>Node21</title>
<g id="a_node20"><a xlink:href="classomnetpp_1_1cStdDev.html" target="_top" xlink:title="Statistics class to collect min, max, mean, and standard deviation.">
<polygon fill="white" stroke="red" points="477,-190.5 477,-209.5 534,-209.5 534,-190.5 477,-190.5"/>
<text text-anchor="middle" x="505.5" y="-197.5" font-family="Helvetica,sans-Serif" font-size="10.00">cStdDev</text>
</a>
</g>
</g>
<!-- Node20&#45;&gt;Node21 -->
<g id="edge19" class="edge">
<title>Node20&#45;&gt;Node21</title>
<path fill="none" stroke="midnightblue" d="M434.87,-200C448.79,-200 464.06,-200 476.74,-200"/>
<polygon fill="midnightblue" stroke="midnightblue" points="434.56,-196.5 424.56,-200 434.56,-203.5 434.56,-196.5"/>
</g>
</g>
</svg>
