<?xml version="1.0" encoding="UTF-8" standalone="no"?>
<!DOCTYPE svg PUBLIC "-//W3C//DTD SVG 1.1//EN"
 "http://www.w3.org/Graphics/SVG/1.1/DTD/svg11.dtd">
<!-- Generated by graphviz version 2.43.0 (0)
 -->
<!-- Title: cPSquare Pages: 1 -->
<svg width="121pt" height="140pt"
 viewBox="0.00 0.00 121.00 140.00" xmlns="http://www.w3.org/2000/svg" xmlns:xlink="http://www.w3.org/1999/xlink">
<g id="graph0" class="graph" transform="scale(1 1) rotate(0) translate(4 136)">
<title>cPSquare</title>
<polygon fill="white" stroke="transparent" points="-4,4 -4,-136 117,-136 117,4 -4,4"/>
<!-- Node1 -->
<g id="node1" class="node">
<title>Node1</title>
<g id="a_node1"><a xlink:title="Implements the P2 algorithm, which calculates quantile values without storing the observations....">
<polygon fill="#bfbfbf" stroke="black" points="25.5,-0.5 25.5,-19.5 87.5,-19.5 87.5,-0.5 25.5,-0.5"/>
<text text-anchor="middle" x="56.5" y="-7.5" font-family="Helvetica,sans-Serif" font-size="10.00">cPSquare</text>
</a>
</g>
</g>
<!-- Node2 -->
<g id="node2" class="node">
<title>Node2</title>
<g id="a_node2"><a xlink:href="classomnetpp_1_1cAbstractHistogram.html" target="_top" xlink:title="Interface and base class for histogram&#45;like density estimation classes.">
<polygon fill="white" stroke="black" points="0,-56.5 0,-75.5 113,-75.5 113,-56.5 0,-56.5"/>
<text text-anchor="middle" x="56.5" y="-63.5" font-family="Helvetica,sans-Serif" font-size="10.00">cAbstractHistogram</text>
</a>
</g>
</g>
<!-- Node2&#45;&gt;Node1 -->
<g id="edge1" class="edge">
<title>Node2&#45;&gt;Node1</title>
<path fill="none" stroke="midnightblue" d="M56.5,-45.8C56.5,-36.91 56.5,-26.78 56.5,-19.75"/>
<polygon fill="midnightblue" stroke="midnightblue" points="53,-46.08 56.5,-56.08 60,-46.08 53,-46.08"/>
</g>
<!-- Node3 -->
<g id="node3" class="node">
<title>Node3</title>
<g id="a_node3"><a xlink:href="classomnetpp_1_1cStdDev.html" target="_top" xlink:title="Statistics class to collect min, max, mean, and standard deviation.">
<polygon fill="white" stroke="red" points="28,-112.5 28,-131.5 85,-131.5 85,-112.5 28,-112.5"/>
<text text-anchor="middle" x="56.5" y="-119.5" font-family="Helvetica,sans-Serif" font-size="10.00">cStdDev</text>
</a>
</g>
</g>
<!-- Node3&#45;&gt;Node2 -->
<g id="edge2" class="edge">
<title>Node3&#45;&gt;Node2</title>
<path fill="none" stroke="midnightblue" d="M56.5,-101.8C56.5,-92.91 56.5,-82.78 56.5,-75.75"/>
<polygon fill="midnightblue" stroke="midnightblue" points="53,-102.08 56.5,-112.08 60,-102.08 53,-102.08"/>
</g>
</g>
</svg>
