<?xml version="1.0" encoding="UTF-8" standalone="no"?>
<!DOCTYPE svg PUBLIC "-//W3C//DTD SVG 1.1//EN"
 "http://www.w3.org/Graphics/SVG/1.1/DTD/svg11.dtd">
<!-- Generated by graphviz version 2.43.0 (0)
 -->
<!-- Title: cAutoRangeHistogramStrategy Pages: 1 -->
<svg width="175pt" height="151pt"
 viewBox="0.00 0.00 175.00 151.00" xmlns="http://www.w3.org/2000/svg" xmlns:xlink="http://www.w3.org/1999/xlink">
<g id="graph0" class="graph" transform="scale(1 1) rotate(0) translate(4 147)">
<title>cAutoRangeHistogramStrategy</title>
<polygon fill="white" stroke="transparent" points="-4,4 -4,-147 171,-147 171,4 -4,4"/>
<!-- Node1 -->
<g id="node1" class="node">
<title>Node1</title>
<g id="a_node1"><a xlink:title="A generic, very configurable histogram strategy that is meant to provide a good quality histogram for...">
<polygon fill="#bfbfbf" stroke="black" points="0,-0.5 0,-19.5 167,-19.5 167,-0.5 0,-0.5"/>
<text text-anchor="middle" x="83.5" y="-7.5" font-family="Helvetica,sans-Serif" font-size="10.00">cAutoRangeHistogramStrategy</text>
</a>
</g>
</g>
<!-- Node2 -->
<g id="node2" class="node">
<title>Node2</title>
<g id="a_node2"><a xlink:href="classomnetpp_1_1cPrecollectionBasedHistogramStrategy.html" target="_top" xlink:title="Base class for histogram strategies that employ a precollection phase in order to gather input for se...">
<polygon fill="white" stroke="black" points="0.5,-56.5 0.5,-86.5 166.5,-86.5 166.5,-56.5 0.5,-56.5"/>
<text text-anchor="start" x="8.5" y="-74.5" font-family="Helvetica,sans-Serif" font-size="10.00">cPrecollectionBasedHistogram</text>
<text text-anchor="middle" x="83.5" y="-63.5" font-family="Helvetica,sans-Serif" font-size="10.00">Strategy</text>
</a>
</g>
</g>
<!-- Node2&#45;&gt;Node1 -->
<g id="edge1" class="edge">
<title>Node2&#45;&gt;Node1</title>
<path fill="none" stroke="midnightblue" d="M83.5,-46.29C83.5,-36.86 83.5,-26.65 83.5,-19.66"/>
<polygon fill="midnightblue" stroke="midnightblue" points="80,-46.4 83.5,-56.4 87,-46.4 80,-46.4"/>
</g>
<!-- Node3 -->
<g id="node3" class="node">
<title>Node3</title>
<g id="a_node3"><a xlink:href="classomnetpp_1_1cIHistogramStrategy.html" target="_top" xlink:title="Interface for histogram strategy classes. Histogram strategies encapsulate the task of setting up and...">
<polygon fill="white" stroke="red" points="25,-123.5 25,-142.5 142,-142.5 142,-123.5 25,-123.5"/>
<text text-anchor="middle" x="83.5" y="-130.5" font-family="Helvetica,sans-Serif" font-size="10.00">cIHistogramStrategy</text>
</a>
</g>
</g>
<!-- Node3&#45;&gt;Node2 -->
<g id="edge2" class="edge">
<title>Node3&#45;&gt;Node2</title>
<path fill="none" stroke="midnightblue" d="M83.5,-113.23C83.5,-104.59 83.5,-94.5 83.5,-86.52"/>
<polygon fill="midnightblue" stroke="midnightblue" points="80,-113.48 83.5,-123.48 87,-113.48 80,-113.48"/>
</g>
</g>
</svg>
