<?xml version="1.0" encoding="UTF-8" standalone="no"?>
<!DOCTYPE svg PUBLIC "-//W3C//DTD SVG 1.1//EN"
 "http://www.w3.org/Graphics/SVG/1.1/DTD/svg11.dtd">
<!-- Generated by graphviz version 2.43.0 (0)
 -->
<!-- Title: cValueContainer Pages: 1 -->
<svg width="271pt" height="196pt"
 viewBox="0.00 0.00 270.50 196.00" xmlns="http://www.w3.org/2000/svg" xmlns:xlink="http://www.w3.org/1999/xlink">
<g id="graph0" class="graph" transform="scale(1 1) rotate(0) translate(4 192)">
<title>cValueContainer</title>
<polygon fill="white" stroke="transparent" points="-4,4 -4,-192 266.5,-192 266.5,4 -4,4"/>
<!-- Node1 -->
<g id="node1" class="node">
<title>Node1</title>
<g id="a_node1"><a xlink:title="Common base class for cValue&#45;based containers.">
<polygon fill="#bfbfbf" stroke="black" points="85.5,-56.5 85.5,-75.5 181.5,-75.5 181.5,-56.5 85.5,-56.5"/>
<text text-anchor="middle" x="133.5" y="-63.5" font-family="Helvetica,sans-Serif" font-size="10.00">cValueContainer</text>
</a>
</g>
</g>
<!-- Node5 -->
<g id="node4" class="node">
<title>Node5</title>
<g id="a_node4"><a xlink:href="classomnetpp_1_1cValueArray.html" target="_top" xlink:title="Container class based on std::vector&lt;cValue&gt; objects.">
<polygon fill="white" stroke="black" points="0,-0.5 0,-19.5 75,-19.5 75,-0.5 0,-0.5"/>
<text text-anchor="middle" x="37.5" y="-7.5" font-family="Helvetica,sans-Serif" font-size="10.00">cValueArray</text>
</a>
</g>
</g>
<!-- Node1&#45;&gt;Node5 -->
<g id="edge3" class="edge">
<title>Node1&#45;&gt;Node5</title>
<path fill="none" stroke="midnightblue" d="M108.93,-51.18C91.26,-41.24 67.99,-28.15 52.89,-19.65"/>
<polygon fill="midnightblue" stroke="midnightblue" points="107.64,-54.47 118.08,-56.32 111.08,-48.37 107.64,-54.47"/>
</g>
<!-- Node6 -->
<g id="node5" class="node">
<title>Node6</title>
<g id="a_node5"><a xlink:href="classomnetpp_1_1cValueHolder.html" target="_top" xlink:title="cOwnedObject&#45;based container/wrapper to hold a single cValue.">
<polygon fill="white" stroke="black" points="93,-0.5 93,-19.5 174,-19.5 174,-0.5 93,-0.5"/>
<text text-anchor="middle" x="133.5" y="-7.5" font-family="Helvetica,sans-Serif" font-size="10.00">cValueHolder</text>
</a>
</g>
</g>
<!-- Node1&#45;&gt;Node6 -->
<g id="edge4" class="edge">
<title>Node1&#45;&gt;Node6</title>
<path fill="none" stroke="midnightblue" d="M133.5,-45.8C133.5,-36.91 133.5,-26.78 133.5,-19.75"/>
<polygon fill="midnightblue" stroke="midnightblue" points="130,-46.08 133.5,-56.08 137,-46.08 130,-46.08"/>
</g>
<!-- Node7 -->
<g id="node6" class="node">
<title>Node7</title>
<g id="a_node6"><a xlink:href="classomnetpp_1_1cValueMap.html" target="_top" xlink:title="Key&#45;value container class based on std::map&lt;std::string,cValue&gt;.">
<polygon fill="white" stroke="black" points="192.5,-0.5 192.5,-19.5 262.5,-19.5 262.5,-0.5 192.5,-0.5"/>
<text text-anchor="middle" x="227.5" y="-7.5" font-family="Helvetica,sans-Serif" font-size="10.00">cValueMap</text>
</a>
</g>
</g>
<!-- Node1&#45;&gt;Node7 -->
<g id="edge5" class="edge">
<title>Node1&#45;&gt;Node7</title>
<path fill="none" stroke="midnightblue" d="M157.56,-51.18C174.86,-41.24 197.65,-28.15 212.43,-19.65"/>
<polygon fill="midnightblue" stroke="midnightblue" points="155.53,-48.31 148.6,-56.32 159.02,-54.38 155.53,-48.31"/>
</g>
<!-- Node2 -->
<g id="node2" class="node">
<title>Node2</title>
<g id="a_node2"><a xlink:href="classomnetpp_1_1cOwnedObject.html" target="_top" xlink:title="A cObject that keeps track of its owner. It serves as base class for many classes in the OMNeT++ libr...">
<polygon fill="white" stroke="black" points="90,-112.5 90,-131.5 177,-131.5 177,-112.5 90,-112.5"/>
<text text-anchor="middle" x="133.5" y="-119.5" font-family="Helvetica,sans-Serif" font-size="10.00">cOwnedObject</text>
</a>
</g>
</g>
<!-- Node2&#45;&gt;Node1 -->
<g id="edge1" class="edge">
<title>Node2&#45;&gt;Node1</title>
<path fill="none" stroke="midnightblue" d="M133.5,-101.8C133.5,-92.91 133.5,-82.78 133.5,-75.75"/>
<polygon fill="midnightblue" stroke="midnightblue" points="130,-102.08 133.5,-112.08 137,-102.08 130,-102.08"/>
</g>
<!-- Node3 -->
<g id="node3" class="node">
<title>Node3</title>
<g id="a_node3"><a xlink:href="classomnetpp_1_1cNamedObject.html" target="_top" xlink:title="Extends cObject with a name string. Also includes a &quot;flags&quot; member, with bits open for use by subclas...">
<polygon fill="white" stroke="red" points="89,-168.5 89,-187.5 178,-187.5 178,-168.5 89,-168.5"/>
<text text-anchor="middle" x="133.5" y="-175.5" font-family="Helvetica,sans-Serif" font-size="10.00">cNamedObject</text>
</a>
</g>
</g>
<!-- Node3&#45;&gt;Node2 -->
<g id="edge2" class="edge">
<title>Node3&#45;&gt;Node2</title>
<path fill="none" stroke="midnightblue" d="M133.5,-157.8C133.5,-148.91 133.5,-138.78 133.5,-131.75"/>
<polygon fill="midnightblue" stroke="midnightblue" points="130,-158.08 133.5,-168.08 137,-158.08 130,-158.08"/>
</g>
</g>
</svg>
