<?xml version="1.0" encoding="UTF-8" standalone="no"?>
<!DOCTYPE svg PUBLIC "-//W3C//DTD SVG 1.1//EN"
 "http://www.w3.org/Graphics/SVG/1.1/DTD/svg11.dtd">
<!-- Generated by graphviz version 2.43.0 (0)
 -->
<!-- Title: cScheduler Pages: 1 -->
<svg width="277pt" height="140pt"
 viewBox="0.00 0.00 277.00 140.00" xmlns="http://www.w3.org/2000/svg" xmlns:xlink="http://www.w3.org/1999/xlink">
<g id="graph0" class="graph" transform="scale(1 1) rotate(0) translate(4 136)">
<title>cScheduler</title>
<polygon fill="white" stroke="transparent" points="-4,4 -4,-136 273,-136 273,4 -4,4"/>
<!-- Node1 -->
<g id="node1" class="node">
<title>Node1</title>
<g id="a_node1"><a xlink:title="Abstract class to encapsulate event scheduling.">
<polygon fill="#bfbfbf" stroke="black" points="91,-56.5 91,-75.5 161,-75.5 161,-56.5 91,-56.5"/>
<text text-anchor="middle" x="126" y="-63.5" font-family="Helvetica,sans-Serif" font-size="10.00">cScheduler</text>
</a>
</g>
</g>
<!-- Node4 -->
<g id="node4" class="node">
<title>Node4</title>
<g id="a_node4"><a xlink:href="classomnetpp_1_1cRealTimeScheduler.html" target="_top" xlink:title="Real&#45;time scheduler class.">
<polygon fill="white" stroke="black" points="0,-0.5 0,-19.5 116,-19.5 116,-0.5 0,-0.5"/>
<text text-anchor="middle" x="58" y="-7.5" font-family="Helvetica,sans-Serif" font-size="10.00">cRealTimeScheduler</text>
</a>
</g>
</g>
<!-- Node1&#45;&gt;Node4 -->
<g id="edge3" class="edge">
<title>Node1&#45;&gt;Node4</title>
<path fill="none" stroke="midnightblue" d="M107.24,-50.1C95,-40.38 79.44,-28.03 69.12,-19.83"/>
<polygon fill="midnightblue" stroke="midnightblue" points="105.07,-52.85 115.07,-56.32 109.42,-47.36 105.07,-52.85"/>
</g>
<!-- Node5 -->
<g id="node5" class="node">
<title>Node5</title>
<g id="a_node5"><a xlink:href="classomnetpp_1_1cSequentialScheduler.html" target="_top" xlink:title="Event scheduler for sequential simulation.">
<polygon fill="white" stroke="black" points="134,-0.5 134,-19.5 256,-19.5 256,-0.5 134,-0.5"/>
<text text-anchor="middle" x="195" y="-7.5" font-family="Helvetica,sans-Serif" font-size="10.00">cSequentialScheduler</text>
</a>
</g>
</g>
<!-- Node1&#45;&gt;Node5 -->
<g id="edge4" class="edge">
<title>Node1&#45;&gt;Node5</title>
<path fill="none" stroke="midnightblue" d="M145.04,-50.1C157.46,-40.38 173.24,-28.03 183.71,-19.83"/>
<polygon fill="midnightblue" stroke="midnightblue" points="142.8,-47.4 137.09,-56.32 147.12,-52.92 142.8,-47.4"/>
</g>
<!-- Node2 -->
<g id="node2" class="node">
<title>Node2</title>
<g id="a_node2"><a xlink:href="classomnetpp_1_1cObject.html" target="_top" xlink:title="cObject is a lightweight class which serves as the root of the OMNeT++ class hierarchy....">
<polygon fill="white" stroke="black" points="37.5,-112.5 37.5,-131.5 90.5,-131.5 90.5,-112.5 37.5,-112.5"/>
<text text-anchor="middle" x="64" y="-119.5" font-family="Helvetica,sans-Serif" font-size="10.00">cObject</text>
</a>
</g>
</g>
<!-- Node2&#45;&gt;Node1 -->
<g id="edge1" class="edge">
<title>Node2&#45;&gt;Node1</title>
<path fill="none" stroke="midnightblue" d="M81.75,-105.54C92.81,-95.91 106.63,-83.87 115.86,-75.83"/>
<polygon fill="midnightblue" stroke="midnightblue" points="79.2,-103.12 73.96,-112.32 83.8,-108.4 79.2,-103.12"/>
</g>
<!-- Node3 -->
<g id="node3" class="node">
<title>Node3</title>
<g id="a_node3"><a xlink:href="classomnetpp_1_1cISimulationLifecycleListener.html" target="_top" xlink:title="A callback interface for receiving notifications at various stages simulations, including setting up,...">
<polygon fill="white" stroke="black" points="109,-112.5 109,-131.5 269,-131.5 269,-112.5 109,-112.5"/>
<text text-anchor="middle" x="189" y="-119.5" font-family="Helvetica,sans-Serif" font-size="10.00">cISimulationLifecycleListener</text>
</a>
</g>
</g>
<!-- Node3&#45;&gt;Node1 -->
<g id="edge2" class="edge">
<title>Node3&#45;&gt;Node1</title>
<path fill="none" stroke="midnightblue" d="M170.96,-105.54C159.73,-95.91 145.68,-83.87 136.31,-75.83"/>
<polygon fill="midnightblue" stroke="midnightblue" points="169.01,-108.47 178.88,-112.32 173.56,-103.16 169.01,-108.47"/>
</g>
</g>
</svg>
