<?xml version="1.0" encoding="UTF-8" standalone="no"?>
<!DOCTYPE svg PUBLIC "-//W3C//DTD SVG 1.1//EN"
 "http://www.w3.org/Graphics/SVG/1.1/DTD/svg11.dtd">
<!-- Generated by graphviz version 2.43.0 (0)
 -->
<!-- Title: cComponentType Pages: 1 -->
<svg width="192pt" height="196pt"
 viewBox="0.00 0.00 192.00 196.00" xmlns="http://www.w3.org/2000/svg" xmlns:xlink="http://www.w3.org/1999/xlink">
<g id="graph0" class="graph" transform="scale(1 1) rotate(0) translate(4 192)">
<title>cComponentType</title>
<polygon fill="white" stroke="transparent" points="-4,4 -4,-192 188,-192 188,4 -4,4"/>
<!-- Node1 -->
<g id="node1" class="node">
<title>Node1</title>
<g id="a_node1"><a xlink:title="Common base class for cModuleType and cChannelType.">
<polygon fill="#bfbfbf" stroke="black" points="43,-56.5 43,-75.5 144,-75.5 144,-56.5 43,-56.5"/>
<text text-anchor="middle" x="93.5" y="-63.5" font-family="Helvetica,sans-Serif" font-size="10.00">cComponentType</text>
</a>
</g>
</g>
<!-- Node7 -->
<g id="node5" class="node">
<title>Node7</title>
<g id="a_node5"><a xlink:href="classomnetpp_1_1cChannelType.html" target="_top" xlink:title="Abstract base class for creating a channel of a given type.">
<polygon fill="white" stroke="black" points="1.5,-0.5 1.5,-19.5 85.5,-19.5 85.5,-0.5 1.5,-0.5"/>
<text text-anchor="middle" x="43.5" y="-7.5" font-family="Helvetica,sans-Serif" font-size="10.00">cChannelType</text>
</a>
</g>
</g>
<!-- Node1&#45;&gt;Node7 -->
<g id="edge4" class="edge">
<title>Node1&#45;&gt;Node7</title>
<path fill="none" stroke="midnightblue" d="M78.42,-48.72C69.61,-39.2 58.83,-27.56 51.6,-19.75"/>
<polygon fill="midnightblue" stroke="midnightblue" points="75.88,-51.12 85.24,-56.08 81.02,-46.37 75.88,-51.12"/>
</g>
<!-- Node8 -->
<g id="node6" class="node">
<title>Node8</title>
<g id="a_node6"><a xlink:href="classomnetpp_1_1cModuleType.html" target="_top" xlink:title="Abstract class for creating a module of a specific type.">
<polygon fill="white" stroke="black" points="103.5,-0.5 103.5,-19.5 183.5,-19.5 183.5,-0.5 103.5,-0.5"/>
<text text-anchor="middle" x="143.5" y="-7.5" font-family="Helvetica,sans-Serif" font-size="10.00">cModuleType</text>
</a>
</g>
</g>
<!-- Node1&#45;&gt;Node8 -->
<g id="edge5" class="edge">
<title>Node1&#45;&gt;Node8</title>
<path fill="none" stroke="midnightblue" d="M108.58,-48.72C117.39,-39.2 128.17,-27.56 135.4,-19.75"/>
<polygon fill="midnightblue" stroke="midnightblue" points="105.98,-46.37 101.76,-56.08 111.12,-51.12 105.98,-46.37"/>
</g>
<!-- Node2 -->
<g id="node2" class="node">
<title>Node2</title>
<g id="a_node2"><a xlink:href="classomnetpp_1_1cNoncopyableOwnedObject.html" target="_top" xlink:title="Base class for cOwnedObject&#45;based classes that do not wish to support assignment and duplication.">
<polygon fill="white" stroke="black" points="18,-112.5 18,-131.5 169,-131.5 169,-112.5 18,-112.5"/>
<text text-anchor="middle" x="93.5" y="-119.5" font-family="Helvetica,sans-Serif" font-size="10.00">cNoncopyableOwnedObject</text>
</a>
</g>
</g>
<!-- Node2&#45;&gt;Node1 -->
<g id="edge1" class="edge">
<title>Node2&#45;&gt;Node1</title>
<path fill="none" stroke="midnightblue" d="M93.5,-101.8C93.5,-92.91 93.5,-82.78 93.5,-75.75"/>
<polygon fill="midnightblue" stroke="midnightblue" points="90,-102.08 93.5,-112.08 97,-102.08 90,-102.08"/>
</g>
<!-- Node3 -->
<g id="node3" class="node">
<title>Node3</title>
<g id="a_node3"><a xlink:href="classomnetpp_1_1cOwnedObject.html" target="_top" xlink:title="A cObject that keeps track of its owner. It serves as base class for many classes in the OMNeT++ libr...">
<polygon fill="white" stroke="red" points="0,-168.5 0,-187.5 87,-187.5 87,-168.5 0,-168.5"/>
<text text-anchor="middle" x="43.5" y="-175.5" font-family="Helvetica,sans-Serif" font-size="10.00">cOwnedObject</text>
</a>
</g>
</g>
<!-- Node3&#45;&gt;Node2 -->
<g id="edge2" class="edge">
<title>Node3&#45;&gt;Node2</title>
<path fill="none" stroke="midnightblue" d="M58.58,-160.72C67.39,-151.2 78.17,-139.56 85.4,-131.75"/>
<polygon fill="midnightblue" stroke="midnightblue" points="55.98,-158.37 51.76,-168.08 61.12,-163.12 55.98,-158.37"/>
</g>
<!-- Node6 -->
<g id="node4" class="node">
<title>Node6</title>
<g id="a_node4"><a xlink:href="classomnetpp_1_1noncopyable.html" target="_top" xlink:title="Utility class, to make it impossible to call the operator= and copy constructor of any class derived ...">
<polygon fill="white" stroke="black" points="105,-168.5 105,-187.5 184,-187.5 184,-168.5 105,-168.5"/>
<text text-anchor="middle" x="144.5" y="-175.5" font-family="Helvetica,sans-Serif" font-size="10.00">noncopyable</text>
</a>
</g>
</g>
<!-- Node6&#45;&gt;Node2 -->
<g id="edge3" class="edge">
<title>Node6&#45;&gt;Node2</title>
<path fill="none" stroke="#8b1a1a" d="M129.12,-160.72C120.13,-151.2 109.14,-139.56 101.76,-131.75"/>
<polygon fill="#8b1a1a" stroke="#8b1a1a" points="126.67,-163.22 136.08,-168.08 131.76,-158.41 126.67,-163.22"/>
</g>
</g>
</svg>
