<?xml version="1.0" encoding="UTF-8" standalone="no"?>
<!DOCTYPE svg PUBLIC "-//W3C//DTD SVG 1.1//EN"
 "http://www.w3.org/Graphics/SVG/1.1/DTD/svg11.dtd">
<!-- Generated by graphviz version 2.43.0 (0)
 -->
<!-- Title: cAbstractHistogram Pages: 1 -->
<svg width="346pt" height="252pt"
 viewBox="0.00 0.00 345.50 252.00" xmlns="http://www.w3.org/2000/svg" xmlns:xlink="http://www.w3.org/1999/xlink">
<g id="graph0" class="graph" transform="scale(1 1) rotate(0) translate(4 248)">
<title>cAbstractHistogram</title>
<polygon fill="white" stroke="transparent" points="-4,4 -4,-248 341.5,-248 341.5,4 -4,4"/>
<!-- Node1 -->
<g id="node1" class="node">
<title>Node1</title>
<g id="a_node1"><a xlink:title="Interface and base class for histogram&#45;like density estimation classes.">
<polygon fill="#bfbfbf" stroke="black" points="118,-112.5 118,-131.5 231,-131.5 231,-112.5 118,-112.5"/>
<text text-anchor="middle" x="174.5" y="-119.5" font-family="Helvetica,sans-Serif" font-size="10.00">cAbstractHistogram</text>
</a>
</g>
</g>
<!-- Node8 -->
<g id="node4" class="node">
<title>Node8</title>
<g id="a_node4"><a xlink:href="classomnetpp_1_1cHistogram.html" target="_top" xlink:title="Generic histogram class, capable of representing both unweighted and weighted distributions....">
<polygon fill="white" stroke="black" points="0,-56.5 0,-75.5 73,-75.5 73,-56.5 0,-56.5"/>
<text text-anchor="middle" x="36.5" y="-63.5" font-family="Helvetica,sans-Serif" font-size="10.00">cHistogram</text>
</a>
</g>
</g>
<!-- Node1&#45;&gt;Node8 -->
<g id="edge3" class="edge">
<title>Node1&#45;&gt;Node8</title>
<path fill="none" stroke="midnightblue" d="M143.25,-108.77C117.33,-98.63 81.14,-84.47 58.26,-75.52"/>
<polygon fill="midnightblue" stroke="midnightblue" points="142.05,-112.06 152.63,-112.44 144.6,-105.54 142.05,-112.06"/>
</g>
<!-- Node9 -->
<g id="node5" class="node">
<title>Node9</title>
<g id="a_node5"><a xlink:href="classomnetpp_1_1cPrecollectionBasedDensityEst.html" target="_top" xlink:title="Base class for histogram&#45;like density estimation classes.">
<polygon fill="white" stroke="black" points="91,-56.5 91,-75.5 258,-75.5 258,-56.5 91,-56.5"/>
<text text-anchor="middle" x="174.5" y="-63.5" font-family="Helvetica,sans-Serif" font-size="10.00">cPrecollectionBasedDensityEst</text>
</a>
</g>
</g>
<!-- Node1&#45;&gt;Node9 -->
<g id="edge4" class="edge">
<title>Node1&#45;&gt;Node9</title>
<path fill="none" stroke="midnightblue" d="M174.5,-101.8C174.5,-92.91 174.5,-82.78 174.5,-75.75"/>
<polygon fill="midnightblue" stroke="midnightblue" points="171,-102.08 174.5,-112.08 178,-102.08 171,-102.08"/>
</g>
<!-- Node11 -->
<g id="node7" class="node">
<title>Node11</title>
<g id="a_node7"><a xlink:href="classomnetpp_1_1cPSquare.html" target="_top" xlink:title="Implements the P2 algorithm, which calculates quantile values without storing the observations....">
<polygon fill="white" stroke="black" points="275.5,-56.5 275.5,-75.5 337.5,-75.5 337.5,-56.5 275.5,-56.5"/>
<text text-anchor="middle" x="306.5" y="-63.5" font-family="Helvetica,sans-Serif" font-size="10.00">cPSquare</text>
</a>
</g>
</g>
<!-- Node1&#45;&gt;Node11 -->
<g id="edge6" class="edge">
<title>Node1&#45;&gt;Node11</title>
<path fill="none" stroke="midnightblue" d="M204.72,-108.64C229.49,-98.5 263.9,-84.43 285.68,-75.52"/>
<polygon fill="midnightblue" stroke="midnightblue" points="203.35,-105.42 195.42,-112.44 206,-111.9 203.35,-105.42"/>
</g>
<!-- Node2 -->
<g id="node2" class="node">
<title>Node2</title>
<g id="a_node2"><a xlink:href="classomnetpp_1_1cStdDev.html" target="_top" xlink:title="Statistics class to collect min, max, mean, and standard deviation.">
<polygon fill="white" stroke="black" points="146,-168.5 146,-187.5 203,-187.5 203,-168.5 146,-168.5"/>
<text text-anchor="middle" x="174.5" y="-175.5" font-family="Helvetica,sans-Serif" font-size="10.00">cStdDev</text>
</a>
</g>
</g>
<!-- Node2&#45;&gt;Node1 -->
<g id="edge1" class="edge">
<title>Node2&#45;&gt;Node1</title>
<path fill="none" stroke="midnightblue" d="M174.5,-157.8C174.5,-148.91 174.5,-138.78 174.5,-131.75"/>
<polygon fill="midnightblue" stroke="midnightblue" points="171,-158.08 174.5,-168.08 178,-158.08 171,-158.08"/>
</g>
<!-- Node3 -->
<g id="node3" class="node">
<title>Node3</title>
<g id="a_node3"><a xlink:href="classomnetpp_1_1cStatistic.html" target="_top" xlink:title="cStatistic is an abstract class for computing statistical properties of a random variable.">
<polygon fill="white" stroke="red" points="143.5,-224.5 143.5,-243.5 205.5,-243.5 205.5,-224.5 143.5,-224.5"/>
<text text-anchor="middle" x="174.5" y="-231.5" font-family="Helvetica,sans-Serif" font-size="10.00">cStatistic</text>
</a>
</g>
</g>
<!-- Node3&#45;&gt;Node2 -->
<g id="edge2" class="edge">
<title>Node3&#45;&gt;Node2</title>
<path fill="none" stroke="midnightblue" d="M174.5,-213.8C174.5,-204.91 174.5,-194.78 174.5,-187.75"/>
<polygon fill="midnightblue" stroke="midnightblue" points="171,-214.08 174.5,-224.08 178,-214.08 171,-214.08"/>
</g>
<!-- Node10 -->
<g id="node6" class="node">
<title>Node10</title>
<g id="a_node6"><a xlink:href="classomnetpp_1_1cKSplit.html" target="_top" xlink:title="Implements k&#45;split, an adaptive histogram&#45;like density estimation algorithm. During result collection...">
<polygon fill="white" stroke="black" points="149.5,-0.5 149.5,-19.5 199.5,-19.5 199.5,-0.5 149.5,-0.5"/>
<text text-anchor="middle" x="174.5" y="-7.5" font-family="Helvetica,sans-Serif" font-size="10.00">cKSplit</text>
</a>
</g>
</g>
<!-- Node9&#45;&gt;Node10 -->
<g id="edge5" class="edge">
<title>Node9&#45;&gt;Node10</title>
<path fill="none" stroke="midnightblue" d="M174.5,-45.8C174.5,-36.91 174.5,-26.78 174.5,-19.75"/>
<polygon fill="midnightblue" stroke="midnightblue" points="171,-46.08 174.5,-56.08 178,-46.08 171,-46.08"/>
</g>
</g>
</svg>
