<?xml version="1.0" encoding="UTF-8" standalone="no"?>
<!DOCTYPE svg PUBLIC "-//W3C//DTD SVG 1.1//EN"
 "http://www.w3.org/Graphics/SVG/1.1/DTD/svg11.dtd">
<!-- Generated by graphviz version 2.43.0 (0)
 -->
<!-- Title: cResultRecorder Pages: 1 -->
<svg width="666pt" height="408pt"
 viewBox="0.00 0.00 666.00 408.00" xmlns="http://www.w3.org/2000/svg" xmlns:xlink="http://www.w3.org/1999/xlink">
<g id="graph0" class="graph" transform="scale(1 1) rotate(0) translate(4 404)">
<title>cResultRecorder</title>
<polygon fill="white" stroke="transparent" points="-4,4 -4,-404 662,-404 662,4 -4,4"/>
<!-- Node1 -->
<g id="node1" class="node">
<title>Node1</title>
<g id="a_node1"><a xlink:title="Abstract base class for result recorders.">
<polygon fill="#bfbfbf" stroke="black" points="228,-142.5 228,-161.5 324,-161.5 324,-142.5 228,-142.5"/>
<text text-anchor="middle" x="276" y="-149.5" font-family="Helvetica,sans-Serif" font-size="10.00">cResultRecorder</text>
</a>
</g>
</g>
<!-- Node5 -->
<g id="node5" class="node">
<title>Node5</title>
<g id="a_node5"><a xlink:href="classomnetpp_1_1cNumericResultRecorder.html" target="_top" xlink:title="Abstract base class for numeric result recorders.">
<polygon fill="white" stroke="black" points="360,-190.5 360,-209.5 497,-209.5 497,-190.5 360,-190.5"/>
<text text-anchor="middle" x="428.5" y="-197.5" font-family="Helvetica,sans-Serif" font-size="10.00">cNumericResultRecorder</text>
</a>
</g>
</g>
<!-- Node1&#45;&gt;Node5 -->
<g id="edge4" class="edge">
<title>Node1&#45;&gt;Node5</title>
<path fill="none" stroke="midnightblue" d="M316.76,-164.68C342.06,-172.75 374.3,-183.03 397.46,-190.42"/>
<polygon fill="midnightblue" stroke="midnightblue" points="317.68,-161.3 307.09,-161.6 315.56,-167.97 317.68,-161.3"/>
</g>
<!-- Node16 -->
<g id="node16" class="node">
<title>Node16</title>
<g id="a_node16"><a xlink:href="classomnetpp_1_1TotalCountRecorder.html" target="_top" xlink:title="Listener for recording the count of signal values, including NaN and nullptr.">
<polygon fill="white" stroke="black" points="372.5,-47.5 372.5,-66.5 484.5,-66.5 484.5,-47.5 372.5,-47.5"/>
<text text-anchor="middle" x="428.5" y="-54.5" font-family="Helvetica,sans-Serif" font-size="10.00">TotalCountRecorder</text>
</a>
</g>
</g>
<!-- Node1&#45;&gt;Node16 -->
<g id="edge15" class="edge">
<title>Node1&#45;&gt;Node16</title>
<path fill="none" stroke="midnightblue" d="M300.79,-136.98C332.02,-117.27 385.92,-83.25 412.2,-66.66"/>
<polygon fill="midnightblue" stroke="midnightblue" points="298.85,-134.07 292.26,-142.37 302.58,-139.99 298.85,-134.07"/>
</g>
<!-- Node2 -->
<g id="node2" class="node">
<title>Node2</title>
<g id="a_node2"><a xlink:href="classomnetpp_1_1cResultListener.html" target="_top" xlink:title="Common abstract base class for result filters and result recorders.">
<polygon fill="white" stroke="black" points="100,-142.5 100,-161.5 192,-161.5 192,-142.5 100,-142.5"/>
<text text-anchor="middle" x="146" y="-149.5" font-family="Helvetica,sans-Serif" font-size="10.00">cResultListener</text>
</a>
</g>
</g>
<!-- Node2&#45;&gt;Node1 -->
<g id="edge1" class="edge">
<title>Node2&#45;&gt;Node1</title>
<path fill="none" stroke="midnightblue" d="M202.3,-152C210.75,-152 219.42,-152 227.68,-152"/>
<polygon fill="midnightblue" stroke="midnightblue" points="202.13,-148.5 192.13,-152 202.13,-155.5 202.13,-148.5"/>
</g>
<!-- Node3 -->
<g id="node3" class="node">
<title>Node3</title>
<g id="a_node3"><a xlink:href="classomnetpp_1_1cObject.html" target="_top" xlink:title="cObject is a lightweight class which serves as the root of the OMNeT++ class hierarchy....">
<polygon fill="white" stroke="black" points="5.5,-161.5 5.5,-180.5 58.5,-180.5 58.5,-161.5 5.5,-161.5"/>
<text text-anchor="middle" x="32" y="-168.5" font-family="Helvetica,sans-Serif" font-size="10.00">cObject</text>
</a>
</g>
</g>
<!-- Node3&#45;&gt;Node2 -->
<g id="edge2" class="edge">
<title>Node3&#45;&gt;Node2</title>
<path fill="none" stroke="midnightblue" d="M68.57,-164.97C78.44,-163.29 89.29,-161.45 99.64,-159.69"/>
<polygon fill="midnightblue" stroke="midnightblue" points="67.97,-161.52 58.7,-166.64 69.14,-168.42 67.97,-161.52"/>
</g>
<!-- Node4 -->
<g id="node4" class="node">
<title>Node4</title>
<g id="a_node4"><a xlink:href="classomnetpp_1_1cIListener.html" target="_top" xlink:title="Interface for listeners in a simulation model.">
<polygon fill="white" stroke="black" points="0,-123.5 0,-142.5 64,-142.5 64,-123.5 0,-123.5"/>
<text text-anchor="middle" x="32" y="-130.5" font-family="Helvetica,sans-Serif" font-size="10.00">cIListener</text>
</a>
</g>
</g>
<!-- Node4&#45;&gt;Node2 -->
<g id="edge3" class="edge">
<title>Node4&#45;&gt;Node2</title>
<path fill="none" stroke="midnightblue" d="M74.09,-139.97C82.43,-141.39 91.25,-142.88 99.74,-144.32"/>
<polygon fill="midnightblue" stroke="midnightblue" points="74.64,-136.51 64.2,-138.29 73.47,-143.42 74.64,-136.51"/>
</g>
<!-- Node6 -->
<g id="node6" class="node">
<title>Node6</title>
<g id="a_node6"><a xlink:href="classomnetpp_1_1AverageRecorder.html" target="_top" xlink:title="Listener for recording the arithmetic mean of signal values. NaN values in the input are ignored.">
<polygon fill="white" stroke="black" points="545.5,-380.5 545.5,-399.5 645.5,-399.5 645.5,-380.5 545.5,-380.5"/>
<text text-anchor="middle" x="595.5" y="-387.5" font-family="Helvetica,sans-Serif" font-size="10.00">AverageRecorder</text>
</a>
</g>
</g>
<!-- Node5&#45;&gt;Node6 -->
<g id="edge5" class="edge">
<title>Node5&#45;&gt;Node6</title>
<path fill="none" stroke="midnightblue" d="M435.98,-219.46C448.79,-254.92 480.7,-330.15 533,-371 537.93,-374.85 543.65,-377.93 549.57,-380.38"/>
<polygon fill="midnightblue" stroke="midnightblue" points="439.22,-218.11 432.62,-209.82 432.61,-220.41 439.22,-218.11"/>
</g>
<!-- Node7 -->
<g id="node7" class="node">
<title>Node7</title>
<g id="a_node7"><a xlink:href="classomnetpp_1_1ErrorNanRecorder.html" target="_top" xlink:title="Recorder that raises a runtime error if it sees a NaN in the input (and never records anything).">
<polygon fill="white" stroke="black" points="544,-342.5 544,-361.5 647,-361.5 647,-342.5 544,-342.5"/>
<text text-anchor="middle" x="595.5" y="-349.5" font-family="Helvetica,sans-Serif" font-size="10.00">ErrorNanRecorder</text>
</a>
</g>
</g>
<!-- Node5&#45;&gt;Node7 -->
<g id="edge6" class="edge">
<title>Node5&#45;&gt;Node7</title>
<path fill="none" stroke="midnightblue" d="M439.1,-218.67C454.85,-247.45 488.86,-302.5 533,-333 538.61,-336.87 545.04,-339.98 551.57,-342.47"/>
<polygon fill="midnightblue" stroke="midnightblue" points="442.1,-216.85 434.31,-209.67 435.92,-220.14 442.1,-216.85"/>
</g>
<!-- Node8 -->
<g id="node8" class="node">
<title>Node8</title>
<g id="a_node8"><a xlink:href="classomnetpp_1_1LastValueRecorder.html" target="_top" xlink:title="Listener for recording the last non&#45;NaN signal value.">
<polygon fill="white" stroke="black" points="542,-304.5 542,-323.5 649,-323.5 649,-304.5 542,-304.5"/>
<text text-anchor="middle" x="595.5" y="-311.5" font-family="Helvetica,sans-Serif" font-size="10.00">LastValueRecorder</text>
</a>
</g>
</g>
<!-- Node5&#45;&gt;Node8 -->
<g id="edge7" class="edge">
<title>Node5&#45;&gt;Node8</title>
<path fill="none" stroke="midnightblue" d="M443.82,-217.17C462.34,-238.35 496.59,-274.1 533,-295 539.59,-298.78 547.02,-301.9 554.38,-304.43"/>
<polygon fill="midnightblue" stroke="midnightblue" points="446.47,-214.89 437.3,-209.58 441.16,-219.45 446.47,-214.89"/>
</g>
<!-- Node9 -->
<g id="node9" class="node">
<title>Node9</title>
<g id="a_node9"><a xlink:href="classomnetpp_1_1MaxRecorder.html" target="_top" xlink:title="Listener for recording the maximum of signal values. NaN values in the input are ignored.">
<polygon fill="white" stroke="black" points="555,-266.5 555,-285.5 636,-285.5 636,-266.5 555,-266.5"/>
<text text-anchor="middle" x="595.5" y="-273.5" font-family="Helvetica,sans-Serif" font-size="10.00">MaxRecorder</text>
</a>
</g>
</g>
<!-- Node5&#45;&gt;Node9 -->
<g id="edge8" class="edge">
<title>Node5&#45;&gt;Node9</title>
<path fill="none" stroke="midnightblue" d="M453.11,-214.82C473.65,-227.26 504.51,-244.9 533,-257 541.33,-260.54 550.55,-263.74 559.26,-266.46"/>
<polygon fill="midnightblue" stroke="midnightblue" points="454.8,-211.75 444.44,-209.5 451.14,-217.72 454.8,-211.75"/>
</g>
<!-- Node10 -->
<g id="node10" class="node">
<title>Node10</title>
<g id="a_node10"><a xlink:href="classomnetpp_1_1MeanRecorder.html" target="_top" xlink:title="Listener for recording the (time&#45;weighted or unweighted) mean of signal values. NaN values in the inp...">
<polygon fill="white" stroke="black" points="552,-228.5 552,-247.5 639,-247.5 639,-228.5 552,-228.5"/>
<text text-anchor="middle" x="595.5" y="-235.5" font-family="Helvetica,sans-Serif" font-size="10.00">MeanRecorder</text>
</a>
</g>
</g>
<!-- Node5&#45;&gt;Node10 -->
<g id="edge9" class="edge">
<title>Node5&#45;&gt;Node10</title>
<path fill="none" stroke="midnightblue" d="M481.15,-211.9C504.35,-217.24 531.34,-223.45 553.16,-228.48"/>
<polygon fill="midnightblue" stroke="midnightblue" points="481.67,-208.42 471.14,-209.59 480.1,-215.24 481.67,-208.42"/>
</g>
<!-- Node11 -->
<g id="node11" class="node">
<title>Node11</title>
<g id="a_node11"><a xlink:href="classomnetpp_1_1MinRecorder.html" target="_top" xlink:title="Listener for recording the minimum of signal values. NaN values in the input are ignored.">
<polygon fill="white" stroke="black" points="556.5,-190.5 556.5,-209.5 634.5,-209.5 634.5,-190.5 556.5,-190.5"/>
<text text-anchor="middle" x="595.5" y="-197.5" font-family="Helvetica,sans-Serif" font-size="10.00">MinRecorder</text>
</a>
</g>
</g>
<!-- Node5&#45;&gt;Node11 -->
<g id="edge10" class="edge">
<title>Node5&#45;&gt;Node11</title>
<path fill="none" stroke="midnightblue" d="M507.54,-200C524.42,-200 541.56,-200 556.1,-200"/>
<polygon fill="midnightblue" stroke="midnightblue" points="507.09,-196.5 497.09,-200 507.09,-203.5 507.09,-196.5"/>
</g>
<!-- Node12 -->
<g id="node12" class="node">
<title>Node12</title>
<g id="a_node12"><a xlink:href="classomnetpp_1_1StatisticsRecorder.html" target="_top" xlink:title="Listener for recording signal values via a cStatistic. NaN values in the input are ignored,...">
<polygon fill="white" stroke="black" points="543,-152.5 543,-171.5 648,-171.5 648,-152.5 543,-152.5"/>
<text text-anchor="middle" x="595.5" y="-159.5" font-family="Helvetica,sans-Serif" font-size="10.00">StatisticsRecorder</text>
</a>
</g>
</g>
<!-- Node5&#45;&gt;Node12 -->
<g id="edge11" class="edge">
<title>Node5&#45;&gt;Node12</title>
<path fill="none" stroke="midnightblue" d="M481.15,-188.1C504.35,-182.76 531.34,-176.55 553.16,-171.52"/>
<polygon fill="midnightblue" stroke="midnightblue" points="480.1,-184.76 471.14,-190.41 481.67,-191.58 480.1,-184.76"/>
</g>
<!-- Node13 -->
<g id="node13" class="node">
<title>Node13</title>
<g id="a_node13"><a xlink:href="classomnetpp_1_1SumRecorder.html" target="_top" xlink:title="Listener for recording the sum of signal values. NaN values in the input are ignored.">
<polygon fill="white" stroke="black" points="554.5,-114.5 554.5,-133.5 636.5,-133.5 636.5,-114.5 554.5,-114.5"/>
<text text-anchor="middle" x="595.5" y="-121.5" font-family="Helvetica,sans-Serif" font-size="10.00">SumRecorder</text>
</a>
</g>
</g>
<!-- Node5&#45;&gt;Node13 -->
<g id="edge12" class="edge">
<title>Node5&#45;&gt;Node13</title>
<path fill="none" stroke="midnightblue" d="M453.11,-185.18C473.65,-172.74 504.51,-155.1 533,-143 541.33,-139.46 550.55,-136.26 559.26,-133.54"/>
<polygon fill="midnightblue" stroke="midnightblue" points="451.14,-182.28 444.44,-190.5 454.8,-188.25 451.14,-182.28"/>
</g>
<!-- Node14 -->
<g id="node14" class="node">
<title>Node14</title>
<g id="a_node14"><a xlink:href="classomnetpp_1_1TimeAverageRecorder.html" target="_top" xlink:title="Listener for recording the time average of signal values. NaN values in the input denote intervals to...">
<polygon fill="white" stroke="black" points="533,-76.5 533,-95.5 658,-95.5 658,-76.5 533,-76.5"/>
<text text-anchor="middle" x="595.5" y="-83.5" font-family="Helvetica,sans-Serif" font-size="10.00">TimeAverageRecorder</text>
</a>
</g>
</g>
<!-- Node5&#45;&gt;Node14 -->
<g id="edge13" class="edge">
<title>Node5&#45;&gt;Node14</title>
<path fill="none" stroke="midnightblue" d="M443.82,-182.83C462.34,-161.65 496.59,-125.9 533,-105 539.59,-101.22 547.02,-98.1 554.38,-95.57"/>
<polygon fill="midnightblue" stroke="midnightblue" points="441.16,-180.55 437.3,-190.42 446.47,-185.11 441.16,-180.55"/>
</g>
<!-- Node15 -->
<g id="node15" class="node">
<title>Node15</title>
<g id="a_node15"><a xlink:href="classomnetpp_1_1VectorRecorder.html" target="_top" xlink:title="Listener for recording a signal to an output vector.">
<polygon fill="white" stroke="black" points="550,-38.5 550,-57.5 641,-57.5 641,-38.5 550,-38.5"/>
<text text-anchor="middle" x="595.5" y="-45.5" font-family="Helvetica,sans-Serif" font-size="10.00">VectorRecorder</text>
</a>
</g>
</g>
<!-- Node5&#45;&gt;Node15 -->
<g id="edge14" class="edge">
<title>Node5&#45;&gt;Node15</title>
<path fill="none" stroke="midnightblue" d="M439.1,-181.33C454.85,-152.55 488.86,-97.5 533,-67 538.61,-63.13 545.04,-60.02 551.57,-57.53"/>
<polygon fill="midnightblue" stroke="midnightblue" points="435.92,-179.86 434.31,-190.33 442.1,-183.15 435.92,-179.86"/>
</g>
<!-- Node17 -->
<g id="node17" class="node">
<title>Node17</title>
<g id="a_node17"><a xlink:href="classomnetpp_1_1CountRecorder.html" target="_top" xlink:title="Listener for recording the count of signal values. Signal values do not need to be numeric to be coun...">
<polygon fill="white" stroke="black" points="551,-0.5 551,-19.5 640,-19.5 640,-0.5 551,-0.5"/>
<text text-anchor="middle" x="595.5" y="-7.5" font-family="Helvetica,sans-Serif" font-size="10.00">CountRecorder</text>
</a>
</g>
</g>
<!-- Node16&#45;&gt;Node17 -->
<g id="edge16" class="edge">
<title>Node16&#45;&gt;Node17</title>
<path fill="none" stroke="midnightblue" d="M472.66,-44.71C500.21,-36.86 535.41,-26.83 560.88,-19.58"/>
<polygon fill="midnightblue" stroke="midnightblue" points="471.55,-41.38 462.89,-47.49 473.47,-48.12 471.55,-41.38"/>
</g>
</g>
</svg>
