<?xml version="1.0" encoding="UTF-8" standalone="no"?>
<!DOCTYPE svg PUBLIC "-//W3C//DTD SVG 1.1//EN"
 "http://www.w3.org/Graphics/SVG/1.1/DTD/svg11.dtd">
<!-- Generated by graphviz version 2.43.0 (0)
 -->
<!-- Title: cNamedObject Pages: 1 -->
<svg width="508pt" height="826pt"
 viewBox="0.00 0.00 508.00 826.00" xmlns="http://www.w3.org/2000/svg" xmlns:xlink="http://www.w3.org/1999/xlink">
<g id="graph0" class="graph" transform="scale(1 1) rotate(0) translate(4 822)">
<title>cNamedObject</title>
<polygon fill="white" stroke="transparent" points="-4,4 -4,-822 504,-822 504,4 -4,4"/>
<!-- Node1 -->
<g id="node1" class="node">
<title>Node1</title>
<g id="a_node1"><a xlink:title="Extends cObject with a name string. Also includes a &quot;flags&quot; member, with bits open for use by subclas...">
<polygon fill="#bfbfbf" stroke="black" points="89,-304.5 89,-323.5 178,-323.5 178,-304.5 89,-304.5"/>
<text text-anchor="middle" x="133.5" y="-311.5" font-family="Helvetica,sans-Serif" font-size="10.00">cNamedObject</text>
</a>
</g>
</g>
<!-- Node3 -->
<g id="node3" class="node">
<title>Node3</title>
<g id="a_node3"><a xlink:href="classomnetpp_1_1cOwnedObject.html" target="_top" xlink:title="A cObject that keeps track of its owner. It serves as base class for many classes in the OMNeT++ libr...">
<polygon fill="white" stroke="black" points="219.5,-494.5 219.5,-513.5 306.5,-513.5 306.5,-494.5 219.5,-494.5"/>
<text text-anchor="middle" x="263" y="-501.5" font-family="Helvetica,sans-Serif" font-size="10.00">cOwnedObject</text>
</a>
</g>
</g>
<!-- Node1&#45;&gt;Node3 -->
<g id="edge2" class="edge">
<title>Node1&#45;&gt;Node3</title>
<path fill="none" stroke="midnightblue" d="M146.62,-332.06C173.02,-371.4 234.97,-463.72 255.36,-494.11"/>
<polygon fill="midnightblue" stroke="midnightblue" points="149.48,-330.04 141,-323.68 143.66,-333.94 149.48,-330.04"/>
</g>
<!-- Node105 -->
<g id="node20" class="node">
<title>Node105</title>
<g id="a_node20"><a xlink:href="classomnetpp_1_1cProperty.html" target="_top" xlink:title="Stores a (NED) property with its (possibly compound) value.">
<polygon fill="white" stroke="black" points="231.5,-342.5 231.5,-361.5 294.5,-361.5 294.5,-342.5 231.5,-342.5"/>
<text text-anchor="middle" x="263" y="-349.5" font-family="Helvetica,sans-Serif" font-size="10.00">cProperty</text>
</a>
</g>
</g>
<!-- Node1&#45;&gt;Node105 -->
<g id="edge19" class="edge">
<title>Node1&#45;&gt;Node105</title>
<path fill="none" stroke="midnightblue" d="M176.3,-326.46C194.18,-331.79 214.69,-337.9 231.16,-342.81"/>
<polygon fill="midnightblue" stroke="midnightblue" points="177.26,-323.09 166.67,-323.59 175.26,-329.8 177.26,-323.09"/>
</g>
<!-- Node106 -->
<g id="node21" class="node">
<title>Node106</title>
<g id="a_node21"><a xlink:href="classomnetpp_1_1cRegistrationList.html" target="_top" xlink:title="Implements a list or table of objects with qualified names.">
<polygon fill="white" stroke="black" points="214,-304.5 214,-323.5 312,-323.5 312,-304.5 214,-304.5"/>
<text text-anchor="middle" x="263" y="-311.5" font-family="Helvetica,sans-Serif" font-size="10.00">cRegistrationList</text>
</a>
</g>
</g>
<!-- Node1&#45;&gt;Node106 -->
<g id="edge20" class="edge">
<title>Node1&#45;&gt;Node106</title>
<path fill="none" stroke="midnightblue" d="M188.24,-314C196.74,-314 205.5,-314 213.87,-314"/>
<polygon fill="midnightblue" stroke="midnightblue" points="188.02,-310.5 178.02,-314 188.02,-317.5 188.02,-310.5"/>
</g>
<!-- Node107 -->
<g id="node22" class="node">
<title>Node107</title>
<g id="a_node22"><a xlink:href="classomnetpp_1_1cSimulation.html" target="_top" xlink:title="Simulation manager class.">
<polygon fill="white" stroke="black" points="226,-266.5 226,-285.5 300,-285.5 300,-266.5 226,-266.5"/>
<text text-anchor="middle" x="263" y="-273.5" font-family="Helvetica,sans-Serif" font-size="10.00">cSimulation</text>
</a>
</g>
</g>
<!-- Node1&#45;&gt;Node107 -->
<g id="edge21" class="edge">
<title>Node1&#45;&gt;Node107</title>
<path fill="none" stroke="midnightblue" d="M176.56,-301.46C193.9,-296.3 213.68,-290.4 229.84,-285.59"/>
<polygon fill="midnightblue" stroke="midnightblue" points="175.26,-298.2 166.67,-304.41 177.26,-304.91 175.26,-298.2"/>
</g>
<!-- Node108 -->
<g id="node23" class="node">
<title>Node108</title>
<g id="a_node23"><a xlink:href="classomnetpp_1_1internal_1_1cParImpl.html" target="_top" xlink:title="Internal class that stores values for cPar objects.">
<polygon fill="white" stroke="black" points="233.5,-114.5 233.5,-133.5 292.5,-133.5 292.5,-114.5 233.5,-114.5"/>
<text text-anchor="middle" x="263" y="-121.5" font-family="Helvetica,sans-Serif" font-size="10.00">cParImpl</text>
</a>
</g>
</g>
<!-- Node1&#45;&gt;Node108 -->
<g id="edge22" class="edge">
<title>Node1&#45;&gt;Node108</title>
<path fill="none" stroke="midnightblue" d="M146.62,-295.94C173.02,-256.6 234.97,-164.28 255.36,-133.89"/>
<polygon fill="midnightblue" stroke="midnightblue" points="143.66,-294.06 141,-304.32 149.48,-297.96 143.66,-294.06"/>
</g>
<!-- Node2 -->
<g id="node2" class="node">
<title>Node2</title>
<g id="a_node2"><a xlink:href="classomnetpp_1_1cObject.html" target="_top" xlink:title="cObject is a lightweight class which serves as the root of the OMNeT++ class hierarchy....">
<polygon fill="white" stroke="black" points="0,-304.5 0,-323.5 53,-323.5 53,-304.5 0,-304.5"/>
<text text-anchor="middle" x="26.5" y="-311.5" font-family="Helvetica,sans-Serif" font-size="10.00">cObject</text>
</a>
</g>
</g>
<!-- Node2&#45;&gt;Node1 -->
<g id="edge1" class="edge">
<title>Node2&#45;&gt;Node1</title>
<path fill="none" stroke="midnightblue" d="M63.44,-314C71.56,-314 80.26,-314 88.66,-314"/>
<polygon fill="midnightblue" stroke="midnightblue" points="63.19,-310.5 53.19,-314 63.19,-317.5 63.19,-310.5"/>
</g>
<!-- Node4 -->
<g id="node4" class="node">
<title>Node4</title>
<g id="a_node4"><a xlink:href="classomnetpp_1_1cArray.html" target="_top" xlink:title="Vector&#45;like container for objects derived from cObject.">
<polygon fill="white" stroke="black" points="400,-798.5 400,-817.5 448,-817.5 448,-798.5 400,-798.5"/>
<text text-anchor="middle" x="424" y="-805.5" font-family="Helvetica,sans-Serif" font-size="10.00">cArray</text>
</a>
</g>
</g>
<!-- Node3&#45;&gt;Node4 -->
<g id="edge3" class="edge">
<title>Node3&#45;&gt;Node4</title>
<path fill="none" stroke="midnightblue" d="M263.6,-523.64C263.67,-575.15 271.28,-715.18 348,-789 361.74,-802.22 383.32,-806.62 399.8,-807.92"/>
<polygon fill="midnightblue" stroke="midnightblue" points="267.1,-523.57 263.68,-513.54 260.1,-523.51 267.1,-523.57"/>
</g>
<!-- Node5 -->
<g id="node5" class="node">
<title>Node5</title>
<g id="a_node5"><a xlink:href="classomnetpp_1_1cCanvas.html" target="_top" xlink:title="Provides a scene graph based 2D drawing API for modules.">
<polygon fill="white" stroke="black" points="395,-760.5 395,-779.5 453,-779.5 453,-760.5 395,-760.5"/>
<text text-anchor="middle" x="424" y="-767.5" font-family="Helvetica,sans-Serif" font-size="10.00">cCanvas</text>
</a>
</g>
</g>
<!-- Node3&#45;&gt;Node5 -->
<g id="edge4" class="edge">
<title>Node3&#45;&gt;Node5</title>
<path fill="none" stroke="midnightblue" d="M264.65,-523.8C267.29,-570.62 280.66,-688.82 348,-751 360.63,-762.66 379.38,-767.41 394.97,-769.25"/>
<polygon fill="midnightblue" stroke="midnightblue" points="268.13,-523.35 264.18,-513.52 261.14,-523.67 268.13,-523.35"/>
</g>
<!-- Node6 -->
<g id="node6" class="node">
<title>Node6</title>
<g id="a_node6"><a xlink:href="classomnetpp_1_1cEnum.html" target="_top" xlink:title="Provides string representation for enums.">
<polygon fill="white" stroke="black" points="399,-722.5 399,-741.5 449,-741.5 449,-722.5 399,-722.5"/>
<text text-anchor="middle" x="424" y="-729.5" font-family="Helvetica,sans-Serif" font-size="10.00">cEnum</text>
</a>
</g>
</g>
<!-- Node3&#45;&gt;Node6 -->
<g id="edge5" class="edge">
<title>Node3&#45;&gt;Node6</title>
<path fill="none" stroke="midnightblue" d="M266.05,-523.83C271.44,-565.43 289.87,-662.18 348,-713 361.96,-725.2 382.66,-729.77 398.78,-731.39"/>
<polygon fill="midnightblue" stroke="midnightblue" points="269.5,-523.16 264.85,-513.64 262.54,-523.98 269.5,-523.16"/>
</g>
<!-- Node7 -->
<g id="node7" class="node">
<title>Node7</title>
<g id="a_node7"><a xlink:href="classomnetpp_1_1cEvent.html" target="_top" xlink:title="Represents an event in the discrete event simulator.">
<polygon fill="white" stroke="red" points="399,-684.5 399,-703.5 449,-703.5 449,-684.5 399,-684.5"/>
<text text-anchor="middle" x="424" y="-691.5" font-family="Helvetica,sans-Serif" font-size="10.00">cEvent</text>
</a>
</g>
</g>
<!-- Node3&#45;&gt;Node7 -->
<g id="edge6" class="edge">
<title>Node3&#45;&gt;Node7</title>
<path fill="none" stroke="midnightblue" d="M267.97,-523.61C276.25,-559.38 298.85,-635.16 348,-675 362.3,-686.59 382.77,-691.21 398.72,-693.01"/>
<polygon fill="midnightblue" stroke="midnightblue" points="271.31,-522.53 265.76,-513.5 264.47,-524.02 271.31,-522.53"/>
</g>
<!-- Node10 -->
<g id="node8" class="node">
<title>Node10</title>
<g id="a_node8"><a xlink:href="classomnetpp_1_1cFigure.html" target="_top" xlink:title="A lightweight graphical object for cCanvas.">
<polygon fill="white" stroke="red" points="398,-646.5 398,-665.5 450,-665.5 450,-646.5 398,-646.5"/>
<text text-anchor="middle" x="424" y="-653.5" font-family="Helvetica,sans-Serif" font-size="10.00">cFigure</text>
</a>
</g>
</g>
<!-- Node3&#45;&gt;Node10 -->
<g id="edge7" class="edge">
<title>Node3&#45;&gt;Node10</title>
<path fill="none" stroke="midnightblue" d="M270.81,-523.32C282.13,-552.55 307.65,-607.71 348,-637 362.46,-647.49 382.14,-652.21 397.71,-654.32"/>
<polygon fill="midnightblue" stroke="midnightblue" points="274.04,-521.97 267.28,-513.82 267.48,-524.41 274.04,-521.97"/>
</g>
<!-- Node31 -->
<g id="node9" class="node">
<title>Node31</title>
<g id="a_node9"><a xlink:href="classomnetpp_1_1cFSM.html" target="_top" xlink:title="Store the state of an FSM. This class is used in conjunction with the FSM_Switch() and other FSM_ mac...">
<polygon fill="white" stroke="black" points="403,-608.5 403,-627.5 445,-627.5 445,-608.5 403,-608.5"/>
<text text-anchor="middle" x="424" y="-615.5" font-family="Helvetica,sans-Serif" font-size="10.00">cFSM</text>
</a>
</g>
</g>
<!-- Node3&#45;&gt;Node31 -->
<g id="edge8" class="edge">
<title>Node3&#45;&gt;Node31</title>
<path fill="none" stroke="midnightblue" d="M275.07,-522.08C289.26,-543.71 315.9,-579.43 348,-599 364.86,-609.28 387.09,-614.02 402.96,-616.19"/>
<polygon fill="midnightblue" stroke="midnightblue" points="277.93,-520.07 269.61,-513.51 272.02,-523.82 277.93,-520.07"/>
</g>
<!-- Node32 -->
<g id="node10" class="node">
<title>Node32</title>
<g id="a_node10"><a xlink:href="classomnetpp_1_1cFutureEventSet.html" target="_top" xlink:title="Abstract base class for the future event set (FES), a central data structure for discrete event simul...">
<polygon fill="white" stroke="red" points="376,-570.5 376,-589.5 472,-589.5 472,-570.5 376,-570.5"/>
<text text-anchor="middle" x="424" y="-577.5" font-family="Helvetica,sans-Serif" font-size="10.00">cFutureEventSet</text>
</a>
</g>
</g>
<!-- Node3&#45;&gt;Node32 -->
<g id="edge9" class="edge">
<title>Node3&#45;&gt;Node32</title>
<path fill="none" stroke="midnightblue" d="M283.65,-520.26C299.96,-533.01 324.26,-550.34 348,-561 356.7,-564.91 366.34,-568.11 375.74,-570.7"/>
<polygon fill="midnightblue" stroke="midnightblue" points="285.45,-517.22 275.46,-513.71 281.08,-522.69 285.45,-517.22"/>
</g>
<!-- Node34 -->
<g id="node11" class="node">
<title>Node34</title>
<g id="a_node11"><a xlink:href="classomnetpp_1_1cMsgPar.html" target="_top" xlink:title="Allows a value (string, bool, double, etc) to be attached to a cMessage object.">
<polygon fill="white" stroke="black" points="395.5,-532.5 395.5,-551.5 452.5,-551.5 452.5,-532.5 395.5,-532.5"/>
<text text-anchor="middle" x="424" y="-539.5" font-family="Helvetica,sans-Serif" font-size="10.00">cMsgPar</text>
</a>
</g>
</g>
<!-- Node3&#45;&gt;Node34 -->
<g id="edge10" class="edge">
<title>Node3&#45;&gt;Node34</title>
<path fill="none" stroke="midnightblue" d="M314.13,-515.98C340.99,-522.4 373.06,-530.06 395.41,-535.41"/>
<polygon fill="midnightblue" stroke="midnightblue" points="314.66,-512.51 304.12,-513.59 313.03,-519.32 314.66,-512.51"/>
</g>
<!-- Node35 -->
<g id="node12" class="node">
<title>Node35</title>
<g id="a_node12"><a xlink:href="classomnetpp_1_1cNoncopyableOwnedObject.html" target="_top" xlink:title="Base class for cOwnedObject&#45;based classes that do not wish to support assignment and duplication.">
<polygon fill="white" stroke="red" points="348.5,-494.5 348.5,-513.5 499.5,-513.5 499.5,-494.5 348.5,-494.5"/>
<text text-anchor="middle" x="424" y="-501.5" font-family="Helvetica,sans-Serif" font-size="10.00">cNoncopyableOwnedObject</text>
</a>
</g>
</g>
<!-- Node3&#45;&gt;Node35 -->
<g id="edge11" class="edge">
<title>Node3&#45;&gt;Node35</title>
<path fill="none" stroke="midnightblue" d="M316.87,-504C326.97,-504 337.72,-504 348.35,-504"/>
<polygon fill="midnightblue" stroke="midnightblue" points="316.61,-500.5 306.61,-504 316.61,-507.5 316.61,-500.5"/>
</g>
<!-- Node67 -->
<g id="node13" class="node">
<title>Node67</title>
<g id="a_node13"><a xlink:href="classomnetpp_1_1cOsgCanvas.html" target="_top" xlink:title="Wraps an OpenSceneGraph scene, allowing 3D visualization in graphical user interfaces that support it...">
<polygon fill="white" stroke="black" points="385.5,-456.5 385.5,-475.5 462.5,-475.5 462.5,-456.5 385.5,-456.5"/>
<text text-anchor="middle" x="424" y="-463.5" font-family="Helvetica,sans-Serif" font-size="10.00">cOsgCanvas</text>
</a>
</g>
</g>
<!-- Node3&#45;&gt;Node67 -->
<g id="edge12" class="edge">
<title>Node3&#45;&gt;Node67</title>
<path fill="none" stroke="midnightblue" d="M314.08,-492.03C337.14,-486.52 364.05,-480.09 385.35,-475"/>
<polygon fill="midnightblue" stroke="midnightblue" points="313.03,-488.68 304.12,-494.41 314.66,-495.49 313.03,-488.68"/>
</g>
<!-- Node68 -->
<g id="node14" class="node">
<title>Node68</title>
<g id="a_node14"><a xlink:href="classomnetpp_1_1cOwnedDynamicExpression.html" target="_top" xlink:title="An &quot;owned&quot; version cDynamicExpression to allow it to be assigned to module parameters of the type &quot;ob...">
<polygon fill="white" stroke="black" points="348,-418.5 348,-437.5 500,-437.5 500,-418.5 348,-418.5"/>
<text text-anchor="middle" x="424" y="-425.5" font-family="Helvetica,sans-Serif" font-size="10.00">cOwnedDynamicExpression</text>
</a>
</g>
</g>
<!-- Node3&#45;&gt;Node68 -->
<g id="edge13" class="edge">
<title>Node3&#45;&gt;Node68</title>
<path fill="none" stroke="midnightblue" d="M283.65,-487.74C299.96,-474.99 324.26,-457.66 348,-447 356.45,-443.2 365.8,-440.07 374.94,-437.52"/>
<polygon fill="midnightblue" stroke="midnightblue" points="281.08,-485.31 275.46,-494.29 285.45,-490.78 281.08,-485.31"/>
</g>
<!-- Node69 -->
<g id="node15" class="node">
<title>Node69</title>
<g id="a_node15"><a xlink:href="classomnetpp_1_1cQueue.html" target="_top" xlink:title="Queue class for objects derived from cObject.">
<polygon fill="white" stroke="red" points="397.5,-380.5 397.5,-399.5 450.5,-399.5 450.5,-380.5 397.5,-380.5"/>
<text text-anchor="middle" x="424" y="-387.5" font-family="Helvetica,sans-Serif" font-size="10.00">cQueue</text>
</a>
</g>
</g>
<!-- Node3&#45;&gt;Node69 -->
<g id="edge14" class="edge">
<title>Node3&#45;&gt;Node69</title>
<path fill="none" stroke="midnightblue" d="M275.07,-485.92C289.26,-464.29 315.9,-428.57 348,-409 362.91,-399.91 382.02,-395.15 397.21,-392.67"/>
<polygon fill="midnightblue" stroke="midnightblue" points="272.02,-484.18 269.61,-494.49 277.93,-487.93 272.02,-484.18"/>
</g>
<!-- Node71 -->
<g id="node16" class="node">
<title>Node71</title>
<g id="a_node16"><a xlink:href="classomnetpp_1_1cRandom.html" target="_top" xlink:title="Abstract interface for random variate generator classes.">
<polygon fill="white" stroke="red" points="393,-342.5 393,-361.5 455,-361.5 455,-342.5 393,-342.5"/>
<text text-anchor="middle" x="424" y="-349.5" font-family="Helvetica,sans-Serif" font-size="10.00">cRandom</text>
</a>
</g>
</g>
<!-- Node3&#45;&gt;Node71 -->
<g id="edge15" class="edge">
<title>Node3&#45;&gt;Node71</title>
<path fill="none" stroke="midnightblue" d="M270.81,-484.68C282.13,-455.45 307.65,-400.29 348,-371 360.94,-361.61 378.05,-356.85 392.67,-354.43"/>
<polygon fill="midnightblue" stroke="midnightblue" points="267.48,-483.59 267.28,-494.18 274.04,-486.03 267.48,-483.59"/>
</g>
<!-- Node99 -->
<g id="node17" class="node">
<title>Node99</title>
<g id="a_node17"><a xlink:href="classomnetpp_1_1cTopology.html" target="_top" xlink:title="Routing support. The cTopology class was designed primarily to support routing in telecommunication o...">
<polygon fill="white" stroke="black" points="391.5,-304.5 391.5,-323.5 456.5,-323.5 456.5,-304.5 391.5,-304.5"/>
<text text-anchor="middle" x="424" y="-311.5" font-family="Helvetica,sans-Serif" font-size="10.00">cTopology</text>
</a>
</g>
</g>
<!-- Node3&#45;&gt;Node99 -->
<g id="edge16" class="edge">
<title>Node3&#45;&gt;Node99</title>
<path fill="none" stroke="midnightblue" d="M267.97,-484.39C276.25,-448.62 298.85,-372.84 348,-333 360.21,-323.1 376.92,-318.28 391.48,-315.97"/>
<polygon fill="midnightblue" stroke="midnightblue" points="264.47,-483.98 265.76,-494.5 271.31,-485.47 264.47,-483.98"/>
</g>
<!-- Node100 -->
<g id="node18" class="node">
<title>Node100</title>
<g id="a_node18"><a xlink:href="classomnetpp_1_1cValueContainer.html" target="_top" xlink:title="Common base class for cValue&#45;based containers.">
<polygon fill="white" stroke="red" points="376,-266.5 376,-285.5 472,-285.5 472,-266.5 376,-266.5"/>
<text text-anchor="middle" x="424" y="-273.5" font-family="Helvetica,sans-Serif" font-size="10.00">cValueContainer</text>
</a>
</g>
</g>
<!-- Node3&#45;&gt;Node100 -->
<g id="edge17" class="edge">
<title>Node3&#45;&gt;Node100</title>
<path fill="none" stroke="midnightblue" d="M270.64,-484.66C287.72,-435.42 332.84,-308.25 348,-295 355.79,-288.19 365.67,-283.76 375.69,-280.89"/>
<polygon fill="midnightblue" stroke="midnightblue" points="267.23,-483.82 267.28,-494.41 273.85,-486.1 267.23,-483.82"/>
</g>
<!-- Node104 -->
<g id="node19" class="node">
<title>Node104</title>
<g id="a_node19"><a xlink:href="classomnetpp_1_1cXMLElement.html" target="_top" xlink:title="Represents an XML element in an XML configuration file.">
<polygon fill="white" stroke="black" points="382.5,-228.5 382.5,-247.5 465.5,-247.5 465.5,-228.5 382.5,-228.5"/>
<text text-anchor="middle" x="424" y="-235.5" font-family="Helvetica,sans-Serif" font-size="10.00">cXMLElement</text>
</a>
</g>
</g>
<!-- Node3&#45;&gt;Node104 -->
<g id="edge18" class="edge">
<title>Node3&#45;&gt;Node104</title>
<path fill="none" stroke="midnightblue" d="M271.24,-484.7C280.86,-458.9 298.24,-411.69 312,-371 329.02,-320.67 309.36,-293.47 348,-257 357.28,-248.24 370,-243.37 382.33,-240.7"/>
<polygon fill="midnightblue" stroke="midnightblue" points="267.85,-483.78 267.63,-494.37 274.41,-486.23 267.85,-483.78"/>
</g>
<!-- Node109 -->
<g id="node24" class="node">
<title>Node109</title>
<g id="a_node24"><a xlink:href="classomnetpp_1_1internal_1_1cBoolParImpl.html" target="_top" xlink:title="A cParImpl subclass that stores a module/channel parameter of the type bool.">
<polygon fill="white" stroke="black" points="384,-190.5 384,-209.5 464,-209.5 464,-190.5 384,-190.5"/>
<text text-anchor="middle" x="424" y="-197.5" font-family="Helvetica,sans-Serif" font-size="10.00">cBoolParImpl</text>
</a>
</g>
</g>
<!-- Node108&#45;&gt;Node109 -->
<g id="edge23" class="edge">
<title>Node108&#45;&gt;Node109</title>
<path fill="none" stroke="midnightblue" d="M283.65,-140.26C299.96,-153.01 324.26,-170.34 348,-181 359.27,-186.06 372.13,-189.94 383.98,-192.83"/>
<polygon fill="midnightblue" stroke="midnightblue" points="285.45,-137.22 275.46,-133.71 281.08,-142.69 285.45,-137.22"/>
</g>
<!-- Node110 -->
<g id="node25" class="node">
<title>Node110</title>
<g id="a_node25"><a xlink:href="classomnetpp_1_1internal_1_1cDoubleParImpl.html" target="_top" xlink:title="A cParImpl subclass that stores a module/channel parameter of the type double.">
<polygon fill="white" stroke="black" points="377.5,-152.5 377.5,-171.5 470.5,-171.5 470.5,-152.5 377.5,-152.5"/>
<text text-anchor="middle" x="424" y="-159.5" font-family="Helvetica,sans-Serif" font-size="10.00">cDoubleParImpl</text>
</a>
</g>
</g>
<!-- Node108&#45;&gt;Node110 -->
<g id="edge24" class="edge">
<title>Node108&#45;&gt;Node110</title>
<path fill="none" stroke="midnightblue" d="M302.77,-133.26C327.13,-139.09 358.48,-146.58 383.06,-152.45"/>
<polygon fill="midnightblue" stroke="midnightblue" points="303.33,-129.8 292.79,-130.88 301.71,-136.61 303.33,-129.8"/>
</g>
<!-- Node111 -->
<g id="node26" class="node">
<title>Node111</title>
<g id="a_node26"><a xlink:href="classomnetpp_1_1internal_1_1cIntParImpl.html" target="_top" xlink:title="A cParImpl subclass that stores an integer module/channel parameter.">
<polygon fill="white" stroke="black" points="388.5,-114.5 388.5,-133.5 459.5,-133.5 459.5,-114.5 388.5,-114.5"/>
<text text-anchor="middle" x="424" y="-121.5" font-family="Helvetica,sans-Serif" font-size="10.00">cIntParImpl</text>
</a>
</g>
</g>
<!-- Node108&#45;&gt;Node111 -->
<g id="edge25" class="edge">
<title>Node108&#45;&gt;Node111</title>
<path fill="none" stroke="midnightblue" d="M303.09,-124C329.18,-124 363.19,-124 388.32,-124"/>
<polygon fill="midnightblue" stroke="midnightblue" points="302.79,-120.5 292.79,-124 302.79,-127.5 302.79,-120.5"/>
</g>
<!-- Node112 -->
<g id="node27" class="node">
<title>Node112</title>
<g id="a_node27"><a xlink:href="classomnetpp_1_1internal_1_1cObjectParImpl.html" target="_top" xlink:title="A cParImpl subclass that stores a module/channel parameter of type &quot;object&quot;.">
<polygon fill="white" stroke="black" points="379,-76.5 379,-95.5 469,-95.5 469,-76.5 379,-76.5"/>
<text text-anchor="middle" x="424" y="-83.5" font-family="Helvetica,sans-Serif" font-size="10.00">cObjectParImpl</text>
</a>
</g>
</g>
<!-- Node108&#45;&gt;Node112 -->
<g id="edge26" class="edge">
<title>Node108&#45;&gt;Node112</title>
<path fill="none" stroke="midnightblue" d="M302.77,-114.74C327.13,-108.91 358.48,-101.42 383.06,-95.55"/>
<polygon fill="midnightblue" stroke="midnightblue" points="301.71,-111.39 292.79,-117.12 303.33,-118.2 301.71,-111.39"/>
</g>
<!-- Node113 -->
<g id="node28" class="node">
<title>Node113</title>
<g id="a_node28"><a xlink:href="classomnetpp_1_1internal_1_1cStringParImpl.html" target="_top" xlink:title="A cParImpl subclass that stores a module/channel parameter of the type string.">
<polygon fill="white" stroke="black" points="380.5,-38.5 380.5,-57.5 467.5,-57.5 467.5,-38.5 380.5,-38.5"/>
<text text-anchor="middle" x="424" y="-45.5" font-family="Helvetica,sans-Serif" font-size="10.00">cStringParImpl</text>
</a>
</g>
</g>
<!-- Node108&#45;&gt;Node113 -->
<g id="edge27" class="edge">
<title>Node108&#45;&gt;Node113</title>
<path fill="none" stroke="midnightblue" d="M283.65,-107.74C299.96,-94.99 324.26,-77.66 348,-67 358.17,-62.43 369.63,-58.83 380.47,-56.05"/>
<polygon fill="midnightblue" stroke="midnightblue" points="281.08,-105.31 275.46,-114.29 285.45,-110.78 281.08,-105.31"/>
</g>
<!-- Node114 -->
<g id="node29" class="node">
<title>Node114</title>
<g id="a_node29"><a xlink:href="classomnetpp_1_1internal_1_1cXMLParImpl.html" target="_top" xlink:title="A cParImpl subclass that stores a module/channel parameter of type XML.">
<polygon fill="white" stroke="black" points="384,-0.5 384,-19.5 464,-19.5 464,-0.5 384,-0.5"/>
<text text-anchor="middle" x="424" y="-7.5" font-family="Helvetica,sans-Serif" font-size="10.00">cXMLParImpl</text>
</a>
</g>
</g>
<!-- Node108&#45;&gt;Node114 -->
<g id="edge28" class="edge">
<title>Node108&#45;&gt;Node114</title>
<path fill="none" stroke="midnightblue" d="M275.07,-105.92C289.26,-84.29 315.9,-48.57 348,-29 358.78,-22.43 371.76,-18.12 383.86,-15.3"/>
<polygon fill="midnightblue" stroke="midnightblue" points="272.02,-104.18 269.61,-114.49 277.93,-107.93 272.02,-104.18"/>
</g>
</g>
</svg>
