<?xml version="1.0" encoding="UTF-8" standalone="no"?>
<!DOCTYPE svg PUBLIC "-//W3C//DTD SVG 1.1//EN"
 "http://www.w3.org/Graphics/SVG/1.1/DTD/svg11.dtd">
<!-- Generated by graphviz version 2.43.0 (0)
 -->
<!-- Title: cEnvir Pages: 1 -->
<svg width="184pt" height="84pt"
 viewBox="0.00 0.00 184.00 84.00" xmlns="http://www.w3.org/2000/svg" xmlns:xlink="http://www.w3.org/1999/xlink">
<g id="graph0" class="graph" transform="scale(1 1) rotate(0) translate(4 80)">
<title>cEnvir</title>
<polygon fill="white" stroke="transparent" points="-4,4 -4,-80 180,-80 180,4 -4,4"/>
<!-- Node1 -->
<g id="node1" class="node">
<title>Node1</title>
<g id="a_node1"><a xlink:title="cEnvir represents the &quot;environment&quot; or user interface of the simulation.">
<polygon fill="#bfbfbf" stroke="black" points="57.5,-56.5 57.5,-75.5 104.5,-75.5 104.5,-56.5 57.5,-56.5"/>
<text text-anchor="middle" x="81" y="-63.5" font-family="Helvetica,sans-Serif" font-size="10.00">cEnvir</text>
</a>
</g>
</g>
<!-- Node2 -->
<g id="node2" class="node">
<title>Node2</title>
<g id="a_node2"><a xlink:href="classomnetpp_1_1cNullEnvir.html" target="_top" xlink:title="A do&#45;nothing cEnvir implementation.">
<polygon fill="white" stroke="black" points="0,-0.5 0,-19.5 66,-19.5 66,-0.5 0,-0.5"/>
<text text-anchor="middle" x="33" y="-7.5" font-family="Helvetica,sans-Serif" font-size="10.00">cNullEnvir</text>
</a>
</g>
</g>
<!-- Node1&#45;&gt;Node2 -->
<g id="edge1" class="edge">
<title>Node1&#45;&gt;Node2</title>
<path fill="none" stroke="midnightblue" d="M66.27,-48.43C57.86,-38.97 47.65,-27.48 40.78,-19.75"/>
<polygon fill="midnightblue" stroke="midnightblue" points="63.81,-50.93 73.07,-56.08 69.05,-46.28 63.81,-50.93"/>
</g>
<!-- Node3 -->
<g id="node3" class="node">
<title>Node3</title>
<g id="a_node3"><a xlink:href="classomnetpp_1_1cRunnableEnvir.html" target="_top" xlink:title="A cEnvir that can be instantiated as a user interface, like Cmdenv and Tkenv.">
<polygon fill="white" stroke="black" points="84,-0.5 84,-19.5 176,-19.5 176,-0.5 84,-0.5"/>
<text text-anchor="middle" x="130" y="-7.5" font-family="Helvetica,sans-Serif" font-size="10.00">cRunnableEnvir</text>
</a>
</g>
</g>
<!-- Node1&#45;&gt;Node3 -->
<g id="edge2" class="edge">
<title>Node1&#45;&gt;Node3</title>
<path fill="none" stroke="midnightblue" d="M96.03,-48.43C104.62,-38.97 115.04,-27.48 122.06,-19.75"/>
<polygon fill="midnightblue" stroke="midnightblue" points="93.22,-46.33 89.09,-56.08 98.4,-51.03 93.22,-46.33"/>
</g>
</g>
</svg>
