<?xml version="1.0" encoding="UTF-8" standalone="no"?>
<!DOCTYPE svg PUBLIC "-//W3C//DTD SVG 1.1//EN"
 "http://www.w3.org/Graphics/SVG/1.1/DTD/svg11.dtd">
<!-- Generated by graphviz version 2.43.0 (0)
 -->
<!-- Title: cComputedExpressionWatch&lt; T &gt; Pages: 1 -->
<svg width="192pt" height="140pt"
 viewBox="0.00 0.00 192.00 140.00" xmlns="http://www.w3.org/2000/svg" xmlns:xlink="http://www.w3.org/1999/xlink">
<g id="graph0" class="graph" transform="scale(1 1) rotate(0) translate(4 136)">
<title>cComputedExpressionWatch&lt; T &gt;</title>
<polygon fill="white" stroke="transparent" points="-4,4 -4,-136 188,-136 188,4 -4,4"/>
<!-- Node1 -->
<g id="node1" class="node">
<title>Node1</title>
<g id="a_node1"><a xlink:title="Watch class for computed expressions. The watch will display the result of calling an encapsulated fu...">
<polygon fill="#bfbfbf" stroke="black" points="0,-0.5 0,-19.5 184,-19.5 184,-0.5 0,-0.5"/>
<text text-anchor="middle" x="92" y="-7.5" font-family="Helvetica,sans-Serif" font-size="10.00">cComputedExpressionWatch&lt; T &gt;</text>
</a>
</g>
</g>
<!-- Node2 -->
<g id="node2" class="node">
<title>Node2</title>
<g id="a_node2"><a xlink:href="classomnetpp_1_1cWatchBase.html" target="_top" xlink:title="Helper class to make primitive types and non&#45;cOwnedObject objects inspectable in Qtenv....">
<polygon fill="white" stroke="black" points="54,-56.5 54,-75.5 130,-75.5 130,-56.5 54,-56.5"/>
<text text-anchor="middle" x="92" y="-63.5" font-family="Helvetica,sans-Serif" font-size="10.00">cWatchBase</text>
</a>
</g>
</g>
<!-- Node2&#45;&gt;Node1 -->
<g id="edge1" class="edge">
<title>Node2&#45;&gt;Node1</title>
<path fill="none" stroke="midnightblue" d="M92,-45.8C92,-36.91 92,-26.78 92,-19.75"/>
<polygon fill="midnightblue" stroke="midnightblue" points="88.5,-46.08 92,-56.08 95.5,-46.08 88.5,-46.08"/>
</g>
<!-- Node3 -->
<g id="node3" class="node">
<title>Node3</title>
<g id="a_node3"><a xlink:href="classomnetpp_1_1cNoncopyableOwnedObject.html" target="_top" xlink:title="Base class for cOwnedObject&#45;based classes that do not wish to support assignment and duplication.">
<polygon fill="white" stroke="red" points="16.5,-112.5 16.5,-131.5 167.5,-131.5 167.5,-112.5 16.5,-112.5"/>
<text text-anchor="middle" x="92" y="-119.5" font-family="Helvetica,sans-Serif" font-size="10.00">cNoncopyableOwnedObject</text>
</a>
</g>
</g>
<!-- Node3&#45;&gt;Node2 -->
<g id="edge2" class="edge">
<title>Node3&#45;&gt;Node2</title>
<path fill="none" stroke="midnightblue" d="M92,-101.8C92,-92.91 92,-82.78 92,-75.75"/>
<polygon fill="midnightblue" stroke="midnightblue" points="88.5,-102.08 92,-112.08 95.5,-102.08 88.5,-102.08"/>
</g>
</g>
</svg>
