<?xml version="1.0" encoding="UTF-8" standalone="no"?>
<!DOCTYPE svg PUBLIC "-//W3C//DTD SVG 1.1//EN"
 "http://www.w3.org/Graphics/SVG/1.1/DTD/svg11.dtd">
<!-- Generated by graphviz version 2.43.0 (0)
 -->
<!-- Title: cException Pages: 1 -->
<svg width="552pt" height="84pt"
 viewBox="0.00 0.00 552.00 84.00" xmlns="http://www.w3.org/2000/svg" xmlns:xlink="http://www.w3.org/1999/xlink">
<g id="graph0" class="graph" transform="scale(1 1) rotate(0) translate(4 80)">
<title>cException</title>
<polygon fill="white" stroke="transparent" points="-4,4 -4,-80 548,-80 548,4 -4,4"/>
<!-- Node1 -->
<g id="node1" class="node">
<title>Node1</title>
<g id="a_node1"><a xlink:title="Exception class.">
<polygon fill="#bfbfbf" stroke="black" points="229,-56.5 229,-75.5 299,-75.5 299,-56.5 229,-56.5"/>
<text text-anchor="middle" x="264" y="-63.5" font-family="Helvetica,sans-Serif" font-size="10.00">cException</text>
</a>
</g>
</g>
<!-- Node2 -->
<g id="node2" class="node">
<title>Node2</title>
<g id="a_node2"><a xlink:href="classomnetpp_1_1cDeleteModuleException.html" target="_top" xlink:title="Thrown from deleteModule() when the active activity() module is about to be deleted,...">
<polygon fill="white" stroke="black" points="0,-0.5 0,-19.5 138,-19.5 138,-0.5 0,-0.5"/>
<text text-anchor="middle" x="69" y="-7.5" font-family="Helvetica,sans-Serif" font-size="10.00">cDeleteModuleException</text>
</a>
</g>
</g>
<!-- Node1&#45;&gt;Node2 -->
<g id="edge1" class="edge">
<title>Node1&#45;&gt;Node2</title>
<path fill="none" stroke="midnightblue" d="M223.19,-53.7C186.39,-43.51 133.07,-28.74 99.75,-19.52"/>
<polygon fill="midnightblue" stroke="midnightblue" points="222.53,-57.15 233.1,-56.44 224.4,-50.4 222.53,-57.15"/>
</g>
<!-- Node3 -->
<g id="node3" class="node">
<title>Node3</title>
<g id="a_node3"><a xlink:href="classomnetpp_1_1cRuntimeError.html" target="_top" xlink:title="Thrown when the simulation kernel or other components detect a runtime error.">
<polygon fill="white" stroke="black" points="156,-0.5 156,-19.5 242,-19.5 242,-0.5 156,-0.5"/>
<text text-anchor="middle" x="199" y="-7.5" font-family="Helvetica,sans-Serif" font-size="10.00">cRuntimeError</text>
</a>
</g>
</g>
<!-- Node1&#45;&gt;Node3 -->
<g id="edge2" class="edge">
<title>Node1&#45;&gt;Node3</title>
<path fill="none" stroke="midnightblue" d="M245.73,-49.82C234.08,-40.15 219.4,-27.95 209.63,-19.83"/>
<polygon fill="midnightblue" stroke="midnightblue" points="243.63,-52.63 253.56,-56.32 248.1,-47.24 243.63,-52.63"/>
</g>
<!-- Node4 -->
<g id="node4" class="node">
<title>Node4</title>
<g id="a_node4"><a xlink:href="classomnetpp_1_1cStackCleanupException.html" target="_top" xlink:title="Used internally when deleting an activity() simple module.">
<polygon fill="white" stroke="black" points="260.5,-0.5 260.5,-19.5 397.5,-19.5 397.5,-0.5 260.5,-0.5"/>
<text text-anchor="middle" x="329" y="-7.5" font-family="Helvetica,sans-Serif" font-size="10.00">cStackCleanupException</text>
</a>
</g>
</g>
<!-- Node1&#45;&gt;Node4 -->
<g id="edge3" class="edge">
<title>Node1&#45;&gt;Node4</title>
<path fill="none" stroke="midnightblue" d="M282.27,-49.82C293.92,-40.15 308.6,-27.95 318.37,-19.83"/>
<polygon fill="midnightblue" stroke="midnightblue" points="279.9,-47.24 274.44,-56.32 284.37,-52.63 279.9,-47.24"/>
</g>
<!-- Node5 -->
<g id="node5" class="node">
<title>Node5</title>
<g id="a_node5"><a xlink:href="classomnetpp_1_1cTerminationException.html" target="_top" xlink:title="Thrown when the simulation is completed without error.">
<polygon fill="white" stroke="black" points="416,-0.5 416,-19.5 544,-19.5 544,-0.5 416,-0.5"/>
<text text-anchor="middle" x="480" y="-7.5" font-family="Helvetica,sans-Serif" font-size="10.00">cTerminationException</text>
</a>
</g>
</g>
<!-- Node1&#45;&gt;Node5 -->
<g id="edge4" class="edge">
<title>Node1&#45;&gt;Node5</title>
<path fill="none" stroke="midnightblue" d="M308.16,-53.96C348.96,-43.76 408.71,-28.82 445.93,-19.52"/>
<polygon fill="midnightblue" stroke="midnightblue" points="307.08,-50.62 298.23,-56.44 308.78,-57.41 307.08,-50.62"/>
</g>
</g>
</svg>
