<?xml version="1.0" encoding="UTF-8" standalone="no"?>
<!DOCTYPE svg PUBLIC "-//W3C//DTD SVG 1.1//EN"
 "http://www.w3.org/Graphics/SVG/1.1/DTD/svg11.dtd">
<!-- Generated by graphviz version 2.43.0 (0)
 -->
<!-- Title: cIListener Pages: 1 -->
<svg width="234pt" height="140pt"
 viewBox="0.00 0.00 233.50 140.00" xmlns="http://www.w3.org/2000/svg" xmlns:xlink="http://www.w3.org/1999/xlink">
<g id="graph0" class="graph" transform="scale(1 1) rotate(0) translate(4 136)">
<title>cIListener</title>
<polygon fill="white" stroke="transparent" points="-4,4 -4,-136 229.5,-136 229.5,4 -4,4"/>
<!-- Node1 -->
<g id="node1" class="node">
<title>Node1</title>
<g id="a_node1"><a xlink:title="Interface for listeners in a simulation model.">
<polygon fill="#bfbfbf" stroke="black" points="45.5,-112.5 45.5,-131.5 109.5,-131.5 109.5,-112.5 45.5,-112.5"/>
<text text-anchor="middle" x="77.5" y="-119.5" font-family="Helvetica,sans-Serif" font-size="10.00">cIListener</text>
</a>
</g>
</g>
<!-- Node2 -->
<g id="node2" class="node">
<title>Node2</title>
<g id="a_node2"><a xlink:href="classomnetpp_1_1cListener.html" target="_top" xlink:title="A do&#45;nothing implementation of cIListener, suitable as a base class for other listeners.">
<polygon fill="white" stroke="black" points="0,-56.5 0,-75.5 61,-75.5 61,-56.5 0,-56.5"/>
<text text-anchor="middle" x="30.5" y="-63.5" font-family="Helvetica,sans-Serif" font-size="10.00">cListener</text>
</a>
</g>
</g>
<!-- Node1&#45;&gt;Node2 -->
<g id="edge1" class="edge">
<title>Node1&#45;&gt;Node2</title>
<path fill="none" stroke="midnightblue" d="M63.08,-104.43C54.84,-94.97 44.85,-83.48 38.12,-75.75"/>
<polygon fill="midnightblue" stroke="midnightblue" points="60.53,-106.84 69.74,-112.08 65.81,-102.24 60.53,-106.84"/>
</g>
<!-- Node3 -->
<g id="node3" class="node">
<title>Node3</title>
<g id="a_node3"><a xlink:href="classomnetpp_1_1cResultListener.html" target="_top" xlink:title="Common abstract base class for result filters and result recorders.">
<polygon fill="white" stroke="black" points="79.5,-56.5 79.5,-75.5 171.5,-75.5 171.5,-56.5 79.5,-56.5"/>
<text text-anchor="middle" x="125.5" y="-63.5" font-family="Helvetica,sans-Serif" font-size="10.00">cResultListener</text>
</a>
</g>
</g>
<!-- Node1&#45;&gt;Node3 -->
<g id="edge2" class="edge">
<title>Node1&#45;&gt;Node3</title>
<path fill="none" stroke="midnightblue" d="M92.23,-104.43C100.64,-94.97 110.85,-83.48 117.72,-75.75"/>
<polygon fill="midnightblue" stroke="midnightblue" points="89.45,-102.28 85.43,-112.08 94.69,-106.93 89.45,-102.28"/>
</g>
<!-- Node4 -->
<g id="node4" class="node">
<title>Node4</title>
<g id="a_node4"><a xlink:href="classomnetpp_1_1cResultFilter.html" target="_top" xlink:title="Base class for result filters.">
<polygon fill="white" stroke="red" points="34,-0.5 34,-19.5 111,-19.5 111,-0.5 34,-0.5"/>
<text text-anchor="middle" x="72.5" y="-7.5" font-family="Helvetica,sans-Serif" font-size="10.00">cResultFilter</text>
</a>
</g>
</g>
<!-- Node3&#45;&gt;Node4 -->
<g id="edge3" class="edge">
<title>Node3&#45;&gt;Node4</title>
<path fill="none" stroke="midnightblue" d="M109.52,-48.72C100.18,-39.2 88.75,-27.56 81.09,-19.75"/>
<polygon fill="midnightblue" stroke="midnightblue" points="107.25,-51.4 116.75,-56.08 112.24,-46.49 107.25,-51.4"/>
</g>
<!-- Node30 -->
<g id="node5" class="node">
<title>Node30</title>
<g id="a_node5"><a xlink:href="classomnetpp_1_1cResultRecorder.html" target="_top" xlink:title="Abstract base class for result recorders.">
<polygon fill="white" stroke="red" points="129.5,-0.5 129.5,-19.5 225.5,-19.5 225.5,-0.5 129.5,-0.5"/>
<text text-anchor="middle" x="177.5" y="-7.5" font-family="Helvetica,sans-Serif" font-size="10.00">cResultRecorder</text>
</a>
</g>
</g>
<!-- Node3&#45;&gt;Node30 -->
<g id="edge4" class="edge">
<title>Node3&#45;&gt;Node30</title>
<path fill="none" stroke="midnightblue" d="M141.18,-48.72C150.34,-39.2 161.55,-27.56 169.07,-19.75"/>
<polygon fill="midnightblue" stroke="midnightblue" points="138.5,-46.45 134.09,-56.08 143.54,-51.31 138.5,-46.45"/>
</g>
</g>
</svg>
