<?xml version="1.0" encoding="UTF-8" standalone="no"?>
<!DOCTYPE svg PUBLIC "-//W3C//DTD SVG 1.1//EN"
 "http://www.w3.org/Graphics/SVG/1.1/DTD/svg11.dtd">
<!-- Generated by graphviz version 2.43.0 (0)
 -->
<!-- Title: cPreDisplayStringChangeNotification Pages: 1 -->
<svg width="204pt" height="140pt"
 viewBox="0.00 0.00 204.00 140.00" xmlns="http://www.w3.org/2000/svg" xmlns:xlink="http://www.w3.org/1999/xlink">
<g id="graph0" class="graph" transform="scale(1 1) rotate(0) translate(4 136)">
<title>cPreDisplayStringChangeNotification</title>
<polygon fill="white" stroke="transparent" points="-4,4 -4,-136 200,-136 200,4 -4,4"/>
<!-- Node1 -->
<g id="node1" class="node">
<title>Node1</title>
<g id="a_node1"><a xlink:title="Model change notification fired just before a display string change.">
<polygon fill="#bfbfbf" stroke="black" points="0,-0.5 0,-19.5 196,-19.5 196,-0.5 0,-0.5"/>
<text text-anchor="middle" x="98" y="-7.5" font-family="Helvetica,sans-Serif" font-size="10.00">cPreDisplayStringChangeNotification</text>
</a>
</g>
</g>
<!-- Node2 -->
<g id="node2" class="node">
<title>Node2</title>
<g id="a_node2"><a xlink:href="classomnetpp_1_1cModelChangeNotification.html" target="_top" xlink:title="Common base class for data objects that accompany PRE_MODEL_CHANGE and POST_MODEL_CHANGE signals.">
<polygon fill="white" stroke="black" points="25.5,-56.5 25.5,-75.5 170.5,-75.5 170.5,-56.5 25.5,-56.5"/>
<text text-anchor="middle" x="98" y="-63.5" font-family="Helvetica,sans-Serif" font-size="10.00">cModelChangeNotification</text>
</a>
</g>
</g>
<!-- Node2&#45;&gt;Node1 -->
<g id="edge1" class="edge">
<title>Node2&#45;&gt;Node1</title>
<path fill="none" stroke="midnightblue" d="M98,-45.8C98,-36.91 98,-26.78 98,-19.75"/>
<polygon fill="midnightblue" stroke="midnightblue" points="94.5,-46.08 98,-56.08 101.5,-46.08 94.5,-46.08"/>
</g>
<!-- Node3 -->
<g id="node3" class="node">
<title>Node3</title>
<g id="a_node3"><a xlink:href="classomnetpp_1_1cObject.html" target="_top" xlink:title="cObject is a lightweight class which serves as the root of the OMNeT++ class hierarchy....">
<polygon fill="white" stroke="black" points="29.5,-112.5 29.5,-131.5 82.5,-131.5 82.5,-112.5 29.5,-112.5"/>
<text text-anchor="middle" x="56" y="-119.5" font-family="Helvetica,sans-Serif" font-size="10.00">cObject</text>
</a>
</g>
</g>
<!-- Node3&#45;&gt;Node2 -->
<g id="edge2" class="edge">
<title>Node3&#45;&gt;Node2</title>
<path fill="none" stroke="midnightblue" d="M69.11,-104.14C76.43,-94.74 85.24,-83.4 91.19,-75.75"/>
<polygon fill="midnightblue" stroke="midnightblue" points="66.31,-102.04 62.94,-112.08 71.84,-106.34 66.31,-102.04"/>
</g>
<!-- Node4 -->
<g id="node4" class="node">
<title>Node4</title>
<g id="a_node4"><a xlink:href="classomnetpp_1_1noncopyable.html" target="_top" xlink:title="Utility class, to make it impossible to call the operator= and copy constructor of any class derived ...">
<polygon fill="white" stroke="black" points="100.5,-112.5 100.5,-131.5 179.5,-131.5 179.5,-112.5 100.5,-112.5"/>
<text text-anchor="middle" x="140" y="-119.5" font-family="Helvetica,sans-Serif" font-size="10.00">noncopyable</text>
</a>
</g>
</g>
<!-- Node4&#45;&gt;Node2 -->
<g id="edge3" class="edge">
<title>Node4&#45;&gt;Node2</title>
<path fill="none" stroke="#8b1a1a" d="M126.89,-104.14C119.57,-94.74 110.76,-83.4 104.81,-75.75"/>
<polygon fill="#8b1a1a" stroke="#8b1a1a" points="124.16,-106.34 133.06,-112.08 129.69,-102.04 124.16,-106.34"/>
</g>
</g>
</svg>
