<?xml version="1.0" encoding="UTF-8" standalone="no"?>
<!DOCTYPE svg PUBLIC "-//W3C//DTD SVG 1.1//EN"
 "http://www.w3.org/Graphics/SVG/1.1/DTD/svg11.dtd">
<!-- Generated by graphviz version 2.43.0 (0)
 -->
<!-- Title: noncopyable Pages: 1 -->
<svg width="506pt" height="1381pt"
 viewBox="0.00 0.00 506.00 1381.00" xmlns="http://www.w3.org/2000/svg" xmlns:xlink="http://www.w3.org/1999/xlink">
<g id="graph0" class="graph" transform="scale(1 1) rotate(0) translate(4 1377)">
<title>noncopyable</title>
<polygon fill="white" stroke="transparent" points="-4,4 -4,-1377 502,-1377 502,4 -4,4"/>
<!-- Node1 -->
<g id="node1" class="node">
<title>Node1</title>
<g id="a_node1"><a xlink:title="Utility class, to make it impossible to call the operator= and copy constructor of any class derived ...">
<polygon fill="#bfbfbf" stroke="black" points="0,-893.5 0,-912.5 79,-912.5 79,-893.5 0,-893.5"/>
<text text-anchor="middle" x="39.5" y="-900.5" font-family="Helvetica,sans-Serif" font-size="10.00">noncopyable</text>
</a>
</g>
</g>
<!-- Node2 -->
<g id="node2" class="node">
<title>Node2</title>
<g id="a_node2"><a xlink:href="classomnetpp_1_1cFingerprintCalculator.html" target="_top" xlink:title="This class defines the interface for fingerprint calculators.">
<polygon fill="white" stroke="black" points="128.5,-1315.5 128.5,-1334.5 252.5,-1334.5 252.5,-1315.5 128.5,-1315.5"/>
<text text-anchor="middle" x="190.5" y="-1322.5" font-family="Helvetica,sans-Serif" font-size="10.00">cFingerprintCalculator</text>
</a>
</g>
</g>
<!-- Node1&#45;&gt;Node2 -->
<g id="edge1" class="edge">
<title>Node1&#45;&gt;Node2</title>
<path fill="none" stroke="#8b1a1a" d="M47.22,-922.05C73.25,-995.75 166.86,-1260.88 186.05,-1315.22"/>
<polygon fill="#8b1a1a" stroke="#8b1a1a" points="50.52,-920.87 43.89,-912.61 43.92,-923.2 50.52,-920.87"/>
</g>
<!-- Node5 -->
<g id="node5" class="node">
<title>Node5</title>
<g id="a_node5"><a xlink:href="classomnetpp_1_1cGate.html" target="_top" xlink:title="Represents a module gate.">
<polygon fill="white" stroke="black" points="168,-1064.5 168,-1083.5 213,-1083.5 213,-1064.5 168,-1064.5"/>
<text text-anchor="middle" x="190.5" y="-1071.5" font-family="Helvetica,sans-Serif" font-size="10.00">cGate</text>
</a>
</g>
</g>
<!-- Node1&#45;&gt;Node5 -->
<g id="edge4" class="edge">
<title>Node1&#45;&gt;Node5</title>
<path fill="none" stroke="#8b1a1a" d="M44.53,-922.64C52.27,-955.24 72.36,-1020.35 115,-1055 129.92,-1067.12 151.62,-1071.62 167.76,-1073.23"/>
<polygon fill="#8b1a1a" stroke="#8b1a1a" points="47.88,-921.57 42.29,-912.57 41.04,-923.09 47.88,-921.57"/>
</g>
<!-- Node6 -->
<g id="node6" class="node">
<title>Node6</title>
<g id="a_node6"><a xlink:href="classomnetpp_1_1cHasher.html" target="_top" xlink:title="Utility class to calculate the hash of some data.">
<polygon fill="white" stroke="black" points="162.5,-1026.5 162.5,-1045.5 218.5,-1045.5 218.5,-1026.5 162.5,-1026.5"/>
<text text-anchor="middle" x="190.5" y="-1033.5" font-family="Helvetica,sans-Serif" font-size="10.00">cHasher</text>
</a>
</g>
</g>
<!-- Node1&#45;&gt;Node6 -->
<g id="edge5" class="edge">
<title>Node1&#45;&gt;Node6</title>
<path fill="none" stroke="#8b1a1a" d="M47.74,-922.06C58.46,-947.65 81.03,-992.7 115,-1017 128.79,-1026.86 147.23,-1031.61 162.32,-1033.9"/>
<polygon fill="#8b1a1a" stroke="#8b1a1a" points="50.96,-920.68 43.99,-912.7 44.46,-923.28 50.96,-920.68"/>
</g>
<!-- Node7 -->
<g id="node7" class="node">
<title>Node7</title>
<g id="a_node7"><a xlink:href="classomnetpp_1_1cIEventlogManager.html" target="_top" xlink:title="Abstract base class for eventlog managers for cEnvir.">
<polygon fill="white" stroke="black" points="135.5,-988.5 135.5,-1007.5 245.5,-1007.5 245.5,-988.5 135.5,-988.5"/>
<text text-anchor="middle" x="190.5" y="-995.5" font-family="Helvetica,sans-Serif" font-size="10.00">cIEventlogManager</text>
</a>
</g>
</g>
<!-- Node1&#45;&gt;Node7 -->
<g id="edge6" class="edge">
<title>Node1&#45;&gt;Node7</title>
<path fill="none" stroke="#8b1a1a" d="M53.24,-920.79C66.66,-938.22 89.37,-964.24 115,-979 121.71,-982.86 129.2,-985.95 136.78,-988.42"/>
<polygon fill="#8b1a1a" stroke="#8b1a1a" points="55.89,-918.49 47.11,-912.57 50.28,-922.68 55.89,-918.49"/>
</g>
<!-- Node8 -->
<g id="node8" class="node">
<title>Node8</title>
<g id="a_node8"><a xlink:href="classomnetpp_1_1cIOutputScalarManager.html" target="_top" xlink:title="Abstract base class for handling recording of output scalar data.">
<polygon fill="white" stroke="black" points="125,-950.5 125,-969.5 256,-969.5 256,-950.5 125,-950.5"/>
<text text-anchor="middle" x="190.5" y="-957.5" font-family="Helvetica,sans-Serif" font-size="10.00">cIOutputScalarManager</text>
</a>
</g>
</g>
<!-- Node1&#45;&gt;Node8 -->
<g id="edge7" class="edge">
<title>Node1&#45;&gt;Node8</title>
<path fill="none" stroke="#8b1a1a" d="M65.68,-917.61C79.82,-925.37 98,-934.59 115,-941 124.62,-944.63 135.19,-947.79 145.27,-950.44"/>
<polygon fill="#8b1a1a" stroke="#8b1a1a" points="67.03,-914.36 56.59,-912.53 63.61,-920.47 67.03,-914.36"/>
</g>
<!-- Node9 -->
<g id="node9" class="node">
<title>Node9</title>
<g id="a_node9"><a xlink:href="classomnetpp_1_1cIOutputVectorManager.html" target="_top" xlink:title="Abstract base class for output vector managers for cEnvir.">
<polygon fill="white" stroke="black" points="125,-912.5 125,-931.5 256,-931.5 256,-912.5 125,-912.5"/>
<text text-anchor="middle" x="190.5" y="-919.5" font-family="Helvetica,sans-Serif" font-size="10.00">cIOutputVectorManager</text>
</a>
</g>
</g>
<!-- Node1&#45;&gt;Node9 -->
<g id="edge8" class="edge">
<title>Node1&#45;&gt;Node9</title>
<path fill="none" stroke="#8b1a1a" d="M89.41,-909.24C100.77,-910.69 113.04,-912.25 124.97,-913.77"/>
<polygon fill="#8b1a1a" stroke="#8b1a1a" points="89.62,-905.74 79.26,-907.94 88.74,-912.68 89.62,-905.74"/>
</g>
<!-- Node10 -->
<g id="node10" class="node">
<title>Node10</title>
<g id="a_node10"><a xlink:href="classomnetpp_1_1cISnapshotManager.html" target="_top" xlink:title="Abstract base class for snapshot managers.">
<polygon fill="white" stroke="black" points="134,-874.5 134,-893.5 247,-893.5 247,-874.5 134,-874.5"/>
<text text-anchor="middle" x="190.5" y="-881.5" font-family="Helvetica,sans-Serif" font-size="10.00">cISnapshotManager</text>
</a>
</g>
</g>
<!-- Node1&#45;&gt;Node10 -->
<g id="edge9" class="edge">
<title>Node1&#45;&gt;Node10</title>
<path fill="none" stroke="#8b1a1a" d="M89.33,-896.77C103.56,-894.96 119.21,-892.96 133.82,-891.1"/>
<polygon fill="#8b1a1a" stroke="#8b1a1a" points="88.74,-893.32 79.26,-898.06 89.62,-900.26 88.74,-893.32"/>
</g>
<!-- Node11 -->
<g id="node11" class="node">
<title>Node11</title>
<g id="a_node11"><a xlink:href="classomnetpp_1_1cMatchExpression.html" target="_top" xlink:title="Decides whether an object matches an expression.">
<polygon fill="white" stroke="black" points="138,-836.5 138,-855.5 243,-855.5 243,-836.5 138,-836.5"/>
<text text-anchor="middle" x="190.5" y="-843.5" font-family="Helvetica,sans-Serif" font-size="10.00">cMatchExpression</text>
</a>
</g>
</g>
<!-- Node1&#45;&gt;Node11 -->
<g id="edge10" class="edge">
<title>Node1&#45;&gt;Node11</title>
<path fill="none" stroke="midnightblue" d="M65.68,-888.39C79.82,-880.63 98,-871.41 115,-865 124.62,-861.37 135.19,-858.21 145.27,-855.56"/>
<polygon fill="midnightblue" stroke="midnightblue" points="63.61,-885.53 56.59,-893.47 67.03,-891.64 63.61,-885.53"/>
</g>
<!-- Node12 -->
<g id="node12" class="node">
<title>Node12</title>
<g id="a_node12"><a xlink:href="classomnetpp_1_1cModelChangeNotification.html" target="_top" xlink:title="Common base class for data objects that accompany PRE_MODEL_CHANGE and POST_MODEL_CHANGE signals.">
<polygon fill="white" stroke="black" points="118,-798.5 118,-817.5 263,-817.5 263,-798.5 118,-798.5"/>
<text text-anchor="middle" x="190.5" y="-805.5" font-family="Helvetica,sans-Serif" font-size="10.00">cModelChangeNotification</text>
</a>
</g>
</g>
<!-- Node1&#45;&gt;Node12 -->
<g id="edge11" class="edge">
<title>Node1&#45;&gt;Node12</title>
<path fill="none" stroke="#8b1a1a" d="M53.24,-885.21C66.66,-867.78 89.37,-841.76 115,-827 121.71,-823.14 129.2,-820.05 136.78,-817.58"/>
<polygon fill="#8b1a1a" stroke="#8b1a1a" points="50.28,-883.32 47.11,-893.43 55.89,-887.51 50.28,-883.32"/>
</g>
<!-- Node40 -->
<g id="node36" class="node">
<title>Node40</title>
<g id="a_node36"><a xlink:href="classomnetpp_1_1cNoncopyableOwnedObject.html" target="_top" xlink:title="Base class for cOwnedObject&#45;based classes that do not wish to support assignment and duplication.">
<polygon fill="white" stroke="red" points="115,-247.5 115,-266.5 266,-266.5 266,-247.5 115,-247.5"/>
<text text-anchor="middle" x="190.5" y="-254.5" font-family="Helvetica,sans-Serif" font-size="10.00">cNoncopyableOwnedObject</text>
</a>
</g>
</g>
<!-- Node1&#45;&gt;Node40 -->
<g id="edge35" class="edge">
<title>Node1&#45;&gt;Node40</title>
<path fill="none" stroke="#8b1a1a" d="M45,-883.49C67.87,-784.34 170.77,-338.22 187.27,-266.69"/>
<polygon fill="#8b1a1a" stroke="#8b1a1a" points="41.56,-882.84 42.72,-893.37 48.38,-884.41 41.56,-882.84"/>
</g>
<!-- Node72 -->
<g id="node48" class="node">
<title>Node72</title>
<g id="a_node48"><a xlink:href="classomnetpp_1_1cRegistrationList.html" target="_top" xlink:title="Implements a list or table of objects with qualified names.">
<polygon fill="white" stroke="black" points="141.5,-209.5 141.5,-228.5 239.5,-228.5 239.5,-209.5 141.5,-209.5"/>
<text text-anchor="middle" x="190.5" y="-216.5" font-family="Helvetica,sans-Serif" font-size="10.00">cRegistrationList</text>
</a>
</g>
</g>
<!-- Node1&#45;&gt;Node72 -->
<g id="edge47" class="edge">
<title>Node1&#45;&gt;Node72</title>
<path fill="none" stroke="#8b1a1a" d="M41.39,-883.27C46.3,-778.28 71.44,-288.04 115,-238 121.84,-230.15 131.42,-225.32 141.45,-222.39"/>
<polygon fill="#8b1a1a" stroke="#8b1a1a" points="37.89,-883.26 40.92,-893.41 44.88,-883.58 37.89,-883.26"/>
</g>
<!-- Node73 -->
<g id="node49" class="node">
<title>Node73</title>
<g id="a_node49"><a xlink:href="classomnetpp_1_1cSimulation.html" target="_top" xlink:title="Simulation manager class.">
<polygon fill="white" stroke="black" points="153.5,-171.5 153.5,-190.5 227.5,-190.5 227.5,-171.5 153.5,-171.5"/>
<text text-anchor="middle" x="190.5" y="-178.5" font-family="Helvetica,sans-Serif" font-size="10.00">cSimulation</text>
</a>
</g>
</g>
<!-- Node1&#45;&gt;Node73 -->
<g id="edge48" class="edge">
<title>Node1&#45;&gt;Node73</title>
<path fill="none" stroke="#8b1a1a" d="M41.27,-883.18C45.66,-774.42 68.99,-253.17 115,-200 124.52,-189 139.44,-183.92 153.43,-181.72"/>
<polygon fill="#8b1a1a" stroke="#8b1a1a" points="37.76,-883.25 40.86,-893.38 44.76,-883.53 37.76,-883.25"/>
</g>
<!-- Node3 -->
<g id="node3" class="node">
<title>Node3</title>
<g id="a_node3"><a xlink:href="classomnetpp_1_1cMultiFingerprintCalculator.html" target="_top" xlink:title="This class calculates multiple fingerprints simultaneously.">
<polygon fill="white" stroke="black" points="325.5,-1353.5 325.5,-1372.5 474.5,-1372.5 474.5,-1353.5 325.5,-1353.5"/>
<text text-anchor="middle" x="400" y="-1360.5" font-family="Helvetica,sans-Serif" font-size="10.00">cMultiFingerprintCalculator</text>
</a>
</g>
</g>
<!-- Node2&#45;&gt;Node3 -->
<g id="edge2" class="edge">
<title>Node2&#45;&gt;Node3</title>
<path fill="none" stroke="midnightblue" d="M253.46,-1336.35C283.23,-1341.8 318.52,-1348.26 346.89,-1353.46"/>
<polygon fill="midnightblue" stroke="midnightblue" points="254.06,-1332.9 243.59,-1334.54 252.8,-1339.78 254.06,-1332.9"/>
</g>
<!-- Node4 -->
<g id="node4" class="node">
<title>Node4</title>
<g id="a_node4"><a xlink:href="classomnetpp_1_1cSingleFingerprintCalculator.html" target="_top" xlink:title="This class calculates the &quot;fingerprint&quot; of a simulation.">
<polygon fill="white" stroke="black" points="323,-1315.5 323,-1334.5 477,-1334.5 477,-1315.5 323,-1315.5"/>
<text text-anchor="middle" x="400" y="-1322.5" font-family="Helvetica,sans-Serif" font-size="10.00">cSingleFingerprintCalculator</text>
</a>
</g>
</g>
<!-- Node2&#45;&gt;Node4 -->
<g id="edge3" class="edge">
<title>Node2&#45;&gt;Node4</title>
<path fill="none" stroke="midnightblue" d="M262.89,-1325C282.23,-1325 303.24,-1325 322.84,-1325"/>
<polygon fill="midnightblue" stroke="midnightblue" points="262.63,-1321.5 252.63,-1325 262.63,-1328.5 262.63,-1321.5"/>
</g>
<!-- Node13 -->
<g id="node13" class="node">
<title>Node13</title>
<g id="a_node13"><a xlink:href="classomnetpp_1_1cPathChangeNotification.html" target="_top" xlink:title="Base class for path change notifications.">
<polygon fill="white" stroke="red" points="332,-1277.5 332,-1296.5 468,-1296.5 468,-1277.5 332,-1277.5"/>
<text text-anchor="middle" x="400" y="-1284.5" font-family="Helvetica,sans-Serif" font-size="10.00">cPathChangeNotification</text>
</a>
</g>
</g>
<!-- Node12&#45;&gt;Node13 -->
<g id="edge12" class="edge">
<title>Node12&#45;&gt;Node13</title>
<path fill="none" stroke="midnightblue" d="M262.83,-823.66C263.95,-824.71 265,-825.82 266,-827 329.44,-902.12 236.47,-1194.69 302,-1268 309.89,-1276.83 320.57,-1282.28 331.97,-1285.53"/>
<polygon fill="midnightblue" stroke="midnightblue" points="264.89,-820.83 254.79,-817.64 260.7,-826.43 264.89,-820.83"/>
</g>
<!-- Node18 -->
<g id="node14" class="node">
<title>Node18</title>
<g id="a_node14"><a xlink:href="classomnetpp_1_1cPostComponentInitializeNotification.html" target="_top" xlink:title="Model change notification fired after a component is initialized.">
<polygon fill="white" stroke="black" points="329.5,-1228 329.5,-1258 470.5,-1258 470.5,-1228 329.5,-1228"/>
<text text-anchor="start" x="337.5" y="-1246" font-family="Helvetica,sans-Serif" font-size="10.00">cPostComponentInitialize</text>
<text text-anchor="middle" x="400" y="-1235" font-family="Helvetica,sans-Serif" font-size="10.00">Notification</text>
</a>
</g>
</g>
<!-- Node12&#45;&gt;Node18 -->
<g id="edge13" class="edge">
<title>Node12&#45;&gt;Node18</title>
<path fill="none" stroke="midnightblue" d="M262.82,-823.68C263.94,-824.72 265,-825.83 266,-827 322.78,-893.55 244.98,-1152.66 302,-1219 309.24,-1227.42 318.92,-1233.13 329.37,-1236.96"/>
<polygon fill="midnightblue" stroke="midnightblue" points="264.86,-820.83 254.74,-817.68 260.68,-826.45 264.86,-820.83"/>
</g>
<!-- Node19 -->
<g id="node15" class="node">
<title>Node19</title>
<g id="a_node15"><a xlink:href="classomnetpp_1_1cPostDisplayStringChangeNotification.html" target="_top" xlink:title="Model change notification fired after a dispay string change.">
<polygon fill="white" stroke="black" points="327.5,-1179 327.5,-1209 472.5,-1209 472.5,-1179 327.5,-1179"/>
<text text-anchor="start" x="335.5" y="-1197" font-family="Helvetica,sans-Serif" font-size="10.00">cPostDisplayStringChange</text>
<text text-anchor="middle" x="400" y="-1186" font-family="Helvetica,sans-Serif" font-size="10.00">Notification</text>
</a>
</g>
</g>
<!-- Node12&#45;&gt;Node19 -->
<g id="edge14" class="edge">
<title>Node12&#45;&gt;Node19</title>
<path fill="none" stroke="midnightblue" d="M262.71,-823.61C263.86,-824.67 264.96,-825.8 266,-827 365.97,-942.61 202.18,-1053.26 302,-1169 308.82,-1176.9 317.76,-1182.47 327.47,-1186.37"/>
<polygon fill="midnightblue" stroke="midnightblue" points="264.49,-820.58 254.35,-817.52 260.37,-826.24 264.49,-820.58"/>
</g>
<!-- Node20 -->
<g id="node16" class="node">
<title>Node20</title>
<g id="a_node16"><a xlink:href="classomnetpp_1_1cPostGateAddNotification.html" target="_top" xlink:title="Model change notification fired after a gate or gate vector has been added to the module.">
<polygon fill="white" stroke="black" points="329.5,-1140.5 329.5,-1159.5 470.5,-1159.5 470.5,-1140.5 329.5,-1140.5"/>
<text text-anchor="middle" x="400" y="-1147.5" font-family="Helvetica,sans-Serif" font-size="10.00">cPostGateAddNotification</text>
</a>
</g>
</g>
<!-- Node12&#45;&gt;Node20 -->
<g id="edge15" class="edge">
<title>Node12&#45;&gt;Node20</title>
<path fill="none" stroke="midnightblue" d="M262.68,-823.63C263.85,-824.69 264.96,-825.81 266,-827 355.66,-929.33 209.5,-1031.23 302,-1131 309.35,-1138.93 318.96,-1144.1 329.27,-1147.4"/>
<polygon fill="midnightblue" stroke="midnightblue" points="264.45,-820.58 254.29,-817.57 260.35,-826.26 264.45,-820.58"/>
</g>
<!-- Node21 -->
<g id="node17" class="node">
<title>Node21</title>
<g id="a_node17"><a xlink:href="classomnetpp_1_1cPostGateConnectNotification.html" target="_top" xlink:title="Model change notification fired after a gate has been connected.">
<polygon fill="white" stroke="black" points="319,-1102.5 319,-1121.5 481,-1121.5 481,-1102.5 319,-1102.5"/>
<text text-anchor="middle" x="400" y="-1109.5" font-family="Helvetica,sans-Serif" font-size="10.00">cPostGateConnectNotification</text>
</a>
</g>
</g>
<!-- Node12&#45;&gt;Node21 -->
<g id="edge16" class="edge">
<title>Node12&#45;&gt;Node21</title>
<path fill="none" stroke="midnightblue" d="M262.66,-823.65C263.83,-824.7 264.95,-825.82 266,-827 345.36,-916.07 220.16,-1006.19 302,-1093 306.83,-1098.12 312.59,-1102.09 318.88,-1105.14"/>
<polygon fill="midnightblue" stroke="midnightblue" points="264.39,-820.59 254.22,-817.63 260.33,-826.29 264.39,-820.59"/>
</g>
<!-- Node22 -->
<g id="node18" class="node">
<title>Node22</title>
<g id="a_node18"><a xlink:href="classomnetpp_1_1cPostGateDeleteNotification.html" target="_top" xlink:title="Model change notification fired after a gate has been deleted.">
<polygon fill="white" stroke="black" points="322.5,-1064.5 322.5,-1083.5 477.5,-1083.5 477.5,-1064.5 322.5,-1064.5"/>
<text text-anchor="middle" x="400" y="-1071.5" font-family="Helvetica,sans-Serif" font-size="10.00">cPostGateDeleteNotification</text>
</a>
</g>
</g>
<!-- Node12&#45;&gt;Node22 -->
<g id="edge17" class="edge">
<title>Node12&#45;&gt;Node22</title>
<path fill="none" stroke="midnightblue" d="M262.16,-823.29C263.51,-824.44 264.79,-825.68 266,-827 335.09,-902.84 230.81,-981.14 302,-1055 307.72,-1060.93 314.7,-1065.31 322.27,-1068.5"/>
<polygon fill="midnightblue" stroke="midnightblue" points="264,-820.3 253.78,-817.52 260.03,-826.07 264,-820.3"/>
</g>
<!-- Node23 -->
<g id="node19" class="node">
<title>Node23</title>
<g id="a_node19"><a xlink:href="classomnetpp_1_1cPostGateDisconnectNotification.html" target="_top" xlink:title="Model change notification fired after a gate is disconnected.">
<polygon fill="white" stroke="black" points="312,-1026.5 312,-1045.5 488,-1045.5 488,-1026.5 312,-1026.5"/>
<text text-anchor="middle" x="400" y="-1033.5" font-family="Helvetica,sans-Serif" font-size="10.00">cPostGateDisconnectNotification</text>
</a>
</g>
</g>
<!-- Node12&#45;&gt;Node23 -->
<g id="edge18" class="edge">
<title>Node12&#45;&gt;Node23</title>
<path fill="none" stroke="midnightblue" d="M262.11,-823.34C263.47,-824.48 264.77,-825.7 266,-827 324.85,-889.64 241.41,-956.04 302,-1017 305.63,-1020.65 309.74,-1023.71 314.17,-1026.26"/>
<polygon fill="midnightblue" stroke="midnightblue" points="263.9,-820.33 253.66,-817.63 259.99,-826.13 263.9,-820.33"/>
</g>
<!-- Node24 -->
<g id="node20" class="node">
<title>Node24</title>
<g id="a_node20"><a xlink:href="classomnetpp_1_1cPostGateVectorResizeNotification.html" target="_top" xlink:title="Model change notification fired after a gate vector has been resized.">
<polygon fill="white" stroke="black" points="307.5,-988.5 307.5,-1007.5 492.5,-1007.5 492.5,-988.5 307.5,-988.5"/>
<text text-anchor="middle" x="400" y="-995.5" font-family="Helvetica,sans-Serif" font-size="10.00">cPostGateVectorResizeNotification</text>
</a>
</g>
</g>
<!-- Node12&#45;&gt;Node24 -->
<g id="edge19" class="edge">
<title>Node12&#45;&gt;Node24</title>
<path fill="none" stroke="midnightblue" d="M261.92,-823.33C263.35,-824.47 264.71,-825.69 266,-827 314.67,-876.51 251.96,-930.88 302,-979 305.83,-982.69 310.16,-985.76 314.81,-988.31"/>
<polygon fill="midnightblue" stroke="midnightblue" points="263.41,-820.12 253.12,-817.62 259.61,-826 263.41,-820.12"/>
</g>
<!-- Node25 -->
<g id="node21" class="node">
<title>Node25</title>
<g id="a_node21"><a xlink:href="classomnetpp_1_1cPostModuleAddNotification.html" target="_top" xlink:title="Model change notification fired just after a module is inserted into the network.">
<polygon fill="white" stroke="black" points="323,-950.5 323,-969.5 477,-969.5 477,-950.5 323,-950.5"/>
<text text-anchor="middle" x="400" y="-957.5" font-family="Helvetica,sans-Serif" font-size="10.00">cPostModuleAddNotification</text>
</a>
</g>
</g>
<!-- Node12&#45;&gt;Node25 -->
<g id="edge20" class="edge">
<title>Node12&#45;&gt;Node25</title>
<path fill="none" stroke="midnightblue" d="M260.73,-822.67C262.58,-823.99 264.34,-825.44 266,-827 304.61,-863.5 262.38,-905.6 302,-941 308.01,-946.37 315.09,-950.41 322.63,-953.43"/>
<polygon fill="midnightblue" stroke="midnightblue" points="262.49,-819.65 252.1,-817.56 258.92,-825.67 262.49,-819.65"/>
</g>
<!-- Node26 -->
<g id="node22" class="node">
<title>Node26</title>
<g id="a_node22"><a xlink:href="classomnetpp_1_1cPostModuleBuildNotification.html" target="_top" xlink:title="Model change notification fired after a module is built.">
<polygon fill="white" stroke="black" points="320,-912.5 320,-931.5 480,-931.5 480,-912.5 320,-912.5"/>
<text text-anchor="middle" x="400" y="-919.5" font-family="Helvetica,sans-Serif" font-size="10.00">cPostModuleBuildNotification</text>
</a>
</g>
</g>
<!-- Node12&#45;&gt;Node26 -->
<g id="edge21" class="edge">
<title>Node12&#45;&gt;Node26</title>
<path fill="none" stroke="midnightblue" d="M259.56,-822.41C261.81,-823.8 263.97,-825.33 266,-827 294.85,-850.76 272.49,-880.06 302,-903 307.42,-907.21 313.51,-910.57 319.94,-913.25"/>
<polygon fill="midnightblue" stroke="midnightblue" points="260.94,-819.18 250.45,-817.66 257.7,-825.39 260.94,-819.18"/>
</g>
<!-- Node27 -->
<g id="node23" class="node">
<title>Node27</title>
<g id="a_node23"><a xlink:href="classomnetpp_1_1cPostModuleDeleteNotification.html" target="_top" xlink:title="Model change notification fired after a module has been deleted.">
<polygon fill="white" stroke="black" points="316.5,-874.5 316.5,-893.5 483.5,-893.5 483.5,-874.5 316.5,-874.5"/>
<text text-anchor="middle" x="400" y="-881.5" font-family="Helvetica,sans-Serif" font-size="10.00">cPostModuleDeleteNotification</text>
</a>
</g>
</g>
<!-- Node12&#45;&gt;Node27 -->
<g id="edge22" class="edge">
<title>Node12&#45;&gt;Node27</title>
<path fill="none" stroke="midnightblue" d="M254.32,-821.2C258.38,-822.91 262.31,-824.83 266,-827 286.06,-838.78 281.62,-853.79 302,-865 309.07,-868.89 316.81,-871.99 324.74,-874.46"/>
<polygon fill="midnightblue" stroke="midnightblue" points="255.26,-817.82 244.67,-817.61 252.82,-824.38 255.26,-817.82"/>
</g>
<!-- Node28 -->
<g id="node24" class="node">
<title>Node28</title>
<g id="a_node24"><a xlink:href="classomnetpp_1_1cPostModuleReparentNotification.html" target="_top" xlink:title="Model change notification fired after a module has been reparented.">
<polygon fill="white" stroke="black" points="310.5,-836.5 310.5,-855.5 489.5,-855.5 489.5,-836.5 310.5,-836.5"/>
<text text-anchor="middle" x="400" y="-843.5" font-family="Helvetica,sans-Serif" font-size="10.00">cPostModuleReparentNotification</text>
</a>
</g>
</g>
<!-- Node12&#45;&gt;Node28 -->
<g id="edge23" class="edge">
<title>Node12&#45;&gt;Node28</title>
<path fill="none" stroke="midnightblue" d="M253.46,-819.35C283.23,-824.8 318.52,-831.26 346.89,-836.46"/>
<polygon fill="midnightblue" stroke="midnightblue" points="254.06,-815.9 243.59,-817.54 252.8,-822.78 254.06,-815.9"/>
</g>
<!-- Node29 -->
<g id="node25" class="node">
<title>Node29</title>
<g id="a_node25"><a xlink:href="classomnetpp_1_1cPostParameterChangeNotification.html" target="_top" xlink:title="Model change notification fired after a parameter change.">
<polygon fill="white" stroke="black" points="307,-798.5 307,-817.5 493,-817.5 493,-798.5 307,-798.5"/>
<text text-anchor="middle" x="400" y="-805.5" font-family="Helvetica,sans-Serif" font-size="10.00">cPostParameterChangeNotification</text>
</a>
</g>
</g>
<!-- Node12&#45;&gt;Node29 -->
<g id="edge24" class="edge">
<title>Node12&#45;&gt;Node29</title>
<path fill="none" stroke="midnightblue" d="M273.21,-808C284.24,-808 295.61,-808 306.8,-808"/>
<polygon fill="midnightblue" stroke="midnightblue" points="273.2,-804.5 263.2,-808 273.2,-811.5 273.2,-804.5"/>
</g>
<!-- Node30 -->
<g id="node26" class="node">
<title>Node30</title>
<g id="a_node26"><a xlink:href="classomnetpp_1_1cPreDisplayStringChangeNotification.html" target="_top" xlink:title="Model change notification fired just before a display string change.">
<polygon fill="white" stroke="black" points="302,-760.5 302,-779.5 498,-779.5 498,-760.5 302,-760.5"/>
<text text-anchor="middle" x="400" y="-767.5" font-family="Helvetica,sans-Serif" font-size="10.00">cPreDisplayStringChangeNotification</text>
</a>
</g>
</g>
<!-- Node12&#45;&gt;Node30 -->
<g id="edge25" class="edge">
<title>Node12&#45;&gt;Node30</title>
<path fill="none" stroke="midnightblue" d="M253.46,-796.65C283.23,-791.2 318.52,-784.74 346.89,-779.54"/>
<polygon fill="midnightblue" stroke="midnightblue" points="252.8,-793.22 243.59,-798.46 254.06,-800.1 252.8,-793.22"/>
</g>
<!-- Node31 -->
<g id="node27" class="node">
<title>Node31</title>
<g id="a_node27"><a xlink:href="classomnetpp_1_1cPreGateAddNotification.html" target="_top" xlink:title="Model change notification fired just before a gate or gate vector is added to the module.">
<polygon fill="white" stroke="black" points="332,-722.5 332,-741.5 468,-741.5 468,-722.5 332,-722.5"/>
<text text-anchor="middle" x="400" y="-729.5" font-family="Helvetica,sans-Serif" font-size="10.00">cPreGateAddNotification</text>
</a>
</g>
</g>
<!-- Node12&#45;&gt;Node31 -->
<g id="edge26" class="edge">
<title>Node12&#45;&gt;Node31</title>
<path fill="none" stroke="midnightblue" d="M215.19,-793.27C236.99,-780.33 270.6,-761.92 302,-751 312.94,-747.19 324.85,-744.07 336.47,-741.54"/>
<polygon fill="midnightblue" stroke="midnightblue" points="213.37,-790.28 206.62,-798.44 216.99,-796.27 213.37,-790.28"/>
</g>
<!-- Node32 -->
<g id="node28" class="node">
<title>Node32</title>
<g id="a_node28"><a xlink:href="classomnetpp_1_1cPreGateConnectNotification.html" target="_top" xlink:title="Model change notification fired just before a gate is connected.">
<polygon fill="white" stroke="black" points="321.5,-684.5 321.5,-703.5 478.5,-703.5 478.5,-684.5 321.5,-684.5"/>
<text text-anchor="middle" x="400" y="-691.5" font-family="Helvetica,sans-Serif" font-size="10.00">cPreGateConnectNotification</text>
</a>
</g>
</g>
<!-- Node12&#45;&gt;Node32 -->
<g id="edge27" class="edge">
<title>Node12&#45;&gt;Node32</title>
<path fill="none" stroke="midnightblue" d="M206.13,-790.84C225.67,-769.11 262.44,-732.2 302,-713 310.03,-709.1 318.8,-706.01 327.67,-703.55"/>
<polygon fill="midnightblue" stroke="midnightblue" points="203.49,-788.54 199.51,-798.36 208.75,-793.16 203.49,-788.54"/>
</g>
<!-- Node33 -->
<g id="node29" class="node">
<title>Node33</title>
<g id="a_node29"><a xlink:href="classomnetpp_1_1cPreGateDeleteNotification.html" target="_top" xlink:title="Model change notification fired just before a gate is deleted.">
<polygon fill="white" stroke="black" points="325.5,-646.5 325.5,-665.5 474.5,-665.5 474.5,-646.5 325.5,-646.5"/>
<text text-anchor="middle" x="400" y="-653.5" font-family="Helvetica,sans-Serif" font-size="10.00">cPreGateDeleteNotification</text>
</a>
</g>
</g>
<!-- Node12&#45;&gt;Node33 -->
<g id="edge28" class="edge">
<title>Node12&#45;&gt;Node33</title>
<path fill="none" stroke="midnightblue" d="M201.24,-789.56C217.77,-760.22 254.22,-703.35 302,-675 309.23,-670.71 317.25,-667.37 325.49,-664.76"/>
<polygon fill="midnightblue" stroke="midnightblue" points="198.15,-787.92 196.41,-798.37 204.29,-791.28 198.15,-787.92"/>
</g>
<!-- Node34 -->
<g id="node30" class="node">
<title>Node34</title>
<g id="a_node30"><a xlink:href="classomnetpp_1_1cPreGateDisconnectNotification.html" target="_top" xlink:title="Model change notification fired just before a gate has been disconnected.">
<polygon fill="white" stroke="black" points="314.5,-608.5 314.5,-627.5 485.5,-627.5 485.5,-608.5 314.5,-608.5"/>
<text text-anchor="middle" x="400" y="-615.5" font-family="Helvetica,sans-Serif" font-size="10.00">cPreGateDisconnectNotification</text>
</a>
</g>
</g>
<!-- Node12&#45;&gt;Node34 -->
<g id="edge29" class="edge">
<title>Node12&#45;&gt;Node34</title>
<path fill="none" stroke="midnightblue" d="M198.2,-788.49C211.7,-752.31 245.77,-675.08 302,-637 307.68,-633.15 313.96,-630.04 320.5,-627.53"/>
<polygon fill="midnightblue" stroke="midnightblue" points="194.76,-787.71 194.67,-798.31 201.35,-790.08 194.76,-787.71"/>
</g>
<!-- Node35 -->
<g id="node31" class="node">
<title>Node35</title>
<g id="a_node31"><a xlink:href="classomnetpp_1_1cPreGateVectorResizeNotification.html" target="_top" xlink:title="Model change notification fired just before a gate vector is resized.">
<polygon fill="white" stroke="black" points="310,-570.5 310,-589.5 490,-589.5 490,-570.5 310,-570.5"/>
<text text-anchor="middle" x="400" y="-577.5" font-family="Helvetica,sans-Serif" font-size="10.00">cPreGateVectorResizeNotification</text>
</a>
</g>
</g>
<!-- Node12&#45;&gt;Node35 -->
<g id="edge30" class="edge">
<title>Node12&#45;&gt;Node35</title>
<path fill="none" stroke="midnightblue" d="M195.86,-788.32C206.25,-746.26 236.67,-647.53 302,-599 307.1,-595.21 312.75,-592.12 318.68,-589.61"/>
<polygon fill="midnightblue" stroke="midnightblue" points="192.42,-787.62 193.54,-798.16 199.24,-789.23 192.42,-787.62"/>
</g>
<!-- Node36 -->
<g id="node32" class="node">
<title>Node36</title>
<g id="a_node32"><a xlink:href="classomnetpp_1_1cPreModuleAddNotification.html" target="_top" xlink:title="Model change notification fired just before a module is inserted into the network.">
<polygon fill="white" stroke="black" points="325.5,-532.5 325.5,-551.5 474.5,-551.5 474.5,-532.5 325.5,-532.5"/>
<text text-anchor="middle" x="400" y="-539.5" font-family="Helvetica,sans-Serif" font-size="10.00">cPreModuleAddNotification</text>
</a>
</g>
</g>
<!-- Node12&#45;&gt;Node36 -->
<g id="edge31" class="edge">
<title>Node12&#45;&gt;Node36</title>
<path fill="none" stroke="midnightblue" d="M194.17,-788.1C201.67,-740.63 227.44,-620.29 302,-561 308.85,-555.55 316.82,-551.52 325.19,-548.56"/>
<polygon fill="midnightblue" stroke="midnightblue" points="190.67,-787.88 192.68,-798.28 197.59,-788.9 190.67,-787.88"/>
</g>
<!-- Node37 -->
<g id="node33" class="node">
<title>Node37</title>
<g id="a_node33"><a xlink:href="classomnetpp_1_1cPreModuleDeleteNotification.html" target="_top" xlink:title="Model change notification fired just before a module is deleted.">
<polygon fill="white" stroke="black" points="319,-494.5 319,-513.5 481,-513.5 481,-494.5 319,-494.5"/>
<text text-anchor="middle" x="400" y="-501.5" font-family="Helvetica,sans-Serif" font-size="10.00">cPreModuleDeleteNotification</text>
</a>
</g>
</g>
<!-- Node12&#45;&gt;Node37 -->
<g id="edge32" class="edge">
<title>Node12&#45;&gt;Node37</title>
<path fill="none" stroke="midnightblue" d="M192.88,-787.96C197.63,-735.5 218.03,-593.32 302,-523 307,-518.81 312.65,-515.45 318.65,-512.76"/>
<polygon fill="midnightblue" stroke="midnightblue" points="189.37,-788.01 192.05,-798.26 196.34,-788.57 189.37,-788.01"/>
</g>
<!-- Node38 -->
<g id="node34" class="node">
<title>Node38</title>
<g id="a_node34"><a xlink:href="classomnetpp_1_1cPreModuleReparentNotification.html" target="_top" xlink:title="Model change notification fired just before a module is reparented.">
<polygon fill="white" stroke="black" points="313,-456.5 313,-475.5 487,-475.5 487,-456.5 313,-456.5"/>
<text text-anchor="middle" x="400" y="-463.5" font-family="Helvetica,sans-Serif" font-size="10.00">cPreModuleReparentNotification</text>
</a>
</g>
</g>
<!-- Node12&#45;&gt;Node38 -->
<g id="edge33" class="edge">
<title>Node12&#45;&gt;Node38</title>
<path fill="none" stroke="midnightblue" d="M191.85,-788.03C194,-731.07 208.4,-566.64 302,-485 306.27,-481.28 311.05,-478.2 316.13,-475.66"/>
<polygon fill="midnightblue" stroke="midnightblue" points="188.35,-788.12 191.56,-798.21 195.34,-788.32 188.35,-788.12"/>
</g>
<!-- Node39 -->
<g id="node35" class="node">
<title>Node39</title>
<g id="a_node35"><a xlink:href="classomnetpp_1_1cPreParameterChangeNotification.html" target="_top" xlink:title="Model change notification fired just before a parameter change.">
<polygon fill="white" stroke="black" points="309.5,-418.5 309.5,-437.5 490.5,-437.5 490.5,-418.5 309.5,-418.5"/>
<text text-anchor="middle" x="400" y="-425.5" font-family="Helvetica,sans-Serif" font-size="10.00">cPreParameterChangeNotification</text>
</a>
</g>
</g>
<!-- Node12&#45;&gt;Node39 -->
<g id="edge34" class="edge">
<title>Node12&#45;&gt;Node39</title>
<path fill="none" stroke="midnightblue" d="M191.03,-788.19C190.72,-727.11 198.64,-540.17 302,-447 306.21,-443.21 310.94,-440.08 316,-437.5"/>
<polygon fill="midnightblue" stroke="midnightblue" points="187.53,-788.42 191.16,-798.38 194.53,-788.33 187.53,-788.42"/>
</g>
<!-- Node41 -->
<g id="node37" class="node">
<title>Node41</title>
<g id="a_node37"><a xlink:href="classomnetpp_1_1cClassDescriptor.html" target="_top" xlink:title="Abstract base class for class descriptors.">
<polygon fill="white" stroke="black" points="351,-380.5 351,-399.5 449,-399.5 449,-380.5 351,-380.5"/>
<text text-anchor="middle" x="400" y="-387.5" font-family="Helvetica,sans-Serif" font-size="10.00">cClassDescriptor</text>
</a>
</g>
</g>
<!-- Node40&#45;&gt;Node41 -->
<g id="edge36" class="edge">
<title>Node40&#45;&gt;Node41</title>
<path fill="none" stroke="midnightblue" d="M203.43,-274.96C221.52,-300.64 258.42,-347.35 302,-371 316.78,-379.02 334.46,-383.69 350.65,-386.39"/>
<polygon fill="midnightblue" stroke="midnightblue" points="206.19,-272.79 197.64,-266.53 200.42,-276.76 206.19,-272.79"/>
</g>
<!-- Node42 -->
<g id="node38" class="node">
<title>Node42</title>
<g id="a_node38"><a xlink:href="classomnetpp_1_1cComponentType.html" target="_top" xlink:title="Common base class for cModuleType and cChannelType.">
<polygon fill="white" stroke="red" points="349.5,-342.5 349.5,-361.5 450.5,-361.5 450.5,-342.5 349.5,-342.5"/>
<text text-anchor="middle" x="400" y="-349.5" font-family="Helvetica,sans-Serif" font-size="10.00">cComponentType</text>
</a>
</g>
</g>
<!-- Node40&#45;&gt;Node42 -->
<g id="edge37" class="edge">
<title>Node40&#45;&gt;Node42</title>
<path fill="none" stroke="midnightblue" d="M209.95,-273.26C230.82,-290.77 266.53,-318.09 302,-333 316.87,-339.25 333.9,-343.47 349.49,-346.31"/>
<polygon fill="midnightblue" stroke="midnightblue" points="212.08,-270.48 202.21,-266.65 207.53,-275.81 212.08,-270.48"/>
</g>
<!-- Node45 -->
<g id="node39" class="node">
<title>Node45</title>
<g id="a_node39"><a xlink:href="classomnetpp_1_1cConfigOption.html" target="_top" xlink:title="Describes a configuration option.">
<polygon fill="white" stroke="black" points="357.5,-304.5 357.5,-323.5 442.5,-323.5 442.5,-304.5 357.5,-304.5"/>
<text text-anchor="middle" x="400" y="-311.5" font-family="Helvetica,sans-Serif" font-size="10.00">cConfigOption</text>
</a>
</g>
</g>
<!-- Node40&#45;&gt;Node45 -->
<g id="edge38" class="edge">
<title>Node40&#45;&gt;Node45</title>
<path fill="none" stroke="midnightblue" d="M225.62,-270.1C247.27,-278.07 276,-288.02 302,-295 319.9,-299.81 339.96,-303.94 357.17,-307.11"/>
<polygon fill="midnightblue" stroke="midnightblue" points="226.8,-266.8 216.21,-266.6 224.36,-273.36 226.8,-266.8"/>
</g>
<!-- Node46 -->
<g id="node40" class="node">
<title>Node46</title>
<g id="a_node40"><a xlink:href="classomnetpp_1_1cMessagePrinter.html" target="_top" xlink:title="Base class for message printers.">
<polygon fill="white" stroke="red" points="351,-266.5 351,-285.5 449,-285.5 449,-266.5 351,-266.5"/>
<text text-anchor="middle" x="400" y="-273.5" font-family="Helvetica,sans-Serif" font-size="10.00">cMessagePrinter</text>
</a>
</g>
</g>
<!-- Node40&#45;&gt;Node46 -->
<g id="edge39" class="edge">
<title>Node40&#45;&gt;Node46</title>
<path fill="none" stroke="midnightblue" d="M276.16,-264.75C301.62,-267.08 328.67,-269.56 350.88,-271.59"/>
<polygon fill="midnightblue" stroke="midnightblue" points="276.4,-261.26 266.12,-263.83 275.76,-268.23 276.4,-261.26"/>
</g>
<!-- Node48 -->
<g id="node41" class="node">
<title>Node48</title>
<g id="a_node41"><a xlink:href="classomnetpp_1_1cNedFunction.html" target="_top" xlink:title="Registration class for extending NED with arbitrary new functions.">
<polygon fill="white" stroke="black" points="358.5,-228.5 358.5,-247.5 441.5,-247.5 441.5,-228.5 358.5,-228.5"/>
<text text-anchor="middle" x="400" y="-235.5" font-family="Helvetica,sans-Serif" font-size="10.00">cNedFunction</text>
</a>
</g>
</g>
<!-- Node40&#45;&gt;Node48 -->
<g id="edge40" class="edge">
<title>Node40&#45;&gt;Node48</title>
<path fill="none" stroke="midnightblue" d="M276.08,-249.25C304.53,-246.65 334.97,-243.86 358.44,-241.71"/>
<polygon fill="midnightblue" stroke="midnightblue" points="275.76,-245.77 266.12,-250.17 276.4,-252.74 275.76,-245.77"/>
</g>
<!-- Node49 -->
<g id="node42" class="node">
<title>Node49</title>
<g id="a_node42"><a xlink:href="classomnetpp_1_1cNedMathFunction.html" target="_top" xlink:title="Registration class for extending NED with new mathematical functions.">
<polygon fill="white" stroke="black" points="346.5,-190.5 346.5,-209.5 453.5,-209.5 453.5,-190.5 346.5,-190.5"/>
<text text-anchor="middle" x="400" y="-197.5" font-family="Helvetica,sans-Serif" font-size="10.00">cNedMathFunction</text>
</a>
</g>
</g>
<!-- Node40&#45;&gt;Node49 -->
<g id="edge41" class="edge">
<title>Node40&#45;&gt;Node49</title>
<path fill="none" stroke="midnightblue" d="M246.06,-244.68C252.85,-242.68 259.64,-240.45 266,-238 282.88,-231.5 284.94,-225.03 302,-219 316.08,-214.03 331.79,-210.24 346.4,-207.41"/>
<polygon fill="midnightblue" stroke="midnightblue" points="244.85,-241.38 236.16,-247.44 246.73,-248.12 244.85,-241.38"/>
</g>
<!-- Node50 -->
<g id="node43" class="node">
<title>Node50</title>
<g id="a_node43"><a xlink:href="classomnetpp_1_1cObjectFactory.html" target="_top" xlink:title="The class behind the createOne() function and the Register_Class() macro.">
<polygon fill="white" stroke="black" points="355.5,-152.5 355.5,-171.5 444.5,-171.5 444.5,-152.5 355.5,-152.5"/>
<text text-anchor="middle" x="400" y="-159.5" font-family="Helvetica,sans-Serif" font-size="10.00">cObjectFactory</text>
</a>
</g>
</g>
<!-- Node40&#45;&gt;Node50 -->
<g id="edge42" class="edge">
<title>Node40&#45;&gt;Node50</title>
<path fill="none" stroke="midnightblue" d="M257.59,-243.21C260.53,-241.65 263.35,-239.92 266,-238 290.24,-220.38 277.28,-197.93 302,-181 317.43,-170.43 337.31,-165.42 355.05,-163.15"/>
<polygon fill="midnightblue" stroke="midnightblue" points="256.12,-240.03 248.48,-247.37 259.03,-246.4 256.12,-240.03"/>
</g>
<!-- Node51 -->
<g id="node44" class="node">
<title>Node51</title>
<g id="a_node44"><a xlink:href="classomnetpp_1_1cOutVector.html" target="_top" xlink:title="Responsible for recording an &quot;output vector&quot; into the simulation results file. An output vector is a ...">
<polygon fill="white" stroke="black" points="365,-114.5 365,-133.5 435,-133.5 435,-114.5 365,-114.5"/>
<text text-anchor="middle" x="400" y="-121.5" font-family="Helvetica,sans-Serif" font-size="10.00">cOutVector</text>
</a>
</g>
</g>
<!-- Node40&#45;&gt;Node51 -->
<g id="edge43" class="edge">
<title>Node40&#45;&gt;Node51</title>
<path fill="none" stroke="midnightblue" d="M260.48,-242.3C262.41,-240.98 264.26,-239.55 266,-238 299.67,-207.92 267.49,-172.12 302,-143 319.31,-128.39 344.56,-123.8 364.96,-122.77"/>
<polygon fill="midnightblue" stroke="midnightblue" points="258.49,-239.4 251.51,-247.37 261.94,-245.49 258.49,-239.4"/>
</g>
<!-- Node52 -->
<g id="node45" class="node">
<title>Node52</title>
<g id="a_node45"><a xlink:href="classomnetpp_1_1cResultFilterType.html" target="_top" xlink:title="Registers a cResultFilter.">
<polygon fill="white" stroke="black" points="350,-76.5 350,-95.5 450,-95.5 450,-76.5 350,-76.5"/>
<text text-anchor="middle" x="400" y="-83.5" font-family="Helvetica,sans-Serif" font-size="10.00">cResultFilterType</text>
</a>
</g>
</g>
<!-- Node40&#45;&gt;Node52 -->
<g id="edge44" class="edge">
<title>Node40&#45;&gt;Node52</title>
<path fill="none" stroke="midnightblue" d="M261.35,-242.02C262.98,-240.78 264.54,-239.44 266,-238 309.62,-195.02 257.19,-146.74 302,-105 314.81,-93.07 332.81,-87.63 349.83,-85.4"/>
<polygon fill="midnightblue" stroke="midnightblue" points="259.28,-239.18 252.63,-247.43 262.97,-245.13 259.28,-239.18"/>
</g>
<!-- Node53 -->
<g id="node46" class="node">
<title>Node53</title>
<g id="a_node46"><a xlink:href="classomnetpp_1_1cResultRecorderType.html" target="_top" xlink:title="Registers a cResultRecorder.">
<polygon fill="white" stroke="black" points="340.5,-38.5 340.5,-57.5 459.5,-57.5 459.5,-38.5 340.5,-38.5"/>
<text text-anchor="middle" x="400" y="-45.5" font-family="Helvetica,sans-Serif" font-size="10.00">cResultRecorderType</text>
</a>
</g>
</g>
<!-- Node40&#45;&gt;Node53 -->
<g id="edge45" class="edge">
<title>Node40&#45;&gt;Node53</title>
<path fill="none" stroke="midnightblue" d="M261.97,-241.72C263.38,-240.56 264.73,-239.32 266,-238 319.75,-181.94 246.7,-121.53 302,-67 312.26,-56.88 326.24,-51.35 340.38,-48.5"/>
<polygon fill="midnightblue" stroke="midnightblue" points="259.65,-239.05 253.22,-247.48 263.5,-244.9 259.65,-239.05"/>
</g>
<!-- Node54 -->
<g id="node47" class="node">
<title>Node54</title>
<g id="a_node47"><a xlink:href="classomnetpp_1_1cSoftOwner.html" target="_top" xlink:title="Internal class, used as a base class for modules and channels. It is not intended for subclassing out...">
<polygon fill="white" stroke="red" points="364,-0.5 364,-19.5 436,-19.5 436,-0.5 364,-0.5"/>
<text text-anchor="middle" x="400" y="-7.5" font-family="Helvetica,sans-Serif" font-size="10.00">cSoftOwner</text>
</a>
</g>
</g>
<!-- Node40&#45;&gt;Node54 -->
<g id="edge46" class="edge">
<title>Node40&#45;&gt;Node54</title>
<path fill="none" stroke="midnightblue" d="M262.14,-241.69C263.49,-240.54 264.79,-239.31 266,-238 329.96,-168.77 236.12,-96.41 302,-29 317.83,-12.8 343.13,-8.26 363.92,-7.65"/>
<polygon fill="midnightblue" stroke="midnightblue" points="260.01,-238.9 253.73,-247.43 263.96,-244.69 260.01,-238.9"/>
</g>
</g>
</svg>
