<?xml version="1.0" encoding="UTF-8" standalone="no"?>
<!DOCTYPE svg PUBLIC "-//W3C//DTD SVG 1.1//EN"
 "http://www.w3.org/Graphics/SVG/1.1/DTD/svg11.dtd">
<!-- Generated by graphviz version 2.43.0 (0)
 -->
<!-- Title: cPrecollectionBasedHistogramStrategy Pages: 1 -->
<svg width="343pt" height="207pt"
 viewBox="0.00 0.00 342.50 207.00" xmlns="http://www.w3.org/2000/svg" xmlns:xlink="http://www.w3.org/1999/xlink">
<g id="graph0" class="graph" transform="scale(1 1) rotate(0) translate(4 203)">
<title>cPrecollectionBasedHistogramStrategy</title>
<polygon fill="white" stroke="transparent" points="-4,4 -4,-203 338.5,-203 338.5,4 -4,4"/>
<!-- Node1 -->
<g id="node1" class="node">
<title>Node1</title>
<g id="a_node1"><a xlink:title="Base class for histogram strategies that employ a precollection phase in order to gather input for se...">
<polygon fill="#bfbfbf" stroke="black" points="88.5,-56.5 88.5,-86.5 254.5,-86.5 254.5,-56.5 88.5,-56.5"/>
<text text-anchor="start" x="96.5" y="-74.5" font-family="Helvetica,sans-Serif" font-size="10.00">cPrecollectionBasedHistogram</text>
<text text-anchor="middle" x="171.5" y="-63.5" font-family="Helvetica,sans-Serif" font-size="10.00">Strategy</text>
</a>
</g>
</g>
<!-- Node4 -->
<g id="node4" class="node">
<title>Node4</title>
<g id="a_node4"><a xlink:href="classomnetpp_1_1cAutoRangeHistogramStrategy.html" target="_top" xlink:title="A generic, very configurable histogram strategy that is meant to provide a good quality histogram for...">
<polygon fill="white" stroke="black" points="0,-0.5 0,-19.5 167,-19.5 167,-0.5 0,-0.5"/>
<text text-anchor="middle" x="83.5" y="-7.5" font-family="Helvetica,sans-Serif" font-size="10.00">cAutoRangeHistogramStrategy</text>
</a>
</g>
</g>
<!-- Node1&#45;&gt;Node4 -->
<g id="edge3" class="edge">
<title>Node1&#45;&gt;Node4</title>
<path fill="none" stroke="midnightblue" d="M142.33,-50.78C126.73,-40.23 108.32,-27.78 96.3,-19.66"/>
<polygon fill="midnightblue" stroke="midnightblue" points="140.4,-53.7 150.65,-56.4 144.32,-47.9 140.4,-53.7"/>
</g>
<!-- Node5 -->
<g id="node5" class="node">
<title>Node5</title>
<g id="a_node5"><a xlink:href="classomnetpp_1_1cDefaultHistogramStrategy.html" target="_top" xlink:title="A strategy class used by the default setup of cHistogram. It is meant to provide a good quality unifo...">
<polygon fill="white" stroke="black" points="184.5,-0.5 184.5,-19.5 334.5,-19.5 334.5,-0.5 184.5,-0.5"/>
<text text-anchor="middle" x="259.5" y="-7.5" font-family="Helvetica,sans-Serif" font-size="10.00">cDefaultHistogramStrategy</text>
</a>
</g>
</g>
<!-- Node1&#45;&gt;Node5 -->
<g id="edge4" class="edge">
<title>Node1&#45;&gt;Node5</title>
<path fill="none" stroke="midnightblue" d="M200.67,-50.78C216.27,-40.23 234.68,-27.78 246.7,-19.66"/>
<polygon fill="midnightblue" stroke="midnightblue" points="198.68,-47.9 192.35,-56.4 202.6,-53.7 198.68,-47.9"/>
</g>
<!-- Node2 -->
<g id="node2" class="node">
<title>Node2</title>
<g id="a_node2"><a xlink:href="classomnetpp_1_1cIHistogramStrategy.html" target="_top" xlink:title="Interface for histogram strategy classes. Histogram strategies encapsulate the task of setting up and...">
<polygon fill="white" stroke="black" points="113,-123.5 113,-142.5 230,-142.5 230,-123.5 113,-123.5"/>
<text text-anchor="middle" x="171.5" y="-130.5" font-family="Helvetica,sans-Serif" font-size="10.00">cIHistogramStrategy</text>
</a>
</g>
</g>
<!-- Node2&#45;&gt;Node1 -->
<g id="edge1" class="edge">
<title>Node2&#45;&gt;Node1</title>
<path fill="none" stroke="midnightblue" d="M171.5,-113.23C171.5,-104.59 171.5,-94.5 171.5,-86.52"/>
<polygon fill="midnightblue" stroke="midnightblue" points="168,-113.48 171.5,-123.48 175,-113.48 168,-113.48"/>
</g>
<!-- Node3 -->
<g id="node3" class="node">
<title>Node3</title>
<g id="a_node3"><a xlink:href="classomnetpp_1_1cObject.html" target="_top" xlink:title="cObject is a lightweight class which serves as the root of the OMNeT++ class hierarchy....">
<polygon fill="white" stroke="black" points="145,-179.5 145,-198.5 198,-198.5 198,-179.5 145,-179.5"/>
<text text-anchor="middle" x="171.5" y="-186.5" font-family="Helvetica,sans-Serif" font-size="10.00">cObject</text>
</a>
</g>
</g>
<!-- Node3&#45;&gt;Node2 -->
<g id="edge2" class="edge">
<title>Node3&#45;&gt;Node2</title>
<path fill="none" stroke="midnightblue" d="M171.5,-168.8C171.5,-159.91 171.5,-149.78 171.5,-142.75"/>
<polygon fill="midnightblue" stroke="midnightblue" points="168,-169.08 171.5,-179.08 175,-169.08 168,-169.08"/>
</g>
</g>
</svg>
