<?xml version="1.0" encoding="UTF-8" standalone="no"?>
<!DOCTYPE svg PUBLIC "-//W3C//DTD SVG 1.1//EN"
 "http://www.w3.org/Graphics/SVG/1.1/DTD/svg11.dtd">
<!-- Generated by graphviz version 2.43.0 (0)
 -->
<!-- Title: cAbstractImageFigure Pages: 1 -->
<svg width="198pt" height="252pt"
 viewBox="0.00 0.00 198.00 252.00" xmlns="http://www.w3.org/2000/svg" xmlns:xlink="http://www.w3.org/1999/xlink">
<g id="graph0" class="graph" transform="scale(1 1) rotate(0) translate(4 248)">
<title>cAbstractImageFigure</title>
<polygon fill="white" stroke="transparent" points="-4,4 -4,-248 194,-248 194,4 -4,4"/>
<!-- Node1 -->
<g id="node1" class="node">
<title>Node1</title>
<g id="a_node1"><a xlink:title="Abstract base class for figures that display an image.">
<polygon fill="#bfbfbf" stroke="black" points="32,-112.5 32,-131.5 155,-131.5 155,-112.5 32,-112.5"/>
<text text-anchor="middle" x="93.5" y="-119.5" font-family="Helvetica,sans-Serif" font-size="10.00">cAbstractImageFigure</text>
</a>
</g>
</g>
<!-- Node6 -->
<g id="node4" class="node">
<title>Node6</title>
<g id="a_node4"><a xlink:href="classomnetpp_1_1cImageFigure.html" target="_top" xlink:title="A figure that displays an image, typically an icon or a background image, loaded from the OMNeT++ ima...">
<polygon fill="white" stroke="black" points="0,-56.5 0,-75.5 83,-75.5 83,-56.5 0,-56.5"/>
<text text-anchor="middle" x="41.5" y="-63.5" font-family="Helvetica,sans-Serif" font-size="10.00">cImageFigure</text>
</a>
</g>
</g>
<!-- Node1&#45;&gt;Node6 -->
<g id="edge3" class="edge">
<title>Node1&#45;&gt;Node6</title>
<path fill="none" stroke="midnightblue" d="M77.82,-104.72C68.66,-95.2 57.45,-83.56 49.93,-75.75"/>
<polygon fill="midnightblue" stroke="midnightblue" points="75.46,-107.31 84.91,-112.08 80.5,-102.45 75.46,-107.31"/>
</g>
<!-- Node8 -->
<g id="node6" class="node">
<title>Node8</title>
<g id="a_node6"><a xlink:href="classomnetpp_1_1cPixmapFigure.html" target="_top" xlink:title="A figure that displays an image that can be manipulated programmatically.">
<polygon fill="white" stroke="black" points="101,-56.5 101,-75.5 190,-75.5 190,-56.5 101,-56.5"/>
<text text-anchor="middle" x="145.5" y="-63.5" font-family="Helvetica,sans-Serif" font-size="10.00">cPixmapFigure</text>
</a>
</g>
</g>
<!-- Node1&#45;&gt;Node8 -->
<g id="edge5" class="edge">
<title>Node1&#45;&gt;Node8</title>
<path fill="none" stroke="midnightblue" d="M109.18,-104.72C118.34,-95.2 129.55,-83.56 137.07,-75.75"/>
<polygon fill="midnightblue" stroke="midnightblue" points="106.5,-102.45 102.09,-112.08 111.54,-107.31 106.5,-102.45"/>
</g>
<!-- Node2 -->
<g id="node2" class="node">
<title>Node2</title>
<g id="a_node2"><a xlink:href="classomnetpp_1_1cFigure.html" target="_top" xlink:title="A lightweight graphical object for cCanvas.">
<polygon fill="white" stroke="black" points="67.5,-168.5 67.5,-187.5 119.5,-187.5 119.5,-168.5 67.5,-168.5"/>
<text text-anchor="middle" x="93.5" y="-175.5" font-family="Helvetica,sans-Serif" font-size="10.00">cFigure</text>
</a>
</g>
</g>
<!-- Node2&#45;&gt;Node1 -->
<g id="edge1" class="edge">
<title>Node2&#45;&gt;Node1</title>
<path fill="none" stroke="midnightblue" d="M93.5,-157.8C93.5,-148.91 93.5,-138.78 93.5,-131.75"/>
<polygon fill="midnightblue" stroke="midnightblue" points="90,-158.08 93.5,-168.08 97,-158.08 90,-158.08"/>
</g>
<!-- Node3 -->
<g id="node3" class="node">
<title>Node3</title>
<g id="a_node3"><a xlink:href="classomnetpp_1_1cOwnedObject.html" target="_top" xlink:title="A cObject that keeps track of its owner. It serves as base class for many classes in the OMNeT++ libr...">
<polygon fill="white" stroke="red" points="50,-224.5 50,-243.5 137,-243.5 137,-224.5 50,-224.5"/>
<text text-anchor="middle" x="93.5" y="-231.5" font-family="Helvetica,sans-Serif" font-size="10.00">cOwnedObject</text>
</a>
</g>
</g>
<!-- Node3&#45;&gt;Node2 -->
<g id="edge2" class="edge">
<title>Node3&#45;&gt;Node2</title>
<path fill="none" stroke="midnightblue" d="M93.5,-213.8C93.5,-204.91 93.5,-194.78 93.5,-187.75"/>
<polygon fill="midnightblue" stroke="midnightblue" points="90,-214.08 93.5,-224.08 97,-214.08 90,-214.08"/>
</g>
<!-- Node7 -->
<g id="node5" class="node">
<title>Node7</title>
<g id="a_node5"><a xlink:href="classomnetpp_1_1cIconFigure.html" target="_top" xlink:title="A figure that displays an image, typically an icon or a background image, loaded from the OMNeT++ ima...">
<polygon fill="white" stroke="black" points="5.5,-0.5 5.5,-19.5 77.5,-19.5 77.5,-0.5 5.5,-0.5"/>
<text text-anchor="middle" x="41.5" y="-7.5" font-family="Helvetica,sans-Serif" font-size="10.00">cIconFigure</text>
</a>
</g>
</g>
<!-- Node6&#45;&gt;Node7 -->
<g id="edge4" class="edge">
<title>Node6&#45;&gt;Node7</title>
<path fill="none" stroke="midnightblue" d="M41.5,-45.8C41.5,-36.91 41.5,-26.78 41.5,-19.75"/>
<polygon fill="midnightblue" stroke="midnightblue" points="38,-46.08 41.5,-56.08 45,-46.08 38,-46.08"/>
</g>
</g>
</svg>
