<?xml version="1.0" encoding="UTF-8" standalone="no"?>
<!DOCTYPE svg PUBLIC "-//W3C//DTD SVG 1.1//EN"
 "http://www.w3.org/Graphics/SVG/1.1/DTD/svg11.dtd">
<!-- Generated by graphviz version 2.43.0 (0)
 -->
<!-- Title: cFingerprintCalculator Pages: 1 -->
<svg width="330pt" height="140pt"
 viewBox="0.00 0.00 329.50 140.00" xmlns="http://www.w3.org/2000/svg" xmlns:xlink="http://www.w3.org/1999/xlink">
<g id="graph0" class="graph" transform="scale(1 1) rotate(0) translate(4 136)">
<title>cFingerprintCalculator</title>
<polygon fill="white" stroke="transparent" points="-4,4 -4,-136 325.5,-136 325.5,4 -4,4"/>
<!-- Node1 -->
<g id="node1" class="node">
<title>Node1</title>
<g id="a_node1"><a xlink:title="This class defines the interface for fingerprint calculators.">
<polygon fill="#bfbfbf" stroke="black" points="97.5,-56.5 97.5,-75.5 221.5,-75.5 221.5,-56.5 97.5,-56.5"/>
<text text-anchor="middle" x="159.5" y="-63.5" font-family="Helvetica,sans-Serif" font-size="10.00">cFingerprintCalculator</text>
</a>
</g>
</g>
<!-- Node4 -->
<g id="node4" class="node">
<title>Node4</title>
<g id="a_node4"><a xlink:href="classomnetpp_1_1cMultiFingerprintCalculator.html" target="_top" xlink:title="This class calculates multiple fingerprints simultaneously.">
<polygon fill="white" stroke="black" points="0,-0.5 0,-19.5 149,-19.5 149,-0.5 0,-0.5"/>
<text text-anchor="middle" x="74.5" y="-7.5" font-family="Helvetica,sans-Serif" font-size="10.00">cMultiFingerprintCalculator</text>
</a>
</g>
</g>
<!-- Node1&#45;&gt;Node4 -->
<g id="edge3" class="edge">
<title>Node1&#45;&gt;Node4</title>
<path fill="none" stroke="midnightblue" d="M137.31,-50.9C121.72,-41 101.37,-28.07 88.12,-19.65"/>
<polygon fill="midnightblue" stroke="midnightblue" points="135.53,-53.92 145.84,-56.32 139.28,-48.01 135.53,-53.92"/>
</g>
<!-- Node5 -->
<g id="node5" class="node">
<title>Node5</title>
<g id="a_node5"><a xlink:href="classomnetpp_1_1cSingleFingerprintCalculator.html" target="_top" xlink:title="This class calculates the &quot;fingerprint&quot; of a simulation.">
<polygon fill="white" stroke="black" points="167.5,-0.5 167.5,-19.5 321.5,-19.5 321.5,-0.5 167.5,-0.5"/>
<text text-anchor="middle" x="244.5" y="-7.5" font-family="Helvetica,sans-Serif" font-size="10.00">cSingleFingerprintCalculator</text>
</a>
</g>
</g>
<!-- Node1&#45;&gt;Node5 -->
<g id="edge4" class="edge">
<title>Node1&#45;&gt;Node5</title>
<path fill="none" stroke="midnightblue" d="M181.69,-50.9C197.28,-41 217.63,-28.07 230.88,-19.65"/>
<polygon fill="midnightblue" stroke="midnightblue" points="179.72,-48.01 173.16,-56.32 183.47,-53.92 179.72,-48.01"/>
</g>
<!-- Node2 -->
<g id="node2" class="node">
<title>Node2</title>
<g id="a_node2"><a xlink:href="classomnetpp_1_1cObject.html" target="_top" xlink:title="cObject is a lightweight class which serves as the root of the OMNeT++ class hierarchy....">
<polygon fill="white" stroke="black" points="91,-112.5 91,-131.5 144,-131.5 144,-112.5 91,-112.5"/>
<text text-anchor="middle" x="117.5" y="-119.5" font-family="Helvetica,sans-Serif" font-size="10.00">cObject</text>
</a>
</g>
</g>
<!-- Node2&#45;&gt;Node1 -->
<g id="edge1" class="edge">
<title>Node2&#45;&gt;Node1</title>
<path fill="none" stroke="midnightblue" d="M130.61,-104.14C137.93,-94.74 146.74,-83.4 152.69,-75.75"/>
<polygon fill="midnightblue" stroke="midnightblue" points="127.81,-102.04 124.44,-112.08 133.34,-106.34 127.81,-102.04"/>
</g>
<!-- Node3 -->
<g id="node3" class="node">
<title>Node3</title>
<g id="a_node3"><a xlink:href="classomnetpp_1_1noncopyable.html" target="_top" xlink:title="Utility class, to make it impossible to call the operator= and copy constructor of any class derived ...">
<polygon fill="white" stroke="black" points="162,-112.5 162,-131.5 241,-131.5 241,-112.5 162,-112.5"/>
<text text-anchor="middle" x="201.5" y="-119.5" font-family="Helvetica,sans-Serif" font-size="10.00">noncopyable</text>
</a>
</g>
</g>
<!-- Node3&#45;&gt;Node1 -->
<g id="edge2" class="edge">
<title>Node3&#45;&gt;Node1</title>
<path fill="none" stroke="#8b1a1a" d="M188.39,-104.14C181.07,-94.74 172.26,-83.4 166.31,-75.75"/>
<polygon fill="#8b1a1a" stroke="#8b1a1a" points="185.66,-106.34 194.56,-112.08 191.19,-102.04 185.66,-106.34"/>
</g>
</g>
</svg>
