<?xml version="1.0" encoding="UTF-8" standalone="no"?>
<!DOCTYPE svg PUBLIC "-//W3C//DTD SVG 1.1//EN"
 "http://www.w3.org/Graphics/SVG/1.1/DTD/svg11.dtd">
<!-- Generated by graphviz version 2.43.0 (0)
 -->
<!-- Title: cXMLElement::ParamResolver Pages: 1 -->
<svg width="306pt" height="84pt"
 viewBox="0.00 0.00 306.00 84.00" xmlns="http://www.w3.org/2000/svg" xmlns:xlink="http://www.w3.org/1999/xlink">
<g id="graph0" class="graph" transform="scale(1 1) rotate(0) translate(4 80)">
<title>cXMLElement::ParamResolver</title>
<polygon fill="white" stroke="transparent" points="-4,4 -4,-80 302,-80 302,4 -4,4"/>
<!-- Node1 -->
<g id="node1" class="node">
<title>Node1</title>
<g id="a_node1"><a xlink:title="Base class for classes that resolve parameters ($PARAM) that occur in in XPath expressions to their v...">
<polygon fill="#bfbfbf" stroke="black" points="67.5,-56.5 67.5,-75.5 230.5,-75.5 230.5,-56.5 67.5,-56.5"/>
<text text-anchor="middle" x="149" y="-63.5" font-family="Helvetica,sans-Serif" font-size="10.00">cXMLElement::ParamResolver</text>
</a>
</g>
</g>
<!-- Node2 -->
<g id="node2" class="node">
<title>Node2</title>
<g id="a_node2"><a xlink:href="classomnetpp_1_1ModNameParamResolver.html" target="_top" xlink:title="A parameter resolver class for cXMLElement cXMLElement::getElementByPath().">
<polygon fill="white" stroke="black" points="0,-0.5 0,-19.5 140,-19.5 140,-0.5 0,-0.5"/>
<text text-anchor="middle" x="70" y="-7.5" font-family="Helvetica,sans-Serif" font-size="10.00">ModNameParamResolver</text>
</a>
</g>
</g>
<!-- Node1&#45;&gt;Node2 -->
<g id="edge1" class="edge">
<title>Node1&#45;&gt;Node2</title>
<path fill="none" stroke="midnightblue" d="M127.97,-50.62C113.53,-40.76 94.86,-27.99 82.66,-19.65"/>
<polygon fill="midnightblue" stroke="midnightblue" points="126.08,-53.57 136.31,-56.32 130.03,-47.79 126.08,-53.57"/>
</g>
<!-- Node3 -->
<g id="node3" class="node">
<title>Node3</title>
<g id="a_node3"><a xlink:href="classomnetpp_1_1StringMapParamResolver.html" target="_top" xlink:title="A parameter resolver class for cXMLElement::getElementByPath().">
<polygon fill="white" stroke="black" points="158,-0.5 158,-19.5 298,-19.5 298,-0.5 158,-0.5"/>
<text text-anchor="middle" x="228" y="-7.5" font-family="Helvetica,sans-Serif" font-size="10.00">StringMapParamResolver</text>
</a>
</g>
</g>
<!-- Node1&#45;&gt;Node3 -->
<g id="edge2" class="edge">
<title>Node1&#45;&gt;Node3</title>
<path fill="none" stroke="midnightblue" d="M170.03,-50.62C184.47,-40.76 203.14,-27.99 215.34,-19.65"/>
<polygon fill="midnightblue" stroke="midnightblue" points="167.97,-47.79 161.69,-56.32 171.92,-53.57 167.97,-47.79"/>
</g>
</g>
</svg>
