<?xml version="1.0" encoding="UTF-8" standalone="no"?>
<!DOCTYPE svg PUBLIC "-//W3C//DTD SVG 1.1//EN"
 "http://www.w3.org/Graphics/SVG/1.1/DTD/svg11.dtd">
<!-- Generated by graphviz version 2.43.0 (0)
 -->
<!-- Title: cSoftOwner Pages: 1 -->
<svg width="192pt" height="252pt"
 viewBox="0.00 0.00 192.00 252.00" xmlns="http://www.w3.org/2000/svg" xmlns:xlink="http://www.w3.org/1999/xlink">
<g id="graph0" class="graph" transform="scale(1 1) rotate(0) translate(4 248)">
<title>cSoftOwner</title>
<polygon fill="white" stroke="transparent" points="-4,4 -4,-248 188,-248 188,4 -4,4"/>
<!-- Node1 -->
<g id="node1" class="node">
<title>Node1</title>
<g id="a_node1"><a xlink:title="Internal class, used as a base class for modules and channels. It is not intended for subclassing out...">
<polygon fill="#bfbfbf" stroke="black" points="57.5,-112.5 57.5,-131.5 129.5,-131.5 129.5,-112.5 57.5,-112.5"/>
<text text-anchor="middle" x="93.5" y="-119.5" font-family="Helvetica,sans-Serif" font-size="10.00">cSoftOwner</text>
</a>
</g>
</g>
<!-- Node7 -->
<g id="node5" class="node">
<title>Node7</title>
<g id="a_node5"><a xlink:href="classomnetpp_1_1cComponent.html" target="_top" xlink:title="Common base for module and channel classes.">
<polygon fill="white" stroke="black" points="54.5,-56.5 54.5,-75.5 132.5,-75.5 132.5,-56.5 54.5,-56.5"/>
<text text-anchor="middle" x="93.5" y="-63.5" font-family="Helvetica,sans-Serif" font-size="10.00">cComponent</text>
</a>
</g>
</g>
<!-- Node1&#45;&gt;Node7 -->
<g id="edge4" class="edge">
<title>Node1&#45;&gt;Node7</title>
<path fill="none" stroke="midnightblue" d="M93.5,-101.8C93.5,-92.91 93.5,-82.78 93.5,-75.75"/>
<polygon fill="midnightblue" stroke="midnightblue" points="90,-102.08 93.5,-112.08 97,-102.08 90,-102.08"/>
</g>
<!-- Node2 -->
<g id="node2" class="node">
<title>Node2</title>
<g id="a_node2"><a xlink:href="classomnetpp_1_1cNoncopyableOwnedObject.html" target="_top" xlink:title="Base class for cOwnedObject&#45;based classes that do not wish to support assignment and duplication.">
<polygon fill="white" stroke="black" points="18,-168.5 18,-187.5 169,-187.5 169,-168.5 18,-168.5"/>
<text text-anchor="middle" x="93.5" y="-175.5" font-family="Helvetica,sans-Serif" font-size="10.00">cNoncopyableOwnedObject</text>
</a>
</g>
</g>
<!-- Node2&#45;&gt;Node1 -->
<g id="edge1" class="edge">
<title>Node2&#45;&gt;Node1</title>
<path fill="none" stroke="midnightblue" d="M93.5,-157.8C93.5,-148.91 93.5,-138.78 93.5,-131.75"/>
<polygon fill="midnightblue" stroke="midnightblue" points="90,-158.08 93.5,-168.08 97,-158.08 90,-158.08"/>
</g>
<!-- Node3 -->
<g id="node3" class="node">
<title>Node3</title>
<g id="a_node3"><a xlink:href="classomnetpp_1_1cOwnedObject.html" target="_top" xlink:title="A cObject that keeps track of its owner. It serves as base class for many classes in the OMNeT++ libr...">
<polygon fill="white" stroke="red" points="0,-224.5 0,-243.5 87,-243.5 87,-224.5 0,-224.5"/>
<text text-anchor="middle" x="43.5" y="-231.5" font-family="Helvetica,sans-Serif" font-size="10.00">cOwnedObject</text>
</a>
</g>
</g>
<!-- Node3&#45;&gt;Node2 -->
<g id="edge2" class="edge">
<title>Node3&#45;&gt;Node2</title>
<path fill="none" stroke="midnightblue" d="M58.58,-216.72C67.39,-207.2 78.17,-195.56 85.4,-187.75"/>
<polygon fill="midnightblue" stroke="midnightblue" points="55.98,-214.37 51.76,-224.08 61.12,-219.12 55.98,-214.37"/>
</g>
<!-- Node6 -->
<g id="node4" class="node">
<title>Node6</title>
<g id="a_node4"><a xlink:href="classomnetpp_1_1noncopyable.html" target="_top" xlink:title="Utility class, to make it impossible to call the operator= and copy constructor of any class derived ...">
<polygon fill="white" stroke="black" points="105,-224.5 105,-243.5 184,-243.5 184,-224.5 105,-224.5"/>
<text text-anchor="middle" x="144.5" y="-231.5" font-family="Helvetica,sans-Serif" font-size="10.00">noncopyable</text>
</a>
</g>
</g>
<!-- Node6&#45;&gt;Node2 -->
<g id="edge3" class="edge">
<title>Node6&#45;&gt;Node2</title>
<path fill="none" stroke="#8b1a1a" d="M129.12,-216.72C120.13,-207.2 109.14,-195.56 101.76,-187.75"/>
<polygon fill="#8b1a1a" stroke="#8b1a1a" points="126.67,-219.22 136.08,-224.08 131.76,-214.41 126.67,-219.22"/>
</g>
<!-- Node8 -->
<g id="node6" class="node">
<title>Node8</title>
<g id="a_node6"><a xlink:href="classomnetpp_1_1cChannel.html" target="_top" xlink:title="Base class for channels.">
<polygon fill="white" stroke="red" points="23.5,-0.5 23.5,-19.5 85.5,-19.5 85.5,-0.5 23.5,-0.5"/>
<text text-anchor="middle" x="54.5" y="-7.5" font-family="Helvetica,sans-Serif" font-size="10.00">cChannel</text>
</a>
</g>
</g>
<!-- Node7&#45;&gt;Node8 -->
<g id="edge5" class="edge">
<title>Node7&#45;&gt;Node8</title>
<path fill="none" stroke="midnightblue" d="M81.12,-47.86C74.36,-38.5 66.29,-27.33 60.82,-19.75"/>
<polygon fill="midnightblue" stroke="midnightblue" points="78.37,-50.03 87.06,-56.08 84.04,-45.93 78.37,-50.03"/>
</g>
<!-- Node12 -->
<g id="node7" class="node">
<title>Node12</title>
<g id="a_node7"><a xlink:href="classomnetpp_1_1cModule.html" target="_top" xlink:title="This class represents modules in the simulation.">
<polygon fill="white" stroke="red" points="103.5,-0.5 103.5,-19.5 161.5,-19.5 161.5,-0.5 103.5,-0.5"/>
<text text-anchor="middle" x="132.5" y="-7.5" font-family="Helvetica,sans-Serif" font-size="10.00">cModule</text>
</a>
</g>
</g>
<!-- Node7&#45;&gt;Node12 -->
<g id="edge6" class="edge">
<title>Node7&#45;&gt;Node12</title>
<path fill="none" stroke="midnightblue" d="M105.88,-47.86C112.64,-38.5 120.71,-27.33 126.18,-19.75"/>
<polygon fill="midnightblue" stroke="midnightblue" points="102.96,-45.93 99.94,-56.08 108.63,-50.03 102.96,-45.93"/>
</g>
</g>
</svg>
