<?xml version="1.0" encoding="UTF-8" standalone="no"?>
<!DOCTYPE svg PUBLIC "-//W3C//DTD SVG 1.1//EN"
 "http://www.w3.org/Graphics/SVG/1.1/DTD/svg11.dtd">
<!-- Generated by graphviz version 2.43.0 (0)
 -->
<!-- Title: cModelChangeNotification Pages: 1 -->
<svg width="688pt" height="944pt"
 viewBox="0.00 0.00 688.00 944.00" xmlns="http://www.w3.org/2000/svg" xmlns:xlink="http://www.w3.org/1999/xlink">
<g id="graph0" class="graph" transform="scale(1 1) rotate(0) translate(4 940)">
<title>cModelChangeNotification</title>
<polygon fill="white" stroke="transparent" points="-4,4 -4,-940 684,-940 684,4 -4,4"/>
<!-- Node1 -->
<g id="node1" class="node">
<title>Node1</title>
<g id="a_node1"><a xlink:title="Common base class for data objects that accompany PRE_MODEL_CHANGE and POST_MODEL_CHANGE signals.">
<polygon fill="#bfbfbf" stroke="black" points="115,-418.5 115,-437.5 260,-437.5 260,-418.5 115,-418.5"/>
<text text-anchor="middle" x="187.5" y="-425.5" font-family="Helvetica,sans-Serif" font-size="10.00">cModelChangeNotification</text>
</a>
</g>
</g>
<!-- Node4 -->
<g id="node4" class="node">
<title>Node4</title>
<g id="a_node4"><a xlink:href="classomnetpp_1_1cPathChangeNotification.html" target="_top" xlink:title="Base class for path change notifications.">
<polygon fill="white" stroke="black" points="326,-859.5 326,-878.5 462,-878.5 462,-859.5 326,-859.5"/>
<text text-anchor="middle" x="394" y="-866.5" font-family="Helvetica,sans-Serif" font-size="10.00">cPathChangeNotification</text>
</a>
</g>
</g>
<!-- Node1&#45;&gt;Node4 -->
<g id="edge3" class="edge">
<title>Node1&#45;&gt;Node4</title>
<path fill="none" stroke="midnightblue" d="M190.75,-447.52C199.82,-522.65 236.05,-791.78 296,-849 304.21,-856.84 314.63,-861.96 325.58,-865.25"/>
<polygon fill="midnightblue" stroke="midnightblue" points="194.22,-447.06 189.57,-437.54 187.27,-447.88 194.22,-447.06"/>
</g>
<!-- Node9 -->
<g id="node9" class="node">
<title>Node9</title>
<g id="a_node9"><a xlink:href="classomnetpp_1_1cPostComponentInitializeNotification.html" target="_top" xlink:title="Model change notification fired after a component is initialized.">
<polygon fill="white" stroke="black" points="323.5,-810 323.5,-840 464.5,-840 464.5,-810 323.5,-810"/>
<text text-anchor="start" x="331.5" y="-828" font-family="Helvetica,sans-Serif" font-size="10.00">cPostComponentInitialize</text>
<text text-anchor="middle" x="394" y="-817" font-family="Helvetica,sans-Serif" font-size="10.00">Notification</text>
</a>
</g>
</g>
<!-- Node1&#45;&gt;Node9 -->
<g id="edge8" class="edge">
<title>Node1&#45;&gt;Node9</title>
<path fill="none" stroke="midnightblue" d="M187.88,-448.11C187.12,-510.18 193.62,-700.55 296,-800 303.61,-807.39 313.1,-812.68 323.14,-816.45"/>
<polygon fill="midnightblue" stroke="midnightblue" points="191.39,-447.84 188.09,-437.77 184.39,-447.69 191.39,-447.84"/>
</g>
<!-- Node10 -->
<g id="node10" class="node">
<title>Node10</title>
<g id="a_node10"><a xlink:href="classomnetpp_1_1cPostDisplayStringChangeNotification.html" target="_top" xlink:title="Model change notification fired after a dispay string change.">
<polygon fill="white" stroke="black" points="321.5,-761 321.5,-791 466.5,-791 466.5,-761 321.5,-761"/>
<text text-anchor="start" x="329.5" y="-779" font-family="Helvetica,sans-Serif" font-size="10.00">cPostDisplayStringChange</text>
<text text-anchor="middle" x="394" y="-768" font-family="Helvetica,sans-Serif" font-size="10.00">Notification</text>
</a>
</g>
</g>
<!-- Node1&#45;&gt;Node10 -->
<g id="edge9" class="edge">
<title>Node1&#45;&gt;Node10</title>
<path fill="none" stroke="midnightblue" d="M188.89,-447.69C191.11,-503.9 205.45,-666.5 296,-751 303.25,-757.76 312.08,-762.75 321.42,-766.43"/>
<polygon fill="midnightblue" stroke="midnightblue" points="192.39,-447.53 188.58,-437.64 185.39,-447.75 192.39,-447.53"/>
</g>
<!-- Node11 -->
<g id="node11" class="node">
<title>Node11</title>
<g id="a_node11"><a xlink:href="classomnetpp_1_1cPostGateAddNotification.html" target="_top" xlink:title="Model change notification fired after a gate or gate vector has been added to the module.">
<polygon fill="white" stroke="black" points="323.5,-722.5 323.5,-741.5 464.5,-741.5 464.5,-722.5 323.5,-722.5"/>
<text text-anchor="middle" x="394" y="-729.5" font-family="Helvetica,sans-Serif" font-size="10.00">cPostGateAddNotification</text>
</a>
</g>
</g>
<!-- Node1&#45;&gt;Node11 -->
<g id="edge10" class="edge">
<title>Node1&#45;&gt;Node11</title>
<path fill="none" stroke="midnightblue" d="M189.66,-448.02C193.82,-500.45 212.65,-642.54 296,-713 303.86,-719.65 313.37,-724.22 323.32,-727.33"/>
<polygon fill="midnightblue" stroke="midnightblue" points="193.13,-447.47 188.94,-437.74 186.14,-447.95 193.13,-447.47"/>
</g>
<!-- Node12 -->
<g id="node12" class="node">
<title>Node12</title>
<g id="a_node12"><a xlink:href="classomnetpp_1_1cPostGateConnectNotification.html" target="_top" xlink:title="Model change notification fired after a gate has been connected.">
<polygon fill="white" stroke="black" points="313,-684.5 313,-703.5 475,-703.5 475,-684.5 313,-684.5"/>
<text text-anchor="middle" x="394" y="-691.5" font-family="Helvetica,sans-Serif" font-size="10.00">cPostGateConnectNotification</text>
</a>
</g>
</g>
<!-- Node1&#45;&gt;Node12 -->
<g id="edge11" class="edge">
<title>Node1&#45;&gt;Node12</title>
<path fill="none" stroke="midnightblue" d="M190.92,-447.88C197.81,-495.33 222.07,-615.6 296,-675 301.08,-679.08 306.79,-682.37 312.84,-685.02"/>
<polygon fill="midnightblue" stroke="midnightblue" points="194.35,-447.15 189.55,-437.71 187.42,-448.09 194.35,-447.15"/>
</g>
<!-- Node13 -->
<g id="node13" class="node">
<title>Node13</title>
<g id="a_node13"><a xlink:href="classomnetpp_1_1cPostGateDeleteNotification.html" target="_top" xlink:title="Model change notification fired after a gate has been deleted.">
<polygon fill="white" stroke="black" points="316.5,-646.5 316.5,-665.5 471.5,-665.5 471.5,-646.5 316.5,-646.5"/>
<text text-anchor="middle" x="394" y="-653.5" font-family="Helvetica,sans-Serif" font-size="10.00">cPostGateDeleteNotification</text>
</a>
</g>
</g>
<!-- Node1&#45;&gt;Node13 -->
<g id="edge12" class="edge">
<title>Node1&#45;&gt;Node13</title>
<path fill="none" stroke="midnightblue" d="M192.57,-447.67C202.35,-489.7 231.33,-588.39 296,-637 302.04,-641.54 308.86,-645.08 316.03,-647.82"/>
<polygon fill="midnightblue" stroke="midnightblue" points="195.97,-446.84 190.39,-437.83 189.13,-448.35 195.97,-446.84"/>
</g>
<!-- Node14 -->
<g id="node14" class="node">
<title>Node14</title>
<g id="a_node14"><a xlink:href="classomnetpp_1_1cPostGateDisconnectNotification.html" target="_top" xlink:title="Model change notification fired after a gate is disconnected.">
<polygon fill="white" stroke="black" points="306,-608.5 306,-627.5 482,-627.5 482,-608.5 306,-608.5"/>
<text text-anchor="middle" x="394" y="-615.5" font-family="Helvetica,sans-Serif" font-size="10.00">cPostGateDisconnectNotification</text>
</a>
</g>
</g>
<!-- Node1&#45;&gt;Node14 -->
<g id="edge13" class="edge">
<title>Node1&#45;&gt;Node14</title>
<path fill="none" stroke="midnightblue" d="M194.86,-447.5C207.73,-483.66 240.45,-560.88 296,-599 301.52,-602.79 307.61,-605.86 313.96,-608.35"/>
<polygon fill="midnightblue" stroke="midnightblue" points="198.05,-446.02 191.5,-437.69 191.43,-448.28 198.05,-446.02"/>
</g>
<!-- Node15 -->
<g id="node15" class="node">
<title>Node15</title>
<g id="a_node15"><a xlink:href="classomnetpp_1_1cPostGateVectorResizeNotification.html" target="_top" xlink:title="Model change notification fired after a gate vector has been resized.">
<polygon fill="white" stroke="black" points="301.5,-570.5 301.5,-589.5 486.5,-589.5 486.5,-570.5 301.5,-570.5"/>
<text text-anchor="middle" x="394" y="-577.5" font-family="Helvetica,sans-Serif" font-size="10.00">cPostGateVectorResizeNotification</text>
</a>
</g>
</g>
<!-- Node1&#45;&gt;Node15 -->
<g id="edge14" class="edge">
<title>Node1&#45;&gt;Node15</title>
<path fill="none" stroke="midnightblue" d="M198.05,-446.82C214.04,-476.27 249.14,-532.77 296,-561 302.32,-564.81 309.25,-567.87 316.42,-570.34"/>
<polygon fill="midnightblue" stroke="midnightblue" points="200.96,-444.84 193.21,-437.63 194.77,-448.11 200.96,-444.84"/>
</g>
<!-- Node16 -->
<g id="node16" class="node">
<title>Node16</title>
<g id="a_node16"><a xlink:href="classomnetpp_1_1cPostModuleAddNotification.html" target="_top" xlink:title="Model change notification fired just after a module is inserted into the network.">
<polygon fill="white" stroke="black" points="317,-532.5 317,-551.5 471,-551.5 471,-532.5 317,-532.5"/>
<text text-anchor="middle" x="394" y="-539.5" font-family="Helvetica,sans-Serif" font-size="10.00">cPostModuleAddNotification</text>
</a>
</g>
</g>
<!-- Node1&#45;&gt;Node16 -->
<g id="edge15" class="edge">
<title>Node1&#45;&gt;Node16</title>
<path fill="none" stroke="midnightblue" d="M202.88,-445.46C221.84,-467.23 257.36,-503.92 296,-523 303.92,-526.91 312.59,-530.02 321.37,-532.49"/>
<polygon fill="midnightblue" stroke="midnightblue" points="205.38,-443 196.23,-437.65 200.05,-447.53 205.38,-443"/>
</g>
<!-- Node17 -->
<g id="node17" class="node">
<title>Node17</title>
<g id="a_node17"><a xlink:href="classomnetpp_1_1cPostModuleBuildNotification.html" target="_top" xlink:title="Model change notification fired after a module is built.">
<polygon fill="white" stroke="black" points="314,-494.5 314,-513.5 474,-513.5 474,-494.5 314,-494.5"/>
<text text-anchor="middle" x="394" y="-501.5" font-family="Helvetica,sans-Serif" font-size="10.00">cPostModuleBuildNotification</text>
</a>
</g>
</g>
<!-- Node1&#45;&gt;Node17 -->
<g id="edge16" class="edge">
<title>Node1&#45;&gt;Node17</title>
<path fill="none" stroke="midnightblue" d="M211.78,-442.94C232.95,-455.88 265.47,-474.18 296,-485 306.76,-488.81 318.47,-491.92 329.92,-494.44"/>
<polygon fill="midnightblue" stroke="midnightblue" points="213.51,-439.89 203.17,-437.58 209.81,-445.83 213.51,-439.89"/>
</g>
<!-- Node18 -->
<g id="node18" class="node">
<title>Node18</title>
<g id="a_node18"><a xlink:href="classomnetpp_1_1cPostModuleDeleteNotification.html" target="_top" xlink:title="Model change notification fired after a module has been deleted.">
<polygon fill="white" stroke="black" points="310.5,-456.5 310.5,-475.5 477.5,-475.5 477.5,-456.5 310.5,-456.5"/>
<text text-anchor="middle" x="394" y="-463.5" font-family="Helvetica,sans-Serif" font-size="10.00">cPostModuleDeleteNotification</text>
</a>
</g>
</g>
<!-- Node1&#45;&gt;Node18 -->
<g id="edge17" class="edge">
<title>Node1&#45;&gt;Node18</title>
<path fill="none" stroke="midnightblue" d="M249.95,-439.42C279.21,-444.86 313.8,-451.28 341.64,-456.46"/>
<polygon fill="midnightblue" stroke="midnightblue" points="250.31,-435.93 239.84,-437.54 249.03,-442.81 250.31,-435.93"/>
</g>
<!-- Node19 -->
<g id="node19" class="node">
<title>Node19</title>
<g id="a_node19"><a xlink:href="classomnetpp_1_1cPostModuleReparentNotification.html" target="_top" xlink:title="Model change notification fired after a module has been reparented.">
<polygon fill="white" stroke="black" points="304.5,-418.5 304.5,-437.5 483.5,-437.5 483.5,-418.5 304.5,-418.5"/>
<text text-anchor="middle" x="394" y="-425.5" font-family="Helvetica,sans-Serif" font-size="10.00">cPostModuleReparentNotification</text>
</a>
</g>
</g>
<!-- Node1&#45;&gt;Node19 -->
<g id="edge18" class="edge">
<title>Node1&#45;&gt;Node19</title>
<path fill="none" stroke="midnightblue" d="M270.2,-428C281.39,-428 292.93,-428 304.25,-428"/>
<polygon fill="midnightblue" stroke="midnightblue" points="270.02,-424.5 260.02,-428 270.02,-431.5 270.02,-424.5"/>
</g>
<!-- Node20 -->
<g id="node20" class="node">
<title>Node20</title>
<g id="a_node20"><a xlink:href="classomnetpp_1_1cPostParameterChangeNotification.html" target="_top" xlink:title="Model change notification fired after a parameter change.">
<polygon fill="white" stroke="black" points="301,-380.5 301,-399.5 487,-399.5 487,-380.5 301,-380.5"/>
<text text-anchor="middle" x="394" y="-387.5" font-family="Helvetica,sans-Serif" font-size="10.00">cPostParameterChangeNotification</text>
</a>
</g>
</g>
<!-- Node1&#45;&gt;Node20 -->
<g id="edge19" class="edge">
<title>Node1&#45;&gt;Node20</title>
<path fill="none" stroke="midnightblue" d="M249.95,-416.58C279.21,-411.14 313.8,-404.72 341.64,-399.54"/>
<polygon fill="midnightblue" stroke="midnightblue" points="249.03,-413.19 239.84,-418.46 250.31,-420.07 249.03,-413.19"/>
</g>
<!-- Node21 -->
<g id="node21" class="node">
<title>Node21</title>
<g id="a_node21"><a xlink:href="classomnetpp_1_1cPreDisplayStringChangeNotification.html" target="_top" xlink:title="Model change notification fired just before a display string change.">
<polygon fill="white" stroke="black" points="296,-342.5 296,-361.5 492,-361.5 492,-342.5 296,-342.5"/>
<text text-anchor="middle" x="394" y="-349.5" font-family="Helvetica,sans-Serif" font-size="10.00">cPreDisplayStringChangeNotification</text>
</a>
</g>
</g>
<!-- Node1&#45;&gt;Node21 -->
<g id="edge20" class="edge">
<title>Node1&#45;&gt;Node21</title>
<path fill="none" stroke="midnightblue" d="M211.78,-413.06C232.95,-400.12 265.47,-381.82 296,-371 306.76,-367.19 318.47,-364.08 329.92,-361.56"/>
<polygon fill="midnightblue" stroke="midnightblue" points="209.81,-410.17 203.17,-418.42 213.51,-416.11 209.81,-410.17"/>
</g>
<!-- Node22 -->
<g id="node22" class="node">
<title>Node22</title>
<g id="a_node22"><a xlink:href="classomnetpp_1_1cPreGateAddNotification.html" target="_top" xlink:title="Model change notification fired just before a gate or gate vector is added to the module.">
<polygon fill="white" stroke="black" points="326,-304.5 326,-323.5 462,-323.5 462,-304.5 326,-304.5"/>
<text text-anchor="middle" x="394" y="-311.5" font-family="Helvetica,sans-Serif" font-size="10.00">cPreGateAddNotification</text>
</a>
</g>
</g>
<!-- Node1&#45;&gt;Node22 -->
<g id="edge21" class="edge">
<title>Node1&#45;&gt;Node22</title>
<path fill="none" stroke="midnightblue" d="M202.88,-410.54C221.84,-388.77 257.36,-352.08 296,-333 305.31,-328.4 315.64,-324.92 325.98,-322.28"/>
<polygon fill="midnightblue" stroke="midnightblue" points="200.05,-408.47 196.23,-418.35 205.38,-413 200.05,-408.47"/>
</g>
<!-- Node23 -->
<g id="node23" class="node">
<title>Node23</title>
<g id="a_node23"><a xlink:href="classomnetpp_1_1cPreGateConnectNotification.html" target="_top" xlink:title="Model change notification fired just before a gate is connected.">
<polygon fill="white" stroke="black" points="315.5,-266.5 315.5,-285.5 472.5,-285.5 472.5,-266.5 315.5,-266.5"/>
<text text-anchor="middle" x="394" y="-273.5" font-family="Helvetica,sans-Serif" font-size="10.00">cPreGateConnectNotification</text>
</a>
</g>
</g>
<!-- Node1&#45;&gt;Node23 -->
<g id="edge22" class="edge">
<title>Node1&#45;&gt;Node23</title>
<path fill="none" stroke="midnightblue" d="M198.05,-409.18C214.04,-379.73 249.14,-323.23 296,-295 302.32,-291.19 309.25,-288.13 316.42,-285.66"/>
<polygon fill="midnightblue" stroke="midnightblue" points="194.77,-407.89 193.21,-418.37 200.96,-411.16 194.77,-407.89"/>
</g>
<!-- Node24 -->
<g id="node24" class="node">
<title>Node24</title>
<g id="a_node24"><a xlink:href="classomnetpp_1_1cPreGateDeleteNotification.html" target="_top" xlink:title="Model change notification fired just before a gate is deleted.">
<polygon fill="white" stroke="black" points="319.5,-228.5 319.5,-247.5 468.5,-247.5 468.5,-228.5 319.5,-228.5"/>
<text text-anchor="middle" x="394" y="-235.5" font-family="Helvetica,sans-Serif" font-size="10.00">cPreGateDeleteNotification</text>
</a>
</g>
</g>
<!-- Node1&#45;&gt;Node24 -->
<g id="edge23" class="edge">
<title>Node1&#45;&gt;Node24</title>
<path fill="none" stroke="midnightblue" d="M194.86,-408.5C207.73,-372.34 240.45,-295.12 296,-257 303.07,-252.14 311.09,-248.46 319.4,-245.68"/>
<polygon fill="midnightblue" stroke="midnightblue" points="191.43,-407.72 191.5,-418.31 198.05,-409.98 191.43,-407.72"/>
</g>
<!-- Node25 -->
<g id="node25" class="node">
<title>Node25</title>
<g id="a_node25"><a xlink:href="classomnetpp_1_1cPreGateDisconnectNotification.html" target="_top" xlink:title="Model change notification fired just before a gate has been disconnected.">
<polygon fill="white" stroke="black" points="308.5,-190.5 308.5,-209.5 479.5,-209.5 479.5,-190.5 308.5,-190.5"/>
<text text-anchor="middle" x="394" y="-197.5" font-family="Helvetica,sans-Serif" font-size="10.00">cPreGateDisconnectNotification</text>
</a>
</g>
</g>
<!-- Node1&#45;&gt;Node25 -->
<g id="edge24" class="edge">
<title>Node1&#45;&gt;Node25</title>
<path fill="none" stroke="midnightblue" d="M192.57,-408.33C202.35,-366.3 231.33,-267.61 296,-219 301.08,-215.18 306.71,-212.08 312.64,-209.55"/>
<polygon fill="midnightblue" stroke="midnightblue" points="189.13,-407.65 190.39,-418.17 195.97,-409.16 189.13,-407.65"/>
</g>
<!-- Node26 -->
<g id="node26" class="node">
<title>Node26</title>
<g id="a_node26"><a xlink:href="classomnetpp_1_1cPreGateVectorResizeNotification.html" target="_top" xlink:title="Model change notification fired just before a gate vector is resized.">
<polygon fill="white" stroke="black" points="304,-152.5 304,-171.5 484,-171.5 484,-152.5 304,-152.5"/>
<text text-anchor="middle" x="394" y="-159.5" font-family="Helvetica,sans-Serif" font-size="10.00">cPreGateVectorResizeNotification</text>
</a>
</g>
</g>
<!-- Node1&#45;&gt;Node26 -->
<g id="edge25" class="edge">
<title>Node1&#45;&gt;Node26</title>
<path fill="none" stroke="midnightblue" d="M190.92,-408.12C197.81,-360.67 222.07,-240.4 296,-181 300.68,-177.24 305.9,-174.15 311.41,-171.62"/>
<polygon fill="midnightblue" stroke="midnightblue" points="187.42,-407.91 189.55,-418.29 194.35,-408.85 187.42,-407.91"/>
</g>
<!-- Node27 -->
<g id="node27" class="node">
<title>Node27</title>
<g id="a_node27"><a xlink:href="classomnetpp_1_1cPreModuleAddNotification.html" target="_top" xlink:title="Model change notification fired just before a module is inserted into the network.">
<polygon fill="white" stroke="black" points="319.5,-114.5 319.5,-133.5 468.5,-133.5 468.5,-114.5 319.5,-114.5"/>
<text text-anchor="middle" x="394" y="-121.5" font-family="Helvetica,sans-Serif" font-size="10.00">cPreModuleAddNotification</text>
</a>
</g>
</g>
<!-- Node1&#45;&gt;Node27 -->
<g id="edge26" class="edge">
<title>Node1&#45;&gt;Node27</title>
<path fill="none" stroke="midnightblue" d="M189.66,-407.98C193.82,-355.55 212.65,-213.46 296,-143 302.81,-137.24 310.86,-133.04 319.36,-129.99"/>
<polygon fill="midnightblue" stroke="midnightblue" points="186.14,-408.05 188.94,-418.26 193.13,-408.53 186.14,-408.05"/>
</g>
<!-- Node28 -->
<g id="node28" class="node">
<title>Node28</title>
<g id="a_node28"><a xlink:href="classomnetpp_1_1cPreModuleDeleteNotification.html" target="_top" xlink:title="Model change notification fired just before a module is deleted.">
<polygon fill="white" stroke="black" points="313,-76.5 313,-95.5 475,-95.5 475,-76.5 313,-76.5"/>
<text text-anchor="middle" x="394" y="-83.5" font-family="Helvetica,sans-Serif" font-size="10.00">cPreModuleDeleteNotification</text>
</a>
</g>
</g>
<!-- Node1&#45;&gt;Node28 -->
<g id="edge27" class="edge">
<title>Node1&#45;&gt;Node28</title>
<path fill="none" stroke="midnightblue" d="M188.65,-408.05C190.23,-351.12 203.01,-186.8 296,-105 301.02,-100.58 306.77,-97.07 312.9,-94.28"/>
<polygon fill="midnightblue" stroke="midnightblue" points="185.15,-408.16 188.46,-418.22 192.14,-408.29 185.15,-408.16"/>
</g>
<!-- Node29 -->
<g id="node29" class="node">
<title>Node29</title>
<g id="a_node29"><a xlink:href="classomnetpp_1_1cPreModuleReparentNotification.html" target="_top" xlink:title="Model change notification fired just before a module is reparented.">
<polygon fill="white" stroke="black" points="307,-38.5 307,-57.5 481,-57.5 481,-38.5 307,-38.5"/>
<text text-anchor="middle" x="394" y="-45.5" font-family="Helvetica,sans-Serif" font-size="10.00">cPreModuleReparentNotification</text>
</a>
</g>
</g>
<!-- Node1&#45;&gt;Node29 -->
<g id="edge28" class="edge">
<title>Node1&#45;&gt;Node29</title>
<path fill="none" stroke="midnightblue" d="M187.84,-408.21C186.98,-347.17 193.23,-160.35 296,-67 300.06,-63.31 304.63,-60.24 309.5,-57.7"/>
<polygon fill="midnightblue" stroke="midnightblue" points="184.35,-408.47 188.08,-418.38 191.35,-408.31 184.35,-408.47"/>
</g>
<!-- Node30 -->
<g id="node30" class="node">
<title>Node30</title>
<g id="a_node30"><a xlink:href="classomnetpp_1_1cPreParameterChangeNotification.html" target="_top" xlink:title="Model change notification fired just before a parameter change.">
<polygon fill="white" stroke="black" points="303.5,-0.5 303.5,-19.5 484.5,-19.5 484.5,-0.5 303.5,-0.5"/>
<text text-anchor="middle" x="394" y="-7.5" font-family="Helvetica,sans-Serif" font-size="10.00">cPreParameterChangeNotification</text>
</a>
</g>
</g>
<!-- Node1&#45;&gt;Node30 -->
<g id="edge29" class="edge">
<title>Node1&#45;&gt;Node30</title>
<path fill="none" stroke="midnightblue" d="M191.08,-408.08C200.96,-334.91 238.73,-82.41 296,-29 300.02,-25.25 304.54,-22.15 309.39,-19.58"/>
<polygon fill="midnightblue" stroke="midnightblue" points="187.58,-407.86 189.73,-418.23 194.52,-408.78 187.58,-407.86"/>
</g>
<!-- Node2 -->
<g id="node2" class="node">
<title>Node2</title>
<g id="a_node2"><a xlink:href="classomnetpp_1_1cObject.html" target="_top" xlink:title="cObject is a lightweight class which serves as the root of the OMNeT++ class hierarchy....">
<polygon fill="white" stroke="black" points="13,-437.5 13,-456.5 66,-456.5 66,-437.5 13,-437.5"/>
<text text-anchor="middle" x="39.5" y="-444.5" font-family="Helvetica,sans-Serif" font-size="10.00">cObject</text>
</a>
</g>
</g>
<!-- Node2&#45;&gt;Node1 -->
<g id="edge1" class="edge">
<title>Node2&#45;&gt;Node1</title>
<path fill="none" stroke="midnightblue" d="M76.47,-442.32C88.15,-440.8 101.57,-439.05 114.92,-437.32"/>
<polygon fill="midnightblue" stroke="midnightblue" points="75.73,-438.89 66.27,-443.65 76.63,-445.83 75.73,-438.89"/>
</g>
<!-- Node3 -->
<g id="node3" class="node">
<title>Node3</title>
<g id="a_node3"><a xlink:href="classomnetpp_1_1noncopyable.html" target="_top" xlink:title="Utility class, to make it impossible to call the operator= and copy constructor of any class derived ...">
<polygon fill="white" stroke="black" points="0,-399.5 0,-418.5 79,-418.5 79,-399.5 0,-399.5"/>
<text text-anchor="middle" x="39.5" y="-406.5" font-family="Helvetica,sans-Serif" font-size="10.00">noncopyable</text>
</a>
</g>
</g>
<!-- Node3&#45;&gt;Node1 -->
<g id="edge2" class="edge">
<title>Node3&#45;&gt;Node1</title>
<path fill="none" stroke="#8b1a1a" d="M89.34,-415.36C97.53,-416.42 106.19,-417.55 114.81,-418.67"/>
<polygon fill="#8b1a1a" stroke="#8b1a1a" points="89.61,-411.86 79.24,-414.04 88.71,-418.8 89.61,-411.86"/>
</g>
<!-- Node5 -->
<g id="node5" class="node">
<title>Node5</title>
<g id="a_node5"><a xlink:href="classomnetpp_1_1cPostPathCreateNotification.html" target="_top" xlink:title="Model change notification fired after a connection path has been created.">
<polygon fill="white" stroke="black" points="528,-916.5 528,-935.5 680,-935.5 680,-916.5 528,-916.5"/>
<text text-anchor="middle" x="604" y="-923.5" font-family="Helvetica,sans-Serif" font-size="10.00">cPostPathCreateNotification</text>
</a>
</g>
</g>
<!-- Node4&#45;&gt;Node5 -->
<g id="edge4" class="edge">
<title>Node4&#45;&gt;Node5</title>
<path fill="none" stroke="midnightblue" d="M437.38,-881.46C463.46,-889.04 497.6,-898.81 528,-907 539.8,-910.18 552.69,-913.5 564.4,-916.46"/>
<polygon fill="midnightblue" stroke="midnightblue" points="438.03,-878 427.45,-878.57 436.07,-884.72 438.03,-878"/>
</g>
<!-- Node6 -->
<g id="node6" class="node">
<title>Node6</title>
<g id="a_node6"><a xlink:href="classomnetpp_1_1cPostPathCutNotification.html" target="_top" xlink:title="Model change notification fired after a connection path has been cut.">
<polygon fill="white" stroke="black" points="535.5,-878.5 535.5,-897.5 672.5,-897.5 672.5,-878.5 535.5,-878.5"/>
<text text-anchor="middle" x="604" y="-885.5" font-family="Helvetica,sans-Serif" font-size="10.00">cPostPathCutNotification</text>
</a>
</g>
</g>
<!-- Node4&#45;&gt;Node6 -->
<g id="edge5" class="edge">
<title>Node4&#45;&gt;Node6</title>
<path fill="none" stroke="midnightblue" d="M472.26,-876.06C492.95,-877.95 515.15,-879.97 535.27,-881.81"/>
<polygon fill="midnightblue" stroke="midnightblue" points="472.52,-872.57 462.24,-875.14 471.88,-879.54 472.52,-872.57"/>
</g>
<!-- Node7 -->
<g id="node7" class="node">
<title>Node7</title>
<g id="a_node7"><a xlink:href="classomnetpp_1_1cPrePathCreateNotification.html" target="_top" xlink:title="Model change notification fired just before a connection path is created.">
<polygon fill="white" stroke="black" points="530.5,-840.5 530.5,-859.5 677.5,-859.5 677.5,-840.5 530.5,-840.5"/>
<text text-anchor="middle" x="604" y="-847.5" font-family="Helvetica,sans-Serif" font-size="10.00">cPrePathCreateNotification</text>
</a>
</g>
</g>
<!-- Node4&#45;&gt;Node7 -->
<g id="edge6" class="edge">
<title>Node4&#45;&gt;Node7</title>
<path fill="none" stroke="midnightblue" d="M472.33,-861.94C491.28,-860.2 511.51,-858.36 530.24,-856.65"/>
<polygon fill="midnightblue" stroke="midnightblue" points="471.88,-858.46 462.24,-862.86 472.52,-865.43 471.88,-858.46"/>
</g>
<!-- Node8 -->
<g id="node8" class="node">
<title>Node8</title>
<g id="a_node8"><a xlink:href="classomnetpp_1_1cPrePathCutNotification.html" target="_top" xlink:title="Model change notification fired just before a connection path is cut.">
<polygon fill="white" stroke="black" points="538.5,-802.5 538.5,-821.5 669.5,-821.5 669.5,-802.5 538.5,-802.5"/>
<text text-anchor="middle" x="604" y="-809.5" font-family="Helvetica,sans-Serif" font-size="10.00">cPrePathCutNotification</text>
</a>
</g>
</g>
<!-- Node4&#45;&gt;Node8 -->
<g id="edge7" class="edge">
<title>Node4&#45;&gt;Node8</title>
<path fill="none" stroke="midnightblue" d="M463.62,-857.18C473.26,-854.85 482.96,-852.13 492,-849 508.9,-843.14 511.23,-837.23 528,-831 537.69,-827.4 548.34,-824.24 558.49,-821.59"/>
<polygon fill="midnightblue" stroke="midnightblue" points="462.59,-853.83 453.63,-859.47 464.16,-860.65 462.59,-853.83"/>
</g>
</g>
</svg>
