<?xml version="1.0" encoding="UTF-8" standalone="no"?>
<!DOCTYPE svg PUBLIC "-//W3C//DTD SVG 1.1//EN"
 "http://www.w3.org/Graphics/SVG/1.1/DTD/svg11.dtd">
<!-- Generated by graphviz version 2.43.0 (0)
 -->
<!-- Title: cRegistrationList Pages: 1 -->
<svg width="194pt" height="140pt"
 viewBox="0.00 0.00 194.00 140.00" xmlns="http://www.w3.org/2000/svg" xmlns:xlink="http://www.w3.org/1999/xlink">
<g id="graph0" class="graph" transform="scale(1 1) rotate(0) translate(4 136)">
<title>cRegistrationList</title>
<polygon fill="white" stroke="transparent" points="-4,4 -4,-136 190,-136 190,4 -4,4"/>
<!-- Node1 -->
<g id="node1" class="node">
<title>Node1</title>
<g id="a_node1"><a xlink:title="Implements a list or table of objects with qualified names.">
<polygon fill="#bfbfbf" stroke="black" points="46.5,-0.5 46.5,-19.5 144.5,-19.5 144.5,-0.5 46.5,-0.5"/>
<text text-anchor="middle" x="95.5" y="-7.5" font-family="Helvetica,sans-Serif" font-size="10.00">cRegistrationList</text>
</a>
</g>
</g>
<!-- Node2 -->
<g id="node2" class="node">
<title>Node2</title>
<g id="a_node2"><a xlink:href="classomnetpp_1_1cNamedObject.html" target="_top" xlink:title="Extends cObject with a name string. Also includes a &quot;flags&quot; member, with bits open for use by subclas...">
<polygon fill="white" stroke="black" points="0,-56.5 0,-75.5 89,-75.5 89,-56.5 0,-56.5"/>
<text text-anchor="middle" x="44.5" y="-63.5" font-family="Helvetica,sans-Serif" font-size="10.00">cNamedObject</text>
</a>
</g>
</g>
<!-- Node2&#45;&gt;Node1 -->
<g id="edge1" class="edge">
<title>Node2&#45;&gt;Node1</title>
<path fill="none" stroke="midnightblue" d="M59.88,-48.72C68.87,-39.2 79.86,-27.56 87.24,-19.75"/>
<polygon fill="midnightblue" stroke="midnightblue" points="57.24,-46.41 52.92,-56.08 62.33,-51.22 57.24,-46.41"/>
</g>
<!-- Node3 -->
<g id="node3" class="node">
<title>Node3</title>
<g id="a_node3"><a xlink:href="classomnetpp_1_1cObject.html" target="_top" xlink:title="cObject is a lightweight class which serves as the root of the OMNeT++ class hierarchy....">
<polygon fill="white" stroke="black" points="18,-112.5 18,-131.5 71,-131.5 71,-112.5 18,-112.5"/>
<text text-anchor="middle" x="44.5" y="-119.5" font-family="Helvetica,sans-Serif" font-size="10.00">cObject</text>
</a>
</g>
</g>
<!-- Node3&#45;&gt;Node2 -->
<g id="edge2" class="edge">
<title>Node3&#45;&gt;Node2</title>
<path fill="none" stroke="midnightblue" d="M44.5,-101.8C44.5,-92.91 44.5,-82.78 44.5,-75.75"/>
<polygon fill="midnightblue" stroke="midnightblue" points="41,-102.08 44.5,-112.08 48,-102.08 41,-102.08"/>
</g>
<!-- Node4 -->
<g id="node4" class="node">
<title>Node4</title>
<g id="a_node4"><a xlink:href="classomnetpp_1_1noncopyable.html" target="_top" xlink:title="Utility class, to make it impossible to call the operator= and copy constructor of any class derived ...">
<polygon fill="white" stroke="black" points="107,-56.5 107,-75.5 186,-75.5 186,-56.5 107,-56.5"/>
<text text-anchor="middle" x="146.5" y="-63.5" font-family="Helvetica,sans-Serif" font-size="10.00">noncopyable</text>
</a>
</g>
</g>
<!-- Node4&#45;&gt;Node1 -->
<g id="edge3" class="edge">
<title>Node4&#45;&gt;Node1</title>
<path fill="none" stroke="#8b1a1a" d="M131.12,-48.72C122.13,-39.2 111.14,-27.56 103.76,-19.75"/>
<polygon fill="#8b1a1a" stroke="#8b1a1a" points="128.67,-51.22 138.08,-56.08 133.76,-46.41 128.67,-51.22"/>
</g>
</g>
</svg>
