<?xml version="1.0" encoding="UTF-8" standalone="no"?>
<!DOCTYPE svg PUBLIC "-//W3C//DTD SVG 1.1//EN"
 "http://www.w3.org/Graphics/SVG/1.1/DTD/svg11.dtd">
<!-- Generated by graphviz version 2.43.0 (0)
 -->
<!-- Title: cChannel Pages: 1 -->
<svg width="324pt" height="196pt"
 viewBox="0.00 0.00 324.00 196.00" xmlns="http://www.w3.org/2000/svg" xmlns:xlink="http://www.w3.org/1999/xlink">
<g id="graph0" class="graph" transform="scale(1 1) rotate(0) translate(4 192)">
<title>cChannel</title>
<polygon fill="white" stroke="transparent" points="-4,4 -4,-192 320,-192 320,4 -4,4"/>
<!-- Node1 -->
<g id="node1" class="node">
<title>Node1</title>
<g id="a_node1"><a xlink:title="Base class for channels.">
<polygon fill="#bfbfbf" stroke="black" points="136,-56.5 136,-75.5 198,-75.5 198,-56.5 136,-56.5"/>
<text text-anchor="middle" x="167" y="-63.5" font-family="Helvetica,sans-Serif" font-size="10.00">cChannel</text>
</a>
</g>
</g>
<!-- Node9 -->
<g id="node4" class="node">
<title>Node9</title>
<g id="a_node4"><a xlink:href="classomnetpp_1_1cDatarateChannel.html" target="_top" xlink:title="A transmission channel model that supports propagation delay, transmission duration computed from a d...">
<polygon fill="white" stroke="black" points="0,-0.5 0,-19.5 104,-19.5 104,-0.5 0,-0.5"/>
<text text-anchor="middle" x="52" y="-7.5" font-family="Helvetica,sans-Serif" font-size="10.00">cDatarateChannel</text>
</a>
</g>
</g>
<!-- Node1&#45;&gt;Node9 -->
<g id="edge3" class="edge">
<title>Node1&#45;&gt;Node9</title>
<path fill="none" stroke="midnightblue" d="M139.52,-52.1C118.03,-42.01 88.78,-28.27 70.14,-19.52"/>
<polygon fill="midnightblue" stroke="midnightblue" points="138.24,-55.36 148.78,-56.44 141.21,-49.02 138.24,-55.36"/>
</g>
<!-- Node10 -->
<g id="node5" class="node">
<title>Node10</title>
<g id="a_node5"><a xlink:href="classomnetpp_1_1cDelayChannel.html" target="_top" xlink:title="Channel with propagation delay.">
<polygon fill="white" stroke="black" points="122,-0.5 122,-19.5 212,-19.5 212,-0.5 122,-0.5"/>
<text text-anchor="middle" x="167" y="-7.5" font-family="Helvetica,sans-Serif" font-size="10.00">cDelayChannel</text>
</a>
</g>
</g>
<!-- Node1&#45;&gt;Node10 -->
<g id="edge4" class="edge">
<title>Node1&#45;&gt;Node10</title>
<path fill="none" stroke="midnightblue" d="M167,-45.8C167,-36.91 167,-26.78 167,-19.75"/>
<polygon fill="midnightblue" stroke="midnightblue" points="163.5,-46.08 167,-56.08 170.5,-46.08 163.5,-46.08"/>
</g>
<!-- Node11 -->
<g id="node6" class="node">
<title>Node11</title>
<g id="a_node6"><a xlink:href="classomnetpp_1_1cIdealChannel.html" target="_top" xlink:title="Channel with zero propagation delay, zero transmission delay (infinite datarate), and always enabled.">
<polygon fill="white" stroke="black" points="230,-0.5 230,-19.5 316,-19.5 316,-0.5 230,-0.5"/>
<text text-anchor="middle" x="273" y="-7.5" font-family="Helvetica,sans-Serif" font-size="10.00">cIdealChannel</text>
</a>
</g>
</g>
<!-- Node1&#45;&gt;Node11 -->
<g id="edge5" class="edge">
<title>Node1&#45;&gt;Node11</title>
<path fill="none" stroke="midnightblue" d="M193.06,-51.73C212.68,-41.73 239.03,-28.31 256.01,-19.65"/>
<polygon fill="midnightblue" stroke="midnightblue" points="191.35,-48.67 184.03,-56.32 194.53,-54.9 191.35,-48.67"/>
</g>
<!-- Node2 -->
<g id="node2" class="node">
<title>Node2</title>
<g id="a_node2"><a xlink:href="classomnetpp_1_1cComponent.html" target="_top" xlink:title="Common base for module and channel classes.">
<polygon fill="white" stroke="black" points="128,-112.5 128,-131.5 206,-131.5 206,-112.5 128,-112.5"/>
<text text-anchor="middle" x="167" y="-119.5" font-family="Helvetica,sans-Serif" font-size="10.00">cComponent</text>
</a>
</g>
</g>
<!-- Node2&#45;&gt;Node1 -->
<g id="edge1" class="edge">
<title>Node2&#45;&gt;Node1</title>
<path fill="none" stroke="midnightblue" d="M167,-101.8C167,-92.91 167,-82.78 167,-75.75"/>
<polygon fill="midnightblue" stroke="midnightblue" points="163.5,-102.08 167,-112.08 170.5,-102.08 163.5,-102.08"/>
</g>
<!-- Node3 -->
<g id="node3" class="node">
<title>Node3</title>
<g id="a_node3"><a xlink:href="classomnetpp_1_1cSoftOwner.html" target="_top" xlink:title="Internal class, used as a base class for modules and channels. It is not intended for subclassing out...">
<polygon fill="white" stroke="red" points="131,-168.5 131,-187.5 203,-187.5 203,-168.5 131,-168.5"/>
<text text-anchor="middle" x="167" y="-175.5" font-family="Helvetica,sans-Serif" font-size="10.00">cSoftOwner</text>
</a>
</g>
</g>
<!-- Node3&#45;&gt;Node2 -->
<g id="edge2" class="edge">
<title>Node3&#45;&gt;Node2</title>
<path fill="none" stroke="midnightblue" d="M167,-157.8C167,-148.91 167,-138.78 167,-131.75"/>
<polygon fill="midnightblue" stroke="midnightblue" points="163.5,-158.08 167,-168.08 170.5,-158.08 163.5,-158.08"/>
</g>
</g>
</svg>
