<?xml version="1.0" encoding="UTF-8" standalone="no"?>
<!DOCTYPE svg PUBLIC "-//W3C//DTD SVG 1.1//EN"
 "http://www.w3.org/Graphics/SVG/1.1/DTD/svg11.dtd">
<!-- Generated by graphviz version 2.43.0 (0)
 -->
<!-- Title: MergeFilter Pages: 1 -->
<svg width="87pt" height="140pt"
 viewBox="0.00 0.00 87.00 140.00" xmlns="http://www.w3.org/2000/svg" xmlns:xlink="http://www.w3.org/1999/xlink">
<g id="graph0" class="graph" transform="scale(1 1) rotate(0) translate(4 136)">
<title>MergeFilter</title>
<polygon fill="white" stroke="transparent" points="-4,4 -4,-136 83,-136 83,4 -4,4"/>
<!-- Node1 -->
<g id="node1" class="node">
<title>Node1</title>
<g id="a_node1"><a xlink:title="Filter that merges several inputs into one output.">
<polygon fill="#bfbfbf" stroke="black" points="3.5,-0.5 3.5,-19.5 75.5,-19.5 75.5,-0.5 3.5,-0.5"/>
<text text-anchor="middle" x="39.5" y="-7.5" font-family="Helvetica,sans-Serif" font-size="10.00">MergeFilter</text>
</a>
</g>
</g>
<!-- Node2 -->
<g id="node2" class="node">
<title>Node2</title>
<g id="a_node2"><a xlink:href="classomnetpp_1_1IdentityFilter.html" target="_top" xlink:title="This class is a no&#45;op filter.">
<polygon fill="white" stroke="black" points="0,-56.5 0,-75.5 79,-75.5 79,-56.5 0,-56.5"/>
<text text-anchor="middle" x="39.5" y="-63.5" font-family="Helvetica,sans-Serif" font-size="10.00">IdentityFilter</text>
</a>
</g>
</g>
<!-- Node2&#45;&gt;Node1 -->
<g id="edge1" class="edge">
<title>Node2&#45;&gt;Node1</title>
<path fill="none" stroke="midnightblue" d="M39.5,-45.8C39.5,-36.91 39.5,-26.78 39.5,-19.75"/>
<polygon fill="midnightblue" stroke="midnightblue" points="36,-46.08 39.5,-56.08 43,-46.08 36,-46.08"/>
</g>
<!-- Node3 -->
<g id="node3" class="node">
<title>Node3</title>
<g id="a_node3"><a xlink:href="classomnetpp_1_1cResultFilter.html" target="_top" xlink:title="Base class for result filters.">
<polygon fill="white" stroke="red" points="1,-112.5 1,-131.5 78,-131.5 78,-112.5 1,-112.5"/>
<text text-anchor="middle" x="39.5" y="-119.5" font-family="Helvetica,sans-Serif" font-size="10.00">cResultFilter</text>
</a>
</g>
</g>
<!-- Node3&#45;&gt;Node2 -->
<g id="edge2" class="edge">
<title>Node3&#45;&gt;Node2</title>
<path fill="none" stroke="midnightblue" d="M39.5,-101.8C39.5,-92.91 39.5,-82.78 39.5,-75.75"/>
<polygon fill="midnightblue" stroke="midnightblue" points="36,-102.08 39.5,-112.08 43,-102.08 36,-102.08"/>
</g>
</g>
</svg>
