<?xml version="1.0" encoding="UTF-8" standalone="no"?>
<!DOCTYPE svg PUBLIC "-//W3C//DTD SVG 1.1//EN"
 "http://www.w3.org/Graphics/SVG/1.1/DTD/svg11.dtd">
<!-- Generated by graphviz version 2.43.0 (0)
 -->
<!-- Title: IdentityFilter Pages: 1 -->
<svg width="100pt" height="196pt"
 viewBox="0.00 0.00 100.00 196.00" xmlns="http://www.w3.org/2000/svg" xmlns:xlink="http://www.w3.org/1999/xlink">
<g id="graph0" class="graph" transform="scale(1 1) rotate(0) translate(4 192)">
<title>IdentityFilter</title>
<polygon fill="white" stroke="transparent" points="-4,4 -4,-192 96,-192 96,4 -4,4"/>
<!-- Node1 -->
<g id="node1" class="node">
<title>Node1</title>
<g id="a_node1"><a xlink:title="This class is a no&#45;op filter.">
<polygon fill="#bfbfbf" stroke="black" points="6.5,-56.5 6.5,-75.5 85.5,-75.5 85.5,-56.5 6.5,-56.5"/>
<text text-anchor="middle" x="46" y="-63.5" font-family="Helvetica,sans-Serif" font-size="10.00">IdentityFilter</text>
</a>
</g>
</g>
<!-- Node6 -->
<g id="node4" class="node">
<title>Node6</title>
<g id="a_node4"><a xlink:href="classomnetpp_1_1MergeFilter.html" target="_top" xlink:title="Filter that merges several inputs into one output.">
<polygon fill="white" stroke="black" points="10,-0.5 10,-19.5 82,-19.5 82,-0.5 10,-0.5"/>
<text text-anchor="middle" x="46" y="-7.5" font-family="Helvetica,sans-Serif" font-size="10.00">MergeFilter</text>
</a>
</g>
</g>
<!-- Node1&#45;&gt;Node6 -->
<g id="edge3" class="edge">
<title>Node1&#45;&gt;Node6</title>
<path fill="none" stroke="midnightblue" d="M46,-45.8C46,-36.91 46,-26.78 46,-19.75"/>
<polygon fill="midnightblue" stroke="midnightblue" points="42.5,-46.08 46,-56.08 49.5,-46.08 42.5,-46.08"/>
</g>
<!-- Node2 -->
<g id="node2" class="node">
<title>Node2</title>
<g id="a_node2"><a xlink:href="classomnetpp_1_1cResultFilter.html" target="_top" xlink:title="Base class for result filters.">
<polygon fill="white" stroke="black" points="7.5,-112.5 7.5,-131.5 84.5,-131.5 84.5,-112.5 7.5,-112.5"/>
<text text-anchor="middle" x="46" y="-119.5" font-family="Helvetica,sans-Serif" font-size="10.00">cResultFilter</text>
</a>
</g>
</g>
<!-- Node2&#45;&gt;Node1 -->
<g id="edge1" class="edge">
<title>Node2&#45;&gt;Node1</title>
<path fill="none" stroke="midnightblue" d="M46,-101.8C46,-92.91 46,-82.78 46,-75.75"/>
<polygon fill="midnightblue" stroke="midnightblue" points="42.5,-102.08 46,-112.08 49.5,-102.08 42.5,-102.08"/>
</g>
<!-- Node3 -->
<g id="node3" class="node">
<title>Node3</title>
<g id="a_node3"><a xlink:href="classomnetpp_1_1cResultListener.html" target="_top" xlink:title="Common abstract base class for result filters and result recorders.">
<polygon fill="white" stroke="red" points="0,-168.5 0,-187.5 92,-187.5 92,-168.5 0,-168.5"/>
<text text-anchor="middle" x="46" y="-175.5" font-family="Helvetica,sans-Serif" font-size="10.00">cResultListener</text>
</a>
</g>
</g>
<!-- Node3&#45;&gt;Node2 -->
<g id="edge2" class="edge">
<title>Node3&#45;&gt;Node2</title>
<path fill="none" stroke="midnightblue" d="M46,-157.8C46,-148.91 46,-138.78 46,-131.75"/>
<polygon fill="midnightblue" stroke="midnightblue" points="42.5,-158.08 46,-168.08 49.5,-158.08 42.5,-158.08"/>
</g>
</g>
</svg>
