<?xml version="1.0" encoding="UTF-8" standalone="no"?>
<!DOCTYPE svg PUBLIC "-//W3C//DTD SVG 1.1//EN"
 "http://www.w3.org/Graphics/SVG/1.1/DTD/svg11.dtd">
<!-- Generated by graphviz version 2.43.0 (0)
 -->
<!-- Title: cOwnedObject Pages: 1 -->
<svg width="656pt" height="1130pt"
 viewBox="0.00 0.00 656.00 1130.00" xmlns="http://www.w3.org/2000/svg" xmlns:xlink="http://www.w3.org/1999/xlink">
<g id="graph0" class="graph" transform="scale(1 1) rotate(0) translate(4 1126)">
<title>cOwnedObject</title>
<polygon fill="white" stroke="transparent" points="-4,4 -4,-1126 652,-1126 652,4 -4,4"/>
<!-- Node1 -->
<g id="node1" class="node">
<title>Node1</title>
<g id="a_node1"><a xlink:title="A cObject that keeps track of its owner. It serves as base class for many classes in the OMNeT++ libr...">
<polygon fill="#bfbfbf" stroke="black" points="214,-627.5 214,-646.5 301,-646.5 301,-627.5 214,-627.5"/>
<text text-anchor="middle" x="257.5" y="-634.5" font-family="Helvetica,sans-Serif" font-size="10.00">cOwnedObject</text>
</a>
</g>
</g>
<!-- Node4 -->
<g id="node4" class="node">
<title>Node4</title>
<g id="a_node4"><a xlink:href="classomnetpp_1_1cArray.html" target="_top" xlink:title="Vector&#45;like container for objects derived from cObject.">
<polygon fill="white" stroke="black" points="389,-1045.5 389,-1064.5 437,-1064.5 437,-1045.5 389,-1045.5"/>
<text text-anchor="middle" x="413" y="-1052.5" font-family="Helvetica,sans-Serif" font-size="10.00">cArray</text>
</a>
</g>
</g>
<!-- Node1&#45;&gt;Node4 -->
<g id="edge3" class="edge">
<title>Node1&#45;&gt;Node4</title>
<path fill="none" stroke="midnightblue" d="M259.66,-656.75C264.3,-729.34 283.99,-980.06 337,-1036 350.21,-1049.94 372.07,-1054.24 388.78,-1055.31"/>
<polygon fill="midnightblue" stroke="midnightblue" points="263.14,-656.45 259.04,-646.69 256.16,-656.88 263.14,-656.45"/>
</g>
<!-- Node5 -->
<g id="node5" class="node">
<title>Node5</title>
<g id="a_node5"><a xlink:href="classomnetpp_1_1cCanvas.html" target="_top" xlink:title="Provides a scene graph based 2D drawing API for modules.">
<polygon fill="white" stroke="black" points="384,-1007.5 384,-1026.5 442,-1026.5 442,-1007.5 384,-1007.5"/>
<text text-anchor="middle" x="413" y="-1014.5" font-family="Helvetica,sans-Serif" font-size="10.00">cCanvas</text>
</a>
</g>
</g>
<!-- Node1&#45;&gt;Node5 -->
<g id="edge4" class="edge">
<title>Node1&#45;&gt;Node5</title>
<path fill="none" stroke="midnightblue" d="M260.12,-657.03C266.07,-725.43 288.86,-948.19 337,-998 349.04,-1010.46 367.99,-1015.19 383.83,-1016.81"/>
<polygon fill="midnightblue" stroke="midnightblue" points="263.59,-656.45 259.26,-646.78 256.61,-657.04 263.59,-656.45"/>
</g>
<!-- Node6 -->
<g id="node6" class="node">
<title>Node6</title>
<g id="a_node6"><a xlink:href="classomnetpp_1_1cEnum.html" target="_top" xlink:title="Provides string representation for enums.">
<polygon fill="white" stroke="black" points="388,-969.5 388,-988.5 438,-988.5 438,-969.5 388,-969.5"/>
<text text-anchor="middle" x="413" y="-976.5" font-family="Helvetica,sans-Serif" font-size="10.00">cEnum</text>
</a>
</g>
</g>
<!-- Node1&#45;&gt;Node6 -->
<g id="edge5" class="edge">
<title>Node1&#45;&gt;Node6</title>
<path fill="none" stroke="midnightblue" d="M260.67,-656.95C267.96,-720.45 293.61,-916.19 337,-960 350.23,-973.36 371.42,-977.79 387.91,-979.06"/>
<polygon fill="midnightblue" stroke="midnightblue" points="264.11,-656.25 259.52,-646.7 257.15,-657.03 264.11,-656.25"/>
</g>
<!-- Node7 -->
<g id="node7" class="node">
<title>Node7</title>
<g id="a_node7"><a xlink:href="classomnetpp_1_1cEvent.html" target="_top" xlink:title="Represents an event in the discrete event simulator.">
<polygon fill="white" stroke="black" points="388,-931.5 388,-950.5 438,-950.5 438,-931.5 388,-931.5"/>
<text text-anchor="middle" x="413" y="-938.5" font-family="Helvetica,sans-Serif" font-size="10.00">cEvent</text>
</a>
</g>
</g>
<!-- Node1&#45;&gt;Node7 -->
<g id="edge6" class="edge">
<title>Node1&#45;&gt;Node7</title>
<path fill="none" stroke="midnightblue" d="M257.68,-656.61C256.65,-708.03 261.33,-847.88 337,-922 350.34,-935.07 371.3,-939.54 387.68,-940.91"/>
<polygon fill="midnightblue" stroke="midnightblue" points="261.18,-656.63 257.98,-646.53 254.18,-656.42 261.18,-656.63"/>
</g>
<!-- Node10 -->
<g id="node9" class="node">
<title>Node10</title>
<g id="a_node9"><a xlink:href="classomnetpp_1_1cFigure.html" target="_top" xlink:title="A lightweight graphical object for cCanvas.">
<polygon fill="white" stroke="black" points="387,-893.5 387,-912.5 439,-912.5 439,-893.5 387,-893.5"/>
<text text-anchor="middle" x="413" y="-900.5" font-family="Helvetica,sans-Serif" font-size="10.00">cFigure</text>
</a>
</g>
</g>
<!-- Node1&#45;&gt;Node10 -->
<g id="edge8" class="edge">
<title>Node1&#45;&gt;Node10</title>
<path fill="none" stroke="midnightblue" d="M269.27,-655.66C299.43,-707.93 384,-854.49 406.47,-893.41"/>
<polygon fill="midnightblue" stroke="midnightblue" points="272.17,-653.69 264.15,-646.78 266.11,-657.19 272.17,-653.69"/>
</g>
<!-- Node31 -->
<g id="node16" class="node">
<title>Node31</title>
<g id="a_node16"><a xlink:href="classomnetpp_1_1cFSM.html" target="_top" xlink:title="Store the state of an FSM. This class is used in conjunction with the FSM_Switch() and other FSM_ mac...">
<polygon fill="white" stroke="black" points="392,-722.5 392,-741.5 434,-741.5 434,-722.5 392,-722.5"/>
<text text-anchor="middle" x="413" y="-729.5" font-family="Helvetica,sans-Serif" font-size="10.00">cFSM</text>
</a>
</g>
</g>
<!-- Node1&#45;&gt;Node31 -->
<g id="edge15" class="edge">
<title>Node1&#45;&gt;Node31</title>
<path fill="none" stroke="midnightblue" d="M272.13,-654.78C286.43,-672.2 310.48,-698.21 337,-713 354.13,-722.55 376.11,-727.39 391.85,-729.78"/>
<polygon fill="midnightblue" stroke="midnightblue" points="274.55,-652.2 265.58,-646.56 269.08,-656.56 274.55,-652.2"/>
</g>
<!-- Node32 -->
<g id="node17" class="node">
<title>Node32</title>
<g id="a_node17"><a xlink:href="classomnetpp_1_1cFutureEventSet.html" target="_top" xlink:title="Abstract base class for the future event set (FES), a central data structure for discrete event simul...">
<polygon fill="white" stroke="black" points="365,-684.5 365,-703.5 461,-703.5 461,-684.5 365,-684.5"/>
<text text-anchor="middle" x="413" y="-691.5" font-family="Helvetica,sans-Serif" font-size="10.00">cFutureEventSet</text>
</a>
</g>
</g>
<!-- Node1&#45;&gt;Node32 -->
<g id="edge16" class="edge">
<title>Node1&#45;&gt;Node32</title>
<path fill="none" stroke="midnightblue" d="M284.98,-651.48C299.93,-659.23 319.15,-668.49 337,-675 346.84,-678.59 357.65,-681.75 367.92,-684.42"/>
<polygon fill="midnightblue" stroke="midnightblue" points="286.3,-648.22 275.83,-646.65 283.04,-654.42 286.3,-648.22"/>
</g>
<!-- Node34 -->
<g id="node19" class="node">
<title>Node34</title>
<g id="a_node19"><a xlink:href="classomnetpp_1_1cMsgPar.html" target="_top" xlink:title="Allows a value (string, bool, double, etc) to be attached to a cMessage object.">
<polygon fill="white" stroke="black" points="384.5,-646.5 384.5,-665.5 441.5,-665.5 441.5,-646.5 384.5,-646.5"/>
<text text-anchor="middle" x="413" y="-653.5" font-family="Helvetica,sans-Serif" font-size="10.00">cMsgPar</text>
</a>
</g>
</g>
<!-- Node1&#45;&gt;Node34 -->
<g id="edge18" class="edge">
<title>Node1&#45;&gt;Node34</title>
<path fill="none" stroke="midnightblue" d="M311.2,-643.52C335.82,-646.57 364.12,-650.07 384.45,-652.59"/>
<polygon fill="midnightblue" stroke="midnightblue" points="311.61,-640.05 301.26,-642.29 310.75,-646.99 311.61,-640.05"/>
</g>
<!-- Node35 -->
<g id="node20" class="node">
<title>Node35</title>
<g id="a_node20"><a xlink:href="classomnetpp_1_1cNoncopyableOwnedObject.html" target="_top" xlink:title="Base class for cOwnedObject&#45;based classes that do not wish to support assignment and duplication.">
<polygon fill="white" stroke="black" points="337.5,-608.5 337.5,-627.5 488.5,-627.5 488.5,-608.5 337.5,-608.5"/>
<text text-anchor="middle" x="413" y="-615.5" font-family="Helvetica,sans-Serif" font-size="10.00">cNoncopyableOwnedObject</text>
</a>
</g>
</g>
<!-- Node1&#45;&gt;Node35 -->
<g id="edge19" class="edge">
<title>Node1&#45;&gt;Node35</title>
<path fill="none" stroke="midnightblue" d="M311.3,-630.46C319.74,-629.42 328.6,-628.32 337.43,-627.23"/>
<polygon fill="midnightblue" stroke="midnightblue" points="310.75,-627.01 301.26,-631.71 311.61,-633.95 310.75,-627.01"/>
</g>
<!-- Node67 -->
<g id="node33" class="node">
<title>Node67</title>
<g id="a_node33"><a xlink:href="classomnetpp_1_1cOsgCanvas.html" target="_top" xlink:title="Wraps an OpenSceneGraph scene, allowing 3D visualization in graphical user interfaces that support it...">
<polygon fill="white" stroke="black" points="374.5,-570.5 374.5,-589.5 451.5,-589.5 451.5,-570.5 374.5,-570.5"/>
<text text-anchor="middle" x="413" y="-577.5" font-family="Helvetica,sans-Serif" font-size="10.00">cOsgCanvas</text>
</a>
</g>
</g>
<!-- Node1&#45;&gt;Node67 -->
<g id="edge32" class="edge">
<title>Node1&#45;&gt;Node67</title>
<path fill="none" stroke="midnightblue" d="M284.98,-622.52C299.93,-614.77 319.15,-605.51 337,-599 348.86,-594.68 362.13,-590.97 374.16,-588"/>
<polygon fill="midnightblue" stroke="midnightblue" points="283.04,-619.58 275.83,-627.35 286.3,-625.78 283.04,-619.58"/>
</g>
<!-- Node68 -->
<g id="node34" class="node">
<title>Node68</title>
<g id="a_node34"><a xlink:href="classomnetpp_1_1cOwnedDynamicExpression.html" target="_top" xlink:title="An &quot;owned&quot; version cDynamicExpression to allow it to be assigned to module parameters of the type &quot;ob...">
<polygon fill="white" stroke="black" points="337,-532.5 337,-551.5 489,-551.5 489,-532.5 337,-532.5"/>
<text text-anchor="middle" x="413" y="-539.5" font-family="Helvetica,sans-Serif" font-size="10.00">cOwnedDynamicExpression</text>
</a>
</g>
</g>
<!-- Node1&#45;&gt;Node68 -->
<g id="edge33" class="edge">
<title>Node1&#45;&gt;Node68</title>
<path fill="none" stroke="midnightblue" d="M272.13,-619.22C286.43,-601.8 310.48,-575.79 337,-561 343.92,-557.14 351.64,-554.05 359.41,-551.58"/>
<polygon fill="midnightblue" stroke="midnightblue" points="269.08,-617.44 265.58,-627.44 274.55,-621.8 269.08,-617.44"/>
</g>
<!-- Node69 -->
<g id="node35" class="node">
<title>Node69</title>
<g id="a_node35"><a xlink:href="classomnetpp_1_1cQueue.html" target="_top" xlink:title="Queue class for objects derived from cObject.">
<polygon fill="white" stroke="black" points="386.5,-418.5 386.5,-437.5 439.5,-437.5 439.5,-418.5 386.5,-418.5"/>
<text text-anchor="middle" x="413" y="-425.5" font-family="Helvetica,sans-Serif" font-size="10.00">cQueue</text>
</a>
</g>
</g>
<!-- Node1&#45;&gt;Node69 -->
<g id="edge34" class="edge">
<title>Node1&#45;&gt;Node69</title>
<path fill="none" stroke="midnightblue" d="M270.51,-618.78C285.62,-596.05 312.53,-556.16 337,-523 360.58,-491.04 390.22,-454.49 404.12,-437.55"/>
<polygon fill="midnightblue" stroke="midnightblue" points="267.41,-617.12 264.81,-627.39 273.25,-620.99 267.41,-617.12"/>
</g>
<!-- Node71 -->
<g id="node37" class="node">
<title>Node71</title>
<g id="a_node37"><a xlink:href="classomnetpp_1_1cRandom.html" target="_top" xlink:title="Abstract interface for random variate generator classes.">
<polygon fill="white" stroke="red" points="382,-228.5 382,-247.5 444,-247.5 444,-228.5 382,-228.5"/>
<text text-anchor="middle" x="413" y="-235.5" font-family="Helvetica,sans-Serif" font-size="10.00">cRandom</text>
</a>
</g>
</g>
<!-- Node1&#45;&gt;Node71 -->
<g id="edge36" class="edge">
<title>Node1&#45;&gt;Node71</title>
<path fill="none" stroke="midnightblue" d="M264.57,-617.66C277.11,-578.1 307.2,-485.27 337,-409 361.42,-346.5 395.38,-273.27 407.49,-247.53"/>
<polygon fill="midnightblue" stroke="midnightblue" points="261.18,-616.75 261.51,-627.34 267.86,-618.86 261.18,-616.75"/>
</g>
<!-- Node99 -->
<g id="node47" class="node">
<title>Node99</title>
<g id="a_node47"><a xlink:href="classomnetpp_1_1cTopology.html" target="_top" xlink:title="Routing support. The cTopology class was designed primarily to support routing in telecommunication o...">
<polygon fill="white" stroke="black" points="380.5,-190.5 380.5,-209.5 445.5,-209.5 445.5,-190.5 380.5,-190.5"/>
<text text-anchor="middle" x="413" y="-197.5" font-family="Helvetica,sans-Serif" font-size="10.00">cTopology</text>
</a>
</g>
</g>
<!-- Node1&#45;&gt;Node99 -->
<g id="edge46" class="edge">
<title>Node1&#45;&gt;Node99</title>
<path fill="none" stroke="midnightblue" d="M259.49,-616.81C263.58,-541.44 281.69,-277.87 337,-219 348.04,-207.25 365.21,-202.34 380.33,-200.44"/>
<polygon fill="midnightblue" stroke="midnightblue" points="255.97,-617.06 258.95,-627.23 262.96,-617.43 255.97,-617.06"/>
</g>
<!-- Node100 -->
<g id="node48" class="node">
<title>Node100</title>
<g id="a_node48"><a xlink:href="classomnetpp_1_1cValueContainer.html" target="_top" xlink:title="Common base class for cValue&#45;based containers.">
<polygon fill="white" stroke="red" points="365,-152.5 365,-171.5 461,-171.5 461,-152.5 365,-152.5"/>
<text text-anchor="middle" x="413" y="-159.5" font-family="Helvetica,sans-Serif" font-size="10.00">cValueContainer</text>
</a>
</g>
</g>
<!-- Node1&#45;&gt;Node100 -->
<g id="edge47" class="edge">
<title>Node1&#45;&gt;Node100</title>
<path fill="none" stroke="midnightblue" d="M259.13,-617.04C262.06,-537.72 276.81,-246.05 337,-181 344.3,-173.11 354.36,-168.3 364.74,-165.41"/>
<polygon fill="midnightblue" stroke="midnightblue" points="255.63,-617.03 258.78,-627.15 262.63,-617.27 255.63,-617.03"/>
</g>
<!-- Node104 -->
<g id="node49" class="node">
<title>Node104</title>
<g id="a_node49"><a xlink:href="classomnetpp_1_1cXMLElement.html" target="_top" xlink:title="Represents an XML element in an XML configuration file.">
<polygon fill="white" stroke="black" points="371.5,-114.5 371.5,-133.5 454.5,-133.5 454.5,-114.5 371.5,-114.5"/>
<text text-anchor="middle" x="413" y="-121.5" font-family="Helvetica,sans-Serif" font-size="10.00">cXMLElement</text>
</a>
</g>
</g>
<!-- Node1&#45;&gt;Node104 -->
<g id="edge48" class="edge">
<title>Node1&#45;&gt;Node104</title>
<path fill="none" stroke="midnightblue" d="M258.84,-617C260.69,-533.56 271.98,-214.19 337,-143 345.79,-133.38 358.68,-128.32 371.31,-125.75"/>
<polygon fill="midnightblue" stroke="midnightblue" points="255.34,-617.09 258.64,-627.16 262.34,-617.23 255.34,-617.09"/>
</g>
<!-- Node2 -->
<g id="node2" class="node">
<title>Node2</title>
<g id="a_node2"><a xlink:href="classomnetpp_1_1cNamedObject.html" target="_top" xlink:title="Extends cObject with a name string. Also includes a &quot;flags&quot; member, with bits open for use by subclas...">
<polygon fill="white" stroke="black" points="89,-627.5 89,-646.5 178,-646.5 178,-627.5 89,-627.5"/>
<text text-anchor="middle" x="133.5" y="-634.5" font-family="Helvetica,sans-Serif" font-size="10.00">cNamedObject</text>
</a>
</g>
</g>
<!-- Node2&#45;&gt;Node1 -->
<g id="edge1" class="edge">
<title>Node2&#45;&gt;Node1</title>
<path fill="none" stroke="midnightblue" d="M188.46,-637C196.99,-637 205.7,-637 213.92,-637"/>
<polygon fill="midnightblue" stroke="midnightblue" points="188.2,-633.5 178.2,-637 188.2,-640.5 188.2,-633.5"/>
</g>
<!-- Node3 -->
<g id="node3" class="node">
<title>Node3</title>
<g id="a_node3"><a xlink:href="classomnetpp_1_1cObject.html" target="_top" xlink:title="cObject is a lightweight class which serves as the root of the OMNeT++ class hierarchy....">
<polygon fill="white" stroke="black" points="0,-627.5 0,-646.5 53,-646.5 53,-627.5 0,-627.5"/>
<text text-anchor="middle" x="26.5" y="-634.5" font-family="Helvetica,sans-Serif" font-size="10.00">cObject</text>
</a>
</g>
</g>
<!-- Node3&#45;&gt;Node2 -->
<g id="edge2" class="edge">
<title>Node3&#45;&gt;Node2</title>
<path fill="none" stroke="midnightblue" d="M63.44,-637C71.56,-637 80.26,-637 88.66,-637"/>
<polygon fill="midnightblue" stroke="midnightblue" points="63.19,-633.5 53.19,-637 63.19,-640.5 63.19,-633.5"/>
</g>
<!-- Node8 -->
<g id="node8" class="node">
<title>Node8</title>
<g id="a_node8"><a xlink:href="classomnetpp_1_1cMessage.html" target="_top" xlink:title="The message class in OMNeT++. cMessage objects may represent events, messages, jobs or other entities...">
<polygon fill="white" stroke="red" points="554,-1102.5 554,-1121.5 619,-1121.5 619,-1102.5 554,-1102.5"/>
<text text-anchor="middle" x="586.5" y="-1109.5" font-family="Helvetica,sans-Serif" font-size="10.00">cMessage</text>
</a>
</g>
</g>
<!-- Node7&#45;&gt;Node8 -->
<g id="edge7" class="edge">
<title>Node7&#45;&gt;Node8</title>
<path fill="none" stroke="midnightblue" d="M448.37,-942.27C462.62,-944.51 478.29,-949.46 489,-960 532.65,-1002.95 482.57,-1048.84 525,-1093 532.63,-1100.94 543.53,-1105.57 553.98,-1108.28"/>
<polygon fill="midnightblue" stroke="midnightblue" points="448.68,-938.78 438.34,-941.07 447.86,-945.73 448.68,-938.78"/>
</g>
<!-- Node11 -->
<g id="node10" class="node">
<title>Node11</title>
<g id="a_node10"><a xlink:href="classomnetpp_1_1cAbstractImageFigure.html" target="_top" xlink:title="Abstract base class for figures that display an image.">
<polygon fill="white" stroke="red" points="525,-1064.5 525,-1083.5 648,-1083.5 648,-1064.5 525,-1064.5"/>
<text text-anchor="middle" x="586.5" y="-1071.5" font-family="Helvetica,sans-Serif" font-size="10.00">cAbstractImageFigure</text>
</a>
</g>
</g>
<!-- Node10&#45;&gt;Node11 -->
<g id="edge9" class="edge">
<title>Node10&#45;&gt;Node11</title>
<path fill="none" stroke="midnightblue" d="M448.99,-904.36C463.07,-906.65 478.44,-911.61 489,-922 532.65,-964.95 482.57,-1010.84 525,-1055 528.74,-1058.89 533.26,-1061.99 538.13,-1064.45"/>
<polygon fill="midnightblue" stroke="midnightblue" points="449.4,-900.89 439.05,-903.13 448.54,-907.84 449.4,-900.89"/>
</g>
<!-- Node15 -->
<g id="node11" class="node">
<title>Node15</title>
<g id="a_node11"><a xlink:href="classomnetpp_1_1cAbstractLineFigure.html" target="_top" xlink:title="Common base class for line figures.">
<polygon fill="white" stroke="red" points="530,-1026.5 530,-1045.5 643,-1045.5 643,-1026.5 530,-1026.5"/>
<text text-anchor="middle" x="586.5" y="-1033.5" font-family="Helvetica,sans-Serif" font-size="10.00">cAbstractLineFigure</text>
</a>
</g>
</g>
<!-- Node10&#45;&gt;Node15 -->
<g id="edge10" class="edge">
<title>Node10&#45;&gt;Node15</title>
<path fill="none" stroke="midnightblue" d="M449.22,-905C463.03,-907.42 478.14,-912.31 489,-922 522.7,-952.05 492.16,-986.01 525,-1017 529.08,-1020.85 533.94,-1023.93 539.1,-1026.38"/>
<polygon fill="midnightblue" stroke="midnightblue" points="449.39,-901.49 439,-903.6 448.43,-908.43 449.39,-901.49"/>
</g>
<!-- Node19 -->
<g id="node12" class="node">
<title>Node19</title>
<g id="a_node12"><a xlink:href="classomnetpp_1_1cAbstractShapeFigure.html" target="_top" xlink:title="Abstract base class for various shapes.">
<polygon fill="white" stroke="red" points="525.5,-988.5 525.5,-1007.5 647.5,-1007.5 647.5,-988.5 525.5,-988.5"/>
<text text-anchor="middle" x="586.5" y="-995.5" font-family="Helvetica,sans-Serif" font-size="10.00">cAbstractShapeFigure</text>
</a>
</g>
</g>
<!-- Node10&#45;&gt;Node19 -->
<g id="edge11" class="edge">
<title>Node10&#45;&gt;Node19</title>
<path fill="none" stroke="midnightblue" d="M449.21,-906.31C462.64,-908.94 477.48,-913.64 489,-922 513.25,-939.6 501.25,-960.73 525,-979 530.06,-982.89 535.93,-986 541.99,-988.47"/>
<polygon fill="midnightblue" stroke="midnightblue" points="449.73,-902.85 439.29,-904.68 448.59,-909.76 449.73,-902.85"/>
</g>
<!-- Node26 -->
<g id="node13" class="node">
<title>Node26</title>
<g id="a_node13"><a xlink:href="classomnetpp_1_1cAbstractTextFigure.html" target="_top" xlink:title="Abstract base class for figures that display text. Text may be multi&#45;line.">
<polygon fill="white" stroke="red" points="530,-950.5 530,-969.5 643,-969.5 643,-950.5 530,-950.5"/>
<text text-anchor="middle" x="586.5" y="-957.5" font-family="Helvetica,sans-Serif" font-size="10.00">cAbstractTextFigure</text>
</a>
</g>
</g>
<!-- Node10&#45;&gt;Node26 -->
<g id="edge12" class="edge">
<title>Node10&#45;&gt;Node26</title>
<path fill="none" stroke="midnightblue" d="M448.96,-910.04C461.77,-913.09 476.24,-917.1 489,-922 505.89,-928.49 508.3,-934.04 525,-941 533.33,-944.47 542.53,-947.67 551.19,-950.41"/>
<polygon fill="midnightblue" stroke="midnightblue" points="449.65,-906.6 439.12,-907.8 448.09,-913.43 449.65,-906.6"/>
</g>
<!-- Node29 -->
<g id="node14" class="node">
<title>Node29</title>
<g id="a_node14"><a xlink:href="classomnetpp_1_1cGroupFigure.html" target="_top" xlink:title="A figure with the sole purpose of grouping its children, and no visual representation.">
<polygon fill="white" stroke="black" points="546,-912.5 546,-931.5 627,-931.5 627,-912.5 546,-912.5"/>
<text text-anchor="middle" x="586.5" y="-919.5" font-family="Helvetica,sans-Serif" font-size="10.00">cGroupFigure</text>
</a>
</g>
</g>
<!-- Node10&#45;&gt;Node29 -->
<g id="edge13" class="edge">
<title>Node10&#45;&gt;Node29</title>
<path fill="none" stroke="midnightblue" d="M449.47,-906.93C477.52,-910.04 516.67,-914.37 545.77,-917.6"/>
<polygon fill="midnightblue" stroke="midnightblue" points="449.63,-903.43 439.31,-905.8 448.86,-910.38 449.63,-903.43"/>
</g>
<!-- Node30 -->
<g id="node15" class="node">
<title>Node30</title>
<g id="a_node15"><a xlink:href="classomnetpp_1_1cPanelFigure.html" target="_top" xlink:title="Sets up an axis&#45;aligned, unscaled coordinate system for children, canceling the effect of any transfo...">
<polygon fill="white" stroke="black" points="547.5,-874.5 547.5,-893.5 625.5,-893.5 625.5,-874.5 547.5,-874.5"/>
<text text-anchor="middle" x="586.5" y="-881.5" font-family="Helvetica,sans-Serif" font-size="10.00">cPanelFigure</text>
</a>
</g>
</g>
<!-- Node10&#45;&gt;Node30 -->
<g id="edge14" class="edge">
<title>Node10&#45;&gt;Node30</title>
<path fill="none" stroke="midnightblue" d="M449.27,-899.09C477.86,-895.93 518.07,-891.47 547.39,-888.22"/>
<polygon fill="midnightblue" stroke="midnightblue" points="448.86,-895.62 439.31,-900.2 449.63,-902.57 448.86,-895.62"/>
</g>
<!-- Node33 -->
<g id="node18" class="node">
<title>Node33</title>
<g id="a_node18"><a xlink:href="classomnetpp_1_1cEventHeap.html" target="_top" xlink:title="The default, binary heap based implementation of the future event set.">
<polygon fill="white" stroke="black" points="549,-836.5 549,-855.5 624,-855.5 624,-836.5 549,-836.5"/>
<text text-anchor="middle" x="586.5" y="-843.5" font-family="Helvetica,sans-Serif" font-size="10.00">cEventHeap</text>
</a>
</g>
</g>
<!-- Node32&#45;&gt;Node33 -->
<g id="edge17" class="edge">
<title>Node32&#45;&gt;Node33</title>
<path fill="none" stroke="midnightblue" d="M471.14,-701.77C477.71,-704.52 483.88,-708.17 489,-713 527.64,-749.47 487.4,-789.46 525,-827 531.47,-833.46 540.1,-837.72 548.81,-840.54"/>
<polygon fill="midnightblue" stroke="midnightblue" points="471.9,-698.33 461.3,-698.35 469.6,-704.94 471.9,-698.33"/>
</g>
<!-- Node36 -->
<g id="node21" class="node">
<title>Node36</title>
<g id="a_node21"><a xlink:href="classomnetpp_1_1cClassDescriptor.html" target="_top" xlink:title="Abstract base class for class descriptors.">
<polygon fill="white" stroke="black" points="537.5,-798.5 537.5,-817.5 635.5,-817.5 635.5,-798.5 537.5,-798.5"/>
<text text-anchor="middle" x="586.5" y="-805.5" font-family="Helvetica,sans-Serif" font-size="10.00">cClassDescriptor</text>
</a>
</g>
</g>
<!-- Node35&#45;&gt;Node36 -->
<g id="edge20" class="edge">
<title>Node35&#45;&gt;Node36</title>
<path fill="none" stroke="midnightblue" d="M484.5,-632.99C486.08,-634.23 487.59,-635.56 489,-637 537.71,-686.47 477.7,-738.18 525,-789 528.6,-792.87 532.98,-795.95 537.71,-798.41"/>
<polygon fill="midnightblue" stroke="midnightblue" points="486.34,-630.02 476.03,-627.58 482.57,-635.91 486.34,-630.02"/>
</g>
<!-- Node37 -->
<g id="node22" class="node">
<title>Node37</title>
<g id="a_node22"><a xlink:href="classomnetpp_1_1cComponentType.html" target="_top" xlink:title="Common base class for cModuleType and cChannelType.">
<polygon fill="white" stroke="red" points="536,-760.5 536,-779.5 637,-779.5 637,-760.5 536,-760.5"/>
<text text-anchor="middle" x="586.5" y="-767.5" font-family="Helvetica,sans-Serif" font-size="10.00">cComponentType</text>
</a>
</g>
</g>
<!-- Node35&#45;&gt;Node37 -->
<g id="edge21" class="edge">
<title>Node35&#45;&gt;Node37</title>
<path fill="none" stroke="midnightblue" d="M483.69,-632.65C485.56,-633.98 487.33,-635.43 489,-637 527.64,-673.47 487.4,-713.46 525,-751 528.9,-754.89 533.58,-757.98 538.59,-760.45"/>
<polygon fill="midnightblue" stroke="midnightblue" points="485.4,-629.59 475.01,-627.52 481.83,-635.62 485.4,-629.59"/>
</g>
<!-- Node40 -->
<g id="node23" class="node">
<title>Node40</title>
<g id="a_node23"><a xlink:href="classomnetpp_1_1cConfigOption.html" target="_top" xlink:title="Describes a configuration option.">
<polygon fill="white" stroke="black" points="544,-722.5 544,-741.5 629,-741.5 629,-722.5 544,-722.5"/>
<text text-anchor="middle" x="586.5" y="-729.5" font-family="Helvetica,sans-Serif" font-size="10.00">cConfigOption</text>
</a>
</g>
</g>
<!-- Node35&#45;&gt;Node40 -->
<g id="edge22" class="edge">
<title>Node35&#45;&gt;Node40</title>
<path fill="none" stroke="midnightblue" d="M482.52,-632.39C484.79,-633.79 486.96,-635.32 489,-637 517.87,-660.74 496.81,-688.46 525,-713 530.4,-717.7 536.95,-721.24 543.73,-723.9"/>
<polygon fill="midnightblue" stroke="midnightblue" points="483.84,-629.13 473.35,-627.62 480.61,-635.34 483.84,-629.13"/>
</g>
<!-- Node41 -->
<g id="node24" class="node">
<title>Node41</title>
<g id="a_node24"><a xlink:href="classomnetpp_1_1cMessagePrinter.html" target="_top" xlink:title="Base class for message printers.">
<polygon fill="white" stroke="red" points="537.5,-684.5 537.5,-703.5 635.5,-703.5 635.5,-684.5 537.5,-684.5"/>
<text text-anchor="middle" x="586.5" y="-691.5" font-family="Helvetica,sans-Serif" font-size="10.00">cMessagePrinter</text>
</a>
</g>
</g>
<!-- Node35&#45;&gt;Node41 -->
<g id="edge23" class="edge">
<title>Node35&#45;&gt;Node41</title>
<path fill="none" stroke="midnightblue" d="M477.24,-631.18C481.32,-632.89 485.28,-634.82 489,-637 509.07,-648.77 505.27,-662.67 525,-675 531.16,-678.85 538.17,-681.98 545.17,-684.5"/>
<polygon fill="midnightblue" stroke="midnightblue" points="478.12,-627.78 467.53,-627.57 475.68,-634.34 478.12,-627.78"/>
</g>
<!-- Node43 -->
<g id="node25" class="node">
<title>Node43</title>
<g id="a_node25"><a xlink:href="classomnetpp_1_1cNedFunction.html" target="_top" xlink:title="Registration class for extending NED with arbitrary new functions.">
<polygon fill="white" stroke="black" points="545,-646.5 545,-665.5 628,-665.5 628,-646.5 545,-646.5"/>
<text text-anchor="middle" x="586.5" y="-653.5" font-family="Helvetica,sans-Serif" font-size="10.00">cNedFunction</text>
</a>
</g>
</g>
<!-- Node35&#45;&gt;Node43 -->
<g id="edge24" class="edge">
<title>Node35&#45;&gt;Node43</title>
<path fill="none" stroke="midnightblue" d="M467.35,-629.82C492.37,-635.36 521.71,-641.87 544.89,-647"/>
<polygon fill="midnightblue" stroke="midnightblue" points="467.8,-626.34 457.28,-627.59 466.28,-633.17 467.8,-626.34"/>
</g>
<!-- Node44 -->
<g id="node26" class="node">
<title>Node44</title>
<g id="a_node26"><a xlink:href="classomnetpp_1_1cNedMathFunction.html" target="_top" xlink:title="Registration class for extending NED with new mathematical functions.">
<polygon fill="white" stroke="black" points="533,-608.5 533,-627.5 640,-627.5 640,-608.5 533,-608.5"/>
<text text-anchor="middle" x="586.5" y="-615.5" font-family="Helvetica,sans-Serif" font-size="10.00">cNedMathFunction</text>
</a>
</g>
</g>
<!-- Node35&#45;&gt;Node44 -->
<g id="edge25" class="edge">
<title>Node35&#45;&gt;Node44</title>
<path fill="none" stroke="midnightblue" d="M498.89,-618C510.5,-618 522.12,-618 532.92,-618"/>
<polygon fill="midnightblue" stroke="midnightblue" points="498.72,-614.5 488.72,-618 498.72,-621.5 498.72,-614.5"/>
</g>
<!-- Node45 -->
<g id="node27" class="node">
<title>Node45</title>
<g id="a_node27"><a xlink:href="classomnetpp_1_1cObjectFactory.html" target="_top" xlink:title="The class behind the createOne() function and the Register_Class() macro.">
<polygon fill="white" stroke="black" points="542,-570.5 542,-589.5 631,-589.5 631,-570.5 542,-570.5"/>
<text text-anchor="middle" x="586.5" y="-577.5" font-family="Helvetica,sans-Serif" font-size="10.00">cObjectFactory</text>
</a>
</g>
</g>
<!-- Node35&#45;&gt;Node45 -->
<g id="edge26" class="edge">
<title>Node35&#45;&gt;Node45</title>
<path fill="none" stroke="midnightblue" d="M467.04,-606.25C491.29,-600.87 519.65,-594.59 542.53,-589.52"/>
<polygon fill="midnightblue" stroke="midnightblue" points="466.28,-602.83 457.28,-608.41 467.8,-609.66 466.28,-602.83"/>
</g>
<!-- Node46 -->
<g id="node28" class="node">
<title>Node46</title>
<g id="a_node28"><a xlink:href="classomnetpp_1_1cOutVector.html" target="_top" xlink:title="Responsible for recording an &quot;output vector&quot; into the simulation results file. An output vector is a ...">
<polygon fill="white" stroke="black" points="551.5,-532.5 551.5,-551.5 621.5,-551.5 621.5,-532.5 551.5,-532.5"/>
<text text-anchor="middle" x="586.5" y="-539.5" font-family="Helvetica,sans-Serif" font-size="10.00">cOutVector</text>
</a>
</g>
</g>
<!-- Node35&#45;&gt;Node46 -->
<g id="edge27" class="edge">
<title>Node35&#45;&gt;Node46</title>
<path fill="none" stroke="midnightblue" d="M477.24,-604.82C481.32,-603.11 485.28,-601.18 489,-599 509.07,-587.23 505.27,-573.33 525,-561 532.94,-556.04 542.27,-552.28 551.2,-549.47"/>
<polygon fill="midnightblue" stroke="midnightblue" points="475.68,-601.66 467.53,-608.43 478.12,-608.22 475.68,-601.66"/>
</g>
<!-- Node47 -->
<g id="node29" class="node">
<title>Node47</title>
<g id="a_node29"><a xlink:href="classomnetpp_1_1cResultFilterType.html" target="_top" xlink:title="Registers a cResultFilter.">
<polygon fill="white" stroke="black" points="536.5,-494.5 536.5,-513.5 636.5,-513.5 636.5,-494.5 536.5,-494.5"/>
<text text-anchor="middle" x="586.5" y="-501.5" font-family="Helvetica,sans-Serif" font-size="10.00">cResultFilterType</text>
</a>
</g>
</g>
<!-- Node35&#45;&gt;Node47 -->
<g id="edge28" class="edge">
<title>Node35&#45;&gt;Node47</title>
<path fill="none" stroke="midnightblue" d="M482.52,-603.61C484.79,-602.21 486.96,-600.68 489,-599 517.87,-575.26 496.81,-547.54 525,-523 529.48,-519.1 534.77,-515.99 540.32,-513.53"/>
<polygon fill="midnightblue" stroke="midnightblue" points="480.61,-600.66 473.35,-608.38 483.84,-606.87 480.61,-600.66"/>
</g>
<!-- Node48 -->
<g id="node30" class="node">
<title>Node48</title>
<g id="a_node30"><a xlink:href="classomnetpp_1_1cResultRecorderType.html" target="_top" xlink:title="Registers a cResultRecorder.">
<polygon fill="white" stroke="black" points="527,-456.5 527,-475.5 646,-475.5 646,-456.5 527,-456.5"/>
<text text-anchor="middle" x="586.5" y="-463.5" font-family="Helvetica,sans-Serif" font-size="10.00">cResultRecorderType</text>
</a>
</g>
</g>
<!-- Node35&#45;&gt;Node48 -->
<g id="edge29" class="edge">
<title>Node35&#45;&gt;Node48</title>
<path fill="none" stroke="midnightblue" d="M483.69,-603.35C485.56,-602.02 487.33,-600.57 489,-599 527.64,-562.53 487.4,-522.54 525,-485 528.9,-481.11 533.58,-478.02 538.59,-475.55"/>
<polygon fill="midnightblue" stroke="midnightblue" points="481.83,-600.38 475.01,-608.48 485.4,-606.41 481.83,-600.38"/>
</g>
<!-- Node49 -->
<g id="node31" class="node">
<title>Node49</title>
<g id="a_node31"><a xlink:href="classomnetpp_1_1cSoftOwner.html" target="_top" xlink:title="Internal class, used as a base class for modules and channels. It is not intended for subclassing out...">
<polygon fill="white" stroke="red" points="550.5,-418.5 550.5,-437.5 622.5,-437.5 622.5,-418.5 550.5,-418.5"/>
<text text-anchor="middle" x="586.5" y="-425.5" font-family="Helvetica,sans-Serif" font-size="10.00">cSoftOwner</text>
</a>
</g>
</g>
<!-- Node35&#45;&gt;Node49 -->
<g id="edge30" class="edge">
<title>Node35&#45;&gt;Node49</title>
<path fill="none" stroke="midnightblue" d="M484.5,-603.01C486.08,-601.77 487.59,-600.44 489,-599 537.71,-549.53 477.7,-497.82 525,-447 531.68,-439.83 541.02,-435.35 550.37,-432.55"/>
<polygon fill="midnightblue" stroke="midnightblue" points="482.57,-600.09 476.03,-608.42 486.34,-605.98 482.57,-600.09"/>
</g>
<!-- Node57 -->
<g id="node32" class="node">
<title>Node57</title>
<g id="a_node32"><a xlink:href="classomnetpp_1_1cWatchBase.html" target="_top" xlink:title="Helper class to make primitive types and non&#45;cOwnedObject objects inspectable in Qtenv....">
<polygon fill="white" stroke="red" points="548.5,-380.5 548.5,-399.5 624.5,-399.5 624.5,-380.5 548.5,-380.5"/>
<text text-anchor="middle" x="586.5" y="-387.5" font-family="Helvetica,sans-Serif" font-size="10.00">cWatchBase</text>
</a>
</g>
</g>
<!-- Node35&#45;&gt;Node57 -->
<g id="edge31" class="edge">
<title>Node35&#45;&gt;Node57</title>
<path fill="none" stroke="midnightblue" d="M485.08,-602.68C486.46,-601.54 487.77,-600.31 489,-599 547.9,-536.41 467.88,-473.22 525,-409 531.07,-402.17 539.57,-397.77 548.27,-394.95"/>
<polygon fill="midnightblue" stroke="midnightblue" points="482.91,-599.92 476.57,-608.41 486.82,-605.73 482.91,-599.92"/>
</g>
<!-- Node70 -->
<g id="node36" class="node">
<title>Node70</title>
<g id="a_node36"><a xlink:href="classomnetpp_1_1cPacketQueue.html" target="_top" xlink:title="A queue class specialized for cPacket objects.">
<polygon fill="white" stroke="black" points="544,-342.5 544,-361.5 629,-361.5 629,-342.5 544,-342.5"/>
<text text-anchor="middle" x="586.5" y="-349.5" font-family="Helvetica,sans-Serif" font-size="10.00">cPacketQueue</text>
</a>
</g>
</g>
<!-- Node69&#45;&gt;Node70 -->
<g id="edge35" class="edge">
<title>Node69&#45;&gt;Node70</title>
<path fill="none" stroke="midnightblue" d="M439.26,-413.46C461.39,-401.1 494.66,-383.45 525,-371 533.45,-367.53 542.79,-364.31 551.54,-361.55"/>
<polygon fill="midnightblue" stroke="midnightblue" points="437.5,-410.44 430.5,-418.4 440.93,-416.53 437.5,-410.44"/>
</g>
<!-- Node72 -->
<g id="node38" class="node">
<title>Node72</title>
<g id="a_node38"><a xlink:href="classomnetpp_1_1cBernoulli.html" target="_top" xlink:title="Generates random numbers that are the results of Bernoulli trials.">
<polygon fill="white" stroke="black" points="554,-304.5 554,-323.5 619,-323.5 619,-304.5 554,-304.5"/>
<text text-anchor="middle" x="586.5" y="-311.5" font-family="Helvetica,sans-Serif" font-size="10.00">cBernoulli</text>
</a>
</g>
</g>
<!-- Node71&#45;&gt;Node72 -->
<g id="edge37" class="edge">
<title>Node71&#45;&gt;Node72</title>
<path fill="none" stroke="midnightblue" d="M439.26,-252.54C461.39,-264.9 494.66,-282.55 525,-295 534.17,-298.76 544.37,-302.23 553.74,-305.14"/>
<polygon fill="midnightblue" stroke="midnightblue" points="440.93,-249.47 430.5,-247.6 437.5,-255.56 440.93,-249.47"/>
</g>
<!-- Node73 -->
<g id="node39" class="node">
<title>Node73</title>
<g id="a_node39"><a xlink:href="classomnetpp_1_1cBeta.html" target="_top" xlink:title="Generates random numbers from the beta distribution.">
<polygon fill="white" stroke="black" points="564.5,-266.5 564.5,-285.5 608.5,-285.5 608.5,-266.5 564.5,-266.5"/>
<text text-anchor="middle" x="586.5" y="-273.5" font-family="Helvetica,sans-Serif" font-size="10.00">cBeta</text>
</a>
</g>
</g>
<!-- Node71&#45;&gt;Node73 -->
<g id="edge38" class="edge">
<title>Node71&#45;&gt;Node73</title>
<path fill="none" stroke="midnightblue" d="M454.05,-246.87C488.56,-254.52 537.04,-265.26 564.45,-271.34"/>
<polygon fill="midnightblue" stroke="midnightblue" points="454.79,-243.45 444.27,-244.71 453.27,-250.29 454.79,-243.45"/>
</g>
<!-- Node74 -->
<g id="node40" class="node">
<title>Node74</title>
<g id="a_node40"><a xlink:href="classomnetpp_1_1cBinomial.html" target="_top" xlink:title="Generates random numbers from the binomial distribution.">
<polygon fill="white" stroke="black" points="554,-228.5 554,-247.5 619,-247.5 619,-228.5 554,-228.5"/>
<text text-anchor="middle" x="586.5" y="-235.5" font-family="Helvetica,sans-Serif" font-size="10.00">cBinomial</text>
</a>
</g>
</g>
<!-- Node71&#45;&gt;Node74 -->
<g id="edge39" class="edge">
<title>Node71&#45;&gt;Node74</title>
<path fill="none" stroke="midnightblue" d="M454.52,-238C484.87,-238 525.81,-238 553.79,-238"/>
<polygon fill="midnightblue" stroke="midnightblue" points="454.27,-234.5 444.27,-238 454.27,-241.5 454.27,-234.5"/>
</g>
<!-- Node75 -->
<g id="node41" class="node">
<title>Node75</title>
<g id="a_node41"><a xlink:href="classomnetpp_1_1cCauchy.html" target="_top" xlink:title="Generates random numbers from the Cauchy distribution.">
<polygon fill="white" stroke="black" points="557.5,-190.5 557.5,-209.5 615.5,-209.5 615.5,-190.5 557.5,-190.5"/>
<text text-anchor="middle" x="586.5" y="-197.5" font-family="Helvetica,sans-Serif" font-size="10.00">cCauchy</text>
</a>
</g>
</g>
<!-- Node71&#45;&gt;Node75 -->
<g id="edge40" class="edge">
<title>Node71&#45;&gt;Node75</title>
<path fill="none" stroke="midnightblue" d="M454.1,-229.12C485.76,-222.1 529.14,-212.49 557.24,-206.26"/>
<polygon fill="midnightblue" stroke="midnightblue" points="453.27,-225.71 444.27,-231.29 454.79,-232.55 453.27,-225.71"/>
</g>
<!-- Node76 -->
<g id="node42" class="node">
<title>Node76</title>
<g id="a_node42"><a xlink:href="classomnetpp_1_1cChiSquare.html" target="_top" xlink:title="Generates random numbers from the chi&#45;square distribution.">
<polygon fill="white" stroke="black" points="551,-152.5 551,-171.5 622,-171.5 622,-152.5 551,-152.5"/>
<text text-anchor="middle" x="586.5" y="-159.5" font-family="Helvetica,sans-Serif" font-size="10.00">cChiSquare</text>
</a>
</g>
</g>
<!-- Node71&#45;&gt;Node76 -->
<g id="edge41" class="edge">
<title>Node71&#45;&gt;Node76</title>
<path fill="none" stroke="midnightblue" d="M454.36,-232.15C466.07,-229.32 478.51,-225.15 489,-219 509.07,-207.23 505.27,-193.33 525,-181 532.84,-176.1 542.05,-172.37 550.89,-169.57"/>
<polygon fill="midnightblue" stroke="midnightblue" points="453.37,-228.79 444.33,-234.31 454.84,-235.63 453.37,-228.79"/>
</g>
<!-- Node77 -->
<g id="node43" class="node">
<title>Node77</title>
<g id="a_node43"><a xlink:href="classomnetpp_1_1cErlang.html" target="_top" xlink:title="Generates random numbers from the Erlang distribution.">
<polygon fill="white" stroke="black" points="560,-114.5 560,-133.5 613,-133.5 613,-114.5 560,-114.5"/>
<text text-anchor="middle" x="586.5" y="-121.5" font-family="Helvetica,sans-Serif" font-size="10.00">cErlang</text>
</a>
</g>
</g>
<!-- Node71&#45;&gt;Node77 -->
<g id="edge42" class="edge">
<title>Node71&#45;&gt;Node77</title>
<path fill="none" stroke="midnightblue" d="M454.17,-234.48C466.4,-231.77 479.19,-227.07 489,-219 517.87,-195.26 496.81,-167.54 525,-143 534.71,-134.54 548.19,-129.85 559.95,-127.24"/>
<polygon fill="midnightblue" stroke="midnightblue" points="453.3,-231.09 444.1,-236.33 454.57,-237.97 453.3,-231.09"/>
</g>
<!-- Node78 -->
<g id="node44" class="node">
<title>Node78</title>
<g id="a_node44"><a xlink:href="classomnetpp_1_1cExponential.html" target="_top" xlink:title="Generates random numbers from the exponential distribution.">
<polygon fill="white" stroke="black" points="546.5,-76.5 546.5,-95.5 626.5,-95.5 626.5,-76.5 546.5,-76.5"/>
<text text-anchor="middle" x="586.5" y="-83.5" font-family="Helvetica,sans-Serif" font-size="10.00">cExponential</text>
</a>
</g>
</g>
<!-- Node71&#45;&gt;Node78 -->
<g id="edge43" class="edge">
<title>Node71&#45;&gt;Node78</title>
<path fill="none" stroke="midnightblue" d="M454.55,-235.33C466.92,-232.67 479.69,-227.79 489,-219 527.64,-182.53 487.4,-142.54 525,-105 530.84,-99.17 538.46,-95.12 546.3,-92.31"/>
<polygon fill="midnightblue" stroke="midnightblue" points="453.6,-231.94 444.34,-237.08 454.79,-238.84 453.6,-231.94"/>
</g>
<!-- Node79 -->
<g id="node45" class="node">
<title>Node79</title>
<g id="a_node45"><a xlink:href="classomnetpp_1_1cGamma.html" target="_top" xlink:title="Generates random numbers from the gamma distribution.">
<polygon fill="white" stroke="black" points="556,-38.5 556,-57.5 617,-57.5 617,-38.5 556,-38.5"/>
<text text-anchor="middle" x="586.5" y="-45.5" font-family="Helvetica,sans-Serif" font-size="10.00">cGamma</text>
</a>
</g>
</g>
<!-- Node71&#45;&gt;Node79 -->
<g id="edge44" class="edge">
<title>Node71&#45;&gt;Node79</title>
<path fill="none" stroke="midnightblue" d="M454.26,-235.87C466.86,-233.27 479.85,-228.29 489,-219 537.71,-169.53 477.7,-117.82 525,-67 532.95,-58.46 544.69,-53.73 555.72,-51.13"/>
<polygon fill="midnightblue" stroke="midnightblue" points="453.62,-232.42 444.31,-237.48 454.74,-239.33 453.62,-232.42"/>
</g>
<!-- Node80 -->
<g id="node46" class="node">
<title>Node80</title>
<g id="a_node46"><a xlink:href="classomnetpp_1_1cGeometric.html" target="_top" xlink:title="Generates random numbers from the geometric distribution.">
<polygon fill="white" stroke="black" points="550,-0.5 550,-19.5 623,-19.5 623,-0.5 550,-0.5"/>
<text text-anchor="middle" x="586.5" y="-7.5" font-family="Helvetica,sans-Serif" font-size="10.00">cGeometric</text>
</a>
</g>
</g>
<!-- Node71&#45;&gt;Node80 -->
<g id="edge45" class="edge">
<title>Node71&#45;&gt;Node80</title>
<path fill="none" stroke="midnightblue" d="M454.19,-236.16C466.92,-233.6 479.99,-228.57 489,-219 547.9,-156.41 467.88,-93.22 525,-29 531.44,-21.76 540.6,-17.25 549.85,-14.45"/>
<polygon fill="midnightblue" stroke="midnightblue" points="453.5,-232.73 444.15,-237.73 454.57,-239.65 453.5,-232.73"/>
</g>
</g>
</svg>
