<?xml version="1.0" encoding="UTF-8" standalone="no"?>
<!DOCTYPE svg PUBLIC "-//W3C//DTD SVG 1.1//EN"
 "http://www.w3.org/Graphics/SVG/1.1/DTD/svg11.dtd">
<!-- Generated by graphviz version 2.43.0 (0)
 -->
<!-- Title: cNoncopyableOwnedObject Pages: 1 -->
<svg width="782pt" height="683pt"
 viewBox="0.00 0.00 782.00 683.00" xmlns="http://www.w3.org/2000/svg" xmlns:xlink="http://www.w3.org/1999/xlink">
<g id="graph0" class="graph" transform="scale(1 1) rotate(0) translate(4 679)">
<title>cNoncopyableOwnedObject</title>
<polygon fill="white" stroke="transparent" points="-4,4 -4,-679 778,-679 778,4 -4,4"/>
<!-- Node1 -->
<g id="node1" class="node">
<title>Node1</title>
<g id="a_node1"><a xlink:title="Base class for cOwnedObject&#45;based classes that do not wish to support assignment and duplication.">
<polygon fill="#bfbfbf" stroke="black" points="248,-446.5 248,-465.5 399,-465.5 399,-446.5 248,-446.5"/>
<text text-anchor="middle" x="323.5" y="-453.5" font-family="Helvetica,sans-Serif" font-size="10.00">cNoncopyableOwnedObject</text>
</a>
</g>
</g>
<!-- Node6 -->
<g id="node5" class="node">
<title>Node6</title>
<g id="a_node5"><a xlink:href="classomnetpp_1_1cClassDescriptor.html" target="_top" xlink:title="Abstract base class for class descriptors.">
<polygon fill="white" stroke="black" points="445.5,-655.5 445.5,-674.5 543.5,-674.5 543.5,-655.5 445.5,-655.5"/>
<text text-anchor="middle" x="494.5" y="-662.5" font-family="Helvetica,sans-Serif" font-size="10.00">cClassDescriptor</text>
</a>
</g>
</g>
<!-- Node1&#45;&gt;Node6 -->
<g id="edge4" class="edge">
<title>Node1&#45;&gt;Node6</title>
<path fill="none" stroke="midnightblue" d="M330.51,-475.4C343.37,-513.69 377.16,-599.32 435,-646 439.82,-649.89 445.46,-652.99 451.3,-655.46"/>
<polygon fill="midnightblue" stroke="midnightblue" points="333.73,-473.96 327.32,-465.52 327.07,-476.11 333.73,-473.96"/>
</g>
<!-- Node7 -->
<g id="node6" class="node">
<title>Node7</title>
<g id="a_node6"><a xlink:href="classomnetpp_1_1cComponentType.html" target="_top" xlink:title="Common base class for cModuleType and cChannelType.">
<polygon fill="white" stroke="black" points="444,-617.5 444,-636.5 545,-636.5 545,-617.5 444,-617.5"/>
<text text-anchor="middle" x="494.5" y="-624.5" font-family="Helvetica,sans-Serif" font-size="10.00">cComponentType</text>
</a>
</g>
</g>
<!-- Node1&#45;&gt;Node7 -->
<g id="edge5" class="edge">
<title>Node1&#45;&gt;Node7</title>
<path fill="none" stroke="midnightblue" d="M333.32,-475.01C349.16,-507.09 385.45,-572.02 435,-608 440.27,-611.83 446.35,-614.91 452.56,-617.38"/>
<polygon fill="midnightblue" stroke="midnightblue" points="336.39,-473.32 328.91,-465.82 330.08,-476.35 336.39,-473.32"/>
</g>
<!-- Node10 -->
<g id="node9" class="node">
<title>Node10</title>
<g id="a_node9"><a xlink:href="classomnetpp_1_1cConfigOption.html" target="_top" xlink:title="Describes a configuration option.">
<polygon fill="white" stroke="black" points="452,-579.5 452,-598.5 537,-598.5 537,-579.5 452,-579.5"/>
<text text-anchor="middle" x="494.5" y="-586.5" font-family="Helvetica,sans-Serif" font-size="10.00">cConfigOption</text>
</a>
</g>
</g>
<!-- Node1&#45;&gt;Node10 -->
<g id="edge8" class="edge">
<title>Node1&#45;&gt;Node10</title>
<path fill="none" stroke="midnightblue" d="M337.39,-474.02C356.16,-499 393.34,-544.02 435,-570 441.07,-573.79 447.97,-576.89 454.85,-579.41"/>
<polygon fill="midnightblue" stroke="midnightblue" points="340.08,-471.77 331.33,-465.79 334.44,-475.92 340.08,-471.77"/>
</g>
<!-- Node11 -->
<g id="node10" class="node">
<title>Node11</title>
<g id="a_node10"><a xlink:href="classomnetpp_1_1cMessagePrinter.html" target="_top" xlink:title="Base class for message printers.">
<polygon fill="white" stroke="black" points="445.5,-541.5 445.5,-560.5 543.5,-560.5 543.5,-541.5 445.5,-541.5"/>
<text text-anchor="middle" x="494.5" y="-548.5" font-family="Helvetica,sans-Serif" font-size="10.00">cMessagePrinter</text>
</a>
</g>
</g>
<!-- Node1&#45;&gt;Node11 -->
<g id="edge9" class="edge">
<title>Node1&#45;&gt;Node11</title>
<path fill="none" stroke="midnightblue" d="M343.99,-472.01C365.27,-488.84 400.86,-515.16 435,-532 442.37,-535.64 450.6,-538.81 458.51,-541.46"/>
<polygon fill="midnightblue" stroke="midnightblue" points="346.05,-469.17 336.06,-465.64 341.67,-474.63 346.05,-469.17"/>
</g>
<!-- Node13 -->
<g id="node12" class="node">
<title>Node13</title>
<g id="a_node12"><a xlink:href="classomnetpp_1_1cNedFunction.html" target="_top" xlink:title="Registration class for extending NED with arbitrary new functions.">
<polygon fill="white" stroke="black" points="453,-503.5 453,-522.5 536,-522.5 536,-503.5 453,-503.5"/>
<text text-anchor="middle" x="494.5" y="-510.5" font-family="Helvetica,sans-Serif" font-size="10.00">cNedFunction</text>
</a>
</g>
</g>
<!-- Node1&#45;&gt;Node13 -->
<g id="edge11" class="edge">
<title>Node1&#45;&gt;Node13</title>
<path fill="none" stroke="midnightblue" d="M361.4,-468.87C382.85,-476.3 410.42,-485.78 435,-494 444.32,-497.11 454.49,-500.44 463.71,-503.43"/>
<polygon fill="midnightblue" stroke="midnightblue" points="362.3,-465.47 351.7,-465.5 360,-472.09 362.3,-465.47"/>
</g>
<!-- Node14 -->
<g id="node13" class="node">
<title>Node14</title>
<g id="a_node13"><a xlink:href="classomnetpp_1_1cNedMathFunction.html" target="_top" xlink:title="Registration class for extending NED with new mathematical functions.">
<polygon fill="white" stroke="black" points="441,-465.5 441,-484.5 548,-484.5 548,-465.5 441,-465.5"/>
<text text-anchor="middle" x="494.5" y="-472.5" font-family="Helvetica,sans-Serif" font-size="10.00">cNedMathFunction</text>
</a>
</g>
</g>
<!-- Node1&#45;&gt;Node14 -->
<g id="edge12" class="edge">
<title>Node1&#45;&gt;Node14</title>
<path fill="none" stroke="midnightblue" d="M409.31,-465.53C419.96,-466.73 430.61,-467.93 440.57,-469.05"/>
<polygon fill="midnightblue" stroke="midnightblue" points="409.45,-462.03 399.12,-464.39 408.66,-468.98 409.45,-462.03"/>
</g>
<!-- Node15 -->
<g id="node14" class="node">
<title>Node15</title>
<g id="a_node14"><a xlink:href="classomnetpp_1_1cObjectFactory.html" target="_top" xlink:title="The class behind the createOne() function and the Register_Class() macro.">
<polygon fill="white" stroke="black" points="450,-427.5 450,-446.5 539,-446.5 539,-427.5 450,-427.5"/>
<text text-anchor="middle" x="494.5" y="-434.5" font-family="Helvetica,sans-Serif" font-size="10.00">cObjectFactory</text>
</a>
</g>
</g>
<!-- Node1&#45;&gt;Node15 -->
<g id="edge13" class="edge">
<title>Node1&#45;&gt;Node15</title>
<path fill="none" stroke="midnightblue" d="M409.31,-446.46C423.35,-444.89 437.37,-443.31 449.83,-441.91"/>
<polygon fill="midnightblue" stroke="midnightblue" points="408.66,-443.02 399.12,-447.61 409.45,-449.97 408.66,-443.02"/>
</g>
<!-- Node16 -->
<g id="node15" class="node">
<title>Node16</title>
<g id="a_node15"><a xlink:href="classomnetpp_1_1cOutVector.html" target="_top" xlink:title="Responsible for recording an &quot;output vector&quot; into the simulation results file. An output vector is a ...">
<polygon fill="white" stroke="black" points="459.5,-389.5 459.5,-408.5 529.5,-408.5 529.5,-389.5 459.5,-389.5"/>
<text text-anchor="middle" x="494.5" y="-396.5" font-family="Helvetica,sans-Serif" font-size="10.00">cOutVector</text>
</a>
</g>
</g>
<!-- Node1&#45;&gt;Node16 -->
<g id="edge14" class="edge">
<title>Node1&#45;&gt;Node16</title>
<path fill="none" stroke="midnightblue" d="M361.4,-443.13C382.85,-435.7 410.42,-426.22 435,-418 444.32,-414.89 454.49,-411.56 463.71,-408.57"/>
<polygon fill="midnightblue" stroke="midnightblue" points="360,-439.91 351.7,-446.5 362.3,-446.53 360,-439.91"/>
</g>
<!-- Node17 -->
<g id="node16" class="node">
<title>Node17</title>
<g id="a_node16"><a xlink:href="classomnetpp_1_1cResultFilterType.html" target="_top" xlink:title="Registers a cResultFilter.">
<polygon fill="white" stroke="black" points="444.5,-351.5 444.5,-370.5 544.5,-370.5 544.5,-351.5 444.5,-351.5"/>
<text text-anchor="middle" x="494.5" y="-358.5" font-family="Helvetica,sans-Serif" font-size="10.00">cResultFilterType</text>
</a>
</g>
</g>
<!-- Node1&#45;&gt;Node17 -->
<g id="edge15" class="edge">
<title>Node1&#45;&gt;Node17</title>
<path fill="none" stroke="midnightblue" d="M343.99,-439.99C365.27,-423.16 400.86,-396.84 435,-380 442.37,-376.36 450.6,-373.19 458.51,-370.54"/>
<polygon fill="midnightblue" stroke="midnightblue" points="341.67,-437.37 336.06,-446.36 346.05,-442.83 341.67,-437.37"/>
</g>
<!-- Node18 -->
<g id="node17" class="node">
<title>Node18</title>
<g id="a_node17"><a xlink:href="classomnetpp_1_1cResultRecorderType.html" target="_top" xlink:title="Registers a cResultRecorder.">
<polygon fill="white" stroke="black" points="435,-313.5 435,-332.5 554,-332.5 554,-313.5 435,-313.5"/>
<text text-anchor="middle" x="494.5" y="-320.5" font-family="Helvetica,sans-Serif" font-size="10.00">cResultRecorderType</text>
</a>
</g>
</g>
<!-- Node1&#45;&gt;Node18 -->
<g id="edge16" class="edge">
<title>Node1&#45;&gt;Node18</title>
<path fill="none" stroke="midnightblue" d="M337.39,-437.98C356.16,-413 393.34,-367.98 435,-342 441.07,-338.21 447.97,-335.11 454.85,-332.59"/>
<polygon fill="midnightblue" stroke="midnightblue" points="334.44,-436.08 331.33,-446.21 340.08,-440.23 334.44,-436.08"/>
</g>
<!-- Node19 -->
<g id="node18" class="node">
<title>Node19</title>
<g id="a_node18"><a xlink:href="classomnetpp_1_1cSoftOwner.html" target="_top" xlink:title="Internal class, used as a base class for modules and channels. It is not intended for subclassing out...">
<polygon fill="white" stroke="black" points="458.5,-275.5 458.5,-294.5 530.5,-294.5 530.5,-275.5 458.5,-275.5"/>
<text text-anchor="middle" x="494.5" y="-282.5" font-family="Helvetica,sans-Serif" font-size="10.00">cSoftOwner</text>
</a>
</g>
</g>
<!-- Node1&#45;&gt;Node19 -->
<g id="edge17" class="edge">
<title>Node1&#45;&gt;Node19</title>
<path fill="none" stroke="midnightblue" d="M333.32,-436.99C349.16,-404.91 385.45,-339.98 435,-304 441.91,-298.98 450.22,-295.24 458.37,-292.48"/>
<polygon fill="midnightblue" stroke="midnightblue" points="330.08,-435.65 328.91,-446.18 336.39,-438.68 330.08,-435.65"/>
</g>
<!-- Node27 -->
<g id="node20" class="node">
<title>Node27</title>
<g id="a_node20"><a xlink:href="classomnetpp_1_1cWatchBase.html" target="_top" xlink:title="Helper class to make primitive types and non&#45;cOwnedObject objects inspectable in Qtenv....">
<polygon fill="white" stroke="black" points="456.5,-171.5 456.5,-190.5 532.5,-190.5 532.5,-171.5 456.5,-171.5"/>
<text text-anchor="middle" x="494.5" y="-178.5" font-family="Helvetica,sans-Serif" font-size="10.00">cWatchBase</text>
</a>
</g>
</g>
<!-- Node1&#45;&gt;Node27 -->
<g id="edge19" class="edge">
<title>Node1&#45;&gt;Node27</title>
<path fill="none" stroke="midnightblue" d="M334.67,-437.45C353.62,-403.13 395.96,-327.61 435,-266 452.64,-238.16 475.14,-206.43 486.41,-190.78"/>
<polygon fill="midnightblue" stroke="midnightblue" points="331.52,-435.91 329.77,-446.36 337.66,-439.29 331.52,-435.91"/>
</g>
<!-- Node2 -->
<g id="node2" class="node">
<title>Node2</title>
<g id="a_node2"><a xlink:href="classomnetpp_1_1cOwnedObject.html" target="_top" xlink:title="A cObject that keeps track of its owner. It serves as base class for many classes in the OMNeT++ libr...">
<polygon fill="white" stroke="black" points="125,-465.5 125,-484.5 212,-484.5 212,-465.5 125,-465.5"/>
<text text-anchor="middle" x="168.5" y="-472.5" font-family="Helvetica,sans-Serif" font-size="10.00">cOwnedObject</text>
</a>
</g>
</g>
<!-- Node2&#45;&gt;Node1 -->
<g id="edge1" class="edge">
<title>Node2&#45;&gt;Node1</title>
<path fill="none" stroke="midnightblue" d="M222.05,-468.47C230.39,-467.44 239.15,-466.35 247.88,-465.27"/>
<polygon fill="midnightblue" stroke="midnightblue" points="221.61,-465 212.12,-469.71 222.47,-471.95 221.61,-465"/>
</g>
<!-- Node3 -->
<g id="node3" class="node">
<title>Node3</title>
<g id="a_node3"><a xlink:href="classomnetpp_1_1cNamedObject.html" target="_top" xlink:title="Extends cObject with a name string. Also includes a &quot;flags&quot; member, with bits open for use by subclas...">
<polygon fill="white" stroke="red" points="0,-465.5 0,-484.5 89,-484.5 89,-465.5 0,-465.5"/>
<text text-anchor="middle" x="44.5" y="-472.5" font-family="Helvetica,sans-Serif" font-size="10.00">cNamedObject</text>
</a>
</g>
</g>
<!-- Node3&#45;&gt;Node2 -->
<g id="edge2" class="edge">
<title>Node3&#45;&gt;Node2</title>
<path fill="none" stroke="midnightblue" d="M99.46,-475C107.99,-475 116.7,-475 124.92,-475"/>
<polygon fill="midnightblue" stroke="midnightblue" points="99.2,-471.5 89.2,-475 99.2,-478.5 99.2,-471.5"/>
</g>
<!-- Node5 -->
<g id="node4" class="node">
<title>Node5</title>
<g id="a_node4"><a xlink:href="classomnetpp_1_1noncopyable.html" target="_top" xlink:title="Utility class, to make it impossible to call the operator= and copy constructor of any class derived ...">
<polygon fill="white" stroke="black" points="129,-427.5 129,-446.5 208,-446.5 208,-427.5 129,-427.5"/>
<text text-anchor="middle" x="168.5" y="-434.5" font-family="Helvetica,sans-Serif" font-size="10.00">noncopyable</text>
</a>
</g>
</g>
<!-- Node5&#45;&gt;Node1 -->
<g id="edge3" class="edge">
<title>Node5&#45;&gt;Node1</title>
<path fill="none" stroke="#8b1a1a" d="M218.1,-443.04C227.58,-444.21 237.72,-445.47 247.81,-446.73"/>
<polygon fill="#8b1a1a" stroke="#8b1a1a" points="218.46,-439.55 208.11,-441.79 217.6,-446.5 218.46,-439.55"/>
</g>
<!-- Node8 -->
<g id="node7" class="node">
<title>Node8</title>
<g id="a_node7"><a xlink:href="classomnetpp_1_1cChannelType.html" target="_top" xlink:title="Abstract base class for creating a channel of a given type.">
<polygon fill="white" stroke="black" points="640,-636.5 640,-655.5 724,-655.5 724,-636.5 640,-636.5"/>
<text text-anchor="middle" x="682" y="-643.5" font-family="Helvetica,sans-Serif" font-size="10.00">cChannelType</text>
</a>
</g>
</g>
<!-- Node7&#45;&gt;Node8 -->
<g id="edge6" class="edge">
<title>Node7&#45;&gt;Node8</title>
<path fill="none" stroke="midnightblue" d="M555.18,-633.11C582.85,-635.95 615.03,-639.24 639.93,-641.79"/>
<polygon fill="midnightblue" stroke="midnightblue" points="555.52,-629.63 545.21,-632.09 554.8,-636.59 555.52,-629.63"/>
</g>
<!-- Node9 -->
<g id="node8" class="node">
<title>Node9</title>
<g id="a_node8"><a xlink:href="classomnetpp_1_1cModuleType.html" target="_top" xlink:title="Abstract class for creating a module of a specific type.">
<polygon fill="white" stroke="black" points="642,-598.5 642,-617.5 722,-617.5 722,-598.5 642,-598.5"/>
<text text-anchor="middle" x="682" y="-605.5" font-family="Helvetica,sans-Serif" font-size="10.00">cModuleType</text>
</a>
</g>
</g>
<!-- Node7&#45;&gt;Node9 -->
<g id="edge7" class="edge">
<title>Node7&#45;&gt;Node9</title>
<path fill="none" stroke="midnightblue" d="M555.4,-620.86C583.69,-617.97 616.67,-614.59 641.73,-612.02"/>
<polygon fill="midnightblue" stroke="midnightblue" points="554.8,-617.41 545.21,-621.91 555.52,-624.37 554.8,-617.41"/>
</g>
<!-- Node12 -->
<g id="node11" class="node">
<title>Node12</title>
<g id="a_node11"><a xlink:href="classomnetpp_1_1cDefaultMessagePrinter.html" target="_top" xlink:title="A default message printer that displays the ID, kind, and length (for packets) of the message.">
<polygon fill="white" stroke="black" points="615,-541.5 615,-560.5 749,-560.5 749,-541.5 615,-541.5"/>
<text text-anchor="middle" x="682" y="-548.5" font-family="Helvetica,sans-Serif" font-size="10.00">cDefaultMessagePrinter</text>
</a>
</g>
</g>
<!-- Node11&#45;&gt;Node12 -->
<g id="edge10" class="edge">
<title>Node11&#45;&gt;Node12</title>
<path fill="none" stroke="midnightblue" d="M553.94,-551C573.28,-551 594.95,-551 614.83,-551"/>
<polygon fill="midnightblue" stroke="midnightblue" points="553.75,-547.5 543.75,-551 553.75,-554.5 553.75,-547.5"/>
</g>
<!-- Node20 -->
<g id="node19" class="node">
<title>Node20</title>
<g id="a_node19"><a xlink:href="classomnetpp_1_1cComponent.html" target="_top" xlink:title="Common base for module and channel classes.">
<polygon fill="white" stroke="red" points="643,-342.5 643,-361.5 721,-361.5 721,-342.5 643,-342.5"/>
<text text-anchor="middle" x="682" y="-349.5" font-family="Helvetica,sans-Serif" font-size="10.00">cComponent</text>
</a>
</g>
</g>
<!-- Node19&#45;&gt;Node20 -->
<g id="edge18" class="edge">
<title>Node19&#45;&gt;Node20</title>
<path fill="none" stroke="midnightblue" d="M540.38,-297.69C545.08,-299.58 549.71,-301.68 554,-304 572.07,-313.78 571.43,-324.21 590,-333 606.48,-340.8 626.15,-345.42 642.97,-348.14"/>
<polygon fill="midnightblue" stroke="midnightblue" points="541.29,-294.3 530.7,-294.14 538.88,-300.87 541.29,-294.3"/>
</g>
<!-- Node28 -->
<g id="node21" class="node">
<title>Node28</title>
<g id="a_node21"><a xlink:href="classomnetpp_1_1cComputedExpressionWatch.html" target="_top" xlink:title="Watch class for computed expressions. The watch will display the result of calling an encapsulated fu...">
<polygon fill="white" stroke="black" points="590,-304.5 590,-323.5 774,-323.5 774,-304.5 590,-304.5"/>
<text text-anchor="middle" x="682" y="-311.5" font-family="Helvetica,sans-Serif" font-size="10.00">cComputedExpressionWatch&lt; T &gt;</text>
</a>
</g>
</g>
<!-- Node27&#45;&gt;Node28 -->
<g id="edge20" class="edge">
<title>Node27&#45;&gt;Node28</title>
<path fill="none" stroke="midnightblue" d="M505.28,-199.24C520.05,-224.92 550.56,-271.24 590,-295 596.36,-298.83 603.37,-301.9 610.6,-304.35"/>
<polygon fill="midnightblue" stroke="midnightblue" points="508.33,-197.53 500.4,-190.5 502.22,-200.94 508.33,-197.53"/>
</g>
<!-- Node29 -->
<g id="node22" class="node">
<title>Node29</title>
<g id="a_node22"><a xlink:href="classomnetpp_1_1cGenericAssignableWatch.html" target="_top" xlink:title="Template Watch class, for any type that supports operator&lt;&lt;, and operator&gt;&gt; for assignment.">
<polygon fill="white" stroke="black" points="596.5,-266.5 596.5,-285.5 767.5,-285.5 767.5,-266.5 596.5,-266.5"/>
<text text-anchor="middle" x="682" y="-273.5" font-family="Helvetica,sans-Serif" font-size="10.00">cGenericAssignableWatch&lt; T &gt;</text>
</a>
</g>
</g>
<!-- Node27&#45;&gt;Node29 -->
<g id="edge21" class="edge">
<title>Node27&#45;&gt;Node29</title>
<path fill="none" stroke="midnightblue" d="M511.56,-197.99C529.14,-215.52 558.97,-242.33 590,-257 598.17,-260.86 607.12,-263.94 616.12,-266.4"/>
<polygon fill="midnightblue" stroke="midnightblue" points="513.88,-195.36 504.39,-190.66 508.88,-200.25 513.88,-195.36"/>
</g>
<!-- Node30 -->
<g id="node23" class="node">
<title>Node30</title>
<g id="a_node23"><a xlink:href="classomnetpp_1_1cGenericReadonlyWatch.html" target="_top" xlink:title="Template Watch class, for any type that supports operator&lt;&lt;.">
<polygon fill="white" stroke="black" points="600,-228.5 600,-247.5 764,-247.5 764,-228.5 600,-228.5"/>
<text text-anchor="middle" x="682" y="-235.5" font-family="Helvetica,sans-Serif" font-size="10.00">cGenericReadonlyWatch&lt; T &gt;</text>
</a>
</g>
</g>
<!-- Node27&#45;&gt;Node30 -->
<g id="edge22" class="edge">
<title>Node27&#45;&gt;Node30</title>
<path fill="none" stroke="midnightblue" d="M525.43,-194.61C543.77,-202.56 567.91,-212.31 590,-219 601.89,-222.6 614.87,-225.76 627.19,-228.41"/>
<polygon fill="midnightblue" stroke="midnightblue" points="526.7,-191.35 516.14,-190.53 523.89,-197.76 526.7,-191.35"/>
</g>
<!-- Node31 -->
<g id="node24" class="node">
<title>Node31</title>
<g id="a_node24"><a xlink:href="classomnetpp_1_1cWatch__bool.html" target="_top" xlink:title="Watch class, specifically for bool.">
<polygon fill="white" stroke="black" points="643,-190.5 643,-209.5 721,-209.5 721,-190.5 643,-190.5"/>
<text text-anchor="middle" x="682" y="-197.5" font-family="Helvetica,sans-Serif" font-size="10.00">cWatch_bool</text>
</a>
</g>
</g>
<!-- Node27&#45;&gt;Node31 -->
<g id="edge23" class="edge">
<title>Node27&#45;&gt;Node31</title>
<path fill="none" stroke="midnightblue" d="M542.72,-185.84C573.71,-189.01 613.7,-193.11 642.7,-196.08"/>
<polygon fill="midnightblue" stroke="midnightblue" points="542.9,-182.34 532.59,-184.8 542.18,-189.3 542.9,-182.34"/>
</g>
<!-- Node32 -->
<g id="node25" class="node">
<title>Node32</title>
<g id="a_node25"><a xlink:href="classomnetpp_1_1cWatch__char.html" target="_top" xlink:title="Watch class, specifically for char.">
<polygon fill="white" stroke="black" points="643,-152.5 643,-171.5 721,-171.5 721,-152.5 643,-152.5"/>
<text text-anchor="middle" x="682" y="-159.5" font-family="Helvetica,sans-Serif" font-size="10.00">cWatch_char</text>
</a>
</g>
</g>
<!-- Node27&#45;&gt;Node32 -->
<g id="edge24" class="edge">
<title>Node27&#45;&gt;Node32</title>
<path fill="none" stroke="midnightblue" d="M542.72,-176.16C573.71,-172.99 613.7,-168.89 642.7,-165.92"/>
<polygon fill="midnightblue" stroke="midnightblue" points="542.18,-172.7 532.59,-177.2 542.9,-179.66 542.18,-172.7"/>
</g>
<!-- Node33 -->
<g id="node26" class="node">
<title>Node33</title>
<g id="a_node26"><a xlink:href="classomnetpp_1_1cWatch__cObject.html" target="_top" xlink:title="Watch class, specifically for objects subclassed from cObject.">
<polygon fill="white" stroke="black" points="635,-114.5 635,-133.5 729,-133.5 729,-114.5 635,-114.5"/>
<text text-anchor="middle" x="682" y="-121.5" font-family="Helvetica,sans-Serif" font-size="10.00">cWatch_cObject</text>
</a>
</g>
</g>
<!-- Node27&#45;&gt;Node33 -->
<g id="edge25" class="edge">
<title>Node27&#45;&gt;Node33</title>
<path fill="none" stroke="midnightblue" d="M525.43,-167.39C543.77,-159.44 567.91,-149.69 590,-143 604.37,-138.65 620.3,-134.95 634.77,-132.01"/>
<polygon fill="midnightblue" stroke="midnightblue" points="523.89,-164.24 516.14,-171.47 526.7,-170.65 523.89,-164.24"/>
</g>
<!-- Node34 -->
<g id="node27" class="node">
<title>Node34</title>
<g id="a_node27"><a xlink:href="classomnetpp_1_1cWatch__cObjectPtr.html" target="_top" xlink:title="Watch class, specifically for pointers to objects subclassed from cObject.">
<polygon fill="white" stroke="black" points="628.5,-76.5 628.5,-95.5 735.5,-95.5 735.5,-76.5 628.5,-76.5"/>
<text text-anchor="middle" x="682" y="-83.5" font-family="Helvetica,sans-Serif" font-size="10.00">cWatch_cObjectPtr</text>
</a>
</g>
</g>
<!-- Node27&#45;&gt;Node34 -->
<g id="edge26" class="edge">
<title>Node27&#45;&gt;Node34</title>
<path fill="none" stroke="midnightblue" d="M511.56,-164.01C529.14,-146.48 558.97,-119.67 590,-105 601.82,-99.41 615.27,-95.46 628.13,-92.67"/>
<polygon fill="midnightblue" stroke="midnightblue" points="508.88,-161.75 504.39,-171.34 513.88,-166.64 508.88,-161.75"/>
</g>
<!-- Node35 -->
<g id="node28" class="node">
<title>Node35</title>
<g id="a_node28"><a xlink:href="classomnetpp_1_1cWatch__stdstring.html" target="_top" xlink:title="Watch class, specifically for std::string.">
<polygon fill="white" stroke="black" points="632,-38.5 632,-57.5 732,-57.5 732,-38.5 632,-38.5"/>
<text text-anchor="middle" x="682" y="-45.5" font-family="Helvetica,sans-Serif" font-size="10.00">cWatch_stdstring</text>
</a>
</g>
</g>
<!-- Node27&#45;&gt;Node35 -->
<g id="edge27" class="edge">
<title>Node27&#45;&gt;Node35</title>
<path fill="none" stroke="midnightblue" d="M505.28,-162.76C520.05,-137.08 550.56,-90.76 590,-67 602.58,-59.42 617.71,-54.83 632,-52.06"/>
<polygon fill="midnightblue" stroke="midnightblue" points="502.22,-161.06 500.4,-171.5 508.33,-164.47 502.22,-161.06"/>
</g>
<!-- Node36 -->
<g id="node29" class="node">
<title>Node36</title>
<g id="a_node29"><a xlink:href="classomnetpp_1_1cWatch__uchar.html" target="_top" xlink:title="Watch class, specifically for unsigned char.">
<polygon fill="white" stroke="black" points="640,-0.5 640,-19.5 724,-19.5 724,-0.5 640,-0.5"/>
<text text-anchor="middle" x="682" y="-7.5" font-family="Helvetica,sans-Serif" font-size="10.00">cWatch_uchar</text>
</a>
</g>
</g>
<!-- Node27&#45;&gt;Node36 -->
<g id="edge28" class="edge">
<title>Node27&#45;&gt;Node36</title>
<path fill="none" stroke="midnightblue" d="M501.87,-161.49C513.67,-128.6 542.18,-62.43 590,-29 604.42,-18.92 623.05,-13.98 639.7,-11.63"/>
<polygon fill="midnightblue" stroke="midnightblue" points="498.45,-160.68 498.5,-171.27 505.07,-162.96 498.45,-160.68"/>
</g>
</g>
</svg>
