<?xml version="1.0" encoding="UTF-8" standalone="no"?>
<!DOCTYPE svg PUBLIC "-//W3C//DTD SVG 1.1//EN"
 "http://www.w3.org/Graphics/SVG/1.1/DTD/svg11.dtd">
<!-- Generated by graphviz version 2.43.0 (0)
 -->
<!-- Title: cPrecollectionBasedDensityEst Pages: 1 -->
<svg width="175pt" height="196pt"
 viewBox="0.00 0.00 175.00 196.00" xmlns="http://www.w3.org/2000/svg" xmlns:xlink="http://www.w3.org/1999/xlink">
<g id="graph0" class="graph" transform="scale(1 1) rotate(0) translate(4 192)">
<title>cPrecollectionBasedDensityEst</title>
<polygon fill="white" stroke="transparent" points="-4,4 -4,-192 171,-192 171,4 -4,4"/>
<!-- Node1 -->
<g id="node1" class="node">
<title>Node1</title>
<g id="a_node1"><a xlink:title="Base class for histogram&#45;like density estimation classes.">
<polygon fill="#bfbfbf" stroke="black" points="0,-56.5 0,-75.5 167,-75.5 167,-56.5 0,-56.5"/>
<text text-anchor="middle" x="83.5" y="-63.5" font-family="Helvetica,sans-Serif" font-size="10.00">cPrecollectionBasedDensityEst</text>
</a>
</g>
</g>
<!-- Node9 -->
<g id="node4" class="node">
<title>Node9</title>
<g id="a_node4"><a xlink:href="classomnetpp_1_1cKSplit.html" target="_top" xlink:title="Implements k&#45;split, an adaptive histogram&#45;like density estimation algorithm. During result collection...">
<polygon fill="white" stroke="black" points="58.5,-0.5 58.5,-19.5 108.5,-19.5 108.5,-0.5 58.5,-0.5"/>
<text text-anchor="middle" x="83.5" y="-7.5" font-family="Helvetica,sans-Serif" font-size="10.00">cKSplit</text>
</a>
</g>
</g>
<!-- Node1&#45;&gt;Node9 -->
<g id="edge3" class="edge">
<title>Node1&#45;&gt;Node9</title>
<path fill="none" stroke="midnightblue" d="M83.5,-45.8C83.5,-36.91 83.5,-26.78 83.5,-19.75"/>
<polygon fill="midnightblue" stroke="midnightblue" points="80,-46.08 83.5,-56.08 87,-46.08 80,-46.08"/>
</g>
<!-- Node2 -->
<g id="node2" class="node">
<title>Node2</title>
<g id="a_node2"><a xlink:href="classomnetpp_1_1cAbstractHistogram.html" target="_top" xlink:title="Interface and base class for histogram&#45;like density estimation classes.">
<polygon fill="white" stroke="black" points="27,-112.5 27,-131.5 140,-131.5 140,-112.5 27,-112.5"/>
<text text-anchor="middle" x="83.5" y="-119.5" font-family="Helvetica,sans-Serif" font-size="10.00">cAbstractHistogram</text>
</a>
</g>
</g>
<!-- Node2&#45;&gt;Node1 -->
<g id="edge1" class="edge">
<title>Node2&#45;&gt;Node1</title>
<path fill="none" stroke="midnightblue" d="M83.5,-101.8C83.5,-92.91 83.5,-82.78 83.5,-75.75"/>
<polygon fill="midnightblue" stroke="midnightblue" points="80,-102.08 83.5,-112.08 87,-102.08 80,-102.08"/>
</g>
<!-- Node3 -->
<g id="node3" class="node">
<title>Node3</title>
<g id="a_node3"><a xlink:href="classomnetpp_1_1cStdDev.html" target="_top" xlink:title="Statistics class to collect min, max, mean, and standard deviation.">
<polygon fill="white" stroke="red" points="55,-168.5 55,-187.5 112,-187.5 112,-168.5 55,-168.5"/>
<text text-anchor="middle" x="83.5" y="-175.5" font-family="Helvetica,sans-Serif" font-size="10.00">cStdDev</text>
</a>
</g>
</g>
<!-- Node3&#45;&gt;Node2 -->
<g id="edge2" class="edge">
<title>Node3&#45;&gt;Node2</title>
<path fill="none" stroke="midnightblue" d="M83.5,-157.8C83.5,-148.91 83.5,-138.78 83.5,-131.75"/>
<polygon fill="midnightblue" stroke="midnightblue" points="80,-158.08 83.5,-168.08 87,-158.08 80,-158.08"/>
</g>
</g>
</svg>
