<?xml version="1.0" encoding="UTF-8" standalone="no"?>
<!DOCTYPE svg PUBLIC "-//W3C//DTD SVG 1.1//EN"
 "http://www.w3.org/Graphics/SVG/1.1/DTD/svg11.dtd">
<!-- Generated by graphviz version 2.43.0 (0)
 -->
<!-- Title: cChannel::MessageSentSignalValue Pages: 1 -->
<svg width="201pt" height="95pt"
 viewBox="0.00 0.00 201.00 95.00" xmlns="http://www.w3.org/2000/svg" xmlns:xlink="http://www.w3.org/1999/xlink">
<g id="graph0" class="graph" transform="scale(1 1) rotate(0) translate(4 91)">
<title>cChannel::MessageSentSignalValue</title>
<polygon fill="white" stroke="transparent" points="-4,4 -4,-91 197,-91 197,4 -4,4"/>
<!-- Node1 -->
<g id="node1" class="node">
<title>Node1</title>
<g id="a_node1"><a xlink:title="Signal value that accompanies the &quot;messageSent&quot; signal.">
<polygon fill="#bfbfbf" stroke="black" points="30,-0.5 30,-30.5 193,-30.5 193,-0.5 30,-0.5"/>
<text text-anchor="start" x="38" y="-18.5" font-family="Helvetica,sans-Serif" font-size="10.00">cChannel::MessageSentSignal</text>
<text text-anchor="middle" x="111.5" y="-7.5" font-family="Helvetica,sans-Serif" font-size="10.00">Value</text>
</a>
</g>
</g>
<!-- Node2 -->
<g id="node2" class="node">
<title>Node2</title>
<g id="a_node2"><a xlink:href="classomnetpp_1_1cITimestampedValue.html" target="_top" xlink:title="Interface for emitting timestamped values as signals, primarily for result recording.">
<polygon fill="white" stroke="black" points="0,-67.5 0,-86.5 119,-86.5 119,-67.5 0,-67.5"/>
<text text-anchor="middle" x="59.5" y="-74.5" font-family="Helvetica,sans-Serif" font-size="10.00">cITimestampedValue</text>
</a>
</g>
</g>
<!-- Node2&#45;&gt;Node1 -->
<g id="edge1" class="edge">
<title>Node2&#45;&gt;Node1</title>
<path fill="none" stroke="midnightblue" d="M73.65,-59.81C81.66,-50.65 91.57,-39.3 99.24,-30.52"/>
<polygon fill="midnightblue" stroke="midnightblue" points="70.9,-57.64 66.95,-67.48 76.17,-62.25 70.9,-57.64"/>
</g>
<!-- Node3 -->
<g id="node3" class="node">
<title>Node3</title>
<g id="a_node3"><a xlink:href="classomnetpp_1_1cObject.html" target="_top" xlink:title="cObject is a lightweight class which serves as the root of the OMNeT++ class hierarchy....">
<polygon fill="white" stroke="black" points="137,-67.5 137,-86.5 190,-86.5 190,-67.5 137,-67.5"/>
<text text-anchor="middle" x="163.5" y="-74.5" font-family="Helvetica,sans-Serif" font-size="10.00">cObject</text>
</a>
</g>
</g>
<!-- Node3&#45;&gt;Node1 -->
<g id="edge2" class="edge">
<title>Node3&#45;&gt;Node1</title>
<path fill="none" stroke="midnightblue" d="M149.35,-59.81C141.34,-50.65 131.43,-39.3 123.76,-30.52"/>
<polygon fill="midnightblue" stroke="midnightblue" points="146.83,-62.25 156.05,-67.48 152.1,-57.64 146.83,-62.25"/>
</g>
</g>
</svg>
