<?xml version="1.0" encoding="UTF-8" standalone="no"?>
<!DOCTYPE svg PUBLIC "-//W3C//DTD SVG 1.1//EN"
 "http://www.w3.org/Graphics/SVG/1.1/DTD/svg11.dtd">
<!-- Generated by graphviz version 2.43.0 (0)
 -->
<!-- Title: cEvent Pages: 1 -->
<svg width="97pt" height="252pt"
 viewBox="0.00 0.00 97.00 252.00" xmlns="http://www.w3.org/2000/svg" xmlns:xlink="http://www.w3.org/1999/xlink">
<g id="graph0" class="graph" transform="scale(1 1) rotate(0) translate(4 248)">
<title>cEvent</title>
<polygon fill="white" stroke="transparent" points="-4,4 -4,-248 93,-248 93,4 -4,4"/>
<!-- Node1 -->
<g id="node1" class="node">
<title>Node1</title>
<g id="a_node1"><a xlink:title="Represents an event in the discrete event simulator.">
<polygon fill="#bfbfbf" stroke="black" points="19.5,-112.5 19.5,-131.5 69.5,-131.5 69.5,-112.5 19.5,-112.5"/>
<text text-anchor="middle" x="44.5" y="-119.5" font-family="Helvetica,sans-Serif" font-size="10.00">cEvent</text>
</a>
</g>
</g>
<!-- Node5 -->
<g id="node4" class="node">
<title>Node5</title>
<g id="a_node4"><a xlink:href="classomnetpp_1_1cMessage.html" target="_top" xlink:title="The message class in OMNeT++. cMessage objects may represent events, messages, jobs or other entities...">
<polygon fill="white" stroke="black" points="12,-56.5 12,-75.5 77,-75.5 77,-56.5 12,-56.5"/>
<text text-anchor="middle" x="44.5" y="-63.5" font-family="Helvetica,sans-Serif" font-size="10.00">cMessage</text>
</a>
</g>
</g>
<!-- Node1&#45;&gt;Node5 -->
<g id="edge3" class="edge">
<title>Node1&#45;&gt;Node5</title>
<path fill="none" stroke="midnightblue" d="M44.5,-101.8C44.5,-92.91 44.5,-82.78 44.5,-75.75"/>
<polygon fill="midnightblue" stroke="midnightblue" points="41,-102.08 44.5,-112.08 48,-102.08 41,-102.08"/>
</g>
<!-- Node2 -->
<g id="node2" class="node">
<title>Node2</title>
<g id="a_node2"><a xlink:href="classomnetpp_1_1cOwnedObject.html" target="_top" xlink:title="A cObject that keeps track of its owner. It serves as base class for many classes in the OMNeT++ libr...">
<polygon fill="white" stroke="black" points="1,-168.5 1,-187.5 88,-187.5 88,-168.5 1,-168.5"/>
<text text-anchor="middle" x="44.5" y="-175.5" font-family="Helvetica,sans-Serif" font-size="10.00">cOwnedObject</text>
</a>
</g>
</g>
<!-- Node2&#45;&gt;Node1 -->
<g id="edge1" class="edge">
<title>Node2&#45;&gt;Node1</title>
<path fill="none" stroke="midnightblue" d="M44.5,-157.8C44.5,-148.91 44.5,-138.78 44.5,-131.75"/>
<polygon fill="midnightblue" stroke="midnightblue" points="41,-158.08 44.5,-168.08 48,-158.08 41,-158.08"/>
</g>
<!-- Node3 -->
<g id="node3" class="node">
<title>Node3</title>
<g id="a_node3"><a xlink:href="classomnetpp_1_1cNamedObject.html" target="_top" xlink:title="Extends cObject with a name string. Also includes a &quot;flags&quot; member, with bits open for use by subclas...">
<polygon fill="white" stroke="red" points="0,-224.5 0,-243.5 89,-243.5 89,-224.5 0,-224.5"/>
<text text-anchor="middle" x="44.5" y="-231.5" font-family="Helvetica,sans-Serif" font-size="10.00">cNamedObject</text>
</a>
</g>
</g>
<!-- Node3&#45;&gt;Node2 -->
<g id="edge2" class="edge">
<title>Node3&#45;&gt;Node2</title>
<path fill="none" stroke="midnightblue" d="M44.5,-213.8C44.5,-204.91 44.5,-194.78 44.5,-187.75"/>
<polygon fill="midnightblue" stroke="midnightblue" points="41,-214.08 44.5,-224.08 48,-214.08 41,-214.08"/>
</g>
<!-- Node6 -->
<g id="node5" class="node">
<title>Node6</title>
<g id="a_node5"><a xlink:href="classomnetpp_1_1cPacket.html" target="_top" xlink:title="A subclass of cMessage to represent packets, frames, datagrams, application messages,...">
<polygon fill="white" stroke="black" points="18,-0.5 18,-19.5 71,-19.5 71,-0.5 18,-0.5"/>
<text text-anchor="middle" x="44.5" y="-7.5" font-family="Helvetica,sans-Serif" font-size="10.00">cPacket</text>
</a>
</g>
</g>
<!-- Node5&#45;&gt;Node6 -->
<g id="edge4" class="edge">
<title>Node5&#45;&gt;Node6</title>
<path fill="none" stroke="midnightblue" d="M44.5,-45.8C44.5,-36.91 44.5,-26.78 44.5,-19.75"/>
<polygon fill="midnightblue" stroke="midnightblue" points="41,-46.08 44.5,-56.08 48,-46.08 41,-46.08"/>
</g>
</g>
</svg>
