<?xml version="1.0" encoding="UTF-8" standalone="no"?>
<!DOCTYPE svg PUBLIC "-//W3C//DTD SVG 1.1//EN"
 "http://www.w3.org/Graphics/SVG/1.1/DTD/svg11.dtd">
<!-- Generated by graphviz version 2.43.0 (0)
 -->
<!-- Title: cPostParameterChangeNotification Pages: 1 -->
<svg width="194pt" height="140pt"
 viewBox="0.00 0.00 194.00 140.00" xmlns="http://www.w3.org/2000/svg" xmlns:xlink="http://www.w3.org/1999/xlink">
<g id="graph0" class="graph" transform="scale(1 1) rotate(0) translate(4 136)">
<title>cPostParameterChangeNotification</title>
<polygon fill="white" stroke="transparent" points="-4,4 -4,-136 190,-136 190,4 -4,4"/>
<!-- Node1 -->
<g id="node1" class="node">
<title>Node1</title>
<g id="a_node1"><a xlink:title="Model change notification fired after a parameter change.">
<polygon fill="#bfbfbf" stroke="black" points="0,-0.5 0,-19.5 186,-19.5 186,-0.5 0,-0.5"/>
<text text-anchor="middle" x="93" y="-7.5" font-family="Helvetica,sans-Serif" font-size="10.00">cPostParameterChangeNotification</text>
</a>
</g>
</g>
<!-- Node2 -->
<g id="node2" class="node">
<title>Node2</title>
<g id="a_node2"><a xlink:href="classomnetpp_1_1cModelChangeNotification.html" target="_top" xlink:title="Common base class for data objects that accompany PRE_MODEL_CHANGE and POST_MODEL_CHANGE signals.">
<polygon fill="white" stroke="black" points="20.5,-56.5 20.5,-75.5 165.5,-75.5 165.5,-56.5 20.5,-56.5"/>
<text text-anchor="middle" x="93" y="-63.5" font-family="Helvetica,sans-Serif" font-size="10.00">cModelChangeNotification</text>
</a>
</g>
</g>
<!-- Node2&#45;&gt;Node1 -->
<g id="edge1" class="edge">
<title>Node2&#45;&gt;Node1</title>
<path fill="none" stroke="midnightblue" d="M93,-45.8C93,-36.91 93,-26.78 93,-19.75"/>
<polygon fill="midnightblue" stroke="midnightblue" points="89.5,-46.08 93,-56.08 96.5,-46.08 89.5,-46.08"/>
</g>
<!-- Node3 -->
<g id="node3" class="node">
<title>Node3</title>
<g id="a_node3"><a xlink:href="classomnetpp_1_1cObject.html" target="_top" xlink:title="cObject is a lightweight class which serves as the root of the OMNeT++ class hierarchy....">
<polygon fill="white" stroke="black" points="24.5,-112.5 24.5,-131.5 77.5,-131.5 77.5,-112.5 24.5,-112.5"/>
<text text-anchor="middle" x="51" y="-119.5" font-family="Helvetica,sans-Serif" font-size="10.00">cObject</text>
</a>
</g>
</g>
<!-- Node3&#45;&gt;Node2 -->
<g id="edge2" class="edge">
<title>Node3&#45;&gt;Node2</title>
<path fill="none" stroke="midnightblue" d="M64.11,-104.14C71.43,-94.74 80.24,-83.4 86.19,-75.75"/>
<polygon fill="midnightblue" stroke="midnightblue" points="61.31,-102.04 57.94,-112.08 66.84,-106.34 61.31,-102.04"/>
</g>
<!-- Node4 -->
<g id="node4" class="node">
<title>Node4</title>
<g id="a_node4"><a xlink:href="classomnetpp_1_1noncopyable.html" target="_top" xlink:title="Utility class, to make it impossible to call the operator= and copy constructor of any class derived ...">
<polygon fill="white" stroke="black" points="95.5,-112.5 95.5,-131.5 174.5,-131.5 174.5,-112.5 95.5,-112.5"/>
<text text-anchor="middle" x="135" y="-119.5" font-family="Helvetica,sans-Serif" font-size="10.00">noncopyable</text>
</a>
</g>
</g>
<!-- Node4&#45;&gt;Node2 -->
<g id="edge3" class="edge">
<title>Node4&#45;&gt;Node2</title>
<path fill="none" stroke="#8b1a1a" d="M121.89,-104.14C114.57,-94.74 105.76,-83.4 99.81,-75.75"/>
<polygon fill="#8b1a1a" stroke="#8b1a1a" points="119.16,-106.34 128.06,-112.08 124.69,-102.04 119.16,-106.34"/>
</g>
</g>
</svg>
