<?xml version="1.0" encoding="UTF-8" standalone="no"?>
<!DOCTYPE svg PUBLIC "-//W3C//DTD SVG 1.1//EN"
 "http://www.w3.org/Graphics/SVG/1.1/DTD/svg11.dtd">
<!-- Generated by graphviz version 2.43.0 (0)
 -->
<!-- Title: cConfiguration Pages: 1 -->
<svg width="107pt" height="140pt"
 viewBox="0.00 0.00 107.00 140.00" xmlns="http://www.w3.org/2000/svg" xmlns:xlink="http://www.w3.org/1999/xlink">
<g id="graph0" class="graph" transform="scale(1 1) rotate(0) translate(4 136)">
<title>cConfiguration</title>
<polygon fill="white" stroke="transparent" points="-4,4 -4,-136 103,-136 103,4 -4,4"/>
<!-- Node1 -->
<g id="node1" class="node">
<title>Node1</title>
<g id="a_node1"><a xlink:title="Represents the configuration, as accessed by the simulation kernel.">
<polygon fill="#bfbfbf" stroke="black" points="6,-56.5 6,-75.5 93,-75.5 93,-56.5 6,-56.5"/>
<text text-anchor="middle" x="49.5" y="-63.5" font-family="Helvetica,sans-Serif" font-size="10.00">cConfiguration</text>
</a>
</g>
</g>
<!-- Node3 -->
<g id="node3" class="node">
<title>Node3</title>
<g id="a_node3"><a xlink:href="classomnetpp_1_1cConfigurationEx.html" target="_top" xlink:title="Represents a configuration suitable for use with the Envir library.">
<polygon fill="white" stroke="black" points="0,-0.5 0,-19.5 99,-19.5 99,-0.5 0,-0.5"/>
<text text-anchor="middle" x="49.5" y="-7.5" font-family="Helvetica,sans-Serif" font-size="10.00">cConfigurationEx</text>
</a>
</g>
</g>
<!-- Node1&#45;&gt;Node3 -->
<g id="edge2" class="edge">
<title>Node1&#45;&gt;Node3</title>
<path fill="none" stroke="midnightblue" d="M49.5,-45.8C49.5,-36.91 49.5,-26.78 49.5,-19.75"/>
<polygon fill="midnightblue" stroke="midnightblue" points="46,-46.08 49.5,-56.08 53,-46.08 46,-46.08"/>
</g>
<!-- Node2 -->
<g id="node2" class="node">
<title>Node2</title>
<g id="a_node2"><a xlink:href="classomnetpp_1_1cObject.html" target="_top" xlink:title="cObject is a lightweight class which serves as the root of the OMNeT++ class hierarchy....">
<polygon fill="white" stroke="black" points="23,-112.5 23,-131.5 76,-131.5 76,-112.5 23,-112.5"/>
<text text-anchor="middle" x="49.5" y="-119.5" font-family="Helvetica,sans-Serif" font-size="10.00">cObject</text>
</a>
</g>
</g>
<!-- Node2&#45;&gt;Node1 -->
<g id="edge1" class="edge">
<title>Node2&#45;&gt;Node1</title>
<path fill="none" stroke="midnightblue" d="M49.5,-101.8C49.5,-92.91 49.5,-82.78 49.5,-75.75"/>
<polygon fill="midnightblue" stroke="midnightblue" points="46,-102.08 49.5,-112.08 53,-102.08 46,-102.08"/>
</g>
</g>
</svg>
