<?xml version="1.0" encoding="UTF-8" standalone="no"?>
<!DOCTYPE svg PUBLIC "-//W3C//DTD SVG 1.1//EN"
 "http://www.w3.org/Graphics/SVG/1.1/DTD/svg11.dtd">
<!-- Generated by graphviz version 2.43.0 (0)
 -->
<!-- Title: cAbstractShapeFigure Pages: 1 -->
<svg width="603pt" height="196pt"
 viewBox="0.00 0.00 603.00 196.00" xmlns="http://www.w3.org/2000/svg" xmlns:xlink="http://www.w3.org/1999/xlink">
<g id="graph0" class="graph" transform="scale(1 1) rotate(0) translate(4 192)">
<title>cAbstractShapeFigure</title>
<polygon fill="white" stroke="transparent" points="-4,4 -4,-192 599,-192 599,4 -4,4"/>
<!-- Node1 -->
<g id="node1" class="node">
<title>Node1</title>
<g id="a_node1"><a xlink:title="Abstract base class for various shapes.">
<polygon fill="#bfbfbf" stroke="black" points="222,-56.5 222,-75.5 344,-75.5 344,-56.5 222,-56.5"/>
<text text-anchor="middle" x="283" y="-63.5" font-family="Helvetica,sans-Serif" font-size="10.00">cAbstractShapeFigure</text>
</a>
</g>
</g>
<!-- Node6 -->
<g id="node4" class="node">
<title>Node6</title>
<g id="a_node4"><a xlink:href="classomnetpp_1_1cOvalFigure.html" target="_top" xlink:title="A figure that draws a circle or ellipse.">
<polygon fill="white" stroke="black" points="0,-0.5 0,-19.5 74,-19.5 74,-0.5 0,-0.5"/>
<text text-anchor="middle" x="37" y="-7.5" font-family="Helvetica,sans-Serif" font-size="10.00">cOvalFigure</text>
</a>
</g>
</g>
<!-- Node1&#45;&gt;Node6 -->
<g id="edge3" class="edge">
<title>Node1&#45;&gt;Node6</title>
<path fill="none" stroke="midnightblue" d="M234.05,-54.26C186.98,-43.92 116.85,-28.53 74.19,-19.16"/>
<polygon fill="midnightblue" stroke="midnightblue" points="233.5,-57.72 244.02,-56.44 235,-50.88 233.5,-57.72"/>
</g>
<!-- Node7 -->
<g id="node5" class="node">
<title>Node7</title>
<g id="a_node5"><a xlink:href="classomnetpp_1_1cPathFigure.html" target="_top" xlink:title="A figure that displays a &quot;path&quot;, a complex shape or line modeled after SVG paths.">
<polygon fill="white" stroke="black" points="92.5,-0.5 92.5,-19.5 165.5,-19.5 165.5,-0.5 92.5,-0.5"/>
<text text-anchor="middle" x="129" y="-7.5" font-family="Helvetica,sans-Serif" font-size="10.00">cPathFigure</text>
</a>
</g>
</g>
<!-- Node1&#45;&gt;Node7 -->
<g id="edge4" class="edge">
<title>Node1&#45;&gt;Node7</title>
<path fill="none" stroke="midnightblue" d="M248.89,-53.04C219.91,-42.88 179.04,-28.55 153.29,-19.52"/>
<polygon fill="midnightblue" stroke="midnightblue" points="248,-56.44 258.6,-56.44 250.32,-49.83 248,-56.44"/>
</g>
<!-- Node8 -->
<g id="node6" class="node">
<title>Node8</title>
<g id="a_node6"><a xlink:href="classomnetpp_1_1cPieSliceFigure.html" target="_top" xlink:title="A figure that displays a pie slice, that is, a section of an axis&#45;aligned disc or filled ellipse.">
<polygon fill="white" stroke="black" points="184,-0.5 184,-19.5 274,-19.5 274,-0.5 184,-0.5"/>
<text text-anchor="middle" x="229" y="-7.5" font-family="Helvetica,sans-Serif" font-size="10.00">cPieSliceFigure</text>
</a>
</g>
</g>
<!-- Node1&#45;&gt;Node8 -->
<g id="edge5" class="edge">
<title>Node1&#45;&gt;Node8</title>
<path fill="none" stroke="midnightblue" d="M267,-49C257.43,-39.43 245.64,-27.64 237.75,-19.75"/>
<polygon fill="midnightblue" stroke="midnightblue" points="264.54,-51.49 274.08,-56.08 269.49,-46.54 264.54,-51.49"/>
</g>
<!-- Node9 -->
<g id="node7" class="node">
<title>Node9</title>
<g id="a_node7"><a xlink:href="classomnetpp_1_1cPolygonFigure.html" target="_top" xlink:title="A figure that displays a (closed) polygon, determined by a sequence of points.">
<polygon fill="white" stroke="black" points="292.5,-0.5 292.5,-19.5 383.5,-19.5 383.5,-0.5 292.5,-0.5"/>
<text text-anchor="middle" x="338" y="-7.5" font-family="Helvetica,sans-Serif" font-size="10.00">cPolygonFigure</text>
</a>
</g>
</g>
<!-- Node1&#45;&gt;Node9 -->
<g id="edge6" class="edge">
<title>Node1&#45;&gt;Node9</title>
<path fill="none" stroke="midnightblue" d="M299.29,-49C309.04,-39.43 321.05,-27.64 329.09,-19.75"/>
<polygon fill="midnightblue" stroke="midnightblue" points="296.77,-46.58 292.08,-56.08 301.67,-51.57 296.77,-46.58"/>
</g>
<!-- Node10 -->
<g id="node8" class="node">
<title>Node10</title>
<g id="a_node8"><a xlink:href="classomnetpp_1_1cRectangleFigure.html" target="_top" xlink:title="A figure that displays a rectangle, with optionally rounded corners.">
<polygon fill="white" stroke="black" points="401.5,-0.5 401.5,-19.5 502.5,-19.5 502.5,-0.5 401.5,-0.5"/>
<text text-anchor="middle" x="452" y="-7.5" font-family="Helvetica,sans-Serif" font-size="10.00">cRectangleFigure</text>
</a>
</g>
</g>
<!-- Node1&#45;&gt;Node10 -->
<g id="edge7" class="edge">
<title>Node1&#45;&gt;Node10</title>
<path fill="none" stroke="midnightblue" d="M319.6,-53.3C351.45,-43.13 396.84,-28.62 425.35,-19.52"/>
<polygon fill="midnightblue" stroke="midnightblue" points="318.24,-50.07 309.78,-56.44 320.37,-56.73 318.24,-50.07"/>
</g>
<!-- Node11 -->
<g id="node9" class="node">
<title>Node11</title>
<g id="a_node9"><a xlink:href="classomnetpp_1_1cRingFigure.html" target="_top" xlink:title="A figure that displays a ring, with explicitly controllable inner/outer radii.">
<polygon fill="white" stroke="black" points="521,-0.5 521,-19.5 595,-19.5 595,-0.5 521,-0.5"/>
<text text-anchor="middle" x="558" y="-7.5" font-family="Helvetica,sans-Serif" font-size="10.00">cRingFigure</text>
</a>
</g>
</g>
<!-- Node1&#45;&gt;Node11 -->
<g id="edge8" class="edge">
<title>Node1&#45;&gt;Node11</title>
<path fill="none" stroke="midnightblue" d="M336.7,-54.46C390.95,-43.8 473.35,-27.62 520.8,-18.3"/>
<polygon fill="midnightblue" stroke="midnightblue" points="335.71,-51.08 326.57,-56.44 337.06,-57.95 335.71,-51.08"/>
</g>
<!-- Node2 -->
<g id="node2" class="node">
<title>Node2</title>
<g id="a_node2"><a xlink:href="classomnetpp_1_1cFigure.html" target="_top" xlink:title="A lightweight graphical object for cCanvas.">
<polygon fill="white" stroke="black" points="257,-112.5 257,-131.5 309,-131.5 309,-112.5 257,-112.5"/>
<text text-anchor="middle" x="283" y="-119.5" font-family="Helvetica,sans-Serif" font-size="10.00">cFigure</text>
</a>
</g>
</g>
<!-- Node2&#45;&gt;Node1 -->
<g id="edge1" class="edge">
<title>Node2&#45;&gt;Node1</title>
<path fill="none" stroke="midnightblue" d="M283,-101.8C283,-92.91 283,-82.78 283,-75.75"/>
<polygon fill="midnightblue" stroke="midnightblue" points="279.5,-102.08 283,-112.08 286.5,-102.08 279.5,-102.08"/>
</g>
<!-- Node3 -->
<g id="node3" class="node">
<title>Node3</title>
<g id="a_node3"><a xlink:href="classomnetpp_1_1cOwnedObject.html" target="_top" xlink:title="A cObject that keeps track of its owner. It serves as base class for many classes in the OMNeT++ libr...">
<polygon fill="white" stroke="red" points="239.5,-168.5 239.5,-187.5 326.5,-187.5 326.5,-168.5 239.5,-168.5"/>
<text text-anchor="middle" x="283" y="-175.5" font-family="Helvetica,sans-Serif" font-size="10.00">cOwnedObject</text>
</a>
</g>
</g>
<!-- Node3&#45;&gt;Node2 -->
<g id="edge2" class="edge">
<title>Node3&#45;&gt;Node2</title>
<path fill="none" stroke="midnightblue" d="M283,-157.8C283,-148.91 283,-138.78 283,-131.75"/>
<polygon fill="midnightblue" stroke="midnightblue" points="279.5,-158.08 283,-168.08 286.5,-158.08 279.5,-158.08"/>
</g>
</g>
</svg>
