<?xml version="1.0" encoding="UTF-8" standalone="no"?>
<!DOCTYPE svg PUBLIC "-//W3C//DTD SVG 1.1//EN"
 "http://www.w3.org/Graphics/SVG/1.1/DTD/svg11.dtd">
<!-- Generated by graphviz version 2.43.0 (0)
 -->
<!-- Title: cParImpl Pages: 1 -->
<svg width="601pt" height="196pt"
 viewBox="0.00 0.00 601.00 196.00" xmlns="http://www.w3.org/2000/svg" xmlns:xlink="http://www.w3.org/1999/xlink">
<g id="graph0" class="graph" transform="scale(1 1) rotate(0) translate(4 192)">
<title>cParImpl</title>
<polygon fill="white" stroke="transparent" points="-4,4 -4,-192 597,-192 597,4 -4,4"/>
<!-- Node1 -->
<g id="node1" class="node">
<title>Node1</title>
<g id="a_node1"><a xlink:title="Internal class that stores values for cPar objects.">
<polygon fill="#bfbfbf" stroke="black" points="264.5,-56.5 264.5,-75.5 323.5,-75.5 323.5,-56.5 264.5,-56.5"/>
<text text-anchor="middle" x="294" y="-63.5" font-family="Helvetica,sans-Serif" font-size="10.00">cParImpl</text>
</a>
</g>
</g>
<!-- Node4 -->
<g id="node4" class="node">
<title>Node4</title>
<g id="a_node4"><a xlink:href="classomnetpp_1_1internal_1_1cBoolParImpl.html" target="_top" xlink:title="A cParImpl subclass that stores a module/channel parameter of the type bool.">
<polygon fill="white" stroke="black" points="0,-0.5 0,-19.5 80,-19.5 80,-0.5 0,-0.5"/>
<text text-anchor="middle" x="40" y="-7.5" font-family="Helvetica,sans-Serif" font-size="10.00">cBoolParImpl</text>
</a>
</g>
</g>
<!-- Node1&#45;&gt;Node4 -->
<g id="edge3" class="edge">
<title>Node1&#45;&gt;Node4</title>
<path fill="none" stroke="midnightblue" d="M254.47,-56.6C207.06,-46.52 128.04,-29.72 80.3,-19.57"/>
<polygon fill="midnightblue" stroke="midnightblue" points="253.86,-60.04 264.37,-58.7 255.31,-53.2 253.86,-60.04"/>
</g>
<!-- Node5 -->
<g id="node5" class="node">
<title>Node5</title>
<g id="a_node5"><a xlink:href="classomnetpp_1_1internal_1_1cDoubleParImpl.html" target="_top" xlink:title="A cParImpl subclass that stores a module/channel parameter of the type double.">
<polygon fill="white" stroke="black" points="98.5,-0.5 98.5,-19.5 191.5,-19.5 191.5,-0.5 98.5,-0.5"/>
<text text-anchor="middle" x="145" y="-7.5" font-family="Helvetica,sans-Serif" font-size="10.00">cDoubleParImpl</text>
</a>
</g>
</g>
<!-- Node1&#45;&gt;Node5 -->
<g id="edge4" class="edge">
<title>Node1&#45;&gt;Node5</title>
<path fill="none" stroke="midnightblue" d="M260.63,-52.91C232.62,-42.75 193.3,-28.51 168.5,-19.52"/>
<polygon fill="midnightblue" stroke="midnightblue" points="259.8,-56.33 270.39,-56.44 262.18,-49.75 259.8,-56.33"/>
</g>
<!-- Node6 -->
<g id="node6" class="node">
<title>Node6</title>
<g id="a_node6"><a xlink:href="classomnetpp_1_1internal_1_1cIntParImpl.html" target="_top" xlink:title="A cParImpl subclass that stores an integer module/channel parameter.">
<polygon fill="white" stroke="black" points="209.5,-0.5 209.5,-19.5 280.5,-19.5 280.5,-0.5 209.5,-0.5"/>
<text text-anchor="middle" x="245" y="-7.5" font-family="Helvetica,sans-Serif" font-size="10.00">cIntParImpl</text>
</a>
</g>
</g>
<!-- Node1&#45;&gt;Node6 -->
<g id="edge5" class="edge">
<title>Node1&#45;&gt;Node6</title>
<path fill="none" stroke="midnightblue" d="M278.97,-48.43C270.38,-38.97 259.96,-27.48 252.94,-19.75"/>
<polygon fill="midnightblue" stroke="midnightblue" points="276.6,-51.03 285.91,-56.08 281.78,-46.33 276.6,-51.03"/>
</g>
<!-- Node7 -->
<g id="node7" class="node">
<title>Node7</title>
<g id="a_node7"><a xlink:href="classomnetpp_1_1internal_1_1cObjectParImpl.html" target="_top" xlink:title="A cParImpl subclass that stores a module/channel parameter of type &quot;object&quot;.">
<polygon fill="white" stroke="black" points="299,-0.5 299,-19.5 389,-19.5 389,-0.5 299,-0.5"/>
<text text-anchor="middle" x="344" y="-7.5" font-family="Helvetica,sans-Serif" font-size="10.00">cObjectParImpl</text>
</a>
</g>
</g>
<!-- Node1&#45;&gt;Node7 -->
<g id="edge6" class="edge">
<title>Node1&#45;&gt;Node7</title>
<path fill="none" stroke="midnightblue" d="M309.08,-48.72C317.89,-39.2 328.67,-27.56 335.9,-19.75"/>
<polygon fill="midnightblue" stroke="midnightblue" points="306.48,-46.37 302.26,-56.08 311.62,-51.12 306.48,-46.37"/>
</g>
<!-- Node8 -->
<g id="node8" class="node">
<title>Node8</title>
<g id="a_node8"><a xlink:href="classomnetpp_1_1internal_1_1cStringParImpl.html" target="_top" xlink:title="A cParImpl subclass that stores a module/channel parameter of the type string.">
<polygon fill="white" stroke="black" points="407.5,-0.5 407.5,-19.5 494.5,-19.5 494.5,-0.5 407.5,-0.5"/>
<text text-anchor="middle" x="451" y="-7.5" font-family="Helvetica,sans-Serif" font-size="10.00">cStringParImpl</text>
</a>
</g>
</g>
<!-- Node1&#45;&gt;Node8 -->
<g id="edge7" class="edge">
<title>Node1&#45;&gt;Node8</title>
<path fill="none" stroke="midnightblue" d="M328.39,-53.17C357.95,-43 399.87,-28.59 426.24,-19.52"/>
<polygon fill="midnightblue" stroke="midnightblue" points="327.2,-49.88 318.88,-56.44 329.47,-56.5 327.2,-49.88"/>
</g>
<!-- Node9 -->
<g id="node9" class="node">
<title>Node9</title>
<g id="a_node9"><a xlink:href="classomnetpp_1_1internal_1_1cXMLParImpl.html" target="_top" xlink:title="A cParImpl subclass that stores a module/channel parameter of type XML.">
<polygon fill="white" stroke="black" points="513,-0.5 513,-19.5 593,-19.5 593,-0.5 513,-0.5"/>
<text text-anchor="middle" x="553" y="-7.5" font-family="Helvetica,sans-Serif" font-size="10.00">cXMLParImpl</text>
</a>
</g>
</g>
<!-- Node1&#45;&gt;Node9 -->
<g id="edge8" class="edge">
<title>Node1&#45;&gt;Node9</title>
<path fill="none" stroke="midnightblue" d="M333.53,-56.76C382.01,-46.65 463.76,-29.61 512.63,-19.42"/>
<polygon fill="midnightblue" stroke="midnightblue" points="332.79,-53.34 323.71,-58.81 334.21,-60.19 332.79,-53.34"/>
</g>
<!-- Node2 -->
<g id="node2" class="node">
<title>Node2</title>
<g id="a_node2"><a xlink:href="classomnetpp_1_1cNamedObject.html" target="_top" xlink:title="Extends cObject with a name string. Also includes a &quot;flags&quot; member, with bits open for use by subclas...">
<polygon fill="white" stroke="black" points="249.5,-112.5 249.5,-131.5 338.5,-131.5 338.5,-112.5 249.5,-112.5"/>
<text text-anchor="middle" x="294" y="-119.5" font-family="Helvetica,sans-Serif" font-size="10.00">cNamedObject</text>
</a>
</g>
</g>
<!-- Node2&#45;&gt;Node1 -->
<g id="edge1" class="edge">
<title>Node2&#45;&gt;Node1</title>
<path fill="none" stroke="midnightblue" d="M294,-101.8C294,-92.91 294,-82.78 294,-75.75"/>
<polygon fill="midnightblue" stroke="midnightblue" points="290.5,-102.08 294,-112.08 297.5,-102.08 290.5,-102.08"/>
</g>
<!-- Node3 -->
<g id="node3" class="node">
<title>Node3</title>
<g id="a_node3"><a xlink:href="classomnetpp_1_1cObject.html" target="_top" xlink:title="cObject is a lightweight class which serves as the root of the OMNeT++ class hierarchy....">
<polygon fill="white" stroke="black" points="267.5,-168.5 267.5,-187.5 320.5,-187.5 320.5,-168.5 267.5,-168.5"/>
<text text-anchor="middle" x="294" y="-175.5" font-family="Helvetica,sans-Serif" font-size="10.00">cObject</text>
</a>
</g>
</g>
<!-- Node3&#45;&gt;Node2 -->
<g id="edge2" class="edge">
<title>Node3&#45;&gt;Node2</title>
<path fill="none" stroke="midnightblue" d="M294,-157.8C294,-148.91 294,-138.78 294,-131.75"/>
<polygon fill="midnightblue" stroke="midnightblue" points="290.5,-158.08 294,-168.08 297.5,-158.08 290.5,-158.08"/>
</g>
</g>
</svg>
