<?xml version="1.0" encoding="UTF-8" standalone="no"?>
<!DOCTYPE svg PUBLIC "-//W3C//DTD SVG 1.1//EN"
 "http://www.w3.org/Graphics/SVG/1.1/DTD/svg11.dtd">
<!-- Generated by graphviz version 2.43.0 (0)
 -->
<!-- Title: cObjectResultFilter Pages: 1 -->
<svg width="220pt" height="196pt"
 viewBox="0.00 0.00 219.50 196.00" xmlns="http://www.w3.org/2000/svg" xmlns:xlink="http://www.w3.org/1999/xlink">
<g id="graph0" class="graph" transform="scale(1 1) rotate(0) translate(4 192)">
<title>cObjectResultFilter</title>
<polygon fill="white" stroke="transparent" points="-4,4 -4,-192 215.5,-192 215.5,4 -4,4"/>
<!-- Node1 -->
<g id="node1" class="node">
<title>Node1</title>
<g id="a_node1"><a xlink:title="Base class for filters that expect to receive an object.">
<polygon fill="#bfbfbf" stroke="black" points="48.5,-56.5 48.5,-75.5 157.5,-75.5 157.5,-56.5 48.5,-56.5"/>
<text text-anchor="middle" x="103" y="-63.5" font-family="Helvetica,sans-Serif" font-size="10.00">cObjectResultFilter</text>
</a>
</g>
</g>
<!-- Node6 -->
<g id="node4" class="node">
<title>Node6</title>
<g id="a_node4"><a xlink:href="classomnetpp_1_1PacketBitsFilter.html" target="_top" xlink:title="Filter that expects a cPacket and outputs its length in bits (getBitLength()). Null (nullptr) values ...">
<polygon fill="white" stroke="black" points="0,-0.5 0,-19.5 92,-19.5 92,-0.5 0,-0.5"/>
<text text-anchor="middle" x="46" y="-7.5" font-family="Helvetica,sans-Serif" font-size="10.00">PacketBitsFilter</text>
</a>
</g>
</g>
<!-- Node1&#45;&gt;Node6 -->
<g id="edge3" class="edge">
<title>Node1&#45;&gt;Node6</title>
<path fill="none" stroke="midnightblue" d="M86.38,-49.25C76.27,-39.67 63.72,-27.79 55.32,-19.83"/>
<polygon fill="midnightblue" stroke="midnightblue" points="84.18,-51.99 93.84,-56.32 88.99,-46.91 84.18,-51.99"/>
</g>
<!-- Node7 -->
<g id="node5" class="node">
<title>Node7</title>
<g id="a_node5"><a xlink:href="classomnetpp_1_1PacketBytesFilter.html" target="_top" xlink:title="Filter that expects a cPacket and outputs its length in bytes (getByteLength()). Null (nullptr) value...">
<polygon fill="white" stroke="black" points="110.5,-0.5 110.5,-19.5 211.5,-19.5 211.5,-0.5 110.5,-0.5"/>
<text text-anchor="middle" x="161" y="-7.5" font-family="Helvetica,sans-Serif" font-size="10.00">PacketBytesFilter</text>
</a>
</g>
</g>
<!-- Node1&#45;&gt;Node7 -->
<g id="edge4" class="edge">
<title>Node1&#45;&gt;Node7</title>
<path fill="none" stroke="midnightblue" d="M119.91,-49.25C130.2,-39.67 142.97,-27.79 151.51,-19.83"/>
<polygon fill="midnightblue" stroke="midnightblue" points="117.25,-46.95 112.32,-56.32 122.02,-52.07 117.25,-46.95"/>
</g>
<!-- Node2 -->
<g id="node2" class="node">
<title>Node2</title>
<g id="a_node2"><a xlink:href="classomnetpp_1_1cResultFilter.html" target="_top" xlink:title="Base class for result filters.">
<polygon fill="white" stroke="black" points="64.5,-112.5 64.5,-131.5 141.5,-131.5 141.5,-112.5 64.5,-112.5"/>
<text text-anchor="middle" x="103" y="-119.5" font-family="Helvetica,sans-Serif" font-size="10.00">cResultFilter</text>
</a>
</g>
</g>
<!-- Node2&#45;&gt;Node1 -->
<g id="edge1" class="edge">
<title>Node2&#45;&gt;Node1</title>
<path fill="none" stroke="midnightblue" d="M103,-101.8C103,-92.91 103,-82.78 103,-75.75"/>
<polygon fill="midnightblue" stroke="midnightblue" points="99.5,-102.08 103,-112.08 106.5,-102.08 99.5,-102.08"/>
</g>
<!-- Node3 -->
<g id="node3" class="node">
<title>Node3</title>
<g id="a_node3"><a xlink:href="classomnetpp_1_1cResultListener.html" target="_top" xlink:title="Common abstract base class for result filters and result recorders.">
<polygon fill="white" stroke="red" points="57,-168.5 57,-187.5 149,-187.5 149,-168.5 57,-168.5"/>
<text text-anchor="middle" x="103" y="-175.5" font-family="Helvetica,sans-Serif" font-size="10.00">cResultListener</text>
</a>
</g>
</g>
<!-- Node3&#45;&gt;Node2 -->
<g id="edge2" class="edge">
<title>Node3&#45;&gt;Node2</title>
<path fill="none" stroke="midnightblue" d="M103,-157.8C103,-148.91 103,-138.78 103,-131.75"/>
<polygon fill="midnightblue" stroke="midnightblue" points="99.5,-158.08 103,-168.08 106.5,-158.08 99.5,-158.08"/>
</g>
</g>
</svg>
