<?xml version="1.0" encoding="UTF-8" standalone="no"?>
<!DOCTYPE svg PUBLIC "-//W3C//DTD SVG 1.1//EN"
 "http://www.w3.org/Graphics/SVG/1.1/DTD/svg11.dtd">
<!-- Generated by graphviz version 2.43.0 (0)
 -->
<!-- Title: cIOutputScalarManager Pages: 1 -->
<svg width="337pt" height="84pt"
 viewBox="0.00 0.00 337.00 84.00" xmlns="http://www.w3.org/2000/svg" xmlns:xlink="http://www.w3.org/1999/xlink">
<g id="graph0" class="graph" transform="scale(1 1) rotate(0) translate(4 80)">
<title>cIOutputScalarManager</title>
<polygon fill="white" stroke="transparent" points="-4,4 -4,-80 333,-80 333,4 -4,4"/>
<!-- Node1 -->
<g id="node1" class="node">
<title>Node1</title>
<g id="a_node1"><a xlink:title="Abstract base class for handling recording of output scalar data.">
<polygon fill="#bfbfbf" stroke="black" points="86,-0.5 86,-19.5 217,-19.5 217,-0.5 86,-0.5"/>
<text text-anchor="middle" x="151.5" y="-7.5" font-family="Helvetica,sans-Serif" font-size="10.00">cIOutputScalarManager</text>
</a>
</g>
</g>
<!-- Node2 -->
<g id="node2" class="node">
<title>Node2</title>
<g id="a_node2"><a xlink:href="classomnetpp_1_1cObject.html" target="_top" xlink:title="cObject is a lightweight class which serves as the root of the OMNeT++ class hierarchy....">
<polygon fill="white" stroke="black" points="0,-56.5 0,-75.5 53,-75.5 53,-56.5 0,-56.5"/>
<text text-anchor="middle" x="26.5" y="-63.5" font-family="Helvetica,sans-Serif" font-size="10.00">cObject</text>
</a>
</g>
</g>
<!-- Node2&#45;&gt;Node1 -->
<g id="edge1" class="edge">
<title>Node2&#45;&gt;Node1</title>
<path fill="none" stroke="midnightblue" d="M55.74,-52.37C79.15,-42.26 111.34,-28.35 131.79,-19.52"/>
<polygon fill="midnightblue" stroke="midnightblue" points="54.1,-49.26 46.31,-56.44 56.87,-55.69 54.1,-49.26"/>
</g>
<!-- Node3 -->
<g id="node3" class="node">
<title>Node3</title>
<g id="a_node3"><a xlink:href="classomnetpp_1_1cISimulationLifecycleListener.html" target="_top" xlink:title="A callback interface for receiving notifications at various stages simulations, including setting up,...">
<polygon fill="white" stroke="black" points="71.5,-56.5 71.5,-75.5 231.5,-75.5 231.5,-56.5 71.5,-56.5"/>
<text text-anchor="middle" x="151.5" y="-63.5" font-family="Helvetica,sans-Serif" font-size="10.00">cISimulationLifecycleListener</text>
</a>
</g>
</g>
<!-- Node3&#45;&gt;Node1 -->
<g id="edge2" class="edge">
<title>Node3&#45;&gt;Node1</title>
<path fill="none" stroke="midnightblue" d="M151.5,-45.8C151.5,-36.91 151.5,-26.78 151.5,-19.75"/>
<polygon fill="midnightblue" stroke="midnightblue" points="148,-46.08 151.5,-56.08 155,-46.08 148,-46.08"/>
</g>
<!-- Node4 -->
<g id="node4" class="node">
<title>Node4</title>
<g id="a_node4"><a xlink:href="classomnetpp_1_1noncopyable.html" target="_top" xlink:title="Utility class, to make it impossible to call the operator= and copy constructor of any class derived ...">
<polygon fill="white" stroke="black" points="250,-56.5 250,-75.5 329,-75.5 329,-56.5 250,-56.5"/>
<text text-anchor="middle" x="289.5" y="-63.5" font-family="Helvetica,sans-Serif" font-size="10.00">noncopyable</text>
</a>
</g>
</g>
<!-- Node4&#45;&gt;Node1 -->
<g id="edge3" class="edge">
<title>Node4&#45;&gt;Node1</title>
<path fill="none" stroke="#8b1a1a" d="M258.25,-52.77C232.33,-42.63 196.14,-28.47 173.26,-19.52"/>
<polygon fill="#8b1a1a" stroke="#8b1a1a" points="257.05,-56.06 267.63,-56.44 259.6,-49.54 257.05,-56.06"/>
</g>
</g>
</svg>
