<?xml version="1.0" encoding="UTF-8" standalone="no"?>
<!DOCTYPE svg PUBLIC "-//W3C//DTD SVG 1.1//EN"
 "http://www.w3.org/Graphics/SVG/1.1/DTD/svg11.dtd">
<!-- Generated by graphviz version 2.43.0 (0)
 -->
<!-- Title: cTimestampedValue Pages: 1 -->
<svg width="198pt" height="84pt"
 viewBox="0.00 0.00 198.00 84.00" xmlns="http://www.w3.org/2000/svg" xmlns:xlink="http://www.w3.org/1999/xlink">
<g id="graph0" class="graph" transform="scale(1 1) rotate(0) translate(4 80)">
<title>cTimestampedValue</title>
<polygon fill="white" stroke="transparent" points="-4,4 -4,-80 194,-80 194,4 -4,4"/>
<!-- Node1 -->
<g id="node1" class="node">
<title>Node1</title>
<g id="a_node1"><a xlink:title="A straightforward implementation of cITimestampedValue.">
<polygon fill="#bfbfbf" stroke="black" points="53.5,-0.5 53.5,-19.5 169.5,-19.5 169.5,-0.5 53.5,-0.5"/>
<text text-anchor="middle" x="111.5" y="-7.5" font-family="Helvetica,sans-Serif" font-size="10.00">cTimestampedValue</text>
</a>
</g>
</g>
<!-- Node2 -->
<g id="node2" class="node">
<title>Node2</title>
<g id="a_node2"><a xlink:href="classomnetpp_1_1cITimestampedValue.html" target="_top" xlink:title="Interface for emitting timestamped values as signals, primarily for result recording.">
<polygon fill="white" stroke="black" points="0,-56.5 0,-75.5 119,-75.5 119,-56.5 0,-56.5"/>
<text text-anchor="middle" x="59.5" y="-63.5" font-family="Helvetica,sans-Serif" font-size="10.00">cITimestampedValue</text>
</a>
</g>
</g>
<!-- Node2&#45;&gt;Node1 -->
<g id="edge1" class="edge">
<title>Node2&#45;&gt;Node1</title>
<path fill="none" stroke="midnightblue" d="M75.18,-48.72C84.34,-39.2 95.55,-27.56 103.07,-19.75"/>
<polygon fill="midnightblue" stroke="midnightblue" points="72.5,-46.45 68.09,-56.08 77.54,-51.31 72.5,-46.45"/>
</g>
<!-- Node3 -->
<g id="node3" class="node">
<title>Node3</title>
<g id="a_node3"><a xlink:href="classomnetpp_1_1cObject.html" target="_top" xlink:title="cObject is a lightweight class which serves as the root of the OMNeT++ class hierarchy....">
<polygon fill="white" stroke="black" points="137,-56.5 137,-75.5 190,-75.5 190,-56.5 137,-56.5"/>
<text text-anchor="middle" x="163.5" y="-63.5" font-family="Helvetica,sans-Serif" font-size="10.00">cObject</text>
</a>
</g>
</g>
<!-- Node3&#45;&gt;Node1 -->
<g id="edge2" class="edge">
<title>Node3&#45;&gt;Node1</title>
<path fill="none" stroke="midnightblue" d="M147.82,-48.72C138.66,-39.2 127.45,-27.56 119.93,-19.75"/>
<polygon fill="midnightblue" stroke="midnightblue" points="145.46,-51.31 154.91,-56.08 150.5,-46.45 145.46,-51.31"/>
</g>
</g>
</svg>
