<?xml version="1.0" encoding="UTF-8" standalone="no"?>
<!DOCTYPE svg PUBLIC "-//W3C//DTD SVG 1.1//EN"
 "http://www.w3.org/Graphics/SVG/1.1/DTD/svg11.dtd">
<!-- Generated by graphviz version 2.43.0 (0)
 -->
<!-- Title: cResultFilter Pages: 1 -->
<svg width="626pt" height="712pt"
 viewBox="0.00 0.00 626.00 712.00" xmlns="http://www.w3.org/2000/svg" xmlns:xlink="http://www.w3.org/1999/xlink">
<g id="graph0" class="graph" transform="scale(1 1) rotate(0) translate(4 708)">
<title>cResultFilter</title>
<polygon fill="white" stroke="transparent" points="-4,4 -4,-708 622,-708 622,4 -4,4"/>
<!-- Node1 -->
<g id="node1" class="node">
<title>Node1</title>
<g id="a_node1"><a xlink:title="Base class for result filters.">
<polygon fill="#bfbfbf" stroke="black" points="228,-133.5 228,-152.5 305,-152.5 305,-133.5 228,-133.5"/>
<text text-anchor="middle" x="266.5" y="-140.5" font-family="Helvetica,sans-Serif" font-size="10.00">cResultFilter</text>
</a>
</g>
</g>
<!-- Node5 -->
<g id="node5" class="node">
<title>Node5</title>
<g id="a_node5"><a xlink:href="classomnetpp_1_1cNumericResultFilter.html" target="_top" xlink:title="Base class for filters that expect to receive an numeric value.">
<polygon fill="white" stroke="black" points="341,-475.5 341,-494.5 460,-494.5 460,-475.5 341,-475.5"/>
<text text-anchor="middle" x="400.5" y="-482.5" font-family="Helvetica,sans-Serif" font-size="10.00">cNumericResultFilter</text>
</a>
</g>
</g>
<!-- Node1&#45;&gt;Node5 -->
<g id="edge4" class="edge">
<title>Node1&#45;&gt;Node5</title>
<path fill="none" stroke="midnightblue" d="M274.86,-162.07C299.39,-225.61 377.78,-428.72 395.79,-475.38"/>
<polygon fill="midnightblue" stroke="midnightblue" points="278.03,-160.57 271.17,-152.5 271.5,-163.09 278.03,-160.57"/>
</g>
<!-- Node17 -->
<g id="node17" class="node">
<title>Node17</title>
<g id="a_node17"><a xlink:href="classomnetpp_1_1cObjectResultFilter.html" target="_top" xlink:title="Base class for filters that expect to receive an object.">
<polygon fill="white" stroke="black" points="346,-228.5 346,-247.5 455,-247.5 455,-228.5 346,-228.5"/>
<text text-anchor="middle" x="400.5" y="-235.5" font-family="Helvetica,sans-Serif" font-size="10.00">cObjectResultFilter</text>
</a>
</g>
</g>
<!-- Node1&#45;&gt;Node17 -->
<g id="edge16" class="edge">
<title>Node1&#45;&gt;Node17</title>
<path fill="none" stroke="midnightblue" d="M280.44,-160.73C293.82,-177.89 316.21,-203.52 341,-219 347.07,-222.79 353.97,-225.9 360.85,-228.42"/>
<polygon fill="midnightblue" stroke="midnightblue" points="283.12,-158.48 274.29,-152.63 277.54,-162.71 283.12,-158.48"/>
</g>
<!-- Node20 -->
<g id="node20" class="node">
<title>Node20</title>
<g id="a_node20"><a xlink:href="classomnetpp_1_1ConstantFilter.html" target="_top" xlink:title="Result filter that replaces every value with a constant. Signal values do not need to be numeric.">
<polygon fill="white" stroke="black" points="358,-190.5 358,-209.5 443,-209.5 443,-190.5 358,-190.5"/>
<text text-anchor="middle" x="400.5" y="-197.5" font-family="Helvetica,sans-Serif" font-size="10.00">ConstantFilter</text>
</a>
</g>
</g>
<!-- Node1&#45;&gt;Node20 -->
<g id="edge19" class="edge">
<title>Node1&#45;&gt;Node20</title>
<path fill="none" stroke="midnightblue" d="M293.03,-157.51C306.95,-165.08 324.63,-174.16 341,-181 349.28,-184.46 358.42,-187.69 366.97,-190.48"/>
<polygon fill="midnightblue" stroke="midnightblue" points="294.51,-154.32 284.06,-152.55 291.12,-160.45 294.51,-154.32"/>
</g>
<!-- Node23 -->
<g id="node23" class="node">
<title>Node23</title>
<g id="a_node23"><a xlink:href="classomnetpp_1_1DemuxFilter.html" target="_top" xlink:title="Result filter that demultiplexes its input to several outputs. The selector (a.ka....">
<polygon fill="white" stroke="black" points="362,-152.5 362,-171.5 439,-171.5 439,-152.5 362,-152.5"/>
<text text-anchor="middle" x="400.5" y="-159.5" font-family="Helvetica,sans-Serif" font-size="10.00">DemuxFilter</text>
</a>
</g>
</g>
<!-- Node1&#45;&gt;Node23 -->
<g id="edge22" class="edge">
<title>Node1&#45;&gt;Node23</title>
<path fill="none" stroke="midnightblue" d="M315.57,-149.92C330.76,-152.11 347.31,-154.49 361.67,-156.55"/>
<polygon fill="midnightblue" stroke="midnightblue" points="315.72,-146.41 305.33,-148.44 314.73,-153.33 315.72,-146.41"/>
</g>
<!-- Node24 -->
<g id="node24" class="node">
<title>Node24</title>
<g id="a_node24"><a xlink:href="classomnetpp_1_1IdentityFilter.html" target="_top" xlink:title="This class is a no&#45;op filter.">
<polygon fill="white" stroke="black" points="361,-114.5 361,-133.5 440,-133.5 440,-114.5 361,-114.5"/>
<text text-anchor="middle" x="400.5" y="-121.5" font-family="Helvetica,sans-Serif" font-size="10.00">IdentityFilter</text>
</a>
</g>
</g>
<!-- Node1&#45;&gt;Node24 -->
<g id="edge23" class="edge">
<title>Node1&#45;&gt;Node24</title>
<path fill="none" stroke="midnightblue" d="M315.39,-136.11C330.3,-133.96 346.55,-131.62 360.75,-129.58"/>
<polygon fill="midnightblue" stroke="midnightblue" points="314.73,-132.67 305.33,-137.56 315.72,-139.59 314.73,-132.67"/>
</g>
<!-- Node26 -->
<g id="node26" class="node">
<title>Node26</title>
<g id="a_node26"><a xlink:href="classomnetpp_1_1TimeFilter.html" target="_top" xlink:title="Result filter that yields the time of emitting the signal.">
<polygon fill="white" stroke="black" points="367.5,-76.5 367.5,-95.5 433.5,-95.5 433.5,-76.5 367.5,-76.5"/>
<text text-anchor="middle" x="400.5" y="-83.5" font-family="Helvetica,sans-Serif" font-size="10.00">TimeFilter</text>
</a>
</g>
</g>
<!-- Node1&#45;&gt;Node26 -->
<g id="edge25" class="edge">
<title>Node1&#45;&gt;Node26</title>
<path fill="none" stroke="midnightblue" d="M293.03,-128.49C306.95,-120.92 324.63,-111.84 341,-105 349.38,-101.5 358.64,-98.23 367.28,-95.43"/>
<polygon fill="midnightblue" stroke="midnightblue" points="291.12,-125.55 284.06,-133.45 294.51,-131.68 291.12,-125.55"/>
</g>
<!-- Node27 -->
<g id="node27" class="node">
<title>Node27</title>
<g id="a_node27"><a xlink:href="classomnetpp_1_1TotalCountFilter.html" target="_top" xlink:title="Result filter for counting the input values, including NaN and nullptr values.">
<polygon fill="white" stroke="black" points="354,-38.5 354,-57.5 447,-57.5 447,-38.5 354,-38.5"/>
<text text-anchor="middle" x="400.5" y="-45.5" font-family="Helvetica,sans-Serif" font-size="10.00">TotalCountFilter</text>
</a>
</g>
</g>
<!-- Node1&#45;&gt;Node27 -->
<g id="edge26" class="edge">
<title>Node1&#45;&gt;Node27</title>
<path fill="none" stroke="midnightblue" d="M280.44,-125.27C293.82,-108.11 316.21,-82.48 341,-67 347.07,-63.21 353.97,-60.1 360.85,-57.58"/>
<polygon fill="midnightblue" stroke="midnightblue" points="277.54,-123.29 274.29,-133.37 283.12,-127.52 277.54,-123.29"/>
</g>
<!-- Node29 -->
<g id="node29" class="node">
<title>Node29</title>
<g id="a_node29"><a xlink:href="classomnetpp_1_1WarmupPeriodFilter.html" target="_top" xlink:title="Result filter that absorbs input values during the configured warm&#45;up period (see warmup&#45;period confi...">
<polygon fill="white" stroke="black" points="344,-0.5 344,-19.5 457,-19.5 457,-0.5 344,-0.5"/>
<text text-anchor="middle" x="400.5" y="-7.5" font-family="Helvetica,sans-Serif" font-size="10.00">WarmupPeriodFilter</text>
</a>
</g>
</g>
<!-- Node1&#45;&gt;Node29 -->
<g id="edge28" class="edge">
<title>Node1&#45;&gt;Node29</title>
<path fill="none" stroke="midnightblue" d="M274.95,-123.91C285.77,-98.62 308.18,-54.26 341,-29 345.99,-25.16 351.79,-22.08 357.76,-19.61"/>
<polygon fill="midnightblue" stroke="midnightblue" points="271.58,-122.89 271.03,-133.47 278.06,-125.55 271.58,-122.89"/>
</g>
<!-- Node2 -->
<g id="node2" class="node">
<title>Node2</title>
<g id="a_node2"><a xlink:href="classomnetpp_1_1cResultListener.html" target="_top" xlink:title="Common abstract base class for result filters and result recorders.">
<polygon fill="white" stroke="black" points="100,-133.5 100,-152.5 192,-152.5 192,-133.5 100,-133.5"/>
<text text-anchor="middle" x="146" y="-140.5" font-family="Helvetica,sans-Serif" font-size="10.00">cResultListener</text>
</a>
</g>
</g>
<!-- Node2&#45;&gt;Node1 -->
<g id="edge1" class="edge">
<title>Node2&#45;&gt;Node1</title>
<path fill="none" stroke="midnightblue" d="M202.21,-143C210.88,-143 219.66,-143 227.82,-143"/>
<polygon fill="midnightblue" stroke="midnightblue" points="202.14,-139.5 192.14,-143 202.14,-146.5 202.14,-139.5"/>
</g>
<!-- Node3 -->
<g id="node3" class="node">
<title>Node3</title>
<g id="a_node3"><a xlink:href="classomnetpp_1_1cObject.html" target="_top" xlink:title="cObject is a lightweight class which serves as the root of the OMNeT++ class hierarchy....">
<polygon fill="white" stroke="black" points="5.5,-152.5 5.5,-171.5 58.5,-171.5 58.5,-152.5 5.5,-152.5"/>
<text text-anchor="middle" x="32" y="-159.5" font-family="Helvetica,sans-Serif" font-size="10.00">cObject</text>
</a>
</g>
</g>
<!-- Node3&#45;&gt;Node2 -->
<g id="edge2" class="edge">
<title>Node3&#45;&gt;Node2</title>
<path fill="none" stroke="midnightblue" d="M68.57,-155.97C78.44,-154.29 89.29,-152.45 99.64,-150.69"/>
<polygon fill="midnightblue" stroke="midnightblue" points="67.97,-152.52 58.7,-157.64 69.14,-159.42 67.97,-152.52"/>
</g>
<!-- Node4 -->
<g id="node4" class="node">
<title>Node4</title>
<g id="a_node4"><a xlink:href="classomnetpp_1_1cIListener.html" target="_top" xlink:title="Interface for listeners in a simulation model.">
<polygon fill="white" stroke="black" points="0,-114.5 0,-133.5 64,-133.5 64,-114.5 0,-114.5"/>
<text text-anchor="middle" x="32" y="-121.5" font-family="Helvetica,sans-Serif" font-size="10.00">cIListener</text>
</a>
</g>
</g>
<!-- Node4&#45;&gt;Node2 -->
<g id="edge3" class="edge">
<title>Node4&#45;&gt;Node2</title>
<path fill="none" stroke="midnightblue" d="M74.09,-130.97C82.43,-132.39 91.25,-133.88 99.74,-135.32"/>
<polygon fill="midnightblue" stroke="midnightblue" points="74.64,-127.51 64.2,-129.29 73.47,-134.42 74.64,-127.51"/>
</g>
<!-- Node6 -->
<g id="node6" class="node">
<title>Node6</title>
<g id="a_node6"><a xlink:href="classomnetpp_1_1AverageFilter.html" target="_top" xlink:title="Result filter that computes the arithmetic mean of signal values. NaN values in the input are ignored...">
<polygon fill="white" stroke="black" points="516.5,-684.5 516.5,-703.5 597.5,-703.5 597.5,-684.5 516.5,-684.5"/>
<text text-anchor="middle" x="557" y="-691.5" font-family="Helvetica,sans-Serif" font-size="10.00">AverageFilter</text>
</a>
</g>
</g>
<!-- Node5&#45;&gt;Node6 -->
<g id="edge5" class="edge">
<title>Node5&#45;&gt;Node6</title>
<path fill="none" stroke="midnightblue" d="M405.78,-504.4C415.22,-542.69 441.49,-628.34 496,-675 501.81,-679.97 508.93,-683.65 516.21,-686.36"/>
<polygon fill="midnightblue" stroke="midnightblue" points="409.15,-503.46 403.46,-494.52 402.34,-505.06 409.15,-503.46"/>
</g>
<!-- Node7 -->
<g id="node7" class="node">
<title>Node7</title>
<g id="a_node7"><a xlink:href="classomnetpp_1_1CountNanFilter.html" target="_top" xlink:title="Filter that counts NaN values in the input.">
<polygon fill="white" stroke="black" points="512.5,-646.5 512.5,-665.5 601.5,-665.5 601.5,-646.5 512.5,-646.5"/>
<text text-anchor="middle" x="557" y="-653.5" font-family="Helvetica,sans-Serif" font-size="10.00">CountNanFilter</text>
</a>
</g>
</g>
<!-- Node5&#45;&gt;Node7 -->
<g id="edge6" class="edge">
<title>Node5&#45;&gt;Node7</title>
<path fill="none" stroke="midnightblue" d="M408.42,-504.47C420.88,-536.76 450.15,-601.37 496,-637 501,-640.89 506.82,-643.99 512.82,-646.46"/>
<polygon fill="midnightblue" stroke="midnightblue" points="411.61,-503 404.84,-494.84 405.05,-505.44 411.61,-503"/>
</g>
<!-- Node8 -->
<g id="node8" class="node">
<title>Node8</title>
<g id="a_node8"><a xlink:href="classomnetpp_1_1ErrorNanFilter.html" target="_top" xlink:title="Filter that raises a runtime error if it sees a NaN in the input.">
<polygon fill="white" stroke="black" points="515,-608.5 515,-627.5 599,-627.5 599,-608.5 515,-608.5"/>
<text text-anchor="middle" x="557" y="-615.5" font-family="Helvetica,sans-Serif" font-size="10.00">ErrorNanFilter</text>
</a>
</g>
</g>
<!-- Node5&#45;&gt;Node8 -->
<g id="edge7" class="edge">
<title>Node5&#45;&gt;Node8</title>
<path fill="none" stroke="midnightblue" d="M412.05,-503.42C427.38,-528.59 458.16,-573.52 496,-599 501.71,-602.85 508.24,-605.95 514.85,-608.44"/>
<polygon fill="midnightblue" stroke="midnightblue" points="414.89,-501.35 406.78,-494.53 408.86,-504.92 414.89,-501.35"/>
</g>
<!-- Node9 -->
<g id="node9" class="node">
<title>Node9</title>
<g id="a_node9"><a xlink:href="classomnetpp_1_1MaxFilter.html" target="_top" xlink:title="Result filter that computes the maximum of signal values. NaN values in the input are ignored.">
<polygon fill="white" stroke="black" points="526,-570.5 526,-589.5 588,-589.5 588,-570.5 526,-570.5"/>
<text text-anchor="middle" x="557" y="-577.5" font-family="Helvetica,sans-Serif" font-size="10.00">MaxFilter</text>
</a>
</g>
</g>
<!-- Node5&#45;&gt;Node9 -->
<g id="edge8" class="edge">
<title>Node5&#45;&gt;Node9</title>
<path fill="none" stroke="midnightblue" d="M418.15,-501.65C436.02,-518.68 465.91,-544.87 496,-561 505.25,-565.96 515.99,-569.87 525.82,-572.82"/>
<polygon fill="midnightblue" stroke="midnightblue" points="420.44,-498.99 410.83,-494.53 415.57,-504.01 420.44,-498.99"/>
</g>
<!-- Node10 -->
<g id="node10" class="node">
<title>Node10</title>
<g id="a_node10"><a xlink:href="classomnetpp_1_1MeanFilter.html" target="_top" xlink:title="Result filter that computes the (time&#45;weighted or unweighted) mean of signal values....">
<polygon fill="white" stroke="black" points="523,-532.5 523,-551.5 591,-551.5 591,-532.5 523,-532.5"/>
<text text-anchor="middle" x="557" y="-539.5" font-family="Helvetica,sans-Serif" font-size="10.00">MeanFilter</text>
</a>
</g>
</g>
<!-- Node5&#45;&gt;Node10 -->
<g id="edge9" class="edge">
<title>Node5&#45;&gt;Node10</title>
<path fill="none" stroke="midnightblue" d="M433.14,-498.42C451.38,-505.98 474.84,-515.41 496,-523 505.15,-526.28 515.19,-529.58 524.4,-532.49"/>
<polygon fill="midnightblue" stroke="midnightblue" points="434.42,-495.16 423.85,-494.54 431.73,-501.62 434.42,-495.16"/>
</g>
<!-- Node11 -->
<g id="node11" class="node">
<title>Node11</title>
<g id="a_node11"><a xlink:href="classomnetpp_1_1MinFilter.html" target="_top" xlink:title="Result filter that computes the minimum of signal values. NaN values in the input are ignored.">
<polygon fill="white" stroke="black" points="527.5,-494.5 527.5,-513.5 586.5,-513.5 586.5,-494.5 527.5,-494.5"/>
<text text-anchor="middle" x="557" y="-501.5" font-family="Helvetica,sans-Serif" font-size="10.00">MinFilter</text>
</a>
</g>
</g>
<!-- Node5&#45;&gt;Node11 -->
<g id="edge10" class="edge">
<title>Node5&#45;&gt;Node11</title>
<path fill="none" stroke="midnightblue" d="M470.38,-493.47C490.34,-495.92 511.05,-498.47 527.11,-500.45"/>
<polygon fill="midnightblue" stroke="midnightblue" points="470.7,-489.98 460.35,-492.24 469.85,-496.93 470.7,-489.98"/>
</g>
<!-- Node12 -->
<g id="node12" class="node">
<title>Node12</title>
<g id="a_node12"><a xlink:href="classomnetpp_1_1RemoveRepeatsFilter.html" target="_top" xlink:title="Result filter that removes repeated values.">
<polygon fill="white" stroke="black" points="496,-456.5 496,-475.5 618,-475.5 618,-456.5 496,-456.5"/>
<text text-anchor="middle" x="557" y="-463.5" font-family="Helvetica,sans-Serif" font-size="10.00">RemoveRepeatsFilter</text>
</a>
</g>
</g>
<!-- Node5&#45;&gt;Node12 -->
<g id="edge11" class="edge">
<title>Node5&#45;&gt;Node12</title>
<path fill="none" stroke="midnightblue" d="M470.53,-476.51C478.95,-475.48 487.5,-474.42 495.78,-473.41"/>
<polygon fill="midnightblue" stroke="midnightblue" points="469.85,-473.07 460.35,-477.76 470.7,-480.02 469.85,-473.07"/>
</g>
<!-- Node13 -->
<g id="node13" class="node">
<title>Node13</title>
<g id="a_node13"><a xlink:href="classomnetpp_1_1SkipNanFilter.html" target="_top" xlink:title="Filter that removes (filters out) NaNs, and lets through all other values.">
<polygon fill="white" stroke="black" points="516,-418.5 516,-437.5 598,-437.5 598,-418.5 516,-418.5"/>
<text text-anchor="middle" x="557" y="-425.5" font-family="Helvetica,sans-Serif" font-size="10.00">SkipNanFilter</text>
</a>
</g>
</g>
<!-- Node5&#45;&gt;Node13 -->
<g id="edge12" class="edge">
<title>Node5&#45;&gt;Node13</title>
<path fill="none" stroke="midnightblue" d="M433.14,-471.58C451.38,-464.02 474.84,-454.59 496,-447 505.15,-443.72 515.19,-440.42 524.4,-437.51"/>
<polygon fill="midnightblue" stroke="midnightblue" points="431.73,-468.38 423.85,-475.46 434.42,-474.84 431.73,-468.38"/>
</g>
<!-- Node14 -->
<g id="node14" class="node">
<title>Node14</title>
<g id="a_node14"><a xlink:href="classomnetpp_1_1SumFilter.html" target="_top" xlink:title="Filter that outputs the sum of signal values. NaN values in the input are ignored.">
<polygon fill="white" stroke="black" points="525.5,-380.5 525.5,-399.5 588.5,-399.5 588.5,-380.5 525.5,-380.5"/>
<text text-anchor="middle" x="557" y="-387.5" font-family="Helvetica,sans-Serif" font-size="10.00">SumFilter</text>
</a>
</g>
</g>
<!-- Node5&#45;&gt;Node14 -->
<g id="edge13" class="edge">
<title>Node5&#45;&gt;Node14</title>
<path fill="none" stroke="midnightblue" d="M418.15,-468.35C436.02,-451.32 465.91,-425.13 496,-409 505.05,-404.15 515.55,-400.3 525.2,-397.37"/>
<polygon fill="midnightblue" stroke="midnightblue" points="415.57,-465.99 410.83,-475.47 420.44,-471.01 415.57,-465.99"/>
</g>
<!-- Node15 -->
<g id="node15" class="node">
<title>Node15</title>
<g id="a_node15"><a xlink:href="classomnetpp_1_1SumPerDurationFilter.html" target="_top" xlink:title="Filter that outputs the sum of signal values divided by the measurement interval (simtime minus warmu...">
<polygon fill="white" stroke="black" points="496.5,-342.5 496.5,-361.5 617.5,-361.5 617.5,-342.5 496.5,-342.5"/>
<text text-anchor="middle" x="557" y="-349.5" font-family="Helvetica,sans-Serif" font-size="10.00">SumPerDurationFilter</text>
</a>
</g>
</g>
<!-- Node5&#45;&gt;Node15 -->
<g id="edge14" class="edge">
<title>Node5&#45;&gt;Node15</title>
<path fill="none" stroke="midnightblue" d="M412.05,-466.58C427.38,-441.41 458.16,-396.48 496,-371 501.71,-367.15 508.24,-364.05 514.85,-361.56"/>
<polygon fill="midnightblue" stroke="midnightblue" points="408.86,-465.08 406.78,-475.47 414.89,-468.65 408.86,-465.08"/>
</g>
<!-- Node16 -->
<g id="node16" class="node">
<title>Node16</title>
<g id="a_node16"><a xlink:href="classomnetpp_1_1TimeAverageFilter.html" target="_top" xlink:title="Result filter that computes the time average of signal values. NaN values in the input denote interva...">
<polygon fill="white" stroke="black" points="504,-304.5 504,-323.5 610,-323.5 610,-304.5 504,-304.5"/>
<text text-anchor="middle" x="557" y="-311.5" font-family="Helvetica,sans-Serif" font-size="10.00">TimeAverageFilter</text>
</a>
</g>
</g>
<!-- Node5&#45;&gt;Node16 -->
<g id="edge15" class="edge">
<title>Node5&#45;&gt;Node16</title>
<path fill="none" stroke="midnightblue" d="M408.42,-465.53C420.88,-433.24 450.15,-368.63 496,-333 501,-329.11 506.82,-326.01 512.82,-323.54"/>
<polygon fill="midnightblue" stroke="midnightblue" points="405.05,-464.56 404.84,-475.16 411.61,-467 405.05,-464.56"/>
</g>
<!-- Node18 -->
<g id="node18" class="node">
<title>Node18</title>
<g id="a_node18"><a xlink:href="classomnetpp_1_1PacketBitsFilter.html" target="_top" xlink:title="Filter that expects a cPacket and outputs its length in bits (getBitLength()). Null (nullptr) values ...">
<polygon fill="white" stroke="black" points="511,-266.5 511,-285.5 603,-285.5 603,-266.5 511,-266.5"/>
<text text-anchor="middle" x="557" y="-273.5" font-family="Helvetica,sans-Serif" font-size="10.00">PacketBitsFilter</text>
</a>
</g>
</g>
<!-- Node17&#45;&gt;Node18 -->
<g id="edge17" class="edge">
<title>Node17&#45;&gt;Node18</title>
<path fill="none" stroke="midnightblue" d="M450.45,-250.04C472.04,-255.35 497.04,-261.5 517.29,-266.48"/>
<polygon fill="midnightblue" stroke="midnightblue" points="451.03,-246.58 440.49,-247.59 449.36,-253.38 451.03,-246.58"/>
</g>
<!-- Node19 -->
<g id="node19" class="node">
<title>Node19</title>
<g id="a_node19"><a xlink:href="classomnetpp_1_1PacketBytesFilter.html" target="_top" xlink:title="Filter that expects a cPacket and outputs its length in bytes (getByteLength()). Null (nullptr) value...">
<polygon fill="white" stroke="black" points="506.5,-228.5 506.5,-247.5 607.5,-247.5 607.5,-228.5 506.5,-228.5"/>
<text text-anchor="middle" x="557" y="-235.5" font-family="Helvetica,sans-Serif" font-size="10.00">PacketBytesFilter</text>
</a>
</g>
</g>
<!-- Node17&#45;&gt;Node19 -->
<g id="edge18" class="edge">
<title>Node17&#45;&gt;Node19</title>
<path fill="none" stroke="midnightblue" d="M465.42,-238C479.09,-238 493.34,-238 506.38,-238"/>
<polygon fill="midnightblue" stroke="midnightblue" points="465.1,-234.5 455.1,-238 465.1,-241.5 465.1,-234.5"/>
</g>
<!-- Node21 -->
<g id="node21" class="node">
<title>Node21</title>
<g id="a_node21"><a xlink:href="classomnetpp_1_1Constant0Filter.html" target="_top" xlink:title="Result filter that replaces every value with zero.">
<polygon fill="white" stroke="black" points="511.5,-190.5 511.5,-209.5 602.5,-209.5 602.5,-190.5 511.5,-190.5"/>
<text text-anchor="middle" x="557" y="-197.5" font-family="Helvetica,sans-Serif" font-size="10.00">Constant0Filter</text>
</a>
</g>
</g>
<!-- Node20&#45;&gt;Node21 -->
<g id="edge20" class="edge">
<title>Node20&#45;&gt;Node21</title>
<path fill="none" stroke="midnightblue" d="M453.49,-200C472.3,-200 493.34,-200 511.45,-200"/>
<polygon fill="midnightblue" stroke="midnightblue" points="453.31,-196.5 443.31,-200 453.31,-203.5 453.31,-196.5"/>
</g>
<!-- Node22 -->
<g id="node22" class="node">
<title>Node22</title>
<g id="a_node22"><a xlink:href="classomnetpp_1_1Constant1Filter.html" target="_top" xlink:title="Result filter that replaces every value with 1.0.">
<polygon fill="white" stroke="black" points="511.5,-152.5 511.5,-171.5 602.5,-171.5 602.5,-152.5 511.5,-152.5"/>
<text text-anchor="middle" x="557" y="-159.5" font-family="Helvetica,sans-Serif" font-size="10.00">Constant1Filter</text>
</a>
</g>
</g>
<!-- Node20&#45;&gt;Node22 -->
<g id="edge21" class="edge">
<title>Node20&#45;&gt;Node22</title>
<path fill="none" stroke="midnightblue" d="M450.45,-187.96C472.04,-182.65 497.04,-176.5 517.29,-171.52"/>
<polygon fill="midnightblue" stroke="midnightblue" points="449.36,-184.62 440.49,-190.41 451.03,-191.42 449.36,-184.62"/>
</g>
<!-- Node25 -->
<g id="node25" class="node">
<title>Node25</title>
<g id="a_node25"><a xlink:href="classomnetpp_1_1MergeFilter.html" target="_top" xlink:title="Filter that merges several inputs into one output.">
<polygon fill="white" stroke="black" points="521,-114.5 521,-133.5 593,-133.5 593,-114.5 521,-114.5"/>
<text text-anchor="middle" x="557" y="-121.5" font-family="Helvetica,sans-Serif" font-size="10.00">MergeFilter</text>
</a>
</g>
</g>
<!-- Node24&#45;&gt;Node25 -->
<g id="edge24" class="edge">
<title>Node24&#45;&gt;Node25</title>
<path fill="none" stroke="midnightblue" d="M450.3,-124C473.18,-124 499.94,-124 520.81,-124"/>
<polygon fill="midnightblue" stroke="midnightblue" points="450.09,-120.5 440.09,-124 450.09,-127.5 450.09,-120.5"/>
</g>
<!-- Node28 -->
<g id="node28" class="node">
<title>Node28</title>
<g id="a_node28"><a xlink:href="classomnetpp_1_1CountFilter.html" target="_top" xlink:title="Result filter for counting signals. Signal values do not need to be numeric to be counted....">
<polygon fill="white" stroke="black" points="522,-38.5 522,-57.5 592,-57.5 592,-38.5 522,-38.5"/>
<text text-anchor="middle" x="557" y="-45.5" font-family="Helvetica,sans-Serif" font-size="10.00">CountFilter</text>
</a>
</g>
</g>
<!-- Node27&#45;&gt;Node28 -->
<g id="edge27" class="edge">
<title>Node27&#45;&gt;Node28</title>
<path fill="none" stroke="midnightblue" d="M457.05,-48C478.61,-48 502.62,-48 521.59,-48"/>
<polygon fill="midnightblue" stroke="midnightblue" points="457.02,-44.5 447.02,-48 457.02,-51.5 457.02,-44.5"/>
</g>
</g>
</svg>
