<?xml version="1.0" encoding="UTF-8" standalone="no"?>
<!DOCTYPE svg PUBLIC "-//W3C//DTD SVG 1.1//EN"
 "http://www.w3.org/Graphics/SVG/1.1/DTD/svg11.dtd">
<!-- Generated by graphviz version 2.43.0 (0)
 -->
<!-- Title: cOwnedDynamicExpression Pages: 1 -->
<svg width="233pt" height="140pt"
 viewBox="0.00 0.00 233.00 140.00" xmlns="http://www.w3.org/2000/svg" xmlns:xlink="http://www.w3.org/1999/xlink">
<g id="graph0" class="graph" transform="scale(1 1) rotate(0) translate(4 136)">
<title>cOwnedDynamicExpression</title>
<polygon fill="white" stroke="transparent" points="-4,4 -4,-136 229,-136 229,4 -4,4"/>
<!-- Node1 -->
<g id="node1" class="node">
<title>Node1</title>
<g id="a_node1"><a xlink:title="An &quot;owned&quot; version cDynamicExpression to allow it to be assigned to module parameters of the type &quot;ob...">
<polygon fill="#bfbfbf" stroke="black" points="28.5,-0.5 28.5,-19.5 180.5,-19.5 180.5,-0.5 28.5,-0.5"/>
<text text-anchor="middle" x="104.5" y="-7.5" font-family="Helvetica,sans-Serif" font-size="10.00">cOwnedDynamicExpression</text>
</a>
</g>
</g>
<!-- Node2 -->
<g id="node2" class="node">
<title>Node2</title>
<g id="a_node2"><a xlink:href="classomnetpp_1_1cOwnedObject.html" target="_top" xlink:title="A cObject that keeps track of its owner. It serves as base class for many classes in the OMNeT++ libr...">
<polygon fill="white" stroke="black" points="1,-56.5 1,-75.5 88,-75.5 88,-56.5 1,-56.5"/>
<text text-anchor="middle" x="44.5" y="-63.5" font-family="Helvetica,sans-Serif" font-size="10.00">cOwnedObject</text>
</a>
</g>
</g>
<!-- Node2&#45;&gt;Node1 -->
<g id="edge1" class="edge">
<title>Node2&#45;&gt;Node1</title>
<path fill="none" stroke="midnightblue" d="M61.68,-49.54C72.38,-39.91 85.76,-27.87 94.68,-19.83"/>
<polygon fill="midnightblue" stroke="midnightblue" points="59.23,-47.03 54.14,-56.32 63.91,-52.24 59.23,-47.03"/>
</g>
<!-- Node3 -->
<g id="node3" class="node">
<title>Node3</title>
<g id="a_node3"><a xlink:href="classomnetpp_1_1cNamedObject.html" target="_top" xlink:title="Extends cObject with a name string. Also includes a &quot;flags&quot; member, with bits open for use by subclas...">
<polygon fill="white" stroke="red" points="0,-112.5 0,-131.5 89,-131.5 89,-112.5 0,-112.5"/>
<text text-anchor="middle" x="44.5" y="-119.5" font-family="Helvetica,sans-Serif" font-size="10.00">cNamedObject</text>
</a>
</g>
</g>
<!-- Node3&#45;&gt;Node2 -->
<g id="edge2" class="edge">
<title>Node3&#45;&gt;Node2</title>
<path fill="none" stroke="midnightblue" d="M44.5,-101.8C44.5,-92.91 44.5,-82.78 44.5,-75.75"/>
<polygon fill="midnightblue" stroke="midnightblue" points="41,-102.08 44.5,-112.08 48,-102.08 41,-102.08"/>
</g>
<!-- Node5 -->
<g id="node4" class="node">
<title>Node5</title>
<g id="a_node4"><a xlink:href="classomnetpp_1_1cDynamicExpression.html" target="_top" xlink:title="A stack&#45;based expression evaluator class, for dynamically created expressions.">
<polygon fill="white" stroke="black" points="106,-56.5 106,-75.5 225,-75.5 225,-56.5 106,-56.5"/>
<text text-anchor="middle" x="165.5" y="-63.5" font-family="Helvetica,sans-Serif" font-size="10.00">cDynamicExpression</text>
</a>
</g>
</g>
<!-- Node5&#45;&gt;Node1 -->
<g id="edge3" class="edge">
<title>Node5&#45;&gt;Node1</title>
<path fill="none" stroke="midnightblue" d="M148.03,-49.54C137.16,-39.91 123.56,-27.87 114.48,-19.83"/>
<polygon fill="midnightblue" stroke="midnightblue" points="145.89,-52.32 155.7,-56.32 150.53,-47.07 145.89,-52.32"/>
</g>
<!-- Node6 -->
<g id="node5" class="node">
<title>Node6</title>
<g id="a_node5"><a xlink:href="classomnetpp_1_1cExpression.html" target="_top" xlink:title="Abstract base class for expression evaluators.">
<polygon fill="white" stroke="black" points="128,-112.5 128,-131.5 203,-131.5 203,-112.5 128,-112.5"/>
<text text-anchor="middle" x="165.5" y="-119.5" font-family="Helvetica,sans-Serif" font-size="10.00">cExpression</text>
</a>
</g>
</g>
<!-- Node6&#45;&gt;Node5 -->
<g id="edge4" class="edge">
<title>Node6&#45;&gt;Node5</title>
<path fill="none" stroke="midnightblue" d="M165.5,-101.8C165.5,-92.91 165.5,-82.78 165.5,-75.75"/>
<polygon fill="midnightblue" stroke="midnightblue" points="162,-102.08 165.5,-112.08 169,-102.08 162,-102.08"/>
</g>
</g>
</svg>
