<?xml version="1.0" encoding="UTF-8" standalone="no"?>
<!DOCTYPE svg PUBLIC "-//W3C//DTD SVG 1.1//EN"
 "http://www.w3.org/Graphics/SVG/1.1/DTD/svg11.dtd">
<!-- Generated by graphviz version 2.43.0 (0)
 -->
<!-- Title: cComponent Pages: 1 -->
<svg width="434pt" height="252pt"
 viewBox="0.00 0.00 434.00 252.00" xmlns="http://www.w3.org/2000/svg" xmlns:xlink="http://www.w3.org/1999/xlink">
<g id="graph0" class="graph" transform="scale(1 1) rotate(0) translate(4 248)">
<title>cComponent</title>
<polygon fill="white" stroke="transparent" points="-4,4 -4,-248 430,-248 430,4 -4,4"/>
<!-- Node1 -->
<g id="node1" class="node">
<title>Node1</title>
<g id="a_node1"><a xlink:title="Common base for module and channel classes.">
<polygon fill="#bfbfbf" stroke="black" points="220,-112.5 220,-131.5 298,-131.5 298,-112.5 220,-112.5"/>
<text text-anchor="middle" x="259" y="-119.5" font-family="Helvetica,sans-Serif" font-size="10.00">cComponent</text>
</a>
</g>
</g>
<!-- Node8 -->
<g id="node4" class="node">
<title>Node8</title>
<g id="a_node4"><a xlink:href="classomnetpp_1_1cChannel.html" target="_top" xlink:title="Base class for channels.">
<polygon fill="white" stroke="black" points="189,-56.5 189,-75.5 251,-75.5 251,-56.5 189,-56.5"/>
<text text-anchor="middle" x="220" y="-63.5" font-family="Helvetica,sans-Serif" font-size="10.00">cChannel</text>
</a>
</g>
</g>
<!-- Node1&#45;&gt;Node8 -->
<g id="edge3" class="edge">
<title>Node1&#45;&gt;Node8</title>
<path fill="none" stroke="midnightblue" d="M246.62,-103.86C239.86,-94.5 231.79,-83.33 226.32,-75.75"/>
<polygon fill="midnightblue" stroke="midnightblue" points="243.87,-106.03 252.56,-112.08 249.54,-101.93 243.87,-106.03"/>
</g>
<!-- Node12 -->
<g id="node8" class="node">
<title>Node12</title>
<g id="a_node8"><a xlink:href="classomnetpp_1_1cModule.html" target="_top" xlink:title="This class represents modules in the simulation.">
<polygon fill="white" stroke="black" points="310,-56.5 310,-75.5 368,-75.5 368,-56.5 310,-56.5"/>
<text text-anchor="middle" x="339" y="-63.5" font-family="Helvetica,sans-Serif" font-size="10.00">cModule</text>
</a>
</g>
</g>
<!-- Node1&#45;&gt;Node12 -->
<g id="edge7" class="edge">
<title>Node1&#45;&gt;Node12</title>
<path fill="none" stroke="midnightblue" d="M280.3,-106.62C294.92,-96.76 313.83,-83.99 326.18,-75.65"/>
<polygon fill="midnightblue" stroke="midnightblue" points="278.18,-103.83 271.85,-112.32 282.1,-109.63 278.18,-103.83"/>
</g>
<!-- Node2 -->
<g id="node2" class="node">
<title>Node2</title>
<g id="a_node2"><a xlink:href="classomnetpp_1_1cSoftOwner.html" target="_top" xlink:title="Internal class, used as a base class for modules and channels. It is not intended for subclassing out...">
<polygon fill="white" stroke="black" points="223,-168.5 223,-187.5 295,-187.5 295,-168.5 223,-168.5"/>
<text text-anchor="middle" x="259" y="-175.5" font-family="Helvetica,sans-Serif" font-size="10.00">cSoftOwner</text>
</a>
</g>
</g>
<!-- Node2&#45;&gt;Node1 -->
<g id="edge1" class="edge">
<title>Node2&#45;&gt;Node1</title>
<path fill="none" stroke="midnightblue" d="M259,-157.8C259,-148.91 259,-138.78 259,-131.75"/>
<polygon fill="midnightblue" stroke="midnightblue" points="255.5,-158.08 259,-168.08 262.5,-158.08 255.5,-158.08"/>
</g>
<!-- Node3 -->
<g id="node3" class="node">
<title>Node3</title>
<g id="a_node3"><a xlink:href="classomnetpp_1_1cNoncopyableOwnedObject.html" target="_top" xlink:title="Base class for cOwnedObject&#45;based classes that do not wish to support assignment and duplication.">
<polygon fill="white" stroke="red" points="183.5,-224.5 183.5,-243.5 334.5,-243.5 334.5,-224.5 183.5,-224.5"/>
<text text-anchor="middle" x="259" y="-231.5" font-family="Helvetica,sans-Serif" font-size="10.00">cNoncopyableOwnedObject</text>
</a>
</g>
</g>
<!-- Node3&#45;&gt;Node2 -->
<g id="edge2" class="edge">
<title>Node3&#45;&gt;Node2</title>
<path fill="none" stroke="midnightblue" d="M259,-213.8C259,-204.91 259,-194.78 259,-187.75"/>
<polygon fill="midnightblue" stroke="midnightblue" points="255.5,-214.08 259,-224.08 262.5,-214.08 255.5,-214.08"/>
</g>
<!-- Node9 -->
<g id="node5" class="node">
<title>Node9</title>
<g id="a_node5"><a xlink:href="classomnetpp_1_1cDatarateChannel.html" target="_top" xlink:title="A transmission channel model that supports propagation delay, transmission duration computed from a d...">
<polygon fill="white" stroke="black" points="0,-0.5 0,-19.5 104,-19.5 104,-0.5 0,-0.5"/>
<text text-anchor="middle" x="52" y="-7.5" font-family="Helvetica,sans-Serif" font-size="10.00">cDatarateChannel</text>
</a>
</g>
</g>
<!-- Node8&#45;&gt;Node9 -->
<g id="edge4" class="edge">
<title>Node8&#45;&gt;Node9</title>
<path fill="none" stroke="midnightblue" d="M183.61,-53.3C151.96,-43.13 106.83,-28.62 78.5,-19.52"/>
<polygon fill="midnightblue" stroke="midnightblue" points="182.79,-56.72 193.38,-56.44 184.93,-50.05 182.79,-56.72"/>
</g>
<!-- Node10 -->
<g id="node6" class="node">
<title>Node10</title>
<g id="a_node6"><a xlink:href="classomnetpp_1_1cDelayChannel.html" target="_top" xlink:title="Channel with propagation delay.">
<polygon fill="white" stroke="black" points="122,-0.5 122,-19.5 212,-19.5 212,-0.5 122,-0.5"/>
<text text-anchor="middle" x="167" y="-7.5" font-family="Helvetica,sans-Serif" font-size="10.00">cDelayChannel</text>
</a>
</g>
</g>
<!-- Node8&#45;&gt;Node10 -->
<g id="edge5" class="edge">
<title>Node8&#45;&gt;Node10</title>
<path fill="none" stroke="midnightblue" d="M204.02,-48.72C194.68,-39.2 183.25,-27.56 175.59,-19.75"/>
<polygon fill="midnightblue" stroke="midnightblue" points="201.75,-51.4 211.25,-56.08 206.74,-46.49 201.75,-51.4"/>
</g>
<!-- Node11 -->
<g id="node7" class="node">
<title>Node11</title>
<g id="a_node7"><a xlink:href="classomnetpp_1_1cIdealChannel.html" target="_top" xlink:title="Channel with zero propagation delay, zero transmission delay (infinite datarate), and always enabled.">
<polygon fill="white" stroke="black" points="230,-0.5 230,-19.5 316,-19.5 316,-0.5 230,-0.5"/>
<text text-anchor="middle" x="273" y="-7.5" font-family="Helvetica,sans-Serif" font-size="10.00">cIdealChannel</text>
</a>
</g>
</g>
<!-- Node8&#45;&gt;Node11 -->
<g id="edge6" class="edge">
<title>Node8&#45;&gt;Node11</title>
<path fill="none" stroke="midnightblue" d="M235.98,-48.72C245.32,-39.2 256.75,-27.56 264.41,-19.75"/>
<polygon fill="midnightblue" stroke="midnightblue" points="233.26,-46.49 228.75,-56.08 238.25,-51.4 233.26,-46.49"/>
</g>
<!-- Node13 -->
<g id="node9" class="node">
<title>Node13</title>
<g id="a_node9"><a xlink:href="classomnetpp_1_1cSimpleModule.html" target="_top" xlink:title="Base class for all simple module classes.">
<polygon fill="white" stroke="black" points="334,-0.5 334,-19.5 426,-19.5 426,-0.5 334,-0.5"/>
<text text-anchor="middle" x="380" y="-7.5" font-family="Helvetica,sans-Serif" font-size="10.00">cSimpleModule</text>
</a>
</g>
</g>
<!-- Node12&#45;&gt;Node13 -->
<g id="edge8" class="edge">
<title>Node12&#45;&gt;Node13</title>
<path fill="none" stroke="midnightblue" d="M352.02,-47.86C359.12,-38.5 367.6,-27.33 373.36,-19.75"/>
<polygon fill="midnightblue" stroke="midnightblue" points="349.03,-46 345.77,-56.08 354.61,-50.24 349.03,-46"/>
</g>
</g>
</svg>
