<?xml version="1.0" encoding="UTF-8" standalone="no"?>
<!DOCTYPE svg PUBLIC "-//W3C//DTD SVG 1.1//EN"
 "http://www.w3.org/Graphics/SVG/1.1/DTD/svg11.dtd">
<!-- Generated by graphviz version 2.43.0 (0)
 -->
<!-- Title: cWatchBase Pages: 1 -->
<svg width="614pt" height="332pt"
 viewBox="0.00 0.00 614.00 332.00" xmlns="http://www.w3.org/2000/svg" xmlns:xlink="http://www.w3.org/1999/xlink">
<g id="graph0" class="graph" transform="scale(1 1) rotate(0) translate(4 328)">
<title>cWatchBase</title>
<polygon fill="white" stroke="transparent" points="-4,4 -4,-328 610,-328 610,4 -4,4"/>
<!-- Node1 -->
<g id="node1" class="node">
<title>Node1</title>
<g id="a_node1"><a xlink:title="Helper class to make primitive types and non&#45;cOwnedObject objects inspectable in Qtenv....">
<polygon fill="#bfbfbf" stroke="black" points="310,-152.5 310,-171.5 386,-171.5 386,-152.5 310,-152.5"/>
<text text-anchor="middle" x="348" y="-159.5" font-family="Helvetica,sans-Serif" font-size="10.00">cWatchBase</text>
</a>
</g>
</g>
<!-- Node7 -->
<g id="node5" class="node">
<title>Node7</title>
<g id="a_node5"><a xlink:href="classomnetpp_1_1cComputedExpressionWatch.html" target="_top" xlink:title="Watch class for computed expressions. The watch will display the result of calling an encapsulated fu...">
<polygon fill="white" stroke="black" points="422,-304.5 422,-323.5 606,-323.5 606,-304.5 422,-304.5"/>
<text text-anchor="middle" x="514" y="-311.5" font-family="Helvetica,sans-Serif" font-size="10.00">cComputedExpressionWatch&lt; T &gt;</text>
</a>
</g>
</g>
<!-- Node1&#45;&gt;Node7 -->
<g id="edge4" class="edge">
<title>Node1&#45;&gt;Node7</title>
<path fill="none" stroke="midnightblue" d="M354.02,-181.44C362.68,-210.88 383.33,-266.37 422,-295 427.19,-298.84 432.98,-301.95 439.05,-304.45"/>
<polygon fill="midnightblue" stroke="midnightblue" points="357.32,-180.25 351.28,-171.54 350.57,-182.12 357.32,-180.25"/>
</g>
<!-- Node8 -->
<g id="node6" class="node">
<title>Node8</title>
<g id="a_node6"><a xlink:href="classomnetpp_1_1cGenericAssignableWatch.html" target="_top" xlink:title="Template Watch class, for any type that supports operator&lt;&lt;, and operator&gt;&gt; for assignment.">
<polygon fill="white" stroke="black" points="428.5,-266.5 428.5,-285.5 599.5,-285.5 599.5,-266.5 428.5,-266.5"/>
<text text-anchor="middle" x="514" y="-273.5" font-family="Helvetica,sans-Serif" font-size="10.00">cGenericAssignableWatch&lt; T &gt;</text>
</a>
</g>
</g>
<!-- Node1&#45;&gt;Node8 -->
<g id="edge5" class="edge">
<title>Node1&#45;&gt;Node8</title>
<path fill="none" stroke="midnightblue" d="M358.05,-180.61C369.7,-202.49 392.06,-238.2 422,-257 428.15,-260.86 434.95,-263.95 441.98,-266.43"/>
<polygon fill="midnightblue" stroke="midnightblue" points="361.13,-178.95 353.46,-171.64 354.9,-182.13 361.13,-178.95"/>
</g>
<!-- Node9 -->
<g id="node7" class="node">
<title>Node9</title>
<g id="a_node7"><a xlink:href="classomnetpp_1_1cGenericReadonlyWatch.html" target="_top" xlink:title="Template Watch class, for any type that supports operator&lt;&lt;.">
<polygon fill="white" stroke="black" points="432,-228.5 432,-247.5 596,-247.5 596,-228.5 432,-228.5"/>
<text text-anchor="middle" x="514" y="-235.5" font-family="Helvetica,sans-Serif" font-size="10.00">cGenericReadonlyWatch&lt; T &gt;</text>
</a>
</g>
</g>
<!-- Node1&#45;&gt;Node9 -->
<g id="edge6" class="edge">
<title>Node1&#45;&gt;Node9</title>
<path fill="none" stroke="midnightblue" d="M365.74,-178.76C379.64,-191.71 400.54,-209.04 422,-219 430.35,-222.87 439.49,-225.96 448.65,-228.42"/>
<polygon fill="midnightblue" stroke="midnightblue" points="368.05,-176.13 358.41,-171.73 363.2,-181.18 368.05,-176.13"/>
</g>
<!-- Node10 -->
<g id="node8" class="node">
<title>Node10</title>
<g id="a_node8"><a xlink:href="classomnetpp_1_1cWatch__bool.html" target="_top" xlink:title="Watch class, specifically for bool.">
<polygon fill="white" stroke="black" points="475,-190.5 475,-209.5 553,-209.5 553,-190.5 475,-190.5"/>
<text text-anchor="middle" x="514" y="-197.5" font-family="Helvetica,sans-Serif" font-size="10.00">cWatch_bool</text>
</a>
</g>
</g>
<!-- Node1&#45;&gt;Node10 -->
<g id="edge7" class="edge">
<title>Node1&#45;&gt;Node10</title>
<path fill="none" stroke="midnightblue" d="M394,-174.08C403.24,-176.46 412.92,-178.87 422,-181 439.28,-185.05 458.52,-189.13 474.83,-192.46"/>
<polygon fill="midnightblue" stroke="midnightblue" points="394.75,-170.66 384.19,-171.53 392.99,-177.43 394.75,-170.66"/>
</g>
<!-- Node11 -->
<g id="node9" class="node">
<title>Node11</title>
<g id="a_node9"><a xlink:href="classomnetpp_1_1cWatch__char.html" target="_top" xlink:title="Watch class, specifically for char.">
<polygon fill="white" stroke="black" points="475,-152.5 475,-171.5 553,-171.5 553,-152.5 475,-152.5"/>
<text text-anchor="middle" x="514" y="-159.5" font-family="Helvetica,sans-Serif" font-size="10.00">cWatch_char</text>
</a>
</g>
</g>
<!-- Node1&#45;&gt;Node11 -->
<g id="edge8" class="edge">
<title>Node1&#45;&gt;Node11</title>
<path fill="none" stroke="midnightblue" d="M396.52,-162C421.4,-162 451.45,-162 474.8,-162"/>
<polygon fill="midnightblue" stroke="midnightblue" points="396.21,-158.5 386.21,-162 396.21,-165.5 396.21,-158.5"/>
</g>
<!-- Node12 -->
<g id="node10" class="node">
<title>Node12</title>
<g id="a_node10"><a xlink:href="classomnetpp_1_1cWatch__cObject.html" target="_top" xlink:title="Watch class, specifically for objects subclassed from cObject.">
<polygon fill="white" stroke="black" points="467,-114.5 467,-133.5 561,-133.5 561,-114.5 467,-114.5"/>
<text text-anchor="middle" x="514" y="-121.5" font-family="Helvetica,sans-Serif" font-size="10.00">cWatch_cObject</text>
</a>
</g>
</g>
<!-- Node1&#45;&gt;Node12 -->
<g id="edge9" class="edge">
<title>Node1&#45;&gt;Node12</title>
<path fill="none" stroke="midnightblue" d="M394,-149.92C403.24,-147.54 412.92,-145.13 422,-143 436.46,-139.61 452.27,-136.2 466.61,-133.23"/>
<polygon fill="midnightblue" stroke="midnightblue" points="392.99,-146.57 384.19,-152.47 394.75,-153.34 392.99,-146.57"/>
</g>
<!-- Node13 -->
<g id="node11" class="node">
<title>Node13</title>
<g id="a_node11"><a xlink:href="classomnetpp_1_1cWatch__cObjectPtr.html" target="_top" xlink:title="Watch class, specifically for pointers to objects subclassed from cObject.">
<polygon fill="white" stroke="black" points="460.5,-76.5 460.5,-95.5 567.5,-95.5 567.5,-76.5 460.5,-76.5"/>
<text text-anchor="middle" x="514" y="-83.5" font-family="Helvetica,sans-Serif" font-size="10.00">cWatch_cObjectPtr</text>
</a>
</g>
</g>
<!-- Node1&#45;&gt;Node13 -->
<g id="edge10" class="edge">
<title>Node1&#45;&gt;Node13</title>
<path fill="none" stroke="midnightblue" d="M365.74,-145.24C379.64,-132.29 400.54,-114.96 422,-105 433.86,-99.5 447.32,-95.58 460.19,-92.78"/>
<polygon fill="midnightblue" stroke="midnightblue" points="363.2,-142.82 358.41,-152.27 368.05,-147.87 363.2,-142.82"/>
</g>
<!-- Node14 -->
<g id="node12" class="node">
<title>Node14</title>
<g id="a_node12"><a xlink:href="classomnetpp_1_1cWatch__stdstring.html" target="_top" xlink:title="Watch class, specifically for std::string.">
<polygon fill="white" stroke="black" points="464,-38.5 464,-57.5 564,-57.5 564,-38.5 464,-38.5"/>
<text text-anchor="middle" x="514" y="-45.5" font-family="Helvetica,sans-Serif" font-size="10.00">cWatch_stdstring</text>
</a>
</g>
</g>
<!-- Node1&#45;&gt;Node14 -->
<g id="edge11" class="edge">
<title>Node1&#45;&gt;Node14</title>
<path fill="none" stroke="midnightblue" d="M358.05,-143.39C369.7,-121.51 392.06,-85.8 422,-67 434.44,-59.19 449.53,-54.53 463.82,-51.77"/>
<polygon fill="midnightblue" stroke="midnightblue" points="354.9,-141.87 353.46,-152.36 361.13,-145.05 354.9,-141.87"/>
</g>
<!-- Node15 -->
<g id="node13" class="node">
<title>Node15</title>
<g id="a_node13"><a xlink:href="classomnetpp_1_1cWatch__uchar.html" target="_top" xlink:title="Watch class, specifically for unsigned char.">
<polygon fill="white" stroke="black" points="472,-0.5 472,-19.5 556,-19.5 556,-0.5 472,-0.5"/>
<text text-anchor="middle" x="514" y="-7.5" font-family="Helvetica,sans-Serif" font-size="10.00">cWatch_uchar</text>
</a>
</g>
</g>
<!-- Node1&#45;&gt;Node15 -->
<g id="edge12" class="edge">
<title>Node1&#45;&gt;Node15</title>
<path fill="none" stroke="midnightblue" d="M354.02,-142.56C362.68,-113.12 383.33,-57.63 422,-29 436.27,-18.44 455.08,-13.44 471.89,-11.18"/>
<polygon fill="midnightblue" stroke="midnightblue" points="350.57,-141.88 351.28,-152.46 357.32,-143.75 350.57,-141.88"/>
</g>
<!-- Node2 -->
<g id="node2" class="node">
<title>Node2</title>
<g id="a_node2"><a xlink:href="classomnetpp_1_1cNoncopyableOwnedObject.html" target="_top" xlink:title="Base class for cOwnedObject&#45;based classes that do not wish to support assignment and duplication.">
<polygon fill="white" stroke="black" points="123,-152.5 123,-171.5 274,-171.5 274,-152.5 123,-152.5"/>
<text text-anchor="middle" x="198.5" y="-159.5" font-family="Helvetica,sans-Serif" font-size="10.00">cNoncopyableOwnedObject</text>
</a>
</g>
</g>
<!-- Node2&#45;&gt;Node1 -->
<g id="edge1" class="edge">
<title>Node2&#45;&gt;Node1</title>
<path fill="none" stroke="midnightblue" d="M284.28,-162C293.22,-162 301.94,-162 309.9,-162"/>
<polygon fill="midnightblue" stroke="midnightblue" points="284.11,-158.5 274.11,-162 284.11,-165.5 284.11,-158.5"/>
</g>
<!-- Node3 -->
<g id="node3" class="node">
<title>Node3</title>
<g id="a_node3"><a xlink:href="classomnetpp_1_1cOwnedObject.html" target="_top" xlink:title="A cObject that keeps track of its owner. It serves as base class for many classes in the OMNeT++ libr...">
<polygon fill="white" stroke="red" points="0,-171.5 0,-190.5 87,-190.5 87,-171.5 0,-171.5"/>
<text text-anchor="middle" x="43.5" y="-178.5" font-family="Helvetica,sans-Serif" font-size="10.00">cOwnedObject</text>
</a>
</g>
</g>
<!-- Node3&#45;&gt;Node2 -->
<g id="edge2" class="edge">
<title>Node3&#45;&gt;Node2</title>
<path fill="none" stroke="midnightblue" d="M97.05,-174.47C105.39,-173.44 114.15,-172.35 122.88,-171.27"/>
<polygon fill="midnightblue" stroke="midnightblue" points="96.61,-171 87.12,-175.71 97.47,-177.95 96.61,-171"/>
</g>
<!-- Node6 -->
<g id="node4" class="node">
<title>Node6</title>
<g id="a_node4"><a xlink:href="classomnetpp_1_1noncopyable.html" target="_top" xlink:title="Utility class, to make it impossible to call the operator= and copy constructor of any class derived ...">
<polygon fill="white" stroke="black" points="4,-133.5 4,-152.5 83,-152.5 83,-133.5 4,-133.5"/>
<text text-anchor="middle" x="43.5" y="-140.5" font-family="Helvetica,sans-Serif" font-size="10.00">noncopyable</text>
</a>
</g>
</g>
<!-- Node6&#45;&gt;Node2 -->
<g id="edge3" class="edge">
<title>Node6&#45;&gt;Node2</title>
<path fill="none" stroke="#8b1a1a" d="M93.1,-149.04C102.58,-150.21 112.72,-151.47 122.81,-152.73"/>
<polygon fill="#8b1a1a" stroke="#8b1a1a" points="93.46,-145.55 83.11,-147.79 92.6,-152.5 93.46,-145.55"/>
</g>
</g>
</svg>
