<?xml version="1.0" encoding="UTF-8" standalone="no"?>
<!DOCTYPE svg PUBLIC "-//W3C//DTD SVG 1.1//EN"
 "http://www.w3.org/Graphics/SVG/1.1/DTD/svg11.dtd">
<!-- Generated by graphviz version 2.43.0 (0)
 -->
<!-- Title: cObject Pages: 1 -->
<svg width="474pt" height="1089pt"
 viewBox="0.00 0.00 474.00 1089.00" xmlns="http://www.w3.org/2000/svg" xmlns:xlink="http://www.w3.org/1999/xlink">
<g id="graph0" class="graph" transform="scale(1 1) rotate(0) translate(4 1085)">
<title>cObject</title>
<polygon fill="white" stroke="transparent" points="-4,4 -4,-1085 470,-1085 470,4 -4,4"/>
<!-- Node1 -->
<g id="node1" class="node">
<title>Node1</title>
<g id="a_node1"><a xlink:title="cObject is a lightweight class which serves as the root of the OMNeT++ class hierarchy....">
<polygon fill="#bfbfbf" stroke="black" points="0,-570.5 0,-589.5 53,-589.5 53,-570.5 0,-570.5"/>
<text text-anchor="middle" x="26.5" y="-577.5" font-family="Helvetica,sans-Serif" font-size="10.00">cObject</text>
</a>
</g>
</g>
<!-- Node2 -->
<g id="node2" class="node">
<title>Node2</title>
<g id="a_node2"><a xlink:href="classomnetpp_1_1cChannel_1_1MessageSentSignalValue.html" target="_top" xlink:title="Signal value that accompanies the &quot;messageSent&quot; signal.">
<polygon fill="white" stroke="black" points="92,-931.5 92,-950.5 231,-950.5 231,-931.5 92,-931.5"/>
<text text-anchor="middle" x="161.5" y="-938.5" font-family="Helvetica,sans-Serif" font-size="10.00">MessageSentSignalValue</text>
</a>
</g>
</g>
<!-- Node1&#45;&gt;Node2 -->
<g id="edge1" class="edge">
<title>Node1&#45;&gt;Node2</title>
<path fill="none" stroke="midnightblue" d="M28.34,-599.76C31.54,-665.33 45.04,-874.29 89,-922 92.48,-925.78 96.62,-928.84 101.13,-931.32"/>
<polygon fill="midnightblue" stroke="midnightblue" points="31.83,-599.39 27.87,-589.56 24.84,-599.71 31.83,-599.39"/>
</g>
<!-- Node3 -->
<g id="node3" class="node">
<title>Node3</title>
<g id="a_node3"><a xlink:href="classomnetpp_1_1cCommBuffer.html" target="_top" xlink:title="Buffer for the communications layer of parallel simulation.">
<polygon fill="white" stroke="black" points="120,-893.5 120,-912.5 203,-912.5 203,-893.5 120,-893.5"/>
<text text-anchor="middle" x="161.5" y="-900.5" font-family="Helvetica,sans-Serif" font-size="10.00">cCommBuffer</text>
</a>
</g>
</g>
<!-- Node1&#45;&gt;Node3 -->
<g id="edge2" class="edge">
<title>Node1&#45;&gt;Node3</title>
<path fill="none" stroke="midnightblue" d="M28.84,-599.9C33.32,-660.69 49.81,-842.38 89,-884 97.01,-892.51 108.36,-897.37 119.67,-900.1"/>
<polygon fill="midnightblue" stroke="midnightblue" points="32.31,-599.45 28.12,-589.72 25.33,-599.94 32.31,-599.45"/>
</g>
<!-- Node4 -->
<g id="node4" class="node">
<title>Node4</title>
<g id="a_node4"><a xlink:href="classomnetpp_1_1cConfiguration.html" target="_top" xlink:title="Represents the configuration, as accessed by the simulation kernel.">
<polygon fill="white" stroke="black" points="118,-855.5 118,-874.5 205,-874.5 205,-855.5 118,-855.5"/>
<text text-anchor="middle" x="161.5" y="-862.5" font-family="Helvetica,sans-Serif" font-size="10.00">cConfiguration</text>
</a>
</g>
</g>
<!-- Node1&#45;&gt;Node4 -->
<g id="edge3" class="edge">
<title>Node1&#45;&gt;Node4</title>
<path fill="none" stroke="midnightblue" d="M29.46,-599.91C35.34,-655.45 54.53,-810.39 89,-846 96.68,-853.94 107.27,-858.68 117.95,-861.49"/>
<polygon fill="midnightblue" stroke="midnightblue" points="32.91,-599.23 28.41,-589.64 25.95,-599.95 32.91,-599.23"/>
</g>
<!-- Node6 -->
<g id="node6" class="node">
<title>Node6</title>
<g id="a_node6"><a xlink:href="classomnetpp_1_1cExpression_1_1Context.html" target="_top" xlink:title="Contextual information for evaluating the expression.">
<polygon fill="white" stroke="black" points="134,-817.5 134,-836.5 189,-836.5 189,-817.5 134,-817.5"/>
<text text-anchor="middle" x="161.5" y="-824.5" font-family="Helvetica,sans-Serif" font-size="10.00">Context</text>
</a>
</g>
</g>
<!-- Node1&#45;&gt;Node6 -->
<g id="edge5" class="edge">
<title>Node1&#45;&gt;Node6</title>
<path fill="none" stroke="midnightblue" d="M26.7,-599.9C26.07,-643.92 31.02,-750.24 89,-808 100.74,-819.69 118.8,-824.43 133.84,-826.25"/>
<polygon fill="midnightblue" stroke="midnightblue" points="30.2,-599.98 26.96,-589.89 23.2,-599.8 30.2,-599.98"/>
</g>
<!-- Node7 -->
<g id="node7" class="node">
<title>Node7</title>
<g id="a_node7"><a xlink:href="classomnetpp_1_1cFingerprintCalculator.html" target="_top" xlink:title="This class defines the interface for fingerprint calculators.">
<polygon fill="white" stroke="black" points="99.5,-779.5 99.5,-798.5 223.5,-798.5 223.5,-779.5 99.5,-779.5"/>
<text text-anchor="middle" x="161.5" y="-786.5" font-family="Helvetica,sans-Serif" font-size="10.00">cFingerprintCalculator</text>
</a>
</g>
</g>
<!-- Node1&#45;&gt;Node7 -->
<g id="edge6" class="edge">
<title>Node1&#45;&gt;Node7</title>
<path fill="none" stroke="midnightblue" d="M27.99,-599.93C30.05,-638.53 40.2,-723.74 89,-770 93.1,-773.89 97.9,-777 103.05,-779.49"/>
<polygon fill="midnightblue" stroke="midnightblue" points="31.47,-599.4 27.58,-589.54 24.47,-599.67 31.47,-599.4"/>
</g>
<!-- Node10 -->
<g id="node10" class="node">
<title>Node10</title>
<g id="a_node10"><a xlink:href="classomnetpp_1_1cGate.html" target="_top" xlink:title="Represents a module gate.">
<polygon fill="white" stroke="black" points="139,-741.5 139,-760.5 184,-760.5 184,-741.5 139,-741.5"/>
<text text-anchor="middle" x="161.5" y="-748.5" font-family="Helvetica,sans-Serif" font-size="10.00">cGate</text>
</a>
</g>
</g>
<!-- Node1&#45;&gt;Node10 -->
<g id="edge9" class="edge">
<title>Node1&#45;&gt;Node10</title>
<path fill="none" stroke="midnightblue" d="M29.8,-599.52C34.67,-631.94 49.09,-696.79 89,-732 102.68,-744.07 123.18,-748.59 138.73,-750.23"/>
<polygon fill="midnightblue" stroke="midnightblue" points="33.25,-598.95 28.45,-589.51 26.32,-599.89 33.25,-598.95"/>
</g>
<!-- Node11 -->
<g id="node11" class="node">
<title>Node11</title>
<g id="a_node11"><a xlink:href="classomnetpp_1_1cIEventlogManager.html" target="_top" xlink:title="Abstract base class for eventlog managers for cEnvir.">
<polygon fill="white" stroke="black" points="106.5,-703.5 106.5,-722.5 216.5,-722.5 216.5,-703.5 106.5,-703.5"/>
<text text-anchor="middle" x="161.5" y="-710.5" font-family="Helvetica,sans-Serif" font-size="10.00">cIEventlogManager</text>
</a>
</g>
</g>
<!-- Node1&#45;&gt;Node11 -->
<g id="edge10" class="edge">
<title>Node1&#45;&gt;Node11</title>
<path fill="none" stroke="midnightblue" d="M32.68,-599.31C40.53,-624.86 57.95,-669.5 89,-694 94.14,-698.06 100.07,-701.25 106.28,-703.77"/>
<polygon fill="midnightblue" stroke="midnightblue" points="36.02,-598.28 29.88,-589.65 29.3,-600.23 36.02,-598.28"/>
</g>
<!-- Node12 -->
<g id="node12" class="node">
<title>Node12</title>
<g id="a_node12"><a xlink:href="classomnetpp_1_1cIHistogramStrategy.html" target="_top" xlink:title="Interface for histogram strategy classes. Histogram strategies encapsulate the task of setting up and...">
<polygon fill="white" stroke="black" points="103,-665.5 103,-684.5 220,-684.5 220,-665.5 103,-665.5"/>
<text text-anchor="middle" x="161.5" y="-672.5" font-family="Helvetica,sans-Serif" font-size="10.00">cIHistogramStrategy</text>
</a>
</g>
</g>
<!-- Node1&#45;&gt;Node12 -->
<g id="edge11" class="edge">
<title>Node1&#45;&gt;Node12</title>
<path fill="none" stroke="midnightblue" d="M37.62,-598.27C48.2,-615.68 66.41,-641.36 89,-656 95.04,-659.91 101.85,-663.02 108.82,-665.49"/>
<polygon fill="midnightblue" stroke="midnightblue" points="40.61,-596.44 32.54,-589.56 34.56,-599.97 40.61,-596.44"/>
</g>
<!-- Node17 -->
<g id="node15" class="node">
<title>Node17</title>
<g id="a_node15"><a xlink:href="classomnetpp_1_1cIOutputScalarManager.html" target="_top" xlink:title="Abstract base class for handling recording of output scalar data.">
<polygon fill="white" stroke="black" points="96,-627.5 96,-646.5 227,-646.5 227,-627.5 96,-627.5"/>
<text text-anchor="middle" x="161.5" y="-634.5" font-family="Helvetica,sans-Serif" font-size="10.00">cIOutputScalarManager</text>
</a>
</g>
</g>
<!-- Node1&#45;&gt;Node17 -->
<g id="edge14" class="edge">
<title>Node1&#45;&gt;Node17</title>
<path fill="none" stroke="midnightblue" d="M48.99,-595.45C60.43,-603.1 74.99,-611.97 89,-618 97.61,-621.71 107.13,-624.85 116.33,-627.44"/>
<polygon fill="midnightblue" stroke="midnightblue" points="50.78,-592.43 40.55,-589.65 46.81,-598.2 50.78,-592.43"/>
</g>
<!-- Node18 -->
<g id="node16" class="node">
<title>Node18</title>
<g id="a_node16"><a xlink:href="classomnetpp_1_1cIOutputVectorManager.html" target="_top" xlink:title="Abstract base class for output vector managers for cEnvir.">
<polygon fill="white" stroke="black" points="96,-589.5 96,-608.5 227,-608.5 227,-589.5 96,-589.5"/>
<text text-anchor="middle" x="161.5" y="-596.5" font-family="Helvetica,sans-Serif" font-size="10.00">cIOutputVectorManager</text>
</a>
</g>
</g>
<!-- Node1&#45;&gt;Node18 -->
<g id="edge15" class="edge">
<title>Node1&#45;&gt;Node18</title>
<path fill="none" stroke="midnightblue" d="M63.15,-585.09C73.22,-586.53 84.51,-588.14 95.73,-589.75"/>
<polygon fill="midnightblue" stroke="midnightblue" points="63.54,-581.61 53.14,-583.66 62.55,-588.54 63.54,-581.61"/>
</g>
<!-- Node19 -->
<g id="node17" class="node">
<title>Node19</title>
<g id="a_node17"><a xlink:href="classomnetpp_1_1cISnapshotManager.html" target="_top" xlink:title="Abstract base class for snapshot managers.">
<polygon fill="white" stroke="black" points="105,-551.5 105,-570.5 218,-570.5 218,-551.5 105,-551.5"/>
<text text-anchor="middle" x="161.5" y="-558.5" font-family="Helvetica,sans-Serif" font-size="10.00">cISnapshotManager</text>
</a>
</g>
</g>
<!-- Node1&#45;&gt;Node19 -->
<g id="edge16" class="edge">
<title>Node1&#45;&gt;Node19</title>
<path fill="none" stroke="midnightblue" d="M63.37,-574.88C76.16,-573.05 90.88,-570.95 104.93,-568.94"/>
<polygon fill="midnightblue" stroke="midnightblue" points="62.55,-571.46 53.14,-576.34 63.54,-578.39 62.55,-571.46"/>
</g>
<!-- Node20 -->
<g id="node18" class="node">
<title>Node20</title>
<g id="a_node18"><a xlink:href="classomnetpp_1_1cModelChangeNotification.html" target="_top" xlink:title="Common base class for data objects that accompany PRE_MODEL_CHANGE and POST_MODEL_CHANGE signals.">
<polygon fill="white" stroke="black" points="89,-513.5 89,-532.5 234,-532.5 234,-513.5 89,-513.5"/>
<text text-anchor="middle" x="161.5" y="-520.5" font-family="Helvetica,sans-Serif" font-size="10.00">cModelChangeNotification</text>
</a>
</g>
</g>
<!-- Node1&#45;&gt;Node20 -->
<g id="edge17" class="edge">
<title>Node1&#45;&gt;Node20</title>
<path fill="none" stroke="midnightblue" d="M48.99,-564.55C60.43,-556.9 74.99,-548.03 89,-542 97.61,-538.29 107.13,-535.15 116.33,-532.56"/>
<polygon fill="midnightblue" stroke="midnightblue" points="46.81,-561.8 40.55,-570.35 50.78,-567.57 46.81,-561.8"/>
</g>
<!-- Node48 -->
<g id="node42" class="node">
<title>Node48</title>
<g id="a_node42"><a xlink:href="classomnetpp_1_1cNamedObject.html" target="_top" xlink:title="Extends cObject with a name string. Also includes a &quot;flags&quot; member, with bits open for use by subclas...">
<polygon fill="white" stroke="red" points="117,-475.5 117,-494.5 206,-494.5 206,-475.5 117,-475.5"/>
<text text-anchor="middle" x="161.5" y="-482.5" font-family="Helvetica,sans-Serif" font-size="10.00">cNamedObject</text>
</a>
</g>
</g>
<!-- Node1&#45;&gt;Node48 -->
<g id="edge41" class="edge">
<title>Node1&#45;&gt;Node48</title>
<path fill="none" stroke="midnightblue" d="M37.62,-561.73C48.2,-544.32 66.41,-518.64 89,-504 97.3,-498.62 107.07,-494.76 116.69,-491.99"/>
<polygon fill="midnightblue" stroke="midnightblue" points="34.56,-560.03 32.54,-570.44 40.61,-563.56 34.56,-560.03"/>
</g>
<!-- Node161 -->
<g id="node43" class="node">
<title>Node161</title>
<g id="a_node43"><a xlink:href="classomnetpp_1_1cPar.html" target="_top" xlink:title="Represents a module or channel parameter.">
<polygon fill="white" stroke="black" points="143,-437.5 143,-456.5 180,-456.5 180,-437.5 143,-437.5"/>
<text text-anchor="middle" x="161.5" y="-444.5" font-family="Helvetica,sans-Serif" font-size="10.00">cPar</text>
</a>
</g>
</g>
<!-- Node1&#45;&gt;Node161 -->
<g id="edge42" class="edge">
<title>Node1&#45;&gt;Node161</title>
<path fill="none" stroke="midnightblue" d="M32.68,-560.69C40.53,-535.14 57.95,-490.5 89,-466 104.53,-453.75 127.25,-449.36 142.89,-447.81"/>
<polygon fill="midnightblue" stroke="midnightblue" points="29.3,-559.77 29.88,-570.35 36.02,-561.72 29.3,-559.77"/>
</g>
<!-- Node162 -->
<g id="node44" class="node">
<title>Node162</title>
<g id="a_node44"><a xlink:href="classomnetpp_1_1cParsimCommunications.html" target="_top" xlink:title="Basic communications layer for parallel simulation. It provides an abstraction layer above MPI,...">
<polygon fill="white" stroke="black" points="93,-399.5 93,-418.5 230,-418.5 230,-399.5 93,-399.5"/>
<text text-anchor="middle" x="161.5" y="-406.5" font-family="Helvetica,sans-Serif" font-size="10.00">cParsimCommunications</text>
</a>
</g>
</g>
<!-- Node1&#45;&gt;Node162 -->
<g id="edge43" class="edge">
<title>Node1&#45;&gt;Node162</title>
<path fill="none" stroke="midnightblue" d="M29.8,-560.48C34.67,-528.06 49.09,-463.21 89,-428 93.33,-424.18 98.35,-421.11 103.68,-418.65"/>
<polygon fill="midnightblue" stroke="midnightblue" points="26.32,-560.11 28.45,-570.49 33.25,-561.05 26.32,-560.11"/>
</g>
<!-- Node163 -->
<g id="node45" class="node">
<title>Node163</title>
<g id="a_node45"><a xlink:href="classomnetpp_1_1cProperties.html" target="_top" xlink:title="A collection of properties (cProperty).">
<polygon fill="white" stroke="black" points="126,-361.5 126,-380.5 197,-380.5 197,-361.5 126,-361.5"/>
<text text-anchor="middle" x="161.5" y="-368.5" font-family="Helvetica,sans-Serif" font-size="10.00">cProperties</text>
</a>
</g>
</g>
<!-- Node1&#45;&gt;Node163 -->
<g id="edge44" class="edge">
<title>Node1&#45;&gt;Node163</title>
<path fill="none" stroke="midnightblue" d="M27.99,-560.07C30.05,-521.47 40.2,-436.26 89,-390 98.88,-380.63 112.84,-375.77 125.8,-373.28"/>
<polygon fill="midnightblue" stroke="midnightblue" points="24.47,-560.33 27.58,-570.46 31.47,-560.6 24.47,-560.33"/>
</g>
<!-- Node164 -->
<g id="node46" class="node">
<title>Node164</title>
<g id="a_node46"><a xlink:href="classomnetpp_1_1cResultListener.html" target="_top" xlink:title="Common abstract base class for result filters and result recorders.">
<polygon fill="white" stroke="red" points="115.5,-323.5 115.5,-342.5 207.5,-342.5 207.5,-323.5 115.5,-323.5"/>
<text text-anchor="middle" x="161.5" y="-330.5" font-family="Helvetica,sans-Serif" font-size="10.00">cResultListener</text>
</a>
</g>
</g>
<!-- Node1&#45;&gt;Node164 -->
<g id="edge45" class="edge">
<title>Node1&#45;&gt;Node164</title>
<path fill="none" stroke="midnightblue" d="M26.7,-560.1C26.07,-516.08 31.02,-409.76 89,-352 96.1,-344.93 105.51,-340.4 115.16,-337.53"/>
<polygon fill="midnightblue" stroke="midnightblue" points="23.2,-560.2 26.96,-570.11 30.2,-560.02 23.2,-560.2"/>
</g>
<!-- Node205 -->
<g id="node47" class="node">
<title>Node205</title>
<g id="a_node47"><a xlink:href="classomnetpp_1_1cRNG.html" target="_top" xlink:title="Abstract interface for random number generator classes.">
<polygon fill="white" stroke="red" points="139.5,-285.5 139.5,-304.5 183.5,-304.5 183.5,-285.5 139.5,-285.5"/>
<text text-anchor="middle" x="161.5" y="-292.5" font-family="Helvetica,sans-Serif" font-size="10.00">cRNG</text>
</a>
</g>
</g>
<!-- Node1&#45;&gt;Node205 -->
<g id="edge46" class="edge">
<title>Node1&#45;&gt;Node205</title>
<path fill="none" stroke="midnightblue" d="M29.46,-560.09C35.34,-504.55 54.53,-349.61 89,-314 102.04,-300.53 123.46,-296.24 139.47,-295.05"/>
<polygon fill="midnightblue" stroke="midnightblue" points="25.95,-560.05 28.41,-570.36 32.91,-560.77 25.95,-560.05"/>
</g>
<!-- Node208 -->
<g id="node48" class="node">
<title>Node208</title>
<g id="a_node48"><a xlink:href="classomnetpp_1_1cScheduler.html" target="_top" xlink:title="Abstract class to encapsulate event scheduling.">
<polygon fill="white" stroke="red" points="126.5,-247.5 126.5,-266.5 196.5,-266.5 196.5,-247.5 126.5,-247.5"/>
<text text-anchor="middle" x="161.5" y="-254.5" font-family="Helvetica,sans-Serif" font-size="10.00">cScheduler</text>
</a>
</g>
</g>
<!-- Node1&#45;&gt;Node208 -->
<g id="edge47" class="edge">
<title>Node1&#45;&gt;Node208</title>
<path fill="none" stroke="midnightblue" d="M28.84,-560.1C33.32,-499.31 49.81,-317.62 89,-276 98.6,-265.81 112.98,-260.85 126.34,-258.52"/>
<polygon fill="midnightblue" stroke="midnightblue" points="25.33,-560.06 28.12,-570.28 32.31,-560.55 25.33,-560.06"/>
</g>
<!-- Node211 -->
<g id="node49" class="node">
<title>Node211</title>
<g id="a_node49"><a xlink:href="classomnetpp_1_1cTimestampedValue.html" target="_top" xlink:title="A straightforward implementation of cITimestampedValue.">
<polygon fill="white" stroke="black" points="103.5,-209.5 103.5,-228.5 219.5,-228.5 219.5,-209.5 103.5,-209.5"/>
<text text-anchor="middle" x="161.5" y="-216.5" font-family="Helvetica,sans-Serif" font-size="10.00">cTimestampedValue</text>
</a>
</g>
</g>
<!-- Node1&#45;&gt;Node211 -->
<g id="edge48" class="edge">
<title>Node1&#45;&gt;Node211</title>
<path fill="none" stroke="midnightblue" d="M28.34,-560.24C31.54,-494.67 45.04,-285.71 89,-238 93,-233.65 97.88,-230.26 103.18,-227.61"/>
<polygon fill="midnightblue" stroke="midnightblue" points="24.84,-560.29 27.87,-570.44 31.83,-560.61 24.84,-560.29"/>
</g>
<!-- Node5 -->
<g id="node5" class="node">
<title>Node5</title>
<g id="a_node5"><a xlink:href="classomnetpp_1_1cConfigurationEx.html" target="_top" xlink:title="Represents a configuration suitable for use with the Envir library.">
<polygon fill="white" stroke="black" points="318.5,-1061.5 318.5,-1080.5 417.5,-1080.5 417.5,-1061.5 318.5,-1061.5"/>
<text text-anchor="middle" x="368" y="-1068.5" font-family="Helvetica,sans-Serif" font-size="10.00">cConfigurationEx</text>
</a>
</g>
</g>
<!-- Node4&#45;&gt;Node5 -->
<g id="edge4" class="edge">
<title>Node4&#45;&gt;Node5</title>
<path fill="none" stroke="midnightblue" d="M215.03,-871.67C222.13,-874.53 228.76,-878.5 234,-884 286.67,-939.29 215.53,-998.48 270,-1052 282.73,-1064.51 301.13,-1069.99 318.48,-1072.09"/>
<polygon fill="midnightblue" stroke="midnightblue" points="215.73,-868.22 205.14,-868.43 213.55,-874.87 215.73,-868.22"/>
</g>
<!-- Node8 -->
<g id="node8" class="node">
<title>Node8</title>
<g id="a_node8"><a xlink:href="classomnetpp_1_1cMultiFingerprintCalculator.html" target="_top" xlink:title="This class calculates multiple fingerprints simultaneously.">
<polygon fill="white" stroke="black" points="293.5,-1023.5 293.5,-1042.5 442.5,-1042.5 442.5,-1023.5 293.5,-1023.5"/>
<text text-anchor="middle" x="368" y="-1030.5" font-family="Helvetica,sans-Serif" font-size="10.00">cMultiFingerprintCalculator</text>
</a>
</g>
</g>
<!-- Node7&#45;&gt;Node8 -->
<g id="edge7" class="edge">
<title>Node7&#45;&gt;Node8</title>
<path fill="none" stroke="midnightblue" d="M230.2,-804.34C231.53,-805.48 232.81,-806.7 234,-808 296.81,-876.51 204.95,-947.61 270,-1014 276.49,-1020.62 284.55,-1025.29 293.24,-1028.54"/>
<polygon fill="midnightblue" stroke="midnightblue" points="232.12,-801.42 221.89,-798.67 228.17,-807.2 232.12,-801.42"/>
</g>
<!-- Node9 -->
<g id="node9" class="node">
<title>Node9</title>
<g id="a_node9"><a xlink:href="classomnetpp_1_1cSingleFingerprintCalculator.html" target="_top" xlink:title="This class calculates the &quot;fingerprint&quot; of a simulation.">
<polygon fill="white" stroke="black" points="291,-985.5 291,-1004.5 445,-1004.5 445,-985.5 291,-985.5"/>
<text text-anchor="middle" x="368" y="-992.5" font-family="Helvetica,sans-Serif" font-size="10.00">cSingleFingerprintCalculator</text>
</a>
</g>
</g>
<!-- Node7&#45;&gt;Node9 -->
<g id="edge8" class="edge">
<title>Node7&#45;&gt;Node9</title>
<path fill="none" stroke="midnightblue" d="M230.03,-804.32C231.42,-805.47 232.75,-806.69 234,-808 286.67,-863.29 215.53,-922.48 270,-976 275.88,-981.77 282.96,-986.05 290.59,-989.19"/>
<polygon fill="midnightblue" stroke="midnightblue" points="231.67,-801.21 221.4,-798.63 227.82,-807.06 231.67,-801.21"/>
</g>
<!-- Node13 -->
<g id="node13" class="node">
<title>Node13</title>
<g id="a_node13"><a xlink:href="classomnetpp_1_1cFixedRangeHistogramStrategy.html" target="_top" xlink:title="Histogram strategy that sets up uniform bins over a predetermined interval. The number of bins and th...">
<polygon fill="white" stroke="black" points="283,-947.5 283,-966.5 453,-966.5 453,-947.5 283,-947.5"/>
<text text-anchor="middle" x="368" y="-954.5" font-family="Helvetica,sans-Serif" font-size="10.00">cFixedRangeHistogramStrategy</text>
</a>
</g>
</g>
<!-- Node12&#45;&gt;Node13 -->
<g id="edge12" class="edge">
<title>Node12&#45;&gt;Node13</title>
<path fill="none" stroke="midnightblue" d="M228.91,-689.19C230.73,-690.65 232.44,-692.25 234,-694 307,-775.77 194.33,-858.69 270,-938 273.79,-941.97 278.15,-945.25 282.87,-947.94"/>
<polygon fill="midnightblue" stroke="midnightblue" points="230.61,-686.12 220.3,-683.66 226.82,-692.01 230.61,-686.12"/>
</g>
<!-- Node14 -->
<g id="node14" class="node">
<title>Node14</title>
<g id="a_node14"><a xlink:href="classomnetpp_1_1cPrecollectionBasedHistogramStrategy.html" target="_top" xlink:title="Base class for histogram strategies that employ a precollection phase in order to gather input for se...">
<polygon fill="white" stroke="red" points="285,-898 285,-928 451,-928 451,-898 285,-898"/>
<text text-anchor="start" x="293" y="-916" font-family="Helvetica,sans-Serif" font-size="10.00">cPrecollectionBasedHistogram</text>
<text text-anchor="middle" x="368" y="-905" font-family="Helvetica,sans-Serif" font-size="10.00">Strategy</text>
</a>
</g>
</g>
<!-- Node12&#45;&gt;Node14 -->
<g id="edge13" class="edge">
<title>Node12&#45;&gt;Node14</title>
<path fill="none" stroke="midnightblue" d="M228.83,-689.27C230.67,-690.7 232.4,-692.28 234,-694 293.6,-758.33 210.16,-823.9 270,-888 274.27,-892.58 279.26,-896.36 284.68,-899.48"/>
<polygon fill="midnightblue" stroke="midnightblue" points="230.47,-686.17 220.14,-683.8 226.75,-692.09 230.47,-686.17"/>
</g>
<!-- Node21 -->
<g id="node19" class="node">
<title>Node21</title>
<g id="a_node19"><a xlink:href="classomnetpp_1_1cPathChangeNotification.html" target="_top" xlink:title="Base class for path change notifications.">
<polygon fill="white" stroke="red" points="300,-859.5 300,-878.5 436,-878.5 436,-859.5 300,-859.5"/>
<text text-anchor="middle" x="368" y="-866.5" font-family="Helvetica,sans-Serif" font-size="10.00">cPathChangeNotification</text>
</a>
</g>
</g>
<!-- Node20&#45;&gt;Node21 -->
<g id="edge18" class="edge">
<title>Node20&#45;&gt;Node21</title>
<path fill="none" stroke="midnightblue" d="M230.74,-538.65C231.89,-539.7 232.98,-540.82 234,-542 324.22,-646.18 176.37,-748.86 270,-850 277.93,-858.56 288.49,-863.92 299.72,-867.16"/>
<polygon fill="midnightblue" stroke="midnightblue" points="232.61,-535.69 222.46,-532.65 228.5,-541.35 232.61,-535.69"/>
</g>
<!-- Node26 -->
<g id="node20" class="node">
<title>Node26</title>
<g id="a_node20"><a xlink:href="classomnetpp_1_1cPostComponentInitializeNotification.html" target="_top" xlink:title="Model change notification fired after a component is initialized.">
<polygon fill="white" stroke="black" points="297.5,-810 297.5,-840 438.5,-840 438.5,-810 297.5,-810"/>
<text text-anchor="start" x="305.5" y="-828" font-family="Helvetica,sans-Serif" font-size="10.00">cPostComponentInitialize</text>
<text text-anchor="middle" x="368" y="-817" font-family="Helvetica,sans-Serif" font-size="10.00">Notification</text>
</a>
</g>
</g>
<!-- Node20&#45;&gt;Node26 -->
<g id="edge19" class="edge">
<title>Node20&#45;&gt;Node26</title>
<path fill="none" stroke="midnightblue" d="M230.26,-538.29C231.58,-539.44 232.83,-540.68 234,-542 311.03,-629.02 192.22,-714.64 270,-801 277.31,-809.12 286.9,-814.7 297.2,-818.49"/>
<polygon fill="midnightblue" stroke="midnightblue" points="232.24,-535.4 222.04,-532.54 228.22,-541.14 232.24,-535.4"/>
</g>
<!-- Node27 -->
<g id="node21" class="node">
<title>Node27</title>
<g id="a_node21"><a xlink:href="classomnetpp_1_1cPostDisplayStringChangeNotification.html" target="_top" xlink:title="Model change notification fired after a dispay string change.">
<polygon fill="white" stroke="black" points="295.5,-761 295.5,-791 440.5,-791 440.5,-761 295.5,-761"/>
<text text-anchor="start" x="303.5" y="-779" font-family="Helvetica,sans-Serif" font-size="10.00">cPostDisplayStringChange</text>
<text text-anchor="middle" x="368" y="-768" font-family="Helvetica,sans-Serif" font-size="10.00">Notification</text>
</a>
</g>
</g>
<!-- Node20&#45;&gt;Node27 -->
<g id="edge20" class="edge">
<title>Node20&#45;&gt;Node27</title>
<path fill="none" stroke="midnightblue" d="M230.2,-538.34C231.54,-539.48 232.81,-540.7 234,-542 297.61,-611.55 206.13,-681.69 270,-751 276.95,-758.55 285.85,-763.94 295.43,-767.78"/>
<polygon fill="midnightblue" stroke="midnightblue" points="232.13,-535.42 221.9,-532.66 228.18,-541.2 232.13,-535.42"/>
</g>
<!-- Node28 -->
<g id="node22" class="node">
<title>Node28</title>
<g id="a_node22"><a xlink:href="classomnetpp_1_1cPostGateAddNotification.html" target="_top" xlink:title="Model change notification fired after a gate or gate vector has been added to the module.">
<polygon fill="white" stroke="black" points="297.5,-722.5 297.5,-741.5 438.5,-741.5 438.5,-722.5 297.5,-722.5"/>
<text text-anchor="middle" x="368" y="-729.5" font-family="Helvetica,sans-Serif" font-size="10.00">cPostGateAddNotification</text>
</a>
</g>
</g>
<!-- Node20&#45;&gt;Node28 -->
<g id="edge21" class="edge">
<title>Node20&#45;&gt;Node28</title>
<path fill="none" stroke="midnightblue" d="M230.04,-538.32C231.43,-539.46 232.75,-540.69 234,-542 287.47,-598.33 214.7,-658.47 270,-713 277.58,-720.47 287.17,-725.44 297.36,-728.67"/>
<polygon fill="midnightblue" stroke="midnightblue" points="231.69,-535.21 221.41,-532.61 227.82,-541.05 231.69,-535.21"/>
</g>
<!-- Node29 -->
<g id="node23" class="node">
<title>Node29</title>
<g id="a_node23"><a xlink:href="classomnetpp_1_1cPostGateConnectNotification.html" target="_top" xlink:title="Model change notification fired after a gate has been connected.">
<polygon fill="white" stroke="black" points="287,-684.5 287,-703.5 449,-703.5 449,-684.5 287,-684.5"/>
<text text-anchor="middle" x="368" y="-691.5" font-family="Helvetica,sans-Serif" font-size="10.00">cPostGateConnectNotification</text>
</a>
</g>
</g>
<!-- Node20&#45;&gt;Node29 -->
<g id="edge22" class="edge">
<title>Node20&#45;&gt;Node29</title>
<path fill="none" stroke="midnightblue" d="M229.43,-538.02C231.04,-539.25 232.57,-540.57 234,-542 277.4,-585.2 225.19,-633.26 270,-675 274.9,-679.56 280.55,-683.17 286.62,-686.02"/>
<polygon fill="midnightblue" stroke="midnightblue" points="231.18,-534.99 220.84,-532.66 227.47,-540.92 231.18,-534.99"/>
</g>
<!-- Node30 -->
<g id="node24" class="node">
<title>Node30</title>
<g id="a_node24"><a xlink:href="classomnetpp_1_1cPostGateDeleteNotification.html" target="_top" xlink:title="Model change notification fired after a gate has been deleted.">
<polygon fill="white" stroke="black" points="290.5,-646.5 290.5,-665.5 445.5,-665.5 445.5,-646.5 290.5,-646.5"/>
<text text-anchor="middle" x="368" y="-653.5" font-family="Helvetica,sans-Serif" font-size="10.00">cPostGateDeleteNotification</text>
</a>
</g>
</g>
<!-- Node20&#45;&gt;Node30 -->
<g id="edge23" class="edge">
<title>Node20&#45;&gt;Node30</title>
<path fill="none" stroke="midnightblue" d="M228.45,-537.65C230.4,-538.98 232.26,-540.43 234,-542 267.52,-572.25 235.49,-607.88 270,-637 276.03,-642.09 283.03,-645.97 290.45,-648.9"/>
<polygon fill="midnightblue" stroke="midnightblue" points="229.83,-534.42 219.4,-532.55 226.4,-540.51 229.83,-534.42"/>
</g>
<!-- Node31 -->
<g id="node25" class="node">
<title>Node31</title>
<g id="a_node25"><a xlink:href="classomnetpp_1_1cPostGateDisconnectNotification.html" target="_top" xlink:title="Model change notification fired after a gate is disconnected.">
<polygon fill="white" stroke="black" points="280,-608.5 280,-627.5 456,-627.5 456,-608.5 280,-608.5"/>
<text text-anchor="middle" x="368" y="-615.5" font-family="Helvetica,sans-Serif" font-size="10.00">cPostGateDisconnectNotification</text>
</a>
</g>
</g>
<!-- Node20&#45;&gt;Node31 -->
<g id="edge24" class="edge">
<title>Node20&#45;&gt;Node31</title>
<path fill="none" stroke="midnightblue" d="M225.59,-536.76C228.54,-538.32 231.36,-540.06 234,-542 258.15,-559.74 245.28,-582.07 270,-599 275.52,-602.78 281.61,-605.85 287.97,-608.34"/>
<polygon fill="midnightblue" stroke="midnightblue" points="227.01,-533.56 216.46,-532.58 224.1,-539.92 227.01,-533.56"/>
</g>
<!-- Node32 -->
<g id="node26" class="node">
<title>Node32</title>
<g id="a_node26"><a xlink:href="classomnetpp_1_1cPostGateVectorResizeNotification.html" target="_top" xlink:title="Model change notification fired after a gate vector has been resized.">
<polygon fill="white" stroke="black" points="275.5,-570.5 275.5,-589.5 460.5,-589.5 460.5,-570.5 275.5,-570.5"/>
<text text-anchor="middle" x="368" y="-577.5" font-family="Helvetica,sans-Serif" font-size="10.00">cPostGateVectorResizeNotification</text>
</a>
</g>
</g>
<!-- Node20&#45;&gt;Node32 -->
<g id="edge25" class="edge">
<title>Node20&#45;&gt;Node32</title>
<path fill="none" stroke="midnightblue" d="M214.6,-535.36C221.2,-537.36 227.81,-539.58 234,-542 250.85,-548.59 252.94,-554.97 270,-561 280.84,-564.83 292.65,-567.96 304.18,-570.48"/>
<polygon fill="midnightblue" stroke="midnightblue" points="215.55,-532 204.98,-532.6 213.62,-538.72 215.55,-532"/>
</g>
<!-- Node33 -->
<g id="node27" class="node">
<title>Node33</title>
<g id="a_node27"><a xlink:href="classomnetpp_1_1cPostModuleAddNotification.html" target="_top" xlink:title="Model change notification fired just after a module is inserted into the network.">
<polygon fill="white" stroke="black" points="291,-532.5 291,-551.5 445,-551.5 445,-532.5 291,-532.5"/>
<text text-anchor="middle" x="368" y="-539.5" font-family="Helvetica,sans-Serif" font-size="10.00">cPostModuleAddNotification</text>
</a>
</g>
</g>
<!-- Node20&#45;&gt;Node33 -->
<g id="edge26" class="edge">
<title>Node20&#45;&gt;Node33</title>
<path fill="none" stroke="midnightblue" d="M244.08,-530.58C259.56,-532.02 275.7,-533.52 291,-534.94"/>
<polygon fill="midnightblue" stroke="midnightblue" points="244.31,-527.09 234.02,-529.65 243.66,-534.06 244.31,-527.09"/>
</g>
<!-- Node34 -->
<g id="node28" class="node">
<title>Node34</title>
<g id="a_node28"><a xlink:href="classomnetpp_1_1cPostModuleBuildNotification.html" target="_top" xlink:title="Model change notification fired after a module is built.">
<polygon fill="white" stroke="black" points="288,-494.5 288,-513.5 448,-513.5 448,-494.5 288,-494.5"/>
<text text-anchor="middle" x="368" y="-501.5" font-family="Helvetica,sans-Serif" font-size="10.00">cPostModuleBuildNotification</text>
</a>
</g>
</g>
<!-- Node20&#45;&gt;Node34 -->
<g id="edge27" class="edge">
<title>Node20&#45;&gt;Node34</title>
<path fill="none" stroke="midnightblue" d="M244.35,-515.4C258.68,-514.06 273.58,-512.68 287.84,-511.35"/>
<polygon fill="midnightblue" stroke="midnightblue" points="243.66,-511.94 234.02,-516.35 244.31,-518.91 243.66,-511.94"/>
</g>
<!-- Node35 -->
<g id="node29" class="node">
<title>Node35</title>
<g id="a_node29"><a xlink:href="classomnetpp_1_1cPostModuleDeleteNotification.html" target="_top" xlink:title="Model change notification fired after a module has been deleted.">
<polygon fill="white" stroke="black" points="284.5,-456.5 284.5,-475.5 451.5,-475.5 451.5,-456.5 284.5,-456.5"/>
<text text-anchor="middle" x="368" y="-463.5" font-family="Helvetica,sans-Serif" font-size="10.00">cPostModuleDeleteNotification</text>
</a>
</g>
</g>
<!-- Node20&#45;&gt;Node35 -->
<g id="edge28" class="edge">
<title>Node20&#45;&gt;Node35</title>
<path fill="none" stroke="midnightblue" d="M214.6,-510.64C221.2,-508.64 227.81,-506.42 234,-504 250.85,-497.41 252.94,-491.03 270,-485 280.84,-481.17 292.65,-478.04 304.18,-475.52"/>
<polygon fill="midnightblue" stroke="midnightblue" points="213.62,-507.28 204.98,-513.4 215.55,-514 213.62,-507.28"/>
</g>
<!-- Node36 -->
<g id="node30" class="node">
<title>Node36</title>
<g id="a_node30"><a xlink:href="classomnetpp_1_1cPostModuleReparentNotification.html" target="_top" xlink:title="Model change notification fired after a module has been reparented.">
<polygon fill="white" stroke="black" points="278.5,-418.5 278.5,-437.5 457.5,-437.5 457.5,-418.5 278.5,-418.5"/>
<text text-anchor="middle" x="368" y="-425.5" font-family="Helvetica,sans-Serif" font-size="10.00">cPostModuleReparentNotification</text>
</a>
</g>
</g>
<!-- Node20&#45;&gt;Node36 -->
<g id="edge29" class="edge">
<title>Node20&#45;&gt;Node36</title>
<path fill="none" stroke="midnightblue" d="M225.59,-509.24C228.54,-507.68 231.36,-505.94 234,-504 258.15,-486.26 245.28,-463.93 270,-447 275.52,-443.22 281.61,-440.15 287.97,-437.66"/>
<polygon fill="midnightblue" stroke="midnightblue" points="224.1,-506.08 216.46,-513.42 227.01,-512.44 224.1,-506.08"/>
</g>
<!-- Node37 -->
<g id="node31" class="node">
<title>Node37</title>
<g id="a_node31"><a xlink:href="classomnetpp_1_1cPostParameterChangeNotification.html" target="_top" xlink:title="Model change notification fired after a parameter change.">
<polygon fill="white" stroke="black" points="275,-380.5 275,-399.5 461,-399.5 461,-380.5 275,-380.5"/>
<text text-anchor="middle" x="368" y="-387.5" font-family="Helvetica,sans-Serif" font-size="10.00">cPostParameterChangeNotification</text>
</a>
</g>
</g>
<!-- Node20&#45;&gt;Node37 -->
<g id="edge30" class="edge">
<title>Node20&#45;&gt;Node37</title>
<path fill="none" stroke="midnightblue" d="M228.45,-508.35C230.4,-507.02 232.26,-505.57 234,-504 267.52,-473.75 235.49,-438.12 270,-409 274.46,-405.24 279.44,-402.14 284.74,-399.59"/>
<polygon fill="midnightblue" stroke="midnightblue" points="226.4,-505.49 219.4,-513.45 229.83,-511.58 226.4,-505.49"/>
</g>
<!-- Node38 -->
<g id="node32" class="node">
<title>Node38</title>
<g id="a_node32"><a xlink:href="classomnetpp_1_1cPreDisplayStringChangeNotification.html" target="_top" xlink:title="Model change notification fired just before a display string change.">
<polygon fill="white" stroke="black" points="270,-342.5 270,-361.5 466,-361.5 466,-342.5 270,-342.5"/>
<text text-anchor="middle" x="368" y="-349.5" font-family="Helvetica,sans-Serif" font-size="10.00">cPreDisplayStringChangeNotification</text>
</a>
</g>
</g>
<!-- Node20&#45;&gt;Node38 -->
<g id="edge31" class="edge">
<title>Node20&#45;&gt;Node38</title>
<path fill="none" stroke="midnightblue" d="M229.43,-507.98C231.04,-506.75 232.57,-505.43 234,-504 277.4,-460.8 225.19,-412.74 270,-371 274.02,-367.26 278.55,-364.15 283.4,-361.59"/>
<polygon fill="midnightblue" stroke="midnightblue" points="227.47,-505.08 220.84,-513.34 231.18,-511.01 227.47,-505.08"/>
</g>
<!-- Node39 -->
<g id="node33" class="node">
<title>Node39</title>
<g id="a_node33"><a xlink:href="classomnetpp_1_1cPreGateAddNotification.html" target="_top" xlink:title="Model change notification fired just before a gate or gate vector is added to the module.">
<polygon fill="white" stroke="black" points="300,-304.5 300,-323.5 436,-323.5 436,-304.5 300,-304.5"/>
<text text-anchor="middle" x="368" y="-311.5" font-family="Helvetica,sans-Serif" font-size="10.00">cPreGateAddNotification</text>
</a>
</g>
</g>
<!-- Node20&#45;&gt;Node39 -->
<g id="edge32" class="edge">
<title>Node20&#45;&gt;Node39</title>
<path fill="none" stroke="midnightblue" d="M230.04,-507.68C231.43,-506.54 232.75,-505.31 234,-504 287.47,-447.67 214.7,-387.53 270,-333 278.19,-324.93 288.73,-319.78 299.84,-316.58"/>
<polygon fill="midnightblue" stroke="midnightblue" points="227.82,-504.95 221.41,-513.39 231.69,-510.79 227.82,-504.95"/>
</g>
<!-- Node40 -->
<g id="node34" class="node">
<title>Node40</title>
<g id="a_node34"><a xlink:href="classomnetpp_1_1cPreGateConnectNotification.html" target="_top" xlink:title="Model change notification fired just before a gate is connected.">
<polygon fill="white" stroke="black" points="289.5,-266.5 289.5,-285.5 446.5,-285.5 446.5,-266.5 289.5,-266.5"/>
<text text-anchor="middle" x="368" y="-273.5" font-family="Helvetica,sans-Serif" font-size="10.00">cPreGateConnectNotification</text>
</a>
</g>
</g>
<!-- Node20&#45;&gt;Node40 -->
<g id="edge33" class="edge">
<title>Node20&#45;&gt;Node40</title>
<path fill="none" stroke="midnightblue" d="M230.2,-507.66C231.54,-506.52 232.81,-505.3 234,-504 297.61,-434.45 204.12,-362.41 270,-295 275.52,-289.35 282.18,-285.12 289.41,-281.98"/>
<polygon fill="midnightblue" stroke="midnightblue" points="228.18,-504.8 221.9,-513.34 232.13,-510.58 228.18,-504.8"/>
</g>
<!-- Node41 -->
<g id="node35" class="node">
<title>Node41</title>
<g id="a_node35"><a xlink:href="classomnetpp_1_1cPreGateDeleteNotification.html" target="_top" xlink:title="Model change notification fired just before a gate is deleted.">
<polygon fill="white" stroke="black" points="293.5,-228.5 293.5,-247.5 442.5,-247.5 442.5,-228.5 293.5,-228.5"/>
<text text-anchor="middle" x="368" y="-235.5" font-family="Helvetica,sans-Serif" font-size="10.00">cPreGateDeleteNotification</text>
</a>
</g>
</g>
<!-- Node20&#45;&gt;Node41 -->
<g id="edge34" class="edge">
<title>Node20&#45;&gt;Node41</title>
<path fill="none" stroke="midnightblue" d="M230.25,-507.7C231.57,-506.55 232.83,-505.32 234,-504 307.81,-421.18 193.49,-337.33 270,-257 276.39,-250.29 284.4,-245.57 293.06,-242.29"/>
<polygon fill="midnightblue" stroke="midnightblue" points="228.21,-504.85 222.01,-513.44 232.21,-510.6 228.21,-504.85"/>
</g>
<!-- Node42 -->
<g id="node36" class="node">
<title>Node42</title>
<g id="a_node36"><a xlink:href="classomnetpp_1_1cPreGateDisconnectNotification.html" target="_top" xlink:title="Model change notification fired just before a gate has been disconnected.">
<polygon fill="white" stroke="black" points="282.5,-190.5 282.5,-209.5 453.5,-209.5 453.5,-190.5 282.5,-190.5"/>
<text text-anchor="middle" x="368" y="-197.5" font-family="Helvetica,sans-Serif" font-size="10.00">cPreGateDisconnectNotification</text>
</a>
</g>
</g>
<!-- Node20&#45;&gt;Node42 -->
<g id="edge35" class="edge">
<title>Node20&#45;&gt;Node42</title>
<path fill="none" stroke="midnightblue" d="M230.73,-507.33C231.88,-506.29 232.97,-505.18 234,-504 318.03,-407.88 182.83,-312.29 270,-219 273.63,-215.11 277.81,-211.89 282.34,-209.22"/>
<polygon fill="midnightblue" stroke="midnightblue" points="228.49,-504.63 222.42,-513.32 232.58,-510.31 228.49,-504.63"/>
</g>
<!-- Node43 -->
<g id="node37" class="node">
<title>Node43</title>
<g id="a_node37"><a xlink:href="classomnetpp_1_1cPreGateVectorResizeNotification.html" target="_top" xlink:title="Model change notification fired just before a gate vector is resized.">
<polygon fill="white" stroke="black" points="278,-152.5 278,-171.5 458,-171.5 458,-152.5 278,-152.5"/>
<text text-anchor="middle" x="368" y="-159.5" font-family="Helvetica,sans-Serif" font-size="10.00">cPreGateVectorResizeNotification</text>
</a>
</g>
</g>
<!-- Node20&#45;&gt;Node43 -->
<g id="edge36" class="edge">
<title>Node20&#45;&gt;Node43</title>
<path fill="none" stroke="midnightblue" d="M230.75,-507.35C231.89,-506.3 232.98,-505.19 234,-504 328.27,-394.56 172.16,-287.26 270,-181 273.37,-177.34 277.22,-174.26 281.4,-171.69"/>
<polygon fill="midnightblue" stroke="midnightblue" points="228.51,-504.66 222.48,-513.37 232.63,-510.32 228.51,-504.66"/>
</g>
<!-- Node44 -->
<g id="node38" class="node">
<title>Node44</title>
<g id="a_node38"><a xlink:href="classomnetpp_1_1cPreModuleAddNotification.html" target="_top" xlink:title="Model change notification fired just before a module is inserted into the network.">
<polygon fill="white" stroke="black" points="293.5,-114.5 293.5,-133.5 442.5,-133.5 442.5,-114.5 293.5,-114.5"/>
<text text-anchor="middle" x="368" y="-121.5" font-family="Helvetica,sans-Serif" font-size="10.00">cPreModuleAddNotification</text>
</a>
</g>
</g>
<!-- Node20&#45;&gt;Node44 -->
<g id="edge37" class="edge">
<title>Node20&#45;&gt;Node44</title>
<path fill="none" stroke="midnightblue" d="M230.77,-507.37C231.91,-506.31 232.99,-505.19 234,-504 286.26,-442.61 215.74,-202.62 270,-143 276.35,-136.02 284.45,-131.16 293.26,-127.84"/>
<polygon fill="midnightblue" stroke="midnightblue" points="228.52,-504.67 222.53,-513.41 232.66,-510.32 228.52,-504.67"/>
</g>
<!-- Node45 -->
<g id="node39" class="node">
<title>Node45</title>
<g id="a_node39"><a xlink:href="classomnetpp_1_1cPreModuleDeleteNotification.html" target="_top" xlink:title="Model change notification fired just before a module is deleted.">
<polygon fill="white" stroke="black" points="287,-76.5 287,-95.5 449,-95.5 449,-76.5 287,-76.5"/>
<text text-anchor="middle" x="368" y="-83.5" font-family="Helvetica,sans-Serif" font-size="10.00">cPreModuleDeleteNotification</text>
</a>
</g>
</g>
<!-- Node20&#45;&gt;Node45 -->
<g id="edge38" class="edge">
<title>Node20&#45;&gt;Node45</title>
<path fill="none" stroke="midnightblue" d="M230.78,-507.38C231.92,-506.32 232.99,-505.2 234,-504 291.39,-435.94 210.39,-171.12 270,-105 274.71,-99.77 280.4,-95.74 286.64,-92.64"/>
<polygon fill="midnightblue" stroke="midnightblue" points="228.54,-504.69 222.57,-513.44 232.69,-510.32 228.54,-504.69"/>
</g>
<!-- Node46 -->
<g id="node40" class="node">
<title>Node46</title>
<g id="a_node40"><a xlink:href="classomnetpp_1_1cPreModuleReparentNotification.html" target="_top" xlink:title="Model change notification fired just before a module is reparented.">
<polygon fill="white" stroke="black" points="281,-38.5 281,-57.5 455,-57.5 455,-38.5 281,-38.5"/>
<text text-anchor="middle" x="368" y="-45.5" font-family="Helvetica,sans-Serif" font-size="10.00">cPreModuleReparentNotification</text>
</a>
</g>
</g>
<!-- Node20&#45;&gt;Node46 -->
<g id="edge39" class="edge">
<title>Node20&#45;&gt;Node46</title>
<path fill="none" stroke="midnightblue" d="M230.8,-507.39C231.92,-506.33 233,-505.2 234,-504 296.52,-429.26 205.04,-139.62 270,-67 273.32,-63.29 277.13,-60.18 281.28,-57.57"/>
<polygon fill="midnightblue" stroke="midnightblue" points="228.55,-504.7 222.6,-513.47 232.72,-510.33 228.55,-504.7"/>
</g>
<!-- Node47 -->
<g id="node41" class="node">
<title>Node47</title>
<g id="a_node41"><a xlink:href="classomnetpp_1_1cPreParameterChangeNotification.html" target="_top" xlink:title="Model change notification fired just before a parameter change.">
<polygon fill="white" stroke="black" points="277.5,-0.5 277.5,-19.5 458.5,-19.5 458.5,-0.5 277.5,-0.5"/>
<text text-anchor="middle" x="368" y="-7.5" font-family="Helvetica,sans-Serif" font-size="10.00">cPreParameterChangeNotification</text>
</a>
</g>
</g>
<!-- Node20&#45;&gt;Node47 -->
<g id="edge40" class="edge">
<title>Node20&#45;&gt;Node47</title>
<path fill="none" stroke="midnightblue" d="M230.81,-507.4C231.93,-506.34 233,-505.2 234,-504 301.66,-422.58 199.68,-108.13 270,-29 273.31,-25.28 277.11,-22.16 281.25,-19.55"/>
<polygon fill="midnightblue" stroke="midnightblue" points="228.56,-504.71 222.63,-513.49 232.74,-510.33 228.56,-504.71"/>
</g>
</g>
</svg>
