<?xml version="1.0" encoding="UTF-8" standalone="no"?>
<!DOCTYPE svg PUBLIC "-//W3C//DTD SVG 1.1//EN"
 "http://www.w3.org/Graphics/SVG/1.1/DTD/svg11.dtd">
<!-- Generated by graphviz version 2.43.0 (0)
 -->
<!-- Title: cNumericResultRecorder Pages: 1 -->
<svg width="566pt" height="370pt"
 viewBox="0.00 0.00 566.00 370.00" xmlns="http://www.w3.org/2000/svg" xmlns:xlink="http://www.w3.org/1999/xlink">
<g id="graph0" class="graph" transform="scale(1 1) rotate(0) translate(4 366)">
<title>cNumericResultRecorder</title>
<polygon fill="white" stroke="transparent" points="-4,4 -4,-366 562,-366 562,4 -4,4"/>
<!-- Node1 -->
<g id="node1" class="node">
<title>Node1</title>
<g id="a_node1"><a xlink:title="Abstract base class for numeric result recorders.">
<polygon fill="#bfbfbf" stroke="black" points="260,-171.5 260,-190.5 397,-190.5 397,-171.5 260,-171.5"/>
<text text-anchor="middle" x="328.5" y="-178.5" font-family="Helvetica,sans-Serif" font-size="10.00">cNumericResultRecorder</text>
</a>
</g>
</g>
<!-- Node6 -->
<g id="node4" class="node">
<title>Node6</title>
<g id="a_node4"><a xlink:href="classomnetpp_1_1AverageRecorder.html" target="_top" xlink:title="Listener for recording the arithmetic mean of signal values. NaN values in the input are ignored.">
<polygon fill="white" stroke="black" points="445.5,-342.5 445.5,-361.5 545.5,-361.5 545.5,-342.5 445.5,-342.5"/>
<text text-anchor="middle" x="495.5" y="-349.5" font-family="Helvetica,sans-Serif" font-size="10.00">AverageRecorder</text>
</a>
</g>
</g>
<!-- Node1&#45;&gt;Node6 -->
<g id="edge3" class="edge">
<title>Node1&#45;&gt;Node6</title>
<path fill="none" stroke="midnightblue" d="M337.38,-200.09C351.65,-232.29 384.81,-297.39 433,-333 438.21,-336.85 444.22,-339.93 450.4,-342.4"/>
<polygon fill="midnightblue" stroke="midnightblue" points="340.58,-198.67 333.42,-190.87 334.15,-201.43 340.58,-198.67"/>
</g>
<!-- Node7 -->
<g id="node5" class="node">
<title>Node7</title>
<g id="a_node5"><a xlink:href="classomnetpp_1_1ErrorNanRecorder.html" target="_top" xlink:title="Recorder that raises a runtime error if it sees a NaN in the input (and never records anything).">
<polygon fill="white" stroke="black" points="444,-304.5 444,-323.5 547,-323.5 547,-304.5 444,-304.5"/>
<text text-anchor="middle" x="495.5" y="-311.5" font-family="Helvetica,sans-Serif" font-size="10.00">ErrorNanRecorder</text>
</a>
</g>
</g>
<!-- Node1&#45;&gt;Node7 -->
<g id="edge4" class="edge">
<title>Node1&#45;&gt;Node7</title>
<path fill="none" stroke="midnightblue" d="M341.22,-199.09C358.41,-224.2 392.8,-269.42 433,-295 439.03,-298.84 445.9,-301.95 452.79,-304.45"/>
<polygon fill="midnightblue" stroke="midnightblue" points="343.97,-196.9 335.5,-190.53 338.15,-200.79 343.97,-196.9"/>
</g>
<!-- Node8 -->
<g id="node6" class="node">
<title>Node8</title>
<g id="a_node6"><a xlink:href="classomnetpp_1_1LastValueRecorder.html" target="_top" xlink:title="Listener for recording the last non&#45;NaN signal value.">
<polygon fill="white" stroke="black" points="442,-266.5 442,-285.5 549,-285.5 549,-266.5 442,-266.5"/>
<text text-anchor="middle" x="495.5" y="-273.5" font-family="Helvetica,sans-Serif" font-size="10.00">LastValueRecorder</text>
</a>
</g>
</g>
<!-- Node1&#45;&gt;Node8 -->
<g id="edge5" class="edge">
<title>Node1&#45;&gt;Node8</title>
<path fill="none" stroke="midnightblue" d="M347.48,-197.14C367.21,-214.11 400.42,-240.59 433,-257 440.39,-260.72 448.64,-263.88 456.64,-266.48"/>
<polygon fill="midnightblue" stroke="midnightblue" points="349.72,-194.45 339.89,-190.5 345.11,-199.72 349.72,-194.45"/>
</g>
<!-- Node9 -->
<g id="node7" class="node">
<title>Node9</title>
<g id="a_node7"><a xlink:href="classomnetpp_1_1MaxRecorder.html" target="_top" xlink:title="Listener for recording the maximum of signal values. NaN values in the input are ignored.">
<polygon fill="white" stroke="black" points="455,-228.5 455,-247.5 536,-247.5 536,-228.5 455,-228.5"/>
<text text-anchor="middle" x="495.5" y="-235.5" font-family="Helvetica,sans-Serif" font-size="10.00">MaxRecorder</text>
</a>
</g>
</g>
<!-- Node1&#45;&gt;Node9 -->
<g id="edge6" class="edge">
<title>Node1&#45;&gt;Node9</title>
<path fill="none" stroke="midnightblue" d="M364.09,-194.21C384.13,-201.74 409.88,-211.19 433,-219 442.53,-222.22 452.96,-225.52 462.48,-228.45"/>
<polygon fill="midnightblue" stroke="midnightblue" points="365.06,-190.84 354.47,-190.58 362.59,-197.39 365.06,-190.84"/>
</g>
<!-- Node10 -->
<g id="node8" class="node">
<title>Node10</title>
<g id="a_node8"><a xlink:href="classomnetpp_1_1MeanRecorder.html" target="_top" xlink:title="Listener for recording the (time&#45;weighted or unweighted) mean of signal values. NaN values in the inp...">
<polygon fill="white" stroke="black" points="452,-190.5 452,-209.5 539,-209.5 539,-190.5 452,-190.5"/>
<text text-anchor="middle" x="495.5" y="-197.5" font-family="Helvetica,sans-Serif" font-size="10.00">MeanRecorder</text>
</a>
</g>
</g>
<!-- Node1&#45;&gt;Node10 -->
<g id="edge7" class="edge">
<title>Node1&#45;&gt;Node10</title>
<path fill="none" stroke="midnightblue" d="M407.14,-189.94C422.53,-191.71 438.15,-193.51 451.83,-195.09"/>
<polygon fill="midnightblue" stroke="midnightblue" points="407.42,-186.45 397.09,-188.78 406.62,-193.4 407.42,-186.45"/>
</g>
<!-- Node11 -->
<g id="node9" class="node">
<title>Node11</title>
<g id="a_node9"><a xlink:href="classomnetpp_1_1MinRecorder.html" target="_top" xlink:title="Listener for recording the minimum of signal values. NaN values in the input are ignored.">
<polygon fill="white" stroke="black" points="456.5,-152.5 456.5,-171.5 534.5,-171.5 534.5,-152.5 456.5,-152.5"/>
<text text-anchor="middle" x="495.5" y="-159.5" font-family="Helvetica,sans-Serif" font-size="10.00">MinRecorder</text>
</a>
</g>
</g>
<!-- Node1&#45;&gt;Node11 -->
<g id="edge8" class="edge">
<title>Node1&#45;&gt;Node11</title>
<path fill="none" stroke="midnightblue" d="M407.06,-172.07C424.1,-170.11 441.42,-168.11 456.1,-166.42"/>
<polygon fill="midnightblue" stroke="midnightblue" points="406.62,-168.6 397.09,-173.22 407.42,-175.55 406.62,-168.6"/>
</g>
<!-- Node12 -->
<g id="node10" class="node">
<title>Node12</title>
<g id="a_node10"><a xlink:href="classomnetpp_1_1StatisticsRecorder.html" target="_top" xlink:title="Listener for recording signal values via a cStatistic. NaN values in the input are ignored,...">
<polygon fill="white" stroke="black" points="443,-114.5 443,-133.5 548,-133.5 548,-114.5 443,-114.5"/>
<text text-anchor="middle" x="495.5" y="-121.5" font-family="Helvetica,sans-Serif" font-size="10.00">StatisticsRecorder</text>
</a>
</g>
</g>
<!-- Node1&#45;&gt;Node12 -->
<g id="edge9" class="edge">
<title>Node1&#45;&gt;Node12</title>
<path fill="none" stroke="midnightblue" d="M364.09,-167.79C384.13,-160.26 409.88,-150.81 433,-143 442.53,-139.78 452.96,-136.48 462.48,-133.55"/>
<polygon fill="midnightblue" stroke="midnightblue" points="362.59,-164.61 354.47,-171.42 365.06,-171.16 362.59,-164.61"/>
</g>
<!-- Node13 -->
<g id="node11" class="node">
<title>Node13</title>
<g id="a_node11"><a xlink:href="classomnetpp_1_1SumRecorder.html" target="_top" xlink:title="Listener for recording the sum of signal values. NaN values in the input are ignored.">
<polygon fill="white" stroke="black" points="454.5,-76.5 454.5,-95.5 536.5,-95.5 536.5,-76.5 454.5,-76.5"/>
<text text-anchor="middle" x="495.5" y="-83.5" font-family="Helvetica,sans-Serif" font-size="10.00">SumRecorder</text>
</a>
</g>
</g>
<!-- Node1&#45;&gt;Node13 -->
<g id="edge10" class="edge">
<title>Node1&#45;&gt;Node13</title>
<path fill="none" stroke="midnightblue" d="M347.48,-164.86C367.21,-147.89 400.42,-121.41 433,-105 440.39,-101.28 448.64,-98.12 456.64,-95.52"/>
<polygon fill="midnightblue" stroke="midnightblue" points="345.11,-162.28 339.89,-171.5 349.72,-167.55 345.11,-162.28"/>
</g>
<!-- Node14 -->
<g id="node12" class="node">
<title>Node14</title>
<g id="a_node12"><a xlink:href="classomnetpp_1_1TimeAverageRecorder.html" target="_top" xlink:title="Listener for recording the time average of signal values. NaN values in the input denote intervals to...">
<polygon fill="white" stroke="black" points="433,-38.5 433,-57.5 558,-57.5 558,-38.5 433,-38.5"/>
<text text-anchor="middle" x="495.5" y="-45.5" font-family="Helvetica,sans-Serif" font-size="10.00">TimeAverageRecorder</text>
</a>
</g>
</g>
<!-- Node1&#45;&gt;Node14 -->
<g id="edge11" class="edge">
<title>Node1&#45;&gt;Node14</title>
<path fill="none" stroke="midnightblue" d="M341.22,-162.91C358.41,-137.8 392.8,-92.58 433,-67 439.03,-63.16 445.9,-60.05 452.79,-57.55"/>
<polygon fill="midnightblue" stroke="midnightblue" points="338.15,-161.21 335.5,-171.47 343.97,-165.1 338.15,-161.21"/>
</g>
<!-- Node15 -->
<g id="node13" class="node">
<title>Node15</title>
<g id="a_node13"><a xlink:href="classomnetpp_1_1VectorRecorder.html" target="_top" xlink:title="Listener for recording a signal to an output vector.">
<polygon fill="white" stroke="black" points="450,-0.5 450,-19.5 541,-19.5 541,-0.5 450,-0.5"/>
<text text-anchor="middle" x="495.5" y="-7.5" font-family="Helvetica,sans-Serif" font-size="10.00">VectorRecorder</text>
</a>
</g>
</g>
<!-- Node1&#45;&gt;Node15 -->
<g id="edge12" class="edge">
<title>Node1&#45;&gt;Node15</title>
<path fill="none" stroke="midnightblue" d="M337.38,-161.91C351.65,-129.71 384.81,-64.61 433,-29 438.21,-25.15 444.22,-22.07 450.4,-19.6"/>
<polygon fill="midnightblue" stroke="midnightblue" points="334.15,-160.57 333.42,-171.13 340.58,-163.33 334.15,-160.57"/>
</g>
<!-- Node2 -->
<g id="node2" class="node">
<title>Node2</title>
<g id="a_node2"><a xlink:href="classomnetpp_1_1cResultRecorder.html" target="_top" xlink:title="Abstract base class for result recorders.">
<polygon fill="white" stroke="black" points="128,-171.5 128,-190.5 224,-190.5 224,-171.5 128,-171.5"/>
<text text-anchor="middle" x="176" y="-178.5" font-family="Helvetica,sans-Serif" font-size="10.00">cResultRecorder</text>
</a>
</g>
</g>
<!-- Node2&#45;&gt;Node1 -->
<g id="edge1" class="edge">
<title>Node2&#45;&gt;Node1</title>
<path fill="none" stroke="midnightblue" d="M234.22,-181C242.57,-181 251.25,-181 259.79,-181"/>
<polygon fill="midnightblue" stroke="midnightblue" points="234.21,-177.5 224.21,-181 234.21,-184.5 234.21,-177.5"/>
</g>
<!-- Node3 -->
<g id="node3" class="node">
<title>Node3</title>
<g id="a_node3"><a xlink:href="classomnetpp_1_1cResultListener.html" target="_top" xlink:title="Common abstract base class for result filters and result recorders.">
<polygon fill="white" stroke="red" points="0,-171.5 0,-190.5 92,-190.5 92,-171.5 0,-171.5"/>
<text text-anchor="middle" x="46" y="-178.5" font-family="Helvetica,sans-Serif" font-size="10.00">cResultListener</text>
</a>
</g>
</g>
<!-- Node3&#45;&gt;Node2 -->
<g id="edge2" class="edge">
<title>Node3&#45;&gt;Node2</title>
<path fill="none" stroke="midnightblue" d="M102.3,-181C110.75,-181 119.42,-181 127.68,-181"/>
<polygon fill="midnightblue" stroke="midnightblue" points="102.13,-177.5 92.13,-181 102.13,-184.5 102.13,-177.5"/>
</g>
</g>
</svg>
