<?xml version="1.0" encoding="UTF-8" standalone="no"?>
<!DOCTYPE svg PUBLIC "-//W3C//DTD SVG 1.1//EN"
 "http://www.w3.org/Graphics/SVG/1.1/DTD/svg11.dtd">
<!-- Generated by graphviz version 2.43.0 (0)
 -->
<!-- Title: cPathChangeNotification Pages: 1 -->
<svg width="628pt" height="142pt"
 viewBox="0.00 0.00 628.00 142.00" xmlns="http://www.w3.org/2000/svg" xmlns:xlink="http://www.w3.org/1999/xlink">
<g id="graph0" class="graph" transform="scale(1 1) rotate(0) translate(4 138)">
<title>cPathChangeNotification</title>
<polygon fill="white" stroke="transparent" points="-4,4 -4,-138 624,-138 624,4 -4,4"/>
<!-- Node1 -->
<g id="node1" class="node">
<title>Node1</title>
<g id="a_node1"><a xlink:title="Base class for path change notifications.">
<polygon fill="#bfbfbf" stroke="black" points="296,-57.5 296,-76.5 432,-76.5 432,-57.5 296,-57.5"/>
<text text-anchor="middle" x="364" y="-64.5" font-family="Helvetica,sans-Serif" font-size="10.00">cPathChangeNotification</text>
</a>
</g>
</g>
<!-- Node5 -->
<g id="node5" class="node">
<title>Node5</title>
<g id="a_node5"><a xlink:href="classomnetpp_1_1cPostPathCreateNotification.html" target="_top" xlink:title="Model change notification fired after a connection path has been created.">
<polygon fill="white" stroke="black" points="468,-114.5 468,-133.5 620,-133.5 620,-114.5 468,-114.5"/>
<text text-anchor="middle" x="544" y="-121.5" font-family="Helvetica,sans-Serif" font-size="10.00">cPostPathCreateNotification</text>
</a>
</g>
</g>
<!-- Node1&#45;&gt;Node5 -->
<g id="edge4" class="edge">
<title>Node1&#45;&gt;Node5</title>
<path fill="none" stroke="midnightblue" d="M398.48,-80.37C418.48,-88.1 444.48,-97.71 468,-105 478.9,-108.38 490.84,-111.61 501.91,-114.42"/>
<polygon fill="midnightblue" stroke="midnightblue" points="399.48,-77 388.9,-76.63 396.94,-83.53 399.48,-77"/>
</g>
<!-- Node6 -->
<g id="node6" class="node">
<title>Node6</title>
<g id="a_node6"><a xlink:href="classomnetpp_1_1cPostPathCutNotification.html" target="_top" xlink:title="Model change notification fired after a connection path has been cut.">
<polygon fill="white" stroke="black" points="475.5,-76.5 475.5,-95.5 612.5,-95.5 612.5,-76.5 475.5,-76.5"/>
<text text-anchor="middle" x="544" y="-83.5" font-family="Helvetica,sans-Serif" font-size="10.00">cPostPathCutNotification</text>
</a>
</g>
</g>
<!-- Node1&#45;&gt;Node6 -->
<g id="edge5" class="edge">
<title>Node1&#45;&gt;Node6</title>
<path fill="none" stroke="midnightblue" d="M442.13,-75.23C453.21,-76.42 464.55,-77.63 475.43,-78.79"/>
<polygon fill="midnightblue" stroke="midnightblue" points="442.36,-71.74 432.04,-74.16 441.61,-78.7 442.36,-71.74"/>
</g>
<!-- Node7 -->
<g id="node7" class="node">
<title>Node7</title>
<g id="a_node7"><a xlink:href="classomnetpp_1_1cPrePathCreateNotification.html" target="_top" xlink:title="Model change notification fired just before a connection path is created.">
<polygon fill="white" stroke="black" points="470.5,-38.5 470.5,-57.5 617.5,-57.5 617.5,-38.5 470.5,-38.5"/>
<text text-anchor="middle" x="544" y="-45.5" font-family="Helvetica,sans-Serif" font-size="10.00">cPrePathCreateNotification</text>
</a>
</g>
</g>
<!-- Node1&#45;&gt;Node7 -->
<g id="edge6" class="edge">
<title>Node1&#45;&gt;Node7</title>
<path fill="none" stroke="midnightblue" d="M442.12,-58.77C451.5,-57.77 461.06,-56.75 470.37,-55.75"/>
<polygon fill="midnightblue" stroke="midnightblue" points="441.61,-55.3 432.04,-59.84 442.36,-62.26 441.61,-55.3"/>
</g>
<!-- Node8 -->
<g id="node8" class="node">
<title>Node8</title>
<g id="a_node8"><a xlink:href="classomnetpp_1_1cPrePathCutNotification.html" target="_top" xlink:title="Model change notification fired just before a connection path is cut.">
<polygon fill="white" stroke="black" points="478.5,-0.5 478.5,-19.5 609.5,-19.5 609.5,-0.5 478.5,-0.5"/>
<text text-anchor="middle" x="544" y="-7.5" font-family="Helvetica,sans-Serif" font-size="10.00">cPrePathCutNotification</text>
</a>
</g>
</g>
<!-- Node1&#45;&gt;Node8 -->
<g id="edge7" class="edge">
<title>Node1&#45;&gt;Node8</title>
<path fill="none" stroke="midnightblue" d="M398.48,-53.63C418.48,-45.9 444.48,-36.29 468,-29 478.9,-25.62 490.84,-22.39 501.91,-19.58"/>
<polygon fill="midnightblue" stroke="midnightblue" points="396.94,-50.47 388.9,-57.37 399.48,-57 396.94,-50.47"/>
</g>
<!-- Node2 -->
<g id="node2" class="node">
<title>Node2</title>
<g id="a_node2"><a xlink:href="classomnetpp_1_1cModelChangeNotification.html" target="_top" xlink:title="Common base class for data objects that accompany PRE_MODEL_CHANGE and POST_MODEL_CHANGE signals.">
<polygon fill="white" stroke="black" points="115,-57.5 115,-76.5 260,-76.5 260,-57.5 115,-57.5"/>
<text text-anchor="middle" x="187.5" y="-64.5" font-family="Helvetica,sans-Serif" font-size="10.00">cModelChangeNotification</text>
</a>
</g>
</g>
<!-- Node2&#45;&gt;Node1 -->
<g id="edge1" class="edge">
<title>Node2&#45;&gt;Node1</title>
<path fill="none" stroke="midnightblue" d="M270.5,-67C278.96,-67 287.48,-67 295.76,-67"/>
<polygon fill="midnightblue" stroke="midnightblue" points="270.23,-63.5 260.23,-67 270.23,-70.5 270.23,-63.5"/>
</g>
<!-- Node3 -->
<g id="node3" class="node">
<title>Node3</title>
<g id="a_node3"><a xlink:href="classomnetpp_1_1cObject.html" target="_top" xlink:title="cObject is a lightweight class which serves as the root of the OMNeT++ class hierarchy....">
<polygon fill="white" stroke="black" points="13,-76.5 13,-95.5 66,-95.5 66,-76.5 13,-76.5"/>
<text text-anchor="middle" x="39.5" y="-83.5" font-family="Helvetica,sans-Serif" font-size="10.00">cObject</text>
</a>
</g>
</g>
<!-- Node3&#45;&gt;Node2 -->
<g id="edge2" class="edge">
<title>Node3&#45;&gt;Node2</title>
<path fill="none" stroke="midnightblue" d="M76.47,-81.32C88.15,-79.8 101.57,-78.05 114.92,-76.32"/>
<polygon fill="midnightblue" stroke="midnightblue" points="75.73,-77.89 66.27,-82.65 76.63,-84.83 75.73,-77.89"/>
</g>
<!-- Node4 -->
<g id="node4" class="node">
<title>Node4</title>
<g id="a_node4"><a xlink:href="classomnetpp_1_1noncopyable.html" target="_top" xlink:title="Utility class, to make it impossible to call the operator= and copy constructor of any class derived ...">
<polygon fill="white" stroke="black" points="0,-38.5 0,-57.5 79,-57.5 79,-38.5 0,-38.5"/>
<text text-anchor="middle" x="39.5" y="-45.5" font-family="Helvetica,sans-Serif" font-size="10.00">noncopyable</text>
</a>
</g>
</g>
<!-- Node4&#45;&gt;Node2 -->
<g id="edge3" class="edge">
<title>Node4&#45;&gt;Node2</title>
<path fill="none" stroke="#8b1a1a" d="M89.34,-54.36C97.53,-55.42 106.19,-56.55 114.81,-57.67"/>
<polygon fill="#8b1a1a" stroke="#8b1a1a" points="89.61,-50.86 79.24,-53.04 88.71,-57.8 89.61,-50.86"/>
</g>
</g>
</svg>
