<?xml version="1.0" encoding="UTF-8" standalone="no"?>
<!DOCTYPE svg PUBLIC "-//W3C//DTD SVG 1.1//EN"
 "http://www.w3.org/Graphics/SVG/1.1/DTD/svg11.dtd">
<!-- Generated by graphviz version 2.43.0 (0)
 -->
<!-- Title: Random Number Generation Pages: 1 -->
<svg width="337pt" height="101pt"
 viewBox="0.00 0.00 337.00 101.00" xmlns="http://www.w3.org/2000/svg" xmlns:xlink="http://www.w3.org/1999/xlink">
<g id="graph0" class="graph" transform="scale(1 1) rotate(0) translate(4 97)">
<title>Random Number Generation</title>
<polygon fill="white" stroke="transparent" points="-4,4 -4,-97 333,-97 333,4 -4,4"/>
<!-- Node2 -->
<g id="node1" class="node">
<title>Node2</title>
<g id="a_node1"><a xlink:href="group__RandomNumbersUtil.html" target="_top" xlink:title="Utility functions.">
<polygon fill="white" stroke="black" points="308,-93 213,-93 213,-74 308,-74 308,-93"/>
<text text-anchor="middle" x="260.5" y="-81" font-family="Helvetica,sans-Serif" font-size="10.00">Utility functions</text>
</a>
</g>
</g>
<!-- Node4 -->
<g id="node2" class="node">
<title>Node4</title>
<g id="a_node2"><a xlink:href="group__RandomNumbersDiscr.html" target="_top" xlink:title="Random variate generators for discrete distributions.">
<polygon fill="white" stroke="black" points="321.5,-56 199.5,-56 199.5,-37 321.5,-37 321.5,-56"/>
<text text-anchor="middle" x="260.5" y="-44" font-family="Helvetica,sans-Serif" font-size="10.00">Discrete Distributions</text>
</a>
</g>
</g>
<!-- Node3 -->
<g id="node3" class="node">
<title>Node3</title>
<g id="a_node3"><a xlink:href="group__RandomNumbersCont.html" target="_top" xlink:title="Random variate generators for continuous distributions.">
<polygon fill="white" stroke="black" points="329,-19 192,-19 192,0 329,0 329,-19"/>
<text text-anchor="middle" x="260.5" y="-7" font-family="Helvetica,sans-Serif" font-size="10.00">Continuous Distributions</text>
</a>
</g>
</g>
<!-- Node1 -->
<g id="node4" class="node">
<title>Node1</title>
<g id="a_node4"><a xlink:title="Draw random values from various distributions.">
<polygon fill="#bfbfbf" stroke="black" points="156,-56 0,-56 0,-37 156,-37 156,-56"/>
<text text-anchor="middle" x="78" y="-44" font-family="Helvetica,sans-Serif" font-size="10.00">Random Number Generation</text>
</a>
</g>
</g>
<!-- Node1&#45;&gt;Node2 -->
<g id="edge1" class="edge">
<title>Node1&#45;&gt;Node2</title>
<path fill="none" stroke="black" d="M135.51,-58.08C160.38,-63.18 189.24,-69.1 212.86,-73.94"/>
<polygon fill="black" stroke="black" points="135.98,-54.61 125.48,-56.03 134.58,-61.47 135.98,-54.61"/>
</g>
<!-- Node1&#45;&gt;Node4 -->
<g id="edge3" class="edge">
<title>Node1&#45;&gt;Node4</title>
<path fill="none" stroke="black" d="M166.3,-46.5C177.48,-46.5 188.72,-46.5 199.33,-46.5"/>
<polygon fill="black" stroke="black" points="166.07,-43 156.07,-46.5 166.07,-50 166.07,-43"/>
</g>
<!-- Node1&#45;&gt;Node3 -->
<g id="edge2" class="edge">
<title>Node1&#45;&gt;Node3</title>
<path fill="none" stroke="black" d="M135.51,-34.92C160.38,-29.82 189.24,-23.9 212.86,-19.06"/>
<polygon fill="black" stroke="black" points="134.58,-31.53 125.48,-36.97 135.98,-38.39 134.58,-31.53"/>
</g>
</g>
</svg>
