<?xml version="1.0" encoding="UTF-8" standalone="no"?>
<!DOCTYPE svg PUBLIC "-//W3C//DTD SVG 1.1//EN"
 "http://www.w3.org/Graphics/SVG/1.1/DTD/svg11.dtd">
<!-- Generated by graphviz version 2.43.0 (0)
 -->
<!-- Title: Graphical Class Hierarchy Pages: 1 -->
<svg width="347pt" height="66pt"
 viewBox="0.00 0.00 347.00 66.00" xmlns="http://www.w3.org/2000/svg" xmlns:xlink="http://www.w3.org/1999/xlink">
<g id="graph0" class="graph" transform="scale(1 1) rotate(0) translate(4 62)">
<title>Graphical Class Hierarchy</title>
<polygon fill="white" stroke="transparent" points="-4,4 -4,-62 343,-62 343,4 -4,4"/>
<!-- Node0 -->
<g id="node1" class="node">
<title>Node0</title>
<g id="a_node1"><a xlink:href="classomnetpp_1_1cXMLElement_1_1ParamResolver.html" target="_top" xlink:title="Base class for classes that resolve parameters ($PARAM) that occur in in XPath expressions to their v...">
<polygon fill="white" stroke="black" points="0,-19.5 0,-38.5 163,-38.5 163,-19.5 0,-19.5"/>
<text text-anchor="middle" x="81.5" y="-26.5" font-family="Helvetica,sans-Serif" font-size="10.00">cXMLElement::ParamResolver</text>
</a>
</g>
</g>
<!-- Node1 -->
<g id="node2" class="node">
<title>Node1</title>
<g id="a_node2"><a xlink:href="classomnetpp_1_1ModNameParamResolver.html" target="_top" xlink:title="A parameter resolver class for cXMLElement cXMLElement::getElementByPath().">
<polygon fill="white" stroke="black" points="199,-38.5 199,-57.5 339,-57.5 339,-38.5 199,-38.5"/>
<text text-anchor="middle" x="269" y="-45.5" font-family="Helvetica,sans-Serif" font-size="10.00">ModNameParamResolver</text>
</a>
</g>
</g>
<!-- Node0&#45;&gt;Node1 -->
<g id="edge1" class="edge">
<title>Node0&#45;&gt;Node1</title>
<path fill="none" stroke="midnightblue" d="M173.17,-38.29C181.8,-39.17 190.47,-40.06 198.85,-40.92"/>
<polygon fill="midnightblue" stroke="midnightblue" points="173.36,-34.79 163.05,-37.25 172.65,-41.75 173.36,-34.79"/>
</g>
<!-- Node2 -->
<g id="node3" class="node">
<title>Node2</title>
<g id="a_node3"><a xlink:href="classomnetpp_1_1StringMapParamResolver.html" target="_top" xlink:title="A parameter resolver class for cXMLElement::getElementByPath().">
<polygon fill="white" stroke="black" points="199,-0.5 199,-19.5 339,-19.5 339,-0.5 199,-0.5"/>
<text text-anchor="middle" x="269" y="-7.5" font-family="Helvetica,sans-Serif" font-size="10.00">StringMapParamResolver</text>
</a>
</g>
</g>
<!-- Node0&#45;&gt;Node2 -->
<g id="edge2" class="edge">
<title>Node0&#45;&gt;Node2</title>
<path fill="none" stroke="midnightblue" d="M173.17,-19.71C181.8,-18.83 190.47,-17.94 198.85,-17.08"/>
<polygon fill="midnightblue" stroke="midnightblue" points="172.65,-16.25 163.05,-20.75 173.36,-23.21 172.65,-16.25"/>
</g>
</g>
</svg>
