<?xml version="1.0" encoding="UTF-8" standalone="no"?>
<!DOCTYPE svg PUBLIC "-//W3C//DTD SVG 1.1//EN"
 "http://www.w3.org/Graphics/SVG/1.1/DTD/svg11.dtd">
<!-- Generated by graphviz version 2.43.0 (0)
 -->
<!-- Title: Graphical Class Hierarchy Pages: 1 -->
<svg width="353pt" height="142pt"
 viewBox="0.00 0.00 353.00 142.00" xmlns="http://www.w3.org/2000/svg" xmlns:xlink="http://www.w3.org/1999/xlink">
<g id="graph0" class="graph" transform="scale(1 1) rotate(0) translate(4 138)">
<title>Graphical Class Hierarchy</title>
<polygon fill="white" stroke="transparent" points="-4,4 -4,-138 349,-138 349,4 -4,4"/>
<!-- Node114 -->
<g id="node1" class="node">
<title>Node114</title>
<g id="a_node1"><a xlink:title="STL class.">
<polygon fill="white" stroke="#bfbfbf" points="0,-57.5 0,-76.5 65,-76.5 65,-57.5 0,-57.5"/>
<text text-anchor="middle" x="32.5" y="-64.5" font-family="Helvetica,sans-Serif" font-size="10.00">exception</text>
</a>
</g>
</g>
<!-- Node0 -->
<g id="node2" class="node">
<title>Node0</title>
<g id="a_node2"><a xlink:href="classomnetpp_1_1cException.html" target="_top" xlink:title="Exception class.">
<polygon fill="white" stroke="black" points="101,-57.5 101,-76.5 171,-76.5 171,-57.5 101,-57.5"/>
<text text-anchor="middle" x="136" y="-64.5" font-family="Helvetica,sans-Serif" font-size="10.00">cException</text>
</a>
</g>
</g>
<!-- Node114&#45;&gt;Node0 -->
<g id="edge1" class="edge">
<title>Node114&#45;&gt;Node0</title>
<path fill="none" stroke="midnightblue" d="M75.26,-67C83.83,-67 92.74,-67 100.99,-67"/>
<polygon fill="midnightblue" stroke="midnightblue" points="75.06,-63.5 65.06,-67 75.06,-70.5 75.06,-63.5"/>
</g>
<!-- Node1 -->
<g id="node3" class="node">
<title>Node1</title>
<g id="a_node3"><a xlink:href="classomnetpp_1_1cDeleteModuleException.html" target="_top" xlink:title="Thrown from deleteModule() when the active activity() module is about to be deleted,...">
<polygon fill="white" stroke="black" points="207,-114.5 207,-133.5 345,-133.5 345,-114.5 207,-114.5"/>
<text text-anchor="middle" x="276" y="-121.5" font-family="Helvetica,sans-Serif" font-size="10.00">cDeleteModuleException</text>
</a>
</g>
</g>
<!-- Node0&#45;&gt;Node1 -->
<g id="edge2" class="edge">
<title>Node0&#45;&gt;Node1</title>
<path fill="none" stroke="midnightblue" d="M161.25,-81.92C174.43,-89.57 191.22,-98.61 207,-105 215.86,-108.59 225.64,-111.76 234.94,-114.42"/>
<polygon fill="midnightblue" stroke="midnightblue" points="162.74,-78.74 152.35,-76.65 159.17,-84.76 162.74,-78.74"/>
</g>
<!-- Node2 -->
<g id="node4" class="node">
<title>Node2</title>
<g id="a_node4"><a xlink:href="classomnetpp_1_1cRuntimeError.html" target="_top" xlink:title="Thrown when the simulation kernel or other components detect a runtime error.">
<polygon fill="white" stroke="black" points="233,-76.5 233,-95.5 319,-95.5 319,-76.5 233,-76.5"/>
<text text-anchor="middle" x="276" y="-83.5" font-family="Helvetica,sans-Serif" font-size="10.00">cRuntimeError</text>
</a>
</g>
</g>
<!-- Node0&#45;&gt;Node2 -->
<g id="edge3" class="edge">
<title>Node0&#45;&gt;Node2</title>
<path fill="none" stroke="midnightblue" d="M181.11,-73.07C197.7,-75.36 216.5,-77.95 232.9,-80.2"/>
<polygon fill="midnightblue" stroke="midnightblue" points="181.5,-69.59 171.11,-71.7 180.54,-76.53 181.5,-69.59"/>
</g>
<!-- Node3 -->
<g id="node5" class="node">
<title>Node3</title>
<g id="a_node5"><a xlink:href="classomnetpp_1_1cStackCleanupException.html" target="_top" xlink:title="Used internally when deleting an activity() simple module.">
<polygon fill="white" stroke="black" points="207.5,-38.5 207.5,-57.5 344.5,-57.5 344.5,-38.5 207.5,-38.5"/>
<text text-anchor="middle" x="276" y="-45.5" font-family="Helvetica,sans-Serif" font-size="10.00">cStackCleanupException</text>
</a>
</g>
</g>
<!-- Node0&#45;&gt;Node3 -->
<g id="edge4" class="edge">
<title>Node0&#45;&gt;Node3</title>
<path fill="none" stroke="midnightblue" d="M181.03,-60.94C189.42,-59.78 198.38,-58.55 207.32,-57.32"/>
<polygon fill="midnightblue" stroke="midnightblue" points="180.54,-57.47 171.11,-62.3 181.5,-64.41 180.54,-57.47"/>
</g>
<!-- Node4 -->
<g id="node6" class="node">
<title>Node4</title>
<g id="a_node6"><a xlink:href="classomnetpp_1_1cTerminationException.html" target="_top" xlink:title="Thrown when the simulation is completed without error.">
<polygon fill="white" stroke="black" points="212,-0.5 212,-19.5 340,-19.5 340,-0.5 212,-0.5"/>
<text text-anchor="middle" x="276" y="-7.5" font-family="Helvetica,sans-Serif" font-size="10.00">cTerminationException</text>
</a>
</g>
</g>
<!-- Node0&#45;&gt;Node4 -->
<g id="edge5" class="edge">
<title>Node0&#45;&gt;Node4</title>
<path fill="none" stroke="midnightblue" d="M161.25,-52.08C174.43,-44.43 191.22,-35.39 207,-29 215.86,-25.41 225.64,-22.24 234.94,-19.58"/>
<polygon fill="midnightblue" stroke="midnightblue" points="159.17,-49.24 152.35,-57.35 162.74,-55.26 159.17,-49.24"/>
</g>
</g>
</svg>
