<?xml version="1.0" encoding="UTF-8" standalone="no"?>
<!DOCTYPE svg PUBLIC "-//W3C//DTD SVG 1.1//EN"
 "http://www.w3.org/Graphics/SVG/1.1/DTD/svg11.dtd">
<!-- Generated by graphviz version 2.43.0 (0)
 -->
<!-- Title: Graphical Class Hierarchy Pages: 1 -->
<svg width="243pt" height="66pt"
 viewBox="0.00 0.00 243.00 66.00" xmlns="http://www.w3.org/2000/svg" xmlns:xlink="http://www.w3.org/1999/xlink">
<g id="graph0" class="graph" transform="scale(1 1) rotate(0) translate(4 62)">
<title>Graphical Class Hierarchy</title>
<polygon fill="white" stroke="transparent" points="-4,4 -4,-62 239,-62 239,4 -4,4"/>
<!-- Node0 -->
<g id="node1" class="node">
<title>Node0</title>
<g id="a_node1"><a xlink:href="classomnetpp_1_1cTopology_1_1Link.html" target="_top" xlink:title="Supporting class for cTopology, represents a link in the graph.">
<polygon fill="white" stroke="black" points="0,-19.5 0,-38.5 91,-38.5 91,-19.5 0,-19.5"/>
<text text-anchor="middle" x="45.5" y="-26.5" font-family="Helvetica,sans-Serif" font-size="10.00">cTopology::Link</text>
</a>
</g>
</g>
<!-- Node1 -->
<g id="node2" class="node">
<title>Node1</title>
<g id="a_node2"><a xlink:href="classomnetpp_1_1cTopology_1_1LinkIn.html" target="_top" xlink:title="Supporting class for cTopology.">
<polygon fill="white" stroke="black" points="131,-38.5 131,-57.5 231,-57.5 231,-38.5 131,-38.5"/>
<text text-anchor="middle" x="181" y="-45.5" font-family="Helvetica,sans-Serif" font-size="10.00">cTopology::LinkIn</text>
</a>
</g>
</g>
<!-- Node0&#45;&gt;Node1 -->
<g id="edge1" class="edge">
<title>Node0&#45;&gt;Node1</title>
<path fill="none" stroke="midnightblue" d="M101.37,-36.81C111.17,-38.2 121.31,-39.65 130.94,-41.02"/>
<polygon fill="midnightblue" stroke="midnightblue" points="101.72,-33.32 91.32,-35.38 100.73,-40.25 101.72,-33.32"/>
</g>
<!-- Node2 -->
<g id="node3" class="node">
<title>Node2</title>
<g id="a_node3"><a xlink:href="classomnetpp_1_1cTopology_1_1LinkOut.html" target="_top" xlink:title="Supporting class for cTopology.">
<polygon fill="white" stroke="black" points="127,-0.5 127,-19.5 235,-19.5 235,-0.5 127,-0.5"/>
<text text-anchor="middle" x="181" y="-7.5" font-family="Helvetica,sans-Serif" font-size="10.00">cTopology::LinkOut</text>
</a>
</g>
</g>
<!-- Node0&#45;&gt;Node2 -->
<g id="edge2" class="edge">
<title>Node0&#45;&gt;Node2</title>
<path fill="none" stroke="midnightblue" d="M101.38,-21.19C109.76,-20 118.4,-18.77 126.74,-17.58"/>
<polygon fill="midnightblue" stroke="midnightblue" points="100.73,-17.75 91.32,-22.62 101.72,-24.68 100.73,-17.75"/>
</g>
</g>
</svg>
