<?xml version="1.0" encoding="UTF-8" standalone="no"?>
<!DOCTYPE svg PUBLIC "-//W3C//DTD SVG 1.1//EN"
 "http://www.w3.org/Graphics/SVG/1.1/DTD/svg11.dtd">
<!-- Generated by graphviz version 2.43.0 (0)
 -->
<!-- Title: astnode.h Pages: 1 -->
<svg width="304pt" height="140pt"
 viewBox="0.00 0.00 304.00 140.00" xmlns="http://www.w3.org/2000/svg" xmlns:xlink="http://www.w3.org/1999/xlink">
<g id="graph0" class="graph" transform="scale(1 1) rotate(0) translate(4 136)">
<title>astnode.h</title>
<polygon fill="white" stroke="transparent" points="-4,4 -4,-136 300,-136 300,4 -4,4"/>
<!-- Node1 -->
<g id="node1" class="node">
<title>Node1</title>
<g id="a_node1"><a xlink:title=" ">
<polygon fill="#bfbfbf" stroke="black" points="71.5,-112.5 71.5,-131.5 136.5,-131.5 136.5,-112.5 71.5,-112.5"/>
<text text-anchor="middle" x="104" y="-119.5" font-family="Helvetica,sans-Serif" font-size="10.00">astnode.h</text>
</a>
</g>
</g>
<!-- Node2 -->
<g id="node2" class="node">
<title>Node2</title>
<g id="a_node2"><a xlink:title=" ">
<polygon fill="white" stroke="#bfbfbf" points="0,-56.5 0,-75.5 44,-75.5 44,-56.5 0,-56.5"/>
<text text-anchor="middle" x="22" y="-63.5" font-family="Helvetica,sans-Serif" font-size="10.00">string</text>
</a>
</g>
</g>
<!-- Node1&#45;&gt;Node2 -->
<g id="edge1" class="edge">
<title>Node1&#45;&gt;Node2</title>
<path fill="none" stroke="midnightblue" d="M90.83,-112.32C78.15,-103.98 58.77,-91.21 43.79,-81.35"/>
<polygon fill="midnightblue" stroke="midnightblue" points="45.42,-78.23 35.14,-75.65 41.57,-84.08 45.42,-78.23"/>
</g>
<!-- Node3 -->
<g id="node3" class="node">
<title>Node3</title>
<g id="a_node3"><a xlink:href="nedxmldefs_8h.html" target="_top" xlink:title=" ">
<polygon fill="white" stroke="black" points="62.5,-56.5 62.5,-75.5 145.5,-75.5 145.5,-56.5 62.5,-56.5"/>
<text text-anchor="middle" x="104" y="-63.5" font-family="Helvetica,sans-Serif" font-size="10.00">nedxmldefs.h</text>
</a>
</g>
</g>
<!-- Node1&#45;&gt;Node3 -->
<g id="edge2" class="edge">
<title>Node1&#45;&gt;Node3</title>
<path fill="none" stroke="midnightblue" d="M104,-112.08C104,-105.01 104,-94.86 104,-85.99"/>
<polygon fill="midnightblue" stroke="midnightblue" points="107.5,-85.75 104,-75.75 100.5,-85.75 107.5,-85.75"/>
</g>
<!-- Node5 -->
<g id="node5" class="node">
<title>Node5</title>
<g id="a_node5"><a xlink:title=" ">
<polygon fill="white" stroke="#bfbfbf" points="164,-56.5 164,-75.5 296,-75.5 296,-56.5 164,-56.5"/>
<text text-anchor="middle" x="230" y="-63.5" font-family="Helvetica,sans-Serif" font-size="10.00">common/pooledstring.h</text>
</a>
</g>
</g>
<!-- Node1&#45;&gt;Node5 -->
<g id="edge4" class="edge">
<title>Node1&#45;&gt;Node5</title>
<path fill="none" stroke="midnightblue" d="M123.97,-112.44C144.61,-103.6 177.06,-89.69 200.63,-79.59"/>
<polygon fill="midnightblue" stroke="midnightblue" points="202.32,-82.67 210.13,-75.52 199.56,-76.24 202.32,-82.67"/>
</g>
<!-- Node4 -->
<g id="node4" class="node">
<title>Node4</title>
<g id="a_node4"><a xlink:title=" ">
<polygon fill="white" stroke="#bfbfbf" points="28,-0.5 28,-19.5 180,-19.5 180,-0.5 28,-0.5"/>
<text text-anchor="middle" x="104" y="-7.5" font-family="Helvetica,sans-Serif" font-size="10.00">omnetpp/platdep/platdefs.h</text>
</a>
</g>
</g>
<!-- Node3&#45;&gt;Node4 -->
<g id="edge3" class="edge">
<title>Node3&#45;&gt;Node4</title>
<path fill="none" stroke="midnightblue" d="M104,-56.08C104,-49.01 104,-38.86 104,-29.99"/>
<polygon fill="midnightblue" stroke="midnightblue" points="107.5,-29.75 104,-19.75 100.5,-29.75 107.5,-29.75"/>
</g>
</g>
</svg>
