<?xml version="1.0" encoding="UTF-8" standalone="no"?>
<!DOCTYPE svg PUBLIC "-//W3C//DTD SVG 1.1//EN"
 "http://www.w3.org/Graphics/SVG/1.1/DTD/svg11.dtd">
<!-- Generated by graphviz version 2.43.0 (0)
 -->
<!-- Title: astnode.h Pages: 1 -->
<svg width="447pt" height="140pt"
 viewBox="0.00 0.00 446.50 140.00" xmlns="http://www.w3.org/2000/svg" xmlns:xlink="http://www.w3.org/1999/xlink">
<g id="graph0" class="graph" transform="scale(1 1) rotate(0) translate(4 136)">
<title>astnode.h</title>
<polygon fill="white" stroke="transparent" points="-4,4 -4,-136 442.5,-136 442.5,4 -4,4"/>
<!-- Node1 -->
<g id="node1" class="node">
<title>Node1</title>
<g id="a_node1"><a xlink:title=" ">
<polygon fill="#bfbfbf" stroke="black" points="160.5,-112.5 160.5,-131.5 225.5,-131.5 225.5,-112.5 160.5,-112.5"/>
<text text-anchor="middle" x="193" y="-119.5" font-family="Helvetica,sans-Serif" font-size="10.00">astnode.h</text>
</a>
</g>
</g>
<!-- Node2 -->
<g id="node2" class="node">
<title>Node2</title>
<g id="a_node2"><a xlink:href="astbuilder_8h.html" target="_top" xlink:title=" ">
<polygon fill="white" stroke="black" points="0,-56.5 0,-75.5 74,-75.5 74,-56.5 0,-56.5"/>
<text text-anchor="middle" x="37" y="-63.5" font-family="Helvetica,sans-Serif" font-size="10.00">astbuilder.h</text>
</a>
</g>
</g>
<!-- Node1&#45;&gt;Node2 -->
<g id="edge1" class="edge">
<title>Node1&#45;&gt;Node2</title>
<path fill="none" stroke="midnightblue" d="M158.83,-109.17C129.46,-99 87.8,-84.59 61.6,-75.52"/>
<polygon fill="midnightblue" stroke="midnightblue" points="157.69,-112.48 168.28,-112.44 159.98,-105.86 157.69,-112.48"/>
</g>
<!-- Node3 -->
<g id="node3" class="node">
<title>Node3</title>
<g id="a_node3"><a xlink:href="yyutil_8h.html" target="_top" xlink:title=" ">
<polygon fill="white" stroke="black" points="92.5,-56.5 92.5,-75.5 145.5,-75.5 145.5,-56.5 92.5,-56.5"/>
<text text-anchor="middle" x="119" y="-63.5" font-family="Helvetica,sans-Serif" font-size="10.00">yyutil.h</text>
</a>
</g>
</g>
<!-- Node1&#45;&gt;Node3 -->
<g id="edge2" class="edge">
<title>Node1&#45;&gt;Node3</title>
<path fill="none" stroke="midnightblue" d="M172.97,-106.38C159.59,-96.62 142.44,-84.11 131.11,-75.83"/>
<polygon fill="midnightblue" stroke="midnightblue" points="170.97,-109.26 181.11,-112.32 175.1,-103.6 170.97,-109.26"/>
</g>
<!-- Node6 -->
<g id="node6" class="node">
<title>Node6</title>
<g id="a_node6"><a xlink:href="nedutil_8h.html" target="_top" xlink:title=" ">
<polygon fill="white" stroke="black" points="163.5,-56.5 163.5,-75.5 222.5,-75.5 222.5,-56.5 163.5,-56.5"/>
<text text-anchor="middle" x="193" y="-63.5" font-family="Helvetica,sans-Serif" font-size="10.00">nedutil.h</text>
</a>
</g>
</g>
<!-- Node1&#45;&gt;Node6 -->
<g id="edge5" class="edge">
<title>Node1&#45;&gt;Node6</title>
<path fill="none" stroke="midnightblue" d="M193,-101.8C193,-92.91 193,-82.78 193,-75.75"/>
<polygon fill="midnightblue" stroke="midnightblue" points="189.5,-102.08 193,-112.08 196.5,-102.08 189.5,-102.08"/>
</g>
<!-- Node7 -->
<g id="node7" class="node">
<title>Node7</title>
<g id="a_node7"><a xlink:href="xmlastparser_8h.html" target="_top" xlink:title=" ">
<polygon fill="white" stroke="black" points="240.5,-56.5 240.5,-75.5 329.5,-75.5 329.5,-56.5 240.5,-56.5"/>
<text text-anchor="middle" x="285" y="-63.5" font-family="Helvetica,sans-Serif" font-size="10.00">xmlastparser.h</text>
</a>
</g>
</g>
<!-- Node1&#45;&gt;Node7 -->
<g id="edge6" class="edge">
<title>Node1&#45;&gt;Node7</title>
<path fill="none" stroke="midnightblue" d="M216.55,-107.18C233.48,-97.24 255.78,-84.15 270.26,-75.65"/>
<polygon fill="midnightblue" stroke="midnightblue" points="214.63,-104.24 207.78,-112.32 218.18,-110.28 214.63,-104.24"/>
</g>
<!-- Node8 -->
<g id="node8" class="node">
<title>Node8</title>
<g id="a_node8"><a xlink:href="xmlgenerator_8h.html" target="_top" xlink:title=" ">
<polygon fill="white" stroke="black" points="347.5,-56.5 347.5,-75.5 438.5,-75.5 438.5,-56.5 347.5,-56.5"/>
<text text-anchor="middle" x="393" y="-63.5" font-family="Helvetica,sans-Serif" font-size="10.00">xmlgenerator.h</text>
</a>
</g>
</g>
<!-- Node1&#45;&gt;Node8 -->
<g id="edge7" class="edge">
<title>Node1&#45;&gt;Node8</title>
<path fill="none" stroke="midnightblue" d="M234.37,-109.83C272.14,-99.63 327.14,-84.78 361.46,-75.52"/>
<polygon fill="midnightblue" stroke="midnightblue" points="233.43,-106.46 224.69,-112.44 235.26,-113.22 233.43,-106.46"/>
</g>
<!-- Node4 -->
<g id="node4" class="node">
<title>Node4</title>
<g id="a_node4"><a xlink:href="msgyyutil_8h.html" target="_top" xlink:title=" ">
<polygon fill="white" stroke="black" points="36,-0.5 36,-19.5 110,-19.5 110,-0.5 36,-0.5"/>
<text text-anchor="middle" x="73" y="-7.5" font-family="Helvetica,sans-Serif" font-size="10.00">msgyyutil.h</text>
</a>
</g>
</g>
<!-- Node3&#45;&gt;Node4 -->
<g id="edge3" class="edge">
<title>Node3&#45;&gt;Node4</title>
<path fill="none" stroke="midnightblue" d="M104.89,-48.43C96.82,-38.97 87.04,-27.48 80.45,-19.75"/>
<polygon fill="midnightblue" stroke="midnightblue" points="102.25,-50.74 111.4,-56.08 107.58,-46.2 102.25,-50.74"/>
</g>
<!-- Node5 -->
<g id="node5" class="node">
<title>Node5</title>
<g id="a_node5"><a xlink:href="nedyyutil_8h.html" target="_top" xlink:title=" ">
<polygon fill="white" stroke="black" points="128.5,-0.5 128.5,-19.5 199.5,-19.5 199.5,-0.5 128.5,-0.5"/>
<text text-anchor="middle" x="164" y="-7.5" font-family="Helvetica,sans-Serif" font-size="10.00">nedyyutil.h</text>
</a>
</g>
</g>
<!-- Node3&#45;&gt;Node5 -->
<g id="edge4" class="edge">
<title>Node3&#45;&gt;Node5</title>
<path fill="none" stroke="midnightblue" d="M133.05,-48.14C140.89,-38.74 150.33,-27.4 156.71,-19.75"/>
<polygon fill="midnightblue" stroke="midnightblue" points="130.14,-46.16 126.43,-56.08 135.52,-50.64 130.14,-46.16"/>
</g>
</g>
</svg>
