<?xml version="1.0" encoding="UTF-8" standalone="no"?>
<!DOCTYPE svg PUBLIC "-//W3C//DTD SVG 1.1//EN"
 "http://www.w3.org/Graphics/SVG/1.1/DTD/svg11.dtd">
<!-- Generated by graphviz version 2.43.0 (0)
 -->
<!-- Title: MsgCompiler Pages: 1 -->
<svg width="453pt" height="162pt"
 viewBox="0.00 0.00 452.50 162.00" xmlns="http://www.w3.org/2000/svg" xmlns:xlink="http://www.w3.org/1999/xlink">
<g id="graph0" class="graph" transform="scale(1 1) rotate(0) translate(4 158)">
<title>MsgCompiler</title>
<polygon fill="white" stroke="transparent" points="-4,4 -4,-158 448.5,-158 448.5,4 -4,4"/>
<!-- Node1 -->
<g id="node1" class="node">
<title>Node1</title>
<g id="a_node1"><a xlink:title="Generates C++ code from a MSG file object tree.">
<polygon fill="#bfbfbf" stroke="black" points="174,-0.5 174,-19.5 255,-19.5 255,-0.5 174,-0.5"/>
<text text-anchor="middle" x="214.5" y="-7.5" font-family="Helvetica,sans-Serif" font-size="10.00">MsgCompiler</text>
</a>
</g>
</g>
<!-- Node2 -->
<g id="node2" class="node">
<title>Node2</title>
<g id="a_node2"><a xlink:href="classomnetpp_1_1nedxml_1_1MsgAnalyzer.html" target="_top" xlink:title="Part of the message compiler. Produces ClassInfo objects from the ASTNode tree. Assumes object tree h...">
<polygon fill="white" stroke="black" points="98.5,-67.5 98.5,-86.5 178.5,-86.5 178.5,-67.5 98.5,-67.5"/>
<text text-anchor="middle" x="138.5" y="-74.5" font-family="Helvetica,sans-Serif" font-size="10.00">MsgAnalyzer</text>
</a>
</g>
</g>
<!-- Node2&#45;&gt;Node1 -->
<g id="edge1" class="edge">
<title>Node2&#45;&gt;Node1</title>
<path fill="none" stroke="#9a32cd" stroke-dasharray="5,2" d="M143.15,-57.55C145.62,-50.74 149.25,-43.38 154.5,-38 162.64,-29.66 173.82,-23.68 184.32,-19.5"/>
<polygon fill="#9a32cd" stroke="#9a32cd" points="139.71,-56.85 140.19,-67.43 146.41,-58.86 139.71,-56.85"/>
<text text-anchor="middle" x="177.5" y="-41" font-family="Helvetica,sans-Serif" font-size="10.00"> analyzer</text>
</g>
<!-- Node3 -->
<g id="node3" class="node">
<title>Node3</title>
<g id="a_node3"><a xlink:href="structomnetpp_1_1nedxml_1_1MsgCompilerOptions.html" target="_top" xlink:title="Options for MsgCompiler.">
<polygon fill="white" stroke="black" points="111,-134.5 111,-153.5 230,-153.5 230,-134.5 111,-134.5"/>
<text text-anchor="middle" x="170.5" y="-141.5" font-family="Helvetica,sans-Serif" font-size="10.00">MsgCompilerOptions</text>
</a>
</g>
</g>
<!-- Node3&#45;&gt;Node1 -->
<g id="edge5" class="edge">
<title>Node3&#45;&gt;Node1</title>
<path fill="none" stroke="#9a32cd" stroke-dasharray="5,2" d="M181.12,-125.29C182.71,-122.25 184.24,-119.08 185.5,-116 199.61,-81.52 209.17,-37.93 212.84,-19.67"/>
<polygon fill="#9a32cd" stroke="#9a32cd" points="177.92,-123.84 176.05,-134.26 184.01,-127.28 177.92,-123.84"/>
<text text-anchor="middle" x="215" y="-74.5" font-family="Helvetica,sans-Serif" font-size="10.00"> opts</text>
</g>
<!-- Node3&#45;&gt;Node2 -->
<g id="edge2" class="edge">
<title>Node3&#45;&gt;Node2</title>
<path fill="none" stroke="#9a32cd" stroke-dasharray="5,2" d="M161.72,-125.16C155.55,-112.63 147.56,-96.41 142.75,-86.63"/>
<polygon fill="#9a32cd" stroke="#9a32cd" points="158.63,-126.81 166.18,-134.23 164.91,-123.72 158.63,-126.81"/>
<text text-anchor="middle" x="169" y="-108" font-family="Helvetica,sans-Serif" font-size="10.00"> opts</text>
</g>
<!-- Node4 -->
<g id="node4" class="node">
<title>Node4</title>
<g id="a_node4"><a xlink:href="classomnetpp_1_1nedxml_1_1MsgTypeTable.html" target="_top" xlink:title=" ">
<polygon fill="white" stroke="black" points="0,-134.5 0,-153.5 85,-153.5 85,-134.5 0,-134.5"/>
<text text-anchor="middle" x="42.5" y="-141.5" font-family="Helvetica,sans-Serif" font-size="10.00">MsgTypeTable</text>
</a>
</g>
</g>
<!-- Node4&#45;&gt;Node1 -->
<g id="edge6" class="edge">
<title>Node4&#45;&gt;Node1</title>
<path fill="none" stroke="#9a32cd" stroke-dasharray="5,2" d="M35.56,-124.84C30.47,-108.18 26.34,-83.62 38.5,-67 69.35,-24.81 132.27,-13.64 173.91,-11.1"/>
<polygon fill="#9a32cd" stroke="#9a32cd" points="32.32,-126.17 38.88,-134.49 38.94,-123.9 32.32,-126.17"/>
<text text-anchor="middle" x="64" y="-74.5" font-family="Helvetica,sans-Serif" font-size="10.00"> typeTable</text>
</g>
<!-- Node4&#45;&gt;Node2 -->
<g id="edge3" class="edge">
<title>Node4&#45;&gt;Node2</title>
<path fill="none" stroke="#9a32cd" stroke-dasharray="5,2" d="M63.88,-128.47C74.32,-121.39 87.06,-112.74 98.5,-105 107.66,-98.8 118.01,-91.82 125.88,-86.5"/>
<polygon fill="#9a32cd" stroke="#9a32cd" points="61.7,-125.72 55.39,-134.24 65.63,-131.51 61.7,-125.72"/>
<text text-anchor="middle" x="124" y="-108" font-family="Helvetica,sans-Serif" font-size="10.00"> typeTable</text>
</g>
<!-- Node5 -->
<g id="node5" class="node">
<title>Node5</title>
<g id="a_node5"><a xlink:href="classomnetpp_1_1nedxml_1_1ErrorStore.html" target="_top" xlink:title=" ">
<polygon fill="white" stroke="black" points="252,-134.5 252,-153.5 317,-153.5 317,-134.5 252,-134.5"/>
<text text-anchor="middle" x="284.5" y="-141.5" font-family="Helvetica,sans-Serif" font-size="10.00">ErrorStore</text>
</a>
</g>
</g>
<!-- Node5&#45;&gt;Node1 -->
<g id="edge9" class="edge">
<title>Node5&#45;&gt;Node1</title>
<path fill="none" stroke="#9a32cd" stroke-dasharray="5,2" d="M275.18,-125.42C259.95,-96.7 230.31,-40.82 219.02,-19.52"/>
<polygon fill="#9a32cd" stroke="#9a32cd" points="272.13,-127.14 279.91,-134.34 278.31,-123.86 272.13,-127.14"/>
<text text-anchor="middle" x="269.5" y="-74.5" font-family="Helvetica,sans-Serif" font-size="10.00"> errors</text>
</g>
<!-- Node5&#45;&gt;Node2 -->
<g id="edge4" class="edge">
<title>Node5&#45;&gt;Node2</title>
<path fill="none" stroke="#9a32cd" stroke-dasharray="5,2" d="M255.93,-130.28C227.02,-117.41 183.1,-97.85 157.97,-86.67"/>
<polygon fill="#9a32cd" stroke="#9a32cd" points="254.55,-133.5 265.11,-134.37 257.4,-127.1 254.55,-133.5"/>
<text text-anchor="middle" x="235.5" y="-108" font-family="Helvetica,sans-Serif" font-size="10.00"> errors</text>
</g>
<!-- Node6 -->
<g id="node6" class="node">
<title>Node6</title>
<g id="a_node6"><a xlink:href="classomnetpp_1_1nedxml_1_1MsgCodeGenerator.html" target="_top" xlink:title="Code generator part of the message compiler.">
<polygon fill="white" stroke="black" points="334.5,-67.5 334.5,-86.5 444.5,-86.5 444.5,-67.5 334.5,-67.5"/>
<text text-anchor="middle" x="389.5" y="-74.5" font-family="Helvetica,sans-Serif" font-size="10.00">MsgCodeGenerator</text>
</a>
</g>
</g>
<!-- Node5&#45;&gt;Node6 -->
<g id="edge8" class="edge">
<title>Node5&#45;&gt;Node6</title>
<path fill="none" stroke="#9a32cd" stroke-dasharray="5,2" d="M307.21,-128.94C328,-116.07 358.12,-97.43 375.56,-86.63"/>
<polygon fill="#9a32cd" stroke="#9a32cd" points="305.32,-125.99 298.66,-134.23 309.01,-131.95 305.32,-125.99"/>
<text text-anchor="middle" x="358.5" y="-108" font-family="Helvetica,sans-Serif" font-size="10.00"> errors</text>
</g>
<!-- Node6&#45;&gt;Node1 -->
<g id="edge7" class="edge">
<title>Node6&#45;&gt;Node1</title>
<path fill="none" stroke="#9a32cd" stroke-dasharray="5,2" d="M360.9,-63.33C343.1,-55.62 319.64,-45.8 298.5,-38 280.25,-31.27 259.43,-24.57 243.09,-19.53"/>
<polygon fill="#9a32cd" stroke="#9a32cd" points="359.6,-66.58 370.16,-67.36 362.4,-60.16 359.6,-66.58"/>
<text text-anchor="middle" x="348" y="-41" font-family="Helvetica,sans-Serif" font-size="10.00"> codegen</text>
</g>
</g>
</svg>
