<?xml version="1.0" encoding="UTF-8" standalone="no"?>
<!DOCTYPE svg PUBLIC "-//W3C//DTD SVG 1.1//EN"
 "http://www.w3.org/Graphics/SVG/1.1/DTD/svg11.dtd">
<!-- Generated by graphviz version 2.43.0 (0)
 -->
<!-- Title: NedResourceCache::CachedTypeNames Pages: 1 -->
<svg width="234pt" height="106pt"
 viewBox="0.00 0.00 233.50 106.00" xmlns="http://www.w3.org/2000/svg" xmlns:xlink="http://www.w3.org/1999/xlink">
<g id="graph0" class="graph" transform="scale(1 1) rotate(0) translate(4 102)">
<title>NedResourceCache::CachedTypeNames</title>
<polygon fill="white" stroke="transparent" points="-4,4 -4,-102 229.5,-102 229.5,4 -4,4"/>
<!-- Node1 -->
<g id="node1" class="node">
<title>Node1</title>
<g id="a_node1"><a xlink:title=" ">
<polygon fill="#bfbfbf" stroke="black" points="32.5,-0.5 32.5,-30.5 185.5,-30.5 185.5,-0.5 32.5,-0.5"/>
<text text-anchor="start" x="40.5" y="-18.5" font-family="Helvetica,sans-Serif" font-size="10.00">NedResourceCache::Cached</text>
<text text-anchor="middle" x="109" y="-7.5" font-family="Helvetica,sans-Serif" font-size="10.00">TypeNames</text>
</a>
</g>
</g>
<!-- Node2 -->
<g id="node2" class="node">
<title>Node2</title>
<g id="a_node2"><a xlink:href="classomnetpp_1_1nedxml_1_1NedResourceCache_1_1INedTypeNames.html" target="_top" xlink:title=" ">
<polygon fill="white" stroke="black" points="0,-78.5 0,-97.5 96,-97.5 96,-78.5 0,-78.5"/>
<text text-anchor="middle" x="48" y="-85.5" font-family="Helvetica,sans-Serif" font-size="10.00">INedTypeNames</text>
</a>
</g>
</g>
<!-- Node2&#45;&gt;Node1 -->
<g id="edge1" class="edge">
<title>Node2&#45;&gt;Node1</title>
<path fill="none" stroke="midnightblue" d="M62.07,-70.74C72.57,-58.6 86.8,-42.16 96.82,-30.58"/>
<polygon fill="midnightblue" stroke="midnightblue" points="59.38,-68.5 55.48,-78.36 64.67,-73.08 59.38,-68.5"/>
</g>
<!-- Node3 -->
<g id="node3" class="node">
<title>Node3</title>
<g id="a_node3"><a xlink:href="classomnetpp_1_1nedxml_1_1NedResourceCache.html" target="_top" xlink:title="Stores loaded NED files, and keeps track of components in them.">
<polygon fill="white" stroke="black" points="114.5,-78.5 114.5,-97.5 225.5,-97.5 225.5,-78.5 114.5,-78.5"/>
<text text-anchor="middle" x="170" y="-85.5" font-family="Helvetica,sans-Serif" font-size="10.00">NedResourceCache</text>
</a>
</g>
</g>
<!-- Node3&#45;&gt;Node1 -->
<g id="edge2" class="edge">
<title>Node3&#45;&gt;Node1</title>
<path fill="none" stroke="#9a32cd" stroke-dasharray="5,2" d="M155.93,-70.74C145.43,-58.6 131.2,-42.16 121.18,-30.58"/>
<polygon fill="#9a32cd" stroke="#9a32cd" points="153.33,-73.08 162.52,-78.36 158.62,-68.5 153.33,-73.08"/>
<text text-anchor="middle" x="149" y="-52" font-family="Helvetica,sans-Serif" font-size="10.00"> p</text>
</g>
</g>
</svg>
