<?xml version="1.0" encoding="UTF-8" standalone="no"?>
<!DOCTYPE svg PUBLIC "-//W3C//DTD SVG 1.1//EN"
 "http://www.w3.org/Graphics/SVG/1.1/DTD/svg11.dtd">
<!-- Generated by graphviz version 2.43.0 (0)
 -->
<!-- Title: MsgAnalyzer Pages: 1 -->
<svg width="313pt" height="95pt"
 viewBox="0.00 0.00 313.00 95.00" xmlns="http://www.w3.org/2000/svg" xmlns:xlink="http://www.w3.org/1999/xlink">
<g id="graph0" class="graph" transform="scale(1 1) rotate(0) translate(4 91)">
<title>MsgAnalyzer</title>
<polygon fill="white" stroke="transparent" points="-4,4 -4,-91 309,-91 309,4 -4,4"/>
<!-- Node1 -->
<g id="node1" class="node">
<title>Node1</title>
<g id="a_node1"><a xlink:title="Part of the message compiler. Produces ClassInfo objects from the ASTNode tree. Assumes object tree h...">
<polygon fill="#bfbfbf" stroke="black" points="139.5,-0.5 139.5,-19.5 219.5,-19.5 219.5,-0.5 139.5,-0.5"/>
<text text-anchor="middle" x="179.5" y="-7.5" font-family="Helvetica,sans-Serif" font-size="10.00">MsgAnalyzer</text>
</a>
</g>
</g>
<!-- Node2 -->
<g id="node2" class="node">
<title>Node2</title>
<g id="a_node2"><a xlink:href="structomnetpp_1_1nedxml_1_1MsgCompilerOptions.html" target="_top" xlink:title="Options for MsgCompiler.">
<polygon fill="white" stroke="black" points="0,-67.5 0,-86.5 119,-86.5 119,-67.5 0,-67.5"/>
<text text-anchor="middle" x="59.5" y="-74.5" font-family="Helvetica,sans-Serif" font-size="10.00">MsgCompilerOptions</text>
</a>
</g>
</g>
<!-- Node2&#45;&gt;Node1 -->
<g id="edge1" class="edge">
<title>Node2&#45;&gt;Node1</title>
<path fill="none" stroke="#9a32cd" stroke-dasharray="5,2" d="M84.5,-62.46C108.29,-49.57 143.37,-30.57 163.57,-19.63"/>
<polygon fill="#9a32cd" stroke="#9a32cd" points="82.81,-59.39 75.68,-67.23 86.14,-65.55 82.81,-59.39"/>
<text text-anchor="middle" x="140" y="-41" font-family="Helvetica,sans-Serif" font-size="10.00"> opts</text>
</g>
<!-- Node3 -->
<g id="node3" class="node">
<title>Node3</title>
<g id="a_node3"><a xlink:href="classomnetpp_1_1nedxml_1_1MsgTypeTable.html" target="_top" xlink:title=" ">
<polygon fill="white" stroke="black" points="137,-67.5 137,-86.5 222,-86.5 222,-67.5 137,-67.5"/>
<text text-anchor="middle" x="179.5" y="-74.5" font-family="Helvetica,sans-Serif" font-size="10.00">MsgTypeTable</text>
</a>
</g>
</g>
<!-- Node3&#45;&gt;Node1 -->
<g id="edge2" class="edge">
<title>Node3&#45;&gt;Node1</title>
<path fill="none" stroke="#9a32cd" stroke-dasharray="5,2" d="M179.5,-57.04C179.5,-44.67 179.5,-29.12 179.5,-19.63"/>
<polygon fill="#9a32cd" stroke="#9a32cd" points="176,-57.23 179.5,-67.23 183,-57.23 176,-57.23"/>
<text text-anchor="middle" x="205" y="-41" font-family="Helvetica,sans-Serif" font-size="10.00"> typeTable</text>
</g>
<!-- Node4 -->
<g id="node4" class="node">
<title>Node4</title>
<g id="a_node4"><a xlink:href="classomnetpp_1_1nedxml_1_1ErrorStore.html" target="_top" xlink:title=" ">
<polygon fill="white" stroke="black" points="240,-67.5 240,-86.5 305,-86.5 305,-67.5 240,-67.5"/>
<text text-anchor="middle" x="272.5" y="-74.5" font-family="Helvetica,sans-Serif" font-size="10.00">ErrorStore</text>
</a>
</g>
</g>
<!-- Node4&#45;&gt;Node1 -->
<g id="edge3" class="edge">
<title>Node4&#45;&gt;Node1</title>
<path fill="none" stroke="#9a32cd" stroke-dasharray="5,2" d="M258.3,-59.52C251.57,-52.34 243.12,-44.16 234.5,-38 224.2,-30.64 211.6,-24.28 201.05,-19.59"/>
<polygon fill="#9a32cd" stroke="#9a32cd" points="256.04,-62.24 265.33,-67.33 261.24,-57.55 256.04,-62.24"/>
<text text-anchor="middle" x="262.5" y="-41" font-family="Helvetica,sans-Serif" font-size="10.00"> errors</text>
</g>
</g>
</svg>
