<?xml version="1.0" encoding="UTF-8" standalone="no"?>
<!DOCTYPE svg PUBLIC "-//W3C//DTD SVG 1.1//EN"
 "http://www.w3.org/Graphics/SVG/1.1/DTD/svg11.dtd">
<!-- Generated by graphviz version 2.43.0 (0)
 -->
<!-- Title: NedParser Pages: 1 -->
<svg width="192pt" height="162pt"
 viewBox="0.00 0.00 191.50 162.00" xmlns="http://www.w3.org/2000/svg" xmlns:xlink="http://www.w3.org/1999/xlink">
<g id="graph0" class="graph" transform="scale(1 1) rotate(0) translate(4 158)">
<title>NedParser</title>
<polygon fill="white" stroke="transparent" points="-4,4 -4,-158 187.5,-158 187.5,4 -4,4"/>
<!-- Node1 -->
<g id="node1" class="node">
<title>Node1</title>
<g id="a_node1"><a xlink:title="Parses NED files into an AST.">
<polygon fill="#bfbfbf" stroke="black" points="67,-0.5 67,-19.5 133,-19.5 133,-0.5 67,-0.5"/>
<text text-anchor="middle" x="100" y="-7.5" font-family="Helvetica,sans-Serif" font-size="10.00">NedParser</text>
</a>
</g>
</g>
<!-- Node2 -->
<g id="node2" class="node">
<title>Node2</title>
<g id="a_node2"><a xlink:href="structomnetpp_1_1nedxml_1_1ParseContext.html" target="_top" xlink:title=" ">
<polygon fill="white" stroke="black" points="59.5,-67.5 59.5,-86.5 140.5,-86.5 140.5,-67.5 59.5,-67.5"/>
<text text-anchor="middle" x="100" y="-74.5" font-family="Helvetica,sans-Serif" font-size="10.00">ParseContext</text>
</a>
</g>
</g>
<!-- Node2&#45;&gt;Node1 -->
<g id="edge1" class="edge">
<title>Node2&#45;&gt;Node1</title>
<path fill="none" stroke="#9a32cd" stroke-dasharray="5,2" d="M100,-57.04C100,-44.67 100,-29.12 100,-19.63"/>
<polygon fill="#9a32cd" stroke="#9a32cd" points="96.5,-57.23 100,-67.23 103.5,-57.23 96.5,-57.23"/>
<text text-anchor="middle" x="108" y="-41" font-family="Helvetica,sans-Serif" font-size="10.00"> np</text>
</g>
<!-- Node3 -->
<g id="node3" class="node">
<title>Node3</title>
<g id="a_node3"><a xlink:href="classomnetpp_1_1nedxml_1_1SourceDocument.html" target="_top" xlink:title="Stores the full text of a NED/MSG file.">
<polygon fill="white" stroke="black" points="0,-134.5 0,-153.5 100,-153.5 100,-134.5 0,-134.5"/>
<text text-anchor="middle" x="50" y="-141.5" font-family="Helvetica,sans-Serif" font-size="10.00">SourceDocument</text>
</a>
</g>
</g>
<!-- Node3&#45;&gt;Node2 -->
<g id="edge2" class="edge">
<title>Node3&#45;&gt;Node2</title>
<path fill="none" stroke="#9a32cd" stroke-dasharray="5,2" d="M62.87,-126.27C72.62,-113.6 85.61,-96.7 93.36,-86.63"/>
<polygon fill="#9a32cd" stroke="#9a32cd" points="60.07,-124.17 56.74,-134.23 65.61,-128.44 60.07,-124.17"/>
<text text-anchor="middle" x="96" y="-108" font-family="Helvetica,sans-Serif" font-size="10.00"> source</text>
</g>
<!-- Node4 -->
<g id="node4" class="node">
<title>Node4</title>
<g id="a_node4"><a xlink:href="classomnetpp_1_1nedxml_1_1ErrorStore.html" target="_top" xlink:title=" ">
<polygon fill="white" stroke="black" points="118.5,-134.5 118.5,-153.5 183.5,-153.5 183.5,-134.5 118.5,-134.5"/>
<text text-anchor="middle" x="151" y="-141.5" font-family="Helvetica,sans-Serif" font-size="10.00">ErrorStore</text>
</a>
</g>
</g>
<!-- Node4&#45;&gt;Node2 -->
<g id="edge3" class="edge">
<title>Node4&#45;&gt;Node2</title>
<path fill="none" stroke="#9a32cd" stroke-dasharray="5,2" d="M137.87,-126.27C127.93,-113.6 114.67,-96.7 106.77,-86.63"/>
<polygon fill="#9a32cd" stroke="#9a32cd" points="135.2,-128.53 144.12,-134.23 140.7,-124.21 135.2,-128.53"/>
<text text-anchor="middle" x="144" y="-108" font-family="Helvetica,sans-Serif" font-size="10.00"> errors</text>
</g>
</g>
</svg>
