<?xml version="1.0" encoding="UTF-8" standalone="no"?>
<!DOCTYPE svg PUBLIC "-//W3C//DTD SVG 1.1//EN"
 "http://www.w3.org/Graphics/SVG/1.1/DTD/svg11.dtd">
<!-- Generated by graphviz version 2.43.0 (0)
 -->
<!-- Title: NedTypeInfo Pages: 1 -->
<svg width="198pt" height="95pt"
 viewBox="0.00 0.00 198.00 95.00" xmlns="http://www.w3.org/2000/svg" xmlns:xlink="http://www.w3.org/1999/xlink">
<g id="graph0" class="graph" transform="scale(1 1) rotate(0) translate(4 91)">
<title>NedTypeInfo</title>
<polygon fill="white" stroke="transparent" points="-4,4 -4,-91 194,-91 194,4 -4,4"/>
<!-- Node1 -->
<g id="node1" class="node">
<title>Node1</title>
<g id="a_node1"><a xlink:title="Stores information on a NED type.">
<polygon fill="#bfbfbf" stroke="black" points="69,-0.5 69,-19.5 146,-19.5 146,-0.5 69,-0.5"/>
<text text-anchor="middle" x="107.5" y="-7.5" font-family="Helvetica,sans-Serif" font-size="10.00">NedTypeInfo</text>
</a>
</g>
</g>
<!-- Node2 -->
<g id="node2" class="node">
<title>Node2</title>
<g id="a_node2"><a xlink:href="classomnetpp_1_1nedxml_1_1NedResourceCache.html" target="_top" xlink:title="Stores loaded NED files, and keeps track of components in them.">
<polygon fill="white" stroke="black" points="0,-67.5 0,-86.5 111,-86.5 111,-67.5 0,-67.5"/>
<text text-anchor="middle" x="55.5" y="-74.5" font-family="Helvetica,sans-Serif" font-size="10.00">NedResourceCache</text>
</a>
</g>
</g>
<!-- Node2&#45;&gt;Node1 -->
<g id="edge1" class="edge">
<title>Node2&#45;&gt;Node1</title>
<path fill="none" stroke="#9a32cd" stroke-dasharray="5,2" d="M68.88,-59.27C79.02,-46.6 92.54,-29.7 100.6,-19.63"/>
<polygon fill="#9a32cd" stroke="#9a32cd" points="66.03,-57.24 62.51,-67.23 71.49,-61.61 66.03,-57.24"/>
<text text-anchor="middle" x="107" y="-41" font-family="Helvetica,sans-Serif" font-size="10.00"> resolver</text>
</g>
<!-- Node3 -->
<g id="node3" class="node">
<title>Node3</title>
<g id="a_node3"><a xlink:href="classomnetpp_1_1nedxml_1_1ASTNode.html" target="_top" xlink:title=" ">
<polygon fill="white" stroke="black" points="129,-67.5 129,-86.5 190,-86.5 190,-67.5 129,-67.5"/>
<text text-anchor="middle" x="159.5" y="-74.5" font-family="Helvetica,sans-Serif" font-size="10.00">ASTNode</text>
</a>
</g>
</g>
<!-- Node3&#45;&gt;Node1 -->
<g id="edge2" class="edge">
<title>Node3&#45;&gt;Node1</title>
<path fill="none" stroke="#9a32cd" stroke-dasharray="5,2" d="M148.11,-58.98C143.46,-52.3 137.9,-44.65 132.5,-38 127.34,-31.65 121.09,-24.9 116.13,-19.74"/>
<polygon fill="#9a32cd" stroke="#9a32cd" points="145.27,-61.03 153.8,-67.32 151.05,-57.08 145.27,-61.03"/>
<text text-anchor="middle" x="151" y="-41" font-family="Helvetica,sans-Serif" font-size="10.00"> tree</text>
</g>
</g>
</svg>
