<?xml version="1.0" encoding="UTF-8" standalone="no"?>
<!DOCTYPE svg PUBLIC "-//W3C//DTD SVG 1.1//EN"
 "http://www.w3.org/Graphics/SVG/1.1/DTD/svg11.dtd">
<!-- Generated by graphviz version 2.43.0 (0)
 -->
<!-- Title: errorstore.h Pages: 1 -->
<svg width="688pt" height="140pt"
 viewBox="0.00 0.00 687.50 140.00" xmlns="http://www.w3.org/2000/svg" xmlns:xlink="http://www.w3.org/1999/xlink">
<g id="graph0" class="graph" transform="scale(1 1) rotate(0) translate(4 136)">
<title>errorstore.h</title>
<polygon fill="white" stroke="transparent" points="-4,4 -4,-136 683.5,-136 683.5,4 -4,4"/>
<!-- Node1 -->
<g id="node1" class="node">
<title>Node1</title>
<g id="a_node1"><a xlink:title=" ">
<polygon fill="#bfbfbf" stroke="black" points="257,-112.5 257,-131.5 331,-131.5 331,-112.5 257,-112.5"/>
<text text-anchor="middle" x="294" y="-119.5" font-family="Helvetica,sans-Serif" font-size="10.00">errorstore.h</text>
</a>
</g>
</g>
<!-- Node2 -->
<g id="node2" class="node">
<title>Node2</title>
<g id="a_node2"><a xlink:href="astbuilder_8h.html" target="_top" xlink:title=" ">
<polygon fill="white" stroke="black" points="0,-56.5 0,-75.5 74,-75.5 74,-56.5 0,-56.5"/>
<text text-anchor="middle" x="37" y="-63.5" font-family="Helvetica,sans-Serif" font-size="10.00">astbuilder.h</text>
</a>
</g>
</g>
<!-- Node1&#45;&gt;Node2 -->
<g id="edge1" class="edge">
<title>Node1&#45;&gt;Node2</title>
<path fill="none" stroke="midnightblue" d="M247.04,-111.13C197.28,-100.68 119.73,-84.38 74.08,-74.79"/>
<polygon fill="midnightblue" stroke="midnightblue" points="246.4,-114.57 256.9,-113.21 247.84,-107.72 246.4,-114.57"/>
</g>
<!-- Node3 -->
<g id="node3" class="node">
<title>Node3</title>
<g id="a_node3"><a xlink:href="msganalyzer_8h.html" target="_top" xlink:title=" ">
<polygon fill="white" stroke="black" points="92,-56.5 92,-75.5 180,-75.5 180,-56.5 92,-56.5"/>
<text text-anchor="middle" x="136" y="-63.5" font-family="Helvetica,sans-Serif" font-size="10.00">msganalyzer.h</text>
</a>
</g>
</g>
<!-- Node1&#45;&gt;Node3 -->
<g id="edge2" class="edge">
<title>Node1&#45;&gt;Node3</title>
<path fill="none" stroke="midnightblue" d="M259.39,-109.17C229.64,-99 187.45,-84.59 160.92,-75.52"/>
<polygon fill="midnightblue" stroke="midnightblue" points="258.37,-112.52 268.96,-112.44 260.63,-105.9 258.37,-112.52"/>
</g>
<!-- Node4 -->
<g id="node4" class="node">
<title>Node4</title>
<g id="a_node4"><a xlink:href="msgcompiler_8h.html" target="_top" xlink:title=" ">
<polygon fill="white" stroke="black" points="163.5,-0.5 163.5,-19.5 252.5,-19.5 252.5,-0.5 163.5,-0.5"/>
<text text-anchor="middle" x="208" y="-7.5" font-family="Helvetica,sans-Serif" font-size="10.00">msgcompiler.h</text>
</a>
</g>
</g>
<!-- Node1&#45;&gt;Node4 -->
<g id="edge6" class="edge">
<title>Node1&#45;&gt;Node4</title>
<path fill="none" stroke="midnightblue" d="M265.31,-107.62C251.92,-100.06 236.82,-89.41 227,-76 214.36,-58.73 210.09,-33.16 208.68,-19.83"/>
<polygon fill="midnightblue" stroke="midnightblue" points="263.74,-110.75 274.21,-112.36 267.03,-104.57 263.74,-110.75"/>
</g>
<!-- Node5 -->
<g id="node5" class="node">
<title>Node5</title>
<g id="a_node5"><a xlink:href="msgcodegenerator_8h.html" target="_top" xlink:title=" ">
<polygon fill="white" stroke="black" points="236,-56.5 236,-75.5 352,-75.5 352,-56.5 236,-56.5"/>
<text text-anchor="middle" x="294" y="-63.5" font-family="Helvetica,sans-Serif" font-size="10.00">msgcodegenerator.h</text>
</a>
</g>
</g>
<!-- Node1&#45;&gt;Node5 -->
<g id="edge4" class="edge">
<title>Node1&#45;&gt;Node5</title>
<path fill="none" stroke="midnightblue" d="M294,-101.8C294,-92.91 294,-82.78 294,-75.75"/>
<polygon fill="midnightblue" stroke="midnightblue" points="290.5,-102.08 294,-112.08 297.5,-102.08 290.5,-102.08"/>
</g>
<!-- Node6 -->
<g id="node6" class="node">
<title>Node6</title>
<g id="a_node6"><a xlink:href="msggenerator_8h.html" target="_top" xlink:title=" ">
<polygon fill="white" stroke="black" points="370.5,-56.5 370.5,-75.5 463.5,-75.5 463.5,-56.5 370.5,-56.5"/>
<text text-anchor="middle" x="417" y="-63.5" font-family="Helvetica,sans-Serif" font-size="10.00">msggenerator.h</text>
</a>
</g>
</g>
<!-- Node1&#45;&gt;Node6 -->
<g id="edge7" class="edge">
<title>Node1&#45;&gt;Node6</title>
<path fill="none" stroke="midnightblue" d="M322.77,-108.37C345.81,-98.26 377.48,-84.35 397.6,-75.52"/>
<polygon fill="midnightblue" stroke="midnightblue" points="321.24,-105.22 313.49,-112.44 324.05,-111.63 321.24,-105.22"/>
</g>
<!-- Node7 -->
<g id="node7" class="node">
<title>Node7</title>
<g id="a_node7"><a xlink:href="nedgenerator_8h.html" target="_top" xlink:title=" ">
<polygon fill="white" stroke="black" points="482,-56.5 482,-75.5 572,-75.5 572,-56.5 482,-56.5"/>
<text text-anchor="middle" x="527" y="-63.5" font-family="Helvetica,sans-Serif" font-size="10.00">nedgenerator.h</text>
</a>
</g>
</g>
<!-- Node1&#45;&gt;Node7 -->
<g id="edge8" class="edge">
<title>Node1&#45;&gt;Node7</title>
<path fill="none" stroke="midnightblue" d="M340.8,-110.15C384.83,-99.95 449.85,-84.88 490.25,-75.52"/>
<polygon fill="midnightblue" stroke="midnightblue" points="339.87,-106.78 330.92,-112.44 341.45,-113.6 339.87,-106.78"/>
</g>
<!-- Node8 -->
<g id="node8" class="node">
<title>Node8</title>
<g id="a_node8"><a xlink:href="xmlastparser_8h.html" target="_top" xlink:title=" ">
<polygon fill="white" stroke="black" points="590.5,-56.5 590.5,-75.5 679.5,-75.5 679.5,-56.5 590.5,-56.5"/>
<text text-anchor="middle" x="635" y="-63.5" font-family="Helvetica,sans-Serif" font-size="10.00">xmlastparser.h</text>
</a>
</g>
</g>
<!-- Node1&#45;&gt;Node8 -->
<g id="edge9" class="edge">
<title>Node1&#45;&gt;Node8</title>
<path fill="none" stroke="midnightblue" d="M341.3,-113.73C398.21,-104.94 496.63,-89.64 581,-76 584,-75.51 587.1,-75.01 590.22,-74.5"/>
<polygon fill="midnightblue" stroke="midnightblue" points="340.52,-110.31 331.17,-115.29 341.59,-117.22 340.52,-110.31"/>
</g>
<!-- Node3&#45;&gt;Node4 -->
<g id="edge3" class="edge">
<title>Node3&#45;&gt;Node4</title>
<path fill="none" stroke="midnightblue" d="M155.87,-50.1C168.82,-40.38 185.3,-28.03 196.22,-19.83"/>
<polygon fill="midnightblue" stroke="midnightblue" points="153.47,-47.52 147.57,-56.32 157.67,-53.12 153.47,-47.52"/>
</g>
<!-- Node5&#45;&gt;Node4 -->
<g id="edge5" class="edge">
<title>Node5&#45;&gt;Node4</title>
<path fill="none" stroke="midnightblue" d="M271.55,-50.9C255.78,-41 235.19,-28.07 221.78,-19.65"/>
<polygon fill="midnightblue" stroke="midnightblue" points="269.85,-53.97 280.18,-56.32 273.57,-48.04 269.85,-53.97"/>
</g>
</g>
</svg>
