<?xml version="1.0" encoding="UTF-8" standalone="no"?>
<!DOCTYPE svg PUBLIC "-//W3C//DTD SVG 1.1//EN"
 "http://www.w3.org/Graphics/SVG/1.1/DTD/svg11.dtd">
<!-- Generated by graphviz version 2.43.0 (0)
 -->
<!-- Title: exception.h Pages: 1 -->
<svg width="354pt" height="140pt"
 viewBox="0.00 0.00 354.00 140.00" xmlns="http://www.w3.org/2000/svg" xmlns:xlink="http://www.w3.org/1999/xlink">
<g id="graph0" class="graph" transform="scale(1 1) rotate(0) translate(4 136)">
<title>exception.h</title>
<polygon fill="white" stroke="transparent" points="-4,4 -4,-136 350,-136 350,4 -4,4"/>
<!-- Node1 -->
<g id="node1" class="node">
<title>Node1</title>
<g id="a_node1"><a xlink:title=" ">
<polygon fill="#bfbfbf" stroke="black" points="99,-112.5 99,-131.5 173,-131.5 173,-112.5 99,-112.5"/>
<text text-anchor="middle" x="136" y="-119.5" font-family="Helvetica,sans-Serif" font-size="10.00">exception.h</text>
</a>
</g>
</g>
<!-- Node2 -->
<g id="node2" class="node">
<title>Node2</title>
<g id="a_node2"><a xlink:title=" ">
<polygon fill="white" stroke="#bfbfbf" points="0,-56.5 0,-75.5 44,-75.5 44,-56.5 0,-56.5"/>
<text text-anchor="middle" x="22" y="-63.5" font-family="Helvetica,sans-Serif" font-size="10.00">string</text>
</a>
</g>
</g>
<!-- Node1&#45;&gt;Node2 -->
<g id="edge1" class="edge">
<title>Node1&#45;&gt;Node2</title>
<path fill="none" stroke="midnightblue" d="M117.94,-112.44C99.43,-103.68 70.42,-89.94 49.14,-79.86"/>
<polygon fill="midnightblue" stroke="midnightblue" points="50.51,-76.63 39.98,-75.52 47.52,-82.96 50.51,-76.63"/>
</g>
<!-- Node3 -->
<g id="node3" class="node">
<title>Node3</title>
<g id="a_node3"><a xlink:title=" ">
<polygon fill="white" stroke="#bfbfbf" points="62.5,-56.5 62.5,-75.5 127.5,-75.5 127.5,-56.5 62.5,-56.5"/>
<text text-anchor="middle" x="95" y="-63.5" font-family="Helvetica,sans-Serif" font-size="10.00">exception</text>
</a>
</g>
</g>
<!-- Node1&#45;&gt;Node3 -->
<g id="edge2" class="edge">
<title>Node1&#45;&gt;Node3</title>
<path fill="none" stroke="midnightblue" d="M129.23,-112.08C123.44,-104.46 114.94,-93.26 107.86,-83.94"/>
<polygon fill="midnightblue" stroke="midnightblue" points="110.48,-81.6 101.64,-75.75 104.9,-85.83 110.48,-81.6"/>
</g>
<!-- Node4 -->
<g id="node4" class="node">
<title>Node4</title>
<g id="a_node4"><a xlink:title=" ">
<polygon fill="white" stroke="#bfbfbf" points="145.5,-56.5 145.5,-75.5 210.5,-75.5 210.5,-56.5 145.5,-56.5"/>
<text text-anchor="middle" x="178" y="-63.5" font-family="Helvetica,sans-Serif" font-size="10.00">stdexcept</text>
</a>
</g>
</g>
<!-- Node1&#45;&gt;Node4 -->
<g id="edge3" class="edge">
<title>Node1&#45;&gt;Node4</title>
<path fill="none" stroke="midnightblue" d="M142.94,-112.08C148.93,-104.38 157.75,-93.03 165.05,-83.65"/>
<polygon fill="midnightblue" stroke="midnightblue" points="167.82,-85.79 171.19,-75.75 162.29,-81.5 167.82,-85.79"/>
</g>
<!-- Node5 -->
<g id="node5" class="node">
<title>Node5</title>
<g id="a_node5"><a xlink:href="nedxmldefs_8h.html" target="_top" xlink:title=" ">
<polygon fill="white" stroke="black" points="228.5,-56.5 228.5,-75.5 311.5,-75.5 311.5,-56.5 228.5,-56.5"/>
<text text-anchor="middle" x="270" y="-63.5" font-family="Helvetica,sans-Serif" font-size="10.00">nedxmldefs.h</text>
</a>
</g>
</g>
<!-- Node1&#45;&gt;Node5 -->
<g id="edge4" class="edge">
<title>Node1&#45;&gt;Node5</title>
<path fill="none" stroke="midnightblue" d="M157.23,-112.44C179.38,-103.52 214.32,-89.44 239.44,-79.32"/>
<polygon fill="midnightblue" stroke="midnightblue" points="240.9,-82.5 248.87,-75.52 238.28,-76.01 240.9,-82.5"/>
</g>
<!-- Node6 -->
<g id="node6" class="node">
<title>Node6</title>
<g id="a_node6"><a xlink:title=" ">
<polygon fill="white" stroke="#bfbfbf" points="194,-0.5 194,-19.5 346,-19.5 346,-0.5 194,-0.5"/>
<text text-anchor="middle" x="270" y="-7.5" font-family="Helvetica,sans-Serif" font-size="10.00">omnetpp/platdep/platdefs.h</text>
</a>
</g>
</g>
<!-- Node5&#45;&gt;Node6 -->
<g id="edge5" class="edge">
<title>Node5&#45;&gt;Node6</title>
<path fill="none" stroke="midnightblue" d="M270,-56.08C270,-49.01 270,-38.86 270,-29.99"/>
<polygon fill="midnightblue" stroke="midnightblue" points="273.5,-29.75 270,-19.75 266.5,-29.75 273.5,-29.75"/>
</g>
</g>
</svg>
