<?xml version="1.0" encoding="UTF-8" standalone="no"?>
<!DOCTYPE svg PUBLIC "-//W3C//DTD SVG 1.1//EN"
 "http://www.w3.org/Graphics/SVG/1.1/DTD/svg11.dtd">
<!-- Generated by graphviz version 2.43.0 (0)
 -->
<!-- Title: Graphical Class Hierarchy Pages: 1 -->
<svg width="261pt" height="66pt"
 viewBox="0.00 0.00 261.00 66.00" xmlns="http://www.w3.org/2000/svg" xmlns:xlink="http://www.w3.org/1999/xlink">
<g id="graph0" class="graph" transform="scale(1 1) rotate(0) translate(4 62)">
<title>Graphical Class Hierarchy</title>
<polygon fill="white" stroke="transparent" points="-4,4 -4,-62 257,-62 257,4 -4,4"/>
<!-- Node11 -->
<g id="node1" class="node">
<title>Node11</title>
<g id="a_node1"><a xlink:title=" ">
<polygon fill="white" stroke="#bfbfbf" points="0,-19.5 0,-38.5 104,-38.5 104,-19.5 0,-19.5"/>
<text text-anchor="middle" x="52" y="-26.5" font-family="Helvetica,sans-Serif" font-size="10.00">NedValidatorBase</text>
</a>
</g>
</g>
<!-- Node0 -->
<g id="node2" class="node">
<title>Node0</title>
<g id="a_node2"><a xlink:href="classomnetpp_1_1nedxml_1_1NedCrossValidator.html" target="_top" xlink:title="Performs cross validation. Should be called after tree passed DTD validation and syntax validation.">
<polygon fill="white" stroke="black" points="143,-38.5 143,-57.5 250,-57.5 250,-38.5 143,-38.5"/>
<text text-anchor="middle" x="196.5" y="-45.5" font-family="Helvetica,sans-Serif" font-size="10.00">NedCrossValidator</text>
</a>
</g>
</g>
<!-- Node11&#45;&gt;Node0 -->
<g id="edge1" class="edge">
<title>Node11&#45;&gt;Node0</title>
<path fill="none" stroke="midnightblue" d="M113.96,-37.13C123.59,-38.41 133.47,-39.73 142.89,-40.99"/>
<polygon fill="midnightblue" stroke="midnightblue" points="114.42,-33.66 104.04,-35.81 113.49,-40.6 114.42,-33.66"/>
</g>
<!-- Node13 -->
<g id="node3" class="node">
<title>Node13</title>
<g id="a_node3"><a xlink:href="classomnetpp_1_1nedxml_1_1NedSyntaxValidator.html" target="_top" xlink:title="Performs structural validation of components.">
<polygon fill="white" stroke="black" points="140,-0.5 140,-19.5 253,-19.5 253,-0.5 140,-0.5"/>
<text text-anchor="middle" x="196.5" y="-7.5" font-family="Helvetica,sans-Serif" font-size="10.00">NedSyntaxValidator</text>
</a>
</g>
</g>
<!-- Node11&#45;&gt;Node13 -->
<g id="edge2" class="edge">
<title>Node11&#45;&gt;Node13</title>
<path fill="none" stroke="midnightblue" d="M114.04,-20.86C122.66,-19.71 131.48,-18.54 139.99,-17.4"/>
<polygon fill="midnightblue" stroke="midnightblue" points="113.49,-17.4 104.04,-22.19 114.42,-24.34 113.49,-17.4"/>
</g>
</g>
</svg>
