<?xml version="1.0" encoding="UTF-8" standalone="no"?>
<!DOCTYPE svg PUBLIC "-//W3C//DTD SVG 1.1//EN"
 "http://www.w3.org/Graphics/SVG/1.1/DTD/svg11.dtd">
<!-- Generated by graphviz version 2.43.0 (0)
 -->
<!-- Title: msganalyzer.h Pages: 1 -->
<svg width="717pt" height="140pt"
 viewBox="0.00 0.00 716.50 140.00" xmlns="http://www.w3.org/2000/svg" xmlns:xlink="http://www.w3.org/1999/xlink">
<g id="graph0" class="graph" transform="scale(1 1) rotate(0) translate(4 136)">
<title>msganalyzer.h</title>
<polygon fill="white" stroke="transparent" points="-4,4 -4,-136 712.5,-136 712.5,4 -4,4"/>
<!-- Node1 -->
<g id="node1" class="node">
<title>Node1</title>
<g id="a_node1"><a xlink:title=" ">
<polygon fill="#bfbfbf" stroke="black" points="229,-112.5 229,-131.5 317,-131.5 317,-112.5 229,-112.5"/>
<text text-anchor="middle" x="273" y="-119.5" font-family="Helvetica,sans-Serif" font-size="10.00">msganalyzer.h</text>
</a>
</g>
</g>
<!-- Node2 -->
<g id="node2" class="node">
<title>Node2</title>
<g id="a_node2"><a xlink:title=" ">
<polygon fill="white" stroke="#bfbfbf" points="0,-0.5 0,-19.5 60,-19.5 60,-0.5 0,-0.5"/>
<text text-anchor="middle" x="30" y="-7.5" font-family="Helvetica,sans-Serif" font-size="10.00">iostream</text>
</a>
</g>
</g>
<!-- Node1&#45;&gt;Node2 -->
<g id="edge1" class="edge">
<title>Node1&#45;&gt;Node2</title>
<path fill="none" stroke="midnightblue" d="M228.65,-115.09C193.06,-109.01 142.67,-97.32 103,-76 79.76,-63.51 57.82,-42.21 44.18,-27.42"/>
<polygon fill="midnightblue" stroke="midnightblue" points="46.43,-24.69 37.15,-19.57 41.21,-29.36 46.43,-24.69"/>
</g>
<!-- Node3 -->
<g id="node3" class="node">
<title>Node3</title>
<g id="a_node3"><a xlink:title=" ">
<polygon fill="white" stroke="#bfbfbf" points="80,-0.5 80,-19.5 136,-19.5 136,-0.5 80,-0.5"/>
<text text-anchor="middle" x="108" y="-7.5" font-family="Helvetica,sans-Serif" font-size="10.00">sstream</text>
</a>
</g>
</g>
<!-- Node1&#45;&gt;Node3 -->
<g id="edge2" class="edge">
<title>Node1&#45;&gt;Node3</title>
<path fill="none" stroke="midnightblue" d="M228.71,-121.09C192.41,-118.61 142.66,-108.82 115,-76 104.38,-63.4 103.55,-44.18 104.83,-29.91"/>
<polygon fill="midnightblue" stroke="midnightblue" points="108.33,-30.11 106.16,-19.74 101.39,-29.21 108.33,-30.11"/>
</g>
<!-- Node4 -->
<g id="node4" class="node">
<title>Node4</title>
<g id="a_node4"><a xlink:title=" ">
<polygon fill="white" stroke="#bfbfbf" points="274,-0.5 274,-19.5 318,-19.5 318,-0.5 274,-0.5"/>
<text text-anchor="middle" x="296" y="-7.5" font-family="Helvetica,sans-Serif" font-size="10.00">string</text>
</a>
</g>
</g>
<!-- Node1&#45;&gt;Node4 -->
<g id="edge3" class="edge">
<title>Node1&#45;&gt;Node4</title>
<path fill="none" stroke="midnightblue" d="M274.8,-112.37C278.52,-94.62 287.08,-53.67 292.11,-29.6"/>
<polygon fill="midnightblue" stroke="midnightblue" points="295.58,-30.1 294.2,-19.59 288.73,-28.66 295.58,-30.1"/>
</g>
<!-- Node5 -->
<g id="node5" class="node">
<title>Node5</title>
<g id="a_node5"><a xlink:title=" ">
<polygon fill="white" stroke="#bfbfbf" points="477.5,-0.5 477.5,-19.5 524.5,-19.5 524.5,-0.5 477.5,-0.5"/>
<text text-anchor="middle" x="501" y="-7.5" font-family="Helvetica,sans-Serif" font-size="10.00">vector</text>
</a>
</g>
</g>
<!-- Node1&#45;&gt;Node5 -->
<g id="edge4" class="edge">
<title>Node1&#45;&gt;Node5</title>
<path fill="none" stroke="midnightblue" d="M317.24,-119.06C413.42,-114.4 634.72,-101.04 657,-76 662.91,-69.36 662.34,-63.1 657,-56 649.53,-46.07 578.31,-28.46 534.73,-18.47"/>
<polygon fill="midnightblue" stroke="midnightblue" points="535.35,-15.02 524.83,-16.22 533.8,-21.85 535.35,-15.02"/>
</g>
<!-- Node6 -->
<g id="node6" class="node">
<title>Node6</title>
<g id="a_node6"><a xlink:title=" ">
<polygon fill="white" stroke="#bfbfbf" points="155,-0.5 155,-19.5 193,-19.5 193,-0.5 155,-0.5"/>
<text text-anchor="middle" x="174" y="-7.5" font-family="Helvetica,sans-Serif" font-size="10.00">map</text>
</a>
</g>
</g>
<!-- Node1&#45;&gt;Node6 -->
<g id="edge5" class="edge">
<title>Node1&#45;&gt;Node6</title>
<path fill="none" stroke="midnightblue" d="M228.9,-120.9C194.23,-118.2 147.92,-108.22 124,-76 110.88,-58.34 131.82,-38.31 150.48,-25.22"/>
<polygon fill="midnightblue" stroke="midnightblue" points="152.62,-27.99 159.03,-19.55 148.76,-22.16 152.62,-27.99"/>
</g>
<!-- Node7 -->
<g id="node7" class="node">
<title>Node7</title>
<g id="a_node7"><a xlink:title=" ">
<polygon fill="white" stroke="#bfbfbf" points="220,-0.5 220,-19.5 252,-19.5 252,-0.5 220,-0.5"/>
<text text-anchor="middle" x="236" y="-7.5" font-family="Helvetica,sans-Serif" font-size="10.00">set</text>
</a>
</g>
</g>
<!-- Node1&#45;&gt;Node7 -->
<g id="edge6" class="edge">
<title>Node1&#45;&gt;Node7</title>
<path fill="none" stroke="midnightblue" d="M270.1,-112.37C264.1,-94.54 250.23,-53.3 242.15,-29.27"/>
<polygon fill="midnightblue" stroke="midnightblue" points="245.4,-27.95 238.89,-19.59 238.76,-30.19 245.4,-27.95"/>
</g>
<!-- Node8 -->
<g id="node8" class="node">
<title>Node8</title>
<g id="a_node8"><a xlink:href="errorstore_8h.html" target="_top" xlink:title=" ">
<polygon fill="white" stroke="black" points="574,-56.5 574,-75.5 648,-75.5 648,-56.5 574,-56.5"/>
<text text-anchor="middle" x="611" y="-63.5" font-family="Helvetica,sans-Serif" font-size="10.00">errorstore.h</text>
</a>
</g>
</g>
<!-- Node1&#45;&gt;Node8 -->
<g id="edge7" class="edge">
<title>Node1&#45;&gt;Node8</title>
<path fill="none" stroke="midnightblue" d="M317.12,-114.77C372.42,-106.83 470.35,-92.36 563.95,-76.13"/>
<polygon fill="midnightblue" stroke="midnightblue" points="564.62,-79.56 573.87,-74.4 563.41,-72.67 564.62,-79.56"/>
</g>
<!-- Node13 -->
<g id="node12" class="node">
<title>Node13</title>
<g id="a_node12"><a xlink:title=" ">
<polygon fill="white" stroke="#bfbfbf" points="464,-56.5 464,-75.5 556,-75.5 556,-56.5 464,-56.5"/>
<text text-anchor="middle" x="510" y="-63.5" font-family="Helvetica,sans-Serif" font-size="10.00">msgelements.h</text>
</a>
</g>
</g>
<!-- Node1&#45;&gt;Node13 -->
<g id="edge13" class="edge">
<title>Node1&#45;&gt;Node13</title>
<path fill="none" stroke="midnightblue" d="M310.55,-112.44C351.81,-103.04 418.14,-87.93 462.87,-77.74"/>
<polygon fill="midnightblue" stroke="midnightblue" points="463.65,-81.15 472.62,-75.52 462.09,-74.33 463.65,-81.15"/>
</g>
<!-- Node14 -->
<g id="node13" class="node">
<title>Node14</title>
<g id="a_node13"><a xlink:href="msgtypetable_8h.html" target="_top" xlink:title=" ">
<polygon fill="white" stroke="black" points="132.5,-56.5 132.5,-75.5 225.5,-75.5 225.5,-56.5 132.5,-56.5"/>
<text text-anchor="middle" x="179" y="-63.5" font-family="Helvetica,sans-Serif" font-size="10.00">msgtypetable.h</text>
</a>
</g>
</g>
<!-- Node1&#45;&gt;Node14 -->
<g id="edge14" class="edge">
<title>Node1&#45;&gt;Node14</title>
<path fill="none" stroke="midnightblue" d="M257.9,-112.32C243.1,-103.82 220.31,-90.73 203.02,-80.8"/>
<polygon fill="midnightblue" stroke="midnightblue" points="204.48,-77.6 194.07,-75.65 200.99,-83.67 204.48,-77.6"/>
</g>
<!-- Node15 -->
<g id="node14" class="node">
<title>Node15</title>
<g id="a_node14"><a xlink:href="msgcompileroptions_8h.html" target="_top" xlink:title=" ">
<polygon fill="white" stroke="black" points="320.5,-56.5 320.5,-75.5 445.5,-75.5 445.5,-56.5 320.5,-56.5"/>
<text text-anchor="middle" x="383" y="-63.5" font-family="Helvetica,sans-Serif" font-size="10.00">msgcompileroptions.h</text>
</a>
</g>
</g>
<!-- Node1&#45;&gt;Node15 -->
<g id="edge22" class="edge">
<title>Node1&#45;&gt;Node15</title>
<path fill="none" stroke="midnightblue" d="M290.67,-112.32C308.39,-103.62 335.9,-90.12 356.29,-80.11"/>
<polygon fill="midnightblue" stroke="midnightblue" points="357.94,-83.2 365.37,-75.65 354.85,-76.92 357.94,-83.2"/>
</g>
<!-- Node8&#45;&gt;Node4 -->
<g id="edge11" class="edge">
<title>Node8&#45;&gt;Node4</title>
<path fill="none" stroke="midnightblue" d="M573.87,-57.6C570.87,-57.05 567.89,-56.51 565,-56 462.22,-37.98 435.34,-40.35 333,-20 331.5,-19.7 329.97,-19.38 328.43,-19.05"/>
<polygon fill="midnightblue" stroke="midnightblue" points="328.76,-15.54 318.24,-16.73 327.21,-22.37 328.76,-15.54"/>
</g>
<!-- Node8&#45;&gt;Node5 -->
<g id="edge8" class="edge">
<title>Node8&#45;&gt;Node5</title>
<path fill="none" stroke="midnightblue" d="M593.33,-56.32C575.61,-47.62 548.1,-34.12 527.71,-24.11"/>
<polygon fill="midnightblue" stroke="midnightblue" points="529.15,-20.92 518.63,-19.65 526.06,-27.2 529.15,-20.92"/>
</g>
<!-- Node9 -->
<g id="node9" class="node">
<title>Node9</title>
<g id="a_node9"><a xlink:title=" ">
<polygon fill="white" stroke="#bfbfbf" points="643.5,-0.5 643.5,-19.5 708.5,-19.5 708.5,-0.5 643.5,-0.5"/>
<text text-anchor="middle" x="676" y="-7.5" font-family="Helvetica,sans-Serif" font-size="10.00">exception</text>
</a>
</g>
</g>
<!-- Node8&#45;&gt;Node9 -->
<g id="edge9" class="edge">
<title>Node8&#45;&gt;Node9</title>
<path fill="none" stroke="midnightblue" d="M621.44,-56.32C631.15,-48.26 645.82,-36.08 657.5,-26.37"/>
<polygon fill="midnightblue" stroke="midnightblue" points="659.91,-28.92 665.37,-19.83 655.44,-23.53 659.91,-28.92"/>
</g>
<!-- Node10 -->
<g id="node10" class="node">
<title>Node10</title>
<g id="a_node10"><a xlink:title=" ">
<polygon fill="white" stroke="#bfbfbf" points="560.5,-0.5 560.5,-19.5 625.5,-19.5 625.5,-0.5 560.5,-0.5"/>
<text text-anchor="middle" x="593" y="-7.5" font-family="Helvetica,sans-Serif" font-size="10.00">stdexcept</text>
</a>
</g>
</g>
<!-- Node8&#45;&gt;Node10 -->
<g id="edge10" class="edge">
<title>Node8&#45;&gt;Node10</title>
<path fill="none" stroke="midnightblue" d="M608.03,-56.08C605.62,-48.85 602.14,-38.41 599.13,-29.4"/>
<polygon fill="midnightblue" stroke="midnightblue" points="602.4,-28.13 595.92,-19.75 595.76,-30.34 602.4,-28.13"/>
</g>
<!-- Node11 -->
<g id="node11" class="node">
<title>Node11</title>
<g id="a_node11"><a xlink:href="nedxmldefs_8h.html" target="_top" xlink:title=" ">
<polygon fill="white" stroke="red" points="341.5,-0.5 341.5,-19.5 424.5,-19.5 424.5,-0.5 341.5,-0.5"/>
<text text-anchor="middle" x="383" y="-7.5" font-family="Helvetica,sans-Serif" font-size="10.00">nedxmldefs.h</text>
</a>
</g>
</g>
<!-- Node8&#45;&gt;Node11 -->
<g id="edge12" class="edge">
<title>Node8&#45;&gt;Node11</title>
<path fill="none" stroke="midnightblue" d="M574.87,-56.44C535.35,-47.08 471.9,-32.06 428.89,-21.87"/>
<polygon fill="midnightblue" stroke="midnightblue" points="429.5,-18.42 418.96,-19.52 427.88,-25.23 429.5,-18.42"/>
</g>
<!-- Node14&#45;&gt;Node2 -->
<g id="edge15" class="edge">
<title>Node14&#45;&gt;Node2</title>
<path fill="none" stroke="midnightblue" d="M155.39,-56.44C130.54,-47.44 91.23,-33.19 63.25,-23.05"/>
<polygon fill="midnightblue" stroke="midnightblue" points="64.09,-19.63 53.5,-19.52 61.71,-26.21 64.09,-19.63"/>
</g>
<!-- Node14&#45;&gt;Node3 -->
<g id="edge16" class="edge">
<title>Node14&#45;&gt;Node3</title>
<path fill="none" stroke="midnightblue" d="M167.59,-56.32C156.89,-48.18 140.66,-35.84 127.84,-26.09"/>
<polygon fill="midnightblue" stroke="midnightblue" points="129.69,-23.1 119.61,-19.83 125.46,-28.67 129.69,-23.1"/>
</g>
<!-- Node14&#45;&gt;Node4 -->
<g id="edge17" class="edge">
<title>Node14&#45;&gt;Node4</title>
<path fill="none" stroke="midnightblue" d="M197.54,-56.44C216.62,-47.64 246.57,-33.81 268.44,-23.72"/>
<polygon fill="midnightblue" stroke="midnightblue" points="269.93,-26.88 277.55,-19.52 267,-20.53 269.93,-26.88"/>
</g>
<!-- Node14&#45;&gt;Node5 -->
<g id="edge18" class="edge">
<title>Node14&#45;&gt;Node5</title>
<path fill="none" stroke="midnightblue" d="M225.82,-57.15C291.5,-46.13 409.42,-26.36 467.21,-16.67"/>
<polygon fill="midnightblue" stroke="midnightblue" points="467.99,-20.08 477.27,-14.98 466.83,-13.18 467.99,-20.08"/>
</g>
<!-- Node14&#45;&gt;Node6 -->
<g id="edge19" class="edge">
<title>Node14&#45;&gt;Node6</title>
<path fill="none" stroke="midnightblue" d="M178.17,-56.08C177.52,-49.01 176.58,-38.86 175.76,-29.99"/>
<polygon fill="midnightblue" stroke="midnightblue" points="179.22,-29.39 174.81,-19.75 172.25,-30.03 179.22,-29.39"/>
</g>
<!-- Node14&#45;&gt;Node7 -->
<g id="edge20" class="edge">
<title>Node14&#45;&gt;Node7</title>
<path fill="none" stroke="midnightblue" d="M188.16,-56.32C196.5,-48.42 209.03,-36.55 219.18,-26.94"/>
<polygon fill="midnightblue" stroke="midnightblue" points="221.82,-29.25 226.68,-19.83 217.01,-24.17 221.82,-29.25"/>
</g>
<!-- Node14&#45;&gt;Node11 -->
<g id="edge21" class="edge">
<title>Node14&#45;&gt;Node11</title>
<path fill="none" stroke="midnightblue" d="M211.32,-56.44C246.39,-47.16 302.5,-32.31 340.96,-22.13"/>
<polygon fill="midnightblue" stroke="midnightblue" points="342.06,-25.46 350.83,-19.52 340.26,-18.69 342.06,-25.46"/>
</g>
<!-- Node15&#45;&gt;Node4 -->
<g id="edge23" class="edge">
<title>Node15&#45;&gt;Node4</title>
<path fill="none" stroke="midnightblue" d="M369.02,-56.32C355.45,-47.9 334.62,-34.97 318.68,-25.07"/>
<polygon fill="midnightblue" stroke="midnightblue" points="320.29,-21.95 309.94,-19.65 316.59,-27.9 320.29,-21.95"/>
</g>
<!-- Node15&#45;&gt;Node5 -->
<g id="edge24" class="edge">
<title>Node15&#45;&gt;Node5</title>
<path fill="none" stroke="midnightblue" d="M401.7,-56.44C420.94,-47.64 451.15,-33.81 473.2,-23.72"/>
<polygon fill="midnightblue" stroke="midnightblue" points="474.75,-26.86 482.39,-19.52 471.84,-20.5 474.75,-26.86"/>
</g>
<!-- Node15&#45;&gt;Node11 -->
<g id="edge25" class="edge">
<title>Node15&#45;&gt;Node11</title>
<path fill="none" stroke="midnightblue" d="M383,-56.08C383,-49.01 383,-38.86 383,-29.99"/>
<polygon fill="midnightblue" stroke="midnightblue" points="386.5,-29.75 383,-19.75 379.5,-29.75 386.5,-29.75"/>
</g>
</g>
</svg>
