<?xml version="1.0" encoding="UTF-8" standalone="no"?>
<!DOCTYPE svg PUBLIC "-//W3C//DTD SVG 1.1//EN"
 "http://www.w3.org/Graphics/SVG/1.1/DTD/svg11.dtd">
<!-- Generated by graphviz version 2.43.0 (0)
 -->
<!-- Title: msgcodegenerator.h Pages: 1 -->
<svg width="652pt" height="140pt"
 viewBox="0.00 0.00 652.00 140.00" xmlns="http://www.w3.org/2000/svg" xmlns:xlink="http://www.w3.org/1999/xlink">
<g id="graph0" class="graph" transform="scale(1 1) rotate(0) translate(4 136)">
<title>msgcodegenerator.h</title>
<polygon fill="white" stroke="transparent" points="-4,4 -4,-136 648,-136 648,4 -4,4"/>
<!-- Node1 -->
<g id="node1" class="node">
<title>Node1</title>
<g id="a_node1"><a xlink:title=" ">
<polygon fill="#bfbfbf" stroke="black" points="256,-112.5 256,-131.5 372,-131.5 372,-112.5 256,-112.5"/>
<text text-anchor="middle" x="314" y="-119.5" font-family="Helvetica,sans-Serif" font-size="10.00">msgcodegenerator.h</text>
</a>
</g>
</g>
<!-- Node2 -->
<g id="node2" class="node">
<title>Node2</title>
<g id="a_node2"><a xlink:title=" ">
<polygon fill="white" stroke="#bfbfbf" points="0,-0.5 0,-19.5 60,-19.5 60,-0.5 0,-0.5"/>
<text text-anchor="middle" x="30" y="-7.5" font-family="Helvetica,sans-Serif" font-size="10.00">iostream</text>
</a>
</g>
</g>
<!-- Node1&#45;&gt;Node2 -->
<g id="edge1" class="edge">
<title>Node1&#45;&gt;Node2</title>
<path fill="none" stroke="midnightblue" d="M255.84,-113.34C216.76,-106.77 164.78,-95.24 122,-76 93.49,-63.18 64.72,-41.03 47.12,-26.2"/>
<polygon fill="midnightblue" stroke="midnightblue" points="49.29,-23.45 39.43,-19.58 44.73,-28.75 49.29,-23.45"/>
</g>
<!-- Node3 -->
<g id="node3" class="node">
<title>Node3</title>
<g id="a_node3"><a xlink:title=" ">
<polygon fill="white" stroke="#bfbfbf" points="478.5,-56.5 478.5,-75.5 533.5,-75.5 533.5,-56.5 478.5,-56.5"/>
<text text-anchor="middle" x="506" y="-63.5" font-family="Helvetica,sans-Serif" font-size="10.00">fstream</text>
</a>
</g>
</g>
<!-- Node1&#45;&gt;Node3 -->
<g id="edge2" class="edge">
<title>Node1&#45;&gt;Node3</title>
<path fill="none" stroke="midnightblue" d="M344.42,-112.44C378.06,-102.98 432.27,-87.74 468.5,-77.55"/>
<polygon fill="midnightblue" stroke="midnightblue" points="469.53,-80.89 478.21,-74.82 467.64,-74.15 469.53,-80.89"/>
</g>
<!-- Node4 -->
<g id="node4" class="node">
<title>Node4</title>
<g id="a_node4"><a xlink:title=" ">
<polygon fill="white" stroke="#bfbfbf" points="78,-0.5 78,-19.5 134,-19.5 134,-0.5 78,-0.5"/>
<text text-anchor="middle" x="106" y="-7.5" font-family="Helvetica,sans-Serif" font-size="10.00">sstream</text>
</a>
</g>
</g>
<!-- Node1&#45;&gt;Node4 -->
<g id="edge3" class="edge">
<title>Node1&#45;&gt;Node4</title>
<path fill="none" stroke="midnightblue" d="M255.93,-117.05C220.26,-112.06 175.37,-100.88 143,-76 127.59,-64.16 117.55,-43.94 111.87,-29.2"/>
<polygon fill="midnightblue" stroke="midnightblue" points="115.12,-27.88 108.49,-19.62 108.52,-30.22 115.12,-27.88"/>
</g>
<!-- Node5 -->
<g id="node5" class="node">
<title>Node5</title>
<g id="a_node5"><a xlink:title=" ">
<polygon fill="white" stroke="#bfbfbf" points="152,-0.5 152,-19.5 196,-19.5 196,-0.5 152,-0.5"/>
<text text-anchor="middle" x="174" y="-7.5" font-family="Helvetica,sans-Serif" font-size="10.00">string</text>
</a>
</g>
</g>
<!-- Node1&#45;&gt;Node5 -->
<g id="edge4" class="edge">
<title>Node1&#45;&gt;Node5</title>
<path fill="none" stroke="midnightblue" d="M255.91,-112.51C214.47,-105.12 163.89,-92.93 151,-76 140.17,-61.78 149.8,-42.04 159.7,-28.05"/>
<polygon fill="midnightblue" stroke="midnightblue" points="162.72,-29.87 166.04,-19.81 157.17,-25.6 162.72,-29.87"/>
</g>
<!-- Node6 -->
<g id="node6" class="node">
<title>Node6</title>
<g id="a_node6"><a xlink:title=" ">
<polygon fill="white" stroke="#bfbfbf" points="214.5,-0.5 214.5,-19.5 261.5,-19.5 261.5,-0.5 214.5,-0.5"/>
<text text-anchor="middle" x="238" y="-7.5" font-family="Helvetica,sans-Serif" font-size="10.00">vector</text>
</a>
</g>
</g>
<!-- Node1&#45;&gt;Node6 -->
<g id="edge5" class="edge">
<title>Node1&#45;&gt;Node6</title>
<path fill="none" stroke="midnightblue" d="M308.04,-112.37C295.49,-94.22 266.19,-51.8 249.74,-27.99"/>
<polygon fill="midnightblue" stroke="midnightblue" points="252.5,-25.83 243.94,-19.59 246.74,-29.81 252.5,-25.83"/>
</g>
<!-- Node7 -->
<g id="node7" class="node">
<title>Node7</title>
<g id="a_node7"><a xlink:title=" ">
<polygon fill="white" stroke="#bfbfbf" points="381,-0.5 381,-19.5 419,-19.5 419,-0.5 381,-0.5"/>
<text text-anchor="middle" x="400" y="-7.5" font-family="Helvetica,sans-Serif" font-size="10.00">map</text>
</a>
</g>
</g>
<!-- Node1&#45;&gt;Node7 -->
<g id="edge6" class="edge">
<title>Node1&#45;&gt;Node7</title>
<path fill="none" stroke="midnightblue" d="M342.05,-112.44C359.67,-105.53 381.23,-93.95 393,-76 401.85,-62.5 403.03,-43.95 402.32,-30.12"/>
<polygon fill="midnightblue" stroke="midnightblue" points="405.78,-29.48 401.42,-19.82 398.81,-30.09 405.78,-29.48"/>
</g>
<!-- Node8 -->
<g id="node8" class="node">
<title>Node8</title>
<g id="a_node8"><a xlink:title=" ">
<polygon fill="white" stroke="#bfbfbf" points="521,-0.5 521,-19.5 553,-19.5 553,-0.5 521,-0.5"/>
<text text-anchor="middle" x="537" y="-7.5" font-family="Helvetica,sans-Serif" font-size="10.00">set</text>
</a>
</g>
</g>
<!-- Node1&#45;&gt;Node8 -->
<g id="edge7" class="edge">
<title>Node1&#45;&gt;Node8</title>
<path fill="none" stroke="midnightblue" d="M333.07,-112.44C352.71,-103.55 384.16,-89.14 411,-76 446.28,-58.72 486.55,-37.72 511.87,-24.36"/>
<polygon fill="midnightblue" stroke="midnightblue" points="513.6,-27.4 520.8,-19.63 510.32,-21.22 513.6,-27.4"/>
</g>
<!-- Node9 -->
<g id="node9" class="node">
<title>Node9</title>
<g id="a_node9"><a xlink:href="errorstore_8h.html" target="_top" xlink:title=" ">
<polygon fill="white" stroke="black" points="310,-56.5 310,-75.5 384,-75.5 384,-56.5 310,-56.5"/>
<text text-anchor="middle" x="347" y="-63.5" font-family="Helvetica,sans-Serif" font-size="10.00">errorstore.h</text>
</a>
</g>
</g>
<!-- Node1&#45;&gt;Node9 -->
<g id="edge8" class="edge">
<title>Node1&#45;&gt;Node9</title>
<path fill="none" stroke="midnightblue" d="M319.45,-112.08C324.01,-104.61 330.67,-93.72 336.29,-84.52"/>
<polygon fill="midnightblue" stroke="midnightblue" points="339.42,-86.11 341.65,-75.75 333.45,-82.46 339.42,-86.11"/>
</g>
<!-- Node14 -->
<g id="node13" class="node">
<title>Node14</title>
<g id="a_node13"><a xlink:title=" ">
<polygon fill="white" stroke="#bfbfbf" points="552,-56.5 552,-75.5 644,-75.5 644,-56.5 552,-56.5"/>
<text text-anchor="middle" x="598" y="-63.5" font-family="Helvetica,sans-Serif" font-size="10.00">msgelements.h</text>
</a>
</g>
</g>
<!-- Node1&#45;&gt;Node14 -->
<g id="edge14" class="edge">
<title>Node1&#45;&gt;Node14</title>
<path fill="none" stroke="midnightblue" d="M359,-112.44C408.96,-102.94 489.6,-87.61 543.2,-77.42"/>
<polygon fill="midnightblue" stroke="midnightblue" points="544.04,-80.82 553.21,-75.52 542.73,-73.95 544.04,-80.82"/>
</g>
<!-- Node15 -->
<g id="node14" class="node">
<title>Node15</title>
<g id="a_node14"><a xlink:href="msgtypetable_8h.html" target="_top" xlink:title=" ">
<polygon fill="white" stroke="black" points="160.5,-56.5 160.5,-75.5 253.5,-75.5 253.5,-56.5 160.5,-56.5"/>
<text text-anchor="middle" x="207" y="-63.5" font-family="Helvetica,sans-Serif" font-size="10.00">msgtypetable.h</text>
</a>
</g>
</g>
<!-- Node1&#45;&gt;Node15 -->
<g id="edge15" class="edge">
<title>Node1&#45;&gt;Node15</title>
<path fill="none" stroke="midnightblue" d="M296.81,-112.32C279.65,-103.66 253.05,-90.24 233.25,-80.25"/>
<polygon fill="midnightblue" stroke="midnightblue" points="234.65,-77.04 224.15,-75.65 231.5,-83.28 234.65,-77.04"/>
</g>
<!-- Node9&#45;&gt;Node5 -->
<g id="edge12" class="edge">
<title>Node9&#45;&gt;Node5</title>
<path fill="none" stroke="midnightblue" d="M319.59,-56.44C288.72,-46.81 238.64,-31.18 206,-20.99"/>
<polygon fill="midnightblue" stroke="midnightblue" points="206.66,-17.53 196.07,-17.89 204.57,-24.21 206.66,-17.53"/>
</g>
<!-- Node9&#45;&gt;Node6 -->
<g id="edge9" class="edge">
<title>Node9&#45;&gt;Node6</title>
<path fill="none" stroke="midnightblue" d="M329.49,-56.32C311.93,-47.62 284.67,-34.12 264.47,-24.11"/>
<polygon fill="midnightblue" stroke="midnightblue" points="265.98,-20.96 255.47,-19.65 262.88,-27.23 265.98,-20.96"/>
</g>
<!-- Node10 -->
<g id="node10" class="node">
<title>Node10</title>
<g id="a_node10"><a xlink:title=" ">
<polygon fill="white" stroke="#bfbfbf" points="437.5,-0.5 437.5,-19.5 502.5,-19.5 502.5,-0.5 437.5,-0.5"/>
<text text-anchor="middle" x="470" y="-7.5" font-family="Helvetica,sans-Serif" font-size="10.00">exception</text>
</a>
</g>
</g>
<!-- Node9&#45;&gt;Node10 -->
<g id="edge10" class="edge">
<title>Node9&#45;&gt;Node10</title>
<path fill="none" stroke="midnightblue" d="M366.49,-56.44C386.64,-47.6 418.32,-33.69 441.33,-23.59"/>
<polygon fill="midnightblue" stroke="midnightblue" points="442.85,-26.74 450.6,-19.52 440.04,-20.33 442.85,-26.74"/>
</g>
<!-- Node11 -->
<g id="node11" class="node">
<title>Node11</title>
<g id="a_node11"><a xlink:title=" ">
<polygon fill="white" stroke="#bfbfbf" points="571.5,-0.5 571.5,-19.5 636.5,-19.5 636.5,-0.5 571.5,-0.5"/>
<text text-anchor="middle" x="604" y="-7.5" font-family="Helvetica,sans-Serif" font-size="10.00">stdexcept</text>
</a>
</g>
</g>
<!-- Node9&#45;&gt;Node11 -->
<g id="edge11" class="edge">
<title>Node9&#45;&gt;Node11</title>
<path fill="none" stroke="midnightblue" d="M384.3,-57.25C425.18,-48.74 492.96,-34.6 561.35,-20.13"/>
<polygon fill="midnightblue" stroke="midnightblue" points="562.39,-23.49 571.44,-17.99 560.94,-16.64 562.39,-23.49"/>
</g>
<!-- Node12 -->
<g id="node12" class="node">
<title>Node12</title>
<g id="a_node12"><a xlink:href="nedxmldefs_8h.html" target="_top" xlink:title=" ">
<polygon fill="white" stroke="red" points="279.5,-0.5 279.5,-19.5 362.5,-19.5 362.5,-0.5 279.5,-0.5"/>
<text text-anchor="middle" x="321" y="-7.5" font-family="Helvetica,sans-Serif" font-size="10.00">nedxmldefs.h</text>
</a>
</g>
</g>
<!-- Node9&#45;&gt;Node12 -->
<g id="edge13" class="edge">
<title>Node9&#45;&gt;Node12</title>
<path fill="none" stroke="midnightblue" d="M342.71,-56.08C339.15,-48.69 333.98,-37.95 329.58,-28.81"/>
<polygon fill="midnightblue" stroke="midnightblue" points="332.71,-27.24 325.21,-19.75 326.4,-30.28 332.71,-27.24"/>
</g>
<!-- Node15&#45;&gt;Node2 -->
<g id="edge16" class="edge">
<title>Node15&#45;&gt;Node2</title>
<path fill="none" stroke="midnightblue" d="M178.95,-56.44C148.92,-47.28 101.09,-32.69 67.76,-22.52"/>
<polygon fill="midnightblue" stroke="midnightblue" points="68.5,-19.09 57.91,-19.52 66.46,-25.78 68.5,-19.09"/>
</g>
<!-- Node15&#45;&gt;Node4 -->
<g id="edge17" class="edge">
<title>Node15&#45;&gt;Node4</title>
<path fill="none" stroke="midnightblue" d="M190.77,-56.32C174.65,-47.7 149.7,-34.36 131.04,-24.39"/>
<polygon fill="midnightblue" stroke="midnightblue" points="132.66,-21.28 122.19,-19.65 129.36,-27.46 132.66,-21.28"/>
</g>
<!-- Node15&#45;&gt;Node5 -->
<g id="edge18" class="edge">
<title>Node15&#45;&gt;Node5</title>
<path fill="none" stroke="midnightblue" d="M201.55,-56.08C196.99,-48.61 190.33,-37.72 184.71,-28.52"/>
<polygon fill="midnightblue" stroke="midnightblue" points="187.55,-26.46 179.35,-19.75 181.58,-30.11 187.55,-26.46"/>
</g>
<!-- Node15&#45;&gt;Node6 -->
<g id="edge19" class="edge">
<title>Node15&#45;&gt;Node6</title>
<path fill="none" stroke="midnightblue" d="M212.12,-56.08C216.41,-48.61 222.66,-37.72 227.94,-28.52"/>
<polygon fill="midnightblue" stroke="midnightblue" points="231.03,-30.17 232.98,-19.75 224.96,-26.68 231.03,-30.17"/>
</g>
<!-- Node15&#45;&gt;Node7 -->
<g id="edge20" class="edge">
<title>Node15&#45;&gt;Node7</title>
<path fill="none" stroke="midnightblue" d="M239.45,-56.44C272.6,-47.61 325.52,-33.29 371,-20 371.1,-19.97 371.2,-19.94 371.3,-19.91"/>
<polygon fill="midnightblue" stroke="midnightblue" points="372.43,-23.23 381,-17 370.41,-16.52 372.43,-23.23"/>
</g>
<!-- Node15&#45;&gt;Node8 -->
<g id="edge21" class="edge">
<title>Node15&#45;&gt;Node8</title>
<path fill="none" stroke="midnightblue" d="M253.58,-59.28C322.47,-50.64 449.19,-33.99 510.74,-19.81"/>
<polygon fill="midnightblue" stroke="midnightblue" points="511.85,-23.15 520.74,-17.38 510.19,-16.34 511.85,-23.15"/>
</g>
<!-- Node15&#45;&gt;Node12 -->
<g id="edge22" class="edge">
<title>Node15&#45;&gt;Node12</title>
<path fill="none" stroke="midnightblue" d="M225.06,-56.44C243.57,-47.68 272.58,-33.94 293.86,-23.86"/>
<polygon fill="midnightblue" stroke="midnightblue" points="295.48,-26.96 303.02,-19.52 292.49,-20.63 295.48,-26.96"/>
</g>
</g>
</svg>
