<?xml version="1.0" encoding="UTF-8" standalone="no"?>
<!DOCTYPE svg PUBLIC "-//W3C//DTD SVG 1.1//EN"
 "http://www.w3.org/Graphics/SVG/1.1/DTD/svg11.dtd">
<!-- Generated by graphviz version 2.43.0 (0)
 -->
<!-- Title: msgcompiler.h Pages: 1 -->
<svg width="1060pt" height="196pt"
 viewBox="0.00 0.00 1060.33 196.00" xmlns="http://www.w3.org/2000/svg" xmlns:xlink="http://www.w3.org/1999/xlink">
<g id="graph0" class="graph" transform="scale(1 1) rotate(0) translate(4 192)">
<title>msgcompiler.h</title>
<polygon fill="white" stroke="transparent" points="-4,4 -4,-192 1056.33,-192 1056.33,4 -4,4"/>
<!-- Node1 -->
<g id="node1" class="node">
<title>Node1</title>
<g id="a_node1"><a xlink:title=" ">
<polygon fill="#bfbfbf" stroke="black" points="469.33,-168.5 469.33,-187.5 558.33,-187.5 558.33,-168.5 469.33,-168.5"/>
<text text-anchor="middle" x="513.83" y="-175.5" font-family="Helvetica,sans-Serif" font-size="10.00">msgcompiler.h</text>
</a>
</g>
</g>
<!-- Node2 -->
<g id="node2" class="node">
<title>Node2</title>
<g id="a_node2"><a xlink:title=" ">
<polygon fill="white" stroke="#bfbfbf" points="67.83,-0.5 67.83,-19.5 127.83,-19.5 127.83,-0.5 67.83,-0.5"/>
<text text-anchor="middle" x="97.83" y="-7.5" font-family="Helvetica,sans-Serif" font-size="10.00">iostream</text>
</a>
</g>
</g>
<!-- Node1&#45;&gt;Node2 -->
<g id="edge1" class="edge">
<title>Node1&#45;&gt;Node2</title>
<path fill="none" stroke="midnightblue" d="M468.93,-175.53C358.06,-171.49 77.94,-158.73 45.83,-132 19.3,-109.92 13.49,-86.41 29.83,-56 37.45,-41.82 51.72,-31.35 65.23,-24.1"/>
<polygon fill="midnightblue" stroke="midnightblue" points="66.95,-27.16 74.37,-19.59 63.85,-20.88 66.95,-27.16"/>
</g>
<!-- Node3 -->
<g id="node3" class="node">
<title>Node3</title>
<g id="a_node3"><a xlink:title=" ">
<polygon fill="white" stroke="#bfbfbf" points="487.83,-0.5 487.83,-19.5 543.83,-19.5 543.83,-0.5 487.83,-0.5"/>
<text text-anchor="middle" x="515.83" y="-7.5" font-family="Helvetica,sans-Serif" font-size="10.00">sstream</text>
</a>
</g>
</g>
<!-- Node1&#45;&gt;Node3 -->
<g id="edge2" class="edge">
<title>Node1&#45;&gt;Node3</title>
<path fill="none" stroke="midnightblue" d="M550.93,-168.46C570.27,-161.92 592.25,-150.72 603.83,-132 617.87,-109.28 589.28,-66.51 580.83,-56 570.44,-43.09 555.4,-32.35 542.4,-24.61"/>
<polygon fill="midnightblue" stroke="midnightblue" points="543.82,-21.39 533.39,-19.51 540.37,-27.48 543.82,-21.39"/>
</g>
<!-- Node4 -->
<g id="node4" class="node">
<title>Node4</title>
<g id="a_node4"><a xlink:title=" ">
<polygon fill="white" stroke="#bfbfbf" points="698.83,-0.5 698.83,-19.5 742.83,-19.5 742.83,-0.5 698.83,-0.5"/>
<text text-anchor="middle" x="720.83" y="-7.5" font-family="Helvetica,sans-Serif" font-size="10.00">string</text>
</a>
</g>
</g>
<!-- Node1&#45;&gt;Node4 -->
<g id="edge3" class="edge">
<title>Node1&#45;&gt;Node4</title>
<path fill="none" stroke="midnightblue" d="M558.69,-174.97C668.36,-168.93 944.77,-146.83 995.83,-76 1001.02,-68.79 1001.58,-62.77 995.83,-56 993.86,-53.68 825.27,-27.24 753.06,-16"/>
<polygon fill="midnightblue" stroke="midnightblue" points="753.56,-12.53 743.14,-14.46 752.48,-19.45 753.56,-12.53"/>
</g>
<!-- Node5 -->
<g id="node5" class="node">
<title>Node5</title>
<g id="a_node5"><a xlink:title=" ">
<polygon fill="white" stroke="#bfbfbf" points="618.33,-0.5 618.33,-19.5 665.33,-19.5 665.33,-0.5 618.33,-0.5"/>
<text text-anchor="middle" x="641.83" y="-7.5" font-family="Helvetica,sans-Serif" font-size="10.00">vector</text>
</a>
</g>
</g>
<!-- Node1&#45;&gt;Node5 -->
<g id="edge4" class="edge">
<title>Node1&#45;&gt;Node5</title>
<path fill="none" stroke="midnightblue" d="M558.3,-168.5C580.01,-162.07 604.65,-150.97 619.83,-132 643.52,-102.37 644.92,-55.57 643.56,-29.72"/>
<polygon fill="midnightblue" stroke="midnightblue" points="647.05,-29.46 642.84,-19.74 640.07,-29.97 647.05,-29.46"/>
</g>
<!-- Node6 -->
<g id="node6" class="node">
<title>Node6</title>
<g id="a_node6"><a xlink:title=" ">
<polygon fill="white" stroke="#bfbfbf" points="254.83,-0.5 254.83,-19.5 292.83,-19.5 292.83,-0.5 254.83,-0.5"/>
<text text-anchor="middle" x="273.83" y="-7.5" font-family="Helvetica,sans-Serif" font-size="10.00">map</text>
</a>
</g>
</g>
<!-- Node1&#45;&gt;Node6 -->
<g id="edge5" class="edge">
<title>Node1&#45;&gt;Node6</title>
<path fill="none" stroke="midnightblue" d="M469.11,-177.49C370.54,-177.79 138.19,-173.87 73.83,-132 43.1,-112.01 18.51,-84.28 41.83,-56 67.21,-25.22 187.9,-15.24 244.46,-12.22"/>
<polygon fill="midnightblue" stroke="midnightblue" points="244.74,-15.71 254.55,-11.71 244.39,-8.71 244.74,-15.71"/>
</g>
<!-- Node7 -->
<g id="node7" class="node">
<title>Node7</title>
<g id="a_node7"><a xlink:title=" ">
<polygon fill="white" stroke="#bfbfbf" points="11.83,-0.5 11.83,-19.5 43.83,-19.5 43.83,-0.5 11.83,-0.5"/>
<text text-anchor="middle" x="27.83" y="-7.5" font-family="Helvetica,sans-Serif" font-size="10.00">set</text>
</a>
</g>
</g>
<!-- Node1&#45;&gt;Node7 -->
<g id="edge6" class="edge">
<title>Node1&#45;&gt;Node7</title>
<path fill="none" stroke="midnightblue" d="M469.15,-176.06C354.4,-173.2 56.14,-162.85 24.83,-132 -2.28,-105.3 10.46,-55.84 20.24,-29.17"/>
<polygon fill="midnightblue" stroke="midnightblue" points="23.61,-30.16 24,-19.57 17.09,-27.6 23.61,-30.16"/>
</g>
<!-- Node8 -->
<g id="node8" class="node">
<title>Node8</title>
<g id="a_node8"><a xlink:href="errorstore_8h.html" target="_top" xlink:title=" ">
<polygon fill="white" stroke="black" points="912.83,-56.5 912.83,-75.5 986.83,-75.5 986.83,-56.5 912.83,-56.5"/>
<text text-anchor="middle" x="949.83" y="-63.5" font-family="Helvetica,sans-Serif" font-size="10.00">errorstore.h</text>
</a>
</g>
</g>
<!-- Node1&#45;&gt;Node8 -->
<g id="edge7" class="edge">
<title>Node1&#45;&gt;Node8</title>
<path fill="none" stroke="midnightblue" d="M558.4,-172.45C612.44,-166.28 705.95,-153.48 783.83,-132 833.85,-118.2 889.55,-94.6 922.03,-79.95"/>
<polygon fill="midnightblue" stroke="midnightblue" points="923.69,-83.04 931.34,-75.71 920.79,-76.67 923.69,-83.04"/>
</g>
<!-- Node13 -->
<g id="node12" class="node">
<title>Node13</title>
<g id="a_node12"><a xlink:title=" ">
<polygon fill="white" stroke="#bfbfbf" points="242.83,-56.5 242.83,-75.5 334.83,-75.5 334.83,-56.5 242.83,-56.5"/>
<text text-anchor="middle" x="288.83" y="-63.5" font-family="Helvetica,sans-Serif" font-size="10.00">msgelements.h</text>
</a>
</g>
</g>
<!-- Node1&#45;&gt;Node13 -->
<g id="edge13" class="edge">
<title>Node1&#45;&gt;Node13</title>
<path fill="none" stroke="midnightblue" d="M496.17,-168.37C456.9,-149.17 362.14,-102.84 315.57,-80.07"/>
<polygon fill="midnightblue" stroke="midnightblue" points="316.92,-76.84 306.4,-75.59 313.85,-83.13 316.92,-76.84"/>
</g>
<!-- Node14 -->
<g id="node13" class="node">
<title>Node14</title>
<g id="a_node13"><a xlink:href="msgtypetable_8h.html" target="_top" xlink:title=" ">
<polygon fill="white" stroke="black" points="429.33,-56.5 429.33,-75.5 522.33,-75.5 522.33,-56.5 429.33,-56.5"/>
<text text-anchor="middle" x="475.83" y="-63.5" font-family="Helvetica,sans-Serif" font-size="10.00">msgtypetable.h</text>
</a>
</g>
</g>
<!-- Node1&#45;&gt;Node14 -->
<g id="edge14" class="edge">
<title>Node1&#45;&gt;Node14</title>
<path fill="none" stroke="midnightblue" d="M510.72,-168.39C507.47,-159.34 502.23,-144.69 497.83,-132 492.39,-116.35 486.37,-98.52 482,-85.5"/>
<polygon fill="midnightblue" stroke="midnightblue" points="485.26,-84.22 478.77,-75.85 478.63,-86.44 485.26,-84.22"/>
</g>
<!-- Node15 -->
<g id="node14" class="node">
<title>Node15</title>
<g id="a_node14"><a xlink:href="msganalyzer_8h.html" target="_top" xlink:title=" ">
<polygon fill="white" stroke="black" points="506.83,-112.5 506.83,-131.5 594.83,-131.5 594.83,-112.5 506.83,-112.5"/>
<text text-anchor="middle" x="550.83" y="-119.5" font-family="Helvetica,sans-Serif" font-size="10.00">msganalyzer.h</text>
</a>
</g>
</g>
<!-- Node1&#45;&gt;Node15 -->
<g id="edge22" class="edge">
<title>Node1&#45;&gt;Node15</title>
<path fill="none" stroke="midnightblue" d="M519.94,-168.08C525.11,-160.53 532.67,-149.49 539.02,-140.23"/>
<polygon fill="midnightblue" stroke="midnightblue" points="542.06,-141.98 544.83,-131.75 536.29,-138.02 542.06,-141.98"/>
</g>
<!-- Node16 -->
<g id="node15" class="node">
<title>Node16</title>
<g id="a_node15"><a xlink:href="msgcompileroptions_8h.html" target="_top" xlink:title=" ">
<polygon fill="white" stroke="black" points="769.33,-56.5 769.33,-75.5 894.33,-75.5 894.33,-56.5 769.33,-56.5"/>
<text text-anchor="middle" x="831.83" y="-63.5" font-family="Helvetica,sans-Serif" font-size="10.00">msgcompileroptions.h</text>
</a>
</g>
</g>
<!-- Node1&#45;&gt;Node16 -->
<g id="edge47" class="edge">
<title>Node1&#45;&gt;Node16</title>
<path fill="none" stroke="midnightblue" d="M558.57,-175.45C608.6,-172.21 690.99,-162.28 754.83,-132 779.63,-120.24 802.96,-98.47 817.3,-83.38"/>
<polygon fill="midnightblue" stroke="midnightblue" points="820.09,-85.52 824.3,-75.79 814.95,-80.77 820.09,-85.52"/>
</g>
<!-- Node17 -->
<g id="node16" class="node">
<title>Node17</title>
<g id="a_node16"><a xlink:href="msgcodegenerator_8h.html" target="_top" xlink:title=" ">
<polygon fill="white" stroke="black" points="82.83,-112.5 82.83,-131.5 198.83,-131.5 198.83,-112.5 82.83,-112.5"/>
<text text-anchor="middle" x="140.83" y="-119.5" font-family="Helvetica,sans-Serif" font-size="10.00">msgcodegenerator.h</text>
</a>
</g>
</g>
<!-- Node1&#45;&gt;Node17 -->
<g id="edge36" class="edge">
<title>Node1&#45;&gt;Node17</title>
<path fill="none" stroke="midnightblue" d="M469.2,-170.54C404.62,-161.19 284.55,-143.81 208.88,-132.85"/>
<polygon fill="midnightblue" stroke="midnightblue" points="209.36,-129.39 198.96,-131.42 208.36,-136.31 209.36,-129.39"/>
</g>
<!-- Node8&#45;&gt;Node4 -->
<g id="edge11" class="edge">
<title>Node8&#45;&gt;Node4</title>
<path fill="none" stroke="midnightblue" d="M913.54,-56.44C869.27,-46 795.11,-28.52 752.86,-18.55"/>
<polygon fill="midnightblue" stroke="midnightblue" points="753.63,-15.14 743.09,-16.25 752.02,-21.95 753.63,-15.14"/>
</g>
<!-- Node8&#45;&gt;Node5 -->
<g id="edge8" class="edge">
<title>Node8&#45;&gt;Node5</title>
<path fill="none" stroke="midnightblue" d="M912.68,-57.65C909.69,-57.08 906.71,-56.52 903.83,-56 808.93,-38.74 784.78,-36.89 689.83,-20 685.29,-19.19 680.52,-18.32 675.81,-17.45"/>
<polygon fill="midnightblue" stroke="midnightblue" points="676.21,-13.97 665.74,-15.57 674.92,-20.85 676.21,-13.97"/>
</g>
<!-- Node9 -->
<g id="node9" class="node">
<title>Node9</title>
<g id="a_node9"><a xlink:title=" ">
<polygon fill="white" stroke="#bfbfbf" points="987.33,-0.5 987.33,-19.5 1052.33,-19.5 1052.33,-0.5 987.33,-0.5"/>
<text text-anchor="middle" x="1019.83" y="-7.5" font-family="Helvetica,sans-Serif" font-size="10.00">exception</text>
</a>
</g>
</g>
<!-- Node8&#45;&gt;Node9 -->
<g id="edge9" class="edge">
<title>Node8&#45;&gt;Node9</title>
<path fill="none" stroke="midnightblue" d="M961.07,-56.32C971.62,-48.18 987.63,-35.84 1000.27,-26.09"/>
<polygon fill="midnightblue" stroke="midnightblue" points="1002.59,-28.71 1008.37,-19.83 998.32,-23.17 1002.59,-28.71"/>
</g>
<!-- Node10 -->
<g id="node10" class="node">
<title>Node10</title>
<g id="a_node10"><a xlink:title=" ">
<polygon fill="white" stroke="#bfbfbf" points="904.33,-0.5 904.33,-19.5 969.33,-19.5 969.33,-0.5 904.33,-0.5"/>
<text text-anchor="middle" x="936.83" y="-7.5" font-family="Helvetica,sans-Serif" font-size="10.00">stdexcept</text>
</a>
</g>
</g>
<!-- Node8&#45;&gt;Node10 -->
<g id="edge10" class="edge">
<title>Node8&#45;&gt;Node10</title>
<path fill="none" stroke="midnightblue" d="M947.68,-56.08C945.96,-48.93 943.48,-38.64 941.32,-29.69"/>
<polygon fill="midnightblue" stroke="midnightblue" points="944.68,-28.65 938.93,-19.75 937.87,-30.29 944.68,-28.65"/>
</g>
<!-- Node11 -->
<g id="node11" class="node">
<title>Node11</title>
<g id="a_node11"><a xlink:href="nedxmldefs_8h.html" target="_top" xlink:title=" ">
<polygon fill="white" stroke="red" points="790.33,-0.5 790.33,-19.5 873.33,-19.5 873.33,-0.5 790.33,-0.5"/>
<text text-anchor="middle" x="831.83" y="-7.5" font-family="Helvetica,sans-Serif" font-size="10.00">nedxmldefs.h</text>
</a>
</g>
</g>
<!-- Node8&#45;&gt;Node11 -->
<g id="edge12" class="edge">
<title>Node8&#45;&gt;Node11</title>
<path fill="none" stroke="midnightblue" d="M931.13,-56.44C911.88,-47.64 881.67,-33.81 859.63,-23.72"/>
<polygon fill="midnightblue" stroke="midnightblue" points="860.98,-20.5 850.44,-19.52 858.07,-26.86 860.98,-20.5"/>
</g>
<!-- Node14&#45;&gt;Node2 -->
<g id="edge15" class="edge">
<title>Node14&#45;&gt;Node2</title>
<path fill="none" stroke="midnightblue" d="M429.2,-58.09C424.35,-57.38 419.49,-56.67 414.83,-56 315.44,-41.61 198.46,-25.12 138.21,-16.66"/>
<polygon fill="midnightblue" stroke="midnightblue" points="138.38,-13.15 127.99,-15.23 137.41,-20.08 138.38,-13.15"/>
</g>
<!-- Node14&#45;&gt;Node3 -->
<g id="edge16" class="edge">
<title>Node14&#45;&gt;Node3</title>
<path fill="none" stroke="midnightblue" d="M482.43,-56.08C488.08,-48.46 496.37,-37.26 503.28,-27.94"/>
<polygon fill="midnightblue" stroke="midnightblue" points="506.2,-29.87 509.34,-19.75 500.58,-25.7 506.2,-29.87"/>
</g>
<!-- Node14&#45;&gt;Node4 -->
<g id="edge17" class="edge">
<title>Node14&#45;&gt;Node4</title>
<path fill="none" stroke="midnightblue" d="M514.65,-56.44C562.74,-45.84 643.79,-27.98 688.61,-18.1"/>
<polygon fill="midnightblue" stroke="midnightblue" points="689.64,-21.46 698.65,-15.89 688.13,-14.62 689.64,-21.46"/>
</g>
<!-- Node14&#45;&gt;Node5 -->
<g id="edge18" class="edge">
<title>Node14&#45;&gt;Node5</title>
<path fill="none" stroke="midnightblue" d="M502.13,-56.44C530.92,-47.08 577.14,-32.04 608.46,-21.85"/>
<polygon fill="midnightblue" stroke="midnightblue" points="609.64,-25.15 618.07,-18.73 607.47,-18.49 609.64,-25.15"/>
</g>
<!-- Node14&#45;&gt;Node6 -->
<g id="edge19" class="edge">
<title>Node14&#45;&gt;Node6</title>
<path fill="none" stroke="midnightblue" d="M443.82,-56.44C404.97,-46.06 340.05,-28.7 302.68,-18.71"/>
<polygon fill="midnightblue" stroke="midnightblue" points="303.48,-15.31 292.92,-16.1 301.68,-22.07 303.48,-15.31"/>
</g>
<!-- Node14&#45;&gt;Node7 -->
<g id="edge20" class="edge">
<title>Node14&#45;&gt;Node7</title>
<path fill="none" stroke="midnightblue" d="M429.06,-60.42C327.8,-50.44 94.45,-27.04 58.83,-20 57.31,-19.7 55.77,-19.36 54.22,-19"/>
<polygon fill="midnightblue" stroke="midnightblue" points="54.67,-15.5 44.1,-16.31 52.87,-22.26 54.67,-15.5"/>
</g>
<!-- Node14&#45;&gt;Node11 -->
<g id="edge21" class="edge">
<title>Node14&#45;&gt;Node11</title>
<path fill="none" stroke="midnightblue" d="M522.37,-57.94C588.88,-47.85 710.71,-29.37 780.01,-18.86"/>
<polygon fill="midnightblue" stroke="midnightblue" points="780.89,-22.27 790.25,-17.31 779.84,-15.35 780.89,-22.27"/>
</g>
<!-- Node15&#45;&gt;Node2 -->
<g id="edge23" class="edge">
<title>Node15&#45;&gt;Node2</title>
<path fill="none" stroke="midnightblue" d="M523.17,-112.43C496.44,-103.93 454.95,-90.16 419.83,-76 400.28,-68.12 396.98,-62.18 376.83,-56 294.2,-30.66 193.19,-18.88 138.21,-14.01"/>
<polygon fill="midnightblue" stroke="midnightblue" points="138.43,-10.51 128.17,-13.15 137.84,-17.49 138.43,-10.51"/>
</g>
<!-- Node15&#45;&gt;Node3 -->
<g id="edge24" class="edge">
<title>Node15&#45;&gt;Node3</title>
<path fill="none" stroke="midnightblue" d="M556,-112.25C562.87,-99.43 573.18,-75.02 564.83,-56 559.44,-43.73 548.87,-33.34 538.92,-25.65"/>
<polygon fill="midnightblue" stroke="midnightblue" points="540.65,-22.58 530.49,-19.6 536.57,-28.27 540.65,-22.58"/>
</g>
<!-- Node15&#45;&gt;Node4 -->
<g id="edge25" class="edge">
<title>Node15&#45;&gt;Node4</title>
<path fill="none" stroke="midnightblue" d="M564.16,-112.37C593.34,-93.49 663.05,-48.38 698.82,-25.24"/>
<polygon fill="midnightblue" stroke="midnightblue" points="701.05,-27.96 707.55,-19.59 697.25,-22.09 701.05,-27.96"/>
</g>
<!-- Node15&#45;&gt;Node5 -->
<g id="edge26" class="edge">
<title>Node15&#45;&gt;Node5</title>
<path fill="none" stroke="midnightblue" d="M557.97,-112.37C573.12,-94.05 608.69,-51.05 628.29,-27.36"/>
<polygon fill="midnightblue" stroke="midnightblue" points="631.04,-29.53 634.72,-19.59 625.65,-25.07 631.04,-29.53"/>
</g>
<!-- Node15&#45;&gt;Node6 -->
<g id="edge27" class="edge">
<title>Node15&#45;&gt;Node6</title>
<path fill="none" stroke="midnightblue" d="M550.85,-112.34C550.39,-98.26 547.29,-70.53 530.83,-56 497.41,-26.52 363.55,-15.77 303.38,-12.38"/>
<polygon fill="midnightblue" stroke="midnightblue" points="303.21,-8.86 293.04,-11.83 302.84,-15.85 303.21,-8.86"/>
</g>
<!-- Node15&#45;&gt;Node7 -->
<g id="edge28" class="edge">
<title>Node15&#45;&gt;Node7</title>
<path fill="none" stroke="midnightblue" d="M506.77,-113.31C470.88,-106.18 419.38,-93.94 376.83,-76 361.02,-69.34 360.02,-61.64 343.83,-56 223.26,-13.99 183.85,-45.88 58.83,-20 57.32,-19.69 55.77,-19.34 54.22,-18.96"/>
<polygon fill="midnightblue" stroke="midnightblue" points="54.68,-15.46 44.11,-16.25 52.86,-22.22 54.68,-15.46"/>
</g>
<!-- Node15&#45;&gt;Node8 -->
<g id="edge29" class="edge">
<title>Node15&#45;&gt;Node8</title>
<path fill="none" stroke="midnightblue" d="M594.99,-116.32C660.06,-109.22 785.75,-94.72 902.52,-76.12"/>
<polygon fill="midnightblue" stroke="midnightblue" points="903.39,-79.52 912.71,-74.48 902.28,-72.61 903.39,-79.52"/>
</g>
<!-- Node15&#45;&gt;Node13 -->
<g id="edge30" class="edge">
<title>Node15&#45;&gt;Node13</title>
<path fill="none" stroke="midnightblue" d="M509.31,-112.44C463.41,-102.98 389.44,-87.74 340,-77.55"/>
<polygon fill="midnightblue" stroke="midnightblue" points="340.65,-74.11 330.15,-75.52 339.23,-80.96 340.65,-74.11"/>
</g>
<!-- Node15&#45;&gt;Node14 -->
<g id="edge31" class="edge">
<title>Node15&#45;&gt;Node14</title>
<path fill="none" stroke="midnightblue" d="M538.78,-112.32C527.36,-104.11 509.99,-91.6 496.39,-81.81"/>
<polygon fill="midnightblue" stroke="midnightblue" points="498.25,-78.84 488.09,-75.83 494.16,-84.52 498.25,-78.84"/>
</g>
<!-- Node15&#45;&gt;Node16 -->
<g id="edge32" class="edge">
<title>Node15&#45;&gt;Node16</title>
<path fill="none" stroke="midnightblue" d="M595.04,-112.5C644.41,-103.02 724.34,-87.66 777.48,-77.44"/>
<polygon fill="midnightblue" stroke="midnightblue" points="778.24,-80.86 787.4,-75.54 776.92,-73.99 778.24,-80.86"/>
</g>
<!-- Node16&#45;&gt;Node4 -->
<g id="edge33" class="edge">
<title>Node16&#45;&gt;Node4</title>
<path fill="none" stroke="midnightblue" d="M813.99,-56.32C796.11,-47.62 768.35,-34.12 747.78,-24.11"/>
<polygon fill="midnightblue" stroke="midnightblue" points="749.14,-20.88 738.62,-19.65 746.08,-27.18 749.14,-20.88"/>
</g>
<!-- Node16&#45;&gt;Node5 -->
<g id="edge34" class="edge">
<title>Node16&#45;&gt;Node5</title>
<path fill="none" stroke="midnightblue" d="M801.72,-56.44C767.34,-46.67 711.24,-30.73 675.45,-20.56"/>
<polygon fill="midnightblue" stroke="midnightblue" points="676.06,-17.09 665.49,-17.73 674.15,-23.83 676.06,-17.09"/>
</g>
<!-- Node16&#45;&gt;Node11 -->
<g id="edge35" class="edge">
<title>Node16&#45;&gt;Node11</title>
<path fill="none" stroke="midnightblue" d="M831.83,-56.08C831.83,-49.01 831.83,-38.86 831.83,-29.99"/>
<polygon fill="midnightblue" stroke="midnightblue" points="835.33,-29.75 831.83,-19.75 828.33,-29.75 835.33,-29.75"/>
</g>
<!-- Node17&#45;&gt;Node2 -->
<g id="edge37" class="edge">
<title>Node17&#45;&gt;Node2</title>
<path fill="none" stroke="midnightblue" d="M82.69,-115.5C56.86,-109.82 28.76,-98.49 12.83,-76 -3.55,-52.88 29.74,-34.24 59.35,-22.95"/>
<polygon fill="midnightblue" stroke="midnightblue" points="60.55,-26.24 68.76,-19.54 58.16,-19.65 60.55,-26.24"/>
</g>
<!-- Node17&#45;&gt;Node3 -->
<g id="edge39" class="edge">
<title>Node17&#45;&gt;Node3</title>
<path fill="none" stroke="midnightblue" d="M125.2,-112.33C104.2,-99.61 71.42,-75.33 88.83,-56 114.6,-27.37 377.17,-15.63 477.31,-12.18"/>
<polygon fill="midnightblue" stroke="midnightblue" points="477.71,-15.67 487.59,-11.83 477.48,-8.67 477.71,-15.67"/>
</g>
<!-- Node17&#45;&gt;Node4 -->
<g id="edge40" class="edge">
<title>Node17&#45;&gt;Node4</title>
<path fill="none" stroke="midnightblue" d="M140.49,-112.16C140.48,-97.82 142.8,-69.72 159.83,-56 204.41,-20.08 617.05,-27.4 673.83,-20 678.62,-19.38 683.66,-18.57 688.59,-17.7"/>
<polygon fill="midnightblue" stroke="midnightblue" points="689.26,-21.13 698.44,-15.85 687.97,-14.25 689.26,-21.13"/>
</g>
<!-- Node17&#45;&gt;Node5 -->
<g id="edge41" class="edge">
<title>Node17&#45;&gt;Node5</title>
<path fill="none" stroke="midnightblue" d="M134.72,-112.18C125.97,-98.38 112.45,-71.64 126.83,-56 158.97,-21.03 505.53,-24.39 552.83,-20 570.96,-18.32 591.17,-16.29 607.73,-14.58"/>
<polygon fill="midnightblue" stroke="midnightblue" points="608.45,-18.02 618.04,-13.51 607.73,-11.06 608.45,-18.02"/>
</g>
<!-- Node17&#45;&gt;Node6 -->
<g id="edge42" class="edge">
<title>Node17&#45;&gt;Node6</title>
<path fill="none" stroke="midnightblue" d="M109.86,-112.41C76.3,-101.58 30.13,-81.28 50.83,-56 74.98,-26.49 189.6,-15.89 244.45,-12.47"/>
<polygon fill="midnightblue" stroke="midnightblue" points="244.8,-15.95 254.58,-11.88 244.39,-8.97 244.8,-15.95"/>
</g>
<!-- Node17&#45;&gt;Node7 -->
<g id="edge43" class="edge">
<title>Node17&#45;&gt;Node7</title>
<path fill="none" stroke="midnightblue" d="M82.65,-117.13C54.31,-111.97 22.59,-100.59 4.83,-76 -5.64,-61.51 3.92,-41.82 13.71,-27.91"/>
<polygon fill="midnightblue" stroke="midnightblue" points="16.68,-29.8 19.97,-19.73 11.12,-25.55 16.68,-29.8"/>
</g>
<!-- Node17&#45;&gt;Node8 -->
<g id="edge44" class="edge">
<title>Node17&#45;&gt;Node8</title>
<path fill="none" stroke="midnightblue" d="M198.98,-120.23C325.35,-117.98 634.52,-109.37 902.81,-75.95"/>
<polygon fill="midnightblue" stroke="midnightblue" points="903.25,-79.42 912.74,-74.7 902.38,-72.48 903.25,-79.42"/>
</g>
<!-- Node17&#45;&gt;Node13 -->
<g id="edge45" class="edge">
<title>Node17&#45;&gt;Node13</title>
<path fill="none" stroke="midnightblue" d="M164.28,-112.44C188.96,-103.44 228.01,-89.19 255.8,-79.05"/>
<polygon fill="midnightblue" stroke="midnightblue" points="257.29,-82.23 265.48,-75.52 254.89,-75.66 257.29,-82.23"/>
</g>
<!-- Node17&#45;&gt;Node14 -->
<g id="edge46" class="edge">
<title>Node17&#45;&gt;Node14</title>
<path fill="none" stroke="midnightblue" d="M193.91,-112.44C255.34,-102.54 356.1,-86.3 419.05,-76.15"/>
<polygon fill="midnightblue" stroke="midnightblue" points="419.89,-79.56 429.2,-74.52 418.77,-72.65 419.89,-79.56"/>
</g>
<!-- Node18 -->
<g id="node17" class="node">
<title>Node18</title>
<g id="a_node17"><a xlink:title=" ">
<polygon fill="white" stroke="#bfbfbf" points="169.33,-56.5 169.33,-75.5 224.33,-75.5 224.33,-56.5 169.33,-56.5"/>
<text text-anchor="middle" x="196.83" y="-63.5" font-family="Helvetica,sans-Serif" font-size="10.00">fstream</text>
</a>
</g>
</g>
<!-- Node17&#45;&gt;Node18 -->
<g id="edge38" class="edge">
<title>Node17&#45;&gt;Node18</title>
<path fill="none" stroke="midnightblue" d="M149.82,-112.32C158.02,-104.42 170.33,-92.55 180.3,-82.94"/>
<polygon fill="midnightblue" stroke="midnightblue" points="182.9,-85.29 187.66,-75.83 178.04,-80.26 182.9,-85.29"/>
</g>
</g>
</svg>
