<?xml version="1.0" encoding="UTF-8" standalone="no"?>
<!DOCTYPE svg PUBLIC "-//W3C//DTD SVG 1.1//EN"
 "http://www.w3.org/Graphics/SVG/1.1/DTD/svg11.dtd">
<!-- Generated by graphviz version 2.43.0 (0)
 -->
<!-- Title: msgcompileroptions.h Pages: 1 -->
<svg width="151pt" height="140pt"
 viewBox="0.00 0.00 150.50 140.00" xmlns="http://www.w3.org/2000/svg" xmlns:xlink="http://www.w3.org/1999/xlink">
<g id="graph0" class="graph" transform="scale(1 1) rotate(0) translate(4 136)">
<title>msgcompileroptions.h</title>
<polygon fill="white" stroke="transparent" points="-4,4 -4,-136 146.5,-136 146.5,4 -4,4"/>
<!-- Node1 -->
<g id="node1" class="node">
<title>Node1</title>
<g id="a_node1"><a xlink:title=" ">
<polygon fill="#bfbfbf" stroke="black" points="17.5,-112.5 17.5,-131.5 142.5,-131.5 142.5,-112.5 17.5,-112.5"/>
<text text-anchor="middle" x="80" y="-119.5" font-family="Helvetica,sans-Serif" font-size="10.00">msgcompileroptions.h</text>
</a>
</g>
</g>
<!-- Node2 -->
<g id="node2" class="node">
<title>Node2</title>
<g id="a_node2"><a xlink:href="msganalyzer_8h.html" target="_top" xlink:title=" ">
<polygon fill="white" stroke="black" points="0,-56.5 0,-75.5 88,-75.5 88,-56.5 0,-56.5"/>
<text text-anchor="middle" x="44" y="-63.5" font-family="Helvetica,sans-Serif" font-size="10.00">msganalyzer.h</text>
</a>
</g>
</g>
<!-- Node1&#45;&gt;Node2 -->
<g id="edge1" class="edge">
<title>Node1&#45;&gt;Node2</title>
<path fill="none" stroke="midnightblue" d="M68.38,-103.57C62.18,-94.27 54.83,-83.25 49.83,-75.75"/>
<polygon fill="midnightblue" stroke="midnightblue" points="65.6,-105.7 74.06,-112.08 71.42,-101.82 65.6,-105.7"/>
</g>
<!-- Node3 -->
<g id="node3" class="node">
<title>Node3</title>
<g id="a_node3"><a xlink:href="msgcompiler_8h.html" target="_top" xlink:title=" ">
<polygon fill="white" stroke="black" points="35.5,-0.5 35.5,-19.5 124.5,-19.5 124.5,-0.5 35.5,-0.5"/>
<text text-anchor="middle" x="80" y="-7.5" font-family="Helvetica,sans-Serif" font-size="10.00">msgcompiler.h</text>
</a>
</g>
</g>
<!-- Node1&#45;&gt;Node3 -->
<g id="edge3" class="edge">
<title>Node1&#45;&gt;Node3</title>
<path fill="none" stroke="midnightblue" d="M89.06,-103.08C94.54,-90.11 99.94,-72.12 97,-56 94.6,-42.86 88.56,-28.56 84.37,-19.69"/>
<polygon fill="midnightblue" stroke="midnightblue" points="85.83,-101.72 84.81,-112.26 92.19,-104.66 85.83,-101.72"/>
</g>
<!-- Node2&#45;&gt;Node3 -->
<g id="edge2" class="edge">
<title>Node2&#45;&gt;Node3</title>
<path fill="none" stroke="midnightblue" d="M55.62,-47.57C61.82,-38.27 69.17,-27.25 74.17,-19.75"/>
<polygon fill="midnightblue" stroke="midnightblue" points="52.58,-45.82 49.94,-56.08 58.4,-49.7 52.58,-45.82"/>
</g>
</g>
</svg>
