<?xml version="1.0" encoding="UTF-8" standalone="no"?>
<!DOCTYPE svg PUBLIC "-//W3C//DTD SVG 1.1//EN"
 "http://www.w3.org/Graphics/SVG/1.1/DTD/svg11.dtd">
<!-- Generated by graphviz version 2.43.0 (0)
 -->
<!-- Title: msgtypetable.h Pages: 1 -->
<svg width="512pt" height="140pt"
 viewBox="0.00 0.00 512.00 140.00" xmlns="http://www.w3.org/2000/svg" xmlns:xlink="http://www.w3.org/1999/xlink">
<g id="graph0" class="graph" transform="scale(1 1) rotate(0) translate(4 136)">
<title>msgtypetable.h</title>
<polygon fill="white" stroke="transparent" points="-4,4 -4,-136 508,-136 508,4 -4,4"/>
<!-- Node1 -->
<g id="node1" class="node">
<title>Node1</title>
<g id="a_node1"><a xlink:title=" ">
<polygon fill="#bfbfbf" stroke="black" points="191.5,-112.5 191.5,-131.5 284.5,-131.5 284.5,-112.5 191.5,-112.5"/>
<text text-anchor="middle" x="238" y="-119.5" font-family="Helvetica,sans-Serif" font-size="10.00">msgtypetable.h</text>
</a>
</g>
</g>
<!-- Node2 -->
<g id="node2" class="node">
<title>Node2</title>
<g id="a_node2"><a xlink:title=" ">
<polygon fill="white" stroke="#bfbfbf" points="0,-56.5 0,-75.5 60,-75.5 60,-56.5 0,-56.5"/>
<text text-anchor="middle" x="30" y="-63.5" font-family="Helvetica,sans-Serif" font-size="10.00">iostream</text>
</a>
</g>
</g>
<!-- Node1&#45;&gt;Node2 -->
<g id="edge1" class="edge">
<title>Node1&#45;&gt;Node2</title>
<path fill="none" stroke="midnightblue" d="M205.04,-112.44C168.37,-102.92 109.12,-87.54 69.87,-77.35"/>
<polygon fill="midnightblue" stroke="midnightblue" points="70.66,-73.94 60.1,-74.82 68.9,-80.72 70.66,-73.94"/>
</g>
<!-- Node3 -->
<g id="node3" class="node">
<title>Node3</title>
<g id="a_node3"><a xlink:title=" ">
<polygon fill="white" stroke="#bfbfbf" points="78,-56.5 78,-75.5 134,-75.5 134,-56.5 78,-56.5"/>
<text text-anchor="middle" x="106" y="-63.5" font-family="Helvetica,sans-Serif" font-size="10.00">sstream</text>
</a>
</g>
</g>
<!-- Node1&#45;&gt;Node3 -->
<g id="edge2" class="edge">
<title>Node1&#45;&gt;Node3</title>
<path fill="none" stroke="midnightblue" d="M217.08,-112.44C195.26,-103.52 160.85,-89.44 136.11,-79.32"/>
<polygon fill="midnightblue" stroke="midnightblue" points="137.4,-76.06 126.82,-75.52 134.75,-82.54 137.4,-76.06"/>
</g>
<!-- Node4 -->
<g id="node4" class="node">
<title>Node4</title>
<g id="a_node4"><a xlink:title=" ">
<polygon fill="white" stroke="#bfbfbf" points="152,-56.5 152,-75.5 196,-75.5 196,-56.5 152,-56.5"/>
<text text-anchor="middle" x="174" y="-63.5" font-family="Helvetica,sans-Serif" font-size="10.00">string</text>
</a>
</g>
</g>
<!-- Node1&#45;&gt;Node4 -->
<g id="edge3" class="edge">
<title>Node1&#45;&gt;Node4</title>
<path fill="none" stroke="midnightblue" d="M227.72,-112.32C218.16,-104.26 203.72,-92.08 192.22,-82.37"/>
<polygon fill="midnightblue" stroke="midnightblue" points="194.37,-79.61 184.47,-75.83 189.86,-84.96 194.37,-79.61"/>
</g>
<!-- Node5 -->
<g id="node5" class="node">
<title>Node5</title>
<g id="a_node5"><a xlink:title=" ">
<polygon fill="white" stroke="#bfbfbf" points="214.5,-56.5 214.5,-75.5 261.5,-75.5 261.5,-56.5 214.5,-56.5"/>
<text text-anchor="middle" x="238" y="-63.5" font-family="Helvetica,sans-Serif" font-size="10.00">vector</text>
</a>
</g>
</g>
<!-- Node1&#45;&gt;Node5 -->
<g id="edge4" class="edge">
<title>Node1&#45;&gt;Node5</title>
<path fill="none" stroke="midnightblue" d="M238,-112.08C238,-105.01 238,-94.86 238,-85.99"/>
<polygon fill="midnightblue" stroke="midnightblue" points="241.5,-85.75 238,-75.75 234.5,-85.75 241.5,-85.75"/>
</g>
<!-- Node6 -->
<g id="node6" class="node">
<title>Node6</title>
<g id="a_node6"><a xlink:title=" ">
<polygon fill="white" stroke="#bfbfbf" points="280,-56.5 280,-75.5 318,-75.5 318,-56.5 280,-56.5"/>
<text text-anchor="middle" x="299" y="-63.5" font-family="Helvetica,sans-Serif" font-size="10.00">map</text>
</a>
</g>
</g>
<!-- Node1&#45;&gt;Node6 -->
<g id="edge5" class="edge">
<title>Node1&#45;&gt;Node6</title>
<path fill="none" stroke="midnightblue" d="M247.8,-112.32C256.82,-104.34 270.41,-92.31 281.32,-82.65"/>
<polygon fill="midnightblue" stroke="midnightblue" points="283.85,-85.08 289.02,-75.83 279.21,-79.84 283.85,-85.08"/>
</g>
<!-- Node7 -->
<g id="node7" class="node">
<title>Node7</title>
<g id="a_node7"><a xlink:title=" ">
<polygon fill="white" stroke="#bfbfbf" points="336,-56.5 336,-75.5 368,-75.5 368,-56.5 336,-56.5"/>
<text text-anchor="middle" x="352" y="-63.5" font-family="Helvetica,sans-Serif" font-size="10.00">set</text>
</a>
</g>
</g>
<!-- Node1&#45;&gt;Node7 -->
<g id="edge6" class="edge">
<title>Node1&#45;&gt;Node7</title>
<path fill="none" stroke="midnightblue" d="M256.06,-112.44C275.12,-103.42 305.3,-89.12 326.71,-78.98"/>
<polygon fill="midnightblue" stroke="midnightblue" points="328.33,-82.09 335.86,-74.64 325.33,-75.76 328.33,-82.09"/>
</g>
<!-- Node8 -->
<g id="node8" class="node">
<title>Node8</title>
<g id="a_node8"><a xlink:href="nedxmldefs_8h.html" target="_top" xlink:title=" ">
<polygon fill="white" stroke="black" points="386.5,-56.5 386.5,-75.5 469.5,-75.5 469.5,-56.5 386.5,-56.5"/>
<text text-anchor="middle" x="428" y="-63.5" font-family="Helvetica,sans-Serif" font-size="10.00">nedxmldefs.h</text>
</a>
</g>
</g>
<!-- Node1&#45;&gt;Node8 -->
<g id="edge7" class="edge">
<title>Node1&#45;&gt;Node8</title>
<path fill="none" stroke="midnightblue" d="M268.11,-112.44C300.63,-103.2 352.58,-88.44 388.39,-78.26"/>
<polygon fill="midnightblue" stroke="midnightblue" points="389.37,-81.62 398.03,-75.52 387.46,-74.88 389.37,-81.62"/>
</g>
<!-- Node9 -->
<g id="node9" class="node">
<title>Node9</title>
<g id="a_node9"><a xlink:title=" ">
<polygon fill="white" stroke="#bfbfbf" points="352,-0.5 352,-19.5 504,-19.5 504,-0.5 352,-0.5"/>
<text text-anchor="middle" x="428" y="-7.5" font-family="Helvetica,sans-Serif" font-size="10.00">omnetpp/platdep/platdefs.h</text>
</a>
</g>
</g>
<!-- Node8&#45;&gt;Node9 -->
<g id="edge8" class="edge">
<title>Node8&#45;&gt;Node9</title>
<path fill="none" stroke="midnightblue" d="M428,-56.08C428,-49.01 428,-38.86 428,-29.99"/>
<polygon fill="midnightblue" stroke="midnightblue" points="431.5,-29.75 428,-19.75 424.5,-29.75 431.5,-29.75"/>
</g>
</g>
</svg>
