<?xml version="1.0" encoding="UTF-8" standalone="no"?>
<!DOCTYPE svg PUBLIC "-//W3C//DTD SVG 1.1//EN"
 "http://www.w3.org/Graphics/SVG/1.1/DTD/svg11.dtd">
<!-- Generated by graphviz version 2.43.0 (0)
 -->
<!-- Title: msgtypetable.h Pages: 1 -->
<svg width="268pt" height="140pt"
 viewBox="0.00 0.00 268.00 140.00" xmlns="http://www.w3.org/2000/svg" xmlns:xlink="http://www.w3.org/1999/xlink">
<g id="graph0" class="graph" transform="scale(1 1) rotate(0) translate(4 136)">
<title>msgtypetable.h</title>
<polygon fill="white" stroke="transparent" points="-4,4 -4,-136 264,-136 264,4 -4,4"/>
<!-- Node1 -->
<g id="node1" class="node">
<title>Node1</title>
<g id="a_node1"><a xlink:title=" ">
<polygon fill="#bfbfbf" stroke="black" points="69.5,-112.5 69.5,-131.5 162.5,-131.5 162.5,-112.5 69.5,-112.5"/>
<text text-anchor="middle" x="116" y="-119.5" font-family="Helvetica,sans-Serif" font-size="10.00">msgtypetable.h</text>
</a>
</g>
</g>
<!-- Node2 -->
<g id="node2" class="node">
<title>Node2</title>
<g id="a_node2"><a xlink:href="msganalyzer_8h.html" target="_top" xlink:title=" ">
<polygon fill="white" stroke="black" points="0,-56.5 0,-75.5 88,-75.5 88,-56.5 0,-56.5"/>
<text text-anchor="middle" x="44" y="-63.5" font-family="Helvetica,sans-Serif" font-size="10.00">msganalyzer.h</text>
</a>
</g>
</g>
<!-- Node1&#45;&gt;Node2 -->
<g id="edge1" class="edge">
<title>Node1&#45;&gt;Node2</title>
<path fill="none" stroke="midnightblue" d="M96.13,-106.1C83.18,-96.38 66.7,-84.03 55.78,-75.83"/>
<polygon fill="midnightblue" stroke="midnightblue" points="94.33,-109.12 104.43,-112.32 98.53,-103.52 94.33,-109.12"/>
</g>
<!-- Node3 -->
<g id="node3" class="node">
<title>Node3</title>
<g id="a_node3"><a xlink:href="msgcompiler_8h.html" target="_top" xlink:title=" ">
<polygon fill="white" stroke="black" points="71.5,-0.5 71.5,-19.5 160.5,-19.5 160.5,-0.5 71.5,-0.5"/>
<text text-anchor="middle" x="116" y="-7.5" font-family="Helvetica,sans-Serif" font-size="10.00">msgcompiler.h</text>
</a>
</g>
</g>
<!-- Node1&#45;&gt;Node3 -->
<g id="edge5" class="edge">
<title>Node1&#45;&gt;Node3</title>
<path fill="none" stroke="midnightblue" d="M116,-102.35C116,-78.25 116,-37.31 116,-19.59"/>
<polygon fill="midnightblue" stroke="midnightblue" points="112.5,-102.37 116,-112.37 119.5,-102.37 112.5,-102.37"/>
</g>
<!-- Node4 -->
<g id="node4" class="node">
<title>Node4</title>
<g id="a_node4"><a xlink:href="msgcodegenerator_8h.html" target="_top" xlink:title=" ">
<polygon fill="white" stroke="black" points="144,-56.5 144,-75.5 260,-75.5 260,-56.5 144,-56.5"/>
<text text-anchor="middle" x="202" y="-63.5" font-family="Helvetica,sans-Serif" font-size="10.00">msgcodegenerator.h</text>
</a>
</g>
</g>
<!-- Node1&#45;&gt;Node4 -->
<g id="edge3" class="edge">
<title>Node1&#45;&gt;Node4</title>
<path fill="none" stroke="midnightblue" d="M138.45,-106.9C154.22,-97 174.81,-84.07 188.22,-75.65"/>
<polygon fill="midnightblue" stroke="midnightblue" points="136.43,-104.04 129.82,-112.32 140.15,-109.97 136.43,-104.04"/>
</g>
<!-- Node2&#45;&gt;Node3 -->
<g id="edge2" class="edge">
<title>Node2&#45;&gt;Node3</title>
<path fill="none" stroke="midnightblue" d="M63.87,-50.1C76.82,-40.38 93.3,-28.03 104.22,-19.83"/>
<polygon fill="midnightblue" stroke="midnightblue" points="61.47,-47.52 55.57,-56.32 65.67,-53.12 61.47,-47.52"/>
</g>
<!-- Node4&#45;&gt;Node3 -->
<g id="edge4" class="edge">
<title>Node4&#45;&gt;Node3</title>
<path fill="none" stroke="midnightblue" d="M179.55,-50.9C163.78,-41 143.19,-28.07 129.78,-19.65"/>
<polygon fill="midnightblue" stroke="midnightblue" points="177.85,-53.97 188.18,-56.32 181.57,-48.04 177.85,-53.97"/>
</g>
</g>
</svg>
