<?xml version="1.0" encoding="UTF-8" standalone="no"?>
<!DOCTYPE svg PUBLIC "-//W3C//DTD SVG 1.1//EN"
 "http://www.w3.org/Graphics/SVG/1.1/DTD/svg11.dtd">
<!-- Generated by graphviz version 2.43.0 (0)
 -->
<!-- Title: nedgenerator.h Pages: 1 -->
<svg width="385pt" height="140pt"
 viewBox="0.00 0.00 385.00 140.00" xmlns="http://www.w3.org/2000/svg" xmlns:xlink="http://www.w3.org/1999/xlink">
<g id="graph0" class="graph" transform="scale(1 1) rotate(0) translate(4 136)">
<title>nedgenerator.h</title>
<polygon fill="white" stroke="transparent" points="-4,4 -4,-136 381,-136 381,4 -4,4"/>
<!-- Node1 -->
<g id="node1" class="node">
<title>Node1</title>
<g id="a_node1"><a xlink:title=" ">
<polygon fill="#bfbfbf" stroke="black" points="135.5,-112.5 135.5,-131.5 225.5,-131.5 225.5,-112.5 135.5,-112.5"/>
<text text-anchor="middle" x="180.5" y="-119.5" font-family="Helvetica,sans-Serif" font-size="10.00">nedgenerator.h</text>
</a>
</g>
</g>
<!-- Node2 -->
<g id="node2" class="node">
<title>Node2</title>
<g id="a_node2"><a xlink:title=" ">
<polygon fill="white" stroke="#bfbfbf" points="65.5,-56.5 65.5,-75.5 125.5,-75.5 125.5,-56.5 65.5,-56.5"/>
<text text-anchor="middle" x="95.5" y="-63.5" font-family="Helvetica,sans-Serif" font-size="10.00">iostream</text>
</a>
</g>
</g>
<!-- Node1&#45;&gt;Node2 -->
<g id="edge1" class="edge">
<title>Node1&#45;&gt;Node2</title>
<path fill="none" stroke="midnightblue" d="M166.84,-112.32C153.58,-103.9 133.23,-90.97 117.65,-81.07"/>
<polygon fill="midnightblue" stroke="midnightblue" points="119.44,-78.06 109.12,-75.65 115.69,-83.97 119.44,-78.06"/>
</g>
<!-- Node3 -->
<g id="node3" class="node">
<title>Node3</title>
<g id="a_node3"><a xlink:href="errorstore_8h.html" target="_top" xlink:title=" ">
<polygon fill="white" stroke="black" points="143.5,-56.5 143.5,-75.5 217.5,-75.5 217.5,-56.5 143.5,-56.5"/>
<text text-anchor="middle" x="180.5" y="-63.5" font-family="Helvetica,sans-Serif" font-size="10.00">errorstore.h</text>
</a>
</g>
</g>
<!-- Node1&#45;&gt;Node3 -->
<g id="edge2" class="edge">
<title>Node1&#45;&gt;Node3</title>
<path fill="none" stroke="midnightblue" d="M180.5,-112.08C180.5,-105.01 180.5,-94.86 180.5,-85.99"/>
<polygon fill="midnightblue" stroke="midnightblue" points="184,-85.75 180.5,-75.75 177,-85.75 184,-85.75"/>
</g>
<!-- Node10 -->
<g id="node9" class="node">
<title>Node10</title>
<g id="a_node9"><a xlink:title=" ">
<polygon fill="white" stroke="#bfbfbf" points="236,-56.5 236,-75.5 325,-75.5 325,-56.5 236,-56.5"/>
<text text-anchor="middle" x="280.5" y="-63.5" font-family="Helvetica,sans-Serif" font-size="10.00">nedelements.h</text>
</a>
</g>
</g>
<!-- Node1&#45;&gt;Node10 -->
<g id="edge8" class="edge">
<title>Node1&#45;&gt;Node10</title>
<path fill="none" stroke="midnightblue" d="M196.57,-112.32C212.46,-103.74 237.01,-90.49 255.46,-80.52"/>
<polygon fill="midnightblue" stroke="midnightblue" points="257.34,-83.49 264.47,-75.65 254.01,-77.33 257.34,-83.49"/>
</g>
<!-- Node4 -->
<g id="node4" class="node">
<title>Node4</title>
<g id="a_node4"><a xlink:title=" ">
<polygon fill="white" stroke="#bfbfbf" points="0,-0.5 0,-19.5 47,-19.5 47,-0.5 0,-0.5"/>
<text text-anchor="middle" x="23.5" y="-7.5" font-family="Helvetica,sans-Serif" font-size="10.00">vector</text>
</a>
</g>
</g>
<!-- Node3&#45;&gt;Node4 -->
<g id="edge3" class="edge">
<title>Node3&#45;&gt;Node4</title>
<path fill="none" stroke="midnightblue" d="M155.62,-56.44C128.9,-47.25 86.3,-32.6 56.72,-22.43"/>
<polygon fill="midnightblue" stroke="midnightblue" points="57.83,-19.11 47.23,-19.16 55.55,-25.73 57.83,-19.11"/>
</g>
<!-- Node5 -->
<g id="node5" class="node">
<title>Node5</title>
<g id="a_node5"><a xlink:title=" ">
<polygon fill="white" stroke="#bfbfbf" points="65,-0.5 65,-19.5 130,-19.5 130,-0.5 65,-0.5"/>
<text text-anchor="middle" x="97.5" y="-7.5" font-family="Helvetica,sans-Serif" font-size="10.00">exception</text>
</a>
</g>
</g>
<!-- Node3&#45;&gt;Node5 -->
<g id="edge4" class="edge">
<title>Node3&#45;&gt;Node5</title>
<path fill="none" stroke="midnightblue" d="M167.16,-56.32C154.34,-47.98 134.72,-35.21 119.56,-25.35"/>
<polygon fill="midnightblue" stroke="midnightblue" points="121.09,-22.17 110.8,-19.65 117.28,-28.04 121.09,-22.17"/>
</g>
<!-- Node6 -->
<g id="node6" class="node">
<title>Node6</title>
<g id="a_node6"><a xlink:title=" ">
<polygon fill="white" stroke="#bfbfbf" points="148,-0.5 148,-19.5 213,-19.5 213,-0.5 148,-0.5"/>
<text text-anchor="middle" x="180.5" y="-7.5" font-family="Helvetica,sans-Serif" font-size="10.00">stdexcept</text>
</a>
</g>
</g>
<!-- Node3&#45;&gt;Node6 -->
<g id="edge5" class="edge">
<title>Node3&#45;&gt;Node6</title>
<path fill="none" stroke="midnightblue" d="M180.5,-56.08C180.5,-49.01 180.5,-38.86 180.5,-29.99"/>
<polygon fill="midnightblue" stroke="midnightblue" points="184,-29.75 180.5,-19.75 177,-29.75 184,-29.75"/>
</g>
<!-- Node7 -->
<g id="node7" class="node">
<title>Node7</title>
<g id="a_node7"><a xlink:title=" ">
<polygon fill="white" stroke="#bfbfbf" points="231.5,-0.5 231.5,-19.5 275.5,-19.5 275.5,-0.5 231.5,-0.5"/>
<text text-anchor="middle" x="253.5" y="-7.5" font-family="Helvetica,sans-Serif" font-size="10.00">string</text>
</a>
</g>
</g>
<!-- Node3&#45;&gt;Node7 -->
<g id="edge6" class="edge">
<title>Node3&#45;&gt;Node7</title>
<path fill="none" stroke="midnightblue" d="M192.23,-56.32C203.34,-48.11 220.24,-35.6 233.48,-25.81"/>
<polygon fill="midnightblue" stroke="midnightblue" points="235.6,-28.59 241.56,-19.83 231.44,-22.97 235.6,-28.59"/>
</g>
<!-- Node8 -->
<g id="node8" class="node">
<title>Node8</title>
<g id="a_node8"><a xlink:href="nedxmldefs_8h.html" target="_top" xlink:title=" ">
<polygon fill="white" stroke="red" points="294,-0.5 294,-19.5 377,-19.5 377,-0.5 294,-0.5"/>
<text text-anchor="middle" x="335.5" y="-7.5" font-family="Helvetica,sans-Serif" font-size="10.00">nedxmldefs.h</text>
</a>
</g>
</g>
<!-- Node3&#45;&gt;Node8 -->
<g id="edge7" class="edge">
<title>Node3&#45;&gt;Node8</title>
<path fill="none" stroke="midnightblue" d="M205.06,-56.44C231.02,-47.4 272.17,-33.06 301.3,-22.92"/>
<polygon fill="midnightblue" stroke="midnightblue" points="302.76,-26.11 311.05,-19.52 300.46,-19.5 302.76,-26.11"/>
</g>
</g>
</svg>
