<?xml version="1.0" encoding="UTF-8" standalone="no"?>
<!DOCTYPE svg PUBLIC "-//W3C//DTD SVG 1.1//EN"
 "http://www.w3.org/Graphics/SVG/1.1/DTD/svg11.dtd">
<!-- Generated by graphviz version 2.43.0 (0)
 -->
<!-- Title: nedresourcecache.h Pages: 1 -->
<svg width="504pt" height="140pt"
 viewBox="0.00 0.00 503.50 140.00" xmlns="http://www.w3.org/2000/svg" xmlns:xlink="http://www.w3.org/1999/xlink">
<g id="graph0" class="graph" transform="scale(1 1) rotate(0) translate(4 136)">
<title>nedresourcecache.h</title>
<polygon fill="white" stroke="transparent" points="-4,4 -4,-136 499.5,-136 499.5,4 -4,4"/>
<!-- Node1 -->
<g id="node1" class="node">
<title>Node1</title>
<g id="a_node1"><a xlink:title=" ">
<polygon fill="#bfbfbf" stroke="black" points="79,-112.5 79,-131.5 193,-131.5 193,-112.5 79,-112.5"/>
<text text-anchor="middle" x="136" y="-119.5" font-family="Helvetica,sans-Serif" font-size="10.00">nedresourcecache.h</text>
</a>
</g>
</g>
<!-- Node2 -->
<g id="node2" class="node">
<title>Node2</title>
<g id="a_node2"><a xlink:title=" ">
<polygon fill="white" stroke="#bfbfbf" points="0,-0.5 0,-19.5 38,-19.5 38,-0.5 0,-0.5"/>
<text text-anchor="middle" x="19" y="-7.5" font-family="Helvetica,sans-Serif" font-size="10.00">map</text>
</a>
</g>
</g>
<!-- Node1&#45;&gt;Node2 -->
<g id="edge1" class="edge">
<title>Node1&#45;&gt;Node2</title>
<path fill="none" stroke="midnightblue" d="M126.82,-112.37C107.17,-93.89 60.79,-50.29 35.75,-26.74"/>
<polygon fill="midnightblue" stroke="midnightblue" points="37.82,-23.89 28.14,-19.59 33.03,-28.99 37.82,-23.89"/>
</g>
<!-- Node3 -->
<g id="node3" class="node">
<title>Node3</title>
<g id="a_node3"><a xlink:title=" ">
<polygon fill="white" stroke="#bfbfbf" points="56.5,-0.5 56.5,-19.5 103.5,-19.5 103.5,-0.5 56.5,-0.5"/>
<text text-anchor="middle" x="80" y="-7.5" font-family="Helvetica,sans-Serif" font-size="10.00">vector</text>
</a>
</g>
</g>
<!-- Node1&#45;&gt;Node3 -->
<g id="edge2" class="edge">
<title>Node1&#45;&gt;Node3</title>
<path fill="none" stroke="midnightblue" d="M131.61,-112.37C122.45,-94.38 101.15,-52.55 88.97,-28.63"/>
<polygon fill="midnightblue" stroke="midnightblue" points="92.03,-26.92 84.37,-19.59 85.79,-30.09 92.03,-26.92"/>
</g>
<!-- Node4 -->
<g id="node4" class="node">
<title>Node4</title>
<g id="a_node4"><a xlink:title=" ">
<polygon fill="white" stroke="#bfbfbf" points="122,-0.5 122,-19.5 166,-19.5 166,-0.5 122,-0.5"/>
<text text-anchor="middle" x="144" y="-7.5" font-family="Helvetica,sans-Serif" font-size="10.00">string</text>
</a>
</g>
</g>
<!-- Node1&#45;&gt;Node4 -->
<g id="edge3" class="edge">
<title>Node1&#45;&gt;Node4</title>
<path fill="none" stroke="midnightblue" d="M136.63,-112.37C137.92,-94.62 140.9,-53.67 142.65,-29.6"/>
<polygon fill="midnightblue" stroke="midnightblue" points="146.14,-29.82 143.38,-19.59 139.16,-29.31 146.14,-29.82"/>
</g>
<!-- Node5 -->
<g id="node5" class="node">
<title>Node5</title>
<g id="a_node5"><a xlink:title=" ">
<polygon fill="white" stroke="#bfbfbf" points="406.5,-0.5 406.5,-19.5 495.5,-19.5 495.5,-0.5 406.5,-0.5"/>
<text text-anchor="middle" x="451" y="-7.5" font-family="Helvetica,sans-Serif" font-size="10.00">nedelements.h</text>
</a>
</g>
</g>
<!-- Node1&#45;&gt;Node5 -->
<g id="edge4" class="edge">
<title>Node1&#45;&gt;Node5</title>
<path fill="none" stroke="midnightblue" d="M160.46,-112.46C216.16,-93.01 352.62,-45.36 416.7,-22.98"/>
<polygon fill="midnightblue" stroke="midnightblue" points="418.06,-26.21 426.34,-19.61 415.75,-19.6 418.06,-26.21"/>
</g>
<!-- Node6 -->
<g id="node6" class="node">
<title>Node6</title>
<g id="a_node6"><a xlink:href="nedtypeinfo_8h.html" target="_top" xlink:title=" ">
<polygon fill="white" stroke="black" points="164,-56.5 164,-75.5 248,-75.5 248,-56.5 164,-56.5"/>
<text text-anchor="middle" x="206" y="-63.5" font-family="Helvetica,sans-Serif" font-size="10.00">nedtypeinfo.h</text>
</a>
</g>
</g>
<!-- Node1&#45;&gt;Node6 -->
<g id="edge5" class="edge">
<title>Node1&#45;&gt;Node6</title>
<path fill="none" stroke="midnightblue" d="M147.25,-112.32C157.8,-104.18 173.8,-91.84 186.44,-82.09"/>
<polygon fill="midnightblue" stroke="midnightblue" points="188.77,-84.71 194.55,-75.83 184.49,-79.17 188.77,-84.71"/>
</g>
<!-- Node6&#45;&gt;Node2 -->
<g id="edge6" class="edge">
<title>Node6&#45;&gt;Node2</title>
<path fill="none" stroke="midnightblue" d="M174.53,-56.44C144.33,-48.16 97.22,-35.03 47.83,-20.18"/>
<polygon fill="midnightblue" stroke="midnightblue" points="48.84,-16.83 38.25,-17.29 46.81,-23.53 48.84,-16.83"/>
</g>
<!-- Node6&#45;&gt;Node3 -->
<g id="edge7" class="edge">
<title>Node6&#45;&gt;Node3</title>
<path fill="none" stroke="midnightblue" d="M186.03,-56.44C165.39,-47.6 132.94,-33.69 109.37,-23.59"/>
<polygon fill="midnightblue" stroke="midnightblue" points="110.44,-20.24 99.87,-19.52 107.68,-26.67 110.44,-20.24"/>
</g>
<!-- Node6&#45;&gt;Node4 -->
<g id="edge8" class="edge">
<title>Node6&#45;&gt;Node4</title>
<path fill="none" stroke="midnightblue" d="M196.04,-56.32C186.87,-48.34 173.06,-36.31 161.97,-26.65"/>
<polygon fill="midnightblue" stroke="midnightblue" points="163.98,-23.76 154.14,-19.83 159.38,-29.04 163.98,-23.76"/>
</g>
<!-- Node6&#45;&gt;Node5 -->
<g id="edge11" class="edge">
<title>Node6&#45;&gt;Node5</title>
<path fill="none" stroke="midnightblue" d="M244.82,-56.44C287.56,-47.02 356.33,-31.87 402.57,-21.68"/>
<polygon fill="midnightblue" stroke="midnightblue" points="403.35,-25.09 412.36,-19.52 401.84,-18.25 403.35,-25.09"/>
</g>
<!-- Node7 -->
<g id="node7" class="node">
<title>Node7</title>
<g id="a_node7"><a xlink:title=" ">
<polygon fill="white" stroke="#bfbfbf" points="184,-0.5 184,-19.5 240,-19.5 240,-0.5 184,-0.5"/>
<text text-anchor="middle" x="212" y="-7.5" font-family="Helvetica,sans-Serif" font-size="10.00">optional</text>
</a>
</g>
</g>
<!-- Node6&#45;&gt;Node7 -->
<g id="edge9" class="edge">
<title>Node6&#45;&gt;Node7</title>
<path fill="none" stroke="midnightblue" d="M206.99,-56.08C207.79,-48.93 208.93,-38.64 209.92,-29.69"/>
<polygon fill="midnightblue" stroke="midnightblue" points="213.4,-30.08 211.03,-19.75 206.44,-29.3 213.4,-30.08"/>
</g>
<!-- Node8 -->
<g id="node8" class="node">
<title>Node8</title>
<g id="a_node8"><a xlink:title=" ">
<polygon fill="white" stroke="#bfbfbf" points="258,-0.5 258,-19.5 388,-19.5 388,-0.5 258,-0.5"/>
<text text-anchor="middle" x="323" y="-7.5" font-family="Helvetica,sans-Serif" font-size="10.00">common/commonutil.h</text>
</a>
</g>
</g>
<!-- Node6&#45;&gt;Node8 -->
<g id="edge10" class="edge">
<title>Node6&#45;&gt;Node8</title>
<path fill="none" stroke="midnightblue" d="M224.54,-56.44C243.62,-47.64 273.57,-33.81 295.44,-23.72"/>
<polygon fill="midnightblue" stroke="midnightblue" points="296.93,-26.88 304.55,-19.52 294,-20.53 296.93,-26.88"/>
</g>
</g>
</svg>
