<?xml version="1.0" encoding="UTF-8" standalone="no"?>
<!DOCTYPE svg PUBLIC "-//W3C//DTD SVG 1.1//EN"
 "http://www.w3.org/Graphics/SVG/1.1/DTD/svg11.dtd">
<!-- Generated by graphviz version 2.43.0 (0)
 -->
<!-- Title: nedxmldefs.h Pages: 1 -->
<svg width="1732pt" height="196pt"
 viewBox="0.00 0.00 1732.00 196.00" xmlns="http://www.w3.org/2000/svg" xmlns:xlink="http://www.w3.org/1999/xlink">
<g id="graph0" class="graph" transform="scale(1 1) rotate(0) translate(4 192)">
<title>nedxmldefs.h</title>
<polygon fill="white" stroke="transparent" points="-4,4 -4,-192 1728,-192 1728,4 -4,4"/>
<!-- Node1 -->
<g id="node1" class="node">
<title>Node1</title>
<g id="a_node1"><a xlink:title=" ">
<polygon fill="#bfbfbf" stroke="black" points="1129,-168.5 1129,-187.5 1212,-187.5 1212,-168.5 1129,-168.5"/>
<text text-anchor="middle" x="1170.5" y="-175.5" font-family="Helvetica,sans-Serif" font-size="10.00">nedxmldefs.h</text>
</a>
</g>
</g>
<!-- Node2 -->
<g id="node2" class="node">
<title>Node2</title>
<g id="a_node2"><a xlink:href="errorstore_8h.html" target="_top" xlink:title=" ">
<polygon fill="white" stroke="black" points="791.5,-112.5 791.5,-131.5 865.5,-131.5 865.5,-112.5 791.5,-112.5"/>
<text text-anchor="middle" x="828.5" y="-119.5" font-family="Helvetica,sans-Serif" font-size="10.00">errorstore.h</text>
</a>
</g>
</g>
<!-- Node1&#45;&gt;Node2 -->
<g id="edge1" class="edge">
<title>Node1&#45;&gt;Node2</title>
<path fill="none" stroke="midnightblue" d="M1118.6,-168.81C1048.92,-157.8 926.8,-138.52 865.63,-128.86"/>
<polygon fill="midnightblue" stroke="midnightblue" points="1118.48,-172.33 1128.91,-170.43 1119.57,-165.42 1118.48,-172.33"/>
</g>
<!-- Node10 -->
<g id="node10" class="node">
<title>Node10</title>
<g id="a_node10"><a xlink:href="astnode_8h.html" target="_top" xlink:title=" ">
<polygon fill="white" stroke="black" points="267,-112.5 267,-131.5 332,-131.5 332,-112.5 267,-112.5"/>
<text text-anchor="middle" x="299.5" y="-119.5" font-family="Helvetica,sans-Serif" font-size="10.00">astnode.h</text>
</a>
</g>
</g>
<!-- Node1&#45;&gt;Node10 -->
<g id="edge11" class="edge">
<title>Node1&#45;&gt;Node10</title>
<path fill="none" stroke="midnightblue" d="M1118.61,-173.78C956.84,-163.75 464.58,-133.23 332.44,-125.04"/>
<polygon fill="midnightblue" stroke="midnightblue" points="1118.59,-177.29 1128.78,-174.41 1119.02,-170.3 1118.59,-177.29"/>
</g>
<!-- Node16 -->
<g id="node14" class="node">
<title>Node16</title>
<g id="a_node14"><a xlink:href="dtdvalidationutils_8h.html" target="_top" xlink:title=" ">
<polygon fill="white" stroke="black" points="1183,-112.5 1183,-131.5 1294,-131.5 1294,-112.5 1183,-112.5"/>
<text text-anchor="middle" x="1238.5" y="-119.5" font-family="Helvetica,sans-Serif" font-size="10.00">dtdvalidationutils.h</text>
</a>
</g>
</g>
<!-- Node1&#45;&gt;Node16 -->
<g id="edge17" class="edge">
<title>Node1&#45;&gt;Node16</title>
<path fill="none" stroke="midnightblue" d="M1189.26,-162.1C1201.5,-152.38 1217.06,-140.03 1227.38,-131.83"/>
<polygon fill="midnightblue" stroke="midnightblue" points="1187.08,-159.36 1181.43,-168.32 1191.43,-164.85 1187.08,-159.36"/>
</g>
<!-- Node17 -->
<g id="node15" class="node">
<title>Node17</title>
<g id="a_node15"><a xlink:href="exception_8h.html" target="_top" xlink:title=" ">
<polygon fill="white" stroke="black" points="1312.5,-112.5 1312.5,-131.5 1386.5,-131.5 1386.5,-112.5 1312.5,-112.5"/>
<text text-anchor="middle" x="1349.5" y="-119.5" font-family="Helvetica,sans-Serif" font-size="10.00">exception.h</text>
</a>
</g>
</g>
<!-- Node1&#45;&gt;Node17 -->
<g id="edge18" class="edge">
<title>Node1&#45;&gt;Node17</title>
<path fill="none" stroke="midnightblue" d="M1208.83,-165.44C1242.58,-155.26 1290.95,-140.66 1321.27,-131.52"/>
<polygon fill="midnightblue" stroke="midnightblue" points="1207.43,-162.2 1198.86,-168.44 1209.45,-168.91 1207.43,-162.2"/>
</g>
<!-- Node18 -->
<g id="node16" class="node">
<title>Node18</title>
<g id="a_node16"><a xlink:href="msgtypetable_8h.html" target="_top" xlink:title=" ">
<polygon fill="white" stroke="black" points="929,-112.5 929,-131.5 1022,-131.5 1022,-112.5 929,-112.5"/>
<text text-anchor="middle" x="975.5" y="-119.5" font-family="Helvetica,sans-Serif" font-size="10.00">msgtypetable.h</text>
</a>
</g>
</g>
<!-- Node1&#45;&gt;Node18 -->
<g id="edge19" class="edge">
<title>Node1&#45;&gt;Node18</title>
<path fill="none" stroke="midnightblue" d="M1129.69,-165.7C1092.89,-155.51 1039.57,-140.74 1006.25,-131.52"/>
<polygon fill="midnightblue" stroke="midnightblue" points="1129.03,-169.15 1139.6,-168.44 1130.9,-162.4 1129.03,-169.15"/>
</g>
<!-- Node19 -->
<g id="node17" class="node">
<title>Node19</title>
<g id="a_node17"><a xlink:href="msgcompileroptions_8h.html" target="_top" xlink:title=" ">
<polygon fill="white" stroke="black" points="1040,-112.5 1040,-131.5 1165,-131.5 1165,-112.5 1040,-112.5"/>
<text text-anchor="middle" x="1102.5" y="-119.5" font-family="Helvetica,sans-Serif" font-size="10.00">msgcompileroptions.h</text>
</a>
</g>
</g>
<!-- Node1&#45;&gt;Node19 -->
<g id="edge23" class="edge">
<title>Node1&#45;&gt;Node19</title>
<path fill="none" stroke="midnightblue" d="M1151.74,-162.1C1139.5,-152.38 1123.94,-140.03 1113.62,-131.83"/>
<polygon fill="midnightblue" stroke="midnightblue" points="1149.57,-164.85 1159.57,-168.32 1153.92,-159.36 1149.57,-164.85"/>
</g>
<!-- Node20 -->
<g id="node18" class="node">
<title>Node20</title>
<g id="a_node18"><a xlink:href="yydefs_8h.html" target="_top" xlink:title=" ">
<polygon fill="white" stroke="black" points="498,-112.5 498,-131.5 557,-131.5 557,-112.5 498,-112.5"/>
<text text-anchor="middle" x="527.5" y="-119.5" font-family="Helvetica,sans-Serif" font-size="10.00">yydefs.h</text>
</a>
</g>
</g>
<!-- Node1&#45;&gt;Node20 -->
<g id="edge26" class="edge">
<title>Node1&#45;&gt;Node20</title>
<path fill="none" stroke="midnightblue" d="M1118.8,-172.66C990.02,-161.84 658.02,-133.96 557.06,-125.48"/>
<polygon fill="midnightblue" stroke="midnightblue" points="1118.55,-176.15 1128.81,-173.5 1119.13,-169.17 1118.55,-176.15"/>
</g>
<!-- Node23 -->
<g id="node21" class="node">
<title>Node23</title>
<g id="a_node21"><a xlink:href="opp__msgtool_8h.html" target="_top" xlink:title=" ">
<polygon fill="white" stroke="black" points="1405,-112.5 1405,-131.5 1494,-131.5 1494,-112.5 1405,-112.5"/>
<text text-anchor="middle" x="1449.5" y="-119.5" font-family="Helvetica,sans-Serif" font-size="10.00">opp_msgtool.h</text>
</a>
</g>
</g>
<!-- Node1&#45;&gt;Node23 -->
<g id="edge30" class="edge">
<title>Node1&#45;&gt;Node23</title>
<path fill="none" stroke="midnightblue" d="M1222.4,-166.96C1274.97,-156.78 1355.44,-141.21 1405.14,-131.59"/>
<polygon fill="midnightblue" stroke="midnightblue" points="1221.42,-163.58 1212.27,-168.92 1222.75,-170.45 1221.42,-163.58"/>
</g>
<!-- Node24 -->
<g id="node22" class="node">
<title>Node24</title>
<g id="a_node22"><a xlink:href="opp__nedtool_8h.html" target="_top" xlink:title=" ">
<polygon fill="white" stroke="black" points="1512.5,-112.5 1512.5,-131.5 1598.5,-131.5 1598.5,-112.5 1512.5,-112.5"/>
<text text-anchor="middle" x="1555.5" y="-119.5" font-family="Helvetica,sans-Serif" font-size="10.00">opp_nedtool.h</text>
</a>
</g>
</g>
<!-- Node1&#45;&gt;Node24 -->
<g id="edge31" class="edge">
<title>Node1&#45;&gt;Node24</title>
<path fill="none" stroke="midnightblue" d="M1222.17,-170.62C1287.71,-162.39 1404.17,-147.3 1503.5,-132 1506.4,-131.55 1509.38,-131.08 1512.39,-130.59"/>
<polygon fill="midnightblue" stroke="midnightblue" points="1221.59,-167.17 1212.1,-171.88 1222.46,-174.11 1221.59,-167.17"/>
</g>
<!-- Node25 -->
<g id="node23" class="node">
<title>Node25</title>
<g id="a_node23"><a xlink:href="sourcedocument_8h.html" target="_top" xlink:title=" ">
<polygon fill="white" stroke="black" points="1617,-112.5 1617,-131.5 1724,-131.5 1724,-112.5 1617,-112.5"/>
<text text-anchor="middle" x="1670.5" y="-119.5" font-family="Helvetica,sans-Serif" font-size="10.00">sourcedocument.h</text>
</a>
</g>
</g>
<!-- Node1&#45;&gt;Node25 -->
<g id="edge32" class="edge">
<title>Node1&#45;&gt;Node25</title>
<path fill="none" stroke="midnightblue" d="M1222.18,-172.34C1304.03,-164.81 1468.48,-149.08 1607.5,-132 1610.57,-131.62 1613.72,-131.22 1616.9,-130.8"/>
<polygon fill="midnightblue" stroke="midnightblue" points="1221.78,-168.86 1212.14,-173.26 1222.41,-175.83 1221.78,-168.86"/>
</g>
<!-- Node3 -->
<g id="node3" class="node">
<title>Node3</title>
<g id="a_node3"><a xlink:href="astbuilder_8h.html" target="_top" xlink:title=" ">
<polygon fill="white" stroke="black" points="349.5,-56.5 349.5,-75.5 423.5,-75.5 423.5,-56.5 349.5,-56.5"/>
<text text-anchor="middle" x="386.5" y="-63.5" font-family="Helvetica,sans-Serif" font-size="10.00">astbuilder.h</text>
</a>
</g>
</g>
<!-- Node2&#45;&gt;Node3 -->
<g id="edge2" class="edge">
<title>Node2&#45;&gt;Node3</title>
<path fill="none" stroke="midnightblue" d="M781.25,-116.86C706.83,-110.07 557.9,-95.36 432.5,-76 429.6,-75.55 426.61,-75.05 423.61,-74.53"/>
<polygon fill="midnightblue" stroke="midnightblue" points="780.97,-120.35 791.24,-117.77 781.6,-113.38 780.97,-120.35"/>
</g>
<!-- Node4 -->
<g id="node4" class="node">
<title>Node4</title>
<g id="a_node4"><a xlink:href="msganalyzer_8h.html" target="_top" xlink:title=" ">
<polygon fill="white" stroke="black" points="1074.5,-56.5 1074.5,-75.5 1162.5,-75.5 1162.5,-56.5 1074.5,-56.5"/>
<text text-anchor="middle" x="1118.5" y="-63.5" font-family="Helvetica,sans-Serif" font-size="10.00">msganalyzer.h</text>
</a>
</g>
</g>
<!-- Node2&#45;&gt;Node4 -->
<g id="edge3" class="edge">
<title>Node2&#45;&gt;Node4</title>
<path fill="none" stroke="midnightblue" d="M875.68,-112.22C930.55,-102 1020.45,-85.26 1074.11,-75.27"/>
<polygon fill="midnightblue" stroke="midnightblue" points="874.71,-108.83 865.52,-114.11 876,-115.72 874.71,-108.83"/>
</g>
<!-- Node5 -->
<g id="node5" class="node">
<title>Node5</title>
<g id="a_node5"><a xlink:href="msgcompiler_8h.html" target="_top" xlink:title=" ">
<polygon fill="white" stroke="black" points="1002,-0.5 1002,-19.5 1091,-19.5 1091,-0.5 1002,-0.5"/>
<text text-anchor="middle" x="1046.5" y="-7.5" font-family="Helvetica,sans-Serif" font-size="10.00">msgcompiler.h</text>
</a>
</g>
</g>
<!-- Node2&#45;&gt;Node5 -->
<g id="edge7" class="edge">
<title>Node2&#45;&gt;Node5</title>
<path fill="none" stroke="midnightblue" d="M841.16,-104.25C853.13,-89.53 872.36,-68.55 893.5,-56 927.07,-36.07 970.07,-24.44 1001.94,-18.02"/>
<polygon fill="midnightblue" stroke="midnightblue" points="838.12,-102.45 834.7,-112.48 843.63,-106.78 838.12,-102.45"/>
</g>
<!-- Node6 -->
<g id="node6" class="node">
<title>Node6</title>
<g id="a_node6"><a xlink:href="msgcodegenerator_8h.html" target="_top" xlink:title=" ">
<polygon fill="white" stroke="black" points="902.5,-56.5 902.5,-75.5 1018.5,-75.5 1018.5,-56.5 902.5,-56.5"/>
<text text-anchor="middle" x="960.5" y="-63.5" font-family="Helvetica,sans-Serif" font-size="10.00">msgcodegenerator.h</text>
</a>
</g>
</g>
<!-- Node2&#45;&gt;Node6 -->
<g id="edge5" class="edge">
<title>Node2&#45;&gt;Node6</title>
<path fill="none" stroke="midnightblue" d="M858.72,-108.64C883.49,-98.5 917.9,-84.43 939.68,-75.52"/>
<polygon fill="midnightblue" stroke="midnightblue" points="857.35,-105.42 849.42,-112.44 860,-111.9 857.35,-105.42"/>
</g>
<!-- Node7 -->
<g id="node7" class="node">
<title>Node7</title>
<g id="a_node7"><a xlink:href="msggenerator_8h.html" target="_top" xlink:title=" ">
<polygon fill="white" stroke="black" points="753,-56.5 753,-75.5 846,-75.5 846,-56.5 753,-56.5"/>
<text text-anchor="middle" x="799.5" y="-63.5" font-family="Helvetica,sans-Serif" font-size="10.00">msggenerator.h</text>
</a>
</g>
</g>
<!-- Node2&#45;&gt;Node7 -->
<g id="edge8" class="edge">
<title>Node2&#45;&gt;Node7</title>
<path fill="none" stroke="midnightblue" d="M818.82,-102.98C813.9,-93.82 808.14,-83.09 804.2,-75.75"/>
<polygon fill="midnightblue" stroke="midnightblue" points="815.9,-104.93 823.71,-112.08 822.06,-101.62 815.9,-104.93"/>
</g>
<!-- Node8 -->
<g id="node8" class="node">
<title>Node8</title>
<g id="a_node8"><a xlink:href="nedgenerator_8h.html" target="_top" xlink:title=" ">
<polygon fill="white" stroke="black" points="644.5,-56.5 644.5,-75.5 734.5,-75.5 734.5,-56.5 644.5,-56.5"/>
<text text-anchor="middle" x="689.5" y="-63.5" font-family="Helvetica,sans-Serif" font-size="10.00">nedgenerator.h</text>
</a>
</g>
</g>
<!-- Node2&#45;&gt;Node8 -->
<g id="edge9" class="edge">
<title>Node2&#45;&gt;Node8</title>
<path fill="none" stroke="midnightblue" d="M797.02,-108.77C770.91,-98.63 734.46,-84.47 711.42,-75.52"/>
<polygon fill="midnightblue" stroke="midnightblue" points="795.89,-112.08 806.48,-112.44 798.42,-105.56 795.89,-112.08"/>
</g>
<!-- Node9 -->
<g id="node9" class="node">
<title>Node9</title>
<g id="a_node9"><a xlink:href="xmlastparser_8h.html" target="_top" xlink:title=" ">
<polygon fill="white" stroke="black" points="442,-56.5 442,-75.5 531,-75.5 531,-56.5 442,-56.5"/>
<text text-anchor="middle" x="486.5" y="-63.5" font-family="Helvetica,sans-Serif" font-size="10.00">xmlastparser.h</text>
</a>
</g>
</g>
<!-- Node2&#45;&gt;Node9 -->
<g id="edge10" class="edge">
<title>Node2&#45;&gt;Node9</title>
<path fill="none" stroke="midnightblue" d="M780.86,-113.79C723.55,-105.06 624.43,-89.82 539.5,-76 536.74,-75.55 533.89,-75.08 531.03,-74.61"/>
<polygon fill="midnightblue" stroke="midnightblue" points="780.65,-117.3 791.06,-115.34 781.7,-110.38 780.65,-117.3"/>
</g>
<!-- Node4&#45;&gt;Node5 -->
<g id="edge4" class="edge">
<title>Node4&#45;&gt;Node5</title>
<path fill="none" stroke="midnightblue" d="M1098.63,-50.1C1085.68,-40.38 1069.2,-28.03 1058.28,-19.83"/>
<polygon fill="midnightblue" stroke="midnightblue" points="1096.83,-53.12 1106.93,-56.32 1101.03,-47.52 1096.83,-53.12"/>
</g>
<!-- Node6&#45;&gt;Node5 -->
<g id="edge6" class="edge">
<title>Node6&#45;&gt;Node5</title>
<path fill="none" stroke="midnightblue" d="M982.95,-50.9C998.72,-41 1019.31,-28.07 1032.72,-19.65"/>
<polygon fill="midnightblue" stroke="midnightblue" points="980.93,-48.04 974.32,-56.32 984.65,-53.97 980.93,-48.04"/>
</g>
<!-- Node10&#45;&gt;Node3 -->
<g id="edge12" class="edge">
<title>Node10&#45;&gt;Node3</title>
<path fill="none" stroke="midnightblue" d="M322.22,-106.9C338.17,-97 359,-84.07 372.56,-75.65"/>
<polygon fill="midnightblue" stroke="midnightblue" points="320.13,-104.08 313.48,-112.32 323.82,-110.02 320.13,-104.08"/>
</g>
<!-- Node10&#45;&gt;Node9 -->
<g id="edge15" class="edge">
<title>Node10&#45;&gt;Node9</title>
<path fill="none" stroke="midnightblue" d="M339.09,-109.57C374.37,-99.38 425.19,-84.7 457.01,-75.52"/>
<polygon fill="midnightblue" stroke="midnightblue" points="337.77,-106.31 329.13,-112.44 339.71,-113.03 337.77,-106.31"/>
</g>
<!-- Node11 -->
<g id="node11" class="node">
<title>Node11</title>
<g id="a_node11"><a xlink:href="yyutil_8h.html" target="_top" xlink:title=" ">
<polygon fill="white" stroke="red" points="186,-56.5 186,-75.5 239,-75.5 239,-56.5 186,-56.5"/>
<text text-anchor="middle" x="212.5" y="-63.5" font-family="Helvetica,sans-Serif" font-size="10.00">yyutil.h</text>
</a>
</g>
</g>
<!-- Node10&#45;&gt;Node11 -->
<g id="edge13" class="edge">
<title>Node10&#45;&gt;Node11</title>
<path fill="none" stroke="midnightblue" d="M276.78,-106.9C260.83,-97 240,-84.07 226.44,-75.65"/>
<polygon fill="midnightblue" stroke="midnightblue" points="275.18,-110.02 285.52,-112.32 278.87,-104.08 275.18,-110.02"/>
</g>
<!-- Node14 -->
<g id="node12" class="node">
<title>Node14</title>
<g id="a_node12"><a xlink:href="nedutil_8h.html" target="_top" xlink:title=" ">
<polygon fill="white" stroke="black" points="0,-56.5 0,-75.5 59,-75.5 59,-56.5 0,-56.5"/>
<text text-anchor="middle" x="29.5" y="-63.5" font-family="Helvetica,sans-Serif" font-size="10.00">nedutil.h</text>
</a>
</g>
</g>
<!-- Node10&#45;&gt;Node14 -->
<g id="edge14" class="edge">
<title>Node10&#45;&gt;Node14</title>
<path fill="none" stroke="midnightblue" d="M256.71,-113.24C210.08,-104.66 133.32,-90.17 67.5,-76 64.85,-75.43 62.1,-74.82 59.34,-74.19"/>
<polygon fill="midnightblue" stroke="midnightblue" points="256.29,-116.72 266.76,-115.09 257.55,-109.84 256.29,-116.72"/>
</g>
<!-- Node15 -->
<g id="node13" class="node">
<title>Node15</title>
<g id="a_node13"><a xlink:href="xmlgenerator_8h.html" target="_top" xlink:title=" ">
<polygon fill="white" stroke="black" points="77,-56.5 77,-75.5 168,-75.5 168,-56.5 77,-56.5"/>
<text text-anchor="middle" x="122.5" y="-63.5" font-family="Helvetica,sans-Serif" font-size="10.00">xmlgenerator.h</text>
</a>
</g>
</g>
<!-- Node10&#45;&gt;Node15 -->
<g id="edge16" class="edge">
<title>Node10&#45;&gt;Node15</title>
<path fill="none" stroke="midnightblue" d="M261.6,-109.44C228.22,-99.26 180.4,-84.66 150.41,-75.52"/>
<polygon fill="midnightblue" stroke="midnightblue" points="260.87,-112.87 271.45,-112.44 262.91,-106.18 260.87,-112.87"/>
</g>
<!-- Node18&#45;&gt;Node4 -->
<g id="edge20" class="edge">
<title>Node18&#45;&gt;Node4</title>
<path fill="none" stroke="midnightblue" d="M1007.53,-108.91C1034.41,-98.75 1072.14,-84.51 1095.95,-75.52"/>
<polygon fill="midnightblue" stroke="midnightblue" points="1006.28,-105.64 998.16,-112.44 1008.75,-112.19 1006.28,-105.64"/>
</g>
<!-- Node18&#45;&gt;Node5 -->
<g id="edge22" class="edge">
<title>Node18&#45;&gt;Node5</title>
<path fill="none" stroke="midnightblue" d="M997.71,-106.35C1008.1,-98.47 1019.84,-87.93 1027.5,-76 1039.06,-58 1043.79,-32.74 1045.55,-19.64"/>
<polygon fill="midnightblue" stroke="midnightblue" points="995.49,-103.63 989.42,-112.31 999.58,-109.32 995.49,-103.63"/>
</g>
<!-- Node18&#45;&gt;Node6 -->
<g id="edge21" class="edge">
<title>Node18&#45;&gt;Node6</title>
<path fill="none" stroke="midnightblue" d="M970.33,-102.4C967.82,-93.36 964.93,-82.94 962.93,-75.75"/>
<polygon fill="midnightblue" stroke="midnightblue" points="966.97,-103.38 973.02,-112.08 973.72,-101.51 966.97,-103.38"/>
</g>
<!-- Node19&#45;&gt;Node4 -->
<g id="edge24" class="edge">
<title>Node19&#45;&gt;Node4</title>
<path fill="none" stroke="midnightblue" d="M1108.01,-102.4C1110.69,-93.36 1113.78,-82.94 1115.91,-75.75"/>
<polygon fill="midnightblue" stroke="midnightblue" points="1104.63,-101.5 1105.14,-112.08 1111.34,-103.49 1104.63,-101.5"/>
</g>
<!-- Node19&#45;&gt;Node5 -->
<g id="edge25" class="edge">
<title>Node19&#45;&gt;Node5</title>
<path fill="none" stroke="midnightblue" d="M1133.44,-108.21C1158.04,-96.12 1186.1,-76.77 1171.5,-56 1153.46,-30.34 1119.31,-19.24 1091.26,-14.48"/>
<polygon fill="midnightblue" stroke="midnightblue" points="1131.86,-105.08 1124.27,-112.48 1134.81,-111.43 1131.86,-105.08"/>
</g>
<!-- Node20&#45;&gt;Node11 -->
<g id="edge28" class="edge">
<title>Node20&#45;&gt;Node11</title>
<path fill="none" stroke="midnightblue" d="M487.71,-115.67C433.41,-108.15 333.16,-93.38 248.5,-76 245.47,-75.38 242.31,-74.67 239.18,-73.94"/>
<polygon fill="midnightblue" stroke="midnightblue" points="487.24,-119.14 497.62,-117.03 488.19,-112.2 487.24,-119.14"/>
</g>
<!-- Node21 -->
<g id="node19" class="node">
<title>Node21</title>
<g id="a_node19"><a xlink:href="msgparser_8h.html" target="_top" xlink:title=" ">
<polygon fill="white" stroke="black" points="549,-56.5 549,-75.5 626,-75.5 626,-56.5 549,-56.5"/>
<text text-anchor="middle" x="587.5" y="-63.5" font-family="Helvetica,sans-Serif" font-size="10.00">msgparser.h</text>
</a>
</g>
</g>
<!-- Node20&#45;&gt;Node21 -->
<g id="edge27" class="edge">
<title>Node20&#45;&gt;Node21</title>
<path fill="none" stroke="midnightblue" d="M544.68,-105.54C555.38,-95.91 568.76,-83.87 577.68,-75.83"/>
<polygon fill="midnightblue" stroke="midnightblue" points="542.23,-103.03 537.14,-112.32 546.91,-108.24 542.23,-103.03"/>
</g>
<!-- Node22 -->
<g id="node20" class="node">
<title>Node22</title>
<g id="a_node20"><a xlink:href="nedparser_8h.html" target="_top" xlink:title=" ">
<polygon fill="white" stroke="black" points="257.5,-56.5 257.5,-75.5 331.5,-75.5 331.5,-56.5 257.5,-56.5"/>
<text text-anchor="middle" x="294.5" y="-63.5" font-family="Helvetica,sans-Serif" font-size="10.00">nedparser.h</text>
</a>
</g>
</g>
<!-- Node20&#45;&gt;Node22 -->
<g id="edge29" class="edge">
<title>Node20&#45;&gt;Node22</title>
<path fill="none" stroke="midnightblue" d="M487.99,-111.84C444.21,-101.7 374.16,-85.46 331.44,-75.56"/>
<polygon fill="midnightblue" stroke="midnightblue" points="487.46,-115.31 497.99,-114.16 489.04,-108.49 487.46,-115.31"/>
</g>
</g>
</svg>
