<?xml version="1.0" encoding="UTF-8" standalone="no"?>
<!DOCTYPE svg PUBLIC "-//W3C//DTD SVG 1.1//EN"
 "http://www.w3.org/Graphics/SVG/1.1/DTD/svg11.dtd">
<!-- Generated by graphviz version 2.43.0 (0)
 -->
<!-- Title: nedyyutil.h Pages: 1 -->
<svg width="195pt" height="196pt"
 viewBox="0.00 0.00 194.50 196.00" xmlns="http://www.w3.org/2000/svg" xmlns:xlink="http://www.w3.org/1999/xlink">
<g id="graph0" class="graph" transform="scale(1 1) rotate(0) translate(4 192)">
<title>nedyyutil.h</title>
<polygon fill="white" stroke="transparent" points="-4,4 -4,-192 190.5,-192 190.5,4 -4,4"/>
<!-- Node1 -->
<g id="node1" class="node">
<title>Node1</title>
<g id="a_node1"><a xlink:title=" ">
<polygon fill="#bfbfbf" stroke="black" points="61.5,-168.5 61.5,-187.5 132.5,-187.5 132.5,-168.5 61.5,-168.5"/>
<text text-anchor="middle" x="97" y="-175.5" font-family="Helvetica,sans-Serif" font-size="10.00">nedyyutil.h</text>
</a>
</g>
</g>
<!-- Node2 -->
<g id="node2" class="node">
<title>Node2</title>
<g id="a_node2"><a xlink:href="yyutil_8h.html" target="_top" xlink:title=" ">
<polygon fill="white" stroke="black" points="26.5,-112.5 26.5,-131.5 79.5,-131.5 79.5,-112.5 26.5,-112.5"/>
<text text-anchor="middle" x="53" y="-119.5" font-family="Helvetica,sans-Serif" font-size="10.00">yyutil.h</text>
</a>
</g>
</g>
<!-- Node1&#45;&gt;Node2 -->
<g id="edge1" class="edge">
<title>Node1&#45;&gt;Node2</title>
<path fill="none" stroke="midnightblue" d="M89.73,-168.08C83.46,-160.38 74.21,-149.03 66.57,-139.65"/>
<polygon fill="midnightblue" stroke="midnightblue" points="69.16,-137.29 60.13,-131.75 63.73,-141.71 69.16,-137.29"/>
</g>
<!-- Node9 -->
<g id="node6" class="node">
<title>Node9</title>
<g id="a_node6"><a xlink:title=" ">
<polygon fill="white" stroke="#bfbfbf" points="97.5,-112.5 97.5,-131.5 186.5,-131.5 186.5,-112.5 97.5,-112.5"/>
<text text-anchor="middle" x="142" y="-119.5" font-family="Helvetica,sans-Serif" font-size="10.00">nedelements.h</text>
</a>
</g>
</g>
<!-- Node1&#45;&gt;Node9 -->
<g id="edge6" class="edge">
<title>Node1&#45;&gt;Node9</title>
<path fill="none" stroke="midnightblue" d="M104.43,-168.08C110.85,-160.38 120.31,-149.03 128.12,-139.65"/>
<polygon fill="midnightblue" stroke="midnightblue" points="130.99,-141.67 134.71,-131.75 125.62,-137.19 130.99,-141.67"/>
</g>
<!-- Node3 -->
<g id="node3" class="node">
<title>Node3</title>
<g id="a_node3"><a xlink:title=" ">
<polygon fill="white" stroke="#bfbfbf" points="0,-0.5 0,-19.5 44,-19.5 44,-0.5 0,-0.5"/>
<text text-anchor="middle" x="22" y="-7.5" font-family="Helvetica,sans-Serif" font-size="10.00">string</text>
</a>
</g>
</g>
<!-- Node2&#45;&gt;Node3 -->
<g id="edge2" class="edge">
<title>Node2&#45;&gt;Node3</title>
<path fill="none" stroke="midnightblue" d="M40.79,-112.24C30.65,-104.14 16.96,-91.11 11,-76 5.04,-60.88 9.08,-42.53 13.86,-29.19"/>
<polygon fill="midnightblue" stroke="midnightblue" points="17.18,-30.3 17.67,-19.72 10.69,-27.69 17.18,-30.3"/>
</g>
<!-- Node4 -->
<g id="node4" class="node">
<title>Node4</title>
<g id="a_node4"><a xlink:href="astnode_8h.html" target="_top" xlink:title=" ">
<polygon fill="white" stroke="red" points="20.5,-56.5 20.5,-75.5 85.5,-75.5 85.5,-56.5 20.5,-56.5"/>
<text text-anchor="middle" x="53" y="-63.5" font-family="Helvetica,sans-Serif" font-size="10.00">astnode.h</text>
</a>
</g>
</g>
<!-- Node2&#45;&gt;Node4 -->
<g id="edge3" class="edge">
<title>Node2&#45;&gt;Node4</title>
<path fill="none" stroke="midnightblue" d="M53,-112.08C53,-105.01 53,-94.86 53,-85.99"/>
<polygon fill="midnightblue" stroke="midnightblue" points="56.5,-85.75 53,-75.75 49.5,-85.75 56.5,-85.75"/>
</g>
<!-- Node8 -->
<g id="node5" class="node">
<title>Node8</title>
<g id="a_node5"><a xlink:href="yydefs_8h.html" target="_top" xlink:title=" ">
<polygon fill="white" stroke="red" points="103.5,-56.5 103.5,-75.5 162.5,-75.5 162.5,-56.5 103.5,-56.5"/>
<text text-anchor="middle" x="133" y="-63.5" font-family="Helvetica,sans-Serif" font-size="10.00">yydefs.h</text>
</a>
</g>
</g>
<!-- Node2&#45;&gt;Node8 -->
<g id="edge5" class="edge">
<title>Node2&#45;&gt;Node8</title>
<path fill="none" stroke="midnightblue" d="M65.85,-112.32C78.22,-103.98 97.13,-91.21 111.74,-81.35"/>
<polygon fill="midnightblue" stroke="midnightblue" points="113.85,-84.15 120.18,-75.65 109.93,-78.35 113.85,-84.15"/>
</g>
<!-- Node4&#45;&gt;Node3 -->
<g id="edge4" class="edge">
<title>Node4&#45;&gt;Node3</title>
<path fill="none" stroke="midnightblue" d="M47.88,-56.08C43.59,-48.61 37.34,-37.72 32.06,-28.52"/>
<polygon fill="midnightblue" stroke="midnightblue" points="35.04,-26.68 27.02,-19.75 28.97,-30.17 35.04,-26.68"/>
</g>
</g>
</svg>
