<?xml version="1.0" encoding="UTF-8" standalone="no"?>
<!DOCTYPE svg PUBLIC "-//W3C//DTD SVG 1.1//EN"
 "http://www.w3.org/Graphics/SVG/1.1/DTD/svg11.dtd">
<!-- Generated by graphviz version 2.43.0 (0)
 -->
<!-- Title: ParseContext Pages: 1 -->
<svg width="192pt" height="95pt"
 viewBox="0.00 0.00 191.50 95.00" xmlns="http://www.w3.org/2000/svg" xmlns:xlink="http://www.w3.org/1999/xlink">
<g id="graph0" class="graph" transform="scale(1 1) rotate(0) translate(4 91)">
<title>ParseContext</title>
<polygon fill="white" stroke="transparent" points="-4,4 -4,-91 187.5,-91 187.5,4 -4,4"/>
<!-- Node1 -->
<g id="node1" class="node">
<title>Node1</title>
<g id="a_node1"><a xlink:title=" ">
<polygon fill="#bfbfbf" stroke="black" points="59.5,-0.5 59.5,-19.5 140.5,-19.5 140.5,-0.5 59.5,-0.5"/>
<text text-anchor="middle" x="100" y="-7.5" font-family="Helvetica,sans-Serif" font-size="10.00">ParseContext</text>
</a>
</g>
</g>
<!-- Node2 -->
<g id="node2" class="node">
<title>Node2</title>
<g id="a_node2"><a xlink:href="classomnetpp_1_1nedxml_1_1SourceDocument.html" target="_top" xlink:title="Stores the full text of a NED/MSG file.">
<polygon fill="white" stroke="black" points="0,-67.5 0,-86.5 100,-86.5 100,-67.5 0,-67.5"/>
<text text-anchor="middle" x="50" y="-74.5" font-family="Helvetica,sans-Serif" font-size="10.00">SourceDocument</text>
</a>
</g>
</g>
<!-- Node2&#45;&gt;Node1 -->
<g id="edge1" class="edge">
<title>Node2&#45;&gt;Node1</title>
<path fill="none" stroke="#9a32cd" stroke-dasharray="5,2" d="M62.87,-59.27C72.62,-46.6 85.61,-29.7 93.36,-19.63"/>
<polygon fill="#9a32cd" stroke="#9a32cd" points="60.07,-57.17 56.74,-67.23 65.61,-61.44 60.07,-57.17"/>
<text text-anchor="middle" x="96" y="-41" font-family="Helvetica,sans-Serif" font-size="10.00"> source</text>
</g>
<!-- Node3 -->
<g id="node3" class="node">
<title>Node3</title>
<g id="a_node3"><a xlink:href="classomnetpp_1_1nedxml_1_1ErrorStore.html" target="_top" xlink:title=" ">
<polygon fill="white" stroke="black" points="118.5,-67.5 118.5,-86.5 183.5,-86.5 183.5,-67.5 118.5,-67.5"/>
<text text-anchor="middle" x="151" y="-74.5" font-family="Helvetica,sans-Serif" font-size="10.00">ErrorStore</text>
</a>
</g>
</g>
<!-- Node3&#45;&gt;Node1 -->
<g id="edge2" class="edge">
<title>Node3&#45;&gt;Node1</title>
<path fill="none" stroke="#9a32cd" stroke-dasharray="5,2" d="M137.87,-59.27C127.93,-46.6 114.67,-29.7 106.77,-19.63"/>
<polygon fill="#9a32cd" stroke="#9a32cd" points="135.2,-61.53 144.12,-67.23 140.7,-57.21 135.2,-61.53"/>
<text text-anchor="middle" x="144" y="-41" font-family="Helvetica,sans-Serif" font-size="10.00"> errors</text>
</g>
</g>
</svg>
