<?xml version="1.0" encoding="UTF-8" standalone="no"?>
<!DOCTYPE svg PUBLIC "-//W3C//DTD SVG 1.1//EN"
 "http://www.w3.org/Graphics/SVG/1.1/DTD/svg11.dtd">
<!-- Generated by graphviz version 2.43.0 (0)
 -->
<!-- Title: xmlastparser.h Pages: 1 -->
<svg width="536pt" height="140pt"
 viewBox="0.00 0.00 535.50 140.00" xmlns="http://www.w3.org/2000/svg" xmlns:xlink="http://www.w3.org/1999/xlink">
<g id="graph0" class="graph" transform="scale(1 1) rotate(0) translate(4 136)">
<title>xmlastparser.h</title>
<polygon fill="white" stroke="transparent" points="-4,4 -4,-136 531.5,-136 531.5,4 -4,4"/>
<!-- Node1 -->
<g id="node1" class="node">
<title>Node1</title>
<g id="a_node1"><a xlink:title=" ">
<polygon fill="#bfbfbf" stroke="black" points="213,-112.5 213,-131.5 302,-131.5 302,-112.5 213,-112.5"/>
<text text-anchor="middle" x="257.5" y="-119.5" font-family="Helvetica,sans-Serif" font-size="10.00">xmlastparser.h</text>
</a>
</g>
</g>
<!-- Node2 -->
<g id="node2" class="node">
<title>Node2</title>
<g id="a_node2"><a xlink:href="errorstore_8h.html" target="_top" xlink:title=" ">
<polygon fill="white" stroke="black" points="176.5,-56.5 176.5,-75.5 250.5,-75.5 250.5,-56.5 176.5,-56.5"/>
<text text-anchor="middle" x="213.5" y="-63.5" font-family="Helvetica,sans-Serif" font-size="10.00">errorstore.h</text>
</a>
</g>
</g>
<!-- Node1&#45;&gt;Node2 -->
<g id="edge1" class="edge">
<title>Node1&#45;&gt;Node2</title>
<path fill="none" stroke="midnightblue" d="M250.23,-112.08C243.96,-104.38 234.71,-93.03 227.07,-83.65"/>
<polygon fill="midnightblue" stroke="midnightblue" points="229.66,-81.29 220.63,-75.75 224.23,-85.71 229.66,-81.29"/>
</g>
<!-- Node9 -->
<g id="node8" class="node">
<title>Node9</title>
<g id="a_node8"><a xlink:href="astnode_8h.html" target="_top" xlink:title=" ">
<polygon fill="white" stroke="black" points="286,-56.5 286,-75.5 351,-75.5 351,-56.5 286,-56.5"/>
<text text-anchor="middle" x="318.5" y="-63.5" font-family="Helvetica,sans-Serif" font-size="10.00">astnode.h</text>
</a>
</g>
</g>
<!-- Node1&#45;&gt;Node9 -->
<g id="edge7" class="edge">
<title>Node1&#45;&gt;Node9</title>
<path fill="none" stroke="midnightblue" d="M267.3,-112.32C276.32,-104.34 289.91,-92.31 300.82,-82.65"/>
<polygon fill="midnightblue" stroke="midnightblue" points="303.35,-85.08 308.52,-75.83 298.71,-79.84 303.35,-85.08"/>
</g>
<!-- Node3 -->
<g id="node3" class="node">
<title>Node3</title>
<g id="a_node3"><a xlink:title=" ">
<polygon fill="white" stroke="#bfbfbf" points="0,-0.5 0,-19.5 47,-19.5 47,-0.5 0,-0.5"/>
<text text-anchor="middle" x="23.5" y="-7.5" font-family="Helvetica,sans-Serif" font-size="10.00">vector</text>
</a>
</g>
</g>
<!-- Node2&#45;&gt;Node3 -->
<g id="edge2" class="edge">
<title>Node2&#45;&gt;Node3</title>
<path fill="none" stroke="midnightblue" d="M183.39,-56.44C149.01,-46.67 92.91,-30.73 57.13,-20.56"/>
<polygon fill="midnightblue" stroke="midnightblue" points="57.74,-17.09 47.16,-17.73 55.82,-23.83 57.74,-17.09"/>
</g>
<!-- Node4 -->
<g id="node4" class="node">
<title>Node4</title>
<g id="a_node4"><a xlink:title=" ">
<polygon fill="white" stroke="#bfbfbf" points="65,-0.5 65,-19.5 130,-19.5 130,-0.5 65,-0.5"/>
<text text-anchor="middle" x="97.5" y="-7.5" font-family="Helvetica,sans-Serif" font-size="10.00">exception</text>
</a>
</g>
</g>
<!-- Node2&#45;&gt;Node4 -->
<g id="edge3" class="edge">
<title>Node2&#45;&gt;Node4</title>
<path fill="none" stroke="midnightblue" d="M195.12,-56.44C176.28,-47.68 146.77,-33.94 125.12,-23.86"/>
<polygon fill="midnightblue" stroke="midnightblue" points="126.34,-20.56 115.79,-19.52 123.38,-26.91 126.34,-20.56"/>
</g>
<!-- Node5 -->
<g id="node5" class="node">
<title>Node5</title>
<g id="a_node5"><a xlink:title=" ">
<polygon fill="white" stroke="#bfbfbf" points="148,-0.5 148,-19.5 213,-19.5 213,-0.5 148,-0.5"/>
<text text-anchor="middle" x="180.5" y="-7.5" font-family="Helvetica,sans-Serif" font-size="10.00">stdexcept</text>
</a>
</g>
</g>
<!-- Node2&#45;&gt;Node5 -->
<g id="edge4" class="edge">
<title>Node2&#45;&gt;Node5</title>
<path fill="none" stroke="midnightblue" d="M208.05,-56.08C203.49,-48.61 196.83,-37.72 191.21,-28.52"/>
<polygon fill="midnightblue" stroke="midnightblue" points="194.05,-26.46 185.85,-19.75 188.08,-30.11 194.05,-26.46"/>
</g>
<!-- Node6 -->
<g id="node6" class="node">
<title>Node6</title>
<g id="a_node6"><a xlink:title=" ">
<polygon fill="white" stroke="#bfbfbf" points="231.5,-0.5 231.5,-19.5 275.5,-19.5 275.5,-0.5 231.5,-0.5"/>
<text text-anchor="middle" x="253.5" y="-7.5" font-family="Helvetica,sans-Serif" font-size="10.00">string</text>
</a>
</g>
</g>
<!-- Node2&#45;&gt;Node6 -->
<g id="edge5" class="edge">
<title>Node2&#45;&gt;Node6</title>
<path fill="none" stroke="midnightblue" d="M220.11,-56.08C225.76,-48.46 234.04,-37.26 240.95,-27.94"/>
<polygon fill="midnightblue" stroke="midnightblue" points="243.88,-29.87 247.02,-19.75 238.25,-25.7 243.88,-29.87"/>
</g>
<!-- Node7 -->
<g id="node7" class="node">
<title>Node7</title>
<g id="a_node7"><a xlink:href="nedxmldefs_8h.html" target="_top" xlink:title=" ">
<polygon fill="white" stroke="red" points="294,-0.5 294,-19.5 377,-19.5 377,-0.5 294,-0.5"/>
<text text-anchor="middle" x="335.5" y="-7.5" font-family="Helvetica,sans-Serif" font-size="10.00">nedxmldefs.h</text>
</a>
</g>
</g>
<!-- Node2&#45;&gt;Node7 -->
<g id="edge6" class="edge">
<title>Node2&#45;&gt;Node7</title>
<path fill="none" stroke="midnightblue" d="M232.83,-56.44C252.82,-47.6 284.24,-33.69 307.06,-23.59"/>
<polygon fill="midnightblue" stroke="midnightblue" points="308.53,-26.76 316.26,-19.52 305.7,-20.36 308.53,-26.76"/>
</g>
<!-- Node9&#45;&gt;Node6 -->
<g id="edge8" class="edge">
<title>Node9&#45;&gt;Node6</title>
<path fill="none" stroke="midnightblue" d="M308.06,-56.32C298.35,-48.26 283.68,-36.08 272,-26.37"/>
<polygon fill="midnightblue" stroke="midnightblue" points="274.06,-23.53 264.13,-19.83 269.59,-28.92 274.06,-23.53"/>
</g>
<!-- Node9&#45;&gt;Node7 -->
<g id="edge9" class="edge">
<title>Node9&#45;&gt;Node7</title>
<path fill="none" stroke="midnightblue" d="M321.31,-56.08C323.58,-48.85 326.87,-38.41 329.71,-29.4"/>
<polygon fill="midnightblue" stroke="midnightblue" points="333.08,-30.34 332.75,-19.75 326.4,-28.24 333.08,-30.34"/>
</g>
<!-- Node10 -->
<g id="node9" class="node">
<title>Node10</title>
<g id="a_node9"><a xlink:title=" ">
<polygon fill="white" stroke="#bfbfbf" points="395.5,-0.5 395.5,-19.5 527.5,-19.5 527.5,-0.5 395.5,-0.5"/>
<text text-anchor="middle" x="461.5" y="-7.5" font-family="Helvetica,sans-Serif" font-size="10.00">common/pooledstring.h</text>
</a>
</g>
</g>
<!-- Node9&#45;&gt;Node10 -->
<g id="edge10" class="edge">
<title>Node9&#45;&gt;Node10</title>
<path fill="none" stroke="midnightblue" d="M341.16,-56.44C364.9,-47.48 402.41,-33.31 429.24,-23.18"/>
<polygon fill="midnightblue" stroke="midnightblue" points="430.83,-26.32 438.95,-19.52 428.36,-19.77 430.83,-26.32"/>
</g>
</g>
</svg>
