<?xml version="1.0" encoding="UTF-8" standalone="no"?>
<!DOCTYPE svg PUBLIC "-//W3C//DTD SVG 1.1//EN"
 "http://www.w3.org/Graphics/SVG/1.1/DTD/svg11.dtd">
<!-- Generated by graphviz version 2.43.0 (0)
 -->
<!-- Title: cNMPLookahead Pages: 1 -->
<svg width="247pt" height="95pt"
 viewBox="0.00 0.00 246.50 95.00" xmlns="http://www.w3.org/2000/svg" xmlns:xlink="http://www.w3.org/1999/xlink">
<g id="graph0" class="graph" transform="scale(1 1) rotate(0) translate(4 91)">
<title>cNMPLookahead</title>
<polygon fill="white" stroke="transparent" points="-4,4 -4,-91 242.5,-91 242.5,4 -4,4"/>
<!-- Node1 -->
<g id="node1" class="node">
<title>Node1</title>
<g id="a_node1"><a xlink:title="Base class of lookahead calculations for cNullMessageProtocol which implements the &quot;null message algo...">
<polygon fill="#bfbfbf" stroke="black" points="0,-0.5 0,-19.5 97,-19.5 97,-0.5 0,-0.5"/>
<text text-anchor="middle" x="48.5" y="-7.5" font-family="Helvetica,sans-Serif" font-size="10.00">cNMPLookahead</text>
</a>
</g>
</g>
<!-- Node2 -->
<g id="node2" class="node">
<title>Node2</title>
<g id="a_node2"><a xlink:href="classomnetpp_1_1cParsimPartition.html" target="_top" xlink:title="Represents one partition in a parallel simulation. Knows about partitions and the links between this ...">
<polygon fill="white" stroke="black" points="69,-67.5 69,-86.5 164,-86.5 164,-67.5 69,-67.5"/>
<text text-anchor="middle" x="116.5" y="-74.5" font-family="Helvetica,sans-Serif" font-size="10.00">cParsimPartition</text>
</a>
</g>
</g>
<!-- Node2&#45;&gt;Node1 -->
<g id="edge1" class="edge">
<title>Node2&#45;&gt;Node1</title>
<path fill="none" stroke="#9a32cd" stroke-dasharray="5,2" d="M79.61,-62.93C72.91,-59.24 66.48,-54.65 61.5,-49 54.22,-40.73 50.97,-28.2 49.56,-19.81"/>
<polygon fill="#9a32cd" stroke="#9a32cd" points="78.28,-66.17 88.81,-67.41 81.35,-59.88 78.28,-66.17"/>
<text text-anchor="middle" x="84" y="-41" font-family="Helvetica,sans-Serif" font-size="10.00"> partition</text>
</g>
<!-- Node3 -->
<g id="node3" class="node">
<title>Node3</title>
<g id="a_node3"><a xlink:href="classomnetpp_1_1cParsimSynchronizer.html" target="_top" xlink:title="Abstract base class for parallel simulation algorithms. Subclasses implement the &quot;null message algori...">
<polygon fill="white" stroke="black" points="120.5,-0.5 120.5,-19.5 238.5,-19.5 238.5,-0.5 120.5,-0.5"/>
<text text-anchor="middle" x="179.5" y="-7.5" font-family="Helvetica,sans-Serif" font-size="10.00">cParsimSynchronizer</text>
</a>
</g>
</g>
<!-- Node2&#45;&gt;Node3 -->
<g id="edge3" class="edge">
<title>Node2&#45;&gt;Node3</title>
<path fill="none" stroke="#9a32cd" stroke-dasharray="5,2" d="M110.44,-57.22C109.45,-50.67 109.77,-43.56 113.5,-38 119.23,-29.47 128.18,-23.63 137.66,-19.64"/>
<polygon fill="#9a32cd" stroke="#9a32cd" points="107.15,-58.51 112.96,-67.37 113.95,-56.83 107.15,-58.51"/>
<text text-anchor="middle" x="136" y="-41" font-family="Helvetica,sans-Serif" font-size="10.00"> partition</text>
</g>
<!-- Node3&#45;&gt;Node2 -->
<g id="edge2" class="edge">
<title>Node3&#45;&gt;Node2</title>
<path fill="none" stroke="#9a32cd" stroke-dasharray="5,2" d="M173.92,-29.42C171.24,-36.12 167.5,-43.42 162.5,-49 155.58,-56.73 145.91,-62.86 137.22,-67.32"/>
<polygon fill="#9a32cd" stroke="#9a32cd" points="177.32,-30.3 177.28,-19.7 170.7,-28.01 177.32,-30.3"/>
<text text-anchor="middle" x="185.5" y="-41" font-family="Helvetica,sans-Serif" font-size="10.00"> synch</text>
</g>
</g>
</svg>
