<?xml version="1.0" encoding="UTF-8" standalone="no"?>
<!DOCTYPE svg PUBLIC "-//W3C//DTD SVG 1.1//EN"
 "http://www.w3.org/Graphics/SVG/1.1/DTD/svg11.dtd">
<!-- Generated by graphviz version 2.43.0 (0)
 -->
<!-- Title: cNMPLookahead Pages: 1 -->
<svg width="320pt" height="84pt"
 viewBox="0.00 0.00 320.00 84.00" xmlns="http://www.w3.org/2000/svg" xmlns:xlink="http://www.w3.org/1999/xlink">
<g id="graph0" class="graph" transform="scale(1 1) rotate(0) translate(4 80)">
<title>cNMPLookahead</title>
<polygon fill="white" stroke="transparent" points="-4,4 -4,-80 316,-80 316,4 -4,4"/>
<!-- Node1 -->
<g id="node1" class="node">
<title>Node1</title>
<g id="a_node1"><a xlink:title="Base class of lookahead calculations for cNullMessageProtocol which implements the &quot;null message algo...">
<polygon fill="#bfbfbf" stroke="black" points="119,-56.5 119,-75.5 216,-75.5 216,-56.5 119,-56.5"/>
<text text-anchor="middle" x="167.5" y="-63.5" font-family="Helvetica,sans-Serif" font-size="10.00">cNMPLookahead</text>
</a>
</g>
</g>
<!-- Node2 -->
<g id="node2" class="node">
<title>Node2</title>
<g id="a_node2"><a xlink:href="classomnetpp_1_1cAdvancedLinkDelayLookahead.html" target="_top" xlink:title="Lookahead calculation based on inter&#45;partition link delays only.">
<polygon fill="white" stroke="black" points="0,-0.5 0,-19.5 171,-19.5 171,-0.5 0,-0.5"/>
<text text-anchor="middle" x="85.5" y="-7.5" font-family="Helvetica,sans-Serif" font-size="10.00">cAdvancedLinkDelayLookahead</text>
</a>
</g>
</g>
<!-- Node1&#45;&gt;Node2 -->
<g id="edge1" class="edge">
<title>Node1&#45;&gt;Node2</title>
<path fill="none" stroke="midnightblue" d="M145.67,-50.62C130.69,-40.76 111.3,-27.99 98.64,-19.65"/>
<polygon fill="midnightblue" stroke="midnightblue" points="144.05,-53.75 154.33,-56.32 147.9,-47.9 144.05,-53.75"/>
</g>
<!-- Node3 -->
<g id="node3" class="node">
<title>Node3</title>
<g id="a_node3"><a xlink:href="classomnetpp_1_1cLinkDelayLookahead.html" target="_top" xlink:title="Lookahead calculation based on inter&#45;partition link delays only.">
<polygon fill="white" stroke="black" points="189,-0.5 189,-19.5 312,-19.5 312,-0.5 189,-0.5"/>
<text text-anchor="middle" x="250.5" y="-7.5" font-family="Helvetica,sans-Serif" font-size="10.00">cLinkDelayLookahead</text>
</a>
</g>
</g>
<!-- Node1&#45;&gt;Node3 -->
<g id="edge2" class="edge">
<title>Node1&#45;&gt;Node3</title>
<path fill="none" stroke="midnightblue" d="M189.6,-50.62C204.76,-40.76 224.38,-27.99 237.2,-19.65"/>
<polygon fill="midnightblue" stroke="midnightblue" points="187.31,-47.94 180.84,-56.32 191.13,-53.8 187.31,-47.94"/>
</g>
</g>
</svg>
