<?xml version="1.0" encoding="UTF-8" standalone="no"?>
<!DOCTYPE svg PUBLIC "-//W3C//DTD SVG 1.1//EN"
 "http://www.w3.org/Graphics/SVG/1.1/DTD/svg11.dtd">
<!-- Generated by graphviz version 2.43.0 (0)
 -->
<!-- Title: cParsimSynchronizer Pages: 1 -->
<svg width="421pt" height="140pt"
 viewBox="0.00 0.00 420.50 140.00" xmlns="http://www.w3.org/2000/svg" xmlns:xlink="http://www.w3.org/1999/xlink">
<g id="graph0" class="graph" transform="scale(1 1) rotate(0) translate(4 136)">
<title>cParsimSynchronizer</title>
<polygon fill="white" stroke="transparent" points="-4,4 -4,-136 416.5,-136 416.5,4 -4,4"/>
<!-- Node1 -->
<g id="node1" class="node">
<title>Node1</title>
<g id="a_node1"><a xlink:title="Abstract base class for parallel simulation algorithms. Subclasses implement the &quot;null message algori...">
<polygon fill="#bfbfbf" stroke="black" points="154,-112.5 154,-131.5 272,-131.5 272,-112.5 154,-112.5"/>
<text text-anchor="middle" x="213" y="-119.5" font-family="Helvetica,sans-Serif" font-size="10.00">cParsimSynchronizer</text>
</a>
</g>
</g>
<!-- Node2 -->
<g id="node2" class="node">
<title>Node2</title>
<g id="a_node2"><a xlink:href="classomnetpp_1_1cParsimProtocolBase.html" target="_top" xlink:title="Contains utility functions for implementing parallel simulation protocols.">
<polygon fill="white" stroke="black" points="153.5,-56.5 153.5,-75.5 272.5,-75.5 272.5,-56.5 153.5,-56.5"/>
<text text-anchor="middle" x="213" y="-63.5" font-family="Helvetica,sans-Serif" font-size="10.00">cParsimProtocolBase</text>
</a>
</g>
</g>
<!-- Node1&#45;&gt;Node2 -->
<g id="edge1" class="edge">
<title>Node1&#45;&gt;Node2</title>
<path fill="none" stroke="midnightblue" d="M213,-101.8C213,-92.91 213,-82.78 213,-75.75"/>
<polygon fill="midnightblue" stroke="midnightblue" points="209.5,-102.08 213,-112.08 216.5,-102.08 209.5,-102.08"/>
</g>
<!-- Node3 -->
<g id="node3" class="node">
<title>Node3</title>
<g id="a_node3"><a xlink:href="classomnetpp_1_1cIdealSimulationProtocol.html" target="_top" xlink:title="Implements the Ideal Simulation Protocol, described in the paper &quot;Performance Evaluation of Conservat...">
<polygon fill="white" stroke="black" points="0,-0.5 0,-19.5 138,-19.5 138,-0.5 0,-0.5"/>
<text text-anchor="middle" x="69" y="-7.5" font-family="Helvetica,sans-Serif" font-size="10.00">cIdealSimulationProtocol</text>
</a>
</g>
</g>
<!-- Node2&#45;&gt;Node3 -->
<g id="edge2" class="edge">
<title>Node2&#45;&gt;Node3</title>
<path fill="none" stroke="midnightblue" d="M180.75,-52.91C153.68,-42.75 115.68,-28.51 91.71,-19.52"/>
<polygon fill="midnightblue" stroke="midnightblue" points="179.59,-56.21 190.18,-56.44 182.05,-49.66 179.59,-56.21"/>
</g>
<!-- Node4 -->
<g id="node4" class="node">
<title>Node4</title>
<g id="a_node4"><a xlink:href="classomnetpp_1_1cNoSynchronization.html" target="_top" xlink:title="&quot;Dummy&quot; implementation – just pass messages between partitions, without any synchronization....">
<polygon fill="white" stroke="black" points="156.5,-0.5 156.5,-19.5 269.5,-19.5 269.5,-0.5 156.5,-0.5"/>
<text text-anchor="middle" x="213" y="-7.5" font-family="Helvetica,sans-Serif" font-size="10.00">cNoSynchronization</text>
</a>
</g>
</g>
<!-- Node2&#45;&gt;Node4 -->
<g id="edge3" class="edge">
<title>Node2&#45;&gt;Node4</title>
<path fill="none" stroke="midnightblue" d="M213,-45.8C213,-36.91 213,-26.78 213,-19.75"/>
<polygon fill="midnightblue" stroke="midnightblue" points="209.5,-46.08 213,-56.08 216.5,-46.08 209.5,-46.08"/>
</g>
<!-- Node5 -->
<g id="node5" class="node">
<title>Node5</title>
<g id="a_node5"><a xlink:href="classomnetpp_1_1cNullMessageProtocol.html" target="_top" xlink:title="Implements the &quot;null message algorithm&quot;. Lookahead calculation is encapsulated into a separate object...">
<polygon fill="white" stroke="red" points="287.5,-0.5 287.5,-19.5 412.5,-19.5 412.5,-0.5 287.5,-0.5"/>
<text text-anchor="middle" x="350" y="-7.5" font-family="Helvetica,sans-Serif" font-size="10.00">cNullMessageProtocol</text>
</a>
</g>
</g>
<!-- Node2&#45;&gt;Node5 -->
<g id="edge4" class="edge">
<title>Node2&#45;&gt;Node5</title>
<path fill="none" stroke="midnightblue" d="M244.02,-52.77C269.76,-42.63 305.69,-28.47 328.39,-19.52"/>
<polygon fill="midnightblue" stroke="midnightblue" points="242.73,-49.52 234.71,-56.44 245.29,-56.03 242.73,-49.52"/>
</g>
</g>
</svg>
