<?xml version="1.0" encoding="UTF-8" standalone="no"?>
<!DOCTYPE svg PUBLIC "-//W3C//DTD SVG 1.1//EN"
 "http://www.w3.org/Graphics/SVG/1.1/DTD/svg11.dtd">
<!-- Generated by graphviz version 2.43.0 (0)
 -->
<!-- Title: cParsimProtocolBase Pages: 1 -->
<svg width="240pt" height="95pt"
 viewBox="0.00 0.00 240.00 95.00" xmlns="http://www.w3.org/2000/svg" xmlns:xlink="http://www.w3.org/1999/xlink">
<g id="graph0" class="graph" transform="scale(1 1) rotate(0) translate(4 91)">
<title>cParsimProtocolBase</title>
<polygon fill="white" stroke="transparent" points="-4,4 -4,-91 236,-91 236,4 -4,4"/>
<!-- Node1 -->
<g id="node1" class="node">
<title>Node1</title>
<g id="a_node1"><a xlink:title="Contains utility functions for implementing parallel simulation protocols.">
<polygon fill="#bfbfbf" stroke="black" points="0,-0.5 0,-19.5 119,-19.5 119,-0.5 0,-0.5"/>
<text text-anchor="middle" x="59.5" y="-7.5" font-family="Helvetica,sans-Serif" font-size="10.00">cParsimProtocolBase</text>
</a>
</g>
</g>
<!-- Node2 -->
<g id="node2" class="node">
<title>Node2</title>
<g id="a_node2"><a xlink:href="classomnetpp_1_1cParsimSynchronizer.html" target="_top" xlink:title="Abstract base class for parallel simulation algorithms. Subclasses implement the &quot;null message algori...">
<polygon fill="white" stroke="black" points="70.5,-67.5 70.5,-86.5 188.5,-86.5 188.5,-67.5 70.5,-67.5"/>
<text text-anchor="middle" x="129.5" y="-74.5" font-family="Helvetica,sans-Serif" font-size="10.00">cParsimSynchronizer</text>
</a>
</g>
</g>
<!-- Node2&#45;&gt;Node1 -->
<g id="edge1" class="edge">
<title>Node2&#45;&gt;Node1</title>
<path fill="none" stroke="midnightblue" d="M112.65,-60.36C98.89,-47.58 79.95,-29.99 68.79,-19.63"/>
<polygon fill="midnightblue" stroke="midnightblue" points="110.35,-62.99 120.06,-67.23 115.11,-57.86 110.35,-62.99"/>
</g>
<!-- Node3 -->
<g id="node3" class="node">
<title>Node3</title>
<g id="a_node3"><a xlink:href="classomnetpp_1_1cParsimPartition.html" target="_top" xlink:title="Represents one partition in a parallel simulation. Knows about partitions and the links between this ...">
<polygon fill="white" stroke="black" points="137,-0.5 137,-19.5 232,-19.5 232,-0.5 137,-0.5"/>
<text text-anchor="middle" x="184.5" y="-7.5" font-family="Helvetica,sans-Serif" font-size="10.00">cParsimPartition</text>
</a>
</g>
</g>
<!-- Node2&#45;&gt;Node3 -->
<g id="edge3" class="edge">
<title>Node2&#45;&gt;Node3</title>
<path fill="none" stroke="#9a32cd" stroke-dasharray="5,2" d="M123.59,-57.32C122.61,-50.77 122.9,-43.65 126.5,-38 131.93,-29.48 140.83,-23.6 150.05,-19.57"/>
<polygon fill="#9a32cd" stroke="#9a32cd" points="120.28,-58.54 126.05,-67.43 127.08,-56.89 120.28,-58.54"/>
<text text-anchor="middle" x="142.5" y="-41" font-family="Helvetica,sans-Serif" font-size="10.00"> synch</text>
</g>
<!-- Node3&#45;&gt;Node2 -->
<g id="edge2" class="edge">
<title>Node3&#45;&gt;Node2</title>
<path fill="none" stroke="#9a32cd" stroke-dasharray="5,2" d="M175.96,-28.74C172.3,-35.44 167.68,-42.91 162.5,-49 156.55,-55.99 148.62,-62.54 142.03,-67.44"/>
<polygon fill="#9a32cd" stroke="#9a32cd" points="179.14,-30.22 180.58,-19.72 172.91,-27.02 179.14,-30.22"/>
<text text-anchor="middle" x="192" y="-41" font-family="Helvetica,sans-Serif" font-size="10.00"> partition</text>
</g>
</g>
</svg>
