<?xml version="1.0" encoding="UTF-8" standalone="no"?>
<!DOCTYPE svg PUBLIC "-//W3C//DTD SVG 1.1//EN"
 "http://www.w3.org/Graphics/SVG/1.1/DTD/svg11.dtd">
<!-- Generated by graphviz version 2.43.0 (0)
 -->
<!-- Title: cParsimPartition Pages: 1 -->
<svg width="126pt" height="95pt"
 viewBox="0.00 0.00 126.00 95.00" xmlns="http://www.w3.org/2000/svg" xmlns:xlink="http://www.w3.org/1999/xlink">
<g id="graph0" class="graph" transform="scale(1 1) rotate(0) translate(4 91)">
<title>cParsimPartition</title>
<polygon fill="white" stroke="transparent" points="-4,4 -4,-91 122,-91 122,4 -4,4"/>
<!-- Node1 -->
<g id="node1" class="node">
<title>Node1</title>
<g id="a_node1"><a xlink:title="Represents one partition in a parallel simulation. Knows about partitions and the links between this ...">
<polygon fill="#bfbfbf" stroke="black" points="11.5,-67.5 11.5,-86.5 106.5,-86.5 106.5,-67.5 11.5,-67.5"/>
<text text-anchor="middle" x="59" y="-74.5" font-family="Helvetica,sans-Serif" font-size="10.00">cParsimPartition</text>
</a>
</g>
</g>
<!-- Node2 -->
<g id="node2" class="node">
<title>Node2</title>
<g id="a_node2"><a xlink:href="classomnetpp_1_1cParsimSynchronizer.html" target="_top" xlink:title="Abstract base class for parallel simulation algorithms. Subclasses implement the &quot;null message algori...">
<polygon fill="white" stroke="black" points="0,-0.5 0,-19.5 118,-19.5 118,-0.5 0,-0.5"/>
<text text-anchor="middle" x="59" y="-7.5" font-family="Helvetica,sans-Serif" font-size="10.00">cParsimSynchronizer</text>
</a>
</g>
</g>
<!-- Node1&#45;&gt;Node2 -->
<g id="edge2" class="edge">
<title>Node1&#45;&gt;Node2</title>
<path fill="none" stroke="#9a32cd" stroke-dasharray="5,2" d="M32.23,-61.35C28.1,-57.87 24.41,-53.75 22,-49 15.95,-37.1 28.62,-26.49 40.75,-19.52"/>
<polygon fill="#9a32cd" stroke="#9a32cd" points="30.33,-64.29 40.49,-67.28 34.41,-58.61 30.33,-64.29"/>
<text text-anchor="middle" x="44.5" y="-41" font-family="Helvetica,sans-Serif" font-size="10.00"> partition</text>
</g>
<!-- Node2&#45;&gt;Node1 -->
<g id="edge1" class="edge">
<title>Node2&#45;&gt;Node1</title>
<path fill="none" stroke="#9a32cd" stroke-dasharray="5,2" d="M68.72,-29.1C71,-35.34 72.4,-42.41 71,-49 69.64,-55.42 66.64,-62.17 63.98,-67.32"/>
<polygon fill="#9a32cd" stroke="#9a32cd" points="71.74,-27.28 64.41,-19.63 65.37,-30.18 71.74,-27.28"/>
<text text-anchor="middle" x="87" y="-41" font-family="Helvetica,sans-Serif" font-size="10.00"> synch</text>
</g>
</g>
</svg>
