<?xml version="1.0" encoding="UTF-8" standalone="no"?>
<!DOCTYPE svg PUBLIC "-//W3C//DTD SVG 1.1//EN"
 "http://www.w3.org/Graphics/SVG/1.1/DTD/svg11.dtd">
<!-- Generated by graphviz version 2.43.0 (0)
 -->
<!-- Title: cAdvancedLinkDelayLookahead Pages: 1 -->
<svg width="179pt" height="152pt"
 viewBox="0.00 0.00 179.00 152.00" xmlns="http://www.w3.org/2000/svg" xmlns:xlink="http://www.w3.org/1999/xlink">
<g id="graph0" class="graph" transform="scale(1 1) rotate(0) translate(4 148)">
<title>cAdvancedLinkDelayLookahead</title>
<polygon fill="white" stroke="transparent" points="-4,4 -4,-148 175,-148 175,4 -4,4"/>
<!-- Node1 -->
<g id="node1" class="node">
<title>Node1</title>
<g id="a_node1"><a xlink:title="Lookahead calculation based on inter&#45;partition link delays only.">
<polygon fill="#bfbfbf" stroke="black" points="0,-0.5 0,-19.5 171,-19.5 171,-0.5 0,-0.5"/>
<text text-anchor="middle" x="85.5" y="-7.5" font-family="Helvetica,sans-Serif" font-size="10.00">cAdvancedLinkDelayLookahead</text>
</a>
</g>
</g>
<!-- Node2 -->
<g id="node2" class="node">
<title>Node2</title>
<g id="a_node2"><a xlink:href="classomnetpp_1_1cNMPLookahead.html" target="_top" xlink:title="Base class of lookahead calculations for cNullMessageProtocol which implements the &quot;null message algo...">
<polygon fill="white" stroke="black" points="37,-57.5 37,-76.5 134,-76.5 134,-57.5 37,-57.5"/>
<text text-anchor="middle" x="85.5" y="-64.5" font-family="Helvetica,sans-Serif" font-size="10.00">cNMPLookahead</text>
</a>
</g>
</g>
<!-- Node2&#45;&gt;Node1 -->
<g id="edge1" class="edge">
<title>Node2&#45;&gt;Node1</title>
<path fill="none" stroke="midnightblue" d="M85.5,-47.12C85.5,-37.82 85.5,-27.06 85.5,-19.71"/>
<polygon fill="midnightblue" stroke="midnightblue" points="82,-47.41 85.5,-57.41 89,-47.41 82,-47.41"/>
</g>
<!-- Node3 -->
<g id="node3" class="node">
<title>Node3</title>
<g id="a_node3"><a xlink:href="classomnetpp_1_1cParsimPartition.html" target="_top" xlink:title="Represents one partition in a parallel simulation. Knows about partitions and the links between this ...">
<polygon fill="white" stroke="red" points="38,-124.5 38,-143.5 133,-143.5 133,-124.5 38,-124.5"/>
<text text-anchor="middle" x="85.5" y="-131.5" font-family="Helvetica,sans-Serif" font-size="10.00">cParsimPartition</text>
</a>
</g>
</g>
<!-- Node3&#45;&gt;Node2 -->
<g id="edge2" class="edge">
<title>Node3&#45;&gt;Node2</title>
<path fill="none" stroke="#9a32cd" stroke-dasharray="5,2" d="M85.5,-114.04C85.5,-101.67 85.5,-86.12 85.5,-76.63"/>
<polygon fill="#9a32cd" stroke="#9a32cd" points="82,-114.23 85.5,-124.23 89,-114.23 82,-114.23"/>
<text text-anchor="middle" x="108" y="-98" font-family="Helvetica,sans-Serif" font-size="10.00"> partition</text>
</g>
</g>
</svg>
