<?xml version="1.0" encoding="UTF-8" standalone="no"?>
<!DOCTYPE svg PUBLIC "-//W3C//DTD SVG 1.1//EN"
 "http://www.w3.org/Graphics/SVG/1.1/DTD/svg11.dtd">
<!-- Generated by graphviz version 2.43.0 (0)
 -->
<!-- Title: cISPEventLogger Pages: 1 -->
<svg width="242pt" height="152pt"
 viewBox="0.00 0.00 242.00 152.00" xmlns="http://www.w3.org/2000/svg" xmlns:xlink="http://www.w3.org/1999/xlink">
<g id="graph0" class="graph" transform="scale(1 1) rotate(0) translate(4 148)">
<title>cISPEventLogger</title>
<polygon fill="white" stroke="transparent" points="-4,4 -4,-148 238,-148 238,4 -4,4"/>
<!-- Node1 -->
<g id="node1" class="node">
<title>Node1</title>
<g id="a_node1"><a xlink:title="Implements phase one for the Ideal Simulation Protocol (ISP), namely, creating the log of &quot;external&quot; ...">
<polygon fill="#bfbfbf" stroke="black" points="73.5,-0.5 73.5,-19.5 171.5,-19.5 171.5,-0.5 73.5,-0.5"/>
<text text-anchor="middle" x="122.5" y="-7.5" font-family="Helvetica,sans-Serif" font-size="10.00">cISPEventLogger</text>
</a>
</g>
</g>
<!-- Node2 -->
<g id="node2" class="node">
<title>Node2</title>
<g id="a_node2"><a xlink:href="classomnetpp_1_1cNullMessageProtocol.html" target="_top" xlink:title="Implements the &quot;null message algorithm&quot;. Lookahead calculation is encapsulated into a separate object...">
<polygon fill="white" stroke="black" points="60,-57.5 60,-76.5 185,-76.5 185,-57.5 60,-57.5"/>
<text text-anchor="middle" x="122.5" y="-64.5" font-family="Helvetica,sans-Serif" font-size="10.00">cNullMessageProtocol</text>
</a>
</g>
</g>
<!-- Node2&#45;&gt;Node1 -->
<g id="edge1" class="edge">
<title>Node2&#45;&gt;Node1</title>
<path fill="none" stroke="midnightblue" d="M122.5,-47.12C122.5,-37.82 122.5,-27.06 122.5,-19.71"/>
<polygon fill="midnightblue" stroke="midnightblue" points="119,-47.41 122.5,-57.41 126,-47.41 119,-47.41"/>
</g>
<!-- Node3 -->
<g id="node3" class="node">
<title>Node3</title>
<g id="a_node3"><a xlink:href="classomnetpp_1_1cParsimProtocolBase.html" target="_top" xlink:title="Contains utility functions for implementing parallel simulation protocols.">
<polygon fill="white" stroke="red" points="0,-124.5 0,-143.5 119,-143.5 119,-124.5 0,-124.5"/>
<text text-anchor="middle" x="59.5" y="-131.5" font-family="Helvetica,sans-Serif" font-size="10.00">cParsimProtocolBase</text>
</a>
</g>
</g>
<!-- Node3&#45;&gt;Node2 -->
<g id="edge2" class="edge">
<title>Node3&#45;&gt;Node2</title>
<path fill="none" stroke="midnightblue" d="M75.01,-117C87.37,-104.25 104.19,-86.89 114.14,-76.63"/>
<polygon fill="midnightblue" stroke="midnightblue" points="72.44,-114.62 68,-124.23 77.47,-119.49 72.44,-114.62"/>
</g>
<!-- Node6 -->
<g id="node4" class="node">
<title>Node6</title>
<g id="a_node4"><a xlink:href="classomnetpp_1_1cNMPLookahead.html" target="_top" xlink:title="Base class of lookahead calculations for cNullMessageProtocol which implements the &quot;null message algo...">
<polygon fill="white" stroke="red" points="137,-124.5 137,-143.5 234,-143.5 234,-124.5 137,-124.5"/>
<text text-anchor="middle" x="185.5" y="-131.5" font-family="Helvetica,sans-Serif" font-size="10.00">cNMPLookahead</text>
</a>
</g>
</g>
<!-- Node6&#45;&gt;Node2 -->
<g id="edge3" class="edge">
<title>Node6&#45;&gt;Node2</title>
<path fill="none" stroke="#9a32cd" stroke-dasharray="5,2" d="M169.99,-117C157.63,-104.25 140.81,-86.89 130.86,-76.63"/>
<polygon fill="#9a32cd" stroke="#9a32cd" points="167.53,-119.49 177,-124.23 172.56,-114.62 167.53,-119.49"/>
<text text-anchor="middle" x="194" y="-98" font-family="Helvetica,sans-Serif" font-size="10.00"> lookaheadcalc</text>
</g>
</g>
</svg>
