<?xml version="1.0" encoding="UTF-8" standalone="no"?>
<!DOCTYPE svg PUBLIC "-//W3C//DTD SVG 1.1//EN"
 "http://www.w3.org/Graphics/SVG/1.1/DTD/svg11.dtd">
<!-- Generated by graphviz version 2.43.0 (0)
 -->
<!-- Title: cParsimSynchronizer Pages: 1 -->
<svg width="126pt" height="95pt"
 viewBox="0.00 0.00 126.00 95.00" xmlns="http://www.w3.org/2000/svg" xmlns:xlink="http://www.w3.org/1999/xlink">
<g id="graph0" class="graph" transform="scale(1 1) rotate(0) translate(4 91)">
<title>cParsimSynchronizer</title>
<polygon fill="white" stroke="transparent" points="-4,4 -4,-91 122,-91 122,4 -4,4"/>
<!-- Node1 -->
<g id="node1" class="node">
<title>Node1</title>
<g id="a_node1"><a xlink:title="Abstract base class for parallel simulation algorithms. Subclasses implement the &quot;null message algori...">
<polygon fill="#bfbfbf" stroke="black" points="0,-67.5 0,-86.5 118,-86.5 118,-67.5 0,-67.5"/>
<text text-anchor="middle" x="59" y="-74.5" font-family="Helvetica,sans-Serif" font-size="10.00">cParsimSynchronizer</text>
</a>
</g>
</g>
<!-- Node2 -->
<g id="node2" class="node">
<title>Node2</title>
<g id="a_node2"><a xlink:href="classomnetpp_1_1cParsimPartition.html" target="_top" xlink:title="Represents one partition in a parallel simulation. Knows about partitions and the links between this ...">
<polygon fill="white" stroke="black" points="11.5,-0.5 11.5,-19.5 106.5,-19.5 106.5,-0.5 11.5,-0.5"/>
<text text-anchor="middle" x="59" y="-7.5" font-family="Helvetica,sans-Serif" font-size="10.00">cParsimPartition</text>
</a>
</g>
</g>
<!-- Node1&#45;&gt;Node2 -->
<g id="edge2" class="edge">
<title>Node1&#45;&gt;Node2</title>
<path fill="none" stroke="#9a32cd" stroke-dasharray="5,2" d="M37.22,-60.6C33.88,-57.19 30.91,-53.29 29,-49 23.94,-37.64 34.76,-26.71 44.78,-19.52"/>
<polygon fill="#9a32cd" stroke="#9a32cd" points="35.03,-63.33 44.86,-67.27 39.63,-58.06 35.03,-63.33"/>
<text text-anchor="middle" x="45" y="-41" font-family="Helvetica,sans-Serif" font-size="10.00"> synch</text>
</g>
<!-- Node2&#45;&gt;Node1 -->
<g id="edge1" class="edge">
<title>Node2&#45;&gt;Node1</title>
<path fill="none" stroke="#9a32cd" stroke-dasharray="5,2" d="M63.96,-29.7C65.04,-35.83 65.69,-42.69 65,-49 64.33,-55.11 62.83,-61.86 61.5,-67.08"/>
<polygon fill="#9a32cd" stroke="#9a32cd" points="67.32,-28.71 61.71,-19.72 60.49,-30.25 67.32,-28.71"/>
<text text-anchor="middle" x="87.5" y="-41" font-family="Helvetica,sans-Serif" font-size="10.00"> partition</text>
</g>
</g>
</svg>
