<?xml version="1.0" encoding="UTF-8" standalone="no"?>
<!DOCTYPE svg PUBLIC "-//W3C//DTD SVG 1.1//EN"
 "http://www.w3.org/Graphics/SVG/1.1/DTD/svg11.dtd">
<!-- Generated by graphviz version 2.43.0 (0)
 -->
<!-- Title: cParsimProtocolBase Pages: 1 -->
<svg width="421pt" height="196pt"
 viewBox="0.00 0.00 420.50 196.00" xmlns="http://www.w3.org/2000/svg" xmlns:xlink="http://www.w3.org/1999/xlink">
<g id="graph0" class="graph" transform="scale(1 1) rotate(0) translate(4 192)">
<title>cParsimProtocolBase</title>
<polygon fill="white" stroke="transparent" points="-4,4 -4,-192 416.5,-192 416.5,4 -4,4"/>
<!-- Node1 -->
<g id="node1" class="node">
<title>Node1</title>
<g id="a_node1"><a xlink:title="Contains utility functions for implementing parallel simulation protocols.">
<polygon fill="#bfbfbf" stroke="black" points="153.5,-112.5 153.5,-131.5 272.5,-131.5 272.5,-112.5 153.5,-112.5"/>
<text text-anchor="middle" x="213" y="-119.5" font-family="Helvetica,sans-Serif" font-size="10.00">cParsimProtocolBase</text>
</a>
</g>
</g>
<!-- Node3 -->
<g id="node3" class="node">
<title>Node3</title>
<g id="a_node3"><a xlink:href="classomnetpp_1_1cIdealSimulationProtocol.html" target="_top" xlink:title="Implements the Ideal Simulation Protocol, described in the paper &quot;Performance Evaluation of Conservat...">
<polygon fill="white" stroke="black" points="0,-56.5 0,-75.5 138,-75.5 138,-56.5 0,-56.5"/>
<text text-anchor="middle" x="69" y="-63.5" font-family="Helvetica,sans-Serif" font-size="10.00">cIdealSimulationProtocol</text>
</a>
</g>
</g>
<!-- Node1&#45;&gt;Node3 -->
<g id="edge2" class="edge">
<title>Node1&#45;&gt;Node3</title>
<path fill="none" stroke="midnightblue" d="M180.75,-108.91C153.68,-98.75 115.68,-84.51 91.71,-75.52"/>
<polygon fill="midnightblue" stroke="midnightblue" points="179.59,-112.21 190.18,-112.44 182.05,-105.66 179.59,-112.21"/>
</g>
<!-- Node4 -->
<g id="node4" class="node">
<title>Node4</title>
<g id="a_node4"><a xlink:href="classomnetpp_1_1cNoSynchronization.html" target="_top" xlink:title="&quot;Dummy&quot; implementation – just pass messages between partitions, without any synchronization....">
<polygon fill="white" stroke="black" points="156.5,-56.5 156.5,-75.5 269.5,-75.5 269.5,-56.5 156.5,-56.5"/>
<text text-anchor="middle" x="213" y="-63.5" font-family="Helvetica,sans-Serif" font-size="10.00">cNoSynchronization</text>
</a>
</g>
</g>
<!-- Node1&#45;&gt;Node4 -->
<g id="edge3" class="edge">
<title>Node1&#45;&gt;Node4</title>
<path fill="none" stroke="midnightblue" d="M213,-101.8C213,-92.91 213,-82.78 213,-75.75"/>
<polygon fill="midnightblue" stroke="midnightblue" points="209.5,-102.08 213,-112.08 216.5,-102.08 209.5,-102.08"/>
</g>
<!-- Node5 -->
<g id="node5" class="node">
<title>Node5</title>
<g id="a_node5"><a xlink:href="classomnetpp_1_1cNullMessageProtocol.html" target="_top" xlink:title="Implements the &quot;null message algorithm&quot;. Lookahead calculation is encapsulated into a separate object...">
<polygon fill="white" stroke="black" points="287.5,-56.5 287.5,-75.5 412.5,-75.5 412.5,-56.5 287.5,-56.5"/>
<text text-anchor="middle" x="350" y="-63.5" font-family="Helvetica,sans-Serif" font-size="10.00">cNullMessageProtocol</text>
</a>
</g>
</g>
<!-- Node1&#45;&gt;Node5 -->
<g id="edge4" class="edge">
<title>Node1&#45;&gt;Node5</title>
<path fill="none" stroke="midnightblue" d="M244.02,-108.77C269.76,-98.63 305.69,-84.47 328.39,-75.52"/>
<polygon fill="midnightblue" stroke="midnightblue" points="242.73,-105.52 234.71,-112.44 245.29,-112.03 242.73,-105.52"/>
</g>
<!-- Node2 -->
<g id="node2" class="node">
<title>Node2</title>
<g id="a_node2"><a xlink:href="classomnetpp_1_1cParsimSynchronizer.html" target="_top" xlink:title="Abstract base class for parallel simulation algorithms. Subclasses implement the &quot;null message algori...">
<polygon fill="white" stroke="black" points="154,-168.5 154,-187.5 272,-187.5 272,-168.5 154,-168.5"/>
<text text-anchor="middle" x="213" y="-175.5" font-family="Helvetica,sans-Serif" font-size="10.00">cParsimSynchronizer</text>
</a>
</g>
</g>
<!-- Node2&#45;&gt;Node1 -->
<g id="edge1" class="edge">
<title>Node2&#45;&gt;Node1</title>
<path fill="none" stroke="midnightblue" d="M213,-157.8C213,-148.91 213,-138.78 213,-131.75"/>
<polygon fill="midnightblue" stroke="midnightblue" points="209.5,-158.08 213,-168.08 216.5,-158.08 209.5,-158.08"/>
</g>
<!-- Node6 -->
<g id="node6" class="node">
<title>Node6</title>
<g id="a_node6"><a xlink:href="classomnetpp_1_1cISPEventLogger.html" target="_top" xlink:title="Implements phase one for the Ideal Simulation Protocol (ISP), namely, creating the log of &quot;external&quot; ...">
<polygon fill="white" stroke="black" points="301,-0.5 301,-19.5 399,-19.5 399,-0.5 301,-0.5"/>
<text text-anchor="middle" x="350" y="-7.5" font-family="Helvetica,sans-Serif" font-size="10.00">cISPEventLogger</text>
</a>
</g>
</g>
<!-- Node5&#45;&gt;Node6 -->
<g id="edge5" class="edge">
<title>Node5&#45;&gt;Node6</title>
<path fill="none" stroke="midnightblue" d="M350,-45.8C350,-36.91 350,-26.78 350,-19.75"/>
<polygon fill="midnightblue" stroke="midnightblue" points="346.5,-46.08 350,-56.08 353.5,-46.08 346.5,-46.08"/>
</g>
</g>
</svg>
