<?xml version="1.0" encoding="UTF-8" standalone="no"?>
<!DOCTYPE svg PUBLIC "-//W3C//DTD SVG 1.1//EN"
 "http://www.w3.org/Graphics/SVG/1.1/DTD/svg11.dtd">
<!-- Generated by graphviz version 2.43.0 (0)
 -->
<!-- Title: Graphical Class Hierarchy Pages: 1 -->
<svg width="259pt" height="66pt"
 viewBox="0.00 0.00 259.00 66.00" xmlns="http://www.w3.org/2000/svg" xmlns:xlink="http://www.w3.org/1999/xlink">
<g id="graph0" class="graph" transform="scale(1 1) rotate(0) translate(4 62)">
<title>Graphical Class Hierarchy</title>
<polygon fill="white" stroke="transparent" points="-4,4 -4,-62 255,-62 255,4 -4,4"/>
<!-- Node0 -->
<g id="node1" class="node">
<title>Node0</title>
<g id="a_node1"><a xlink:href="classomnetpp_1_1cCommBufferBase.html" target="_top" xlink:title="Adds buffer (re)allocation functions to cCommBuffer. This functionality is not always needed,...">
<polygon fill="white" stroke="black" points="0,-19.5 0,-38.5 107,-38.5 107,-19.5 0,-19.5"/>
<text text-anchor="middle" x="53.5" y="-26.5" font-family="Helvetica,sans-Serif" font-size="10.00">cCommBufferBase</text>
</a>
</g>
</g>
<!-- Node1 -->
<g id="node2" class="node">
<title>Node1</title>
<g id="a_node2"><a xlink:href="classomnetpp_1_1cFileCommBuffer.html" target="_top" xlink:title="Communication buffer that packs data in a text representation into a memory buffer.">
<polygon fill="white" stroke="black" points="146.5,-38.5 146.5,-57.5 247.5,-57.5 247.5,-38.5 146.5,-38.5"/>
<text text-anchor="middle" x="197" y="-45.5" font-family="Helvetica,sans-Serif" font-size="10.00">cFileCommBuffer</text>
</a>
</g>
</g>
<!-- Node0&#45;&gt;Node1 -->
<g id="edge1" class="edge">
<title>Node0&#45;&gt;Node1</title>
<path fill="none" stroke="midnightblue" d="M117.17,-37.42C126.85,-38.71 136.73,-40.04 146.08,-41.3"/>
<polygon fill="midnightblue" stroke="midnightblue" points="117.57,-33.94 107.19,-36.07 116.63,-40.87 117.57,-33.94"/>
</g>
<!-- Node2 -->
<g id="node3" class="node">
<title>Node2</title>
<g id="a_node3"><a xlink:href="classomnetpp_1_1cMemCommBuffer.html" target="_top" xlink:title="Communication buffer that packs data into a memory buffer without any transformation.">
<polygon fill="white" stroke="black" points="143,-0.5 143,-19.5 251,-19.5 251,-0.5 143,-0.5"/>
<text text-anchor="middle" x="197" y="-7.5" font-family="Helvetica,sans-Serif" font-size="10.00">cMemCommBuffer</text>
</a>
</g>
</g>
<!-- Node0&#45;&gt;Node2 -->
<g id="edge2" class="edge">
<title>Node0&#45;&gt;Node2</title>
<path fill="none" stroke="midnightblue" d="M117.14,-20.59C125.7,-19.44 134.42,-18.27 142.79,-17.14"/>
<polygon fill="midnightblue" stroke="midnightblue" points="116.63,-17.13 107.19,-21.93 117.57,-24.06 116.63,-17.13"/>
</g>
</g>
</svg>
