<?xml version="1.0" encoding="UTF-8" standalone="no"?>
<!DOCTYPE svg PUBLIC "-//W3C//DTD SVG 1.1//EN"
 "http://www.w3.org/Graphics/SVG/1.1/DTD/svg11.dtd">
<!-- Generated by graphviz version 2.43.0 (0)
 -->
<!-- Title: Graphical Class Hierarchy Pages: 1 -->
<svg width="312pt" height="66pt"
 viewBox="0.00 0.00 312.00 66.00" xmlns="http://www.w3.org/2000/svg" xmlns:xlink="http://www.w3.org/1999/xlink">
<g id="graph0" class="graph" transform="scale(1 1) rotate(0) translate(4 62)">
<title>Graphical Class Hierarchy</title>
<polygon fill="white" stroke="transparent" points="-4,4 -4,-62 308,-62 308,4 -4,4"/>
<!-- Node0 -->
<g id="node1" class="node">
<title>Node0</title>
<g id="a_node1"><a xlink:href="classomnetpp_1_1cNMPLookahead.html" target="_top" xlink:title="Base class of lookahead calculations for cNullMessageProtocol which implements the &quot;null message algo...">
<polygon fill="white" stroke="black" points="0,-19.5 0,-38.5 97,-38.5 97,-19.5 0,-19.5"/>
<text text-anchor="middle" x="48.5" y="-26.5" font-family="Helvetica,sans-Serif" font-size="10.00">cNMPLookahead</text>
</a>
</g>
</g>
<!-- Node1 -->
<g id="node2" class="node">
<title>Node1</title>
<g id="a_node2"><a xlink:href="classomnetpp_1_1cAdvancedLinkDelayLookahead.html" target="_top" xlink:title="Lookahead calculation based on inter&#45;partition link delays only.">
<polygon fill="white" stroke="black" points="133,-38.5 133,-57.5 304,-57.5 304,-38.5 133,-38.5"/>
<text text-anchor="middle" x="218.5" y="-45.5" font-family="Helvetica,sans-Serif" font-size="10.00">cAdvancedLinkDelayLookahead</text>
</a>
</g>
</g>
<!-- Node0&#45;&gt;Node1 -->
<g id="edge1" class="edge">
<title>Node0&#45;&gt;Node1</title>
<path fill="none" stroke="midnightblue" d="M107.28,-35.54C115.74,-36.49 124.59,-37.49 133.43,-38.49"/>
<polygon fill="midnightblue" stroke="midnightblue" points="107.52,-32.04 97.19,-34.39 106.74,-39 107.52,-32.04"/>
</g>
<!-- Node2 -->
<g id="node3" class="node">
<title>Node2</title>
<g id="a_node3"><a xlink:href="classomnetpp_1_1cLinkDelayLookahead.html" target="_top" xlink:title="Lookahead calculation based on inter&#45;partition link delays only.">
<polygon fill="white" stroke="black" points="157,-0.5 157,-19.5 280,-19.5 280,-0.5 157,-0.5"/>
<text text-anchor="middle" x="218.5" y="-7.5" font-family="Helvetica,sans-Serif" font-size="10.00">cLinkDelayLookahead</text>
</a>
</g>
</g>
<!-- Node0&#45;&gt;Node2 -->
<g id="edge2" class="edge">
<title>Node0&#45;&gt;Node2</title>
<path fill="none" stroke="midnightblue" d="M107.44,-22.45C123.37,-20.65 140.69,-18.69 156.78,-16.87"/>
<polygon fill="midnightblue" stroke="midnightblue" points="106.74,-19 97.19,-23.61 107.52,-25.96 106.74,-19"/>
</g>
</g>
</svg>
