<?xml version="1.0" encoding="UTF-8" standalone="no"?>
<!DOCTYPE svg PUBLIC "-//W3C//DTD SVG 1.1//EN"
 "http://www.w3.org/Graphics/SVG/1.1/DTD/svg11.dtd">
<!-- Generated by graphviz version 2.43.0 (0)
 -->
<!-- Title: Graphical Class Hierarchy Pages: 1 -->
<svg width="589pt" height="104pt"
 viewBox="0.00 0.00 589.00 104.00" xmlns="http://www.w3.org/2000/svg" xmlns:xlink="http://www.w3.org/1999/xlink">
<g id="graph0" class="graph" transform="scale(1 1) rotate(0) translate(4 100)">
<title>Graphical Class Hierarchy</title>
<polygon fill="white" stroke="transparent" points="-4,4 -4,-100 585,-100 585,4 -4,4"/>
<!-- Node0 -->
<g id="node1" class="node">
<title>Node0</title>
<g id="a_node1"><a xlink:href="classomnetpp_1_1cParsimSynchronizer.html" target="_top" xlink:title="Abstract base class for parallel simulation algorithms. Subclasses implement the &quot;null message algori...">
<polygon fill="white" stroke="black" points="0,-38.5 0,-57.5 118,-57.5 118,-38.5 0,-38.5"/>
<text text-anchor="middle" x="59" y="-45.5" font-family="Helvetica,sans-Serif" font-size="10.00">cParsimSynchronizer</text>
</a>
</g>
</g>
<!-- Node1 -->
<g id="node2" class="node">
<title>Node1</title>
<g id="a_node2"><a xlink:href="classomnetpp_1_1cParsimProtocolBase.html" target="_top" xlink:title="Contains utility functions for implementing parallel simulation protocols.">
<polygon fill="white" stroke="black" points="154,-38.5 154,-57.5 273,-57.5 273,-38.5 154,-38.5"/>
<text text-anchor="middle" x="213.5" y="-45.5" font-family="Helvetica,sans-Serif" font-size="10.00">cParsimProtocolBase</text>
</a>
</g>
</g>
<!-- Node0&#45;&gt;Node1 -->
<g id="edge1" class="edge">
<title>Node0&#45;&gt;Node1</title>
<path fill="none" stroke="midnightblue" d="M128.36,-48C136.85,-48 145.48,-48 153.81,-48"/>
<polygon fill="midnightblue" stroke="midnightblue" points="128.09,-44.5 118.09,-48 128.09,-51.5 128.09,-44.5"/>
</g>
<!-- Node2 -->
<g id="node3" class="node">
<title>Node2</title>
<g id="a_node3"><a xlink:href="classomnetpp_1_1cIdealSimulationProtocol.html" target="_top" xlink:title="Implements the Ideal Simulation Protocol, described in the paper &quot;Performance Evaluation of Conservat...">
<polygon fill="white" stroke="black" points="309,-76.5 309,-95.5 447,-95.5 447,-76.5 309,-76.5"/>
<text text-anchor="middle" x="378" y="-83.5" font-family="Helvetica,sans-Serif" font-size="10.00">cIdealSimulationProtocol</text>
</a>
</g>
</g>
<!-- Node1&#45;&gt;Node2 -->
<g id="edge2" class="edge">
<title>Node1&#45;&gt;Node2</title>
<path fill="none" stroke="midnightblue" d="M265.37,-59.9C288.21,-65.24 314.8,-71.45 336.29,-76.48"/>
<polygon fill="midnightblue" stroke="midnightblue" points="266.04,-56.46 255.51,-57.59 264.45,-63.27 266.04,-56.46"/>
</g>
<!-- Node3 -->
<g id="node4" class="node">
<title>Node3</title>
<g id="a_node4"><a xlink:href="classomnetpp_1_1cNoSynchronization.html" target="_top" xlink:title="&quot;Dummy&quot; implementation – just pass messages between partitions, without any synchronization....">
<polygon fill="white" stroke="black" points="321.5,-38.5 321.5,-57.5 434.5,-57.5 434.5,-38.5 321.5,-38.5"/>
<text text-anchor="middle" x="378" y="-45.5" font-family="Helvetica,sans-Serif" font-size="10.00">cNoSynchronization</text>
</a>
</g>
</g>
<!-- Node1&#45;&gt;Node3 -->
<g id="edge3" class="edge">
<title>Node1&#45;&gt;Node3</title>
<path fill="none" stroke="midnightblue" d="M283.26,-48C295.98,-48 309.13,-48 321.4,-48"/>
<polygon fill="midnightblue" stroke="midnightblue" points="283.17,-44.5 273.17,-48 283.17,-51.5 283.17,-44.5"/>
</g>
<!-- Node4 -->
<g id="node5" class="node">
<title>Node4</title>
<g id="a_node5"><a xlink:href="classomnetpp_1_1cNullMessageProtocol.html" target="_top" xlink:title="Implements the &quot;null message algorithm&quot;. Lookahead calculation is encapsulated into a separate object...">
<polygon fill="white" stroke="black" points="315.5,-0.5 315.5,-19.5 440.5,-19.5 440.5,-0.5 315.5,-0.5"/>
<text text-anchor="middle" x="378" y="-7.5" font-family="Helvetica,sans-Serif" font-size="10.00">cNullMessageProtocol</text>
</a>
</g>
</g>
<!-- Node1&#45;&gt;Node4 -->
<g id="edge4" class="edge">
<title>Node1&#45;&gt;Node4</title>
<path fill="none" stroke="midnightblue" d="M265.37,-36.1C288.21,-30.76 314.8,-24.55 336.29,-19.52"/>
<polygon fill="midnightblue" stroke="midnightblue" points="264.45,-32.73 255.51,-38.41 266.04,-39.54 264.45,-32.73"/>
</g>
<!-- Node5 -->
<g id="node6" class="node">
<title>Node5</title>
<g id="a_node6"><a xlink:href="classomnetpp_1_1cISPEventLogger.html" target="_top" xlink:title="Implements phase one for the Ideal Simulation Protocol (ISP), namely, creating the log of &quot;external&quot; ...">
<polygon fill="white" stroke="black" points="483,-0.5 483,-19.5 581,-19.5 581,-0.5 483,-0.5"/>
<text text-anchor="middle" x="532" y="-7.5" font-family="Helvetica,sans-Serif" font-size="10.00">cISPEventLogger</text>
</a>
</g>
</g>
<!-- Node4&#45;&gt;Node5 -->
<g id="edge5" class="edge">
<title>Node4&#45;&gt;Node5</title>
<path fill="none" stroke="midnightblue" d="M451.06,-10C461.81,-10 472.66,-10 482.75,-10"/>
<polygon fill="midnightblue" stroke="midnightblue" points="450.82,-6.5 440.82,-10 450.82,-13.5 450.82,-6.5"/>
</g>
</g>
</svg>
